M48
; DRILL file {KiCad 8.0.1} date 2024-05-08T13:58:43+0700
; FORMAT={-:-/ absolute / metric / decimal}
; #@! TF.CreationDate,2024-05-08T13:58:43+07:00
; #@! TF.GenerationSoftware,Kicad,Pcbnew,8.0.1
; #@! TF.FileFunction,Plated,1,2,PTH
FMAT,2
METRIC
; #@! TA.AperFunction,Plated,PTH,ViaDrill
T1C0.300
; #@! TA.AperFunction,Plated,PTH,ComponentDrill
T2C0.600
; #@! TA.AperFunction,Plated,PTH,ComponentDrill
T3C0.800
; #@! TA.AperFunction,Plated,PTH,ComponentDrill
T4C0.990
; #@! TA.AperFunction,Plated,PTH,ComponentDrill
T5C1.000
%
G90
G05
T1
X147.4Y-123.8
X151.575Y-103.075
X151.9Y-109.2
X164.5Y-81.5
X164.8Y-87.88
X170.9Y-102.6
X177.3Y-124.5
T2
X167.5Y-104.9
X169.5Y-104.9
X172.4Y-104.9
X174.4Y-104.9
T3
X152.7Y-83.05
X152.7Y-95.75
X152.7Y-99.45
X152.7Y-112.15
X156.8Y-83.05
X156.8Y-95.75
X156.8Y-99.45
X156.8Y-112.15
X168.09Y-97.155
X168.09Y-99.695
X170.63Y-97.155
X170.63Y-99.695
X173.17Y-97.155
X173.17Y-99.695
X175.71Y-97.155
X175.71Y-99.695
T4
X167.76Y-110.5
X170.3Y-110.5
X172.84Y-110.5
T5
X146.987Y-77.72
X146.987Y-80.26
X146.987Y-82.8
X146.987Y-85.34
X146.987Y-87.88
X146.987Y-90.42
X146.987Y-92.96
X146.987Y-95.5
X146.987Y-98.04
X146.987Y-100.58
X146.987Y-103.12
X146.987Y-105.66
X146.987Y-108.2
X146.987Y-110.74
X146.987Y-113.28
X149.73Y-119.9
X149.73Y-122.44
X149.73Y-124.98
X152.27Y-119.9
X152.27Y-122.44
X152.27Y-124.98
X154.81Y-119.9
X154.81Y-122.44
X154.81Y-124.98
X157.35Y-119.9
X157.35Y-122.44
X157.35Y-124.98
X159.89Y-119.9
X159.89Y-122.44
X159.89Y-124.98
X162.227Y-77.72
X162.227Y-80.26
X162.227Y-82.8
X162.227Y-85.34
X162.227Y-87.88
X162.227Y-90.42
X162.227Y-92.96
X162.227Y-95.5
X162.227Y-98.04
X162.227Y-100.58
X162.227Y-103.12
X162.227Y-105.66
X162.227Y-108.2
X162.227Y-110.74
X162.227Y-113.28
X162.43Y-119.9
X162.43Y-122.44
X162.43Y-124.98
X164.97Y-119.9
X164.97Y-122.44
X164.97Y-124.98
X167.51Y-119.9
X167.51Y-122.44
X167.51Y-124.98
X170.05Y-119.9
X170.05Y-122.44
X170.05Y-124.98
X172.59Y-119.9
X172.59Y-122.44
X172.59Y-124.98
X175.13Y-119.9
X175.13Y-122.44
X175.13Y-124.98
X178.6Y-106.2
X178.6Y-108.74
X178.6Y-111.28
X178.6Y-113.82
M30
