%TF.GenerationSoftware,KiCad,Pcbnew,8.0.1*%
%TF.CreationDate,2024-05-08T13:58:46+07:00*%
%TF.ProjectId,Arduino_RC_Transceiver_DIY_2.0.0,41726475-696e-46f5-9f52-435f5472616e,rev?*%
%TF.SameCoordinates,Original*%
%TF.FileFunction,Copper,L1,Top*%
%TF.FilePolarity,Positive*%
%FSLAX46Y46*%
G04 Gerber Fmt 4.6, Leading zero omitted, Abs format (unit mm)*
G04 Created by KiCad (PCBNEW 8.0.1) date 2024-05-08 13:58:46*
%MOMM*%
%LPD*%
G01*
G04 APERTURE LIST*
%TA.AperFunction,ComponentPad*%
%ADD10O,2.000000X2.300000*%
%TD*%
%TA.AperFunction,ComponentPad*%
%ADD11R,2.000000X2.300000*%
%TD*%
%TA.AperFunction,ComponentPad*%
%ADD12R,2.000000X2.000000*%
%TD*%
%TA.AperFunction,ComponentPad*%
%ADD13O,2.000000X1.600000*%
%TD*%
%TA.AperFunction,ComponentPad*%
%ADD14R,1.200000X1.200000*%
%TD*%
%TA.AperFunction,ComponentPad*%
%ADD15C,1.200000*%
%TD*%
%TA.AperFunction,ComponentPad*%
%ADD16C,1.600000*%
%TD*%
%TA.AperFunction,ComponentPad*%
%ADD17O,1.600000X1.600000*%
%TD*%
%TA.AperFunction,ComponentPad*%
%ADD18R,1.700000X1.700000*%
%TD*%
%TA.AperFunction,ComponentPad*%
%ADD19O,1.700000X1.700000*%
%TD*%
%TA.AperFunction,ComponentPad*%
%ADD20O,1.800000X2.000000*%
%TD*%
%TA.AperFunction,ViaPad*%
%ADD21C,0.600000*%
%TD*%
%TA.AperFunction,Conductor*%
%ADD22C,0.300000*%
%TD*%
G04 APERTURE END LIST*
D10*
%TO.P,U3,1,VIN*%
%TO.N,vin*%
X167760000Y-110500000D03*
%TO.P,U3,2,OUT*%
%TO.N,3v3*%
X170300000Y-110500000D03*
D11*
%TO.P,U3,3,GND*%
%TO.N,GND*%
X172840000Y-110500000D03*
%TD*%
D12*
%TO.P,U2,1,D0/TX*%
%TO.N,GPIO_D1_TX*%
X162227500Y-113280000D03*
D13*
%TO.P,U2,2,D1/RX*%
%TO.N,GPIO_D0_RX*%
X162227500Y-110740000D03*
%TO.P,U2,3,RESET_1*%
%TO.N,unconnected-(U2-RESET_1-Pad3)*%
X162227500Y-108200000D03*
%TO.P,U2,4,GND_1*%
%TO.N,GND*%
X162227500Y-105660000D03*
%TO.P,U2,5,D2*%
%TO.N,GPIO_D2*%
X162227500Y-103120000D03*
%TO.P,U2,6,D3*%
%TO.N,GPIO_D3*%
X162227500Y-100580000D03*
%TO.P,U2,7,D4*%
%TO.N,GPIO_D4*%
X162227500Y-98040000D03*
%TO.P,U2,8,D5*%
%TO.N,GPIO_D5*%
X162227500Y-95500000D03*
%TO.P,U2,9,D6*%
%TO.N,GPIO_D6*%
X162227500Y-92960000D03*
%TO.P,U2,10,D7*%
%TO.N,GPIO_D7*%
X162227500Y-90420000D03*
%TO.P,U2,11,D8*%
%TO.N,GPIO_D8*%
X162227500Y-87880000D03*
%TO.P,U2,12,D9*%
%TO.N,GPIO_D9*%
X162227500Y-85340000D03*
%TO.P,U2,13,D10*%
%TO.N,GPIO_D10_SS*%
X162227500Y-82800000D03*
%TO.P,U2,14,D11*%
%TO.N,GPIO_D11_MOSI*%
X162227500Y-80260000D03*
%TO.P,U2,15,D12*%
%TO.N,GPIO_D12_MISO*%
X162227500Y-77720000D03*
%TO.P,U2,16,D13*%
%TO.N,GPIO_D13_SCK*%
X146987500Y-77720000D03*
%TO.P,U2,17,3V3*%
%TO.N,unconnected-(U2-3V3-Pad17)*%
X146987500Y-80260000D03*
%TO.P,U2,18,AREF*%
%TO.N,unconnected-(U2-AREF-Pad18)*%
X146987500Y-82800000D03*
%TO.P,U2,19,A0*%
%TO.N,GPIO_A0*%
X146987500Y-85340000D03*
%TO.P,U2,20,A1*%
%TO.N,GPIO_A1*%
X146987500Y-87880000D03*
%TO.P,U2,21,A2*%
%TO.N,GPIO_A2*%
X146987500Y-90420000D03*
%TO.P,U2,22,A3*%
%TO.N,GPIO_A3*%
X146987500Y-92960000D03*
%TO.P,U2,23,A4*%
%TO.N,GPIO_A4_SDA*%
X146987500Y-95500000D03*
%TO.P,U2,24,A5*%
%TO.N,GPIO_A5_SCL*%
X146987500Y-98040000D03*
%TO.P,U2,25,A6*%
%TO.N,GPIO_A6*%
X146987500Y-100580000D03*
%TO.P,U2,26,A7*%
%TO.N,GPIO_A7*%
X146987500Y-103120000D03*
%TO.P,U2,27,5V*%
%TO.N,5v*%
X146987500Y-105660000D03*
%TO.P,U2,28,RESET_2*%
%TO.N,unconnected-(U2-RESET_2-Pad28)*%
X146987500Y-108200000D03*
%TO.P,U2,29,GND_2*%
%TO.N,GND*%
X146987500Y-110740000D03*
%TO.P,U2,30,VIN*%
%TO.N,vin*%
X146987500Y-113280000D03*
%TD*%
D14*
%TO.P,C1,1*%
%TO.N,3v3*%
X174400000Y-104900000D03*
D15*
%TO.P,C1,2*%
%TO.N,GND*%
X172400000Y-104900000D03*
%TD*%
D16*
%TO.P,R3,1*%
%TO.N,GPIO_A7*%
X156800000Y-95750000D03*
D17*
%TO.P,R3,2*%
%TO.N,vin*%
X156800000Y-83050000D03*
%TD*%
D18*
%TO.P,J2,1,Pin_1*%
%TO.N,GND*%
X178600000Y-106200000D03*
D19*
%TO.P,J2,2,Pin_2*%
%TO.N,5v*%
X178600000Y-108740000D03*
%TO.P,J2,3,Pin_3*%
%TO.N,GPIO_A4_SDA*%
X178600000Y-111280000D03*
%TO.P,J2,4,Pin_4*%
%TO.N,GPIO_A5_SCL*%
X178600000Y-113820000D03*
%TD*%
D20*
%TO.P,U1,1,GND*%
%TO.N,GND*%
X168090000Y-99695000D03*
%TO.P,U1,2,CE*%
%TO.N,GPIO_D9*%
X170630000Y-99695000D03*
%TO.P,U1,3,SCK*%
%TO.N,GPIO_D13_SCK*%
X173170000Y-99695000D03*
%TO.P,U1,4,MISO*%
%TO.N,GPIO_D12_MISO*%
X175710000Y-99695000D03*
%TO.P,U1,5,IRQ*%
%TO.N,unconnected-(U1-IRQ-Pad5)*%
X175710000Y-97155000D03*
%TO.P,U1,6,MOSI*%
%TO.N,GPIO_D11_MOSI*%
X173170000Y-97155000D03*
%TO.P,U1,7,CSN*%
%TO.N,GPIO_D8*%
X170630000Y-97155000D03*
%TO.P,U1,8,VCC*%
%TO.N,3v3*%
X168090000Y-97155000D03*
%TD*%
D16*
%TO.P,R5,1*%
%TO.N,GND*%
X152700000Y-83050000D03*
D17*
%TO.P,R5,2*%
%TO.N,GPIO_A7*%
X152700000Y-95750000D03*
%TD*%
D19*
%TO.P,J5,11,Pin_11*%
%TO.N,GND*%
X149730000Y-124980000D03*
%TO.P,J5,10,Pin_10*%
X152270000Y-124980000D03*
%TO.P,J5,9,Pin_9*%
X154810000Y-124980000D03*
%TO.P,J5,8,Pin_8*%
X157350000Y-124980000D03*
%TO.P,J5,7,Pin_7*%
X159890000Y-124980000D03*
%TO.P,J5,6,Pin_6*%
X162430000Y-124980000D03*
%TO.P,J5,5,Pin_5*%
X164970000Y-124980000D03*
%TO.P,J5,4,Pin_4*%
X167510000Y-124980000D03*
%TO.P,J5,3,Pin_3*%
X170050000Y-124980000D03*
%TO.P,J5,2,Pin_2*%
X172590000Y-124980000D03*
D18*
%TO.P,J5,1,Pin_1*%
X175130000Y-124980000D03*
%TD*%
D19*
%TO.P,J3,11,Pin_11*%
%TO.N,GPIO_A3*%
X149730000Y-119900000D03*
%TO.P,J3,10,Pin_10*%
%TO.N,GPIO_A2*%
X152270000Y-119900000D03*
%TO.P,J3,9,Pin_9*%
%TO.N,GPIO_A1*%
X154810000Y-119900000D03*
%TO.P,J3,8,Pin_8*%
%TO.N,GPIO_A0*%
X157350000Y-119900000D03*
%TO.P,J3,7,Pin_7*%
%TO.N,GPIO_D10_SS*%
X159890000Y-119900000D03*
%TO.P,J3,6,Pin_6*%
%TO.N,GPIO_D7*%
X162430000Y-119900000D03*
%TO.P,J3,5,Pin_5*%
%TO.N,GPIO_D2*%
X164970000Y-119900000D03*
%TO.P,J3,4,Pin_4*%
%TO.N,GPIO_D3*%
X167510000Y-119900000D03*
%TO.P,J3,3,Pin_3*%
%TO.N,GPIO_D4*%
X170050000Y-119900000D03*
%TO.P,J3,2,Pin_2*%
%TO.N,GPIO_D5*%
X172590000Y-119900000D03*
D18*
%TO.P,J3,1,Pin_1*%
%TO.N,GPIO_D6*%
X175130000Y-119900000D03*
%TD*%
D19*
%TO.P,J4,11,Pin_11*%
%TO.N,vin*%
X149730000Y-122440000D03*
%TO.P,J4,10,Pin_10*%
X152270000Y-122440000D03*
%TO.P,J4,9,Pin_9*%
X154810000Y-122440000D03*
%TO.P,J4,8,Pin_8*%
X157350000Y-122440000D03*
%TO.P,J4,7,Pin_7*%
X159890000Y-122440000D03*
%TO.P,J4,6,Pin_6*%
X162430000Y-122440000D03*
%TO.P,J4,5,Pin_5*%
X164970000Y-122440000D03*
%TO.P,J4,4,Pin_4*%
X167510000Y-122440000D03*
%TO.P,J4,3,Pin_3*%
X170050000Y-122440000D03*
%TO.P,J4,2,Pin_2*%
X172590000Y-122440000D03*
D18*
%TO.P,J4,1,Pin_1*%
X175130000Y-122440000D03*
%TD*%
D16*
%TO.P,R2,1*%
%TO.N,GPIO_A4_SDA*%
X156800000Y-112150000D03*
D17*
%TO.P,R2,2*%
%TO.N,3v3*%
X156800000Y-99450000D03*
%TD*%
D16*
%TO.P,R1,1*%
%TO.N,GPIO_A5_SCL*%
X152700000Y-112150000D03*
D17*
%TO.P,R1,2*%
%TO.N,3v3*%
X152700000Y-99450000D03*
%TD*%
D15*
%TO.P,C2,2*%
%TO.N,GND*%
X167500000Y-104900000D03*
D14*
%TO.P,C2,1*%
%TO.N,3v3*%
X169500000Y-104900000D03*
%TD*%
D21*
%TO.N,GND*%
X164500000Y-81500000D03*
X177300000Y-124500000D03*
X147400000Y-123800000D03*
X170900000Y-102600000D03*
X151900000Y-109200000D03*
%TO.N,GPIO_A7*%
X151575000Y-103075000D03*
%TO.N,GPIO_D8*%
X164800000Y-87880000D03*
%TD*%
D22*
%TO.N,GND*%
X170200000Y-101900000D02*
X170900000Y-102600000D01*
X168090000Y-101290000D02*
X168700000Y-101900000D01*
X168700000Y-101900000D02*
X170200000Y-101900000D01*
X168090000Y-99695000D02*
X168090000Y-101290000D01*
%TO.N,vin*%
X146180000Y-113280000D02*
X146987500Y-113280000D01*
X145200000Y-112300000D02*
X146180000Y-113280000D01*
X152900000Y-75100000D02*
X146300000Y-75100000D01*
X145200000Y-76200000D02*
X145200000Y-112300000D01*
X156800000Y-79000000D02*
X152900000Y-75100000D01*
X146300000Y-75100000D02*
X145200000Y-76200000D01*
X156800000Y-83050000D02*
X156800000Y-79000000D01*
%TO.N,GPIO_A5_SCL*%
X175620000Y-116700000D02*
X157250000Y-116700000D01*
X178500000Y-113820000D02*
X175620000Y-116700000D01*
X178600000Y-113820000D02*
X178500000Y-113820000D01*
%TO.N,GPIO_A4_SDA*%
X173680000Y-116100000D02*
X178500000Y-111280000D01*
%TO.N,GPIO_A5_SCL*%
X157250000Y-116700000D02*
X152700000Y-112150000D01*
%TO.N,GPIO_A4_SDA*%
X159618630Y-116100000D02*
X173680000Y-116100000D01*
X156800000Y-113281370D02*
X159618630Y-116100000D01*
X178500000Y-111280000D02*
X178600000Y-111280000D01*
X156800000Y-112150000D02*
X156800000Y-113281370D01*
%TO.N,3v3*%
X170300000Y-112500000D02*
X170300000Y-110500000D01*
X167300000Y-115500000D02*
X170300000Y-112500000D01*
X158400000Y-101050000D02*
X158400000Y-113400000D01*
X156800000Y-99450000D02*
X158400000Y-101050000D01*
X158400000Y-113400000D02*
X160500000Y-115500000D01*
X160500000Y-115500000D02*
X167300000Y-115500000D01*
%TO.N,GPIO_A4_SDA*%
X156800000Y-106051472D02*
X156800000Y-112150000D01*
X149200000Y-98451472D02*
X156800000Y-106051472D01*
X146987500Y-95500000D02*
X149200000Y-97712500D01*
X149200000Y-97712500D02*
X149200000Y-98451472D01*
%TO.N,GPIO_A5_SCL*%
X146987500Y-98040000D02*
X147940000Y-98040000D01*
X147940000Y-98040000D02*
X152700000Y-102800000D01*
X152700000Y-102800000D02*
X152700000Y-112150000D01*
%TO.N,GPIO_A7*%
X151530000Y-103120000D02*
X151575000Y-103075000D01*
X146987500Y-103120000D02*
X151530000Y-103120000D01*
%TO.N,3v3*%
X169500000Y-103900000D02*
X169500000Y-104900000D01*
X167000000Y-97400000D02*
X166400000Y-98000000D01*
X166400000Y-98000000D02*
X166400000Y-100800000D01*
X167845000Y-97400000D02*
X167000000Y-97400000D01*
X168090000Y-97155000D02*
X167845000Y-97400000D01*
X166400000Y-100800000D02*
X169500000Y-103900000D01*
%TO.N,GPIO_D8*%
X170630000Y-93710000D02*
X164800000Y-87880000D01*
X170630000Y-97155000D02*
X170630000Y-93710000D01*
%TO.N,GND*%
X150360000Y-110740000D02*
X151900000Y-109200000D01*
X146987500Y-110740000D02*
X150360000Y-110740000D01*
%TO.N,3v3*%
X156800000Y-99450000D02*
X152700000Y-99450000D01*
%TO.N,GPIO_A7*%
X152700000Y-95750000D02*
X156800000Y-95750000D01*
%TD*%
%TA.AperFunction,Conductor*%
%TO.N,GND*%
G36*
X151804075Y-124787007D02*
G01*
X151770000Y-124914174D01*
X151770000Y-125045826D01*
X151804075Y-125172993D01*
X151836988Y-125230000D01*
X150163012Y-125230000D01*
X150195925Y-125172993D01*
X150230000Y-125045826D01*
X150230000Y-124914174D01*
X150195925Y-124787007D01*
X150163012Y-124730000D01*
X151836988Y-124730000D01*
X151804075Y-124787007D01*
G37*
%TD.AperFunction*%
%TA.AperFunction,Conductor*%
G36*
X154344075Y-124787007D02*
G01*
X154310000Y-124914174D01*
X154310000Y-125045826D01*
X154344075Y-125172993D01*
X154376988Y-125230000D01*
X152703012Y-125230000D01*
X152735925Y-125172993D01*
X152770000Y-125045826D01*
X152770000Y-124914174D01*
X152735925Y-124787007D01*
X152703012Y-124730000D01*
X154376988Y-124730000D01*
X154344075Y-124787007D01*
G37*
%TD.AperFunction*%
%TA.AperFunction,Conductor*%
G36*
X156884075Y-124787007D02*
G01*
X156850000Y-124914174D01*
X156850000Y-125045826D01*
X156884075Y-125172993D01*
X156916988Y-125230000D01*
X155243012Y-125230000D01*
X155275925Y-125172993D01*
X155310000Y-125045826D01*
X155310000Y-124914174D01*
X155275925Y-124787007D01*
X155243012Y-124730000D01*
X156916988Y-124730000D01*
X156884075Y-124787007D01*
G37*
%TD.AperFunction*%
%TA.AperFunction,Conductor*%
G36*
X159424075Y-124787007D02*
G01*
X159390000Y-124914174D01*
X159390000Y-125045826D01*
X159424075Y-125172993D01*
X159456988Y-125230000D01*
X157783012Y-125230000D01*
X157815925Y-125172993D01*
X157850000Y-125045826D01*
X157850000Y-124914174D01*
X157815925Y-124787007D01*
X157783012Y-124730000D01*
X159456988Y-124730000D01*
X159424075Y-124787007D01*
G37*
%TD.AperFunction*%
%TA.AperFunction,Conductor*%
G36*
X161964075Y-124787007D02*
G01*
X161930000Y-124914174D01*
X161930000Y-125045826D01*
X161964075Y-125172993D01*
X161996988Y-125230000D01*
X160323012Y-125230000D01*
X160355925Y-125172993D01*
X160390000Y-125045826D01*
X160390000Y-124914174D01*
X160355925Y-124787007D01*
X160323012Y-124730000D01*
X161996988Y-124730000D01*
X161964075Y-124787007D01*
G37*
%TD.AperFunction*%
%TA.AperFunction,Conductor*%
G36*
X164504075Y-124787007D02*
G01*
X164470000Y-124914174D01*
X164470000Y-125045826D01*
X164504075Y-125172993D01*
X164536988Y-125230000D01*
X162863012Y-125230000D01*
X162895925Y-125172993D01*
X162930000Y-125045826D01*
X162930000Y-124914174D01*
X162895925Y-124787007D01*
X162863012Y-124730000D01*
X164536988Y-124730000D01*
X164504075Y-124787007D01*
G37*
%TD.AperFunction*%
%TA.AperFunction,Conductor*%
G36*
X167044075Y-124787007D02*
G01*
X167010000Y-124914174D01*
X167010000Y-125045826D01*
X167044075Y-125172993D01*
X167076988Y-125230000D01*
X165403012Y-125230000D01*
X165435925Y-125172993D01*
X165470000Y-125045826D01*
X165470000Y-124914174D01*
X165435925Y-124787007D01*
X165403012Y-124730000D01*
X167076988Y-124730000D01*
X167044075Y-124787007D01*
G37*
%TD.AperFunction*%
%TA.AperFunction,Conductor*%
G36*
X169584075Y-124787007D02*
G01*
X169550000Y-124914174D01*
X169550000Y-125045826D01*
X169584075Y-125172993D01*
X169616988Y-125230000D01*
X167943012Y-125230000D01*
X167975925Y-125172993D01*
X168010000Y-125045826D01*
X168010000Y-124914174D01*
X167975925Y-124787007D01*
X167943012Y-124730000D01*
X169616988Y-124730000D01*
X169584075Y-124787007D01*
G37*
%TD.AperFunction*%
%TA.AperFunction,Conductor*%
G36*
X172124075Y-124787007D02*
G01*
X172090000Y-124914174D01*
X172090000Y-125045826D01*
X172124075Y-125172993D01*
X172156988Y-125230000D01*
X170483012Y-125230000D01*
X170515925Y-125172993D01*
X170550000Y-125045826D01*
X170550000Y-124914174D01*
X170515925Y-124787007D01*
X170483012Y-124730000D01*
X172156988Y-124730000D01*
X172124075Y-124787007D01*
G37*
%TD.AperFunction*%
%TA.AperFunction,Conductor*%
G36*
X174664075Y-124787007D02*
G01*
X174630000Y-124914174D01*
X174630000Y-125045826D01*
X174664075Y-125172993D01*
X174696988Y-125230000D01*
X173023012Y-125230000D01*
X173055925Y-125172993D01*
X173090000Y-125045826D01*
X173090000Y-124914174D01*
X173055925Y-124787007D01*
X173023012Y-124730000D01*
X174696988Y-124730000D01*
X174664075Y-124787007D01*
G37*
%TD.AperFunction*%
%TA.AperFunction,Conductor*%
G36*
X179044418Y-71140816D02*
G01*
X179244561Y-71155130D01*
X179262063Y-71157647D01*
X179453797Y-71199355D01*
X179470755Y-71204334D01*
X179654609Y-71272909D01*
X179670701Y-71280259D01*
X179842904Y-71374288D01*
X179857784Y-71383849D01*
X180014867Y-71501441D01*
X180028237Y-71513027D01*
X180166972Y-71651762D01*
X180178558Y-71665132D01*
X180296146Y-71822210D01*
X180305711Y-71837095D01*
X180399740Y-72009298D01*
X180407090Y-72025390D01*
X180475662Y-72209236D01*
X180480646Y-72226212D01*
X180522351Y-72417931D01*
X180524869Y-72435442D01*
X180539184Y-72635580D01*
X180539500Y-72644427D01*
X180539500Y-72713057D01*
X180539598Y-72714549D01*
X180594106Y-113740087D01*
X180594106Y-113740089D01*
X180594191Y-113804648D01*
X180594290Y-113879129D01*
X180594297Y-113879238D01*
X180594457Y-114002314D01*
X180594458Y-114002332D01*
X180629169Y-114393424D01*
X180629170Y-114393430D01*
X180697215Y-114776689D01*
X180697813Y-114780054D01*
X180799855Y-115159198D01*
X180799856Y-115159203D01*
X180799859Y-115159211D01*
X180854134Y-115307853D01*
X180934534Y-115528045D01*
X180934537Y-115528051D01*
X181099675Y-115881307D01*
X181100820Y-115883755D01*
X181100829Y-115883773D01*
X181175696Y-116013181D01*
X181297454Y-116223641D01*
X181297459Y-116223649D01*
X181297464Y-116223656D01*
X181522930Y-116545100D01*
X181522934Y-116545105D01*
X181522935Y-116545106D01*
X181775553Y-116845714D01*
X181775562Y-116845723D01*
X181775563Y-116845724D01*
X182053385Y-117123179D01*
X182053392Y-117123185D01*
X182354330Y-117375401D01*
X182676084Y-117600449D01*
X182676097Y-117600457D01*
X183016224Y-117796630D01*
X183016228Y-117796632D01*
X183016235Y-117796636D01*
X183016249Y-117796642D01*
X183016256Y-117796646D01*
X183371318Y-117962055D01*
X183372166Y-117962450D01*
X183554210Y-118028648D01*
X183741183Y-118096639D01*
X183879851Y-118133762D01*
X184120487Y-118198184D01*
X184507190Y-118266313D01*
X184507192Y-118266313D01*
X184507197Y-118266314D01*
X184594556Y-118273950D01*
X184898358Y-118300507D01*
X185094688Y-118300500D01*
X185160580Y-118300500D01*
X188034108Y-118300500D01*
X188095572Y-118300500D01*
X188104418Y-118300816D01*
X188304561Y-118315130D01*
X188322063Y-118317647D01*
X188513797Y-118359355D01*
X188530755Y-118364334D01*
X188714609Y-118432909D01*
X188730701Y-118440259D01*
X188902904Y-118534288D01*
X188917784Y-118543849D01*
X189074867Y-118661441D01*
X189088237Y-118673027D01*
X189226972Y-118811762D01*
X189238558Y-118825132D01*
X189356146Y-118982210D01*
X189365711Y-118997095D01*
X189459740Y-119169298D01*
X189467090Y-119185390D01*
X189535662Y-119369236D01*
X189540646Y-119386212D01*
X189582351Y-119577931D01*
X189584869Y-119595442D01*
X189599184Y-119795580D01*
X189599500Y-119804427D01*
X189599500Y-125695572D01*
X189599184Y-125704419D01*
X189584869Y-125904557D01*
X189582351Y-125922068D01*
X189540646Y-126113787D01*
X189535662Y-126130763D01*
X189467090Y-126314609D01*
X189459740Y-126330701D01*
X189365711Y-126502904D01*
X189356146Y-126517789D01*
X189238558Y-126674867D01*
X189226972Y-126688237D01*
X189088237Y-126826972D01*
X189074867Y-126838558D01*
X188917789Y-126956146D01*
X188902904Y-126965711D01*
X188730701Y-127059740D01*
X188714609Y-127067090D01*
X188530763Y-127135662D01*
X188513787Y-127140646D01*
X188322068Y-127182351D01*
X188304557Y-127184869D01*
X188123779Y-127197799D01*
X188104417Y-127199184D01*
X188095572Y-127199500D01*
X136604428Y-127199500D01*
X136595582Y-127199184D01*
X136573622Y-127197613D01*
X136395442Y-127184869D01*
X136377931Y-127182351D01*
X136186212Y-127140646D01*
X136169236Y-127135662D01*
X135985390Y-127067090D01*
X135969298Y-127059740D01*
X135797095Y-126965711D01*
X135782210Y-126956146D01*
X135625132Y-126838558D01*
X135611762Y-126826972D01*
X135473027Y-126688237D01*
X135461441Y-126674867D01*
X135343849Y-126517784D01*
X135334288Y-126502904D01*
X135240259Y-126330701D01*
X135232909Y-126314609D01*
X135231426Y-126310633D01*
X135164334Y-126130755D01*
X135159355Y-126113797D01*
X135117647Y-125922063D01*
X135115130Y-125904556D01*
X135113218Y-125877827D01*
X135100816Y-125704418D01*
X135100500Y-125695572D01*
X135100500Y-122440001D01*
X137094390Y-122440001D01*
X137114804Y-122725433D01*
X137175628Y-123005037D01*
X137175630Y-123005043D01*
X137175631Y-123005046D01*
X137217699Y-123117834D01*
X137275635Y-123273166D01*
X137412770Y-123524309D01*
X137412775Y-123524317D01*
X137584254Y-123753387D01*
X137584270Y-123753405D01*
X137786594Y-123955729D01*
X137786612Y-123955745D01*
X138015682Y-124127224D01*
X138015690Y-124127229D01*
X138266833Y-124264364D01*
X138266832Y-124264364D01*
X138266836Y-124264365D01*
X138266839Y-124264367D01*
X138534954Y-124364369D01*
X138534960Y-124364370D01*
X138534962Y-124364371D01*
X138814566Y-124425195D01*
X138814568Y-124425195D01*
X138814572Y-124425196D01*
X139068220Y-124443337D01*
X139099999Y-124445610D01*
X139100000Y-124445610D01*
X139100001Y-124445610D01*
X139128595Y-124443564D01*
X139385428Y-124425196D01*
X139665046Y-124364369D01*
X139933161Y-124264367D01*
X140184315Y-124127226D01*
X140413395Y-123955739D01*
X140615739Y-123753395D01*
X140787226Y-123524315D01*
X140924367Y-123273161D01*
X141024369Y-123005046D01*
X141046423Y-122903664D01*
X141085195Y-122725433D01*
X141085195Y-122725432D01*
X141085196Y-122725428D01*
X141105610Y-122440000D01*
X148374341Y-122440000D01*
X148394936Y-122675403D01*
X148394938Y-122675413D01*
X148456094Y-122903655D01*
X148456096Y-122903659D01*
X148456097Y-122903663D01*
X148503369Y-123005037D01*
X148555965Y-123117830D01*
X148555967Y-123117834D01*
X148663254Y-123271054D01*
X148691501Y-123311396D01*
X148691506Y-123311402D01*
X148858597Y-123478493D01*
X148858603Y-123478498D01*
X149044594Y-123608730D01*
X149088219Y-123663307D01*
X149095413Y-123732805D01*
X149063890Y-123795160D01*
X149044595Y-123811880D01*
X148858922Y-123941890D01*
X148858920Y-123941891D01*
X148691891Y-124108920D01*
X148691886Y-124108926D01*
X148556400Y-124302420D01*
X148556399Y-124302422D01*
X148456570Y-124516507D01*
X148456567Y-124516513D01*
X148399364Y-124729999D01*
X148399364Y-124730000D01*
X149296988Y-124730000D01*
X149264075Y-124787007D01*
X149230000Y-124914174D01*
X149230000Y-125045826D01*
X149264075Y-125172993D01*
X149296988Y-125230000D01*
X148399364Y-125230000D01*
X148456567Y-125443486D01*
X148456570Y-125443492D01*
X148556399Y-125657578D01*
X148691894Y-125851082D01*
X148858917Y-126018105D01*
X149052421Y-126153600D01*
X149266507Y-126253429D01*
X149266516Y-126253433D01*
X149480000Y-126310634D01*
X149480000Y-125413012D01*
X149537007Y-125445925D01*
X149664174Y-125480000D01*
X149795826Y-125480000D01*
X149922993Y-125445925D01*
X149980000Y-125413012D01*
X149980000Y-126310633D01*
X150193483Y-126253433D01*
X150193492Y-126253429D01*
X150407578Y-126153600D01*
X150601082Y-126018105D01*
X150768105Y-125851082D01*
X150898425Y-125664968D01*
X150953002Y-125621344D01*
X151022501Y-125614151D01*
X151084855Y-125645673D01*
X151101575Y-125664968D01*
X151231894Y-125851082D01*
X151398917Y-126018105D01*
X151592421Y-126153600D01*
X151806507Y-126253429D01*
X151806516Y-126253433D01*
X152020000Y-126310634D01*
X152020000Y-125413012D01*
X152077007Y-125445925D01*
X152204174Y-125480000D01*
X152335826Y-125480000D01*
X152462993Y-125445925D01*
X152520000Y-125413012D01*
X152520000Y-126310633D01*
X152733483Y-126253433D01*
X152733492Y-126253429D01*
X152947578Y-126153600D01*
X153141082Y-126018105D01*
X153308105Y-125851082D01*
X153438425Y-125664968D01*
X153493002Y-125621344D01*
X153562501Y-125614151D01*
X153624855Y-125645673D01*
X153641575Y-125664968D01*
X153771894Y-125851082D01*
X153938917Y-126018105D01*
X154132421Y-126153600D01*
X154346507Y-126253429D01*
X154346516Y-126253433D01*
X154560000Y-126310634D01*
X154560000Y-125413012D01*
X154617007Y-125445925D01*
X154744174Y-125480000D01*
X154875826Y-125480000D01*
X155002993Y-125445925D01*
X155060000Y-125413012D01*
X155060000Y-126310633D01*
X155273483Y-126253433D01*
X155273492Y-126253429D01*
X155487578Y-126153600D01*
X155681082Y-126018105D01*
X155848105Y-125851082D01*
X155978425Y-125664968D01*
X156033002Y-125621344D01*
X156102501Y-125614151D01*
X156164855Y-125645673D01*
X156181575Y-125664968D01*
X156311894Y-125851082D01*
X156478917Y-126018105D01*
X156672421Y-126153600D01*
X156886507Y-126253429D01*
X156886516Y-126253433D01*
X157100000Y-126310634D01*
X157100000Y-125413012D01*
X157157007Y-125445925D01*
X157284174Y-125480000D01*
X157415826Y-125480000D01*
X157542993Y-125445925D01*
X157600000Y-125413012D01*
X157600000Y-126310633D01*
X157813483Y-126253433D01*
X157813492Y-126253429D01*
X158027578Y-126153600D01*
X158221082Y-126018105D01*
X158388105Y-125851082D01*
X158518425Y-125664968D01*
X158573002Y-125621344D01*
X158642501Y-125614151D01*
X158704855Y-125645673D01*
X158721575Y-125664968D01*
X158851894Y-125851082D01*
X159018917Y-126018105D01*
X159212421Y-126153600D01*
X159426507Y-126253429D01*
X159426516Y-126253433D01*
X159640000Y-126310634D01*
X159640000Y-125413012D01*
X159697007Y-125445925D01*
X159824174Y-125480000D01*
X159955826Y-125480000D01*
X160082993Y-125445925D01*
X160140000Y-125413012D01*
X160140000Y-126310633D01*
X160353483Y-126253433D01*
X160353492Y-126253429D01*
X160567578Y-126153600D01*
X160761082Y-126018105D01*
X160928105Y-125851082D01*
X161058425Y-125664968D01*
X161113002Y-125621344D01*
X161182501Y-125614151D01*
X161244855Y-125645673D01*
X161261575Y-125664968D01*
X161391894Y-125851082D01*
X161558917Y-126018105D01*
X161752421Y-126153600D01*
X161966507Y-126253429D01*
X161966516Y-126253433D01*
X162180000Y-126310634D01*
X162180000Y-125413012D01*
X162237007Y-125445925D01*
X162364174Y-125480000D01*
X162495826Y-125480000D01*
X162622993Y-125445925D01*
X162680000Y-125413012D01*
X162680000Y-126310633D01*
X162893483Y-126253433D01*
X162893492Y-126253429D01*
X163107578Y-126153600D01*
X163301082Y-126018105D01*
X163468105Y-125851082D01*
X163598425Y-125664968D01*
X163653002Y-125621344D01*
X163722501Y-125614151D01*
X163784855Y-125645673D01*
X163801575Y-125664968D01*
X163931894Y-125851082D01*
X164098917Y-126018105D01*
X164292421Y-126153600D01*
X164506507Y-126253429D01*
X164506516Y-126253433D01*
X164720000Y-126310634D01*
X164720000Y-125413012D01*
X164777007Y-125445925D01*
X164904174Y-125480000D01*
X165035826Y-125480000D01*
X165162993Y-125445925D01*
X165220000Y-125413012D01*
X165220000Y-126310633D01*
X165433483Y-126253433D01*
X165433492Y-126253429D01*
X165647578Y-126153600D01*
X165841082Y-126018105D01*
X166008105Y-125851082D01*
X166138425Y-125664968D01*
X166193002Y-125621344D01*
X166262501Y-125614151D01*
X166324855Y-125645673D01*
X166341575Y-125664968D01*
X166471894Y-125851082D01*
X166638917Y-126018105D01*
X166832421Y-126153600D01*
X167046507Y-126253429D01*
X167046516Y-126253433D01*
X167260000Y-126310634D01*
X167260000Y-125413012D01*
X167317007Y-125445925D01*
X167444174Y-125480000D01*
X167575826Y-125480000D01*
X167702993Y-125445925D01*
X167760000Y-125413012D01*
X167760000Y-126310633D01*
X167973483Y-126253433D01*
X167973492Y-126253429D01*
X168187578Y-126153600D01*
X168381082Y-126018105D01*
X168548105Y-125851082D01*
X168678425Y-125664968D01*
X168733002Y-125621344D01*
X168802501Y-125614151D01*
X168864855Y-125645673D01*
X168881575Y-125664968D01*
X169011894Y-125851082D01*
X169178917Y-126018105D01*
X169372421Y-126153600D01*
X169586507Y-126253429D01*
X169586516Y-126253433D01*
X169800000Y-126310634D01*
X169800000Y-125413012D01*
X169857007Y-125445925D01*
X169984174Y-125480000D01*
X170115826Y-125480000D01*
X170242993Y-125445925D01*
X170300000Y-125413012D01*
X170300000Y-126310633D01*
X170513483Y-126253433D01*
X170513492Y-126253429D01*
X170727578Y-126153600D01*
X170921082Y-126018105D01*
X171088105Y-125851082D01*
X171218425Y-125664968D01*
X171273002Y-125621344D01*
X171342501Y-125614151D01*
X171404855Y-125645673D01*
X171421575Y-125664968D01*
X171551894Y-125851082D01*
X171718917Y-126018105D01*
X171912421Y-126153600D01*
X172126507Y-126253429D01*
X172126516Y-126253433D01*
X172340000Y-126310634D01*
X172340000Y-125413012D01*
X172397007Y-125445925D01*
X172524174Y-125480000D01*
X172655826Y-125480000D01*
X172782993Y-125445925D01*
X172840000Y-125413012D01*
X172840000Y-126310633D01*
X173053483Y-126253433D01*
X173053492Y-126253429D01*
X173267578Y-126153600D01*
X173461078Y-126018108D01*
X173583521Y-125895665D01*
X173644844Y-125862180D01*
X173714536Y-125867164D01*
X173770470Y-125909035D01*
X173787385Y-125940013D01*
X173836645Y-126072086D01*
X173836649Y-126072093D01*
X173922809Y-126187187D01*
X173922812Y-126187190D01*
X174037906Y-126273350D01*
X174037913Y-126273354D01*
X174172620Y-126323596D01*
X174172627Y-126323598D01*
X174232155Y-126329999D01*
X174232172Y-126330000D01*
X174880000Y-126330000D01*
X174880000Y-125413012D01*
X174937007Y-125445925D01*
X175064174Y-125480000D01*
X175195826Y-125480000D01*
X175322993Y-125445925D01*
X175380000Y-125413012D01*
X175380000Y-126330000D01*
X176027828Y-126330000D01*
X176027844Y-126329999D01*
X176087372Y-126323598D01*
X176087379Y-126323596D01*
X176222086Y-126273354D01*
X176222093Y-126273350D01*
X176337187Y-126187190D01*
X176337190Y-126187187D01*
X176423350Y-126072093D01*
X176423354Y-126072086D01*
X176473596Y-125937379D01*
X176473598Y-125937372D01*
X176479999Y-125877844D01*
X176480000Y-125877827D01*
X176480000Y-125230000D01*
X175563012Y-125230000D01*
X175595925Y-125172993D01*
X175630000Y-125045826D01*
X175630000Y-124914174D01*
X175595925Y-124787007D01*
X175563012Y-124730000D01*
X176480000Y-124730000D01*
X176480000Y-124082172D01*
X176479999Y-124082155D01*
X176473598Y-124022627D01*
X176473596Y-124022620D01*
X176423354Y-123887913D01*
X176423352Y-123887910D01*
X176346110Y-123784729D01*
X176321692Y-123719265D01*
X176336543Y-123650992D01*
X176346105Y-123636111D01*
X176423796Y-123532331D01*
X176474091Y-123397483D01*
X176480500Y-123337873D01*
X176480500Y-122440001D01*
X183094390Y-122440001D01*
X183114804Y-122725433D01*
X183175628Y-123005037D01*
X183175630Y-123005043D01*
X183175631Y-123005046D01*
X183217699Y-123117834D01*
X183275635Y-123273166D01*
X183412770Y-123524309D01*
X183412775Y-123524317D01*
X183584254Y-123753387D01*
X183584270Y-123753405D01*
X183786594Y-123955729D01*
X183786612Y-123955745D01*
X184015682Y-124127224D01*
X184015690Y-124127229D01*
X184266833Y-124264364D01*
X184266832Y-124264364D01*
X184266836Y-124264365D01*
X184266839Y-124264367D01*
X184534954Y-124364369D01*
X184534960Y-124364370D01*
X184534962Y-124364371D01*
X184814566Y-124425195D01*
X184814568Y-124425195D01*
X184814572Y-124425196D01*
X185068220Y-124443337D01*
X185099999Y-124445610D01*
X185100000Y-124445610D01*
X185100001Y-124445610D01*
X185128595Y-124443564D01*
X185385428Y-124425196D01*
X185665046Y-124364369D01*
X185933161Y-124264367D01*
X186184315Y-124127226D01*
X186413395Y-123955739D01*
X186615739Y-123753395D01*
X186787226Y-123524315D01*
X186924367Y-123273161D01*
X187024369Y-123005046D01*
X187046423Y-122903664D01*
X187085195Y-122725433D01*
X187085195Y-122725432D01*
X187085196Y-122725428D01*
X187105610Y-122440000D01*
X187085196Y-122154572D01*
X187046423Y-121976337D01*
X187024371Y-121874962D01*
X187024370Y-121874960D01*
X187024369Y-121874954D01*
X186924367Y-121606839D01*
X186903486Y-121568599D01*
X186787229Y-121355690D01*
X186787224Y-121355682D01*
X186615745Y-121126612D01*
X186615729Y-121126594D01*
X186413405Y-120924270D01*
X186413387Y-120924254D01*
X186184317Y-120752775D01*
X186184309Y-120752770D01*
X185933166Y-120615635D01*
X185933167Y-120615635D01*
X185801554Y-120566546D01*
X185665046Y-120515631D01*
X185665043Y-120515630D01*
X185665037Y-120515628D01*
X185385433Y-120454804D01*
X185100001Y-120434390D01*
X185099999Y-120434390D01*
X184814566Y-120454804D01*
X184534962Y-120515628D01*
X184266833Y-120615635D01*
X184015690Y-120752770D01*
X184015682Y-120752775D01*
X183786612Y-120924254D01*
X183786594Y-120924270D01*
X183584270Y-121126594D01*
X183584254Y-121126612D01*
X183412775Y-121355682D01*
X183412770Y-121355690D01*
X183275635Y-121606833D01*
X183175628Y-121874962D01*
X183114804Y-122154566D01*
X183094390Y-122439998D01*
X183094390Y-122440001D01*
X176480500Y-122440001D01*
X176480499Y-121542128D01*
X176474091Y-121482517D01*
X176472810Y-121479083D01*
X176423797Y-121347671D01*
X176423795Y-121347668D01*
X176346421Y-121244309D01*
X176322004Y-121178848D01*
X176336855Y-121110575D01*
X176346416Y-121095696D01*
X176423796Y-120992331D01*
X176474091Y-120857483D01*
X176480500Y-120797873D01*
X176480499Y-119002128D01*
X176474091Y-118942517D01*
X176472810Y-118939083D01*
X176423797Y-118807671D01*
X176423793Y-118807664D01*
X176337547Y-118692455D01*
X176337544Y-118692452D01*
X176222335Y-118606206D01*
X176222328Y-118606202D01*
X176087482Y-118555908D01*
X176087483Y-118555908D01*
X176027883Y-118549501D01*
X176027881Y-118549500D01*
X176027873Y-118549500D01*
X176027864Y-118549500D01*
X174232129Y-118549500D01*
X174232123Y-118549501D01*
X174172516Y-118555908D01*
X174037671Y-118606202D01*
X174037664Y-118606206D01*
X173922455Y-118692452D01*
X173922452Y-118692455D01*
X173836206Y-118807664D01*
X173836203Y-118807669D01*
X173787189Y-118939083D01*
X173745317Y-118995016D01*
X173679853Y-119019433D01*
X173611580Y-119004581D01*
X173583326Y-118983430D01*
X173461402Y-118861506D01*
X173461395Y-118861501D01*
X173267834Y-118725967D01*
X173267830Y-118725965D01*
X173267828Y-118725964D01*
X173053663Y-118626097D01*
X173053659Y-118626096D01*
X173053655Y-118626094D01*
X172825413Y-118564938D01*
X172825403Y-118564936D01*
X172590001Y-118544341D01*
X172589999Y-118544341D01*
X172354596Y-118564936D01*
X172354586Y-118564938D01*
X172126344Y-118626094D01*
X172126335Y-118626098D01*
X171912171Y-118725964D01*
X171912169Y-118725965D01*
X171718597Y-118861505D01*
X171551505Y-119028597D01*
X171421575Y-119214158D01*
X171366998Y-119257783D01*
X171297500Y-119264977D01*
X171235145Y-119233454D01*
X171218425Y-119214158D01*
X171088494Y-119028597D01*
X170921402Y-118861506D01*
X170921395Y-118861501D01*
X170727834Y-118725967D01*
X170727830Y-118725965D01*
X170727828Y-118725964D01*
X170513663Y-118626097D01*
X170513659Y-118626096D01*
X170513655Y-118626094D01*
X170285413Y-118564938D01*
X170285403Y-118564936D01*
X170050001Y-118544341D01*
X170049999Y-118544341D01*
X169814596Y-118564936D01*
X169814586Y-118564938D01*
X169586344Y-118626094D01*
X169586335Y-118626098D01*
X169372171Y-118725964D01*
X169372169Y-118725965D01*
X169178597Y-118861505D01*
X169011505Y-119028597D01*
X168881575Y-119214158D01*
X168826998Y-119257783D01*
X168757500Y-119264977D01*
X168695145Y-119233454D01*
X168678425Y-119214158D01*
X168548494Y-119028597D01*
X168381402Y-118861506D01*
X168381395Y-118861501D01*
X168187834Y-118725967D01*
X168187830Y-118725965D01*
X168187828Y-118725964D01*
X167973663Y-118626097D01*
X167973659Y-118626096D01*
X167973655Y-118626094D01*
X167745413Y-118564938D01*
X167745403Y-118564936D01*
X167510001Y-118544341D01*
X167509999Y-118544341D01*
X167274596Y-118564936D01*
X167274586Y-118564938D01*
X167046344Y-118626094D01*
X167046335Y-118626098D01*
X166832171Y-118725964D01*
X166832169Y-118725965D01*
X166638597Y-118861505D01*
X166471505Y-119028597D01*
X166341575Y-119214158D01*
X166286998Y-119257783D01*
X166217500Y-119264977D01*
X166155145Y-119233454D01*
X166138425Y-119214158D01*
X166008494Y-119028597D01*
X165841402Y-118861506D01*
X165841395Y-118861501D01*
X165647834Y-118725967D01*
X165647830Y-118725965D01*
X165647828Y-118725964D01*
X165433663Y-118626097D01*
X165433659Y-118626096D01*
X165433655Y-118626094D01*
X165205413Y-118564938D01*
X165205403Y-118564936D01*
X164970001Y-118544341D01*
X164969999Y-118544341D01*
X164734596Y-118564936D01*
X164734586Y-118564938D01*
X164506344Y-118626094D01*
X164506335Y-118626098D01*
X164292171Y-118725964D01*
X164292169Y-118725965D01*
X164098597Y-118861505D01*
X163931505Y-119028597D01*
X163801575Y-119214158D01*
X163746998Y-119257783D01*
X163677500Y-119264977D01*
X163615145Y-119233454D01*
X163598425Y-119214158D01*
X163468494Y-119028597D01*
X163301402Y-118861506D01*
X163301395Y-118861501D01*
X163107834Y-118725967D01*
X163107830Y-118725965D01*
X163107828Y-118725964D01*
X162893663Y-118626097D01*
X162893659Y-118626096D01*
X162893655Y-118626094D01*
X162665413Y-118564938D01*
X162665403Y-118564936D01*
X162430001Y-118544341D01*
X162429999Y-118544341D01*
X162194596Y-118564936D01*
X162194586Y-118564938D01*
X161966344Y-118626094D01*
X161966335Y-118626098D01*
X161752171Y-118725964D01*
X161752169Y-118725965D01*
X161558597Y-118861505D01*
X161391505Y-119028597D01*
X161261575Y-119214158D01*
X161206998Y-119257783D01*
X161137500Y-119264977D01*
X161075145Y-119233454D01*
X161058425Y-119214158D01*
X160928494Y-119028597D01*
X160761402Y-118861506D01*
X160761395Y-118861501D01*
X160567834Y-118725967D01*
X160567830Y-118725965D01*
X160567828Y-118725964D01*
X160353663Y-118626097D01*
X160353659Y-118626096D01*
X160353655Y-118626094D01*
X160125413Y-118564938D01*
X160125403Y-118564936D01*
X159890001Y-118544341D01*
X159889999Y-118544341D01*
X159654596Y-118564936D01*
X159654586Y-118564938D01*
X159426344Y-118626094D01*
X159426335Y-118626098D01*
X159212171Y-118725964D01*
X159212169Y-118725965D01*
X159018597Y-118861505D01*
X158851505Y-119028597D01*
X158721575Y-119214158D01*
X158666998Y-119257783D01*
X158597500Y-119264977D01*
X158535145Y-119233454D01*
X158518425Y-119214158D01*
X158388494Y-119028597D01*
X158221402Y-118861506D01*
X158221395Y-118861501D01*
X158027834Y-118725967D01*
X158027830Y-118725965D01*
X158027828Y-118725964D01*
X157813663Y-118626097D01*
X157813659Y-118626096D01*
X157813655Y-118626094D01*
X157585413Y-118564938D01*
X157585403Y-118564936D01*
X157350001Y-118544341D01*
X157349999Y-118544341D01*
X157114596Y-118564936D01*
X157114586Y-118564938D01*
X156886344Y-118626094D01*
X156886335Y-118626098D01*
X156672171Y-118725964D01*
X156672169Y-118725965D01*
X156478597Y-118861505D01*
X156311505Y-119028597D01*
X156181575Y-119214158D01*
X156126998Y-119257783D01*
X156057500Y-119264977D01*
X155995145Y-119233454D01*
X155978425Y-119214158D01*
X155848494Y-119028597D01*
X155681402Y-118861506D01*
X155681395Y-118861501D01*
X155487834Y-118725967D01*
X155487830Y-118725965D01*
X155487828Y-118725964D01*
X155273663Y-118626097D01*
X155273659Y-118626096D01*
X155273655Y-118626094D01*
X155045413Y-118564938D01*
X155045403Y-118564936D01*
X154810001Y-118544341D01*
X154809999Y-118544341D01*
X154574596Y-118564936D01*
X154574586Y-118564938D01*
X154346344Y-118626094D01*
X154346335Y-118626098D01*
X154132171Y-118725964D01*
X154132169Y-118725965D01*
X153938597Y-118861505D01*
X153771505Y-119028597D01*
X153641575Y-119214158D01*
X153586998Y-119257783D01*
X153517500Y-119264977D01*
X153455145Y-119233454D01*
X153438425Y-119214158D01*
X153308494Y-119028597D01*
X153141402Y-118861506D01*
X153141395Y-118861501D01*
X152947834Y-118725967D01*
X152947830Y-118725965D01*
X152947828Y-118725964D01*
X152733663Y-118626097D01*
X152733659Y-118626096D01*
X152733655Y-118626094D01*
X152505413Y-118564938D01*
X152505403Y-118564936D01*
X152270001Y-118544341D01*
X152269999Y-118544341D01*
X152034596Y-118564936D01*
X152034586Y-118564938D01*
X151806344Y-118626094D01*
X151806335Y-118626098D01*
X151592171Y-118725964D01*
X151592169Y-118725965D01*
X151398597Y-118861505D01*
X151231505Y-119028597D01*
X151101575Y-119214158D01*
X151046998Y-119257783D01*
X150977500Y-119264977D01*
X150915145Y-119233454D01*
X150898425Y-119214158D01*
X150768494Y-119028597D01*
X150601402Y-118861506D01*
X150601395Y-118861501D01*
X150407834Y-118725967D01*
X150407830Y-118725965D01*
X150407828Y-118725964D01*
X150193663Y-118626097D01*
X150193659Y-118626096D01*
X150193655Y-118626094D01*
X149965413Y-118564938D01*
X149965403Y-118564936D01*
X149730001Y-118544341D01*
X149729999Y-118544341D01*
X149494596Y-118564936D01*
X149494586Y-118564938D01*
X149266344Y-118626094D01*
X149266335Y-118626098D01*
X149052171Y-118725964D01*
X149052169Y-118725965D01*
X148858597Y-118861505D01*
X148691505Y-119028597D01*
X148555965Y-119222169D01*
X148555964Y-119222171D01*
X148456098Y-119436335D01*
X148456094Y-119436344D01*
X148394938Y-119664586D01*
X148394936Y-119664596D01*
X148374341Y-119899999D01*
X148374341Y-119900000D01*
X148394936Y-120135403D01*
X148394938Y-120135413D01*
X148456094Y-120363655D01*
X148456096Y-120363659D01*
X148456097Y-120363663D01*
X148460000Y-120372032D01*
X148555965Y-120577830D01*
X148555967Y-120577834D01*
X148582436Y-120615635D01*
X148691501Y-120771396D01*
X148691506Y-120771402D01*
X148858597Y-120938493D01*
X148858603Y-120938498D01*
X149044158Y-121068425D01*
X149087783Y-121123002D01*
X149094977Y-121192500D01*
X149063454Y-121254855D01*
X149044158Y-121271575D01*
X148858597Y-121401505D01*
X148691505Y-121568597D01*
X148555965Y-121762169D01*
X148555964Y-121762171D01*
X148456098Y-121976335D01*
X148456094Y-121976344D01*
X148394938Y-122204586D01*
X148394936Y-122204596D01*
X148374341Y-122439999D01*
X148374341Y-122440000D01*
X141105610Y-122440000D01*
X141085196Y-122154572D01*
X141046423Y-121976337D01*
X141024371Y-121874962D01*
X141024370Y-121874960D01*
X141024369Y-121874954D01*
X140924367Y-121606839D01*
X140903486Y-121568599D01*
X140787229Y-121355690D01*
X140787224Y-121355682D01*
X140615745Y-121126612D01*
X140615729Y-121126594D01*
X140413405Y-120924270D01*
X140413387Y-120924254D01*
X140184317Y-120752775D01*
X140184309Y-120752770D01*
X139933166Y-120615635D01*
X139933167Y-120615635D01*
X139801554Y-120566546D01*
X139665046Y-120515631D01*
X139665043Y-120515630D01*
X139665037Y-120515628D01*
X139385433Y-120454804D01*
X139100001Y-120434390D01*
X139099999Y-120434390D01*
X138814566Y-120454804D01*
X138534962Y-120515628D01*
X138266833Y-120615635D01*
X138015690Y-120752770D01*
X138015682Y-120752775D01*
X137786612Y-120924254D01*
X137786594Y-120924270D01*
X137584270Y-121126594D01*
X137584254Y-121126612D01*
X137412775Y-121355682D01*
X137412770Y-121355690D01*
X137275635Y-121606833D01*
X137175628Y-121874962D01*
X137114804Y-122154566D01*
X137094390Y-122439998D01*
X137094390Y-122440001D01*
X135100500Y-122440001D01*
X135100500Y-119804427D01*
X135100816Y-119795581D01*
X135110184Y-119664596D01*
X135115130Y-119595436D01*
X135117646Y-119577938D01*
X135159356Y-119386199D01*
X135164333Y-119369248D01*
X135232911Y-119185385D01*
X135240259Y-119169298D01*
X135322091Y-119019433D01*
X135334291Y-118997089D01*
X135343845Y-118982221D01*
X135461448Y-118825123D01*
X135473020Y-118811769D01*
X135611769Y-118673020D01*
X135625123Y-118661448D01*
X135782221Y-118543845D01*
X135797089Y-118534291D01*
X135969298Y-118440258D01*
X135985385Y-118432911D01*
X136169248Y-118364333D01*
X136186199Y-118359356D01*
X136377938Y-118317646D01*
X136395436Y-118315130D01*
X136595582Y-118300816D01*
X136604428Y-118300500D01*
X139875696Y-118300500D01*
X139876111Y-118300472D01*
X139998208Y-118300475D01*
X140389595Y-118266246D01*
X140389604Y-118266244D01*
X140389607Y-118266244D01*
X140518566Y-118243512D01*
X140776510Y-118198044D01*
X141005251Y-118136772D01*
X141155999Y-118096394D01*
X141156004Y-118096392D01*
X141156012Y-118096390D01*
X141525213Y-117962055D01*
X141881306Y-117796062D01*
X141881312Y-117796058D01*
X141881321Y-117796054D01*
X142123624Y-117656208D01*
X142221580Y-117599673D01*
X142543449Y-117374383D01*
X142844464Y-117121905D01*
X143122335Y-116844158D01*
X143374949Y-116543257D01*
X143600384Y-116221490D01*
X143796926Y-115881304D01*
X143963079Y-115525286D01*
X144097580Y-115156145D01*
X144199405Y-114776689D01*
X144267781Y-114389804D01*
X144302186Y-113998433D01*
X144302271Y-113801993D01*
X144302278Y-113786646D01*
X144302899Y-112383261D01*
X144322613Y-112316232D01*
X144375437Y-112270501D01*
X144444600Y-112260588D01*
X144508143Y-112289641D01*
X144545892Y-112348436D01*
X144548516Y-112359124D01*
X144559167Y-112412664D01*
X144559167Y-112412667D01*
X144574497Y-112489736D01*
X144574499Y-112489744D01*
X144623534Y-112608125D01*
X144694726Y-112714673D01*
X144694727Y-112714674D01*
X145481958Y-113501904D01*
X145515443Y-113563227D01*
X145516750Y-113570185D01*
X145519022Y-113584531D01*
X145519023Y-113584534D01*
X145582280Y-113779219D01*
X145633242Y-113879238D01*
X145675215Y-113961613D01*
X145795528Y-114127213D01*
X145940286Y-114271971D01*
X146095249Y-114384556D01*
X146105890Y-114392287D01*
X146222107Y-114451503D01*
X146288276Y-114485218D01*
X146288278Y-114485218D01*
X146288281Y-114485220D01*
X146392637Y-114519127D01*
X146482965Y-114548477D01*
X146584057Y-114564488D01*
X146685148Y-114580500D01*
X146685149Y-114580500D01*
X147289851Y-114580500D01*
X147289852Y-114580500D01*
X147492034Y-114548477D01*
X147686719Y-114485220D01*
X147869110Y-114392287D01*
X147962090Y-114324732D01*
X148034713Y-114271971D01*
X148034715Y-114271968D01*
X148034719Y-114271966D01*
X148179466Y-114127219D01*
X148179468Y-114127215D01*
X148179471Y-114127213D01*
X148270218Y-114002308D01*
X148299787Y-113961610D01*
X148392720Y-113779219D01*
X148455977Y-113584534D01*
X148488000Y-113382352D01*
X148488000Y-113177648D01*
X148455977Y-112975466D01*
X148447247Y-112948599D01*
X148401605Y-112808127D01*
X148392720Y-112780781D01*
X148392718Y-112780778D01*
X148392718Y-112780776D01*
X148326886Y-112651575D01*
X148299787Y-112598390D01*
X148248283Y-112527500D01*
X148179471Y-112432786D01*
X148034713Y-112288028D01*
X147869111Y-112167713D01*
X147775869Y-112120203D01*
X147725074Y-112072229D01*
X147708279Y-112004407D01*
X147730817Y-111938273D01*
X147775871Y-111899234D01*
X147868847Y-111851861D01*
X148034394Y-111731582D01*
X148034395Y-111731582D01*
X148179082Y-111586895D01*
X148179082Y-111586894D01*
X148299359Y-111421349D01*
X148392255Y-111239029D01*
X148455490Y-111044413D01*
X148464109Y-110990000D01*
X147420512Y-110990000D01*
X147453425Y-110932993D01*
X147487500Y-110805826D01*
X147487500Y-110674174D01*
X147453425Y-110547007D01*
X147420512Y-110490000D01*
X148464109Y-110490000D01*
X148455490Y-110435586D01*
X148392255Y-110240970D01*
X148299359Y-110058650D01*
X148179082Y-109893105D01*
X148179082Y-109893104D01*
X148034395Y-109748417D01*
X147868849Y-109628140D01*
X147775870Y-109580765D01*
X147725074Y-109532790D01*
X147708279Y-109464969D01*
X147730816Y-109398835D01*
X147775870Y-109359795D01*
X147776420Y-109359515D01*
X147869110Y-109312287D01*
X147964990Y-109242627D01*
X148034713Y-109191971D01*
X148034715Y-109191968D01*
X148034719Y-109191966D01*
X148179466Y-109047219D01*
X148179468Y-109047215D01*
X148179471Y-109047213D01*
X148281598Y-108906645D01*
X148299787Y-108881610D01*
X148392720Y-108699219D01*
X148455977Y-108504534D01*
X148488000Y-108302352D01*
X148488000Y-108097648D01*
X148455977Y-107895466D01*
X148447247Y-107868599D01*
X148392718Y-107700776D01*
X148349150Y-107615271D01*
X148299787Y-107518390D01*
X148292056Y-107507749D01*
X148179471Y-107352786D01*
X148034713Y-107208028D01*
X147869114Y-107087715D01*
X147862506Y-107084348D01*
X147776417Y-107040483D01*
X147725623Y-106992511D01*
X147708828Y-106924690D01*
X147731365Y-106858555D01*
X147776417Y-106819516D01*
X147869110Y-106772287D01*
X147890270Y-106756913D01*
X148034713Y-106651971D01*
X148034715Y-106651968D01*
X148034719Y-106651966D01*
X148179466Y-106507219D01*
X148179468Y-106507215D01*
X148179471Y-106507213D01*
X148277504Y-106372280D01*
X148299787Y-106341610D01*
X148392720Y-106159219D01*
X148455977Y-105964534D01*
X148488000Y-105762352D01*
X148488000Y-105557648D01*
X148473644Y-105467007D01*
X148455977Y-105355465D01*
X148392718Y-105160776D01*
X148359003Y-105094607D01*
X148299787Y-104978390D01*
X148242834Y-104900000D01*
X148179471Y-104812786D01*
X148034713Y-104668028D01*
X147869114Y-104547715D01*
X147862506Y-104544348D01*
X147776417Y-104500483D01*
X147725623Y-104452511D01*
X147708828Y-104384690D01*
X147731365Y-104318555D01*
X147776417Y-104279516D01*
X147869110Y-104232287D01*
X147923851Y-104192516D01*
X148034713Y-104111971D01*
X148034715Y-104111968D01*
X148034719Y-104111966D01*
X148179466Y-103967219D01*
X148285253Y-103821613D01*
X148340582Y-103778949D01*
X148385571Y-103770500D01*
X151141549Y-103770500D01*
X151207519Y-103789504D01*
X151225478Y-103800789D01*
X151225479Y-103800789D01*
X151225482Y-103800791D01*
X151395737Y-103860366D01*
X151395743Y-103860367D01*
X151395745Y-103860368D01*
X151395746Y-103860368D01*
X151395750Y-103860369D01*
X151574996Y-103880565D01*
X151575000Y-103880565D01*
X151575004Y-103880565D01*
X151754249Y-103860369D01*
X151754251Y-103860368D01*
X151754255Y-103860368D01*
X151754258Y-103860366D01*
X151754262Y-103860366D01*
X151884545Y-103814778D01*
X151954324Y-103811216D01*
X152014951Y-103845944D01*
X152047179Y-103907938D01*
X152049500Y-103931819D01*
X152049500Y-110953316D01*
X152029815Y-111020355D01*
X151996623Y-111054891D01*
X151860859Y-111149953D01*
X151699954Y-111310858D01*
X151569432Y-111497265D01*
X151569431Y-111497267D01*
X151473261Y-111703502D01*
X151473258Y-111703511D01*
X151414366Y-111923302D01*
X151414364Y-111923313D01*
X151394532Y-112149998D01*
X151394532Y-112150000D01*
X151414364Y-112376686D01*
X151414366Y-112376697D01*
X151473258Y-112596488D01*
X151473261Y-112596497D01*
X151569431Y-112802732D01*
X151569432Y-112802734D01*
X151699954Y-112989141D01*
X151860858Y-113150045D01*
X151860861Y-113150047D01*
X152047266Y-113280568D01*
X152253504Y-113376739D01*
X152473308Y-113435635D01*
X152635230Y-113449801D01*
X152699998Y-113455468D01*
X152700000Y-113455468D01*
X152700002Y-113455468D01*
X152731421Y-113452719D01*
X152926692Y-113435635D01*
X152967162Y-113424791D01*
X153037012Y-113426452D01*
X153086938Y-113456884D01*
X156835325Y-117205272D01*
X156835326Y-117205273D01*
X156835329Y-117205275D01*
X156835331Y-117205277D01*
X156941873Y-117276465D01*
X157060256Y-117325501D01*
X157060260Y-117325501D01*
X157060261Y-117325502D01*
X157185928Y-117350500D01*
X157185931Y-117350500D01*
X175684071Y-117350500D01*
X175768615Y-117333682D01*
X175809744Y-117325501D01*
X175928127Y-117276465D01*
X176034669Y-117205277D01*
X178093370Y-115146574D01*
X178154691Y-115113091D01*
X178213139Y-115114481D01*
X178364592Y-115155063D01*
X178552918Y-115171539D01*
X178599999Y-115175659D01*
X178600000Y-115175659D01*
X178600001Y-115175659D01*
X178639234Y-115172226D01*
X178835408Y-115155063D01*
X179063663Y-115093903D01*
X179277830Y-114994035D01*
X179471401Y-114858495D01*
X179638495Y-114691401D01*
X179774035Y-114497830D01*
X179873903Y-114283663D01*
X179935063Y-114055408D01*
X179955659Y-113820000D01*
X179935063Y-113584592D01*
X179873903Y-113356337D01*
X179774035Y-113142171D01*
X179666882Y-112989139D01*
X179638494Y-112948597D01*
X179471402Y-112781506D01*
X179471396Y-112781501D01*
X179285842Y-112651575D01*
X179242217Y-112596998D01*
X179235023Y-112527500D01*
X179266546Y-112465145D01*
X179285842Y-112448425D01*
X179330490Y-112417162D01*
X179471401Y-112318495D01*
X179638495Y-112151401D01*
X179774035Y-111957830D01*
X179873903Y-111743663D01*
X179935063Y-111515408D01*
X179955659Y-111280000D01*
X179935063Y-111044592D01*
X179873903Y-110816337D01*
X179774035Y-110602171D01*
X179748126Y-110565168D01*
X179638494Y-110408597D01*
X179471402Y-110241506D01*
X179471396Y-110241501D01*
X179285842Y-110111575D01*
X179242217Y-110056998D01*
X179235023Y-109987500D01*
X179266546Y-109925145D01*
X179285842Y-109908425D01*
X179308184Y-109892781D01*
X179471401Y-109778495D01*
X179638495Y-109611401D01*
X179774035Y-109417830D01*
X179873903Y-109203663D01*
X179935063Y-108975408D01*
X179955659Y-108740000D01*
X179935063Y-108504592D01*
X179873903Y-108276337D01*
X179774035Y-108062171D01*
X179657307Y-107895466D01*
X179638496Y-107868600D01*
X179638495Y-107868599D01*
X179516179Y-107746283D01*
X179482696Y-107684963D01*
X179487680Y-107615271D01*
X179529551Y-107559337D01*
X179560529Y-107542422D01*
X179692086Y-107493354D01*
X179692093Y-107493350D01*
X179807187Y-107407190D01*
X179807190Y-107407187D01*
X179893350Y-107292093D01*
X179893354Y-107292086D01*
X179943596Y-107157379D01*
X179943598Y-107157372D01*
X179949999Y-107097844D01*
X179950000Y-107097827D01*
X179950000Y-106450000D01*
X179033012Y-106450000D01*
X179065925Y-106392993D01*
X179100000Y-106265826D01*
X179100000Y-106134174D01*
X179065925Y-106007007D01*
X179033012Y-105950000D01*
X179950000Y-105950000D01*
X179950000Y-105302172D01*
X179949999Y-105302155D01*
X179943598Y-105242627D01*
X179943596Y-105242620D01*
X179893354Y-105107913D01*
X179893350Y-105107906D01*
X179807190Y-104992812D01*
X179807187Y-104992809D01*
X179692093Y-104906649D01*
X179692086Y-104906645D01*
X179557379Y-104856403D01*
X179557372Y-104856401D01*
X179497844Y-104850000D01*
X178850000Y-104850000D01*
X178850000Y-105766988D01*
X178792993Y-105734075D01*
X178665826Y-105700000D01*
X178534174Y-105700000D01*
X178407007Y-105734075D01*
X178350000Y-105766988D01*
X178350000Y-104850000D01*
X177702155Y-104850000D01*
X177642627Y-104856401D01*
X177642620Y-104856403D01*
X177507913Y-104906645D01*
X177507906Y-104906649D01*
X177392812Y-104992809D01*
X177392809Y-104992812D01*
X177306649Y-105107906D01*
X177306645Y-105107913D01*
X177256403Y-105242620D01*
X177256401Y-105242627D01*
X177250000Y-105302155D01*
X177250000Y-105950000D01*
X178166988Y-105950000D01*
X178134075Y-106007007D01*
X178100000Y-106134174D01*
X178100000Y-106265826D01*
X178134075Y-106392993D01*
X178166988Y-106450000D01*
X177250000Y-106450000D01*
X177250000Y-107097844D01*
X177256401Y-107157372D01*
X177256403Y-107157379D01*
X177306645Y-107292086D01*
X177306649Y-107292093D01*
X177392809Y-107407187D01*
X177392812Y-107407190D01*
X177507906Y-107493350D01*
X177507913Y-107493354D01*
X177639470Y-107542421D01*
X177695403Y-107584292D01*
X177719821Y-107649756D01*
X177704970Y-107718029D01*
X177683819Y-107746284D01*
X177561503Y-107868600D01*
X177425965Y-108062169D01*
X177425964Y-108062171D01*
X177326098Y-108276335D01*
X177326094Y-108276344D01*
X177264938Y-108504586D01*
X177264936Y-108504596D01*
X177244341Y-108739999D01*
X177244341Y-108740000D01*
X177264936Y-108975403D01*
X177264938Y-108975413D01*
X177326094Y-109203655D01*
X177326096Y-109203659D01*
X177326097Y-109203663D01*
X177420085Y-109405220D01*
X177425965Y-109417830D01*
X177425967Y-109417834D01*
X177561501Y-109611395D01*
X177561506Y-109611402D01*
X177728597Y-109778493D01*
X177728603Y-109778498D01*
X177914158Y-109908425D01*
X177957783Y-109963002D01*
X177964977Y-110032500D01*
X177933454Y-110094855D01*
X177914158Y-110111575D01*
X177728597Y-110241505D01*
X177561505Y-110408597D01*
X177425965Y-110602169D01*
X177425964Y-110602171D01*
X177326098Y-110816335D01*
X177326094Y-110816344D01*
X177264938Y-111044586D01*
X177264936Y-111044596D01*
X177244341Y-111279999D01*
X177244341Y-111280000D01*
X177264937Y-111515417D01*
X177265677Y-111519611D01*
X177257926Y-111589049D01*
X177231240Y-111628812D01*
X173446873Y-115413181D01*
X173385550Y-115446666D01*
X173359192Y-115449500D01*
X168569808Y-115449500D01*
X168502769Y-115429815D01*
X168457014Y-115377011D01*
X168447070Y-115307853D01*
X168476095Y-115244297D01*
X168482127Y-115237819D01*
X170805273Y-112914673D01*
X170805277Y-112914669D01*
X170876465Y-112808127D01*
X170900749Y-112749501D01*
X170925501Y-112689744D01*
X170941736Y-112608127D01*
X170950500Y-112564071D01*
X170950500Y-112078591D01*
X170970185Y-112011552D01*
X171018206Y-111968106D01*
X171038366Y-111957834D01*
X171086433Y-111933343D01*
X171210579Y-111843145D01*
X171276383Y-111819665D01*
X171344437Y-111835490D01*
X171392057Y-111884489D01*
X171392396Y-111884304D01*
X171393061Y-111885522D01*
X171393132Y-111885595D01*
X171393276Y-111885916D01*
X171396649Y-111892093D01*
X171482809Y-112007187D01*
X171482812Y-112007190D01*
X171597906Y-112093350D01*
X171597913Y-112093354D01*
X171732620Y-112143596D01*
X171732627Y-112143598D01*
X171792155Y-112149999D01*
X171792172Y-112150000D01*
X172590000Y-112150000D01*
X172590000Y-110927238D01*
X172648937Y-110961266D01*
X172774832Y-110995000D01*
X172905168Y-110995000D01*
X173031063Y-110961266D01*
X173090000Y-110927238D01*
X173090000Y-112150000D01*
X173887828Y-112150000D01*
X173887844Y-112149999D01*
X173947372Y-112143598D01*
X173947379Y-112143596D01*
X174082086Y-112093354D01*
X174082093Y-112093350D01*
X174197187Y-112007190D01*
X174197190Y-112007187D01*
X174283350Y-111892093D01*
X174283354Y-111892086D01*
X174333596Y-111757379D01*
X174333598Y-111757372D01*
X174339999Y-111697844D01*
X174340000Y-111697827D01*
X174340000Y-110750000D01*
X173267239Y-110750000D01*
X173301266Y-110691063D01*
X173335000Y-110565168D01*
X173335000Y-110434832D01*
X173301266Y-110308937D01*
X173267239Y-110250000D01*
X174340000Y-110250000D01*
X174340000Y-109302172D01*
X174339999Y-109302155D01*
X174333598Y-109242627D01*
X174333596Y-109242620D01*
X174283354Y-109107913D01*
X174283350Y-109107906D01*
X174197190Y-108992812D01*
X174197187Y-108992809D01*
X174082093Y-108906649D01*
X174082086Y-108906645D01*
X173947379Y-108856403D01*
X173947372Y-108856401D01*
X173887844Y-108850000D01*
X173090000Y-108850000D01*
X173090000Y-110072761D01*
X173031063Y-110038734D01*
X172905168Y-110005000D01*
X172774832Y-110005000D01*
X172648937Y-110038734D01*
X172590000Y-110072761D01*
X172590000Y-108850000D01*
X171792155Y-108850000D01*
X171732627Y-108856401D01*
X171732620Y-108856403D01*
X171597913Y-108906645D01*
X171597906Y-108906649D01*
X171482812Y-108992809D01*
X171482809Y-108992812D01*
X171396649Y-109107906D01*
X171392396Y-109115696D01*
X171389184Y-109113942D01*
X171357435Y-109156056D01*
X171291888Y-109180249D01*
X171223666Y-109165165D01*
X171210585Y-109156859D01*
X171086433Y-109066657D01*
X171048272Y-109047213D01*
X170875996Y-108959433D01*
X170651368Y-108886446D01*
X170418097Y-108849500D01*
X170418092Y-108849500D01*
X170181908Y-108849500D01*
X170181903Y-108849500D01*
X169948631Y-108886446D01*
X169724003Y-108959433D01*
X169513566Y-109066657D01*
X169404550Y-109145862D01*
X169322490Y-109205483D01*
X169322488Y-109205485D01*
X169322487Y-109205485D01*
X169155484Y-109372488D01*
X169130318Y-109407127D01*
X169074987Y-109449792D01*
X169005374Y-109455771D01*
X168943579Y-109423165D01*
X168929682Y-109407127D01*
X168904517Y-109372490D01*
X168737510Y-109205483D01*
X168546433Y-109066657D01*
X168508272Y-109047213D01*
X168335996Y-108959433D01*
X168111368Y-108886446D01*
X167878097Y-108849500D01*
X167878092Y-108849500D01*
X167641908Y-108849500D01*
X167641903Y-108849500D01*
X167408631Y-108886446D01*
X167184003Y-108959433D01*
X166973566Y-109066657D01*
X166864550Y-109145862D01*
X166782490Y-109205483D01*
X166782488Y-109205485D01*
X166782487Y-109205485D01*
X166615485Y-109372487D01*
X166615485Y-109372488D01*
X166615483Y-109372490D01*
X166559320Y-109449792D01*
X166476657Y-109563566D01*
X166369433Y-109774003D01*
X166296446Y-109998631D01*
X166259500Y-110231902D01*
X166259500Y-110768097D01*
X166296446Y-111001368D01*
X166369433Y-111225996D01*
X166468971Y-111421349D01*
X166476657Y-111436433D01*
X166615483Y-111627510D01*
X166782490Y-111794517D01*
X166973567Y-111933343D01*
X167064155Y-111979500D01*
X167184003Y-112040566D01*
X167184005Y-112040566D01*
X167184008Y-112040568D01*
X167301030Y-112078591D01*
X167408631Y-112113553D01*
X167641903Y-112150500D01*
X167641908Y-112150500D01*
X167878097Y-112150500D01*
X168111368Y-112113553D01*
X168335992Y-112040568D01*
X168546433Y-111933343D01*
X168737510Y-111794517D01*
X168904517Y-111627510D01*
X168929682Y-111592872D01*
X168985011Y-111550207D01*
X169054625Y-111544228D01*
X169116420Y-111576833D01*
X169130315Y-111592870D01*
X169155483Y-111627510D01*
X169322490Y-111794517D01*
X169447747Y-111885522D01*
X169513568Y-111933344D01*
X169581794Y-111968106D01*
X169632590Y-112016080D01*
X169649500Y-112078591D01*
X169649500Y-112179192D01*
X169629815Y-112246231D01*
X169613181Y-112266873D01*
X167066873Y-114813181D01*
X167005550Y-114846666D01*
X166979192Y-114849500D01*
X163672454Y-114849500D01*
X163605415Y-114829815D01*
X163559660Y-114777011D01*
X163549716Y-114707853D01*
X163578741Y-114644297D01*
X163584773Y-114637819D01*
X163585042Y-114637548D01*
X163585046Y-114637546D01*
X163671296Y-114522331D01*
X163721591Y-114387483D01*
X163728000Y-114327873D01*
X163727999Y-112232128D01*
X163721591Y-112172517D01*
X163719799Y-112167713D01*
X163671297Y-112037671D01*
X163671293Y-112037664D01*
X163585047Y-111922455D01*
X163585044Y-111922452D01*
X163469835Y-111836206D01*
X163469830Y-111836203D01*
X163432583Y-111822311D01*
X163376650Y-111780439D01*
X163352233Y-111714975D01*
X163367085Y-111646702D01*
X163388231Y-111618453D01*
X163419466Y-111587219D01*
X163419702Y-111586895D01*
X163446357Y-111550207D01*
X163539787Y-111421610D01*
X163632720Y-111239219D01*
X163695977Y-111044534D01*
X163728000Y-110842352D01*
X163728000Y-110637648D01*
X163706389Y-110501206D01*
X163695977Y-110435465D01*
X163635715Y-110250000D01*
X163632720Y-110240781D01*
X163632718Y-110240778D01*
X163632718Y-110240776D01*
X163566886Y-110111575D01*
X163539787Y-110058390D01*
X163504630Y-110010000D01*
X163419471Y-109892786D01*
X163274713Y-109748028D01*
X163109114Y-109627715D01*
X163077084Y-109611395D01*
X163016417Y-109580483D01*
X162965623Y-109532511D01*
X162948828Y-109464690D01*
X162971365Y-109398555D01*
X163016417Y-109359516D01*
X163109110Y-109312287D01*
X163204990Y-109242627D01*
X163274713Y-109191971D01*
X163274715Y-109191968D01*
X163274719Y-109191966D01*
X163419466Y-109047219D01*
X163419468Y-109047215D01*
X163419471Y-109047213D01*
X163521598Y-108906645D01*
X163539787Y-108881610D01*
X163632720Y-108699219D01*
X163695977Y-108504534D01*
X163728000Y-108302352D01*
X163728000Y-108097648D01*
X163695977Y-107895466D01*
X163687247Y-107868599D01*
X163632718Y-107700776D01*
X163589150Y-107615271D01*
X163539787Y-107518390D01*
X163532056Y-107507749D01*
X163419471Y-107352786D01*
X163274713Y-107208028D01*
X163109111Y-107087713D01*
X163015869Y-107040203D01*
X162965074Y-106992229D01*
X162948279Y-106924407D01*
X162970817Y-106858273D01*
X163015871Y-106819234D01*
X163108847Y-106771861D01*
X163274394Y-106651582D01*
X163274395Y-106651582D01*
X163419082Y-106506895D01*
X163419082Y-106506894D01*
X163539359Y-106341349D01*
X163632255Y-106159029D01*
X163695490Y-105964413D01*
X163704109Y-105910000D01*
X162660512Y-105910000D01*
X162693425Y-105852993D01*
X162698450Y-105834240D01*
X166919311Y-105834240D01*
X167007585Y-105888897D01*
X167197678Y-105962539D01*
X167398072Y-106000000D01*
X167601928Y-106000000D01*
X167802322Y-105962539D01*
X167992412Y-105888899D01*
X167992416Y-105888897D01*
X168080686Y-105834241D01*
X168080686Y-105834240D01*
X167500001Y-105253553D01*
X167500000Y-105253553D01*
X166919311Y-105834240D01*
X162698450Y-105834240D01*
X162727500Y-105725826D01*
X162727500Y-105594174D01*
X162693425Y-105467007D01*
X162660512Y-105410000D01*
X163704109Y-105410000D01*
X163695490Y-105355586D01*
X163632255Y-105160970D01*
X163539359Y-104978650D01*
X163482216Y-104900000D01*
X166395287Y-104900000D01*
X166414096Y-105102989D01*
X166414097Y-105102992D01*
X166469883Y-105299063D01*
X166469886Y-105299069D01*
X166560751Y-105481551D01*
X166562533Y-105483911D01*
X167106950Y-104939496D01*
X167200000Y-104939496D01*
X167220444Y-105015796D01*
X167259940Y-105084205D01*
X167315795Y-105140060D01*
X167384204Y-105179556D01*
X167460504Y-105200000D01*
X167539496Y-105200000D01*
X167615796Y-105179556D01*
X167684205Y-105140060D01*
X167740060Y-105084205D01*
X167779556Y-105015796D01*
X167800000Y-104939496D01*
X167800000Y-104860504D01*
X167779556Y-104784204D01*
X167740060Y-104715795D01*
X167684205Y-104659940D01*
X167615796Y-104620444D01*
X167539496Y-104600000D01*
X167460504Y-104600000D01*
X167384204Y-104620444D01*
X167315795Y-104659940D01*
X167259940Y-104715795D01*
X167220444Y-104784204D01*
X167200000Y-104860504D01*
X167200000Y-104939496D01*
X167106950Y-104939496D01*
X167146446Y-104900000D01*
X166562533Y-104316087D01*
X166560755Y-104318442D01*
X166560754Y-104318443D01*
X166469886Y-104500930D01*
X166469883Y-104500936D01*
X166414097Y-104697007D01*
X166414096Y-104697010D01*
X166395287Y-104899999D01*
X166395287Y-104900000D01*
X163482216Y-104900000D01*
X163419082Y-104813105D01*
X163419082Y-104813104D01*
X163274395Y-104668417D01*
X163108849Y-104548140D01*
X163015870Y-104500765D01*
X162965074Y-104452790D01*
X162948279Y-104384969D01*
X162970816Y-104318835D01*
X163015870Y-104279795D01*
X163016420Y-104279515D01*
X163109110Y-104232287D01*
X163163851Y-104192516D01*
X163274713Y-104111971D01*
X163274715Y-104111968D01*
X163274719Y-104111966D01*
X163419466Y-103967219D01*
X163419468Y-103967215D01*
X163419471Y-103967213D01*
X163420528Y-103965758D01*
X166919311Y-103965758D01*
X167500000Y-104546446D01*
X167500001Y-104546446D01*
X168080687Y-103965758D01*
X167992413Y-103911101D01*
X167992411Y-103911100D01*
X167802321Y-103837460D01*
X167601928Y-103800000D01*
X167398072Y-103800000D01*
X167197678Y-103837460D01*
X167007588Y-103911100D01*
X167007581Y-103911104D01*
X166919312Y-103965757D01*
X166919311Y-103965758D01*
X163420528Y-103965758D01*
X163497097Y-103860368D01*
X163539787Y-103801610D01*
X163632720Y-103619219D01*
X163695977Y-103424534D01*
X163728000Y-103222352D01*
X163728000Y-103017648D01*
X163695977Y-102815466D01*
X163632720Y-102620781D01*
X163632718Y-102620778D01*
X163632718Y-102620776D01*
X163555638Y-102469500D01*
X163539787Y-102438390D01*
X163501840Y-102386160D01*
X163419471Y-102272786D01*
X163274713Y-102128028D01*
X163109114Y-102007715D01*
X163102506Y-102004348D01*
X163016417Y-101960483D01*
X162965623Y-101912511D01*
X162948828Y-101844690D01*
X162971365Y-101778555D01*
X163016417Y-101739516D01*
X163109110Y-101692287D01*
X163130270Y-101676913D01*
X163274713Y-101571971D01*
X163274715Y-101571968D01*
X163274719Y-101571966D01*
X163419466Y-101427219D01*
X163419468Y-101427215D01*
X163419471Y-101427213D01*
X163497767Y-101319446D01*
X163539787Y-101261610D01*
X163632720Y-101079219D01*
X163695977Y-100884534D01*
X163728000Y-100682352D01*
X163728000Y-100477648D01*
X163695977Y-100275466D01*
X163632720Y-100080781D01*
X163632718Y-100080778D01*
X163632718Y-100080776D01*
X163561297Y-99940606D01*
X163539787Y-99898390D01*
X163495140Y-99836938D01*
X163419471Y-99732786D01*
X163274713Y-99588028D01*
X163109114Y-99467715D01*
X163064533Y-99445000D01*
X163016417Y-99420483D01*
X162965623Y-99372511D01*
X162948828Y-99304690D01*
X162971365Y-99238555D01*
X163016417Y-99199516D01*
X163109110Y-99152287D01*
X163186429Y-99096112D01*
X163274713Y-99031971D01*
X163274715Y-99031968D01*
X163274719Y-99031966D01*
X163419466Y-98887219D01*
X163419468Y-98887215D01*
X163419471Y-98887213D01*
X163521614Y-98746623D01*
X163539787Y-98721610D01*
X163632720Y-98539219D01*
X163695977Y-98344534D01*
X163728000Y-98142352D01*
X163728000Y-97937648D01*
X163695977Y-97735466D01*
X163681813Y-97691875D01*
X163632718Y-97540776D01*
X163593153Y-97463127D01*
X163539787Y-97358390D01*
X163532056Y-97347749D01*
X163419471Y-97192786D01*
X163274713Y-97048028D01*
X163109114Y-96927715D01*
X163044369Y-96894726D01*
X163016417Y-96880483D01*
X162965623Y-96832511D01*
X162948828Y-96764690D01*
X162971365Y-96698555D01*
X163016417Y-96659516D01*
X163109110Y-96612287D01*
X163140971Y-96589139D01*
X163274713Y-96491971D01*
X163274715Y-96491968D01*
X163274719Y-96491966D01*
X163419466Y-96347219D01*
X163419468Y-96347215D01*
X163419471Y-96347213D01*
X163472232Y-96274590D01*
X163539787Y-96181610D01*
X163632720Y-95999219D01*
X163695977Y-95804534D01*
X163728000Y-95602352D01*
X163728000Y-95397648D01*
X163713089Y-95303504D01*
X163695977Y-95195465D01*
X163632718Y-95000776D01*
X163586902Y-94910858D01*
X163539787Y-94818390D01*
X163490066Y-94749954D01*
X163419471Y-94652786D01*
X163274713Y-94508028D01*
X163109114Y-94387715D01*
X163102506Y-94384348D01*
X163016417Y-94340483D01*
X162965623Y-94292511D01*
X162948828Y-94224690D01*
X162971365Y-94158555D01*
X163016417Y-94119516D01*
X163109110Y-94072287D01*
X163130270Y-94056913D01*
X163274713Y-93951971D01*
X163274715Y-93951968D01*
X163274719Y-93951966D01*
X163419466Y-93807219D01*
X163419468Y-93807215D01*
X163419471Y-93807213D01*
X163472232Y-93734590D01*
X163539787Y-93641610D01*
X163632720Y-93459219D01*
X163695977Y-93264534D01*
X163728000Y-93062352D01*
X163728000Y-92857648D01*
X163695977Y-92655466D01*
X163632720Y-92460781D01*
X163632718Y-92460778D01*
X163632718Y-92460776D01*
X163599003Y-92394607D01*
X163539787Y-92278390D01*
X163532056Y-92267749D01*
X163419471Y-92112786D01*
X163274713Y-91968028D01*
X163109114Y-91847715D01*
X163102506Y-91844348D01*
X163016417Y-91800483D01*
X162965623Y-91752511D01*
X162948828Y-91684690D01*
X162971365Y-91618555D01*
X163016417Y-91579516D01*
X163109110Y-91532287D01*
X163130270Y-91516913D01*
X163274713Y-91411971D01*
X163274715Y-91411968D01*
X163274719Y-91411966D01*
X163419466Y-91267219D01*
X163419468Y-91267215D01*
X163419471Y-91267213D01*
X163472232Y-91194590D01*
X163539787Y-91101610D01*
X163632720Y-90919219D01*
X163695977Y-90724534D01*
X163728000Y-90522352D01*
X163728000Y-90317648D01*
X163695977Y-90115466D01*
X163632720Y-89920781D01*
X163632718Y-89920778D01*
X163632718Y-89920776D01*
X163599003Y-89854607D01*
X163539787Y-89738390D01*
X163532056Y-89727749D01*
X163419471Y-89572786D01*
X163274713Y-89428028D01*
X163109114Y-89307715D01*
X163102506Y-89304348D01*
X163016417Y-89260483D01*
X162965623Y-89212511D01*
X162948828Y-89144690D01*
X162971365Y-89078555D01*
X163016417Y-89039516D01*
X163109110Y-88992287D01*
X163130270Y-88976913D01*
X163274713Y-88871971D01*
X163274715Y-88871968D01*
X163274719Y-88871966D01*
X163419466Y-88727219D01*
X163419468Y-88727215D01*
X163419471Y-88727213D01*
X163507690Y-88605788D01*
X163539787Y-88561610D01*
X163632720Y-88379219D01*
X163695977Y-88184534D01*
X163728000Y-87982352D01*
X163728000Y-87880003D01*
X163994435Y-87880003D01*
X164014630Y-88059249D01*
X164014631Y-88059254D01*
X164074211Y-88229523D01*
X164168272Y-88379219D01*
X164170184Y-88382262D01*
X164297738Y-88509816D01*
X164450478Y-88605789D01*
X164620745Y-88665368D01*
X164627974Y-88666182D01*
X164692388Y-88693246D01*
X164701776Y-88701722D01*
X169943181Y-93943127D01*
X169976666Y-94004450D01*
X169979500Y-94030808D01*
X169979500Y-95738641D01*
X169959815Y-95805680D01*
X169911798Y-95849123D01*
X169897754Y-95856280D01*
X169895972Y-95857188D01*
X169717641Y-95986752D01*
X169717636Y-95986756D01*
X169561756Y-96142636D01*
X169561752Y-96142641D01*
X169460318Y-96282254D01*
X169404988Y-96324920D01*
X169335375Y-96330899D01*
X169273580Y-96298293D01*
X169259682Y-96282254D01*
X169158247Y-96142641D01*
X169158243Y-96142636D01*
X169002363Y-95986756D01*
X169002358Y-95986752D01*
X168824025Y-95857187D01*
X168824024Y-95857186D01*
X168824022Y-95857185D01*
X168720678Y-95804528D01*
X168627606Y-95757104D01*
X168627603Y-95757103D01*
X168417952Y-95688985D01*
X168309086Y-95671742D01*
X168200222Y-95654500D01*
X167979778Y-95654500D01*
X167907201Y-95665995D01*
X167762047Y-95688985D01*
X167552396Y-95757103D01*
X167552393Y-95757104D01*
X167355974Y-95857187D01*
X167177641Y-95986752D01*
X167177636Y-95986756D01*
X167021756Y-96142636D01*
X167021752Y-96142641D01*
X166892187Y-96320974D01*
X166792104Y-96517393D01*
X166792103Y-96517396D01*
X166723986Y-96727043D01*
X166723984Y-96727053D01*
X166719179Y-96757389D01*
X166689249Y-96820524D01*
X166665596Y-96841092D01*
X166585335Y-96894720D01*
X166585327Y-96894726D01*
X165894724Y-97585328D01*
X165894720Y-97585332D01*
X165852564Y-97648428D01*
X165852562Y-97648431D01*
X165838048Y-97670152D01*
X165823535Y-97691872D01*
X165823533Y-97691875D01*
X165774499Y-97810255D01*
X165774497Y-97810261D01*
X165749500Y-97935928D01*
X165749500Y-97935931D01*
X165749500Y-100864069D01*
X165769718Y-100965709D01*
X165773738Y-100985914D01*
X165773740Y-100985938D01*
X165773742Y-100985938D01*
X165774499Y-100989744D01*
X165774500Y-100989748D01*
X165823533Y-101108124D01*
X165823534Y-101108126D01*
X165823535Y-101108127D01*
X165858872Y-101161014D01*
X165894726Y-101214673D01*
X165894727Y-101214674D01*
X168500749Y-103820695D01*
X168534234Y-103882018D01*
X168529250Y-103951710D01*
X168512335Y-103982687D01*
X168456204Y-104057668D01*
X168456202Y-104057671D01*
X168405908Y-104192517D01*
X168401633Y-104232284D01*
X168399501Y-104252123D01*
X168399500Y-104252135D01*
X168399500Y-104302691D01*
X168379815Y-104369730D01*
X168363181Y-104390372D01*
X167853553Y-104900000D01*
X168363181Y-105409628D01*
X168396666Y-105470951D01*
X168399500Y-105497307D01*
X168399500Y-105547869D01*
X168399501Y-105547876D01*
X168405908Y-105607483D01*
X168456202Y-105742328D01*
X168456206Y-105742335D01*
X168542452Y-105857544D01*
X168542455Y-105857547D01*
X168657664Y-105943793D01*
X168657671Y-105943797D01*
X168792517Y-105994091D01*
X168792516Y-105994091D01*
X168799444Y-105994835D01*
X168852127Y-106000500D01*
X170147872Y-106000499D01*
X170207483Y-105994091D01*
X170342331Y-105943796D01*
X170457546Y-105857546D01*
X170474993Y-105834240D01*
X171819311Y-105834240D01*
X171907585Y-105888897D01*
X172097678Y-105962539D01*
X172298072Y-106000000D01*
X172501928Y-106000000D01*
X172702322Y-105962539D01*
X172892412Y-105888899D01*
X172892416Y-105888897D01*
X172980686Y-105834241D01*
X172980686Y-105834240D01*
X172400001Y-105253553D01*
X172400000Y-105253553D01*
X171819311Y-105834240D01*
X170474993Y-105834240D01*
X170543796Y-105742331D01*
X170594091Y-105607483D01*
X170600500Y-105547873D01*
X170600499Y-104900000D01*
X171295287Y-104900000D01*
X171314096Y-105102989D01*
X171314097Y-105102992D01*
X171369883Y-105299063D01*
X171369886Y-105299069D01*
X171460751Y-105481551D01*
X171462533Y-105483911D01*
X172006950Y-104939496D01*
X172100000Y-104939496D01*
X172120444Y-105015796D01*
X172159940Y-105084205D01*
X172215795Y-105140060D01*
X172284204Y-105179556D01*
X172360504Y-105200000D01*
X172439496Y-105200000D01*
X172515796Y-105179556D01*
X172584205Y-105140060D01*
X172640060Y-105084205D01*
X172679556Y-105015796D01*
X172700000Y-104939496D01*
X172700000Y-104900000D01*
X172753553Y-104900000D01*
X173263181Y-105409628D01*
X173296666Y-105470951D01*
X173299500Y-105497307D01*
X173299500Y-105547869D01*
X173299501Y-105547876D01*
X173305908Y-105607483D01*
X173356202Y-105742328D01*
X173356206Y-105742335D01*
X173442452Y-105857544D01*
X173442455Y-105857547D01*
X173557664Y-105943793D01*
X173557671Y-105943797D01*
X173692517Y-105994091D01*
X173692516Y-105994091D01*
X173699444Y-105994835D01*
X173752127Y-106000500D01*
X175047872Y-106000499D01*
X175107483Y-105994091D01*
X175242331Y-105943796D01*
X175357546Y-105857546D01*
X175443796Y-105742331D01*
X175494091Y-105607483D01*
X175500500Y-105547873D01*
X175500499Y-104252128D01*
X175494091Y-104192517D01*
X175464049Y-104111971D01*
X175443797Y-104057671D01*
X175443793Y-104057664D01*
X175357547Y-103942455D01*
X175357544Y-103942452D01*
X175242335Y-103856206D01*
X175242328Y-103856202D01*
X175107482Y-103805908D01*
X175107483Y-103805908D01*
X175047883Y-103799501D01*
X175047881Y-103799500D01*
X175047873Y-103799500D01*
X175047864Y-103799500D01*
X173752129Y-103799500D01*
X173752123Y-103799501D01*
X173692516Y-103805908D01*
X173557671Y-103856202D01*
X173557664Y-103856206D01*
X173442455Y-103942452D01*
X173442452Y-103942455D01*
X173356206Y-104057664D01*
X173356202Y-104057671D01*
X173305908Y-104192517D01*
X173301633Y-104232284D01*
X173299501Y-104252123D01*
X173299500Y-104252135D01*
X173299500Y-104302691D01*
X173279815Y-104369730D01*
X173263181Y-104390372D01*
X172753553Y-104900000D01*
X172700000Y-104900000D01*
X172700000Y-104860504D01*
X172679556Y-104784204D01*
X172640060Y-104715795D01*
X172584205Y-104659940D01*
X172515796Y-104620444D01*
X172439496Y-104600000D01*
X172360504Y-104600000D01*
X172284204Y-104620444D01*
X172215795Y-104659940D01*
X172159940Y-104715795D01*
X172120444Y-104784204D01*
X172100000Y-104860504D01*
X172100000Y-104939496D01*
X172006950Y-104939496D01*
X172046446Y-104900000D01*
X171462533Y-104316087D01*
X171460755Y-104318442D01*
X171460754Y-104318443D01*
X171369886Y-104500930D01*
X171369883Y-104500936D01*
X171314097Y-104697007D01*
X171314096Y-104697010D01*
X171295287Y-104899999D01*
X171295287Y-104900000D01*
X170600499Y-104900000D01*
X170600499Y-104252128D01*
X170594091Y-104192517D01*
X170564049Y-104111971D01*
X170543797Y-104057671D01*
X170543793Y-104057664D01*
X170474992Y-103965758D01*
X171819311Y-103965758D01*
X172400000Y-104546446D01*
X172400001Y-104546446D01*
X172980687Y-103965758D01*
X172892413Y-103911101D01*
X172892411Y-103911100D01*
X172702321Y-103837460D01*
X172501928Y-103800000D01*
X172298072Y-103800000D01*
X172097678Y-103837460D01*
X171907588Y-103911100D01*
X171907581Y-103911104D01*
X171819312Y-103965757D01*
X171819311Y-103965758D01*
X170474992Y-103965758D01*
X170457547Y-103942455D01*
X170457544Y-103942452D01*
X170342335Y-103856206D01*
X170342328Y-103856202D01*
X170204275Y-103804712D01*
X170148341Y-103762841D01*
X170127467Y-103716028D01*
X170127270Y-103716088D01*
X170126792Y-103714514D01*
X170125990Y-103712714D01*
X170125501Y-103710256D01*
X170076465Y-103591873D01*
X170038243Y-103534669D01*
X170038243Y-103534668D01*
X170005275Y-103485328D01*
X170005272Y-103485325D01*
X167855460Y-101335514D01*
X167821975Y-101274191D01*
X167826959Y-101204499D01*
X167840000Y-101185859D01*
X167840000Y-100010686D01*
X167844394Y-100015080D01*
X167935606Y-100067741D01*
X168037339Y-100095000D01*
X168142661Y-100095000D01*
X168244394Y-100067741D01*
X168335606Y-100015080D01*
X168340000Y-100010686D01*
X168340000Y-101172854D01*
X168417834Y-101160526D01*
X168417837Y-101160526D01*
X168627410Y-101092432D01*
X168823760Y-100992386D01*
X169002041Y-100862857D01*
X169157857Y-100707041D01*
X169157862Y-100707035D01*
X169259372Y-100567319D01*
X169314702Y-100524653D01*
X169384315Y-100518674D01*
X169446110Y-100551279D01*
X169460008Y-100567319D01*
X169561752Y-100707358D01*
X169561756Y-100707363D01*
X169717636Y-100863243D01*
X169717641Y-100863247D01*
X169873192Y-100976260D01*
X169895978Y-100992815D01*
X170024375Y-101058237D01*
X170092393Y-101092895D01*
X170092396Y-101092896D01*
X170197221Y-101126955D01*
X170302049Y-101161015D01*
X170519778Y-101195500D01*
X170519779Y-101195500D01*
X170740221Y-101195500D01*
X170740222Y-101195500D01*
X170957951Y-101161015D01*
X171167606Y-101092895D01*
X171364022Y-100992815D01*
X171542365Y-100863242D01*
X171698242Y-100707365D01*
X171720494Y-100676738D01*
X171799682Y-100567745D01*
X171855011Y-100525079D01*
X171924625Y-100519100D01*
X171986420Y-100551705D01*
X172000318Y-100567745D01*
X172101752Y-100707358D01*
X172101756Y-100707363D01*
X172257636Y-100863243D01*
X172257641Y-100863247D01*
X172413192Y-100976260D01*
X172435978Y-100992815D01*
X172564375Y-101058237D01*
X172632393Y-101092895D01*
X172632396Y-101092896D01*
X172737221Y-101126955D01*
X172842049Y-101161015D01*
X173059778Y-101195500D01*
X173059779Y-101195500D01*
X173280221Y-101195500D01*
X173280222Y-101195500D01*
X173497951Y-101161015D01*
X173707606Y-101092895D01*
X173904022Y-100992815D01*
X174082365Y-100863242D01*
X174238242Y-100707365D01*
X174260494Y-100676738D01*
X174339682Y-100567745D01*
X174395011Y-100525079D01*
X174464625Y-100519100D01*
X174526420Y-100551705D01*
X174540318Y-100567745D01*
X174641752Y-100707358D01*
X174641756Y-100707363D01*
X174797636Y-100863243D01*
X174797641Y-100863247D01*
X174953192Y-100976260D01*
X174975978Y-100992815D01*
X175104375Y-101058237D01*
X175172393Y-101092895D01*
X175172396Y-101092896D01*
X175277221Y-101126955D01*
X175382049Y-101161015D01*
X175599778Y-101195500D01*
X175599779Y-101195500D01*
X175820221Y-101195500D01*
X175820222Y-101195500D01*
X176037951Y-101161015D01*
X176247606Y-101092895D01*
X176444022Y-100992815D01*
X176622365Y-100863242D01*
X176778242Y-100707365D01*
X176907815Y-100529022D01*
X177007895Y-100332606D01*
X177076015Y-100122951D01*
X177110500Y-99905222D01*
X177110500Y-99484778D01*
X177076015Y-99267049D01*
X177020475Y-99096112D01*
X177007896Y-99057396D01*
X177007895Y-99057393D01*
X176949192Y-98942185D01*
X176907815Y-98860978D01*
X176806559Y-98721610D01*
X176778247Y-98682641D01*
X176778243Y-98682636D01*
X176622364Y-98526757D01*
X176620387Y-98525321D01*
X176619815Y-98524579D01*
X176618652Y-98523586D01*
X176618860Y-98523341D01*
X176577719Y-98469992D01*
X176571738Y-98400379D01*
X176604342Y-98338583D01*
X176620387Y-98324679D01*
X176622365Y-98323242D01*
X176778242Y-98167365D01*
X176907815Y-97989022D01*
X177007895Y-97792606D01*
X177076015Y-97582951D01*
X177110500Y-97365222D01*
X177110500Y-96944778D01*
X177076015Y-96727049D01*
X177007895Y-96517394D01*
X177007895Y-96517393D01*
X176948334Y-96400500D01*
X176907815Y-96320978D01*
X176817374Y-96196496D01*
X176778247Y-96142641D01*
X176778243Y-96142636D01*
X176622363Y-95986756D01*
X176622358Y-95986752D01*
X176444025Y-95857187D01*
X176444024Y-95857186D01*
X176444022Y-95857185D01*
X176340678Y-95804528D01*
X176247606Y-95757104D01*
X176247603Y-95757103D01*
X176037952Y-95688985D01*
X175929086Y-95671742D01*
X175820222Y-95654500D01*
X175599778Y-95654500D01*
X175527201Y-95665995D01*
X175382047Y-95688985D01*
X175172396Y-95757103D01*
X175172393Y-95757104D01*
X174975974Y-95857187D01*
X174797641Y-95986752D01*
X174797636Y-95986756D01*
X174641756Y-96142636D01*
X174641752Y-96142641D01*
X174540318Y-96282254D01*
X174484988Y-96324920D01*
X174415375Y-96330899D01*
X174353580Y-96298293D01*
X174339682Y-96282254D01*
X174238247Y-96142641D01*
X174238243Y-96142636D01*
X174082363Y-95986756D01*
X174082358Y-95986752D01*
X173904025Y-95857187D01*
X173904024Y-95857186D01*
X173904022Y-95857185D01*
X173800678Y-95804528D01*
X173707606Y-95757104D01*
X173707603Y-95757103D01*
X173497952Y-95688985D01*
X173389086Y-95671742D01*
X173280222Y-95654500D01*
X173059778Y-95654500D01*
X172987201Y-95665995D01*
X172842047Y-95688985D01*
X172632396Y-95757103D01*
X172632393Y-95757104D01*
X172435974Y-95857187D01*
X172257641Y-95986752D01*
X172257636Y-95986756D01*
X172101756Y-96142636D01*
X172101752Y-96142641D01*
X172000318Y-96282254D01*
X171944988Y-96324920D01*
X171875375Y-96330899D01*
X171813580Y-96298293D01*
X171799682Y-96282254D01*
X171698247Y-96142641D01*
X171698243Y-96142636D01*
X171542363Y-95986756D01*
X171542358Y-95986752D01*
X171364027Y-95857188D01*
X171364024Y-95857186D01*
X171364022Y-95857185D01*
X171348201Y-95849124D01*
X171297408Y-95801149D01*
X171280500Y-95738641D01*
X171280500Y-93645928D01*
X171255502Y-93520261D01*
X171255501Y-93520260D01*
X171255501Y-93520256D01*
X171206465Y-93401873D01*
X171135277Y-93295331D01*
X171135275Y-93295329D01*
X171135273Y-93295326D01*
X171135272Y-93295325D01*
X165621722Y-87781776D01*
X165588237Y-87720453D01*
X165586182Y-87707973D01*
X165585368Y-87700745D01*
X165525789Y-87530478D01*
X165429816Y-87377738D01*
X165302262Y-87250184D01*
X165149523Y-87154211D01*
X164979254Y-87094631D01*
X164979249Y-87094630D01*
X164800004Y-87074435D01*
X164799996Y-87074435D01*
X164620750Y-87094630D01*
X164620745Y-87094631D01*
X164450476Y-87154211D01*
X164297737Y-87250184D01*
X164170184Y-87377737D01*
X164074211Y-87530476D01*
X164014631Y-87700745D01*
X164014630Y-87700750D01*
X163994435Y-87879996D01*
X163994435Y-87880003D01*
X163728000Y-87880003D01*
X163728000Y-87777648D01*
X163695977Y-87575466D01*
X163632720Y-87380781D01*
X163632718Y-87380778D01*
X163632718Y-87380776D01*
X163566177Y-87250184D01*
X163539787Y-87198390D01*
X163532056Y-87187749D01*
X163419471Y-87032786D01*
X163274713Y-86888028D01*
X163109114Y-86767715D01*
X163102506Y-86764348D01*
X163016417Y-86720483D01*
X162965623Y-86672511D01*
X162948828Y-86604690D01*
X162971365Y-86538555D01*
X163016417Y-86499516D01*
X163109110Y-86452287D01*
X163130270Y-86436913D01*
X163274713Y-86331971D01*
X163274715Y-86331968D01*
X163274719Y-86331966D01*
X163419466Y-86187219D01*
X163419468Y-86187215D01*
X163419471Y-86187213D01*
X163472232Y-86114590D01*
X163539787Y-86021610D01*
X163632720Y-85839219D01*
X163695977Y-85644534D01*
X163728000Y-85442352D01*
X163728000Y-85237648D01*
X163695977Y-85035466D01*
X163632720Y-84840781D01*
X163632718Y-84840778D01*
X163632718Y-84840776D01*
X163599003Y-84774607D01*
X163539787Y-84658390D01*
X163532056Y-84647749D01*
X163419471Y-84492786D01*
X163274713Y-84348028D01*
X163109114Y-84227715D01*
X163102506Y-84224348D01*
X163016417Y-84180483D01*
X162965623Y-84132511D01*
X162948828Y-84064690D01*
X162971365Y-83998555D01*
X163016417Y-83959516D01*
X163109110Y-83912287D01*
X163140971Y-83889139D01*
X163274713Y-83791971D01*
X163274715Y-83791968D01*
X163274719Y-83791966D01*
X163419466Y-83647219D01*
X163419468Y-83647215D01*
X163419471Y-83647213D01*
X163472232Y-83574590D01*
X163539787Y-83481610D01*
X163632720Y-83299219D01*
X163695977Y-83104534D01*
X163728000Y-82902352D01*
X163728000Y-82697648D01*
X163713089Y-82603504D01*
X163695977Y-82495465D01*
X163632718Y-82300776D01*
X163586902Y-82210858D01*
X163539787Y-82118390D01*
X163532056Y-82107749D01*
X163419471Y-81952786D01*
X163274713Y-81808028D01*
X163109114Y-81687715D01*
X163102506Y-81684348D01*
X163016417Y-81640483D01*
X162965623Y-81592511D01*
X162948828Y-81524690D01*
X162971365Y-81458555D01*
X163016417Y-81419516D01*
X163109110Y-81372287D01*
X163130270Y-81356913D01*
X163274713Y-81251971D01*
X163274715Y-81251968D01*
X163274719Y-81251966D01*
X163419466Y-81107219D01*
X163419468Y-81107215D01*
X163419471Y-81107213D01*
X163472232Y-81034590D01*
X163539787Y-80941610D01*
X163632720Y-80759219D01*
X163695977Y-80564534D01*
X163728000Y-80362352D01*
X163728000Y-80157648D01*
X163695977Y-79955466D01*
X163632720Y-79760781D01*
X163632718Y-79760778D01*
X163632718Y-79760776D01*
X163599003Y-79694607D01*
X163539787Y-79578390D01*
X163532056Y-79567749D01*
X163419471Y-79412786D01*
X163274713Y-79268028D01*
X163109114Y-79147715D01*
X163102506Y-79144348D01*
X163016417Y-79100483D01*
X162965623Y-79052511D01*
X162948828Y-78984690D01*
X162971365Y-78918555D01*
X163016417Y-78879516D01*
X163109110Y-78832287D01*
X163139435Y-78810255D01*
X163274713Y-78711971D01*
X163274715Y-78711968D01*
X163274719Y-78711966D01*
X163419466Y-78567219D01*
X163419468Y-78567215D01*
X163419471Y-78567213D01*
X163472232Y-78494590D01*
X163539787Y-78401610D01*
X163632720Y-78219219D01*
X163695977Y-78024534D01*
X163728000Y-77822352D01*
X163728000Y-77617648D01*
X163695977Y-77415466D01*
X163632720Y-77220781D01*
X163632718Y-77220778D01*
X163632718Y-77220776D01*
X163599003Y-77154607D01*
X163539787Y-77038390D01*
X163532056Y-77027749D01*
X163419471Y-76872786D01*
X163274713Y-76728028D01*
X163109113Y-76607715D01*
X163109112Y-76607714D01*
X163109110Y-76607713D01*
X163052153Y-76578691D01*
X162926723Y-76514781D01*
X162732034Y-76451522D01*
X162557495Y-76423878D01*
X162529852Y-76419500D01*
X161925148Y-76419500D01*
X161900829Y-76423351D01*
X161722965Y-76451522D01*
X161528276Y-76514781D01*
X161345886Y-76607715D01*
X161180286Y-76728028D01*
X161035528Y-76872786D01*
X160915215Y-77038386D01*
X160822281Y-77220776D01*
X160759022Y-77415465D01*
X160727000Y-77617648D01*
X160727000Y-77822351D01*
X160759022Y-78024534D01*
X160822281Y-78219223D01*
X160915215Y-78401613D01*
X161035528Y-78567213D01*
X161180286Y-78711971D01*
X161335249Y-78824556D01*
X161345890Y-78832287D01*
X161437340Y-78878883D01*
X161438580Y-78879515D01*
X161489376Y-78927490D01*
X161506171Y-78995311D01*
X161483634Y-79061446D01*
X161438580Y-79100485D01*
X161345886Y-79147715D01*
X161180286Y-79268028D01*
X161035528Y-79412786D01*
X160915215Y-79578386D01*
X160822281Y-79760776D01*
X160759022Y-79955465D01*
X160727000Y-80157648D01*
X160727000Y-80362351D01*
X160759022Y-80564534D01*
X160822281Y-80759223D01*
X160915215Y-80941613D01*
X161035528Y-81107213D01*
X161180286Y-81251971D01*
X161335249Y-81364556D01*
X161345890Y-81372287D01*
X161437340Y-81418883D01*
X161438580Y-81419515D01*
X161489376Y-81467490D01*
X161506171Y-81535311D01*
X161483634Y-81601446D01*
X161438580Y-81640485D01*
X161345886Y-81687715D01*
X161180286Y-81808028D01*
X161035528Y-81952786D01*
X160915215Y-82118386D01*
X160822281Y-82300776D01*
X160759022Y-82495465D01*
X160727000Y-82697648D01*
X160727000Y-82902351D01*
X160759022Y-83104534D01*
X160822281Y-83299223D01*
X160915215Y-83481613D01*
X161035528Y-83647213D01*
X161180286Y-83791971D01*
X161314029Y-83889139D01*
X161345890Y-83912287D01*
X161437340Y-83958883D01*
X161438580Y-83959515D01*
X161489376Y-84007490D01*
X161506171Y-84075311D01*
X161483634Y-84141446D01*
X161438580Y-84180485D01*
X161345886Y-84227715D01*
X161180286Y-84348028D01*
X161035528Y-84492786D01*
X160915215Y-84658386D01*
X160822281Y-84840776D01*
X160759022Y-85035465D01*
X160727000Y-85237648D01*
X160727000Y-85442351D01*
X160759022Y-85644534D01*
X160822281Y-85839223D01*
X160915215Y-86021613D01*
X161035528Y-86187213D01*
X161180286Y-86331971D01*
X161335249Y-86444556D01*
X161345890Y-86452287D01*
X161437340Y-86498883D01*
X161438580Y-86499515D01*
X161489376Y-86547490D01*
X161506171Y-86615311D01*
X161483634Y-86681446D01*
X161438580Y-86720485D01*
X161345886Y-86767715D01*
X161180286Y-86888028D01*
X161035528Y-87032786D01*
X160915215Y-87198386D01*
X160822281Y-87380776D01*
X160759022Y-87575465D01*
X160727000Y-87777648D01*
X160727000Y-87982351D01*
X160759022Y-88184534D01*
X160822281Y-88379223D01*
X160915215Y-88561613D01*
X161035528Y-88727213D01*
X161180286Y-88871971D01*
X161335249Y-88984556D01*
X161345890Y-88992287D01*
X161437340Y-89038883D01*
X161438580Y-89039515D01*
X161489376Y-89087490D01*
X161506171Y-89155311D01*
X161483634Y-89221446D01*
X161438580Y-89260485D01*
X161345886Y-89307715D01*
X161180286Y-89428028D01*
X161035528Y-89572786D01*
X160915215Y-89738386D01*
X160822281Y-89920776D01*
X160759022Y-90115465D01*
X160727000Y-90317648D01*
X160727000Y-90522351D01*
X160759022Y-90724534D01*
X160822281Y-90919223D01*
X160915215Y-91101613D01*
X161035528Y-91267213D01*
X161180286Y-91411971D01*
X161335249Y-91524556D01*
X161345890Y-91532287D01*
X161437340Y-91578883D01*
X161438580Y-91579515D01*
X161489376Y-91627490D01*
X161506171Y-91695311D01*
X161483634Y-91761446D01*
X161438580Y-91800485D01*
X161345886Y-91847715D01*
X161180286Y-91968028D01*
X161035528Y-92112786D01*
X160915215Y-92278386D01*
X160822281Y-92460776D01*
X160759022Y-92655465D01*
X160727000Y-92857648D01*
X160727000Y-93062351D01*
X160759022Y-93264534D01*
X160822281Y-93459223D01*
X160915215Y-93641613D01*
X161035528Y-93807213D01*
X161180286Y-93951971D01*
X161335249Y-94064556D01*
X161345890Y-94072287D01*
X161437340Y-94118883D01*
X161438580Y-94119515D01*
X161489376Y-94167490D01*
X161506171Y-94235311D01*
X161483634Y-94301446D01*
X161438580Y-94340485D01*
X161345886Y-94387715D01*
X161180286Y-94508028D01*
X161035528Y-94652786D01*
X160915215Y-94818386D01*
X160822281Y-95000776D01*
X160759022Y-95195465D01*
X160727000Y-95397648D01*
X160727000Y-95602351D01*
X160759022Y-95804534D01*
X160822281Y-95999223D01*
X160915215Y-96181613D01*
X161035528Y-96347213D01*
X161180286Y-96491971D01*
X161314029Y-96589139D01*
X161345890Y-96612287D01*
X161437340Y-96658883D01*
X161438580Y-96659515D01*
X161489376Y-96707490D01*
X161506171Y-96775311D01*
X161483634Y-96841446D01*
X161438580Y-96880485D01*
X161345886Y-96927715D01*
X161180286Y-97048028D01*
X161035528Y-97192786D01*
X160915215Y-97358386D01*
X160822281Y-97540776D01*
X160759022Y-97735465D01*
X160727000Y-97937648D01*
X160727000Y-98142351D01*
X160759022Y-98344534D01*
X160822281Y-98539223D01*
X160915215Y-98721613D01*
X161035528Y-98887213D01*
X161180286Y-99031971D01*
X161335249Y-99144556D01*
X161345890Y-99152287D01*
X161437340Y-99198883D01*
X161438580Y-99199515D01*
X161489376Y-99247490D01*
X161506171Y-99315311D01*
X161483634Y-99381446D01*
X161438580Y-99420485D01*
X161345886Y-99467715D01*
X161180286Y-99588028D01*
X161035528Y-99732786D01*
X160915215Y-99898386D01*
X160822281Y-100080776D01*
X160759022Y-100275465D01*
X160727000Y-100477648D01*
X160727000Y-100682351D01*
X160759022Y-100884534D01*
X160822281Y-101079223D01*
X160915215Y-101261613D01*
X161035528Y-101427213D01*
X161180286Y-101571971D01*
X161335249Y-101684556D01*
X161345890Y-101692287D01*
X161437340Y-101738883D01*
X161438580Y-101739515D01*
X161489376Y-101787490D01*
X161506171Y-101855311D01*
X161483634Y-101921446D01*
X161438580Y-101960485D01*
X161345886Y-102007715D01*
X161180286Y-102128028D01*
X161035528Y-102272786D01*
X160915215Y-102438386D01*
X160822281Y-102620776D01*
X160759022Y-102815465D01*
X160727000Y-103017648D01*
X160727000Y-103222351D01*
X160759022Y-103424534D01*
X160822281Y-103619223D01*
X160871637Y-103716088D01*
X160914138Y-103799501D01*
X160915215Y-103801613D01*
X161035528Y-103967213D01*
X161180286Y-104111971D01*
X161335249Y-104224556D01*
X161345890Y-104232287D01*
X161417924Y-104268990D01*
X161439129Y-104279795D01*
X161489925Y-104327770D01*
X161506720Y-104395591D01*
X161484182Y-104461726D01*
X161439129Y-104500765D01*
X161346150Y-104548140D01*
X161180605Y-104668417D01*
X161180604Y-104668417D01*
X161035917Y-104813104D01*
X161035917Y-104813105D01*
X160915640Y-104978650D01*
X160822744Y-105160970D01*
X160759509Y-105355586D01*
X160750891Y-105410000D01*
X161794488Y-105410000D01*
X161761575Y-105467007D01*
X161727500Y-105594174D01*
X161727500Y-105725826D01*
X161761575Y-105852993D01*
X161794488Y-105910000D01*
X160750891Y-105910000D01*
X160759509Y-105964413D01*
X160822744Y-106159029D01*
X160915640Y-106341349D01*
X161035917Y-106506894D01*
X161035917Y-106506895D01*
X161180604Y-106651582D01*
X161346152Y-106771861D01*
X161439128Y-106819234D01*
X161489925Y-106867208D01*
X161506720Y-106935029D01*
X161484183Y-107001164D01*
X161439130Y-107040203D01*
X161345888Y-107087713D01*
X161180286Y-107208028D01*
X161035528Y-107352786D01*
X160915215Y-107518386D01*
X160822281Y-107700776D01*
X160759022Y-107895465D01*
X160727000Y-108097648D01*
X160727000Y-108302351D01*
X160759022Y-108504534D01*
X160822281Y-108699223D01*
X160886191Y-108824653D01*
X160902369Y-108856403D01*
X160915215Y-108881613D01*
X161035528Y-109047213D01*
X161180286Y-109191971D01*
X161331944Y-109302155D01*
X161345890Y-109312287D01*
X161437340Y-109358883D01*
X161438580Y-109359515D01*
X161489376Y-109407490D01*
X161506171Y-109475311D01*
X161483634Y-109541446D01*
X161438580Y-109580485D01*
X161345886Y-109627715D01*
X161180286Y-109748028D01*
X161035528Y-109892786D01*
X160915215Y-110058386D01*
X160822281Y-110240776D01*
X160759022Y-110435465D01*
X160727000Y-110637648D01*
X160727000Y-110842351D01*
X160759022Y-111044534D01*
X160822281Y-111239223D01*
X160915215Y-111421613D01*
X161035528Y-111587213D01*
X161066763Y-111618448D01*
X161100248Y-111679771D01*
X161095264Y-111749463D01*
X161053392Y-111805396D01*
X161022417Y-111822310D01*
X160985173Y-111836201D01*
X160985164Y-111836206D01*
X160869955Y-111922452D01*
X160869952Y-111922455D01*
X160783706Y-112037664D01*
X160783702Y-112037671D01*
X160733408Y-112172517D01*
X160728576Y-112217465D01*
X160727001Y-112232123D01*
X160727000Y-112232135D01*
X160727000Y-114327870D01*
X160727001Y-114327876D01*
X160733408Y-114387483D01*
X160786803Y-114530641D01*
X160784139Y-114531634D01*
X160795914Y-114585778D01*
X160771493Y-114651241D01*
X160715556Y-114693108D01*
X160645864Y-114698087D01*
X160584550Y-114664604D01*
X159086819Y-113166873D01*
X159053334Y-113105550D01*
X159050500Y-113079192D01*
X159050500Y-100985928D01*
X159025502Y-100860261D01*
X159025501Y-100860260D01*
X159025501Y-100860256D01*
X158976465Y-100741873D01*
X158972296Y-100735634D01*
X158953409Y-100707366D01*
X158905275Y-100635328D01*
X158905272Y-100635325D01*
X158106884Y-99836938D01*
X158073399Y-99775615D01*
X158074791Y-99717162D01*
X158085633Y-99676699D01*
X158085632Y-99676699D01*
X158085635Y-99676692D01*
X158105468Y-99450000D01*
X158085635Y-99223308D01*
X158026739Y-99003504D01*
X157930568Y-98797266D01*
X157800047Y-98610861D01*
X157800045Y-98610858D01*
X157639141Y-98449954D01*
X157452734Y-98319432D01*
X157452732Y-98319431D01*
X157246497Y-98223261D01*
X157246488Y-98223258D01*
X157026697Y-98164366D01*
X157026693Y-98164365D01*
X157026692Y-98164365D01*
X157026691Y-98164364D01*
X157026686Y-98164364D01*
X156800002Y-98144532D01*
X156799998Y-98144532D01*
X156573313Y-98164364D01*
X156573302Y-98164366D01*
X156353511Y-98223258D01*
X156353502Y-98223261D01*
X156147267Y-98319431D01*
X156147265Y-98319432D01*
X155960858Y-98449954D01*
X155799954Y-98610858D01*
X155704892Y-98746623D01*
X155650315Y-98790248D01*
X155603317Y-98799500D01*
X153896683Y-98799500D01*
X153829644Y-98779815D01*
X153795108Y-98746623D01*
X153700045Y-98610858D01*
X153539141Y-98449954D01*
X153352734Y-98319432D01*
X153352732Y-98319431D01*
X153146497Y-98223261D01*
X153146488Y-98223258D01*
X152926697Y-98164366D01*
X152926693Y-98164365D01*
X152926692Y-98164365D01*
X152926691Y-98164364D01*
X152926686Y-98164364D01*
X152700002Y-98144532D01*
X152699998Y-98144532D01*
X152473313Y-98164364D01*
X152473302Y-98164366D01*
X152253511Y-98223258D01*
X152253502Y-98223261D01*
X152047267Y-98319431D01*
X152047265Y-98319432D01*
X151860858Y-98449954D01*
X151699954Y-98610858D01*
X151569432Y-98797265D01*
X151569431Y-98797267D01*
X151473261Y-99003502D01*
X151473258Y-99003511D01*
X151414366Y-99223302D01*
X151414364Y-99223312D01*
X151395499Y-99438943D01*
X151370046Y-99504011D01*
X151313455Y-99544990D01*
X151243694Y-99548868D01*
X151184290Y-99515816D01*
X149886819Y-98218345D01*
X149853334Y-98157022D01*
X149850500Y-98130664D01*
X149850500Y-97648428D01*
X149825502Y-97522761D01*
X149825501Y-97522760D01*
X149825501Y-97522756D01*
X149800802Y-97463127D01*
X149776466Y-97404374D01*
X149705277Y-97297831D01*
X149705272Y-97297825D01*
X148449870Y-96042424D01*
X148416385Y-95981101D01*
X148419619Y-95916427D01*
X148455977Y-95804534D01*
X148464614Y-95750001D01*
X151394532Y-95750001D01*
X151414364Y-95976686D01*
X151414366Y-95976697D01*
X151473258Y-96196488D01*
X151473261Y-96196497D01*
X151569431Y-96402732D01*
X151569432Y-96402734D01*
X151699954Y-96589141D01*
X151860858Y-96750045D01*
X151887182Y-96768477D01*
X152047266Y-96880568D01*
X152253504Y-96976739D01*
X152473308Y-97035635D01*
X152635230Y-97049801D01*
X152699998Y-97055468D01*
X152700000Y-97055468D01*
X152700002Y-97055468D01*
X152756673Y-97050509D01*
X152926692Y-97035635D01*
X153146496Y-96976739D01*
X153352734Y-96880568D01*
X153539139Y-96750047D01*
X153700047Y-96589139D01*
X153795108Y-96453377D01*
X153849685Y-96409752D01*
X153896683Y-96400500D01*
X155603317Y-96400500D01*
X155670356Y-96420185D01*
X155704892Y-96453377D01*
X155799954Y-96589141D01*
X155960858Y-96750045D01*
X155987182Y-96768477D01*
X156147266Y-96880568D01*
X156353504Y-96976739D01*
X156573308Y-97035635D01*
X156735230Y-97049801D01*
X156799998Y-97055468D01*
X156800000Y-97055468D01*
X156800002Y-97055468D01*
X156856673Y-97050509D01*
X157026692Y-97035635D01*
X157246496Y-96976739D01*
X157452734Y-96880568D01*
X157639139Y-96750047D01*
X157800047Y-96589139D01*
X157930568Y-96402734D01*
X158026739Y-96196496D01*
X158085635Y-95976692D01*
X158104846Y-95757105D01*
X158105468Y-95750001D01*
X158105468Y-95749998D01*
X158085635Y-95523313D01*
X158085635Y-95523308D01*
X158026739Y-95303504D01*
X157930568Y-95097266D01*
X157800047Y-94910861D01*
X157800045Y-94910858D01*
X157639141Y-94749954D01*
X157452734Y-94619432D01*
X157452732Y-94619431D01*
X157246497Y-94523261D01*
X157246488Y-94523258D01*
X157026697Y-94464366D01*
X157026693Y-94464365D01*
X157026692Y-94464365D01*
X157026691Y-94464364D01*
X157026686Y-94464364D01*
X156800002Y-94444532D01*
X156799998Y-94444532D01*
X156573313Y-94464364D01*
X156573302Y-94464366D01*
X156353511Y-94523258D01*
X156353502Y-94523261D01*
X156147267Y-94619431D01*
X156147265Y-94619432D01*
X155960858Y-94749954D01*
X155799954Y-94910858D01*
X155704892Y-95046623D01*
X155650315Y-95090248D01*
X155603317Y-95099500D01*
X153896683Y-95099500D01*
X153829644Y-95079815D01*
X153795108Y-95046623D01*
X153700045Y-94910858D01*
X153539141Y-94749954D01*
X153352734Y-94619432D01*
X153352732Y-94619431D01*
X153146497Y-94523261D01*
X153146488Y-94523258D01*
X152926697Y-94464366D01*
X152926693Y-94464365D01*
X152926692Y-94464365D01*
X152926691Y-94464364D01*
X152926686Y-94464364D01*
X152700002Y-94444532D01*
X152699998Y-94444532D01*
X152473313Y-94464364D01*
X152473302Y-94464366D01*
X152253511Y-94523258D01*
X152253502Y-94523261D01*
X152047267Y-94619431D01*
X152047265Y-94619432D01*
X151860858Y-94749954D01*
X151699954Y-94910858D01*
X151569432Y-95097265D01*
X151569431Y-95097267D01*
X151473261Y-95303502D01*
X151473258Y-95303511D01*
X151414366Y-95523302D01*
X151414364Y-95523313D01*
X151394532Y-95749998D01*
X151394532Y-95750001D01*
X148464614Y-95750001D01*
X148488000Y-95602352D01*
X148488000Y-95397648D01*
X148473089Y-95303504D01*
X148455977Y-95195465D01*
X148392718Y-95000776D01*
X148346902Y-94910858D01*
X148299787Y-94818390D01*
X148250066Y-94749954D01*
X148179471Y-94652786D01*
X148034713Y-94508028D01*
X147869114Y-94387715D01*
X147862506Y-94384348D01*
X147776417Y-94340483D01*
X147725623Y-94292511D01*
X147708828Y-94224690D01*
X147731365Y-94158555D01*
X147776417Y-94119516D01*
X147869110Y-94072287D01*
X147890270Y-94056913D01*
X148034713Y-93951971D01*
X148034715Y-93951968D01*
X148034719Y-93951966D01*
X148179466Y-93807219D01*
X148179468Y-93807215D01*
X148179471Y-93807213D01*
X148232232Y-93734590D01*
X148299787Y-93641610D01*
X148392720Y-93459219D01*
X148455977Y-93264534D01*
X148488000Y-93062352D01*
X148488000Y-92857648D01*
X148455977Y-92655466D01*
X148392720Y-92460781D01*
X148392718Y-92460778D01*
X148392718Y-92460776D01*
X148359003Y-92394607D01*
X148299787Y-92278390D01*
X148292056Y-92267749D01*
X148179471Y-92112786D01*
X148034713Y-91968028D01*
X147869114Y-91847715D01*
X147862506Y-91844348D01*
X147776417Y-91800483D01*
X147725623Y-91752511D01*
X147708828Y-91684690D01*
X147731365Y-91618555D01*
X147776417Y-91579516D01*
X147869110Y-91532287D01*
X147890270Y-91516913D01*
X148034713Y-91411971D01*
X148034715Y-91411968D01*
X148034719Y-91411966D01*
X148179466Y-91267219D01*
X148179468Y-91267215D01*
X148179471Y-91267213D01*
X148232232Y-91194590D01*
X148299787Y-91101610D01*
X148392720Y-90919219D01*
X148455977Y-90724534D01*
X148488000Y-90522352D01*
X148488000Y-90317648D01*
X148455977Y-90115466D01*
X148392720Y-89920781D01*
X148392718Y-89920778D01*
X148392718Y-89920776D01*
X148359003Y-89854607D01*
X148299787Y-89738390D01*
X148292056Y-89727749D01*
X148179471Y-89572786D01*
X148034713Y-89428028D01*
X147869114Y-89307715D01*
X147862506Y-89304348D01*
X147776417Y-89260483D01*
X147725623Y-89212511D01*
X147708828Y-89144690D01*
X147731365Y-89078555D01*
X147776417Y-89039516D01*
X147869110Y-88992287D01*
X147890270Y-88976913D01*
X148034713Y-88871971D01*
X148034715Y-88871968D01*
X148034719Y-88871966D01*
X148179466Y-88727219D01*
X148179468Y-88727215D01*
X148179471Y-88727213D01*
X148267690Y-88605788D01*
X148299787Y-88561610D01*
X148392720Y-88379219D01*
X148455977Y-88184534D01*
X148488000Y-87982352D01*
X148488000Y-87777648D01*
X148455977Y-87575466D01*
X148392720Y-87380781D01*
X148392718Y-87380778D01*
X148392718Y-87380776D01*
X148326177Y-87250184D01*
X148299787Y-87198390D01*
X148292056Y-87187749D01*
X148179471Y-87032786D01*
X148034713Y-86888028D01*
X147869114Y-86767715D01*
X147862506Y-86764348D01*
X147776417Y-86720483D01*
X147725623Y-86672511D01*
X147708828Y-86604690D01*
X147731365Y-86538555D01*
X147776417Y-86499516D01*
X147869110Y-86452287D01*
X147890270Y-86436913D01*
X148034713Y-86331971D01*
X148034715Y-86331968D01*
X148034719Y-86331966D01*
X148179466Y-86187219D01*
X148179468Y-86187215D01*
X148179471Y-86187213D01*
X148232232Y-86114590D01*
X148299787Y-86021610D01*
X148392720Y-85839219D01*
X148455977Y-85644534D01*
X148488000Y-85442352D01*
X148488000Y-85237648D01*
X148455977Y-85035466D01*
X148392720Y-84840781D01*
X148392718Y-84840778D01*
X148392718Y-84840776D01*
X148359003Y-84774607D01*
X148299787Y-84658390D01*
X148292056Y-84647749D01*
X148179471Y-84492786D01*
X148034713Y-84348028D01*
X147869114Y-84227715D01*
X147862506Y-84224348D01*
X147776417Y-84180483D01*
X147725623Y-84132511D01*
X147708828Y-84064690D01*
X147731365Y-83998555D01*
X147776417Y-83959516D01*
X147869110Y-83912287D01*
X147900971Y-83889139D01*
X148034713Y-83791971D01*
X148034715Y-83791968D01*
X148034719Y-83791966D01*
X148179466Y-83647219D01*
X148179468Y-83647215D01*
X148179471Y-83647213D01*
X148232232Y-83574590D01*
X148299787Y-83481610D01*
X148392720Y-83299219D01*
X148455977Y-83104534D01*
X148464614Y-83050002D01*
X151395034Y-83050002D01*
X151414858Y-83276599D01*
X151414860Y-83276610D01*
X151473730Y-83496317D01*
X151473735Y-83496331D01*
X151569863Y-83702478D01*
X151620974Y-83775472D01*
X152300000Y-83096446D01*
X152300000Y-83102661D01*
X152327259Y-83204394D01*
X152379920Y-83295606D01*
X152454394Y-83370080D01*
X152545606Y-83422741D01*
X152647339Y-83450000D01*
X152653553Y-83450000D01*
X151974526Y-84129025D01*
X152047513Y-84180132D01*
X152047521Y-84180136D01*
X152253668Y-84276264D01*
X152253682Y-84276269D01*
X152473389Y-84335139D01*
X152473400Y-84335141D01*
X152699998Y-84354966D01*
X152700002Y-84354966D01*
X152926599Y-84335141D01*
X152926610Y-84335139D01*
X153146317Y-84276269D01*
X153146331Y-84276264D01*
X153352478Y-84180136D01*
X153425471Y-84129024D01*
X152746447Y-83450000D01*
X152752661Y-83450000D01*
X152854394Y-83422741D01*
X152945606Y-83370080D01*
X153020080Y-83295606D01*
X153072741Y-83204394D01*
X153100000Y-83102661D01*
X153100000Y-83096447D01*
X153779024Y-83775471D01*
X153830136Y-83702478D01*
X153926264Y-83496331D01*
X153926269Y-83496317D01*
X153985139Y-83276610D01*
X153985141Y-83276599D01*
X154004966Y-83050002D01*
X154004966Y-83049997D01*
X153985141Y-82823400D01*
X153985139Y-82823389D01*
X153926269Y-82603682D01*
X153926264Y-82603668D01*
X153830136Y-82397521D01*
X153830132Y-82397513D01*
X153779025Y-82324526D01*
X153100000Y-83003551D01*
X153100000Y-82997339D01*
X153072741Y-82895606D01*
X153020080Y-82804394D01*
X152945606Y-82729920D01*
X152854394Y-82677259D01*
X152752661Y-82650000D01*
X152746448Y-82650000D01*
X153425472Y-81970974D01*
X153352478Y-81919863D01*
X153146331Y-81823735D01*
X153146317Y-81823730D01*
X152926610Y-81764860D01*
X152926599Y-81764858D01*
X152700002Y-81745034D01*
X152699998Y-81745034D01*
X152473400Y-81764858D01*
X152473389Y-81764860D01*
X152253682Y-81823730D01*
X152253673Y-81823734D01*
X152047516Y-81919866D01*
X152047512Y-81919868D01*
X151974526Y-81970973D01*
X151974526Y-81970974D01*
X152653553Y-82650000D01*
X152647339Y-82650000D01*
X152545606Y-82677259D01*
X152454394Y-82729920D01*
X152379920Y-82804394D01*
X152327259Y-82895606D01*
X152300000Y-82997339D01*
X152300000Y-83003552D01*
X151620974Y-82324526D01*
X151620973Y-82324526D01*
X151569868Y-82397512D01*
X151569866Y-82397516D01*
X151473734Y-82603673D01*
X151473730Y-82603682D01*
X151414860Y-82823389D01*
X151414858Y-82823400D01*
X151395034Y-83049997D01*
X151395034Y-83050002D01*
X148464614Y-83050002D01*
X148488000Y-82902352D01*
X148488000Y-82697648D01*
X148473089Y-82603504D01*
X148455977Y-82495465D01*
X148392718Y-82300776D01*
X148346902Y-82210858D01*
X148299787Y-82118390D01*
X148292056Y-82107749D01*
X148179471Y-81952786D01*
X148034713Y-81808028D01*
X147869114Y-81687715D01*
X147862506Y-81684348D01*
X147776417Y-81640483D01*
X147725623Y-81592511D01*
X147708828Y-81524690D01*
X147731365Y-81458555D01*
X147776417Y-81419516D01*
X147869110Y-81372287D01*
X147890270Y-81356913D01*
X148034713Y-81251971D01*
X148034715Y-81251968D01*
X148034719Y-81251966D01*
X148179466Y-81107219D01*
X148179468Y-81107215D01*
X148179471Y-81107213D01*
X148232232Y-81034590D01*
X148299787Y-80941610D01*
X148392720Y-80759219D01*
X148455977Y-80564534D01*
X148488000Y-80362352D01*
X148488000Y-80157648D01*
X148455977Y-79955466D01*
X148392720Y-79760781D01*
X148392718Y-79760778D01*
X148392718Y-79760776D01*
X148359003Y-79694607D01*
X148299787Y-79578390D01*
X148292056Y-79567749D01*
X148179471Y-79412786D01*
X148034713Y-79268028D01*
X147869114Y-79147715D01*
X147862506Y-79144348D01*
X147776417Y-79100483D01*
X147725623Y-79052511D01*
X147708828Y-78984690D01*
X147731365Y-78918555D01*
X147776417Y-78879516D01*
X147869110Y-78832287D01*
X147899435Y-78810255D01*
X148034713Y-78711971D01*
X148034715Y-78711968D01*
X148034719Y-78711966D01*
X148179466Y-78567219D01*
X148179468Y-78567215D01*
X148179471Y-78567213D01*
X148232232Y-78494590D01*
X148299787Y-78401610D01*
X148392720Y-78219219D01*
X148455977Y-78024534D01*
X148488000Y-77822352D01*
X148488000Y-77617648D01*
X148455977Y-77415466D01*
X148392720Y-77220781D01*
X148392718Y-77220778D01*
X148392718Y-77220776D01*
X148359003Y-77154607D01*
X148299787Y-77038390D01*
X148292056Y-77027749D01*
X148179471Y-76872786D01*
X148034713Y-76728028D01*
X147869113Y-76607715D01*
X147869112Y-76607714D01*
X147869110Y-76607713D01*
X147812153Y-76578691D01*
X147686723Y-76514781D01*
X147492034Y-76451522D01*
X147317495Y-76423878D01*
X147289852Y-76419500D01*
X146685148Y-76419500D01*
X146660829Y-76423351D01*
X146482965Y-76451522D01*
X146288276Y-76514781D01*
X146105890Y-76607712D01*
X146047385Y-76650219D01*
X145981578Y-76673698D01*
X145913524Y-76657872D01*
X145864830Y-76607766D01*
X145850500Y-76549900D01*
X145850500Y-76520808D01*
X145870185Y-76453769D01*
X145886819Y-76433127D01*
X146533127Y-75786819D01*
X146594450Y-75753334D01*
X146620808Y-75750500D01*
X152579192Y-75750500D01*
X152646231Y-75770185D01*
X152666873Y-75786819D01*
X156113181Y-79233127D01*
X156146666Y-79294450D01*
X156149500Y-79320808D01*
X156149500Y-81853316D01*
X156129815Y-81920355D01*
X156096623Y-81954891D01*
X155960859Y-82049953D01*
X155799954Y-82210858D01*
X155669432Y-82397265D01*
X155669431Y-82397267D01*
X155573261Y-82603502D01*
X155573258Y-82603511D01*
X155514366Y-82823302D01*
X155514364Y-82823313D01*
X155494532Y-83049998D01*
X155494532Y-83050001D01*
X155514364Y-83276686D01*
X155514366Y-83276697D01*
X155573258Y-83496488D01*
X155573261Y-83496497D01*
X155669431Y-83702732D01*
X155669432Y-83702734D01*
X155799954Y-83889141D01*
X155960858Y-84050045D01*
X155987182Y-84068477D01*
X156147266Y-84180568D01*
X156353504Y-84276739D01*
X156573308Y-84335635D01*
X156735230Y-84349801D01*
X156799998Y-84355468D01*
X156800000Y-84355468D01*
X156800002Y-84355468D01*
X156856673Y-84350509D01*
X157026692Y-84335635D01*
X157246496Y-84276739D01*
X157452734Y-84180568D01*
X157639139Y-84050047D01*
X157800047Y-83889139D01*
X157930568Y-83702734D01*
X158026739Y-83496496D01*
X158085635Y-83276692D01*
X158105468Y-83050000D01*
X158085635Y-82823308D01*
X158026739Y-82603504D01*
X157930568Y-82397266D01*
X157800047Y-82210861D01*
X157800045Y-82210858D01*
X157639140Y-82049953D01*
X157503377Y-81954891D01*
X157459752Y-81900314D01*
X157450500Y-81853316D01*
X157450500Y-78935928D01*
X157425502Y-78810261D01*
X157425501Y-78810260D01*
X157425501Y-78810256D01*
X157376465Y-78691873D01*
X157369902Y-78682051D01*
X157369899Y-78682046D01*
X157369899Y-78682045D01*
X157305275Y-78585328D01*
X153314673Y-74594726D01*
X153314669Y-74594723D01*
X153208127Y-74523535D01*
X153089744Y-74474499D01*
X153089738Y-74474497D01*
X152964071Y-74449500D01*
X152964069Y-74449500D01*
X146235931Y-74449500D01*
X146235929Y-74449500D01*
X146110261Y-74474497D01*
X146110255Y-74474499D01*
X145991874Y-74523534D01*
X145885326Y-74594726D01*
X144694726Y-75785326D01*
X144623534Y-75891874D01*
X144574499Y-76010255D01*
X144574497Y-76010260D01*
X144564612Y-76059956D01*
X144532226Y-76121867D01*
X144471510Y-76156440D01*
X144401740Y-76152699D01*
X144345069Y-76111832D01*
X144319488Y-76046813D01*
X144318995Y-76035708D01*
X144319007Y-76010260D01*
X144320466Y-72714420D01*
X144320500Y-72713925D01*
X144320500Y-72644427D01*
X144320816Y-72635581D01*
X144335130Y-72435443D01*
X144335131Y-72435442D01*
X144335130Y-72435436D01*
X144337646Y-72417938D01*
X144379356Y-72226199D01*
X144384333Y-72209248D01*
X144452911Y-72025385D01*
X144460259Y-72009298D01*
X144522815Y-71894734D01*
X144554291Y-71837089D01*
X144563845Y-71822221D01*
X144681448Y-71665123D01*
X144693020Y-71651769D01*
X144831769Y-71513020D01*
X144845123Y-71501448D01*
X145002221Y-71383845D01*
X145017089Y-71374291D01*
X145189298Y-71280258D01*
X145205385Y-71272911D01*
X145389248Y-71204333D01*
X145406199Y-71199356D01*
X145597938Y-71157646D01*
X145615436Y-71155130D01*
X145815582Y-71140816D01*
X145824428Y-71140500D01*
X145885892Y-71140500D01*
X178974108Y-71140500D01*
X179035572Y-71140500D01*
X179044418Y-71140816D01*
G37*
%TD.AperFunction*%
%TD*%
M02*
