%TF.GenerationSoftware,KiCad,Pcbnew,8.0.1*%
%TF.CreationDate,2024-05-08T13:57:29+07:00*%
%TF.ProjectId,Arduino_RC_Transceiver_DIY_2.0.0,41726475-696e-46f5-9f52-435f5472616e,rev?*%
%TF.SameCoordinates,Original*%
%TF.FileFunction,Drillmap*%
%TF.FilePolarity,Positive*%
%FSLAX45Y45*%
G04 Gerber Fmt 4.5, Leading zero omitted, Abs format (unit mm)*
G04 Created by KiCad (PCBNEW 8.0.1) date 2024-05-08 13:57:29*
%MOMM*%
%LPD*%
G01*
G04 APERTURE LIST*
%ADD10C,0.050000*%
%ADD11C,0.038100*%
%ADD12C,0.100000*%
%ADD13C,0.200000*%
G04 APERTURE END LIST*
D10*
X14380177Y-11380177D02*
G75*
G02*
X13980177Y-11779997I-399997J177D01*
G01*
X18509469Y-11780000D02*
G75*
G02*
X18109470Y-11380531I1J400000D01*
G01*
D11*
X13660000Y-11780000D02*
X13980177Y-11780000D01*
X18810000Y-11780000D02*
X18509469Y-11780000D01*
X13460000Y-12570000D02*
X13460000Y-11980000D01*
X18810000Y-12770000D02*
X13660000Y-12770000D01*
X19010000Y-11980000D02*
X19010000Y-12570000D01*
X13660000Y-12770000D02*
G75*
G02*
X13460000Y-12570000I0J200000D01*
G01*
X19010000Y-12570000D02*
G75*
G02*
X18810000Y-12770000I-200000J0D01*
G01*
X13460000Y-11980000D02*
G75*
G02*
X13660000Y-11780000I200000J0D01*
G01*
X18810000Y-11780000D02*
G75*
G02*
X19010000Y-11980000I0J-200000D01*
G01*
D10*
X14582000Y-7064000D02*
X17904000Y-7064000D01*
X14380177Y-11380177D02*
X14382000Y-7264000D01*
X18104000Y-7264000D02*
X18109469Y-11380531D01*
X14382000Y-7264000D02*
G75*
G02*
X14582000Y-7064000I200000J0D01*
G01*
X17904000Y-7064000D02*
G75*
G02*
X18104000Y-7264000I0J-200000D01*
G01*
D12*
X14060000Y-12244000D02*
G75*
G02*
X13760000Y-12244000I-150000J0D01*
G01*
X13760000Y-12244000D02*
G75*
G02*
X14060000Y-12244000I150000J0D01*
G01*
X18660000Y-12244000D02*
G75*
G02*
X18360000Y-12244000I-150000J0D01*
G01*
X18360000Y-12244000D02*
G75*
G02*
X18660000Y-12244000I150000J0D01*
G01*
D13*
D12*
X14725000Y-12365000D02*
X14755000Y-12395000D01*
X14755000Y-12365000D02*
X14725000Y-12395000D01*
X15142500Y-10292500D02*
X15172500Y-10322500D01*
X15172500Y-10292500D02*
X15142500Y-10322500D01*
X15175000Y-10905000D02*
X15205000Y-10935000D01*
X15205000Y-10905000D02*
X15175000Y-10935000D01*
X16435000Y-8135000D02*
X16465000Y-8165000D01*
X16465000Y-8135000D02*
X16435000Y-8165000D01*
X16465000Y-8773000D02*
X16495000Y-8803000D01*
X16495000Y-8773000D02*
X16465000Y-8803000D01*
X17075000Y-10245000D02*
X17105000Y-10275000D01*
X17105000Y-10245000D02*
X17075000Y-10275000D01*
X17715000Y-12435000D02*
X17745000Y-12465000D01*
X17745000Y-12435000D02*
X17715000Y-12465000D01*
X16780000Y-10490000D02*
G75*
G02*
X16720000Y-10490000I-30000J0D01*
G01*
X16720000Y-10490000D02*
G75*
G02*
X16780000Y-10490000I30000J0D01*
G01*
X16980000Y-10490000D02*
G75*
G02*
X16920000Y-10490000I-30000J0D01*
G01*
X16920000Y-10490000D02*
G75*
G02*
X16980000Y-10490000I30000J0D01*
G01*
X17270000Y-10490000D02*
G75*
G02*
X17210000Y-10490000I-30000J0D01*
G01*
X17210000Y-10490000D02*
G75*
G02*
X17270000Y-10490000I30000J0D01*
G01*
X17470000Y-10490000D02*
G75*
G02*
X17410000Y-10490000I-30000J0D01*
G01*
X17410000Y-10490000D02*
G75*
G02*
X17470000Y-10490000I30000J0D01*
G01*
X15270000Y-8265000D02*
X15270000Y-8345000D01*
X15230000Y-8305000D02*
X15310000Y-8305000D01*
X15270000Y-9535000D02*
X15270000Y-9615000D01*
X15230000Y-9575000D02*
X15310000Y-9575000D01*
X15270000Y-9905000D02*
X15270000Y-9985000D01*
X15230000Y-9945000D02*
X15310000Y-9945000D01*
X15270000Y-11175000D02*
X15270000Y-11255000D01*
X15230000Y-11215000D02*
X15310000Y-11215000D01*
X15680000Y-8265000D02*
X15680000Y-8345000D01*
X15640000Y-8305000D02*
X15720000Y-8305000D01*
X15680000Y-9535000D02*
X15680000Y-9615000D01*
X15640000Y-9575000D02*
X15720000Y-9575000D01*
X15680000Y-9905000D02*
X15680000Y-9985000D01*
X15640000Y-9945000D02*
X15720000Y-9945000D01*
X15680000Y-11175000D02*
X15680000Y-11255000D01*
X15640000Y-11215000D02*
X15720000Y-11215000D01*
X16809000Y-9675500D02*
X16809000Y-9755500D01*
X16769000Y-9715500D02*
X16849000Y-9715500D01*
X16809000Y-9929500D02*
X16809000Y-10009500D01*
X16769000Y-9969500D02*
X16849000Y-9969500D01*
X17063000Y-9675500D02*
X17063000Y-9755500D01*
X17023000Y-9715500D02*
X17103000Y-9715500D01*
X17063000Y-9929500D02*
X17063000Y-10009500D01*
X17023000Y-9969500D02*
X17103000Y-9969500D01*
X17317000Y-9675500D02*
X17317000Y-9755500D01*
X17277000Y-9715500D02*
X17357000Y-9715500D01*
X17317000Y-9929500D02*
X17317000Y-10009500D01*
X17277000Y-9969500D02*
X17357000Y-9969500D01*
X17571000Y-9675500D02*
X17571000Y-9755500D01*
X17531000Y-9715500D02*
X17611000Y-9715500D01*
X17571000Y-9929500D02*
X17571000Y-10009500D01*
X17531000Y-9969500D02*
X17611000Y-9969500D01*
X16811002Y-11085002D02*
X16811002Y-11014998D01*
X16740998Y-11014998D01*
X16740998Y-11085002D01*
X16811002Y-11085002D01*
X17065002Y-11085002D02*
X17065002Y-11014998D01*
X16994998Y-11014998D01*
X16994998Y-11085002D01*
X17065002Y-11085002D01*
X17319002Y-11085002D02*
X17319002Y-11014998D01*
X17248998Y-11014998D01*
X17248998Y-11085002D01*
X17319002Y-11085002D01*
X14698750Y-7822000D02*
X14748750Y-7772000D01*
X14698750Y-7722000D01*
X14648750Y-7772000D01*
X14698750Y-7822000D01*
X14698750Y-8076000D02*
X14748750Y-8026000D01*
X14698750Y-7976000D01*
X14648750Y-8026000D01*
X14698750Y-8076000D01*
X14698750Y-8330000D02*
X14748750Y-8280000D01*
X14698750Y-8230000D01*
X14648750Y-8280000D01*
X14698750Y-8330000D01*
X14698750Y-8584000D02*
X14748750Y-8534000D01*
X14698750Y-8484000D01*
X14648750Y-8534000D01*
X14698750Y-8584000D01*
X14698750Y-8838000D02*
X14748750Y-8788000D01*
X14698750Y-8738000D01*
X14648750Y-8788000D01*
X14698750Y-8838000D01*
X14698750Y-9092000D02*
X14748750Y-9042000D01*
X14698750Y-8992000D01*
X14648750Y-9042000D01*
X14698750Y-9092000D01*
X14698750Y-9346000D02*
X14748750Y-9296000D01*
X14698750Y-9246000D01*
X14648750Y-9296000D01*
X14698750Y-9346000D01*
X14698750Y-9600000D02*
X14748750Y-9550000D01*
X14698750Y-9500000D01*
X14648750Y-9550000D01*
X14698750Y-9600000D01*
X14698750Y-9854000D02*
X14748750Y-9804000D01*
X14698750Y-9754000D01*
X14648750Y-9804000D01*
X14698750Y-9854000D01*
X14698750Y-10108000D02*
X14748750Y-10058000D01*
X14698750Y-10008000D01*
X14648750Y-10058000D01*
X14698750Y-10108000D01*
X14698750Y-10362000D02*
X14748750Y-10312000D01*
X14698750Y-10262000D01*
X14648750Y-10312000D01*
X14698750Y-10362000D01*
X14698750Y-10616000D02*
X14748750Y-10566000D01*
X14698750Y-10516000D01*
X14648750Y-10566000D01*
X14698750Y-10616000D01*
X14698750Y-10870000D02*
X14748750Y-10820000D01*
X14698750Y-10770000D01*
X14648750Y-10820000D01*
X14698750Y-10870000D01*
X14698750Y-11124000D02*
X14748750Y-11074000D01*
X14698750Y-11024000D01*
X14648750Y-11074000D01*
X14698750Y-11124000D01*
X14698750Y-11378000D02*
X14748750Y-11328000D01*
X14698750Y-11278000D01*
X14648750Y-11328000D01*
X14698750Y-11378000D01*
X14973000Y-12040000D02*
X15023000Y-11990000D01*
X14973000Y-11940000D01*
X14923000Y-11990000D01*
X14973000Y-12040000D01*
X14973000Y-12294000D02*
X15023000Y-12244000D01*
X14973000Y-12194000D01*
X14923000Y-12244000D01*
X14973000Y-12294000D01*
X14973000Y-12548000D02*
X15023000Y-12498000D01*
X14973000Y-12448000D01*
X14923000Y-12498000D01*
X14973000Y-12548000D01*
X15227000Y-12040000D02*
X15277000Y-11990000D01*
X15227000Y-11940000D01*
X15177000Y-11990000D01*
X15227000Y-12040000D01*
X15227000Y-12294000D02*
X15277000Y-12244000D01*
X15227000Y-12194000D01*
X15177000Y-12244000D01*
X15227000Y-12294000D01*
X15227000Y-12548000D02*
X15277000Y-12498000D01*
X15227000Y-12448000D01*
X15177000Y-12498000D01*
X15227000Y-12548000D01*
X15481000Y-12040000D02*
X15531000Y-11990000D01*
X15481000Y-11940000D01*
X15431000Y-11990000D01*
X15481000Y-12040000D01*
X15481000Y-12294000D02*
X15531000Y-12244000D01*
X15481000Y-12194000D01*
X15431000Y-12244000D01*
X15481000Y-12294000D01*
X15481000Y-12548000D02*
X15531000Y-12498000D01*
X15481000Y-12448000D01*
X15431000Y-12498000D01*
X15481000Y-12548000D01*
X15735000Y-12040000D02*
X15785000Y-11990000D01*
X15735000Y-11940000D01*
X15685000Y-11990000D01*
X15735000Y-12040000D01*
X15735000Y-12294000D02*
X15785000Y-12244000D01*
X15735000Y-12194000D01*
X15685000Y-12244000D01*
X15735000Y-12294000D01*
X15735000Y-12548000D02*
X15785000Y-12498000D01*
X15735000Y-12448000D01*
X15685000Y-12498000D01*
X15735000Y-12548000D01*
X15989000Y-12040000D02*
X16039000Y-11990000D01*
X15989000Y-11940000D01*
X15939000Y-11990000D01*
X15989000Y-12040000D01*
X15989000Y-12294000D02*
X16039000Y-12244000D01*
X15989000Y-12194000D01*
X15939000Y-12244000D01*
X15989000Y-12294000D01*
X15989000Y-12548000D02*
X16039000Y-12498000D01*
X15989000Y-12448000D01*
X15939000Y-12498000D01*
X15989000Y-12548000D01*
X16222750Y-7822000D02*
X16272750Y-7772000D01*
X16222750Y-7722000D01*
X16172750Y-7772000D01*
X16222750Y-7822000D01*
X16222750Y-8076000D02*
X16272750Y-8026000D01*
X16222750Y-7976000D01*
X16172750Y-8026000D01*
X16222750Y-8076000D01*
X16222750Y-8330000D02*
X16272750Y-8280000D01*
X16222750Y-8230000D01*
X16172750Y-8280000D01*
X16222750Y-8330000D01*
X16222750Y-8584000D02*
X16272750Y-8534000D01*
X16222750Y-8484000D01*
X16172750Y-8534000D01*
X16222750Y-8584000D01*
X16222750Y-8838000D02*
X16272750Y-8788000D01*
X16222750Y-8738000D01*
X16172750Y-8788000D01*
X16222750Y-8838000D01*
X16222750Y-9092000D02*
X16272750Y-9042000D01*
X16222750Y-8992000D01*
X16172750Y-9042000D01*
X16222750Y-9092000D01*
X16222750Y-9346000D02*
X16272750Y-9296000D01*
X16222750Y-9246000D01*
X16172750Y-9296000D01*
X16222750Y-9346000D01*
X16222750Y-9600000D02*
X16272750Y-9550000D01*
X16222750Y-9500000D01*
X16172750Y-9550000D01*
X16222750Y-9600000D01*
X16222750Y-9854000D02*
X16272750Y-9804000D01*
X16222750Y-9754000D01*
X16172750Y-9804000D01*
X16222750Y-9854000D01*
X16222750Y-10108000D02*
X16272750Y-10058000D01*
X16222750Y-10008000D01*
X16172750Y-10058000D01*
X16222750Y-10108000D01*
X16222750Y-10362000D02*
X16272750Y-10312000D01*
X16222750Y-10262000D01*
X16172750Y-10312000D01*
X16222750Y-10362000D01*
X16222750Y-10616000D02*
X16272750Y-10566000D01*
X16222750Y-10516000D01*
X16172750Y-10566000D01*
X16222750Y-10616000D01*
X16222750Y-10870000D02*
X16272750Y-10820000D01*
X16222750Y-10770000D01*
X16172750Y-10820000D01*
X16222750Y-10870000D01*
X16222750Y-11124000D02*
X16272750Y-11074000D01*
X16222750Y-11024000D01*
X16172750Y-11074000D01*
X16222750Y-11124000D01*
X16222750Y-11378000D02*
X16272750Y-11328000D01*
X16222750Y-11278000D01*
X16172750Y-11328000D01*
X16222750Y-11378000D01*
X16243000Y-12040000D02*
X16293000Y-11990000D01*
X16243000Y-11940000D01*
X16193000Y-11990000D01*
X16243000Y-12040000D01*
X16243000Y-12294000D02*
X16293000Y-12244000D01*
X16243000Y-12194000D01*
X16193000Y-12244000D01*
X16243000Y-12294000D01*
X16243000Y-12548000D02*
X16293000Y-12498000D01*
X16243000Y-12448000D01*
X16193000Y-12498000D01*
X16243000Y-12548000D01*
X16497000Y-12040000D02*
X16547000Y-11990000D01*
X16497000Y-11940000D01*
X16447000Y-11990000D01*
X16497000Y-12040000D01*
X16497000Y-12294000D02*
X16547000Y-12244000D01*
X16497000Y-12194000D01*
X16447000Y-12244000D01*
X16497000Y-12294000D01*
X16497000Y-12548000D02*
X16547000Y-12498000D01*
X16497000Y-12448000D01*
X16447000Y-12498000D01*
X16497000Y-12548000D01*
X16751000Y-12040000D02*
X16801000Y-11990000D01*
X16751000Y-11940000D01*
X16701000Y-11990000D01*
X16751000Y-12040000D01*
X16751000Y-12294000D02*
X16801000Y-12244000D01*
X16751000Y-12194000D01*
X16701000Y-12244000D01*
X16751000Y-12294000D01*
X16751000Y-12548000D02*
X16801000Y-12498000D01*
X16751000Y-12448000D01*
X16701000Y-12498000D01*
X16751000Y-12548000D01*
X17005000Y-12040000D02*
X17055000Y-11990000D01*
X17005000Y-11940000D01*
X16955000Y-11990000D01*
X17005000Y-12040000D01*
X17005000Y-12294000D02*
X17055000Y-12244000D01*
X17005000Y-12194000D01*
X16955000Y-12244000D01*
X17005000Y-12294000D01*
X17005000Y-12548000D02*
X17055000Y-12498000D01*
X17005000Y-12448000D01*
X16955000Y-12498000D01*
X17005000Y-12548000D01*
X17259000Y-12040000D02*
X17309000Y-11990000D01*
X17259000Y-11940000D01*
X17209000Y-11990000D01*
X17259000Y-12040000D01*
X17259000Y-12294000D02*
X17309000Y-12244000D01*
X17259000Y-12194000D01*
X17209000Y-12244000D01*
X17259000Y-12294000D01*
X17259000Y-12548000D02*
X17309000Y-12498000D01*
X17259000Y-12448000D01*
X17209000Y-12498000D01*
X17259000Y-12548000D01*
X17513000Y-12040000D02*
X17563000Y-11990000D01*
X17513000Y-11940000D01*
X17463000Y-11990000D01*
X17513000Y-12040000D01*
X17513000Y-12294000D02*
X17563000Y-12244000D01*
X17513000Y-12194000D01*
X17463000Y-12244000D01*
X17513000Y-12294000D01*
X17513000Y-12548000D02*
X17563000Y-12498000D01*
X17513000Y-12448000D01*
X17463000Y-12498000D01*
X17513000Y-12548000D01*
X17860000Y-10670000D02*
X17910000Y-10620000D01*
X17860000Y-10570000D01*
X17810000Y-10620000D01*
X17860000Y-10670000D01*
X17860000Y-10924000D02*
X17910000Y-10874000D01*
X17860000Y-10824000D01*
X17810000Y-10874000D01*
X17860000Y-10924000D01*
X17860000Y-11178000D02*
X17910000Y-11128000D01*
X17860000Y-11078000D01*
X17810000Y-11128000D01*
X17860000Y-11178000D01*
X17860000Y-11432000D02*
X17910000Y-11382000D01*
X17860000Y-11332000D01*
X17810000Y-11382000D01*
X17860000Y-11432000D01*
D13*
X13718872Y-13083389D02*
X13718872Y-12883389D01*
X13718872Y-12883389D02*
X13766491Y-12883389D01*
X13766491Y-12883389D02*
X13795062Y-12892913D01*
X13795062Y-12892913D02*
X13814110Y-12911960D01*
X13814110Y-12911960D02*
X13823634Y-12931008D01*
X13823634Y-12931008D02*
X13833157Y-12969103D01*
X13833157Y-12969103D02*
X13833157Y-12997674D01*
X13833157Y-12997674D02*
X13823634Y-13035770D01*
X13823634Y-13035770D02*
X13814110Y-13054817D01*
X13814110Y-13054817D02*
X13795062Y-13073865D01*
X13795062Y-13073865D02*
X13766491Y-13083389D01*
X13766491Y-13083389D02*
X13718872Y-13083389D01*
X13918872Y-13083389D02*
X13918872Y-12950055D01*
X13918872Y-12988151D02*
X13928396Y-12969103D01*
X13928396Y-12969103D02*
X13937919Y-12959579D01*
X13937919Y-12959579D02*
X13956967Y-12950055D01*
X13956967Y-12950055D02*
X13976015Y-12950055D01*
X14042681Y-13083389D02*
X14042681Y-12950055D01*
X14042681Y-12883389D02*
X14033157Y-12892913D01*
X14033157Y-12892913D02*
X14042681Y-12902436D01*
X14042681Y-12902436D02*
X14052205Y-12892913D01*
X14052205Y-12892913D02*
X14042681Y-12883389D01*
X14042681Y-12883389D02*
X14042681Y-12902436D01*
X14166491Y-13083389D02*
X14147443Y-13073865D01*
X14147443Y-13073865D02*
X14137919Y-13054817D01*
X14137919Y-13054817D02*
X14137919Y-12883389D01*
X14271253Y-13083389D02*
X14252205Y-13073865D01*
X14252205Y-13073865D02*
X14242681Y-13054817D01*
X14242681Y-13054817D02*
X14242681Y-12883389D01*
X14499824Y-13083389D02*
X14499824Y-12883389D01*
X14499824Y-12883389D02*
X14566491Y-13026246D01*
X14566491Y-13026246D02*
X14633157Y-12883389D01*
X14633157Y-12883389D02*
X14633157Y-13083389D01*
X14814110Y-13083389D02*
X14814110Y-12978627D01*
X14814110Y-12978627D02*
X14804586Y-12959579D01*
X14804586Y-12959579D02*
X14785538Y-12950055D01*
X14785538Y-12950055D02*
X14747443Y-12950055D01*
X14747443Y-12950055D02*
X14728396Y-12959579D01*
X14814110Y-13073865D02*
X14795062Y-13083389D01*
X14795062Y-13083389D02*
X14747443Y-13083389D01*
X14747443Y-13083389D02*
X14728396Y-13073865D01*
X14728396Y-13073865D02*
X14718872Y-13054817D01*
X14718872Y-13054817D02*
X14718872Y-13035770D01*
X14718872Y-13035770D02*
X14728396Y-13016722D01*
X14728396Y-13016722D02*
X14747443Y-13007198D01*
X14747443Y-13007198D02*
X14795062Y-13007198D01*
X14795062Y-13007198D02*
X14814110Y-12997674D01*
X14909348Y-12950055D02*
X14909348Y-13150055D01*
X14909348Y-12959579D02*
X14928396Y-12950055D01*
X14928396Y-12950055D02*
X14966491Y-12950055D01*
X14966491Y-12950055D02*
X14985538Y-12959579D01*
X14985538Y-12959579D02*
X14995062Y-12969103D01*
X14995062Y-12969103D02*
X15004586Y-12988151D01*
X15004586Y-12988151D02*
X15004586Y-13045293D01*
X15004586Y-13045293D02*
X14995062Y-13064341D01*
X14995062Y-13064341D02*
X14985538Y-13073865D01*
X14985538Y-13073865D02*
X14966491Y-13083389D01*
X14966491Y-13083389D02*
X14928396Y-13083389D01*
X14928396Y-13083389D02*
X14909348Y-13073865D01*
X15090300Y-13064341D02*
X15099824Y-13073865D01*
X15099824Y-13073865D02*
X15090300Y-13083389D01*
X15090300Y-13083389D02*
X15080777Y-13073865D01*
X15080777Y-13073865D02*
X15090300Y-13064341D01*
X15090300Y-13064341D02*
X15090300Y-13083389D01*
X15090300Y-12959579D02*
X15099824Y-12969103D01*
X15099824Y-12969103D02*
X15090300Y-12978627D01*
X15090300Y-12978627D02*
X15080777Y-12969103D01*
X15080777Y-12969103D02*
X15090300Y-12959579D01*
X15090300Y-12959579D02*
X15090300Y-12978627D01*
D12*
X13428095Y-13396905D02*
X13458095Y-13426905D01*
X13458095Y-13396905D02*
X13428095Y-13426905D01*
D13*
X13756967Y-13303389D02*
X13776015Y-13303389D01*
X13776015Y-13303389D02*
X13795062Y-13312913D01*
X13795062Y-13312913D02*
X13804586Y-13322436D01*
X13804586Y-13322436D02*
X13814110Y-13341484D01*
X13814110Y-13341484D02*
X13823634Y-13379579D01*
X13823634Y-13379579D02*
X13823634Y-13427198D01*
X13823634Y-13427198D02*
X13814110Y-13465293D01*
X13814110Y-13465293D02*
X13804586Y-13484341D01*
X13804586Y-13484341D02*
X13795062Y-13493865D01*
X13795062Y-13493865D02*
X13776015Y-13503389D01*
X13776015Y-13503389D02*
X13756967Y-13503389D01*
X13756967Y-13503389D02*
X13737919Y-13493865D01*
X13737919Y-13493865D02*
X13728396Y-13484341D01*
X13728396Y-13484341D02*
X13718872Y-13465293D01*
X13718872Y-13465293D02*
X13709348Y-13427198D01*
X13709348Y-13427198D02*
X13709348Y-13379579D01*
X13709348Y-13379579D02*
X13718872Y-13341484D01*
X13718872Y-13341484D02*
X13728396Y-13322436D01*
X13728396Y-13322436D02*
X13737919Y-13312913D01*
X13737919Y-13312913D02*
X13756967Y-13303389D01*
X13909348Y-13484341D02*
X13918872Y-13493865D01*
X13918872Y-13493865D02*
X13909348Y-13503389D01*
X13909348Y-13503389D02*
X13899824Y-13493865D01*
X13899824Y-13493865D02*
X13909348Y-13484341D01*
X13909348Y-13484341D02*
X13909348Y-13503389D01*
X13985538Y-13303389D02*
X14109348Y-13303389D01*
X14109348Y-13303389D02*
X14042681Y-13379579D01*
X14042681Y-13379579D02*
X14071253Y-13379579D01*
X14071253Y-13379579D02*
X14090300Y-13389103D01*
X14090300Y-13389103D02*
X14099824Y-13398627D01*
X14099824Y-13398627D02*
X14109348Y-13417674D01*
X14109348Y-13417674D02*
X14109348Y-13465293D01*
X14109348Y-13465293D02*
X14099824Y-13484341D01*
X14099824Y-13484341D02*
X14090300Y-13493865D01*
X14090300Y-13493865D02*
X14071253Y-13503389D01*
X14071253Y-13503389D02*
X14014110Y-13503389D01*
X14014110Y-13503389D02*
X13995062Y-13493865D01*
X13995062Y-13493865D02*
X13985538Y-13484341D01*
X14233157Y-13303389D02*
X14252205Y-13303389D01*
X14252205Y-13303389D02*
X14271253Y-13312913D01*
X14271253Y-13312913D02*
X14280777Y-13322436D01*
X14280777Y-13322436D02*
X14290300Y-13341484D01*
X14290300Y-13341484D02*
X14299824Y-13379579D01*
X14299824Y-13379579D02*
X14299824Y-13427198D01*
X14299824Y-13427198D02*
X14290300Y-13465293D01*
X14290300Y-13465293D02*
X14280777Y-13484341D01*
X14280777Y-13484341D02*
X14271253Y-13493865D01*
X14271253Y-13493865D02*
X14252205Y-13503389D01*
X14252205Y-13503389D02*
X14233157Y-13503389D01*
X14233157Y-13503389D02*
X14214110Y-13493865D01*
X14214110Y-13493865D02*
X14204586Y-13484341D01*
X14204586Y-13484341D02*
X14195062Y-13465293D01*
X14195062Y-13465293D02*
X14185538Y-13427198D01*
X14185538Y-13427198D02*
X14185538Y-13379579D01*
X14185538Y-13379579D02*
X14195062Y-13341484D01*
X14195062Y-13341484D02*
X14204586Y-13322436D01*
X14204586Y-13322436D02*
X14214110Y-13312913D01*
X14214110Y-13312913D02*
X14233157Y-13303389D01*
X14423634Y-13303389D02*
X14442681Y-13303389D01*
X14442681Y-13303389D02*
X14461729Y-13312913D01*
X14461729Y-13312913D02*
X14471253Y-13322436D01*
X14471253Y-13322436D02*
X14480777Y-13341484D01*
X14480777Y-13341484D02*
X14490300Y-13379579D01*
X14490300Y-13379579D02*
X14490300Y-13427198D01*
X14490300Y-13427198D02*
X14480777Y-13465293D01*
X14480777Y-13465293D02*
X14471253Y-13484341D01*
X14471253Y-13484341D02*
X14461729Y-13493865D01*
X14461729Y-13493865D02*
X14442681Y-13503389D01*
X14442681Y-13503389D02*
X14423634Y-13503389D01*
X14423634Y-13503389D02*
X14404586Y-13493865D01*
X14404586Y-13493865D02*
X14395062Y-13484341D01*
X14395062Y-13484341D02*
X14385538Y-13465293D01*
X14385538Y-13465293D02*
X14376015Y-13427198D01*
X14376015Y-13427198D02*
X14376015Y-13379579D01*
X14376015Y-13379579D02*
X14385538Y-13341484D01*
X14385538Y-13341484D02*
X14395062Y-13322436D01*
X14395062Y-13322436D02*
X14404586Y-13312913D01*
X14404586Y-13312913D02*
X14423634Y-13303389D01*
X14576015Y-13503389D02*
X14576015Y-13370055D01*
X14576015Y-13389103D02*
X14585538Y-13379579D01*
X14585538Y-13379579D02*
X14604586Y-13370055D01*
X14604586Y-13370055D02*
X14633158Y-13370055D01*
X14633158Y-13370055D02*
X14652205Y-13379579D01*
X14652205Y-13379579D02*
X14661729Y-13398627D01*
X14661729Y-13398627D02*
X14661729Y-13503389D01*
X14661729Y-13398627D02*
X14671253Y-13379579D01*
X14671253Y-13379579D02*
X14690300Y-13370055D01*
X14690300Y-13370055D02*
X14718872Y-13370055D01*
X14718872Y-13370055D02*
X14737919Y-13379579D01*
X14737919Y-13379579D02*
X14747443Y-13398627D01*
X14747443Y-13398627D02*
X14747443Y-13503389D01*
X14842681Y-13503389D02*
X14842681Y-13370055D01*
X14842681Y-13389103D02*
X14852205Y-13379579D01*
X14852205Y-13379579D02*
X14871253Y-13370055D01*
X14871253Y-13370055D02*
X14899824Y-13370055D01*
X14899824Y-13370055D02*
X14918872Y-13379579D01*
X14918872Y-13379579D02*
X14928396Y-13398627D01*
X14928396Y-13398627D02*
X14928396Y-13503389D01*
X14928396Y-13398627D02*
X14937919Y-13379579D01*
X14937919Y-13379579D02*
X14956967Y-13370055D01*
X14956967Y-13370055D02*
X14985538Y-13370055D01*
X14985538Y-13370055D02*
X15004586Y-13379579D01*
X15004586Y-13379579D02*
X15014110Y-13398627D01*
X15014110Y-13398627D02*
X15014110Y-13503389D01*
X15404586Y-13293865D02*
X15233158Y-13551008D01*
X15661729Y-13303389D02*
X15680777Y-13303389D01*
X15680777Y-13303389D02*
X15699824Y-13312913D01*
X15699824Y-13312913D02*
X15709348Y-13322436D01*
X15709348Y-13322436D02*
X15718872Y-13341484D01*
X15718872Y-13341484D02*
X15728396Y-13379579D01*
X15728396Y-13379579D02*
X15728396Y-13427198D01*
X15728396Y-13427198D02*
X15718872Y-13465293D01*
X15718872Y-13465293D02*
X15709348Y-13484341D01*
X15709348Y-13484341D02*
X15699824Y-13493865D01*
X15699824Y-13493865D02*
X15680777Y-13503389D01*
X15680777Y-13503389D02*
X15661729Y-13503389D01*
X15661729Y-13503389D02*
X15642681Y-13493865D01*
X15642681Y-13493865D02*
X15633158Y-13484341D01*
X15633158Y-13484341D02*
X15623634Y-13465293D01*
X15623634Y-13465293D02*
X15614110Y-13427198D01*
X15614110Y-13427198D02*
X15614110Y-13379579D01*
X15614110Y-13379579D02*
X15623634Y-13341484D01*
X15623634Y-13341484D02*
X15633158Y-13322436D01*
X15633158Y-13322436D02*
X15642681Y-13312913D01*
X15642681Y-13312913D02*
X15661729Y-13303389D01*
X15814110Y-13484341D02*
X15823634Y-13493865D01*
X15823634Y-13493865D02*
X15814110Y-13503389D01*
X15814110Y-13503389D02*
X15804586Y-13493865D01*
X15804586Y-13493865D02*
X15814110Y-13484341D01*
X15814110Y-13484341D02*
X15814110Y-13503389D01*
X15947443Y-13303389D02*
X15966491Y-13303389D01*
X15966491Y-13303389D02*
X15985539Y-13312913D01*
X15985539Y-13312913D02*
X15995062Y-13322436D01*
X15995062Y-13322436D02*
X16004586Y-13341484D01*
X16004586Y-13341484D02*
X16014110Y-13379579D01*
X16014110Y-13379579D02*
X16014110Y-13427198D01*
X16014110Y-13427198D02*
X16004586Y-13465293D01*
X16004586Y-13465293D02*
X15995062Y-13484341D01*
X15995062Y-13484341D02*
X15985539Y-13493865D01*
X15985539Y-13493865D02*
X15966491Y-13503389D01*
X15966491Y-13503389D02*
X15947443Y-13503389D01*
X15947443Y-13503389D02*
X15928396Y-13493865D01*
X15928396Y-13493865D02*
X15918872Y-13484341D01*
X15918872Y-13484341D02*
X15909348Y-13465293D01*
X15909348Y-13465293D02*
X15899824Y-13427198D01*
X15899824Y-13427198D02*
X15899824Y-13379579D01*
X15899824Y-13379579D02*
X15909348Y-13341484D01*
X15909348Y-13341484D02*
X15918872Y-13322436D01*
X15918872Y-13322436D02*
X15928396Y-13312913D01*
X15928396Y-13312913D02*
X15947443Y-13303389D01*
X16204586Y-13503389D02*
X16090301Y-13503389D01*
X16147443Y-13503389D02*
X16147443Y-13303389D01*
X16147443Y-13303389D02*
X16128396Y-13331960D01*
X16128396Y-13331960D02*
X16109348Y-13351008D01*
X16109348Y-13351008D02*
X16090301Y-13360532D01*
X16395062Y-13503389D02*
X16280777Y-13503389D01*
X16337920Y-13503389D02*
X16337920Y-13303389D01*
X16337920Y-13303389D02*
X16318872Y-13331960D01*
X16318872Y-13331960D02*
X16299824Y-13351008D01*
X16299824Y-13351008D02*
X16280777Y-13360532D01*
X16509348Y-13389103D02*
X16490301Y-13379579D01*
X16490301Y-13379579D02*
X16480777Y-13370055D01*
X16480777Y-13370055D02*
X16471253Y-13351008D01*
X16471253Y-13351008D02*
X16471253Y-13341484D01*
X16471253Y-13341484D02*
X16480777Y-13322436D01*
X16480777Y-13322436D02*
X16490301Y-13312913D01*
X16490301Y-13312913D02*
X16509348Y-13303389D01*
X16509348Y-13303389D02*
X16547443Y-13303389D01*
X16547443Y-13303389D02*
X16566491Y-13312913D01*
X16566491Y-13312913D02*
X16576015Y-13322436D01*
X16576015Y-13322436D02*
X16585539Y-13341484D01*
X16585539Y-13341484D02*
X16585539Y-13351008D01*
X16585539Y-13351008D02*
X16576015Y-13370055D01*
X16576015Y-13370055D02*
X16566491Y-13379579D01*
X16566491Y-13379579D02*
X16547443Y-13389103D01*
X16547443Y-13389103D02*
X16509348Y-13389103D01*
X16509348Y-13389103D02*
X16490301Y-13398627D01*
X16490301Y-13398627D02*
X16480777Y-13408151D01*
X16480777Y-13408151D02*
X16471253Y-13427198D01*
X16471253Y-13427198D02*
X16471253Y-13465293D01*
X16471253Y-13465293D02*
X16480777Y-13484341D01*
X16480777Y-13484341D02*
X16490301Y-13493865D01*
X16490301Y-13493865D02*
X16509348Y-13503389D01*
X16509348Y-13503389D02*
X16547443Y-13503389D01*
X16547443Y-13503389D02*
X16566491Y-13493865D01*
X16566491Y-13493865D02*
X16576015Y-13484341D01*
X16576015Y-13484341D02*
X16585539Y-13465293D01*
X16585539Y-13465293D02*
X16585539Y-13427198D01*
X16585539Y-13427198D02*
X16576015Y-13408151D01*
X16576015Y-13408151D02*
X16566491Y-13398627D01*
X16566491Y-13398627D02*
X16547443Y-13389103D01*
X16661729Y-13303389D02*
X16661729Y-13341484D01*
X16737920Y-13303389D02*
X16737920Y-13341484D01*
X17033158Y-13579579D02*
X17023634Y-13570055D01*
X17023634Y-13570055D02*
X17004586Y-13541484D01*
X17004586Y-13541484D02*
X16995063Y-13522436D01*
X16995063Y-13522436D02*
X16985539Y-13493865D01*
X16985539Y-13493865D02*
X16976015Y-13446246D01*
X16976015Y-13446246D02*
X16976015Y-13408151D01*
X16976015Y-13408151D02*
X16985539Y-13360532D01*
X16985539Y-13360532D02*
X16995063Y-13331960D01*
X16995063Y-13331960D02*
X17004586Y-13312913D01*
X17004586Y-13312913D02*
X17023634Y-13284341D01*
X17023634Y-13284341D02*
X17033158Y-13274817D01*
X17090301Y-13303389D02*
X17223634Y-13303389D01*
X17223634Y-13303389D02*
X17137920Y-13503389D01*
X17452206Y-13503389D02*
X17452206Y-13303389D01*
X17537920Y-13503389D02*
X17537920Y-13398627D01*
X17537920Y-13398627D02*
X17528396Y-13379579D01*
X17528396Y-13379579D02*
X17509348Y-13370055D01*
X17509348Y-13370055D02*
X17480777Y-13370055D01*
X17480777Y-13370055D02*
X17461729Y-13379579D01*
X17461729Y-13379579D02*
X17452206Y-13389103D01*
X17661729Y-13503389D02*
X17642682Y-13493865D01*
X17642682Y-13493865D02*
X17633158Y-13484341D01*
X17633158Y-13484341D02*
X17623634Y-13465293D01*
X17623634Y-13465293D02*
X17623634Y-13408151D01*
X17623634Y-13408151D02*
X17633158Y-13389103D01*
X17633158Y-13389103D02*
X17642682Y-13379579D01*
X17642682Y-13379579D02*
X17661729Y-13370055D01*
X17661729Y-13370055D02*
X17690301Y-13370055D01*
X17690301Y-13370055D02*
X17709348Y-13379579D01*
X17709348Y-13379579D02*
X17718872Y-13389103D01*
X17718872Y-13389103D02*
X17728396Y-13408151D01*
X17728396Y-13408151D02*
X17728396Y-13465293D01*
X17728396Y-13465293D02*
X17718872Y-13484341D01*
X17718872Y-13484341D02*
X17709348Y-13493865D01*
X17709348Y-13493865D02*
X17690301Y-13503389D01*
X17690301Y-13503389D02*
X17661729Y-13503389D01*
X17842682Y-13503389D02*
X17823634Y-13493865D01*
X17823634Y-13493865D02*
X17814110Y-13474817D01*
X17814110Y-13474817D02*
X17814110Y-13303389D01*
X17995063Y-13493865D02*
X17976015Y-13503389D01*
X17976015Y-13503389D02*
X17937920Y-13503389D01*
X17937920Y-13503389D02*
X17918872Y-13493865D01*
X17918872Y-13493865D02*
X17909348Y-13474817D01*
X17909348Y-13474817D02*
X17909348Y-13398627D01*
X17909348Y-13398627D02*
X17918872Y-13379579D01*
X17918872Y-13379579D02*
X17937920Y-13370055D01*
X17937920Y-13370055D02*
X17976015Y-13370055D01*
X17976015Y-13370055D02*
X17995063Y-13379579D01*
X17995063Y-13379579D02*
X18004587Y-13398627D01*
X18004587Y-13398627D02*
X18004587Y-13417674D01*
X18004587Y-13417674D02*
X17909348Y-13436722D01*
X18080777Y-13493865D02*
X18099825Y-13503389D01*
X18099825Y-13503389D02*
X18137920Y-13503389D01*
X18137920Y-13503389D02*
X18156968Y-13493865D01*
X18156968Y-13493865D02*
X18166491Y-13474817D01*
X18166491Y-13474817D02*
X18166491Y-13465293D01*
X18166491Y-13465293D02*
X18156968Y-13446246D01*
X18156968Y-13446246D02*
X18137920Y-13436722D01*
X18137920Y-13436722D02*
X18109348Y-13436722D01*
X18109348Y-13436722D02*
X18090301Y-13427198D01*
X18090301Y-13427198D02*
X18080777Y-13408151D01*
X18080777Y-13408151D02*
X18080777Y-13398627D01*
X18080777Y-13398627D02*
X18090301Y-13379579D01*
X18090301Y-13379579D02*
X18109348Y-13370055D01*
X18109348Y-13370055D02*
X18137920Y-13370055D01*
X18137920Y-13370055D02*
X18156968Y-13379579D01*
X18233158Y-13579579D02*
X18242682Y-13570055D01*
X18242682Y-13570055D02*
X18261729Y-13541484D01*
X18261729Y-13541484D02*
X18271253Y-13522436D01*
X18271253Y-13522436D02*
X18280777Y-13493865D01*
X18280777Y-13493865D02*
X18290301Y-13446246D01*
X18290301Y-13446246D02*
X18290301Y-13408151D01*
X18290301Y-13408151D02*
X18280777Y-13360532D01*
X18280777Y-13360532D02*
X18271253Y-13331960D01*
X18271253Y-13331960D02*
X18261729Y-13312913D01*
X18261729Y-13312913D02*
X18242682Y-13284341D01*
X18242682Y-13284341D02*
X18233158Y-13274817D01*
D12*
X13458095Y-13675905D02*
G75*
G02*
X13398095Y-13675905I-30000J0D01*
G01*
X13398095Y-13675905D02*
G75*
G02*
X13458095Y-13675905I30000J0D01*
G01*
D13*
X13756967Y-13567389D02*
X13776015Y-13567389D01*
X13776015Y-13567389D02*
X13795062Y-13576913D01*
X13795062Y-13576913D02*
X13804586Y-13586436D01*
X13804586Y-13586436D02*
X13814110Y-13605484D01*
X13814110Y-13605484D02*
X13823634Y-13643579D01*
X13823634Y-13643579D02*
X13823634Y-13691198D01*
X13823634Y-13691198D02*
X13814110Y-13729293D01*
X13814110Y-13729293D02*
X13804586Y-13748341D01*
X13804586Y-13748341D02*
X13795062Y-13757865D01*
X13795062Y-13757865D02*
X13776015Y-13767389D01*
X13776015Y-13767389D02*
X13756967Y-13767389D01*
X13756967Y-13767389D02*
X13737919Y-13757865D01*
X13737919Y-13757865D02*
X13728396Y-13748341D01*
X13728396Y-13748341D02*
X13718872Y-13729293D01*
X13718872Y-13729293D02*
X13709348Y-13691198D01*
X13709348Y-13691198D02*
X13709348Y-13643579D01*
X13709348Y-13643579D02*
X13718872Y-13605484D01*
X13718872Y-13605484D02*
X13728396Y-13586436D01*
X13728396Y-13586436D02*
X13737919Y-13576913D01*
X13737919Y-13576913D02*
X13756967Y-13567389D01*
X13909348Y-13748341D02*
X13918872Y-13757865D01*
X13918872Y-13757865D02*
X13909348Y-13767389D01*
X13909348Y-13767389D02*
X13899824Y-13757865D01*
X13899824Y-13757865D02*
X13909348Y-13748341D01*
X13909348Y-13748341D02*
X13909348Y-13767389D01*
X14090300Y-13567389D02*
X14052205Y-13567389D01*
X14052205Y-13567389D02*
X14033157Y-13576913D01*
X14033157Y-13576913D02*
X14023634Y-13586436D01*
X14023634Y-13586436D02*
X14004586Y-13615008D01*
X14004586Y-13615008D02*
X13995062Y-13653103D01*
X13995062Y-13653103D02*
X13995062Y-13729293D01*
X13995062Y-13729293D02*
X14004586Y-13748341D01*
X14004586Y-13748341D02*
X14014110Y-13757865D01*
X14014110Y-13757865D02*
X14033157Y-13767389D01*
X14033157Y-13767389D02*
X14071253Y-13767389D01*
X14071253Y-13767389D02*
X14090300Y-13757865D01*
X14090300Y-13757865D02*
X14099824Y-13748341D01*
X14099824Y-13748341D02*
X14109348Y-13729293D01*
X14109348Y-13729293D02*
X14109348Y-13681674D01*
X14109348Y-13681674D02*
X14099824Y-13662627D01*
X14099824Y-13662627D02*
X14090300Y-13653103D01*
X14090300Y-13653103D02*
X14071253Y-13643579D01*
X14071253Y-13643579D02*
X14033157Y-13643579D01*
X14033157Y-13643579D02*
X14014110Y-13653103D01*
X14014110Y-13653103D02*
X14004586Y-13662627D01*
X14004586Y-13662627D02*
X13995062Y-13681674D01*
X14233157Y-13567389D02*
X14252205Y-13567389D01*
X14252205Y-13567389D02*
X14271253Y-13576913D01*
X14271253Y-13576913D02*
X14280777Y-13586436D01*
X14280777Y-13586436D02*
X14290300Y-13605484D01*
X14290300Y-13605484D02*
X14299824Y-13643579D01*
X14299824Y-13643579D02*
X14299824Y-13691198D01*
X14299824Y-13691198D02*
X14290300Y-13729293D01*
X14290300Y-13729293D02*
X14280777Y-13748341D01*
X14280777Y-13748341D02*
X14271253Y-13757865D01*
X14271253Y-13757865D02*
X14252205Y-13767389D01*
X14252205Y-13767389D02*
X14233157Y-13767389D01*
X14233157Y-13767389D02*
X14214110Y-13757865D01*
X14214110Y-13757865D02*
X14204586Y-13748341D01*
X14204586Y-13748341D02*
X14195062Y-13729293D01*
X14195062Y-13729293D02*
X14185538Y-13691198D01*
X14185538Y-13691198D02*
X14185538Y-13643579D01*
X14185538Y-13643579D02*
X14195062Y-13605484D01*
X14195062Y-13605484D02*
X14204586Y-13586436D01*
X14204586Y-13586436D02*
X14214110Y-13576913D01*
X14214110Y-13576913D02*
X14233157Y-13567389D01*
X14423634Y-13567389D02*
X14442681Y-13567389D01*
X14442681Y-13567389D02*
X14461729Y-13576913D01*
X14461729Y-13576913D02*
X14471253Y-13586436D01*
X14471253Y-13586436D02*
X14480777Y-13605484D01*
X14480777Y-13605484D02*
X14490300Y-13643579D01*
X14490300Y-13643579D02*
X14490300Y-13691198D01*
X14490300Y-13691198D02*
X14480777Y-13729293D01*
X14480777Y-13729293D02*
X14471253Y-13748341D01*
X14471253Y-13748341D02*
X14461729Y-13757865D01*
X14461729Y-13757865D02*
X14442681Y-13767389D01*
X14442681Y-13767389D02*
X14423634Y-13767389D01*
X14423634Y-13767389D02*
X14404586Y-13757865D01*
X14404586Y-13757865D02*
X14395062Y-13748341D01*
X14395062Y-13748341D02*
X14385538Y-13729293D01*
X14385538Y-13729293D02*
X14376015Y-13691198D01*
X14376015Y-13691198D02*
X14376015Y-13643579D01*
X14376015Y-13643579D02*
X14385538Y-13605484D01*
X14385538Y-13605484D02*
X14395062Y-13586436D01*
X14395062Y-13586436D02*
X14404586Y-13576913D01*
X14404586Y-13576913D02*
X14423634Y-13567389D01*
X14576015Y-13767389D02*
X14576015Y-13634055D01*
X14576015Y-13653103D02*
X14585538Y-13643579D01*
X14585538Y-13643579D02*
X14604586Y-13634055D01*
X14604586Y-13634055D02*
X14633158Y-13634055D01*
X14633158Y-13634055D02*
X14652205Y-13643579D01*
X14652205Y-13643579D02*
X14661729Y-13662627D01*
X14661729Y-13662627D02*
X14661729Y-13767389D01*
X14661729Y-13662627D02*
X14671253Y-13643579D01*
X14671253Y-13643579D02*
X14690300Y-13634055D01*
X14690300Y-13634055D02*
X14718872Y-13634055D01*
X14718872Y-13634055D02*
X14737919Y-13643579D01*
X14737919Y-13643579D02*
X14747443Y-13662627D01*
X14747443Y-13662627D02*
X14747443Y-13767389D01*
X14842681Y-13767389D02*
X14842681Y-13634055D01*
X14842681Y-13653103D02*
X14852205Y-13643579D01*
X14852205Y-13643579D02*
X14871253Y-13634055D01*
X14871253Y-13634055D02*
X14899824Y-13634055D01*
X14899824Y-13634055D02*
X14918872Y-13643579D01*
X14918872Y-13643579D02*
X14928396Y-13662627D01*
X14928396Y-13662627D02*
X14928396Y-13767389D01*
X14928396Y-13662627D02*
X14937919Y-13643579D01*
X14937919Y-13643579D02*
X14956967Y-13634055D01*
X14956967Y-13634055D02*
X14985538Y-13634055D01*
X14985538Y-13634055D02*
X15004586Y-13643579D01*
X15004586Y-13643579D02*
X15014110Y-13662627D01*
X15014110Y-13662627D02*
X15014110Y-13767389D01*
X15404586Y-13557865D02*
X15233158Y-13815008D01*
X15661729Y-13567389D02*
X15680777Y-13567389D01*
X15680777Y-13567389D02*
X15699824Y-13576913D01*
X15699824Y-13576913D02*
X15709348Y-13586436D01*
X15709348Y-13586436D02*
X15718872Y-13605484D01*
X15718872Y-13605484D02*
X15728396Y-13643579D01*
X15728396Y-13643579D02*
X15728396Y-13691198D01*
X15728396Y-13691198D02*
X15718872Y-13729293D01*
X15718872Y-13729293D02*
X15709348Y-13748341D01*
X15709348Y-13748341D02*
X15699824Y-13757865D01*
X15699824Y-13757865D02*
X15680777Y-13767389D01*
X15680777Y-13767389D02*
X15661729Y-13767389D01*
X15661729Y-13767389D02*
X15642681Y-13757865D01*
X15642681Y-13757865D02*
X15633158Y-13748341D01*
X15633158Y-13748341D02*
X15623634Y-13729293D01*
X15623634Y-13729293D02*
X15614110Y-13691198D01*
X15614110Y-13691198D02*
X15614110Y-13643579D01*
X15614110Y-13643579D02*
X15623634Y-13605484D01*
X15623634Y-13605484D02*
X15633158Y-13586436D01*
X15633158Y-13586436D02*
X15642681Y-13576913D01*
X15642681Y-13576913D02*
X15661729Y-13567389D01*
X15814110Y-13748341D02*
X15823634Y-13757865D01*
X15823634Y-13757865D02*
X15814110Y-13767389D01*
X15814110Y-13767389D02*
X15804586Y-13757865D01*
X15804586Y-13757865D02*
X15814110Y-13748341D01*
X15814110Y-13748341D02*
X15814110Y-13767389D01*
X15947443Y-13567389D02*
X15966491Y-13567389D01*
X15966491Y-13567389D02*
X15985539Y-13576913D01*
X15985539Y-13576913D02*
X15995062Y-13586436D01*
X15995062Y-13586436D02*
X16004586Y-13605484D01*
X16004586Y-13605484D02*
X16014110Y-13643579D01*
X16014110Y-13643579D02*
X16014110Y-13691198D01*
X16014110Y-13691198D02*
X16004586Y-13729293D01*
X16004586Y-13729293D02*
X15995062Y-13748341D01*
X15995062Y-13748341D02*
X15985539Y-13757865D01*
X15985539Y-13757865D02*
X15966491Y-13767389D01*
X15966491Y-13767389D02*
X15947443Y-13767389D01*
X15947443Y-13767389D02*
X15928396Y-13757865D01*
X15928396Y-13757865D02*
X15918872Y-13748341D01*
X15918872Y-13748341D02*
X15909348Y-13729293D01*
X15909348Y-13729293D02*
X15899824Y-13691198D01*
X15899824Y-13691198D02*
X15899824Y-13643579D01*
X15899824Y-13643579D02*
X15909348Y-13605484D01*
X15909348Y-13605484D02*
X15918872Y-13586436D01*
X15918872Y-13586436D02*
X15928396Y-13576913D01*
X15928396Y-13576913D02*
X15947443Y-13567389D01*
X16090301Y-13586436D02*
X16099824Y-13576913D01*
X16099824Y-13576913D02*
X16118872Y-13567389D01*
X16118872Y-13567389D02*
X16166491Y-13567389D01*
X16166491Y-13567389D02*
X16185539Y-13576913D01*
X16185539Y-13576913D02*
X16195062Y-13586436D01*
X16195062Y-13586436D02*
X16204586Y-13605484D01*
X16204586Y-13605484D02*
X16204586Y-13624532D01*
X16204586Y-13624532D02*
X16195062Y-13653103D01*
X16195062Y-13653103D02*
X16080777Y-13767389D01*
X16080777Y-13767389D02*
X16204586Y-13767389D01*
X16271253Y-13567389D02*
X16395062Y-13567389D01*
X16395062Y-13567389D02*
X16328396Y-13643579D01*
X16328396Y-13643579D02*
X16356967Y-13643579D01*
X16356967Y-13643579D02*
X16376015Y-13653103D01*
X16376015Y-13653103D02*
X16385539Y-13662627D01*
X16385539Y-13662627D02*
X16395062Y-13681674D01*
X16395062Y-13681674D02*
X16395062Y-13729293D01*
X16395062Y-13729293D02*
X16385539Y-13748341D01*
X16385539Y-13748341D02*
X16376015Y-13757865D01*
X16376015Y-13757865D02*
X16356967Y-13767389D01*
X16356967Y-13767389D02*
X16299824Y-13767389D01*
X16299824Y-13767389D02*
X16280777Y-13757865D01*
X16280777Y-13757865D02*
X16271253Y-13748341D01*
X16566491Y-13567389D02*
X16528396Y-13567389D01*
X16528396Y-13567389D02*
X16509348Y-13576913D01*
X16509348Y-13576913D02*
X16499824Y-13586436D01*
X16499824Y-13586436D02*
X16480777Y-13615008D01*
X16480777Y-13615008D02*
X16471253Y-13653103D01*
X16471253Y-13653103D02*
X16471253Y-13729293D01*
X16471253Y-13729293D02*
X16480777Y-13748341D01*
X16480777Y-13748341D02*
X16490301Y-13757865D01*
X16490301Y-13757865D02*
X16509348Y-13767389D01*
X16509348Y-13767389D02*
X16547443Y-13767389D01*
X16547443Y-13767389D02*
X16566491Y-13757865D01*
X16566491Y-13757865D02*
X16576015Y-13748341D01*
X16576015Y-13748341D02*
X16585539Y-13729293D01*
X16585539Y-13729293D02*
X16585539Y-13681674D01*
X16585539Y-13681674D02*
X16576015Y-13662627D01*
X16576015Y-13662627D02*
X16566491Y-13653103D01*
X16566491Y-13653103D02*
X16547443Y-13643579D01*
X16547443Y-13643579D02*
X16509348Y-13643579D01*
X16509348Y-13643579D02*
X16490301Y-13653103D01*
X16490301Y-13653103D02*
X16480777Y-13662627D01*
X16480777Y-13662627D02*
X16471253Y-13681674D01*
X16661729Y-13567389D02*
X16661729Y-13605484D01*
X16737920Y-13567389D02*
X16737920Y-13605484D01*
X17033158Y-13843579D02*
X17023634Y-13834055D01*
X17023634Y-13834055D02*
X17004586Y-13805484D01*
X17004586Y-13805484D02*
X16995063Y-13786436D01*
X16995063Y-13786436D02*
X16985539Y-13757865D01*
X16985539Y-13757865D02*
X16976015Y-13710246D01*
X16976015Y-13710246D02*
X16976015Y-13672151D01*
X16976015Y-13672151D02*
X16985539Y-13624532D01*
X16985539Y-13624532D02*
X16995063Y-13595960D01*
X16995063Y-13595960D02*
X17004586Y-13576913D01*
X17004586Y-13576913D02*
X17023634Y-13548341D01*
X17023634Y-13548341D02*
X17033158Y-13538817D01*
X17195063Y-13634055D02*
X17195063Y-13767389D01*
X17147444Y-13557865D02*
X17099825Y-13700722D01*
X17099825Y-13700722D02*
X17223634Y-13700722D01*
X17452206Y-13767389D02*
X17452206Y-13567389D01*
X17537920Y-13767389D02*
X17537920Y-13662627D01*
X17537920Y-13662627D02*
X17528396Y-13643579D01*
X17528396Y-13643579D02*
X17509348Y-13634055D01*
X17509348Y-13634055D02*
X17480777Y-13634055D01*
X17480777Y-13634055D02*
X17461729Y-13643579D01*
X17461729Y-13643579D02*
X17452206Y-13653103D01*
X17661729Y-13767389D02*
X17642682Y-13757865D01*
X17642682Y-13757865D02*
X17633158Y-13748341D01*
X17633158Y-13748341D02*
X17623634Y-13729293D01*
X17623634Y-13729293D02*
X17623634Y-13672151D01*
X17623634Y-13672151D02*
X17633158Y-13653103D01*
X17633158Y-13653103D02*
X17642682Y-13643579D01*
X17642682Y-13643579D02*
X17661729Y-13634055D01*
X17661729Y-13634055D02*
X17690301Y-13634055D01*
X17690301Y-13634055D02*
X17709348Y-13643579D01*
X17709348Y-13643579D02*
X17718872Y-13653103D01*
X17718872Y-13653103D02*
X17728396Y-13672151D01*
X17728396Y-13672151D02*
X17728396Y-13729293D01*
X17728396Y-13729293D02*
X17718872Y-13748341D01*
X17718872Y-13748341D02*
X17709348Y-13757865D01*
X17709348Y-13757865D02*
X17690301Y-13767389D01*
X17690301Y-13767389D02*
X17661729Y-13767389D01*
X17842682Y-13767389D02*
X17823634Y-13757865D01*
X17823634Y-13757865D02*
X17814110Y-13738817D01*
X17814110Y-13738817D02*
X17814110Y-13567389D01*
X17995063Y-13757865D02*
X17976015Y-13767389D01*
X17976015Y-13767389D02*
X17937920Y-13767389D01*
X17937920Y-13767389D02*
X17918872Y-13757865D01*
X17918872Y-13757865D02*
X17909348Y-13738817D01*
X17909348Y-13738817D02*
X17909348Y-13662627D01*
X17909348Y-13662627D02*
X17918872Y-13643579D01*
X17918872Y-13643579D02*
X17937920Y-13634055D01*
X17937920Y-13634055D02*
X17976015Y-13634055D01*
X17976015Y-13634055D02*
X17995063Y-13643579D01*
X17995063Y-13643579D02*
X18004587Y-13662627D01*
X18004587Y-13662627D02*
X18004587Y-13681674D01*
X18004587Y-13681674D02*
X17909348Y-13700722D01*
X18080777Y-13757865D02*
X18099825Y-13767389D01*
X18099825Y-13767389D02*
X18137920Y-13767389D01*
X18137920Y-13767389D02*
X18156968Y-13757865D01*
X18156968Y-13757865D02*
X18166491Y-13738817D01*
X18166491Y-13738817D02*
X18166491Y-13729293D01*
X18166491Y-13729293D02*
X18156968Y-13710246D01*
X18156968Y-13710246D02*
X18137920Y-13700722D01*
X18137920Y-13700722D02*
X18109348Y-13700722D01*
X18109348Y-13700722D02*
X18090301Y-13691198D01*
X18090301Y-13691198D02*
X18080777Y-13672151D01*
X18080777Y-13672151D02*
X18080777Y-13662627D01*
X18080777Y-13662627D02*
X18090301Y-13643579D01*
X18090301Y-13643579D02*
X18109348Y-13634055D01*
X18109348Y-13634055D02*
X18137920Y-13634055D01*
X18137920Y-13634055D02*
X18156968Y-13643579D01*
X18233158Y-13843579D02*
X18242682Y-13834055D01*
X18242682Y-13834055D02*
X18261729Y-13805484D01*
X18261729Y-13805484D02*
X18271253Y-13786436D01*
X18271253Y-13786436D02*
X18280777Y-13757865D01*
X18280777Y-13757865D02*
X18290301Y-13710246D01*
X18290301Y-13710246D02*
X18290301Y-13672151D01*
X18290301Y-13672151D02*
X18280777Y-13624532D01*
X18280777Y-13624532D02*
X18271253Y-13595960D01*
X18271253Y-13595960D02*
X18261729Y-13576913D01*
X18261729Y-13576913D02*
X18242682Y-13548341D01*
X18242682Y-13548341D02*
X18233158Y-13538817D01*
D12*
X13418095Y-13899905D02*
X13418095Y-13979905D01*
X13378095Y-13939905D02*
X13458095Y-13939905D01*
D13*
X13756967Y-13831389D02*
X13776015Y-13831389D01*
X13776015Y-13831389D02*
X13795062Y-13840913D01*
X13795062Y-13840913D02*
X13804586Y-13850436D01*
X13804586Y-13850436D02*
X13814110Y-13869484D01*
X13814110Y-13869484D02*
X13823634Y-13907579D01*
X13823634Y-13907579D02*
X13823634Y-13955198D01*
X13823634Y-13955198D02*
X13814110Y-13993293D01*
X13814110Y-13993293D02*
X13804586Y-14012341D01*
X13804586Y-14012341D02*
X13795062Y-14021865D01*
X13795062Y-14021865D02*
X13776015Y-14031389D01*
X13776015Y-14031389D02*
X13756967Y-14031389D01*
X13756967Y-14031389D02*
X13737919Y-14021865D01*
X13737919Y-14021865D02*
X13728396Y-14012341D01*
X13728396Y-14012341D02*
X13718872Y-13993293D01*
X13718872Y-13993293D02*
X13709348Y-13955198D01*
X13709348Y-13955198D02*
X13709348Y-13907579D01*
X13709348Y-13907579D02*
X13718872Y-13869484D01*
X13718872Y-13869484D02*
X13728396Y-13850436D01*
X13728396Y-13850436D02*
X13737919Y-13840913D01*
X13737919Y-13840913D02*
X13756967Y-13831389D01*
X13909348Y-14012341D02*
X13918872Y-14021865D01*
X13918872Y-14021865D02*
X13909348Y-14031389D01*
X13909348Y-14031389D02*
X13899824Y-14021865D01*
X13899824Y-14021865D02*
X13909348Y-14012341D01*
X13909348Y-14012341D02*
X13909348Y-14031389D01*
X14033157Y-13917103D02*
X14014110Y-13907579D01*
X14014110Y-13907579D02*
X14004586Y-13898055D01*
X14004586Y-13898055D02*
X13995062Y-13879008D01*
X13995062Y-13879008D02*
X13995062Y-13869484D01*
X13995062Y-13869484D02*
X14004586Y-13850436D01*
X14004586Y-13850436D02*
X14014110Y-13840913D01*
X14014110Y-13840913D02*
X14033157Y-13831389D01*
X14033157Y-13831389D02*
X14071253Y-13831389D01*
X14071253Y-13831389D02*
X14090300Y-13840913D01*
X14090300Y-13840913D02*
X14099824Y-13850436D01*
X14099824Y-13850436D02*
X14109348Y-13869484D01*
X14109348Y-13869484D02*
X14109348Y-13879008D01*
X14109348Y-13879008D02*
X14099824Y-13898055D01*
X14099824Y-13898055D02*
X14090300Y-13907579D01*
X14090300Y-13907579D02*
X14071253Y-13917103D01*
X14071253Y-13917103D02*
X14033157Y-13917103D01*
X14033157Y-13917103D02*
X14014110Y-13926627D01*
X14014110Y-13926627D02*
X14004586Y-13936151D01*
X14004586Y-13936151D02*
X13995062Y-13955198D01*
X13995062Y-13955198D02*
X13995062Y-13993293D01*
X13995062Y-13993293D02*
X14004586Y-14012341D01*
X14004586Y-14012341D02*
X14014110Y-14021865D01*
X14014110Y-14021865D02*
X14033157Y-14031389D01*
X14033157Y-14031389D02*
X14071253Y-14031389D01*
X14071253Y-14031389D02*
X14090300Y-14021865D01*
X14090300Y-14021865D02*
X14099824Y-14012341D01*
X14099824Y-14012341D02*
X14109348Y-13993293D01*
X14109348Y-13993293D02*
X14109348Y-13955198D01*
X14109348Y-13955198D02*
X14099824Y-13936151D01*
X14099824Y-13936151D02*
X14090300Y-13926627D01*
X14090300Y-13926627D02*
X14071253Y-13917103D01*
X14233157Y-13831389D02*
X14252205Y-13831389D01*
X14252205Y-13831389D02*
X14271253Y-13840913D01*
X14271253Y-13840913D02*
X14280777Y-13850436D01*
X14280777Y-13850436D02*
X14290300Y-13869484D01*
X14290300Y-13869484D02*
X14299824Y-13907579D01*
X14299824Y-13907579D02*
X14299824Y-13955198D01*
X14299824Y-13955198D02*
X14290300Y-13993293D01*
X14290300Y-13993293D02*
X14280777Y-14012341D01*
X14280777Y-14012341D02*
X14271253Y-14021865D01*
X14271253Y-14021865D02*
X14252205Y-14031389D01*
X14252205Y-14031389D02*
X14233157Y-14031389D01*
X14233157Y-14031389D02*
X14214110Y-14021865D01*
X14214110Y-14021865D02*
X14204586Y-14012341D01*
X14204586Y-14012341D02*
X14195062Y-13993293D01*
X14195062Y-13993293D02*
X14185538Y-13955198D01*
X14185538Y-13955198D02*
X14185538Y-13907579D01*
X14185538Y-13907579D02*
X14195062Y-13869484D01*
X14195062Y-13869484D02*
X14204586Y-13850436D01*
X14204586Y-13850436D02*
X14214110Y-13840913D01*
X14214110Y-13840913D02*
X14233157Y-13831389D01*
X14423634Y-13831389D02*
X14442681Y-13831389D01*
X14442681Y-13831389D02*
X14461729Y-13840913D01*
X14461729Y-13840913D02*
X14471253Y-13850436D01*
X14471253Y-13850436D02*
X14480777Y-13869484D01*
X14480777Y-13869484D02*
X14490300Y-13907579D01*
X14490300Y-13907579D02*
X14490300Y-13955198D01*
X14490300Y-13955198D02*
X14480777Y-13993293D01*
X14480777Y-13993293D02*
X14471253Y-14012341D01*
X14471253Y-14012341D02*
X14461729Y-14021865D01*
X14461729Y-14021865D02*
X14442681Y-14031389D01*
X14442681Y-14031389D02*
X14423634Y-14031389D01*
X14423634Y-14031389D02*
X14404586Y-14021865D01*
X14404586Y-14021865D02*
X14395062Y-14012341D01*
X14395062Y-14012341D02*
X14385538Y-13993293D01*
X14385538Y-13993293D02*
X14376015Y-13955198D01*
X14376015Y-13955198D02*
X14376015Y-13907579D01*
X14376015Y-13907579D02*
X14385538Y-13869484D01*
X14385538Y-13869484D02*
X14395062Y-13850436D01*
X14395062Y-13850436D02*
X14404586Y-13840913D01*
X14404586Y-13840913D02*
X14423634Y-13831389D01*
X14576015Y-14031389D02*
X14576015Y-13898055D01*
X14576015Y-13917103D02*
X14585538Y-13907579D01*
X14585538Y-13907579D02*
X14604586Y-13898055D01*
X14604586Y-13898055D02*
X14633158Y-13898055D01*
X14633158Y-13898055D02*
X14652205Y-13907579D01*
X14652205Y-13907579D02*
X14661729Y-13926627D01*
X14661729Y-13926627D02*
X14661729Y-14031389D01*
X14661729Y-13926627D02*
X14671253Y-13907579D01*
X14671253Y-13907579D02*
X14690300Y-13898055D01*
X14690300Y-13898055D02*
X14718872Y-13898055D01*
X14718872Y-13898055D02*
X14737919Y-13907579D01*
X14737919Y-13907579D02*
X14747443Y-13926627D01*
X14747443Y-13926627D02*
X14747443Y-14031389D01*
X14842681Y-14031389D02*
X14842681Y-13898055D01*
X14842681Y-13917103D02*
X14852205Y-13907579D01*
X14852205Y-13907579D02*
X14871253Y-13898055D01*
X14871253Y-13898055D02*
X14899824Y-13898055D01*
X14899824Y-13898055D02*
X14918872Y-13907579D01*
X14918872Y-13907579D02*
X14928396Y-13926627D01*
X14928396Y-13926627D02*
X14928396Y-14031389D01*
X14928396Y-13926627D02*
X14937919Y-13907579D01*
X14937919Y-13907579D02*
X14956967Y-13898055D01*
X14956967Y-13898055D02*
X14985538Y-13898055D01*
X14985538Y-13898055D02*
X15004586Y-13907579D01*
X15004586Y-13907579D02*
X15014110Y-13926627D01*
X15014110Y-13926627D02*
X15014110Y-14031389D01*
X15404586Y-13821865D02*
X15233158Y-14079008D01*
X15661729Y-13831389D02*
X15680777Y-13831389D01*
X15680777Y-13831389D02*
X15699824Y-13840913D01*
X15699824Y-13840913D02*
X15709348Y-13850436D01*
X15709348Y-13850436D02*
X15718872Y-13869484D01*
X15718872Y-13869484D02*
X15728396Y-13907579D01*
X15728396Y-13907579D02*
X15728396Y-13955198D01*
X15728396Y-13955198D02*
X15718872Y-13993293D01*
X15718872Y-13993293D02*
X15709348Y-14012341D01*
X15709348Y-14012341D02*
X15699824Y-14021865D01*
X15699824Y-14021865D02*
X15680777Y-14031389D01*
X15680777Y-14031389D02*
X15661729Y-14031389D01*
X15661729Y-14031389D02*
X15642681Y-14021865D01*
X15642681Y-14021865D02*
X15633158Y-14012341D01*
X15633158Y-14012341D02*
X15623634Y-13993293D01*
X15623634Y-13993293D02*
X15614110Y-13955198D01*
X15614110Y-13955198D02*
X15614110Y-13907579D01*
X15614110Y-13907579D02*
X15623634Y-13869484D01*
X15623634Y-13869484D02*
X15633158Y-13850436D01*
X15633158Y-13850436D02*
X15642681Y-13840913D01*
X15642681Y-13840913D02*
X15661729Y-13831389D01*
X15814110Y-14012341D02*
X15823634Y-14021865D01*
X15823634Y-14021865D02*
X15814110Y-14031389D01*
X15814110Y-14031389D02*
X15804586Y-14021865D01*
X15804586Y-14021865D02*
X15814110Y-14012341D01*
X15814110Y-14012341D02*
X15814110Y-14031389D01*
X15947443Y-13831389D02*
X15966491Y-13831389D01*
X15966491Y-13831389D02*
X15985539Y-13840913D01*
X15985539Y-13840913D02*
X15995062Y-13850436D01*
X15995062Y-13850436D02*
X16004586Y-13869484D01*
X16004586Y-13869484D02*
X16014110Y-13907579D01*
X16014110Y-13907579D02*
X16014110Y-13955198D01*
X16014110Y-13955198D02*
X16004586Y-13993293D01*
X16004586Y-13993293D02*
X15995062Y-14012341D01*
X15995062Y-14012341D02*
X15985539Y-14021865D01*
X15985539Y-14021865D02*
X15966491Y-14031389D01*
X15966491Y-14031389D02*
X15947443Y-14031389D01*
X15947443Y-14031389D02*
X15928396Y-14021865D01*
X15928396Y-14021865D02*
X15918872Y-14012341D01*
X15918872Y-14012341D02*
X15909348Y-13993293D01*
X15909348Y-13993293D02*
X15899824Y-13955198D01*
X15899824Y-13955198D02*
X15899824Y-13907579D01*
X15899824Y-13907579D02*
X15909348Y-13869484D01*
X15909348Y-13869484D02*
X15918872Y-13850436D01*
X15918872Y-13850436D02*
X15928396Y-13840913D01*
X15928396Y-13840913D02*
X15947443Y-13831389D01*
X16080777Y-13831389D02*
X16204586Y-13831389D01*
X16204586Y-13831389D02*
X16137920Y-13907579D01*
X16137920Y-13907579D02*
X16166491Y-13907579D01*
X16166491Y-13907579D02*
X16185539Y-13917103D01*
X16185539Y-13917103D02*
X16195062Y-13926627D01*
X16195062Y-13926627D02*
X16204586Y-13945674D01*
X16204586Y-13945674D02*
X16204586Y-13993293D01*
X16204586Y-13993293D02*
X16195062Y-14012341D01*
X16195062Y-14012341D02*
X16185539Y-14021865D01*
X16185539Y-14021865D02*
X16166491Y-14031389D01*
X16166491Y-14031389D02*
X16109348Y-14031389D01*
X16109348Y-14031389D02*
X16090301Y-14021865D01*
X16090301Y-14021865D02*
X16080777Y-14012341D01*
X16395062Y-14031389D02*
X16280777Y-14031389D01*
X16337920Y-14031389D02*
X16337920Y-13831389D01*
X16337920Y-13831389D02*
X16318872Y-13859960D01*
X16318872Y-13859960D02*
X16299824Y-13879008D01*
X16299824Y-13879008D02*
X16280777Y-13888532D01*
X16576015Y-13831389D02*
X16480777Y-13831389D01*
X16480777Y-13831389D02*
X16471253Y-13926627D01*
X16471253Y-13926627D02*
X16480777Y-13917103D01*
X16480777Y-13917103D02*
X16499824Y-13907579D01*
X16499824Y-13907579D02*
X16547443Y-13907579D01*
X16547443Y-13907579D02*
X16566491Y-13917103D01*
X16566491Y-13917103D02*
X16576015Y-13926627D01*
X16576015Y-13926627D02*
X16585539Y-13945674D01*
X16585539Y-13945674D02*
X16585539Y-13993293D01*
X16585539Y-13993293D02*
X16576015Y-14012341D01*
X16576015Y-14012341D02*
X16566491Y-14021865D01*
X16566491Y-14021865D02*
X16547443Y-14031389D01*
X16547443Y-14031389D02*
X16499824Y-14031389D01*
X16499824Y-14031389D02*
X16480777Y-14021865D01*
X16480777Y-14021865D02*
X16471253Y-14012341D01*
X16661729Y-13831389D02*
X16661729Y-13869484D01*
X16737920Y-13831389D02*
X16737920Y-13869484D01*
X17033158Y-14107579D02*
X17023634Y-14098055D01*
X17023634Y-14098055D02*
X17004586Y-14069484D01*
X17004586Y-14069484D02*
X16995063Y-14050436D01*
X16995063Y-14050436D02*
X16985539Y-14021865D01*
X16985539Y-14021865D02*
X16976015Y-13974246D01*
X16976015Y-13974246D02*
X16976015Y-13936151D01*
X16976015Y-13936151D02*
X16985539Y-13888532D01*
X16985539Y-13888532D02*
X16995063Y-13859960D01*
X16995063Y-13859960D02*
X17004586Y-13840913D01*
X17004586Y-13840913D02*
X17023634Y-13812341D01*
X17023634Y-13812341D02*
X17033158Y-13802817D01*
X17214110Y-14031389D02*
X17099825Y-14031389D01*
X17156967Y-14031389D02*
X17156967Y-13831389D01*
X17156967Y-13831389D02*
X17137920Y-13859960D01*
X17137920Y-13859960D02*
X17118872Y-13879008D01*
X17118872Y-13879008D02*
X17099825Y-13888532D01*
X17385539Y-13831389D02*
X17347444Y-13831389D01*
X17347444Y-13831389D02*
X17328396Y-13840913D01*
X17328396Y-13840913D02*
X17318872Y-13850436D01*
X17318872Y-13850436D02*
X17299825Y-13879008D01*
X17299825Y-13879008D02*
X17290301Y-13917103D01*
X17290301Y-13917103D02*
X17290301Y-13993293D01*
X17290301Y-13993293D02*
X17299825Y-14012341D01*
X17299825Y-14012341D02*
X17309348Y-14021865D01*
X17309348Y-14021865D02*
X17328396Y-14031389D01*
X17328396Y-14031389D02*
X17366491Y-14031389D01*
X17366491Y-14031389D02*
X17385539Y-14021865D01*
X17385539Y-14021865D02*
X17395063Y-14012341D01*
X17395063Y-14012341D02*
X17404586Y-13993293D01*
X17404586Y-13993293D02*
X17404586Y-13945674D01*
X17404586Y-13945674D02*
X17395063Y-13926627D01*
X17395063Y-13926627D02*
X17385539Y-13917103D01*
X17385539Y-13917103D02*
X17366491Y-13907579D01*
X17366491Y-13907579D02*
X17328396Y-13907579D01*
X17328396Y-13907579D02*
X17309348Y-13917103D01*
X17309348Y-13917103D02*
X17299825Y-13926627D01*
X17299825Y-13926627D02*
X17290301Y-13945674D01*
X17642682Y-14031389D02*
X17642682Y-13831389D01*
X17728396Y-14031389D02*
X17728396Y-13926627D01*
X17728396Y-13926627D02*
X17718872Y-13907579D01*
X17718872Y-13907579D02*
X17699825Y-13898055D01*
X17699825Y-13898055D02*
X17671253Y-13898055D01*
X17671253Y-13898055D02*
X17652206Y-13907579D01*
X17652206Y-13907579D02*
X17642682Y-13917103D01*
X17852206Y-14031389D02*
X17833158Y-14021865D01*
X17833158Y-14021865D02*
X17823634Y-14012341D01*
X17823634Y-14012341D02*
X17814110Y-13993293D01*
X17814110Y-13993293D02*
X17814110Y-13936151D01*
X17814110Y-13936151D02*
X17823634Y-13917103D01*
X17823634Y-13917103D02*
X17833158Y-13907579D01*
X17833158Y-13907579D02*
X17852206Y-13898055D01*
X17852206Y-13898055D02*
X17880777Y-13898055D01*
X17880777Y-13898055D02*
X17899825Y-13907579D01*
X17899825Y-13907579D02*
X17909348Y-13917103D01*
X17909348Y-13917103D02*
X17918872Y-13936151D01*
X17918872Y-13936151D02*
X17918872Y-13993293D01*
X17918872Y-13993293D02*
X17909348Y-14012341D01*
X17909348Y-14012341D02*
X17899825Y-14021865D01*
X17899825Y-14021865D02*
X17880777Y-14031389D01*
X17880777Y-14031389D02*
X17852206Y-14031389D01*
X18033158Y-14031389D02*
X18014110Y-14021865D01*
X18014110Y-14021865D02*
X18004587Y-14002817D01*
X18004587Y-14002817D02*
X18004587Y-13831389D01*
X18185539Y-14021865D02*
X18166491Y-14031389D01*
X18166491Y-14031389D02*
X18128396Y-14031389D01*
X18128396Y-14031389D02*
X18109348Y-14021865D01*
X18109348Y-14021865D02*
X18099825Y-14002817D01*
X18099825Y-14002817D02*
X18099825Y-13926627D01*
X18099825Y-13926627D02*
X18109348Y-13907579D01*
X18109348Y-13907579D02*
X18128396Y-13898055D01*
X18128396Y-13898055D02*
X18166491Y-13898055D01*
X18166491Y-13898055D02*
X18185539Y-13907579D01*
X18185539Y-13907579D02*
X18195063Y-13926627D01*
X18195063Y-13926627D02*
X18195063Y-13945674D01*
X18195063Y-13945674D02*
X18099825Y-13964722D01*
X18271253Y-14021865D02*
X18290301Y-14031389D01*
X18290301Y-14031389D02*
X18328396Y-14031389D01*
X18328396Y-14031389D02*
X18347444Y-14021865D01*
X18347444Y-14021865D02*
X18356968Y-14002817D01*
X18356968Y-14002817D02*
X18356968Y-13993293D01*
X18356968Y-13993293D02*
X18347444Y-13974246D01*
X18347444Y-13974246D02*
X18328396Y-13964722D01*
X18328396Y-13964722D02*
X18299825Y-13964722D01*
X18299825Y-13964722D02*
X18280777Y-13955198D01*
X18280777Y-13955198D02*
X18271253Y-13936151D01*
X18271253Y-13936151D02*
X18271253Y-13926627D01*
X18271253Y-13926627D02*
X18280777Y-13907579D01*
X18280777Y-13907579D02*
X18299825Y-13898055D01*
X18299825Y-13898055D02*
X18328396Y-13898055D01*
X18328396Y-13898055D02*
X18347444Y-13907579D01*
X18423634Y-14107579D02*
X18433158Y-14098055D01*
X18433158Y-14098055D02*
X18452206Y-14069484D01*
X18452206Y-14069484D02*
X18461729Y-14050436D01*
X18461729Y-14050436D02*
X18471253Y-14021865D01*
X18471253Y-14021865D02*
X18480777Y-13974246D01*
X18480777Y-13974246D02*
X18480777Y-13936151D01*
X18480777Y-13936151D02*
X18471253Y-13888532D01*
X18471253Y-13888532D02*
X18461729Y-13859960D01*
X18461729Y-13859960D02*
X18452206Y-13840913D01*
X18452206Y-13840913D02*
X18433158Y-13812341D01*
X18433158Y-13812341D02*
X18423634Y-13802817D01*
D12*
X13443597Y-14238907D02*
X13443597Y-14168903D01*
X13373593Y-14168903D01*
X13373593Y-14238907D01*
X13443597Y-14238907D01*
D13*
X13756967Y-14095389D02*
X13776015Y-14095389D01*
X13776015Y-14095389D02*
X13795062Y-14104913D01*
X13795062Y-14104913D02*
X13804586Y-14114436D01*
X13804586Y-14114436D02*
X13814110Y-14133484D01*
X13814110Y-14133484D02*
X13823634Y-14171579D01*
X13823634Y-14171579D02*
X13823634Y-14219198D01*
X13823634Y-14219198D02*
X13814110Y-14257293D01*
X13814110Y-14257293D02*
X13804586Y-14276341D01*
X13804586Y-14276341D02*
X13795062Y-14285865D01*
X13795062Y-14285865D02*
X13776015Y-14295389D01*
X13776015Y-14295389D02*
X13756967Y-14295389D01*
X13756967Y-14295389D02*
X13737919Y-14285865D01*
X13737919Y-14285865D02*
X13728396Y-14276341D01*
X13728396Y-14276341D02*
X13718872Y-14257293D01*
X13718872Y-14257293D02*
X13709348Y-14219198D01*
X13709348Y-14219198D02*
X13709348Y-14171579D01*
X13709348Y-14171579D02*
X13718872Y-14133484D01*
X13718872Y-14133484D02*
X13728396Y-14114436D01*
X13728396Y-14114436D02*
X13737919Y-14104913D01*
X13737919Y-14104913D02*
X13756967Y-14095389D01*
X13909348Y-14276341D02*
X13918872Y-14285865D01*
X13918872Y-14285865D02*
X13909348Y-14295389D01*
X13909348Y-14295389D02*
X13899824Y-14285865D01*
X13899824Y-14285865D02*
X13909348Y-14276341D01*
X13909348Y-14276341D02*
X13909348Y-14295389D01*
X14014110Y-14295389D02*
X14052205Y-14295389D01*
X14052205Y-14295389D02*
X14071253Y-14285865D01*
X14071253Y-14285865D02*
X14080777Y-14276341D01*
X14080777Y-14276341D02*
X14099824Y-14247770D01*
X14099824Y-14247770D02*
X14109348Y-14209674D01*
X14109348Y-14209674D02*
X14109348Y-14133484D01*
X14109348Y-14133484D02*
X14099824Y-14114436D01*
X14099824Y-14114436D02*
X14090300Y-14104913D01*
X14090300Y-14104913D02*
X14071253Y-14095389D01*
X14071253Y-14095389D02*
X14033157Y-14095389D01*
X14033157Y-14095389D02*
X14014110Y-14104913D01*
X14014110Y-14104913D02*
X14004586Y-14114436D01*
X14004586Y-14114436D02*
X13995062Y-14133484D01*
X13995062Y-14133484D02*
X13995062Y-14181103D01*
X13995062Y-14181103D02*
X14004586Y-14200151D01*
X14004586Y-14200151D02*
X14014110Y-14209674D01*
X14014110Y-14209674D02*
X14033157Y-14219198D01*
X14033157Y-14219198D02*
X14071253Y-14219198D01*
X14071253Y-14219198D02*
X14090300Y-14209674D01*
X14090300Y-14209674D02*
X14099824Y-14200151D01*
X14099824Y-14200151D02*
X14109348Y-14181103D01*
X14204586Y-14295389D02*
X14242681Y-14295389D01*
X14242681Y-14295389D02*
X14261729Y-14285865D01*
X14261729Y-14285865D02*
X14271253Y-14276341D01*
X14271253Y-14276341D02*
X14290300Y-14247770D01*
X14290300Y-14247770D02*
X14299824Y-14209674D01*
X14299824Y-14209674D02*
X14299824Y-14133484D01*
X14299824Y-14133484D02*
X14290300Y-14114436D01*
X14290300Y-14114436D02*
X14280777Y-14104913D01*
X14280777Y-14104913D02*
X14261729Y-14095389D01*
X14261729Y-14095389D02*
X14223634Y-14095389D01*
X14223634Y-14095389D02*
X14204586Y-14104913D01*
X14204586Y-14104913D02*
X14195062Y-14114436D01*
X14195062Y-14114436D02*
X14185538Y-14133484D01*
X14185538Y-14133484D02*
X14185538Y-14181103D01*
X14185538Y-14181103D02*
X14195062Y-14200151D01*
X14195062Y-14200151D02*
X14204586Y-14209674D01*
X14204586Y-14209674D02*
X14223634Y-14219198D01*
X14223634Y-14219198D02*
X14261729Y-14219198D01*
X14261729Y-14219198D02*
X14280777Y-14209674D01*
X14280777Y-14209674D02*
X14290300Y-14200151D01*
X14290300Y-14200151D02*
X14299824Y-14181103D01*
X14423634Y-14095389D02*
X14442681Y-14095389D01*
X14442681Y-14095389D02*
X14461729Y-14104913D01*
X14461729Y-14104913D02*
X14471253Y-14114436D01*
X14471253Y-14114436D02*
X14480777Y-14133484D01*
X14480777Y-14133484D02*
X14490300Y-14171579D01*
X14490300Y-14171579D02*
X14490300Y-14219198D01*
X14490300Y-14219198D02*
X14480777Y-14257293D01*
X14480777Y-14257293D02*
X14471253Y-14276341D01*
X14471253Y-14276341D02*
X14461729Y-14285865D01*
X14461729Y-14285865D02*
X14442681Y-14295389D01*
X14442681Y-14295389D02*
X14423634Y-14295389D01*
X14423634Y-14295389D02*
X14404586Y-14285865D01*
X14404586Y-14285865D02*
X14395062Y-14276341D01*
X14395062Y-14276341D02*
X14385538Y-14257293D01*
X14385538Y-14257293D02*
X14376015Y-14219198D01*
X14376015Y-14219198D02*
X14376015Y-14171579D01*
X14376015Y-14171579D02*
X14385538Y-14133484D01*
X14385538Y-14133484D02*
X14395062Y-14114436D01*
X14395062Y-14114436D02*
X14404586Y-14104913D01*
X14404586Y-14104913D02*
X14423634Y-14095389D01*
X14576015Y-14295389D02*
X14576015Y-14162055D01*
X14576015Y-14181103D02*
X14585538Y-14171579D01*
X14585538Y-14171579D02*
X14604586Y-14162055D01*
X14604586Y-14162055D02*
X14633158Y-14162055D01*
X14633158Y-14162055D02*
X14652205Y-14171579D01*
X14652205Y-14171579D02*
X14661729Y-14190627D01*
X14661729Y-14190627D02*
X14661729Y-14295389D01*
X14661729Y-14190627D02*
X14671253Y-14171579D01*
X14671253Y-14171579D02*
X14690300Y-14162055D01*
X14690300Y-14162055D02*
X14718872Y-14162055D01*
X14718872Y-14162055D02*
X14737919Y-14171579D01*
X14737919Y-14171579D02*
X14747443Y-14190627D01*
X14747443Y-14190627D02*
X14747443Y-14295389D01*
X14842681Y-14295389D02*
X14842681Y-14162055D01*
X14842681Y-14181103D02*
X14852205Y-14171579D01*
X14852205Y-14171579D02*
X14871253Y-14162055D01*
X14871253Y-14162055D02*
X14899824Y-14162055D01*
X14899824Y-14162055D02*
X14918872Y-14171579D01*
X14918872Y-14171579D02*
X14928396Y-14190627D01*
X14928396Y-14190627D02*
X14928396Y-14295389D01*
X14928396Y-14190627D02*
X14937919Y-14171579D01*
X14937919Y-14171579D02*
X14956967Y-14162055D01*
X14956967Y-14162055D02*
X14985538Y-14162055D01*
X14985538Y-14162055D02*
X15004586Y-14171579D01*
X15004586Y-14171579D02*
X15014110Y-14190627D01*
X15014110Y-14190627D02*
X15014110Y-14295389D01*
X15404586Y-14085865D02*
X15233158Y-14343008D01*
X15661729Y-14095389D02*
X15680777Y-14095389D01*
X15680777Y-14095389D02*
X15699824Y-14104913D01*
X15699824Y-14104913D02*
X15709348Y-14114436D01*
X15709348Y-14114436D02*
X15718872Y-14133484D01*
X15718872Y-14133484D02*
X15728396Y-14171579D01*
X15728396Y-14171579D02*
X15728396Y-14219198D01*
X15728396Y-14219198D02*
X15718872Y-14257293D01*
X15718872Y-14257293D02*
X15709348Y-14276341D01*
X15709348Y-14276341D02*
X15699824Y-14285865D01*
X15699824Y-14285865D02*
X15680777Y-14295389D01*
X15680777Y-14295389D02*
X15661729Y-14295389D01*
X15661729Y-14295389D02*
X15642681Y-14285865D01*
X15642681Y-14285865D02*
X15633158Y-14276341D01*
X15633158Y-14276341D02*
X15623634Y-14257293D01*
X15623634Y-14257293D02*
X15614110Y-14219198D01*
X15614110Y-14219198D02*
X15614110Y-14171579D01*
X15614110Y-14171579D02*
X15623634Y-14133484D01*
X15623634Y-14133484D02*
X15633158Y-14114436D01*
X15633158Y-14114436D02*
X15642681Y-14104913D01*
X15642681Y-14104913D02*
X15661729Y-14095389D01*
X15814110Y-14276341D02*
X15823634Y-14285865D01*
X15823634Y-14285865D02*
X15814110Y-14295389D01*
X15814110Y-14295389D02*
X15804586Y-14285865D01*
X15804586Y-14285865D02*
X15814110Y-14276341D01*
X15814110Y-14276341D02*
X15814110Y-14295389D01*
X15947443Y-14095389D02*
X15966491Y-14095389D01*
X15966491Y-14095389D02*
X15985539Y-14104913D01*
X15985539Y-14104913D02*
X15995062Y-14114436D01*
X15995062Y-14114436D02*
X16004586Y-14133484D01*
X16004586Y-14133484D02*
X16014110Y-14171579D01*
X16014110Y-14171579D02*
X16014110Y-14219198D01*
X16014110Y-14219198D02*
X16004586Y-14257293D01*
X16004586Y-14257293D02*
X15995062Y-14276341D01*
X15995062Y-14276341D02*
X15985539Y-14285865D01*
X15985539Y-14285865D02*
X15966491Y-14295389D01*
X15966491Y-14295389D02*
X15947443Y-14295389D01*
X15947443Y-14295389D02*
X15928396Y-14285865D01*
X15928396Y-14285865D02*
X15918872Y-14276341D01*
X15918872Y-14276341D02*
X15909348Y-14257293D01*
X15909348Y-14257293D02*
X15899824Y-14219198D01*
X15899824Y-14219198D02*
X15899824Y-14171579D01*
X15899824Y-14171579D02*
X15909348Y-14133484D01*
X15909348Y-14133484D02*
X15918872Y-14114436D01*
X15918872Y-14114436D02*
X15928396Y-14104913D01*
X15928396Y-14104913D02*
X15947443Y-14095389D01*
X16080777Y-14095389D02*
X16204586Y-14095389D01*
X16204586Y-14095389D02*
X16137920Y-14171579D01*
X16137920Y-14171579D02*
X16166491Y-14171579D01*
X16166491Y-14171579D02*
X16185539Y-14181103D01*
X16185539Y-14181103D02*
X16195062Y-14190627D01*
X16195062Y-14190627D02*
X16204586Y-14209674D01*
X16204586Y-14209674D02*
X16204586Y-14257293D01*
X16204586Y-14257293D02*
X16195062Y-14276341D01*
X16195062Y-14276341D02*
X16185539Y-14285865D01*
X16185539Y-14285865D02*
X16166491Y-14295389D01*
X16166491Y-14295389D02*
X16109348Y-14295389D01*
X16109348Y-14295389D02*
X16090301Y-14285865D01*
X16090301Y-14285865D02*
X16080777Y-14276341D01*
X16299824Y-14295389D02*
X16337920Y-14295389D01*
X16337920Y-14295389D02*
X16356967Y-14285865D01*
X16356967Y-14285865D02*
X16366491Y-14276341D01*
X16366491Y-14276341D02*
X16385539Y-14247770D01*
X16385539Y-14247770D02*
X16395062Y-14209674D01*
X16395062Y-14209674D02*
X16395062Y-14133484D01*
X16395062Y-14133484D02*
X16385539Y-14114436D01*
X16385539Y-14114436D02*
X16376015Y-14104913D01*
X16376015Y-14104913D02*
X16356967Y-14095389D01*
X16356967Y-14095389D02*
X16318872Y-14095389D01*
X16318872Y-14095389D02*
X16299824Y-14104913D01*
X16299824Y-14104913D02*
X16290301Y-14114436D01*
X16290301Y-14114436D02*
X16280777Y-14133484D01*
X16280777Y-14133484D02*
X16280777Y-14181103D01*
X16280777Y-14181103D02*
X16290301Y-14200151D01*
X16290301Y-14200151D02*
X16299824Y-14209674D01*
X16299824Y-14209674D02*
X16318872Y-14219198D01*
X16318872Y-14219198D02*
X16356967Y-14219198D01*
X16356967Y-14219198D02*
X16376015Y-14209674D01*
X16376015Y-14209674D02*
X16385539Y-14200151D01*
X16385539Y-14200151D02*
X16395062Y-14181103D01*
X16518872Y-14095389D02*
X16537920Y-14095389D01*
X16537920Y-14095389D02*
X16556967Y-14104913D01*
X16556967Y-14104913D02*
X16566491Y-14114436D01*
X16566491Y-14114436D02*
X16576015Y-14133484D01*
X16576015Y-14133484D02*
X16585539Y-14171579D01*
X16585539Y-14171579D02*
X16585539Y-14219198D01*
X16585539Y-14219198D02*
X16576015Y-14257293D01*
X16576015Y-14257293D02*
X16566491Y-14276341D01*
X16566491Y-14276341D02*
X16556967Y-14285865D01*
X16556967Y-14285865D02*
X16537920Y-14295389D01*
X16537920Y-14295389D02*
X16518872Y-14295389D01*
X16518872Y-14295389D02*
X16499824Y-14285865D01*
X16499824Y-14285865D02*
X16490301Y-14276341D01*
X16490301Y-14276341D02*
X16480777Y-14257293D01*
X16480777Y-14257293D02*
X16471253Y-14219198D01*
X16471253Y-14219198D02*
X16471253Y-14171579D01*
X16471253Y-14171579D02*
X16480777Y-14133484D01*
X16480777Y-14133484D02*
X16490301Y-14114436D01*
X16490301Y-14114436D02*
X16499824Y-14104913D01*
X16499824Y-14104913D02*
X16518872Y-14095389D01*
X16661729Y-14095389D02*
X16661729Y-14133484D01*
X16737920Y-14095389D02*
X16737920Y-14133484D01*
X17033158Y-14371579D02*
X17023634Y-14362055D01*
X17023634Y-14362055D02*
X17004586Y-14333484D01*
X17004586Y-14333484D02*
X16995063Y-14314436D01*
X16995063Y-14314436D02*
X16985539Y-14285865D01*
X16985539Y-14285865D02*
X16976015Y-14238246D01*
X16976015Y-14238246D02*
X16976015Y-14200151D01*
X16976015Y-14200151D02*
X16985539Y-14152532D01*
X16985539Y-14152532D02*
X16995063Y-14123960D01*
X16995063Y-14123960D02*
X17004586Y-14104913D01*
X17004586Y-14104913D02*
X17023634Y-14076341D01*
X17023634Y-14076341D02*
X17033158Y-14066817D01*
X17090301Y-14095389D02*
X17214110Y-14095389D01*
X17214110Y-14095389D02*
X17147444Y-14171579D01*
X17147444Y-14171579D02*
X17176015Y-14171579D01*
X17176015Y-14171579D02*
X17195063Y-14181103D01*
X17195063Y-14181103D02*
X17204586Y-14190627D01*
X17204586Y-14190627D02*
X17214110Y-14209674D01*
X17214110Y-14209674D02*
X17214110Y-14257293D01*
X17214110Y-14257293D02*
X17204586Y-14276341D01*
X17204586Y-14276341D02*
X17195063Y-14285865D01*
X17195063Y-14285865D02*
X17176015Y-14295389D01*
X17176015Y-14295389D02*
X17118872Y-14295389D01*
X17118872Y-14295389D02*
X17099825Y-14285865D01*
X17099825Y-14285865D02*
X17090301Y-14276341D01*
X17452206Y-14295389D02*
X17452206Y-14095389D01*
X17537920Y-14295389D02*
X17537920Y-14190627D01*
X17537920Y-14190627D02*
X17528396Y-14171579D01*
X17528396Y-14171579D02*
X17509348Y-14162055D01*
X17509348Y-14162055D02*
X17480777Y-14162055D01*
X17480777Y-14162055D02*
X17461729Y-14171579D01*
X17461729Y-14171579D02*
X17452206Y-14181103D01*
X17661729Y-14295389D02*
X17642682Y-14285865D01*
X17642682Y-14285865D02*
X17633158Y-14276341D01*
X17633158Y-14276341D02*
X17623634Y-14257293D01*
X17623634Y-14257293D02*
X17623634Y-14200151D01*
X17623634Y-14200151D02*
X17633158Y-14181103D01*
X17633158Y-14181103D02*
X17642682Y-14171579D01*
X17642682Y-14171579D02*
X17661729Y-14162055D01*
X17661729Y-14162055D02*
X17690301Y-14162055D01*
X17690301Y-14162055D02*
X17709348Y-14171579D01*
X17709348Y-14171579D02*
X17718872Y-14181103D01*
X17718872Y-14181103D02*
X17728396Y-14200151D01*
X17728396Y-14200151D02*
X17728396Y-14257293D01*
X17728396Y-14257293D02*
X17718872Y-14276341D01*
X17718872Y-14276341D02*
X17709348Y-14285865D01*
X17709348Y-14285865D02*
X17690301Y-14295389D01*
X17690301Y-14295389D02*
X17661729Y-14295389D01*
X17842682Y-14295389D02*
X17823634Y-14285865D01*
X17823634Y-14285865D02*
X17814110Y-14266817D01*
X17814110Y-14266817D02*
X17814110Y-14095389D01*
X17995063Y-14285865D02*
X17976015Y-14295389D01*
X17976015Y-14295389D02*
X17937920Y-14295389D01*
X17937920Y-14295389D02*
X17918872Y-14285865D01*
X17918872Y-14285865D02*
X17909348Y-14266817D01*
X17909348Y-14266817D02*
X17909348Y-14190627D01*
X17909348Y-14190627D02*
X17918872Y-14171579D01*
X17918872Y-14171579D02*
X17937920Y-14162055D01*
X17937920Y-14162055D02*
X17976015Y-14162055D01*
X17976015Y-14162055D02*
X17995063Y-14171579D01*
X17995063Y-14171579D02*
X18004587Y-14190627D01*
X18004587Y-14190627D02*
X18004587Y-14209674D01*
X18004587Y-14209674D02*
X17909348Y-14228722D01*
X18080777Y-14285865D02*
X18099825Y-14295389D01*
X18099825Y-14295389D02*
X18137920Y-14295389D01*
X18137920Y-14295389D02*
X18156968Y-14285865D01*
X18156968Y-14285865D02*
X18166491Y-14266817D01*
X18166491Y-14266817D02*
X18166491Y-14257293D01*
X18166491Y-14257293D02*
X18156968Y-14238246D01*
X18156968Y-14238246D02*
X18137920Y-14228722D01*
X18137920Y-14228722D02*
X18109348Y-14228722D01*
X18109348Y-14228722D02*
X18090301Y-14219198D01*
X18090301Y-14219198D02*
X18080777Y-14200151D01*
X18080777Y-14200151D02*
X18080777Y-14190627D01*
X18080777Y-14190627D02*
X18090301Y-14171579D01*
X18090301Y-14171579D02*
X18109348Y-14162055D01*
X18109348Y-14162055D02*
X18137920Y-14162055D01*
X18137920Y-14162055D02*
X18156968Y-14171579D01*
X18233158Y-14371579D02*
X18242682Y-14362055D01*
X18242682Y-14362055D02*
X18261729Y-14333484D01*
X18261729Y-14333484D02*
X18271253Y-14314436D01*
X18271253Y-14314436D02*
X18280777Y-14285865D01*
X18280777Y-14285865D02*
X18290301Y-14238246D01*
X18290301Y-14238246D02*
X18290301Y-14200151D01*
X18290301Y-14200151D02*
X18280777Y-14152532D01*
X18280777Y-14152532D02*
X18271253Y-14123960D01*
X18271253Y-14123960D02*
X18261729Y-14104913D01*
X18261729Y-14104913D02*
X18242682Y-14076341D01*
X18242682Y-14076341D02*
X18233158Y-14066817D01*
D12*
X13408095Y-14517905D02*
X13458095Y-14467905D01*
X13408095Y-14417905D01*
X13358095Y-14467905D01*
X13408095Y-14517905D01*
D13*
X13823634Y-14559389D02*
X13709348Y-14559389D01*
X13766491Y-14559389D02*
X13766491Y-14359389D01*
X13766491Y-14359389D02*
X13747443Y-14387960D01*
X13747443Y-14387960D02*
X13728396Y-14407008D01*
X13728396Y-14407008D02*
X13709348Y-14416532D01*
X13909348Y-14540341D02*
X13918872Y-14549865D01*
X13918872Y-14549865D02*
X13909348Y-14559389D01*
X13909348Y-14559389D02*
X13899824Y-14549865D01*
X13899824Y-14549865D02*
X13909348Y-14540341D01*
X13909348Y-14540341D02*
X13909348Y-14559389D01*
X14042681Y-14359389D02*
X14061729Y-14359389D01*
X14061729Y-14359389D02*
X14080777Y-14368913D01*
X14080777Y-14368913D02*
X14090300Y-14378436D01*
X14090300Y-14378436D02*
X14099824Y-14397484D01*
X14099824Y-14397484D02*
X14109348Y-14435579D01*
X14109348Y-14435579D02*
X14109348Y-14483198D01*
X14109348Y-14483198D02*
X14099824Y-14521293D01*
X14099824Y-14521293D02*
X14090300Y-14540341D01*
X14090300Y-14540341D02*
X14080777Y-14549865D01*
X14080777Y-14549865D02*
X14061729Y-14559389D01*
X14061729Y-14559389D02*
X14042681Y-14559389D01*
X14042681Y-14559389D02*
X14023634Y-14549865D01*
X14023634Y-14549865D02*
X14014110Y-14540341D01*
X14014110Y-14540341D02*
X14004586Y-14521293D01*
X14004586Y-14521293D02*
X13995062Y-14483198D01*
X13995062Y-14483198D02*
X13995062Y-14435579D01*
X13995062Y-14435579D02*
X14004586Y-14397484D01*
X14004586Y-14397484D02*
X14014110Y-14378436D01*
X14014110Y-14378436D02*
X14023634Y-14368913D01*
X14023634Y-14368913D02*
X14042681Y-14359389D01*
X14233157Y-14359389D02*
X14252205Y-14359389D01*
X14252205Y-14359389D02*
X14271253Y-14368913D01*
X14271253Y-14368913D02*
X14280777Y-14378436D01*
X14280777Y-14378436D02*
X14290300Y-14397484D01*
X14290300Y-14397484D02*
X14299824Y-14435579D01*
X14299824Y-14435579D02*
X14299824Y-14483198D01*
X14299824Y-14483198D02*
X14290300Y-14521293D01*
X14290300Y-14521293D02*
X14280777Y-14540341D01*
X14280777Y-14540341D02*
X14271253Y-14549865D01*
X14271253Y-14549865D02*
X14252205Y-14559389D01*
X14252205Y-14559389D02*
X14233157Y-14559389D01*
X14233157Y-14559389D02*
X14214110Y-14549865D01*
X14214110Y-14549865D02*
X14204586Y-14540341D01*
X14204586Y-14540341D02*
X14195062Y-14521293D01*
X14195062Y-14521293D02*
X14185538Y-14483198D01*
X14185538Y-14483198D02*
X14185538Y-14435579D01*
X14185538Y-14435579D02*
X14195062Y-14397484D01*
X14195062Y-14397484D02*
X14204586Y-14378436D01*
X14204586Y-14378436D02*
X14214110Y-14368913D01*
X14214110Y-14368913D02*
X14233157Y-14359389D01*
X14423634Y-14359389D02*
X14442681Y-14359389D01*
X14442681Y-14359389D02*
X14461729Y-14368913D01*
X14461729Y-14368913D02*
X14471253Y-14378436D01*
X14471253Y-14378436D02*
X14480777Y-14397484D01*
X14480777Y-14397484D02*
X14490300Y-14435579D01*
X14490300Y-14435579D02*
X14490300Y-14483198D01*
X14490300Y-14483198D02*
X14480777Y-14521293D01*
X14480777Y-14521293D02*
X14471253Y-14540341D01*
X14471253Y-14540341D02*
X14461729Y-14549865D01*
X14461729Y-14549865D02*
X14442681Y-14559389D01*
X14442681Y-14559389D02*
X14423634Y-14559389D01*
X14423634Y-14559389D02*
X14404586Y-14549865D01*
X14404586Y-14549865D02*
X14395062Y-14540341D01*
X14395062Y-14540341D02*
X14385538Y-14521293D01*
X14385538Y-14521293D02*
X14376015Y-14483198D01*
X14376015Y-14483198D02*
X14376015Y-14435579D01*
X14376015Y-14435579D02*
X14385538Y-14397484D01*
X14385538Y-14397484D02*
X14395062Y-14378436D01*
X14395062Y-14378436D02*
X14404586Y-14368913D01*
X14404586Y-14368913D02*
X14423634Y-14359389D01*
X14576015Y-14559389D02*
X14576015Y-14426055D01*
X14576015Y-14445103D02*
X14585538Y-14435579D01*
X14585538Y-14435579D02*
X14604586Y-14426055D01*
X14604586Y-14426055D02*
X14633158Y-14426055D01*
X14633158Y-14426055D02*
X14652205Y-14435579D01*
X14652205Y-14435579D02*
X14661729Y-14454627D01*
X14661729Y-14454627D02*
X14661729Y-14559389D01*
X14661729Y-14454627D02*
X14671253Y-14435579D01*
X14671253Y-14435579D02*
X14690300Y-14426055D01*
X14690300Y-14426055D02*
X14718872Y-14426055D01*
X14718872Y-14426055D02*
X14737919Y-14435579D01*
X14737919Y-14435579D02*
X14747443Y-14454627D01*
X14747443Y-14454627D02*
X14747443Y-14559389D01*
X14842681Y-14559389D02*
X14842681Y-14426055D01*
X14842681Y-14445103D02*
X14852205Y-14435579D01*
X14852205Y-14435579D02*
X14871253Y-14426055D01*
X14871253Y-14426055D02*
X14899824Y-14426055D01*
X14899824Y-14426055D02*
X14918872Y-14435579D01*
X14918872Y-14435579D02*
X14928396Y-14454627D01*
X14928396Y-14454627D02*
X14928396Y-14559389D01*
X14928396Y-14454627D02*
X14937919Y-14435579D01*
X14937919Y-14435579D02*
X14956967Y-14426055D01*
X14956967Y-14426055D02*
X14985538Y-14426055D01*
X14985538Y-14426055D02*
X15004586Y-14435579D01*
X15004586Y-14435579D02*
X15014110Y-14454627D01*
X15014110Y-14454627D02*
X15014110Y-14559389D01*
X15404586Y-14349865D02*
X15233158Y-14607008D01*
X15661729Y-14359389D02*
X15680777Y-14359389D01*
X15680777Y-14359389D02*
X15699824Y-14368913D01*
X15699824Y-14368913D02*
X15709348Y-14378436D01*
X15709348Y-14378436D02*
X15718872Y-14397484D01*
X15718872Y-14397484D02*
X15728396Y-14435579D01*
X15728396Y-14435579D02*
X15728396Y-14483198D01*
X15728396Y-14483198D02*
X15718872Y-14521293D01*
X15718872Y-14521293D02*
X15709348Y-14540341D01*
X15709348Y-14540341D02*
X15699824Y-14549865D01*
X15699824Y-14549865D02*
X15680777Y-14559389D01*
X15680777Y-14559389D02*
X15661729Y-14559389D01*
X15661729Y-14559389D02*
X15642681Y-14549865D01*
X15642681Y-14549865D02*
X15633158Y-14540341D01*
X15633158Y-14540341D02*
X15623634Y-14521293D01*
X15623634Y-14521293D02*
X15614110Y-14483198D01*
X15614110Y-14483198D02*
X15614110Y-14435579D01*
X15614110Y-14435579D02*
X15623634Y-14397484D01*
X15623634Y-14397484D02*
X15633158Y-14378436D01*
X15633158Y-14378436D02*
X15642681Y-14368913D01*
X15642681Y-14368913D02*
X15661729Y-14359389D01*
X15814110Y-14540341D02*
X15823634Y-14549865D01*
X15823634Y-14549865D02*
X15814110Y-14559389D01*
X15814110Y-14559389D02*
X15804586Y-14549865D01*
X15804586Y-14549865D02*
X15814110Y-14540341D01*
X15814110Y-14540341D02*
X15814110Y-14559389D01*
X15947443Y-14359389D02*
X15966491Y-14359389D01*
X15966491Y-14359389D02*
X15985539Y-14368913D01*
X15985539Y-14368913D02*
X15995062Y-14378436D01*
X15995062Y-14378436D02*
X16004586Y-14397484D01*
X16004586Y-14397484D02*
X16014110Y-14435579D01*
X16014110Y-14435579D02*
X16014110Y-14483198D01*
X16014110Y-14483198D02*
X16004586Y-14521293D01*
X16004586Y-14521293D02*
X15995062Y-14540341D01*
X15995062Y-14540341D02*
X15985539Y-14549865D01*
X15985539Y-14549865D02*
X15966491Y-14559389D01*
X15966491Y-14559389D02*
X15947443Y-14559389D01*
X15947443Y-14559389D02*
X15928396Y-14549865D01*
X15928396Y-14549865D02*
X15918872Y-14540341D01*
X15918872Y-14540341D02*
X15909348Y-14521293D01*
X15909348Y-14521293D02*
X15899824Y-14483198D01*
X15899824Y-14483198D02*
X15899824Y-14435579D01*
X15899824Y-14435579D02*
X15909348Y-14397484D01*
X15909348Y-14397484D02*
X15918872Y-14378436D01*
X15918872Y-14378436D02*
X15928396Y-14368913D01*
X15928396Y-14368913D02*
X15947443Y-14359389D01*
X16080777Y-14359389D02*
X16204586Y-14359389D01*
X16204586Y-14359389D02*
X16137920Y-14435579D01*
X16137920Y-14435579D02*
X16166491Y-14435579D01*
X16166491Y-14435579D02*
X16185539Y-14445103D01*
X16185539Y-14445103D02*
X16195062Y-14454627D01*
X16195062Y-14454627D02*
X16204586Y-14473674D01*
X16204586Y-14473674D02*
X16204586Y-14521293D01*
X16204586Y-14521293D02*
X16195062Y-14540341D01*
X16195062Y-14540341D02*
X16185539Y-14549865D01*
X16185539Y-14549865D02*
X16166491Y-14559389D01*
X16166491Y-14559389D02*
X16109348Y-14559389D01*
X16109348Y-14559389D02*
X16090301Y-14549865D01*
X16090301Y-14549865D02*
X16080777Y-14540341D01*
X16299824Y-14559389D02*
X16337920Y-14559389D01*
X16337920Y-14559389D02*
X16356967Y-14549865D01*
X16356967Y-14549865D02*
X16366491Y-14540341D01*
X16366491Y-14540341D02*
X16385539Y-14511770D01*
X16385539Y-14511770D02*
X16395062Y-14473674D01*
X16395062Y-14473674D02*
X16395062Y-14397484D01*
X16395062Y-14397484D02*
X16385539Y-14378436D01*
X16385539Y-14378436D02*
X16376015Y-14368913D01*
X16376015Y-14368913D02*
X16356967Y-14359389D01*
X16356967Y-14359389D02*
X16318872Y-14359389D01*
X16318872Y-14359389D02*
X16299824Y-14368913D01*
X16299824Y-14368913D02*
X16290301Y-14378436D01*
X16290301Y-14378436D02*
X16280777Y-14397484D01*
X16280777Y-14397484D02*
X16280777Y-14445103D01*
X16280777Y-14445103D02*
X16290301Y-14464151D01*
X16290301Y-14464151D02*
X16299824Y-14473674D01*
X16299824Y-14473674D02*
X16318872Y-14483198D01*
X16318872Y-14483198D02*
X16356967Y-14483198D01*
X16356967Y-14483198D02*
X16376015Y-14473674D01*
X16376015Y-14473674D02*
X16385539Y-14464151D01*
X16385539Y-14464151D02*
X16395062Y-14445103D01*
X16566491Y-14426055D02*
X16566491Y-14559389D01*
X16518872Y-14349865D02*
X16471253Y-14492722D01*
X16471253Y-14492722D02*
X16595062Y-14492722D01*
X16661729Y-14359389D02*
X16661729Y-14397484D01*
X16737920Y-14359389D02*
X16737920Y-14397484D01*
X17033158Y-14635579D02*
X17023634Y-14626055D01*
X17023634Y-14626055D02*
X17004586Y-14597484D01*
X17004586Y-14597484D02*
X16995063Y-14578436D01*
X16995063Y-14578436D02*
X16985539Y-14549865D01*
X16985539Y-14549865D02*
X16976015Y-14502246D01*
X16976015Y-14502246D02*
X16976015Y-14464151D01*
X16976015Y-14464151D02*
X16985539Y-14416532D01*
X16985539Y-14416532D02*
X16995063Y-14387960D01*
X16995063Y-14387960D02*
X17004586Y-14368913D01*
X17004586Y-14368913D02*
X17023634Y-14340341D01*
X17023634Y-14340341D02*
X17033158Y-14330817D01*
X17195063Y-14359389D02*
X17156967Y-14359389D01*
X17156967Y-14359389D02*
X17137920Y-14368913D01*
X17137920Y-14368913D02*
X17128396Y-14378436D01*
X17128396Y-14378436D02*
X17109348Y-14407008D01*
X17109348Y-14407008D02*
X17099825Y-14445103D01*
X17099825Y-14445103D02*
X17099825Y-14521293D01*
X17099825Y-14521293D02*
X17109348Y-14540341D01*
X17109348Y-14540341D02*
X17118872Y-14549865D01*
X17118872Y-14549865D02*
X17137920Y-14559389D01*
X17137920Y-14559389D02*
X17176015Y-14559389D01*
X17176015Y-14559389D02*
X17195063Y-14549865D01*
X17195063Y-14549865D02*
X17204586Y-14540341D01*
X17204586Y-14540341D02*
X17214110Y-14521293D01*
X17214110Y-14521293D02*
X17214110Y-14473674D01*
X17214110Y-14473674D02*
X17204586Y-14454627D01*
X17204586Y-14454627D02*
X17195063Y-14445103D01*
X17195063Y-14445103D02*
X17176015Y-14435579D01*
X17176015Y-14435579D02*
X17137920Y-14435579D01*
X17137920Y-14435579D02*
X17118872Y-14445103D01*
X17118872Y-14445103D02*
X17109348Y-14454627D01*
X17109348Y-14454627D02*
X17099825Y-14473674D01*
X17280777Y-14359389D02*
X17414110Y-14359389D01*
X17414110Y-14359389D02*
X17328396Y-14559389D01*
X17642682Y-14559389D02*
X17642682Y-14359389D01*
X17728396Y-14559389D02*
X17728396Y-14454627D01*
X17728396Y-14454627D02*
X17718872Y-14435579D01*
X17718872Y-14435579D02*
X17699825Y-14426055D01*
X17699825Y-14426055D02*
X17671253Y-14426055D01*
X17671253Y-14426055D02*
X17652206Y-14435579D01*
X17652206Y-14435579D02*
X17642682Y-14445103D01*
X17852206Y-14559389D02*
X17833158Y-14549865D01*
X17833158Y-14549865D02*
X17823634Y-14540341D01*
X17823634Y-14540341D02*
X17814110Y-14521293D01*
X17814110Y-14521293D02*
X17814110Y-14464151D01*
X17814110Y-14464151D02*
X17823634Y-14445103D01*
X17823634Y-14445103D02*
X17833158Y-14435579D01*
X17833158Y-14435579D02*
X17852206Y-14426055D01*
X17852206Y-14426055D02*
X17880777Y-14426055D01*
X17880777Y-14426055D02*
X17899825Y-14435579D01*
X17899825Y-14435579D02*
X17909348Y-14445103D01*
X17909348Y-14445103D02*
X17918872Y-14464151D01*
X17918872Y-14464151D02*
X17918872Y-14521293D01*
X17918872Y-14521293D02*
X17909348Y-14540341D01*
X17909348Y-14540341D02*
X17899825Y-14549865D01*
X17899825Y-14549865D02*
X17880777Y-14559389D01*
X17880777Y-14559389D02*
X17852206Y-14559389D01*
X18033158Y-14559389D02*
X18014110Y-14549865D01*
X18014110Y-14549865D02*
X18004587Y-14530817D01*
X18004587Y-14530817D02*
X18004587Y-14359389D01*
X18185539Y-14549865D02*
X18166491Y-14559389D01*
X18166491Y-14559389D02*
X18128396Y-14559389D01*
X18128396Y-14559389D02*
X18109348Y-14549865D01*
X18109348Y-14549865D02*
X18099825Y-14530817D01*
X18099825Y-14530817D02*
X18099825Y-14454627D01*
X18099825Y-14454627D02*
X18109348Y-14435579D01*
X18109348Y-14435579D02*
X18128396Y-14426055D01*
X18128396Y-14426055D02*
X18166491Y-14426055D01*
X18166491Y-14426055D02*
X18185539Y-14435579D01*
X18185539Y-14435579D02*
X18195063Y-14454627D01*
X18195063Y-14454627D02*
X18195063Y-14473674D01*
X18195063Y-14473674D02*
X18099825Y-14492722D01*
X18271253Y-14549865D02*
X18290301Y-14559389D01*
X18290301Y-14559389D02*
X18328396Y-14559389D01*
X18328396Y-14559389D02*
X18347444Y-14549865D01*
X18347444Y-14549865D02*
X18356968Y-14530817D01*
X18356968Y-14530817D02*
X18356968Y-14521293D01*
X18356968Y-14521293D02*
X18347444Y-14502246D01*
X18347444Y-14502246D02*
X18328396Y-14492722D01*
X18328396Y-14492722D02*
X18299825Y-14492722D01*
X18299825Y-14492722D02*
X18280777Y-14483198D01*
X18280777Y-14483198D02*
X18271253Y-14464151D01*
X18271253Y-14464151D02*
X18271253Y-14454627D01*
X18271253Y-14454627D02*
X18280777Y-14435579D01*
X18280777Y-14435579D02*
X18299825Y-14426055D01*
X18299825Y-14426055D02*
X18328396Y-14426055D01*
X18328396Y-14426055D02*
X18347444Y-14435579D01*
X18423634Y-14635579D02*
X18433158Y-14626055D01*
X18433158Y-14626055D02*
X18452206Y-14597484D01*
X18452206Y-14597484D02*
X18461729Y-14578436D01*
X18461729Y-14578436D02*
X18471253Y-14549865D01*
X18471253Y-14549865D02*
X18480777Y-14502246D01*
X18480777Y-14502246D02*
X18480777Y-14464151D01*
X18480777Y-14464151D02*
X18471253Y-14416532D01*
X18471253Y-14416532D02*
X18461729Y-14387960D01*
X18461729Y-14387960D02*
X18452206Y-14368913D01*
X18452206Y-14368913D02*
X18433158Y-14340341D01*
X18433158Y-14340341D02*
X18423634Y-14330817D01*
M02*
