%TF.GenerationSoftware,KiCad,Pcbnew,8.0.1*%
%TF.CreationDate,2024-05-08T13:57:30+07:00*%
%TF.ProjectId,Arduino_RC_Transceiver_DIY_2.0.0,41726475-696e-46f5-9f52-435f5472616e,rev?*%
%TF.SameCoordinates,Original*%
%TF.FileFunction,Drillmap*%
%TF.FilePolarity,Positive*%
%FSLAX45Y45*%
G04 Gerber Fmt 4.5, Leading zero omitted, Abs format (unit mm)*
G04 Created by KiCad (PCBNEW 8.0.1) date 2024-05-08 13:57:30*
%MOMM*%
%LPD*%
G01*
G04 APERTURE LIST*
%ADD10C,0.050000*%
%ADD11C,0.038100*%
%ADD12C,0.100000*%
%ADD13C,0.200000*%
G04 APERTURE END LIST*
D10*
X14380177Y-11380177D02*
G75*
G02*
X13980177Y-11779997I-399997J177D01*
G01*
X18509469Y-11780000D02*
G75*
G02*
X18109470Y-11380531I1J400000D01*
G01*
D11*
X13660000Y-11780000D02*
X13980177Y-11780000D01*
X18810000Y-11780000D02*
X18509469Y-11780000D01*
X13460000Y-12570000D02*
X13460000Y-11980000D01*
X18810000Y-12770000D02*
X13660000Y-12770000D01*
X19010000Y-11980000D02*
X19010000Y-12570000D01*
X13660000Y-12770000D02*
G75*
G02*
X13460000Y-12570000I0J200000D01*
G01*
X19010000Y-12570000D02*
G75*
G02*
X18810000Y-12770000I-200000J0D01*
G01*
X13460000Y-11980000D02*
G75*
G02*
X13660000Y-11780000I200000J0D01*
G01*
X18810000Y-11780000D02*
G75*
G02*
X19010000Y-11980000I0J-200000D01*
G01*
D10*
X14582000Y-7064000D02*
X17904000Y-7064000D01*
X14380177Y-11380177D02*
X14382000Y-7264000D01*
X18104000Y-7264000D02*
X18109469Y-11380531D01*
X14382000Y-7264000D02*
G75*
G02*
X14582000Y-7064000I200000J0D01*
G01*
X17904000Y-7064000D02*
G75*
G02*
X18104000Y-7264000I0J-200000D01*
G01*
D12*
X14060000Y-12244000D02*
G75*
G02*
X13760000Y-12244000I-150000J0D01*
G01*
X13760000Y-12244000D02*
G75*
G02*
X14060000Y-12244000I150000J0D01*
G01*
X18660000Y-12244000D02*
G75*
G02*
X18360000Y-12244000I-150000J0D01*
G01*
X18360000Y-12244000D02*
G75*
G02*
X18660000Y-12244000I150000J0D01*
G01*
D13*
X13718872Y-13083389D02*
X13718872Y-12883389D01*
X13718872Y-12883389D02*
X13766491Y-12883389D01*
X13766491Y-12883389D02*
X13795062Y-12892913D01*
X13795062Y-12892913D02*
X13814110Y-12911960D01*
X13814110Y-12911960D02*
X13823634Y-12931008D01*
X13823634Y-12931008D02*
X13833157Y-12969103D01*
X13833157Y-12969103D02*
X13833157Y-12997674D01*
X13833157Y-12997674D02*
X13823634Y-13035770D01*
X13823634Y-13035770D02*
X13814110Y-13054817D01*
X13814110Y-13054817D02*
X13795062Y-13073865D01*
X13795062Y-13073865D02*
X13766491Y-13083389D01*
X13766491Y-13083389D02*
X13718872Y-13083389D01*
X13918872Y-13083389D02*
X13918872Y-12950055D01*
X13918872Y-12988151D02*
X13928396Y-12969103D01*
X13928396Y-12969103D02*
X13937919Y-12959579D01*
X13937919Y-12959579D02*
X13956967Y-12950055D01*
X13956967Y-12950055D02*
X13976015Y-12950055D01*
X14042681Y-13083389D02*
X14042681Y-12950055D01*
X14042681Y-12883389D02*
X14033157Y-12892913D01*
X14033157Y-12892913D02*
X14042681Y-12902436D01*
X14042681Y-12902436D02*
X14052205Y-12892913D01*
X14052205Y-12892913D02*
X14042681Y-12883389D01*
X14042681Y-12883389D02*
X14042681Y-12902436D01*
X14166491Y-13083389D02*
X14147443Y-13073865D01*
X14147443Y-13073865D02*
X14137919Y-13054817D01*
X14137919Y-13054817D02*
X14137919Y-12883389D01*
X14271253Y-13083389D02*
X14252205Y-13073865D01*
X14252205Y-13073865D02*
X14242681Y-13054817D01*
X14242681Y-13054817D02*
X14242681Y-12883389D01*
X14499824Y-13083389D02*
X14499824Y-12883389D01*
X14499824Y-12883389D02*
X14566491Y-13026246D01*
X14566491Y-13026246D02*
X14633157Y-12883389D01*
X14633157Y-12883389D02*
X14633157Y-13083389D01*
X14814110Y-13083389D02*
X14814110Y-12978627D01*
X14814110Y-12978627D02*
X14804586Y-12959579D01*
X14804586Y-12959579D02*
X14785538Y-12950055D01*
X14785538Y-12950055D02*
X14747443Y-12950055D01*
X14747443Y-12950055D02*
X14728396Y-12959579D01*
X14814110Y-13073865D02*
X14795062Y-13083389D01*
X14795062Y-13083389D02*
X14747443Y-13083389D01*
X14747443Y-13083389D02*
X14728396Y-13073865D01*
X14728396Y-13073865D02*
X14718872Y-13054817D01*
X14718872Y-13054817D02*
X14718872Y-13035770D01*
X14718872Y-13035770D02*
X14728396Y-13016722D01*
X14728396Y-13016722D02*
X14747443Y-13007198D01*
X14747443Y-13007198D02*
X14795062Y-13007198D01*
X14795062Y-13007198D02*
X14814110Y-12997674D01*
X14909348Y-12950055D02*
X14909348Y-13150055D01*
X14909348Y-12959579D02*
X14928396Y-12950055D01*
X14928396Y-12950055D02*
X14966491Y-12950055D01*
X14966491Y-12950055D02*
X14985538Y-12959579D01*
X14985538Y-12959579D02*
X14995062Y-12969103D01*
X14995062Y-12969103D02*
X15004586Y-12988151D01*
X15004586Y-12988151D02*
X15004586Y-13045293D01*
X15004586Y-13045293D02*
X14995062Y-13064341D01*
X14995062Y-13064341D02*
X14985538Y-13073865D01*
X14985538Y-13073865D02*
X14966491Y-13083389D01*
X14966491Y-13083389D02*
X14928396Y-13083389D01*
X14928396Y-13083389D02*
X14909348Y-13073865D01*
X15090300Y-13064341D02*
X15099824Y-13073865D01*
X15099824Y-13073865D02*
X15090300Y-13083389D01*
X15090300Y-13083389D02*
X15080777Y-13073865D01*
X15080777Y-13073865D02*
X15090300Y-13064341D01*
X15090300Y-13064341D02*
X15090300Y-13083389D01*
X15090300Y-12959579D02*
X15099824Y-12969103D01*
X15099824Y-12969103D02*
X15090300Y-12978627D01*
X15090300Y-12978627D02*
X15080777Y-12969103D01*
X15080777Y-12969103D02*
X15090300Y-12959579D01*
X15090300Y-12959579D02*
X15090300Y-12978627D01*
M02*
