%TF.GenerationSoftware,KiCad,Pcbnew,8.0.1*%
%TF.CreationDate,2024-05-08T13:58:46+07:00*%
%TF.ProjectId,Arduino_RC_Transceiver_DIY_2.0.0,41726475-696e-46f5-9f52-435f5472616e,rev?*%
%TF.SameCoordinates,Original*%
%TF.FileFunction,Legend,Top*%
%TF.FilePolarity,Positive*%
%FSLAX46Y46*%
G04 Gerber Fmt 4.6, Leading zero omitted, Abs format (unit mm)*
G04 Created by KiCad (PCBNEW 8.0.1) date 2024-05-08 13:58:46*
%MOMM*%
%LPD*%
G01*
G04 APERTURE LIST*
%ADD10C,0.100000*%
%ADD11C,0.127000*%
%ADD12C,0.200000*%
%ADD13C,0.120000*%
%ADD14C,1.500000*%
G04 APERTURE END LIST*
D10*
X155853615Y-75208580D02*
X155853615Y-74399057D01*
X155853615Y-74399057D02*
X155805996Y-74303819D01*
X155805996Y-74303819D02*
X155758377Y-74256200D01*
X155758377Y-74256200D02*
X155663139Y-74208580D01*
X155663139Y-74208580D02*
X155472663Y-74208580D01*
X155472663Y-74208580D02*
X155377425Y-74256200D01*
X155377425Y-74256200D02*
X155329806Y-74303819D01*
X155329806Y-74303819D02*
X155282187Y-74399057D01*
X155282187Y-74399057D02*
X155282187Y-75208580D01*
X154853615Y-74256200D02*
X154710758Y-74208580D01*
X154710758Y-74208580D02*
X154472663Y-74208580D01*
X154472663Y-74208580D02*
X154377425Y-74256200D01*
X154377425Y-74256200D02*
X154329806Y-74303819D01*
X154329806Y-74303819D02*
X154282187Y-74399057D01*
X154282187Y-74399057D02*
X154282187Y-74494295D01*
X154282187Y-74494295D02*
X154329806Y-74589533D01*
X154329806Y-74589533D02*
X154377425Y-74637152D01*
X154377425Y-74637152D02*
X154472663Y-74684771D01*
X154472663Y-74684771D02*
X154663139Y-74732390D01*
X154663139Y-74732390D02*
X154758377Y-74780009D01*
X154758377Y-74780009D02*
X154805996Y-74827628D01*
X154805996Y-74827628D02*
X154853615Y-74922866D01*
X154853615Y-74922866D02*
X154853615Y-75018104D01*
X154853615Y-75018104D02*
X154805996Y-75113342D01*
X154805996Y-75113342D02*
X154758377Y-75160961D01*
X154758377Y-75160961D02*
X154663139Y-75208580D01*
X154663139Y-75208580D02*
X154425044Y-75208580D01*
X154425044Y-75208580D02*
X154282187Y-75160961D01*
X153520282Y-74732390D02*
X153377425Y-74684771D01*
X153377425Y-74684771D02*
X153329806Y-74637152D01*
X153329806Y-74637152D02*
X153282187Y-74541914D01*
X153282187Y-74541914D02*
X153282187Y-74399057D01*
X153282187Y-74399057D02*
X153329806Y-74303819D01*
X153329806Y-74303819D02*
X153377425Y-74256200D01*
X153377425Y-74256200D02*
X153472663Y-74208580D01*
X153472663Y-74208580D02*
X153853615Y-74208580D01*
X153853615Y-74208580D02*
X153853615Y-75208580D01*
X153853615Y-75208580D02*
X153520282Y-75208580D01*
X153520282Y-75208580D02*
X153425044Y-75160961D01*
X153425044Y-75160961D02*
X153377425Y-75113342D01*
X153377425Y-75113342D02*
X153329806Y-75018104D01*
X153329806Y-75018104D02*
X153329806Y-74922866D01*
X153329806Y-74922866D02*
X153377425Y-74827628D01*
X153377425Y-74827628D02*
X153425044Y-74780009D01*
X153425044Y-74780009D02*
X153520282Y-74732390D01*
X153520282Y-74732390D02*
X153853615Y-74732390D01*
%TO.C,U3*%
X165220000Y-112405000D02*
X175380000Y-112405000D01*
X165220000Y-107960000D02*
X175380000Y-107960000D01*
X175380000Y-113040000D01*
X165220000Y-113040000D01*
X165220000Y-107960000D01*
D11*
%TO.C,U2*%
X145717500Y-73910000D02*
X163497500Y-73910000D01*
X145717500Y-117090000D02*
X145717500Y-73910000D01*
X163497500Y-73910000D02*
X163497500Y-117090000D01*
X163497500Y-117090000D02*
X145717500Y-117090000D01*
D10*
X158417500Y-76450000D02*
X150797500Y-76450000D01*
X150797500Y-73910000D01*
X158417500Y-73910000D01*
X158417500Y-76450000D01*
D12*
X164457500Y-113500000D02*
G75*
G02*
X164257500Y-113500000I-100000J0D01*
G01*
X164257500Y-113500000D02*
G75*
G02*
X164457500Y-113500000I100000J0D01*
G01*
D13*
%TO.C,C1*%
X175669801Y-106095000D02*
X175269801Y-106095000D01*
X175469801Y-106295000D02*
X175469801Y-105895000D01*
X173400000Y-106980000D02*
X173400000Y-102820000D01*
X173360000Y-106980000D02*
X173360000Y-102820000D01*
X173320000Y-106979000D02*
X173320000Y-102821000D01*
X173280000Y-106977000D02*
X173280000Y-102823000D01*
X173240000Y-106974000D02*
X173240000Y-102826000D01*
X173200000Y-106971000D02*
X173200000Y-105740000D01*
X173200000Y-104060000D02*
X173200000Y-102829000D01*
X173160000Y-106967000D02*
X173160000Y-105740000D01*
X173160000Y-104060000D02*
X173160000Y-102833000D01*
X173120000Y-106962000D02*
X173120000Y-105740000D01*
X173120000Y-104060000D02*
X173120000Y-102838000D01*
X173080000Y-106956000D02*
X173080000Y-105740000D01*
X173080000Y-104060000D02*
X173080000Y-102844000D01*
X173040000Y-106950000D02*
X173040000Y-105740000D01*
X173040000Y-104060000D02*
X173040000Y-102850000D01*
X173000000Y-106942000D02*
X173000000Y-105740000D01*
X173000000Y-104060000D02*
X173000000Y-102858000D01*
X172960000Y-106934000D02*
X172960000Y-105740000D01*
X172960000Y-104060000D02*
X172960000Y-102866000D01*
X172920000Y-106925000D02*
X172920000Y-105740000D01*
X172920000Y-104060000D02*
X172920000Y-102875000D01*
X172880000Y-106916000D02*
X172880000Y-105740000D01*
X172880000Y-104060000D02*
X172880000Y-102884000D01*
X172840000Y-106905000D02*
X172840000Y-105740000D01*
X172840000Y-104060000D02*
X172840000Y-102895000D01*
X172800000Y-106894000D02*
X172800000Y-105740000D01*
X172800000Y-104060000D02*
X172800000Y-102906000D01*
X172760000Y-106882000D02*
X172760000Y-105740000D01*
X172760000Y-104060000D02*
X172760000Y-102918000D01*
X172720000Y-106868000D02*
X172720000Y-105740000D01*
X172720000Y-104060000D02*
X172720000Y-102932000D01*
X172679000Y-106854000D02*
X172679000Y-105740000D01*
X172679000Y-104060000D02*
X172679000Y-102946000D01*
X172639000Y-106840000D02*
X172639000Y-105740000D01*
X172639000Y-104060000D02*
X172639000Y-102960000D01*
X172599000Y-106824000D02*
X172599000Y-105740000D01*
X172599000Y-104060000D02*
X172599000Y-102976000D01*
X172559000Y-106807000D02*
X172559000Y-105740000D01*
X172559000Y-104060000D02*
X172559000Y-102993000D01*
X172519000Y-106789000D02*
X172519000Y-105740000D01*
X172519000Y-104060000D02*
X172519000Y-103011000D01*
X172479000Y-106770000D02*
X172479000Y-105740000D01*
X172479000Y-104060000D02*
X172479000Y-103030000D01*
X172439000Y-106751000D02*
X172439000Y-105740000D01*
X172439000Y-104060000D02*
X172439000Y-103049000D01*
X172399000Y-106730000D02*
X172399000Y-105740000D01*
X172399000Y-104060000D02*
X172399000Y-103070000D01*
X172359000Y-106708000D02*
X172359000Y-105740000D01*
X172359000Y-104060000D02*
X172359000Y-103092000D01*
X172319000Y-106685000D02*
X172319000Y-105740000D01*
X172319000Y-104060000D02*
X172319000Y-103115000D01*
X172279000Y-106660000D02*
X172279000Y-105740000D01*
X172279000Y-104060000D02*
X172279000Y-103140000D01*
X172239000Y-106635000D02*
X172239000Y-105740000D01*
X172239000Y-104060000D02*
X172239000Y-103165000D01*
X172199000Y-106608000D02*
X172199000Y-105740000D01*
X172199000Y-104060000D02*
X172199000Y-103192000D01*
X172159000Y-106580000D02*
X172159000Y-105740000D01*
X172159000Y-104060000D02*
X172159000Y-103220000D01*
X172119000Y-106550000D02*
X172119000Y-105740000D01*
X172119000Y-104060000D02*
X172119000Y-103250000D01*
X172079000Y-106519000D02*
X172079000Y-105740000D01*
X172079000Y-104060000D02*
X172079000Y-103281000D01*
X172039000Y-106487000D02*
X172039000Y-105740000D01*
X172039000Y-104060000D02*
X172039000Y-103313000D01*
X171999000Y-106452000D02*
X171999000Y-105740000D01*
X171999000Y-104060000D02*
X171999000Y-103348000D01*
X171959000Y-106416000D02*
X171959000Y-105740000D01*
X171959000Y-104060000D02*
X171959000Y-103384000D01*
X171919000Y-106378000D02*
X171919000Y-105740000D01*
X171919000Y-104060000D02*
X171919000Y-103422000D01*
X171879000Y-106338000D02*
X171879000Y-105740000D01*
X171879000Y-104060000D02*
X171879000Y-103462000D01*
X171839000Y-106296000D02*
X171839000Y-105740000D01*
X171839000Y-104060000D02*
X171839000Y-103504000D01*
X171799000Y-106251000D02*
X171799000Y-105740000D01*
X171799000Y-104060000D02*
X171799000Y-103549000D01*
X171759000Y-106204000D02*
X171759000Y-105740000D01*
X171759000Y-104060000D02*
X171759000Y-103596000D01*
X171719000Y-106154000D02*
X171719000Y-105740000D01*
X171719000Y-104060000D02*
X171719000Y-103646000D01*
X171679000Y-106100000D02*
X171679000Y-105740000D01*
X171679000Y-104060000D02*
X171679000Y-103700000D01*
X171639000Y-106042000D02*
X171639000Y-105740000D01*
X171639000Y-104060000D02*
X171639000Y-103758000D01*
X171599000Y-105980000D02*
X171599000Y-105740000D01*
X171599000Y-104060000D02*
X171599000Y-103820000D01*
X171559000Y-105913000D02*
X171559000Y-103887000D01*
X171519000Y-105840000D02*
X171519000Y-103960000D01*
X171479000Y-105759000D02*
X171479000Y-104041000D01*
X171439000Y-105668000D02*
X171439000Y-104132000D01*
X171399000Y-105564000D02*
X171399000Y-104236000D01*
X171359000Y-105437000D02*
X171359000Y-104363000D01*
X171319000Y-105270000D02*
X171319000Y-104530000D01*
X175520000Y-104900000D02*
G75*
G02*
X171280000Y-104900000I-2120000J0D01*
G01*
X171280000Y-104900000D02*
G75*
G02*
X175520000Y-104900000I2120000J0D01*
G01*
D14*
%TO.C,Hold_keep_3*%
X141300000Y-122440000D02*
G75*
G02*
X136900000Y-122440000I-2200000J0D01*
G01*
X136900000Y-122440000D02*
G75*
G02*
X141300000Y-122440000I2200000J0D01*
G01*
D13*
%TO.C,R3*%
X156800000Y-94710000D02*
X156800000Y-94020000D01*
X155080000Y-94020000D02*
X158520000Y-94020000D01*
X158520000Y-94020000D02*
X158520000Y-84780000D01*
X155080000Y-84780000D02*
X155080000Y-94020000D01*
X158520000Y-84780000D02*
X155080000Y-84780000D01*
X156800000Y-84090000D02*
X156800000Y-84780000D01*
%TO.C,J2*%
X177270000Y-115150000D02*
X179930000Y-115150000D01*
X177270000Y-107470000D02*
X177270000Y-115150000D01*
X177270000Y-107470000D02*
X179930000Y-107470000D01*
X179930000Y-107470000D02*
X179930000Y-115150000D01*
X177270000Y-106200000D02*
X177270000Y-104870000D01*
X177270000Y-104870000D02*
X178600000Y-104870000D01*
D10*
%TO.C,U1*%
X166820000Y-76835000D02*
X168090000Y-76835000D01*
X166820000Y-81915000D02*
X166820000Y-76835000D01*
X168090000Y-76835000D02*
X168090000Y-79375000D01*
X168090000Y-79375000D02*
X170630000Y-79375000D01*
X170630000Y-78105000D02*
X171900000Y-78105000D01*
X170630000Y-79375000D02*
X170630000Y-78105000D01*
X171900000Y-78105000D02*
X171900000Y-80645000D01*
X171900000Y-80645000D02*
X174440000Y-80645000D01*
X174440000Y-76835000D02*
X176980000Y-76835000D01*
X174440000Y-80645000D02*
X174440000Y-76835000D01*
X176980000Y-76835000D02*
X176980000Y-84455000D01*
X165550000Y-102235000D02*
X178250000Y-102235000D01*
X178250000Y-75565000D01*
X165550000Y-75565000D01*
X165550000Y-102235000D01*
D13*
%TO.C,R5*%
X152700000Y-84090000D02*
X152700000Y-84780000D01*
X154420000Y-84780000D02*
X150980000Y-84780000D01*
X150980000Y-84780000D02*
X150980000Y-94020000D01*
X154420000Y-94020000D02*
X154420000Y-84780000D01*
X150980000Y-94020000D02*
X154420000Y-94020000D01*
X152700000Y-94710000D02*
X152700000Y-94020000D01*
%TO.C,J5*%
X176460000Y-123650000D02*
X176460000Y-124980000D01*
X175130000Y-123650000D02*
X176460000Y-123650000D01*
X173860000Y-123650000D02*
X148400000Y-123650000D01*
X173860000Y-123650000D02*
X173860000Y-126310000D01*
X148400000Y-123650000D02*
X148400000Y-126310000D01*
X173860000Y-126310000D02*
X148400000Y-126310000D01*
%TO.C,J3*%
X176460000Y-118570000D02*
X176460000Y-119900000D01*
X175130000Y-118570000D02*
X176460000Y-118570000D01*
X173860000Y-118570000D02*
X148400000Y-118570000D01*
X173860000Y-118570000D02*
X173860000Y-121230000D01*
X148400000Y-118570000D02*
X148400000Y-121230000D01*
X173860000Y-121230000D02*
X148400000Y-121230000D01*
%TO.C,J4*%
X176460000Y-121110000D02*
X176460000Y-122440000D01*
X175130000Y-121110000D02*
X176460000Y-121110000D01*
X173860000Y-121110000D02*
X148400000Y-121110000D01*
X173860000Y-121110000D02*
X173860000Y-123770000D01*
X148400000Y-121110000D02*
X148400000Y-123770000D01*
X173860000Y-123770000D02*
X148400000Y-123770000D01*
%TO.C,R2*%
X155080000Y-101180000D02*
X155080000Y-110420000D01*
X155080000Y-110420000D02*
X158520000Y-110420000D01*
X156800000Y-100490000D02*
X156800000Y-101180000D01*
X156800000Y-111110000D02*
X156800000Y-110420000D01*
X158520000Y-101180000D02*
X155080000Y-101180000D01*
X158520000Y-110420000D02*
X158520000Y-101180000D01*
%TO.C,R1*%
X150980000Y-101180000D02*
X150980000Y-110420000D01*
X150980000Y-110420000D02*
X154420000Y-110420000D01*
X152700000Y-100490000D02*
X152700000Y-101180000D01*
X152700000Y-111110000D02*
X152700000Y-110420000D01*
X154420000Y-101180000D02*
X150980000Y-101180000D01*
X154420000Y-110420000D02*
X154420000Y-101180000D01*
%TO.C,C2*%
X170620000Y-104900000D02*
G75*
G02*
X166380000Y-104900000I-2120000J0D01*
G01*
X166380000Y-104900000D02*
G75*
G02*
X170620000Y-104900000I2120000J0D01*
G01*
X166419000Y-105270000D02*
X166419000Y-104530000D01*
X166459000Y-105437000D02*
X166459000Y-104363000D01*
X166499000Y-105564000D02*
X166499000Y-104236000D01*
X166539000Y-105668000D02*
X166539000Y-104132000D01*
X166579000Y-105759000D02*
X166579000Y-104041000D01*
X166619000Y-105840000D02*
X166619000Y-103960000D01*
X166659000Y-105913000D02*
X166659000Y-103887000D01*
X166699000Y-104060000D02*
X166699000Y-103820000D01*
X166699000Y-105980000D02*
X166699000Y-105740000D01*
X166739000Y-104060000D02*
X166739000Y-103758000D01*
X166739000Y-106042000D02*
X166739000Y-105740000D01*
X166779000Y-104060000D02*
X166779000Y-103700000D01*
X166779000Y-106100000D02*
X166779000Y-105740000D01*
X166819000Y-104060000D02*
X166819000Y-103646000D01*
X166819000Y-106154000D02*
X166819000Y-105740000D01*
X166859000Y-104060000D02*
X166859000Y-103596000D01*
X166859000Y-106204000D02*
X166859000Y-105740000D01*
X166899000Y-104060000D02*
X166899000Y-103549000D01*
X166899000Y-106251000D02*
X166899000Y-105740000D01*
X166939000Y-104060000D02*
X166939000Y-103504000D01*
X166939000Y-106296000D02*
X166939000Y-105740000D01*
X166979000Y-104060000D02*
X166979000Y-103462000D01*
X166979000Y-106338000D02*
X166979000Y-105740000D01*
X167019000Y-104060000D02*
X167019000Y-103422000D01*
X167019000Y-106378000D02*
X167019000Y-105740000D01*
X167059000Y-104060000D02*
X167059000Y-103384000D01*
X167059000Y-106416000D02*
X167059000Y-105740000D01*
X167099000Y-104060000D02*
X167099000Y-103348000D01*
X167099000Y-106452000D02*
X167099000Y-105740000D01*
X167139000Y-104060000D02*
X167139000Y-103313000D01*
X167139000Y-106487000D02*
X167139000Y-105740000D01*
X167179000Y-104060000D02*
X167179000Y-103281000D01*
X167179000Y-106519000D02*
X167179000Y-105740000D01*
X167219000Y-104060000D02*
X167219000Y-103250000D01*
X167219000Y-106550000D02*
X167219000Y-105740000D01*
X167259000Y-104060000D02*
X167259000Y-103220000D01*
X167259000Y-106580000D02*
X167259000Y-105740000D01*
X167299000Y-104060000D02*
X167299000Y-103192000D01*
X167299000Y-106608000D02*
X167299000Y-105740000D01*
X167339000Y-104060000D02*
X167339000Y-103165000D01*
X167339000Y-106635000D02*
X167339000Y-105740000D01*
X167379000Y-104060000D02*
X167379000Y-103140000D01*
X167379000Y-106660000D02*
X167379000Y-105740000D01*
X167419000Y-104060000D02*
X167419000Y-103115000D01*
X167419000Y-106685000D02*
X167419000Y-105740000D01*
X167459000Y-104060000D02*
X167459000Y-103092000D01*
X167459000Y-106708000D02*
X167459000Y-105740000D01*
X167499000Y-104060000D02*
X167499000Y-103070000D01*
X167499000Y-106730000D02*
X167499000Y-105740000D01*
X167539000Y-104060000D02*
X167539000Y-103049000D01*
X167539000Y-106751000D02*
X167539000Y-105740000D01*
X167579000Y-104060000D02*
X167579000Y-103030000D01*
X167579000Y-106770000D02*
X167579000Y-105740000D01*
X167619000Y-104060000D02*
X167619000Y-103011000D01*
X167619000Y-106789000D02*
X167619000Y-105740000D01*
X167659000Y-104060000D02*
X167659000Y-102993000D01*
X167659000Y-106807000D02*
X167659000Y-105740000D01*
X167699000Y-104060000D02*
X167699000Y-102976000D01*
X167699000Y-106824000D02*
X167699000Y-105740000D01*
X167739000Y-104060000D02*
X167739000Y-102960000D01*
X167739000Y-106840000D02*
X167739000Y-105740000D01*
X167779000Y-104060000D02*
X167779000Y-102946000D01*
X167779000Y-106854000D02*
X167779000Y-105740000D01*
X167820000Y-104060000D02*
X167820000Y-102932000D01*
X167820000Y-106868000D02*
X167820000Y-105740000D01*
X167860000Y-104060000D02*
X167860000Y-102918000D01*
X167860000Y-106882000D02*
X167860000Y-105740000D01*
X167900000Y-104060000D02*
X167900000Y-102906000D01*
X167900000Y-106894000D02*
X167900000Y-105740000D01*
X167940000Y-104060000D02*
X167940000Y-102895000D01*
X167940000Y-106905000D02*
X167940000Y-105740000D01*
X167980000Y-104060000D02*
X167980000Y-102884000D01*
X167980000Y-106916000D02*
X167980000Y-105740000D01*
X168020000Y-104060000D02*
X168020000Y-102875000D01*
X168020000Y-106925000D02*
X168020000Y-105740000D01*
X168060000Y-104060000D02*
X168060000Y-102866000D01*
X168060000Y-106934000D02*
X168060000Y-105740000D01*
X168100000Y-104060000D02*
X168100000Y-102858000D01*
X168100000Y-106942000D02*
X168100000Y-105740000D01*
X168140000Y-104060000D02*
X168140000Y-102850000D01*
X168140000Y-106950000D02*
X168140000Y-105740000D01*
X168180000Y-104060000D02*
X168180000Y-102844000D01*
X168180000Y-106956000D02*
X168180000Y-105740000D01*
X168220000Y-104060000D02*
X168220000Y-102838000D01*
X168220000Y-106962000D02*
X168220000Y-105740000D01*
X168260000Y-104060000D02*
X168260000Y-102833000D01*
X168260000Y-106967000D02*
X168260000Y-105740000D01*
X168300000Y-104060000D02*
X168300000Y-102829000D01*
X168300000Y-106971000D02*
X168300000Y-105740000D01*
X168340000Y-106974000D02*
X168340000Y-102826000D01*
X168380000Y-106977000D02*
X168380000Y-102823000D01*
X168420000Y-106979000D02*
X168420000Y-102821000D01*
X168460000Y-106980000D02*
X168460000Y-102820000D01*
X168500000Y-106980000D02*
X168500000Y-102820000D01*
X170569801Y-106295000D02*
X170569801Y-105895000D01*
X170769801Y-106095000D02*
X170369801Y-106095000D01*
D14*
%TO.C,Hold_keep_4*%
X187300000Y-122440000D02*
G75*
G02*
X182900000Y-122440000I-2200000J0D01*
G01*
X182900000Y-122440000D02*
G75*
G02*
X187300000Y-122440000I2200000J0D01*
G01*
%TD*%
M02*
