G04 #@! TF.GenerationSoftware,KiCad,Pcbnew,8.0.1*
G04 #@! TF.CreationDate,2024-05-05T13:03:49+07:00*
G04 #@! TF.ProjectId,Arduino_RC_Transceiver_DIY_2.3.0,41726475-696e-46f5-9f52-435f5472616e,2.1.0*
G04 #@! TF.SameCoordinates,Original*
G04 #@! TF.FileFunction,Soldermask,Bot*
G04 #@! TF.FilePolarity,Negative*
%FSLAX46Y46*%
G04 Gerber Fmt 4.6, Leading zero omitted, Abs format (unit mm)*
G04 Created by KiCad (PCBNEW 8.0.1) date 2024-05-05 13:03:49*
%MOMM*%
%LPD*%
G01*
G04 APERTURE LIST*
G04 Aperture macros list*
%AMRoundRect*
0 Rectangle with rounded corners*
0 $1 Rounding radius*
0 $2 $3 $4 $5 $6 $7 $8 $9 X,Y pos of 4 corners*
0 Add a 4 corners polygon primitive as box body*
4,1,4,$2,$3,$4,$5,$6,$7,$8,$9,$2,$3,0*
0 Add four circle primitives for the rounded corners*
1,1,$1+$1,$2,$3*
1,1,$1+$1,$4,$5*
1,1,$1+$1,$6,$7*
1,1,$1+$1,$8,$9*
0 Add four rect primitives between the rounded corners*
20,1,$1+$1,$2,$3,$4,$5,0*
20,1,$1+$1,$4,$5,$6,$7,0*
20,1,$1+$1,$6,$7,$8,$9,0*
20,1,$1+$1,$8,$9,$2,$3,0*%
G04 Aperture macros list end*
%ADD10O,2.504000X2.204000*%
%ADD11RoundRect,0.102000X-1.150000X1.000000X-1.150000X-1.000000X1.150000X-1.000000X1.150000X1.000000X0*%
%ADD12C,1.982000*%
%ADD13C,2.490000*%
%ADD14C,6.000000*%
%ADD15O,1.850000X3.048000*%
%ADD16C,5.000000*%
%ADD17RoundRect,0.102000X-1.000000X-1.000000X1.000000X-1.000000X1.000000X1.000000X-1.000000X1.000000X0*%
%ADD18C,2.204000*%
%ADD19R,2.000000X2.000000*%
%ADD20C,2.000000*%
%ADD21C,1.744000*%
%ADD22C,2.154000*%
%ADD23O,1.800000X2.100000*%
%ADD24R,1.200000X1.200000*%
%ADD25C,1.200000*%
%ADD26C,1.600000*%
%ADD27O,1.600000X1.600000*%
%ADD28O,2.204000X1.804000*%
%ADD29R,1.900000X1.900000*%
%ADD30C,1.900000*%
%ADD31RoundRect,0.750000X0.750000X-1.250000X0.750000X1.250000X-0.750000X1.250000X-0.750000X-1.250000X0*%
%ADD32O,3.048000X1.850000*%
%ADD33O,1.800000X2.000000*%
%ADD34R,2.200000X2.200000*%
%ADD35O,2.200000X2.200000*%
%ADD36R,1.700000X1.700000*%
%ADD37O,1.700000X1.700000*%
G04 APERTURE END LIST*
D10*
X95500000Y-102160000D03*
X95500000Y-104700000D03*
D11*
X95500000Y-107240000D03*
D12*
X93177000Y-67848000D03*
X99527000Y-67848000D03*
X93177000Y-72928000D03*
X99527000Y-72928000D03*
X93812000Y-90708000D03*
X96352000Y-90708000D03*
X98892000Y-90708000D03*
D13*
X88732000Y-73880500D03*
X88732000Y-87215500D03*
X103972000Y-87215500D03*
X103972000Y-73880500D03*
D12*
X86192000Y-78008000D03*
X86192000Y-80548000D03*
X86192000Y-83088000D03*
D14*
X132927000Y-52648000D03*
D15*
X183484000Y-87388000D03*
X183484000Y-74888000D03*
X188484000Y-87388000D03*
X188484000Y-74888000D03*
D16*
X134615000Y-63066250D03*
X134615000Y-91566250D03*
X164115000Y-63066250D03*
X164115000Y-91566250D03*
D17*
X145805000Y-61066250D03*
D18*
X148345000Y-61066250D03*
X150885000Y-61066250D03*
X153425000Y-61066250D03*
D19*
X153152000Y-120396000D03*
D20*
X150612000Y-120396000D03*
X148072000Y-120396000D03*
X145532000Y-120396000D03*
D19*
X87600000Y-120800000D03*
D20*
X95200000Y-120800000D03*
D21*
X202627000Y-51748000D03*
X198127000Y-51748000D03*
D22*
X196872000Y-54238000D03*
X203882000Y-54238000D03*
D16*
X141456000Y-99339000D03*
X157226000Y-99339000D03*
D23*
X140411200Y-111301800D03*
X142951200Y-111301800D03*
X145491200Y-111301800D03*
X148031200Y-111301800D03*
X150571200Y-111301800D03*
X153111200Y-111301800D03*
X155651200Y-111301800D03*
X158191200Y-111301800D03*
D12*
X171977000Y-96548000D03*
X178327000Y-96548000D03*
X171977000Y-101628000D03*
X178327000Y-101628000D03*
X172612000Y-119408000D03*
X175152000Y-119408000D03*
X177692000Y-119408000D03*
D13*
X167532000Y-102580500D03*
X167532000Y-115915500D03*
X182772000Y-115915500D03*
X182772000Y-102580500D03*
D12*
X164992000Y-106708000D03*
X164992000Y-109248000D03*
X164992000Y-111788000D03*
D24*
X139954000Y-56896000D03*
D25*
X139954000Y-54896000D03*
D14*
X208752000Y-141348000D03*
D21*
X100577000Y-51748000D03*
X96077000Y-51748000D03*
D22*
X94822000Y-54238000D03*
X101832000Y-54238000D03*
D26*
X143002000Y-85852000D03*
D27*
X155702000Y-85852000D03*
D14*
X89952000Y-141348000D03*
D15*
X212440000Y-87388000D03*
X212440000Y-74888000D03*
X217440000Y-87388000D03*
X217440000Y-74888000D03*
D17*
X113032000Y-79268000D03*
D28*
X113032000Y-81808000D03*
X113032000Y-84348000D03*
X113032000Y-86888000D03*
X113032000Y-89428000D03*
X113032000Y-91968000D03*
X113032000Y-94508000D03*
X113032000Y-97048000D03*
X113032000Y-99588000D03*
X113032000Y-102128000D03*
X113032000Y-104668000D03*
X113032000Y-107208000D03*
X113032000Y-109748000D03*
X113032000Y-112288000D03*
X113032000Y-114828000D03*
X128272000Y-114828000D03*
X128272000Y-112288000D03*
X128272000Y-109748000D03*
X128272000Y-107208000D03*
X128272000Y-104668000D03*
X128272000Y-102128000D03*
X128272000Y-99588000D03*
X128272000Y-97048000D03*
X128272000Y-94508000D03*
X128272000Y-91968000D03*
X128272000Y-89428000D03*
X128272000Y-86888000D03*
X128272000Y-84348000D03*
X128272000Y-81808000D03*
X128272000Y-79268000D03*
D29*
X177064096Y-70998000D03*
D30*
X179604096Y-70998000D03*
X182144096Y-70998000D03*
D31*
X174564096Y-63998000D03*
X184564096Y-63998000D03*
D14*
X83802000Y-65748000D03*
D32*
X194212000Y-64048000D03*
X206712000Y-64048000D03*
X194212000Y-69048000D03*
X206712000Y-69048000D03*
D14*
X214902000Y-65748000D03*
D33*
X145542000Y-55843000D03*
X148082000Y-55843000D03*
X150622000Y-55843000D03*
X153162000Y-55843000D03*
X153162000Y-53303000D03*
X150622000Y-53303000D03*
X148082000Y-53303000D03*
X145542000Y-53303000D03*
D14*
X165777000Y-52648000D03*
D24*
X158750000Y-56896000D03*
D25*
X158750000Y-54896000D03*
D27*
X101700000Y-125200000D03*
D26*
X101700000Y-112500000D03*
D34*
X205232000Y-86360000D03*
D35*
X205232000Y-76200000D03*
D32*
X194212000Y-93004000D03*
X206712000Y-93004000D03*
X194212000Y-98004000D03*
X206712000Y-98004000D03*
D29*
X116116096Y-70998000D03*
D30*
X118656096Y-70998000D03*
X121196096Y-70998000D03*
D31*
X113616096Y-63998000D03*
X123616096Y-63998000D03*
D26*
X143002000Y-90602000D03*
D27*
X155702000Y-90602000D03*
D36*
X200152000Y-82555000D03*
D37*
X200152000Y-80015000D03*
M02*
