  0
SECTION
  2
HEADER
  9
$ANGBASE
  50
0.0
  9
$ANGDIR
  70
1
  9
$MEASUREMENT
  70
1
  0
ENDSEC
  0
SECTION
  2
TABLES
  0
TABLE
  2
LTYPE
  70
4
  0
LTYPE
  5
40F
  2
CONTINUOUS
  70
0
  3
Solid line
  72
65
  73
0
  40
0.0
  0
LTYPE
  5
410
  2
DASHDOT
 70
0
  3
Dash Dot ____ _ ____ _
 72
65
 73
4
 40
2.0
 49
1.25
 49
-0.25
 49
0.25
 49
-0.25
  0
LTYPE
  5
411
  2
DASHED
 70
0
  3
Dashed __ __ __ __ __
 72
65
 73
2
 40
0.75
 49
0.5
 49
-0.25
  0
LTYPE
  5
43B
  2
DOTTED
 70
0
  3
Dotted .  .  .  .
 72
65
 73
2
 40
0.2
 49
0.0
 49
-0.2
  0
ENDTAB
  0
TABLE
  2
STYLE
  70
4
  0
STYLE
  2
KICAD
  70
0
  40
0
  41
1
  42
1
  50
0
  71
0
  3
isocp.shx
  0
STYLE
  2
KICADB
  70
0
  40
0
  41
1
  42
1
  50
0
  71
0
  3
isocp.shx
  0
STYLE
  2
KICADI
  70
0
  40
0
  41
1
  42
1
  50
15
  71
0
  3
isocp.shx
  0
STYLE
  2
KICADBI
  70
0
  40
0
  41
1
  42
1
  50
15
  71
0
  3
isocp.shx
  0
ENDTAB
  0
TABLE
  2
LAYER
  70
1
  0
LAYER
  2
BLACK
  70
0
  62
7
  6
CONTINUOUS
  0
ENDTAB
  0
ENDSEC
  0
SECTION
  2
ENTITIES
0
LINE
8
BLACK
6
CONTINUOUS
10
161.9177839999999833
20
-45.665458000000001
11
162.5092719999999815
21
-45.717765
0
LINE
8
BLACK
6
CONTINUOUS
10
162.5092719999999815
20
-45.717765
11
163.0966640000000041
21
-45.8047419999999974
0
LINE
8
BLACK
6
CONTINUOUS
10
163.0966640000000041
20
-45.8047419999999974
11
163.677929000000006
21
-45.926088
0
LINE
8
BLACK
6
CONTINUOUS
10
163.677929000000006
20
-45.926088
11
164.2510589999999979
21
-46.0813819999999978
0
LINE
8
BLACK
6
CONTINUOUS
10
164.2510589999999979
20
-46.0813819999999978
11
164.8140719999999817
21
-46.2700889999999987
0
LINE
8
BLACK
6
CONTINUOUS
10
164.8140719999999817
20
-46.2700889999999987
11
165.3650229999999794
21
-46.4915559999999957
0
LINE
8
BLACK
6
CONTINUOUS
10
165.3650229999999794
20
-46.4915559999999957
11
165.9020060000000001
21
-46.7450179999999946
0
LINE
8
BLACK
6
CONTINUOUS
10
165.9020060000000001
20
-46.7450179999999946
11
166.4231670000000065
21
-47.029598
0
LINE
8
BLACK
6
CONTINUOUS
10
166.4231670000000065
20
-47.029598
11
166.9267030000000034
21
-47.3443129999999996
0
LINE
8
BLACK
6
CONTINUOUS
10
166.9267030000000034
20
-47.3443129999999996
11
166.926715999999999
21
-47.3442919999999958
0
LINE
8
BLACK
6
CONTINUOUS
10
166.926715999999999
20
-47.3442919999999958
11
166.9316049999999905
21
-47.349854999999998
0
LINE
8
BLACK
6
CONTINUOUS
10
166.9316049999999905
20
-47.349854999999998
11
176.8882239999999797
21
-53.9852980000000002
0
LINE
8
BLACK
6
CONTINUOUS
10
176.8882239999999797
20
-53.9852980000000002
11
176.8882380000000012
21
-53.985278000000001
0
LINE
8
BLACK
6
CONTINUOUS
10
176.8882380000000012
20
-53.985278000000001
11
177.1304899999999805
21
-54.146766999999997
0
LINE
8
BLACK
6
CONTINUOUS
10
177.1304899999999805
20
-54.146766999999997
11
177.6331270000000018
21
-54.4407349999999965
0
LINE
8
BLACK
6
CONTINUOUS
10
177.6331270000000018
20
-54.4407349999999965
11
178.1521699999999839
21
-54.7046559999999999
0
LINE
8
BLACK
6
CONTINUOUS
10
178.1521699999999839
20
-54.7046559999999999
11
178.6858259999999916
21
-54.937618999999998
0
LINE
8
BLACK
6
CONTINUOUS
10
178.6858259999999916
20
-54.937618999999998
11
179.2322499999999934
21
-55.138818999999998
0
LINE
8
BLACK
6
CONTINUOUS
10
179.2322499999999934
20
-55.138818999999998
11
179.7895539999999812
21
-55.3075589999999977
0
LINE
8
BLACK
6
CONTINUOUS
10
179.7895539999999812
20
-55.3075589999999977
11
180.3558099999999911
21
-55.4432569999999956
0
LINE
8
BLACK
6
CONTINUOUS
10
180.3558099999999911
20
-55.4432569999999956
11
180.9290629999999851
21
-55.5454439999999963
0
LINE
8
BLACK
6
CONTINUOUS
10
180.9290629999999851
20
-55.5454439999999963
11
181.5073289999999986
21
-55.6137659999999983
0
LINE
8
BLACK
6
CONTINUOUS
10
181.5073289999999986
20
-55.6137659999999983
11
182.0886119999999835
21
-55.647987999999998
0
LINE
8
BLACK
6
CONTINUOUS
10
182.0886119999999835
20
-55.647987999999998
11
182.3797559999999862
21
-55.6479999999999961
0
LINE
8
BLACK
6
CONTINUOUS
10
182.3797559999999862
20
-55.6479999999999961
11
182.3868889999999965
21
-55.6499109999999959
0
LINE
8
BLACK
6
CONTINUOUS
10
182.3868889999999965
20
-55.6499109999999959
11
187.695145999999994
21
-55.6479999999999961
0
LINE
8
BLACK
6
CONTINUOUS
10
187.695145999999994
20
-55.6479999999999961
11
187.695147999999989
21
-55.6479999999999961
0
LINE
8
BLACK
6
CONTINUOUS
10
187.695147999999989
20
-55.6479999999999961
11
187.6951499999999839
21
-55.6479999999999961
0
LINE
8
BLACK
6
CONTINUOUS
10
187.6951499999999839
20
-55.6479999999999961
11
187.6951499999999839
21
-55.6479779999999948
0
LINE
8
BLACK
6
CONTINUOUS
10
187.6951499999999839
20
-55.6479779999999948
11
187.8654269999999826
21
-55.647984000000001
0
LINE
8
BLACK
6
CONTINUOUS
10
187.8654269999999826
20
-55.647984000000001
11
188.2046880000000044
21
-55.6183130000000006
0
LINE
8
BLACK
6
CONTINUOUS
10
188.2046880000000044
20
-55.6183130000000006
11
188.5400699999999858
21
-55.5591839999999948
0
LINE
8
BLACK
6
CONTINUOUS
10
188.5400699999999858
20
-55.5591839999999948
11
188.8690229999999985
21
-55.4710479999999961
0
LINE
8
BLACK
6
CONTINUOUS
10
188.8690229999999985
20
-55.4710479999999961
11
189.1890410000000031
21
-55.3545739999999995
0
LINE
8
BLACK
6
CONTINUOUS
10
189.1890410000000031
20
-55.3545739999999995
11
189.4976889999999798
21
-55.210649999999994
0
LINE
8
BLACK
6
CONTINUOUS
10
189.4976889999999798
20
-55.210649999999994
11
189.7926180000000045
21
-55.0403719999999979
0
LINE
8
BLACK
6
CONTINUOUS
10
189.7926180000000045
20
-55.0403719999999979
11
190.0715819999999781
21
-54.8450339999999983
0
LINE
8
BLACK
6
CONTINUOUS
10
190.0715819999999781
20
-54.8450339999999983
11
190.3324580000000026
21
-54.6261249999999947
0
LINE
8
BLACK
6
CONTINUOUS
10
190.3324580000000026
20
-54.6261249999999947
11
190.4528599999999869
21
-54.5057179999999946
0
LINE
8
BLACK
6
CONTINUOUS
10
190.4528599999999869
20
-54.5057179999999946
11
190.4592659999999853
21
-54.5020189999999971
0
LINE
8
BLACK
6
CONTINUOUS
10
190.4592659999999853
20
-54.5020189999999971
11
195.2561649999999815
21
-49.702413
0
LINE
8
BLACK
6
CONTINUOUS
10
195.2561649999999815
20
-49.702413
11
195.2561889999999778
21
-49.7023919999999961
0
LINE
8
BLACK
6
CONTINUOUS
10
195.2561889999999778
20
-49.7023919999999961
11
195.517926999999986
21
-49.4651549999999958
0
LINE
8
BLACK
6
CONTINUOUS
10
195.517926999999986
20
-49.4651549999999958
11
195.8016879999999844
21
-49.2546959999999956
0
LINE
8
BLACK
6
CONTINUOUS
10
195.8016879999999844
20
-49.2546959999999956
11
196.1047130000000038
21
-49.0730669999999947
0
LINE
8
BLACK
6
CONTINUOUS
10
196.1047130000000038
20
-49.0730669999999947
11
196.424082999999996
21
-48.9220180000000013
0
LINE
8
BLACK
6
CONTINUOUS
10
196.424082999999996
20
-48.9220180000000013
11
196.7567209999999989
21
-48.8030019999999993
0
LINE
8
BLACK
6
CONTINUOUS
10
196.7567209999999989
20
-48.8030019999999993
11
197.0994239999999991
21
-48.7171669999999963
0
LINE
8
BLACK
6
CONTINUOUS
10
197.0994239999999991
20
-48.7171669999999963
11
197.4488899999999774
21
-48.6653389999999959
0
LINE
8
BLACK
6
CONTINUOUS
10
197.4488899999999774
20
-48.6653389999999959
11
197.8017539999999883
21
-48.6480169999999958
0
LINE
8
BLACK
6
CONTINUOUS
10
197.8017539999999883
20
-48.6480169999999958
11
197.8017539999999883
21
-48.6479980000000012
0
LINE
8
BLACK
6
CONTINUOUS
10
197.8017539999999883
20
-48.6479980000000012
11
197.8088850000000036
21
-48.649909000000001
0
LINE
8
BLACK
6
CONTINUOUS
10
197.8088850000000036
20
-48.649909000000001
11
202.9670820000000049
21
-48.6479980000000012
0
LINE
8
BLACK
6
CONTINUOUS
10
202.9670820000000049
20
-48.6479980000000012
11
203.3604249999999922
21
-48.6631879999999981
0
LINE
8
BLACK
6
CONTINUOUS
10
203.3604249999999922
20
-48.6631879999999981
11
203.7514259999999808
21
-48.7086690000000004
0
LINE
8
BLACK
6
CONTINUOUS
10
203.7514259999999808
20
-48.7086690000000004
11
204.137754000000001
21
-48.7841719999999981
0
LINE
8
BLACK
6
CONTINUOUS
10
204.137754000000001
20
-48.7841719999999981
11
204.5171090000000049
21
-48.889246
0
LINE
8
BLACK
6
CONTINUOUS
10
204.5171090000000049
20
-48.889246
11
204.8872289999999907
21
-49.0232639999999975
0
LINE
8
BLACK
6
CONTINUOUS
10
204.8872289999999907
20
-49.0232639999999975
11
205.2459099999999808
21
-49.1854299999999967
0
LINE
8
BLACK
6
CONTINUOUS
10
205.2459099999999808
20
-49.1854299999999967
11
205.5910159999999962
21
-49.3747759999999971
0
LINE
8
BLACK
6
CONTINUOUS
10
205.5910159999999962
20
-49.3747759999999971
11
205.5910109999999804
21
-49.3747849999999957
0
LINE
8
BLACK
6
CONTINUOUS
10
205.5910109999999804
20
-49.3747849999999957
11
205.5961569999999767
21
-49.3801069999999953
0
LINE
8
BLACK
6
CONTINUOUS
10
205.5961569999999767
20
-49.3801069999999953
11
214.6933689999999899
21
-54.8362029999999976
0
LINE
8
BLACK
6
CONTINUOUS
10
214.6933689999999899
20
-54.8362029999999976
11
214.693382999999983
21
-54.8362130000000008
0
LINE
8
BLACK
6
CONTINUOUS
10
214.693382999999983
20
-54.8362130000000008
11
215.4235769999999945
21
-55.2959279999999964
0
LINE
8
BLACK
6
CONTINUOUS
10
215.4235769999999945
20
-55.2959279999999964
11
216.1333809999999858
21
-55.7865699999999975
0
LINE
8
BLACK
6
CONTINUOUS
10
216.1333809999999858
20
-55.7865699999999975
11
216.8214739999999949
21
-56.3072230000000005
0
LINE
8
BLACK
6
CONTINUOUS
10
216.8214739999999949
20
-56.3072230000000005
11
217.4865869999999859
21
-56.8569290000000009
0
LINE
8
BLACK
6
CONTINUOUS
10
217.4865869999999859
20
-56.8569290000000009
11
218.1274939999999845
21
-57.434673999999994
0
LINE
8
BLACK
6
CONTINUOUS
10
218.1274939999999845
20
-57.434673999999994
11
218.7430139999999881
21
-58.0393939999999944
0
LINE
8
BLACK
6
CONTINUOUS
10
218.7430139999999881
20
-58.0393939999999944
11
219.3320119999999918
21
-58.6699750000000009
0
LINE
8
BLACK
6
CONTINUOUS
10
219.3320119999999918
20
-58.6699750000000009
11
219.8934040000000039
21
-59.3252539999999939
0
LINE
8
BLACK
6
CONTINUOUS
10
219.8934040000000039
20
-59.3252539999999939
11
220.4261549999999943
21
-60.004023999999994
0
LINE
8
BLACK
6
CONTINUOUS
10
220.4261549999999943
20
-60.004023999999994
11
220.9292820000000006
21
-60.7050330000000002
0
LINE
8
BLACK
6
CONTINUOUS
10
220.9292820000000006
20
-60.7050330000000002
11
221.4018590000000017
21
-61.4269899999999964
0
LINE
8
BLACK
6
CONTINUOUS
10
221.4018590000000017
20
-61.4269899999999964
11
221.8430149999999799
21
-62.1685649999999939
0
LINE
8
BLACK
6
CONTINUOUS
10
221.8430149999999799
20
-62.1685649999999939
11
222.2519369999999981
21
-62.9283900000000003
0
LINE
8
BLACK
6
CONTINUOUS
10
222.2519369999999981
20
-62.9283900000000003
11
222.627870999999999
21
-63.7050659999999951
0
LINE
8
BLACK
6
CONTINUOUS
10
222.627870999999999
20
-63.7050659999999951
11
222.9701239999999984
21
-64.4971609999999913
0
LINE
8
BLACK
6
CONTINUOUS
10
222.9701239999999984
20
-64.4971609999999913
11
223.278064999999998
21
-65.3032149999999945
0
LINE
8
BLACK
6
CONTINUOUS
10
223.278064999999998
20
-65.3032149999999945
11
223.5511279999999772
21
-66.1217439999999925
0
LINE
8
BLACK
6
CONTINUOUS
10
223.5511279999999772
20
-66.1217439999999925
11
223.7888079999999889
21
-66.9512369999999919
0
LINE
8
BLACK
6
CONTINUOUS
10
223.7888079999999889
20
-66.9512369999999919
11
223.9906679999999994
21
-67.7901669999999967
0
LINE
8
BLACK
6
CONTINUOUS
10
223.9906679999999994
20
-67.7901669999999967
11
224.1563369999999793
21
-68.6369880000000023
0
LINE
8
BLACK
6
CONTINUOUS
10
224.1563369999999793
20
-68.6369880000000023
11
224.2855069999999955
21
-69.4901389999999992
0
LINE
8
BLACK
6
CONTINUOUS
10
224.2855069999999955
20
-69.4901389999999992
11
224.3779419999999902
21
-70.3480479999999915
0
LINE
8
BLACK
6
CONTINUOUS
10
224.3779419999999902
20
-70.3480479999999915
11
224.4334709999999973
21
-71.2091329999999942
0
LINE
8
BLACK
6
CONTINUOUS
10
224.4334709999999973
20
-71.2091329999999942
11
224.45199199999999
21
-72.0718079999999901
0
LINE
8
BLACK
6
CONTINUOUS
10
224.45199199999999
20
-72.0718079999999901
11
224.4519999999999982
21
-72.0718079999999901
0
LINE
8
BLACK
6
CONTINUOUS
10
224.4519999999999982
20
-72.0718079999999901
11
224.4500789999999881
21
-72.0789740000000023
0
LINE
8
BLACK
6
CONTINUOUS
10
224.4500789999999881
20
-72.0789740000000023
11
224.4519999999999982
21
-135.7479999999999905
0
LINE
8
BLACK
6
CONTINUOUS
10
224.4519999999999982
20
-135.7479999999999905
11
224.4338109999999915
21
-136.4889220000000023
0
LINE
8
BLACK
6
CONTINUOUS
10
224.4338109999999915
20
-136.4889220000000023
11
224.379289
21
-137.2280590000000018
0
LINE
8
BLACK
6
CONTINUOUS
10
224.379289
20
-137.2280590000000018
11
224.2885649999999771
21
-137.9636299999999949
0
LINE
8
BLACK
6
CONTINUOUS
10
224.2885649999999771
20
-137.9636299999999949
11
224.1618579999999952
21
-138.6938639999999907
0
LINE
8
BLACK
6
CONTINUOUS
10
224.1618579999999952
20
-138.6938639999999907
11
223.9994719999999973
21
-139.4170009999999991
0
LINE
8
BLACK
6
CONTINUOUS
10
223.9994719999999973
20
-139.4170009999999991
11
223.8017989999999884
21
-140.1312989999999843
0
LINE
8
BLACK
6
CONTINUOUS
10
223.8017989999999884
20
-140.1312989999999843
11
223.5693149999999889
21
-140.8350369999999998
0
LINE
8
BLACK
6
CONTINUOUS
10
223.5693149999999889
20
-140.8350369999999998
11
223.3025810000000035
21
-141.526520000000005
0
LINE
8
BLACK
6
CONTINUOUS
10
223.3025810000000035
20
-141.526520000000005
11
223.0022379999999771
21
-142.2040819999999997
0
LINE
8
BLACK
6
CONTINUOUS
10
223.0022379999999771
20
-142.2040819999999997
11
222.6690109999999834
21
-142.8660909999999831
0
LINE
8
BLACK
6
CONTINUOUS
10
222.6690109999999834
20
-142.8660909999999831
11
222.303701999999987
21
-143.5109510000000057
0
LINE
8
BLACK
6
CONTINUOUS
10
222.303701999999987
20
-143.5109510000000057
11
221.9071909999999832
21
-144.1371110000000044
0
LINE
8
BLACK
6
CONTINUOUS
10
221.9071909999999832
20
-144.1371110000000044
11
221.4804340000000025
21
-144.7430589999999881
0
LINE
8
BLACK
6
CONTINUOUS
10
221.4804340000000025
20
-144.7430589999999881
11
221.0244579999999814
21
-145.3273389999999949
0
LINE
8
BLACK
6
CONTINUOUS
10
221.0244579999999814
20
-145.3273389999999949
11
220.5403619999999876
21
-145.8885400000000061
0
LINE
8
BLACK
6
CONTINUOUS
10
220.5403619999999876
20
-145.8885400000000061
11
220.029311999999976
21
-146.425311999999991
0
LINE
8
BLACK
6
CONTINUOUS
10
220.029311999999976
20
-146.425311999999991
11
219.4925399999999911
21
-146.9363620000000026
0
LINE
8
BLACK
6
CONTINUOUS
10
219.4925399999999911
20
-146.9363620000000026
11
218.9313389999999799
21
-147.4204579999999964
0
LINE
8
BLACK
6
CONTINUOUS
10
218.9313389999999799
20
-147.4204579999999964
11
218.3470590000000016
21
-147.8764339999999891
0
LINE
8
BLACK
6
CONTINUOUS
10
218.3470590000000016
20
-147.8764339999999891
11
217.7411109999999894
21
-148.3031909999999982
0
LINE
8
BLACK
6
CONTINUOUS
10
217.7411109999999894
20
-148.3031909999999982
11
217.1149509999999907
21
-148.699702000000002
0
LINE
8
BLACK
6
CONTINUOUS
10
217.1149509999999907
20
-148.699702000000002
11
216.4700909999999965
21
-149.0650109999999984
0
LINE
8
BLACK
6
CONTINUOUS
10
216.4700909999999965
20
-149.0650109999999984
11
215.8080819999999846
21
-149.3982379999999921
0
LINE
8
BLACK
6
CONTINUOUS
10
215.8080819999999846
20
-149.3982379999999921
11
215.13051999999999
21
-149.6985809999999901
0
LINE
8
BLACK
6
CONTINUOUS
10
215.13051999999999
20
-149.6985809999999901
11
214.4390369999999848
21
-149.9653150000000039
0
LINE
8
BLACK
6
CONTINUOUS
10
214.4390369999999848
20
-149.9653150000000039
11
213.7352989999999977
21
-150.1977990000000034
0
LINE
8
BLACK
6
CONTINUOUS
10
213.7352989999999977
20
-150.1977990000000034
11
213.0210009999999841
21
-150.3954719999999838
0
LINE
8
BLACK
6
CONTINUOUS
10
213.0210009999999841
20
-150.3954719999999838
11
212.2978640000000041
21
-150.5578579999999818
0
LINE
8
BLACK
6
CONTINUOUS
10
212.2978640000000041
20
-150.5578579999999818
11
211.5676299999999799
21
-150.6845649999999921
0
LINE
8
BLACK
6
CONTINUOUS
10
211.5676299999999799
20
-150.6845649999999921
11
210.8320589999999868
21
-150.7752889999999866
0
LINE
8
BLACK
6
CONTINUOUS
10
210.8320589999999868
20
-150.7752889999999866
11
210.0929219999999873
21
-150.8298110000000065
0
LINE
8
BLACK
6
CONTINUOUS
10
210.0929219999999873
20
-150.8298110000000065
11
209.3520000000000039
21
-150.8479999999999848
0
LINE
8
BLACK
6
CONTINUOUS
10
209.3520000000000039
20
-150.8479999999999848
11
209.3448569999999904
21
-150.8460859999999855
0
LINE
8
BLACK
6
CONTINUOUS
10
209.3448569999999904
20
-150.8460859999999855
11
202.3520000000000039
21
-150.8479999999999848
0
LINE
8
BLACK
6
CONTINUOUS
10
202.3520000000000039
20
-150.8479999999999848
11
201.9353749999999934
21
-150.8309539999999913
0
LINE
8
BLACK
6
CONTINUOUS
10
201.9353749999999934
20
-150.8309539999999913
11
201.5215350000000001
21
-150.7799310000000048
0
LINE
8
BLACK
6
CONTINUOUS
10
201.5215350000000001
20
-150.7799310000000048
11
201.1132460000000037
21
-150.6952709999999911
0
LINE
8
BLACK
6
CONTINUOUS
10
201.1132460000000037
20
-150.6952709999999911
11
200.7132379999999898
21
-150.5775399999999991
0
LINE
8
BLACK
6
CONTINUOUS
10
200.7132379999999898
20
-150.5775399999999991
11
200.3241840000000025
21
-150.4275260000000003
0
LINE
8
BLACK
6
CONTINUOUS
10
200.3241840000000025
20
-150.4275260000000003
11
199.9486859999999808
21
-150.2462309999999945
0
LINE
8
BLACK
6
CONTINUOUS
10
199.9486859999999808
20
-150.2462309999999945
11
199.5892519999999877
21
-150.0348669999999913
0
LINE
8
BLACK
6
CONTINUOUS
10
199.5892519999999877
20
-150.0348669999999913
11
199.2482870000000048
21
-149.7948460000000068
0
LINE
8
BLACK
6
CONTINUOUS
10
199.2482870000000048
20
-149.7948460000000068
11
198.9280689999999936
21
-149.5277739999999937
0
LINE
8
BLACK
6
CONTINUOUS
10
198.9280689999999936
20
-149.5277739999999937
11
198.6307379999999796
21
-149.2354359999999929
0
LINE
8
BLACK
6
CONTINUOUS
10
198.6307379999999796
20
-149.2354359999999929
11
198.3582830000000001
21
-148.9197859999999878
0
LINE
8
BLACK
6
CONTINUOUS
10
198.3582830000000001
20
-148.9197859999999878
11
198.1125239999999792
21
-148.582932999999997
0
LINE
8
BLACK
6
CONTINUOUS
10
198.1125239999999792
20
-148.582932999999997
11
197.8951050000000009
21
-148.2271299999999883
0
LINE
8
BLACK
6
CONTINUOUS
10
197.8951050000000009
20
-148.2271299999999883
11
197.7074779999999805
21
-147.8547549999999831
0
LINE
8
BLACK
6
CONTINUOUS
10
197.7074779999999805
20
-147.8547549999999831
11
197.7062669999999969
21
-147.8474410000000034
0
LINE
8
BLACK
6
CONTINUOUS
10
197.7062669999999969
20
-147.8474410000000034
11
187.7260569999999973
21
-125.8498519999999985
0
LINE
8
BLACK
6
CONTINUOUS
10
187.7260569999999973
20
-125.8498519999999985
11
187.7260559999999998
21
-125.849851000000001
0
LINE
8
BLACK
6
CONTINUOUS
10
187.7260559999999998
20
-125.849851000000001
11
187.7260440000000017
21
-125.8498559999999884
0
LINE
8
BLACK
6
CONTINUOUS
10
187.7260440000000017
20
-125.8498559999999884
11
187.6373759999999891
21
-125.6544419999999889
0
LINE
8
BLACK
6
CONTINUOUS
10
187.6373759999999891
20
-125.6544419999999889
11
187.4266010000000051
21
-125.2805839999999904
0
LINE
8
BLACK
6
CONTINUOUS
10
187.4266010000000051
20
-125.2805839999999904
11
187.1839499999999816
21
-124.9265839999999912
0
LINE
8
BLACK
6
CONTINUOUS
10
187.1839499999999816
20
-124.9265839999999912
11
186.9112810000000025
21
-124.5951519999999988
0
LINE
8
BLACK
6
CONTINUOUS
10
186.9112810000000025
20
-124.5951519999999988
11
186.6106809999999996
21
-124.2888260000000002
0
LINE
8
BLACK
6
CONTINUOUS
10
186.6106809999999996
20
-124.2888260000000002
11
186.2844519999999875
21
-124.0099529999999959
0
LINE
8
BLACK
6
CONTINUOUS
10
186.2844519999999875
20
-124.0099529999999959
11
185.9350929999999948
21
-123.7606660000000005
0
LINE
8
BLACK
6
CONTINUOUS
10
185.9350929999999948
20
-123.7606660000000005
11
185.565277999999978
21
-123.5428759999999926
0
LINE
8
BLACK
6
CONTINUOUS
10
185.565277999999978
20
-123.5428759999999926
11
185.1778400000000033
21
-123.3582490000000007
0
LINE
8
BLACK
6
CONTINUOUS
10
185.1778400000000033
20
-123.3582490000000007
11
184.7757440000000031
21
-123.2081999999999908
0
LINE
8
BLACK
6
CONTINUOUS
10
184.7757440000000031
20
-123.2081999999999908
11
184.3620699999999886
21
-123.0938779999999895
0
LINE
8
BLACK
6
CONTINUOUS
10
184.3620699999999886
20
-123.0938779999999895
11
183.9399860000000047
21
-123.0161569999999926
0
LINE
8
BLACK
6
CONTINUOUS
10
183.9399860000000047
20
-123.0161569999999926
11
183.512722999999994
21
-122.9756329999999878
0
LINE
8
BLACK
6
CONTINUOUS
10
183.512722999999994
20
-122.9756329999999878
11
183.0835539999999924
21
-122.9726169999999996
0
LINE
8
BLACK
6
CONTINUOUS
10
183.0835539999999924
20
-122.9726169999999996
11
182.6557640000000049
21
-123.0071299999999894
0
LINE
8
BLACK
6
CONTINUOUS
10
182.6557640000000049
20
-123.0071299999999894
11
182.2326290000000029
21
-123.0789099999999934
0
LINE
8
BLACK
6
CONTINUOUS
10
182.2326290000000029
20
-123.0789099999999934
11
181.8173889999999915
21
-123.1874069999999932
0
LINE
8
BLACK
6
CONTINUOUS
10
181.8173889999999915
20
-123.1874069999999932
11
181.6152969999999982
21
-123.259570999999994
0
LINE
8
BLACK
6
CONTINUOUS
10
181.6152969999999982
20
-123.259570999999994
11
181.6152960000000007
21
-123.2595699999999965
0
LINE
8
BLACK
6
CONTINUOUS
10
181.6152960000000007
20
-123.2595699999999965
11
181.6079279999999869
21
-123.260169999999988
0
LINE
8
BLACK
6
CONTINUOUS
10
181.6079279999999869
20
-123.260169999999988
11
175.2014049999999941
21
-125.5507609999999943
0
LINE
8
BLACK
6
CONTINUOUS
10
175.2014049999999941
20
-125.5507609999999943
11
175.201389000000006
21
-125.5507640000000009
0
LINE
8
BLACK
6
CONTINUOUS
10
175.201389000000006
20
-125.5507640000000009
11
174.8680689999999913
21
-125.6570999999999998
0
LINE
8
BLACK
6
CONTINUOUS
10
174.8680689999999913
20
-125.6570999999999998
11
174.528222999999997
21
-125.7403309999999976
0
LINE
8
BLACK
6
CONTINUOUS
10
174.528222999999997
20
-125.7403309999999976
11
174.1834680000000048
21
-125.8000599999999878
0
LINE
8
BLACK
6
CONTINUOUS
10
174.1834680000000048
20
-125.8000599999999878
11
173.8354300000000023
21
-125.8360059999999976
0
LINE
8
BLACK
6
CONTINUOUS
10
173.8354300000000023
20
-125.8360059999999976
11
173.4857449999999801
21
-125.847999999999999
0
LINE
8
BLACK
6
CONTINUOUS
10
173.4857449999999801
20
-125.847999999999999
11
173.4857449999999801
21
-125.8479989999999873
0
LINE
8
BLACK
6
CONTINUOUS
10
173.4857449999999801
20
-125.8479989999999873
11
173.4785799999999938
21
-125.8460789999999889
0
LINE
8
BLACK
6
CONTINUOUS
10
173.4785799999999938
20
-125.8460789999999889
11
125.21825299999999
21
-125.8479979999999898
0
LINE
8
BLACK
6
CONTINUOUS
10
125.21825299999999
20
-125.8479979999999898
11
125.21825299999999
21
-125.8479989999999873
0
LINE
8
BLACK
6
CONTINUOUS
10
125.21825299999999
20
-125.8479989999999873
11
125.2182519999999926
21
-125.8479979999999898
0
LINE
8
BLACK
6
CONTINUOUS
10
125.2182519999999926
20
-125.8479979999999898
11
125.2182499999999976
21
-125.8479989999999873
0
LINE
8
BLACK
6
CONTINUOUS
10
125.2182499999999976
20
-125.8479989999999873
11
125.2182479999999885
21
-125.8479979999999898
0
LINE
8
BLACK
6
CONTINUOUS
10
125.2182479999999885
20
-125.8479979999999898
11
124.8685699999999912
21
-125.8360050000000001
0
LINE
8
BLACK
6
CONTINUOUS
10
124.8685699999999912
20
-125.8360050000000001
11
124.5205330000000004
21
-125.8000569999999954
0
LINE
8
BLACK
6
CONTINUOUS
10
124.5205330000000004
20
-125.8000569999999954
11
124.1757799999999889
21
-125.740325999999996
0
LINE
8
BLACK
6
CONTINUOUS
10
124.1757799999999889
20
-125.740325999999996
11
123.8359349999999921
21
-125.657092999999989
0
LINE
8
BLACK
6
CONTINUOUS
10
123.8359349999999921
20
-125.657092999999989
11
123.5025989999999894
21
-125.5507479999999987
0
LINE
8
BLACK
6
CONTINUOUS
10
123.5025989999999894
20
-125.5507479999999987
11
123.5025939999999878
21
-125.5507609999999943
0
LINE
8
BLACK
6
CONTINUOUS
10
123.5025939999999878
20
-125.5507609999999943
11
123.496514999999988
21
-125.5465579999999903
0
LINE
8
BLACK
6
CONTINUOUS
10
123.496514999999988
20
-125.5465579999999903
11
117.0887039999999928
21
-123.2595809999999972
0
LINE
8
BLACK
6
CONTINUOUS
10
117.0887039999999928
20
-123.2595809999999972
11
117.0887029999999953
21
-123.2595809999999972
0
LINE
8
BLACK
6
CONTINUOUS
10
117.0887029999999953
20
-123.2595809999999972
11
117.0887029999999953
21
-123.2595799999999997
0
LINE
8
BLACK
6
CONTINUOUS
10
117.0887029999999953
20
-123.2595799999999997
11
117.0887010000000004
21
-123.2595799999999997
0
LINE
8
BLACK
6
CONTINUOUS
10
117.0887010000000004
20
-123.2595799999999997
11
117.0883829999999932
21
-123.2594289999999972
0
LINE
8
BLACK
6
CONTINUOUS
10
117.0883829999999932
20
-123.2594289999999972
11
116.8866199999999935
21
-123.187390999999991
0
LINE
8
BLACK
6
CONTINUOUS
10
116.8866199999999935
20
-123.187390999999991
11
116.4713780000000014
21
-123.0789059999999893
0
LINE
8
BLACK
6
CONTINUOUS
10
116.4713780000000014
20
-123.0789059999999893
11
116.0482419999999877
21
-123.0071370000000002
0
LINE
8
BLACK
6
CONTINUOUS
10
116.0482419999999877
20
-123.0071370000000002
11
115.6204520000000002
21
-122.9726329999999876
0
LINE
8
BLACK
6
CONTINUOUS
10
115.6204520000000002
20
-122.9726329999999876
11
115.1912829999999985
21
-122.9756579999999957
0
LINE
8
BLACK
6
CONTINUOUS
10
115.1912829999999985
20
-122.9756579999999957
11
114.7640219999999971
21
-123.0161879999999996
0
LINE
8
BLACK
6
CONTINUOUS
10
114.7640219999999971
20
-123.0161879999999996
11
114.3419389999999964
21
-123.0939139999999981
0
LINE
8
BLACK
6
CONTINUOUS
10
114.3419389999999964
20
-123.0939139999999981
11
113.9282669999999911
21
-123.2082399999999893
0
LINE
8
BLACK
6
CONTINUOUS
10
113.9282669999999911
20
-123.2082399999999893
11
113.526173
21
-123.3582909999999941
0
LINE
8
BLACK
6
CONTINUOUS
10
113.526173
20
-123.3582909999999941
11
113.1387359999999944
21
-123.5429180000000002
0
LINE
8
BLACK
6
CONTINUOUS
10
113.1387359999999944
20
-123.5429180000000002
11
112.7689209999999917
21
-123.7607069999999965
0
LINE
8
BLACK
6
CONTINUOUS
10
112.7689209999999917
20
-123.7607069999999965
11
112.4195610000000016
21
-124.0099919999999969
0
LINE
8
BLACK
6
CONTINUOUS
10
112.4195610000000016
20
-124.0099919999999969
11
112.0933309999999921
21
-124.2888619999999946
0
LINE
8
BLACK
6
CONTINUOUS
10
112.0933309999999921
20
-124.2888619999999946
11
111.7927279999999968
21
-124.5951839999999891
0
LINE
8
BLACK
6
CONTINUOUS
10
111.7927279999999968
20
-124.5951839999999891
11
111.5200549999999993
21
-124.9266109999999941
0
LINE
8
BLACK
6
CONTINUOUS
10
111.5200549999999993
20
-124.9266109999999941
11
111.2773979999999909
21
-125.2806059999999917
0
LINE
8
BLACK
6
CONTINUOUS
10
111.2773979999999909
20
-125.2806059999999917
11
111.0666149999999988
21
-125.6544589999999886
0
LINE
8
BLACK
6
CONTINUOUS
10
111.0666149999999988
20
-125.6544589999999886
11
110.9779429999999962
21
-125.8498709999999932
0
LINE
8
BLACK
6
CONTINUOUS
10
110.9779429999999962
20
-125.8498709999999932
11
110.9732369999999975
21
-125.855598999999998
0
LINE
8
BLACK
6
CONTINUOUS
10
110.9732369999999975
20
-125.855598999999998
11
100.9965759999999904
21
-147.8547449999999799
0
LINE
8
BLACK
6
CONTINUOUS
10
100.9965759999999904
20
-147.8547449999999799
11
100.9965759999999904
21
-147.8547460000000058
0
LINE
8
BLACK
6
CONTINUOUS
10
100.9965759999999904
20
-147.8547460000000058
11
100.8089530000000025
21
-148.2271259999999984
0
LINE
8
BLACK
6
CONTINUOUS
10
100.8089530000000025
20
-148.2271259999999984
11
100.5915370000000024
21
-148.5829339999999945
0
LINE
8
BLACK
6
CONTINUOUS
10
100.5915370000000024
20
-148.5829339999999945
11
100.3457810000000023
21
-148.9197910000000036
0
LINE
8
BLACK
6
CONTINUOUS
10
100.3457810000000023
20
-148.9197910000000036
11
100.0733269999999919
21
-149.235445999999996
0
LINE
8
BLACK
6
CONTINUOUS
10
100.0733269999999919
20
-149.235445999999996
11
99.7759969999999896
21
-149.5277879999999868
0
LINE
8
BLACK
6
CONTINUOUS
10
99.7759969999999896
20
-149.5277879999999868
11
99.4557789999999926
21
-149.7948629999999923
0
LINE
8
BLACK
6
CONTINUOUS
10
99.4557789999999926
20
-149.7948629999999923
11
99.1148129999999981
21
-150.0348860000000002
0
LINE
8
BLACK
6
CONTINUOUS
10
99.1148129999999981
20
-150.0348860000000002
11
98.7553779999999932
21
-150.2462519999999984
0
LINE
8
BLACK
6
CONTINUOUS
10
98.7553779999999932
20
-150.2462519999999984
11
98.3798769999999934
21
-150.4275480000000016
0
LINE
8
BLACK
6
CONTINUOUS
10
98.3798769999999934
20
-150.4275480000000016
11
97.9908209999999968
21
-150.5775620000000004
0
LINE
8
BLACK
6
CONTINUOUS
10
97.9908209999999968
20
-150.5775620000000004
11
97.5908110000000022
21
-150.6952919999999949
0
LINE
8
BLACK
6
CONTINUOUS
10
97.5908110000000022
20
-150.6952919999999949
11
97.1825189999999992
21
-150.7799499999999853
0
LINE
8
BLACK
6
CONTINUOUS
10
97.1825189999999992
20
-150.7799499999999853
11
96.7686759999999992
21
-150.8309710000000052
0
LINE
8
BLACK
6
CONTINUOUS
10
96.7686759999999992
20
-150.8309710000000052
11
96.3520489999999938
21
-150.8480129999999804
0
LINE
8
BLACK
6
CONTINUOUS
10
96.3520489999999938
20
-150.8480129999999804
11
96.3520489999999938
21
-150.8479999999999848
0
LINE
8
BLACK
6
CONTINUOUS
10
96.3520489999999938
20
-150.8479999999999848
11
96.3449069999999921
21
-150.8460859999999855
0
LINE
8
BLACK
6
CONTINUOUS
10
96.3449069999999921
20
-150.8460859999999855
11
89.3519999999999897
21
-150.8479999999999848
0
LINE
8
BLACK
6
CONTINUOUS
10
89.3519999999999897
20
-150.8479999999999848
11
88.611077999999992
21
-150.8298110000000065
0
LINE
8
BLACK
6
CONTINUOUS
10
88.611077999999992
20
-150.8298110000000065
11
87.8719409999999925
21
-150.7752889999999866
0
LINE
8
BLACK
6
CONTINUOUS
10
87.8719409999999925
20
-150.7752889999999866
11
87.1363699999999994
21
-150.6845649999999921
0
LINE
8
BLACK
6
CONTINUOUS
10
87.1363699999999994
20
-150.6845649999999921
11
86.4061359999999894
21
-150.5578579999999818
0
LINE
8
BLACK
6
CONTINUOUS
10
86.4061359999999894
20
-150.5578579999999818
11
85.6829989999999952
21
-150.3954719999999838
0
LINE
8
BLACK
6
CONTINUOUS
10
85.6829989999999952
20
-150.3954719999999838
11
84.9687009999999958
21
-150.1977990000000034
0
LINE
8
BLACK
6
CONTINUOUS
10
84.9687009999999958
20
-150.1977990000000034
11
84.2649629999999945
21
-149.9653150000000039
0
LINE
8
BLACK
6
CONTINUOUS
10
84.2649629999999945
20
-149.9653150000000039
11
83.5734799999999893
21
-149.6985809999999901
0
LINE
8
BLACK
6
CONTINUOUS
10
83.5734799999999893
20
-149.6985809999999901
11
82.8959179999999947
21
-149.3982379999999921
0
LINE
8
BLACK
6
CONTINUOUS
10
82.8959179999999947
20
-149.3982379999999921
11
82.233908999999997
21
-149.0650109999999984
0
LINE
8
BLACK
6
CONTINUOUS
10
82.233908999999997
20
-149.0650109999999984
11
81.5890490000000028
21
-148.699702000000002
0
LINE
8
BLACK
6
CONTINUOUS
10
81.5890490000000028
20
-148.699702000000002
11
80.9628889999999899
21
-148.3031909999999982
0
LINE
8
BLACK
6
CONTINUOUS
10
80.9628889999999899
20
-148.3031909999999982
11
80.356940999999992
21
-147.8764339999999891
0
LINE
8
BLACK
6
CONTINUOUS
10
80.356940999999992
20
-147.8764339999999891
11
79.7726609999999994
21
-147.4204579999999964
0
LINE
8
BLACK
6
CONTINUOUS
10
79.7726609999999994
20
-147.4204579999999964
11
79.2114600000000024
21
-146.9363620000000026
0
LINE
8
BLACK
6
CONTINUOUS
10
79.2114600000000024
20
-146.9363620000000026
11
78.6746880000000033
21
-146.425311999999991
0
LINE
8
BLACK
6
CONTINUOUS
10
78.6746880000000033
20
-146.425311999999991
11
78.1636379999999917
21
-145.8885400000000061
0
LINE
8
BLACK
6
CONTINUOUS
10
78.1636379999999917
20
-145.8885400000000061
11
77.6795419999999979
21
-145.3273389999999949
0
LINE
8
BLACK
6
CONTINUOUS
10
77.6795419999999979
20
-145.3273389999999949
11
77.223565999999991
21
-144.7430589999999881
0
LINE
8
BLACK
6
CONTINUOUS
10
77.223565999999991
20
-144.7430589999999881
11
76.7968089999999961
21
-144.1371110000000044
0
LINE
8
BLACK
6
CONTINUOUS
10
76.7968089999999961
20
-144.1371110000000044
11
76.4002979999999923
21
-143.5109510000000057
0
LINE
8
BLACK
6
CONTINUOUS
10
76.4002979999999923
20
-143.5109510000000057
11
76.0349889999999959
21
-142.8660909999999831
0
LINE
8
BLACK
6
CONTINUOUS
10
76.0349889999999959
20
-142.8660909999999831
11
75.7017620000000022
21
-142.2040819999999997
0
LINE
8
BLACK
6
CONTINUOUS
10
75.7017620000000022
20
-142.2040819999999997
11
75.40141899999999
21
-141.526520000000005
0
LINE
8
BLACK
6
CONTINUOUS
10
75.40141899999999
20
-141.526520000000005
11
75.1346849999999904
21
-140.8350369999999998
0
LINE
8
BLACK
6
CONTINUOUS
10
75.1346849999999904
20
-140.8350369999999998
11
74.9022009999999909
21
-140.1312989999999843
0
LINE
8
BLACK
6
CONTINUOUS
10
74.9022009999999909
20
-140.1312989999999843
11
74.7045279999999963
21
-139.4170009999999991
0
LINE
8
BLACK
6
CONTINUOUS
10
74.7045279999999963
20
-139.4170009999999991
11
74.5421419999999983
21
-138.6938639999999907
0
LINE
8
BLACK
6
CONTINUOUS
10
74.5421419999999983
20
-138.6938639999999907
11
74.4154350000000022
21
-137.9636299999999949
0
LINE
8
BLACK
6
CONTINUOUS
10
74.4154350000000022
20
-137.9636299999999949
11
74.3247109999999935
21
-137.2280590000000018
0
LINE
8
BLACK
6
CONTINUOUS
10
74.3247109999999935
20
-137.2280590000000018
11
74.270189000000002
21
-136.4889220000000023
0
LINE
8
BLACK
6
CONTINUOUS
10
74.270189000000002
20
-136.4889220000000023
11
74.2519999999999953
21
-135.7479999999999905
0
LINE
8
BLACK
6
CONTINUOUS
10
74.2519999999999953
20
-135.7479999999999905
11
74.2539199999999937
21
-135.7408329999999808
0
LINE
8
BLACK
6
CONTINUOUS
10
74.2539199999999937
20
-135.7408329999999808
11
74.2519999999999953
21
-72.0718079999999901
0
LINE
8
BLACK
6
CONTINUOUS
10
74.2519999999999953
20
-72.0718079999999901
11
74.2705210000000022
21
-71.2091319999999968
0
LINE
8
BLACK
6
CONTINUOUS
10
74.2705210000000022
20
-71.2091319999999968
11
74.3260499999999951
21
-70.348046999999994
0
LINE
8
BLACK
6
CONTINUOUS
10
74.3260499999999951
20
-70.348046999999994
11
74.4184849999999898
21
-69.4901380000000017
0
LINE
8
BLACK
6
CONTINUOUS
10
74.4184849999999898
20
-69.4901380000000017
11
74.5476560000000035
21
-68.6369859999999932
0
LINE
8
BLACK
6
CONTINUOUS
10
74.5476560000000035
20
-68.6369859999999932
11
74.7133240000000001
21
-67.7901650000000018
0
LINE
8
BLACK
6
CONTINUOUS
10
74.7133240000000001
20
-67.7901650000000018
11
74.9151839999999964
21
-66.9512339999999995
0
LINE
8
BLACK
6
CONTINUOUS
10
74.9151839999999964
20
-66.9512339999999995
11
75.1528649999999914
21
-66.1217400000000026
0
LINE
8
BLACK
6
CONTINUOUS
10
75.1528649999999914
20
-66.1217400000000026
11
75.425927999999999
21
-65.303212000000002
0
LINE
8
BLACK
6
CONTINUOUS
10
75.425927999999999
20
-65.303212000000002
11
75.7338689999999986
21
-64.4971570000000014
0
LINE
8
BLACK
6
CONTINUOUS
10
75.7338689999999986
20
-64.4971570000000014
11
76.0761229999999955
21
-63.7050619999999981
0
LINE
8
BLACK
6
CONTINUOUS
10
76.0761229999999955
20
-63.7050619999999981
11
76.4520569999999964
21
-62.9283859999999962
0
LINE
8
BLACK
6
CONTINUOUS
10
76.4520569999999964
20
-62.9283859999999962
11
76.8609780000000029
21
-62.1685599999999994
0
LINE
8
BLACK
6
CONTINUOUS
10
76.8609780000000029
20
-62.1685599999999994
11
77.3021349999999927
21
-61.4269849999999948
0
LINE
8
BLACK
6
CONTINUOUS
10
77.3021349999999927
20
-61.4269849999999948
11
77.7747119999999938
21
-60.7050269999999941
0
LINE
8
BLACK
6
CONTINUOUS
10
77.7747119999999938
20
-60.7050269999999941
11
78.2778399999999976
21
-60.004017999999995
0
LINE
8
BLACK
6
CONTINUOUS
10
78.2778399999999976
20
-60.004017999999995
11
78.8105910000000023
21
-59.3252479999999949
0
LINE
8
BLACK
6
CONTINUOUS
10
78.8105910000000023
20
-59.3252479999999949
11
79.3719830000000002
21
-58.6699679999999972
0
LINE
8
BLACK
6
CONTINUOUS
10
79.3719830000000002
20
-58.6699679999999972
11
79.9609820000000013
21
-58.0393869999999978
0
LINE
8
BLACK
6
CONTINUOUS
10
79.9609820000000013
20
-58.0393869999999978
11
80.5765019999999907
21
-57.4346669999999975
0
LINE
8
BLACK
6
CONTINUOUS
10
80.5765019999999907
20
-57.4346669999999975
11
81.217410000000001
21
-56.8569209999999998
0
LINE
8
BLACK
6
CONTINUOUS
10
81.217410000000001
20
-56.8569209999999998
11
81.882522999999992
21
-56.3072149999999993
0
LINE
8
BLACK
6
CONTINUOUS
10
81.882522999999992
20
-56.3072149999999993
11
82.5706160000000011
21
-55.7865619999999964
0
LINE
8
BLACK
6
CONTINUOUS
10
82.5706160000000011
20
-55.7865619999999964
11
83.2804209999999898
21
-55.2959199999999953
0
LINE
8
BLACK
6
CONTINUOUS
10
83.2804209999999898
20
-55.2959199999999953
11
84.0106299999999919
21
-54.8361949999999965
0
LINE
8
BLACK
6
CONTINUOUS
10
84.0106299999999919
20
-54.8361949999999965
11
84.0106329999999986
21
-54.8362009999999955
0
LINE
8
BLACK
6
CONTINUOUS
10
84.0106329999999986
20
-54.8362009999999955
11
84.0177499999999924
21
-54.8341639999999941
0
LINE
8
BLACK
6
CONTINUOUS
10
84.0177499999999924
20
-54.8341639999999941
11
93.1129909999999938
21
-49.3747849999999957
0
LINE
8
BLACK
6
CONTINUOUS
10
93.1129909999999938
20
-49.3747849999999957
11
93.113002999999992
21
-49.3747789999999966
0
LINE
8
BLACK
6
CONTINUOUS
10
93.113002999999992
20
-49.3747789999999966
11
93.458092999999991
21
-49.1854329999999962
0
LINE
8
BLACK
6
CONTINUOUS
10
93.458092999999991
20
-49.1854329999999962
11
93.8167729999999978
21
-49.023260999999998
0
LINE
8
BLACK
6
CONTINUOUS
10
93.8167729999999978
20
-49.023260999999998
11
94.1868929999999978
21
-48.8892369999999943
0
LINE
8
BLACK
6
CONTINUOUS
10
94.1868929999999978
20
-48.8892369999999943
11
94.56624699999999
21
-48.78416
0
LINE
8
BLACK
6
CONTINUOUS
10
94.56624699999999
20
-48.78416
11
94.9525759999999934
21
-48.7086539999999957
0
LINE
8
BLACK
6
CONTINUOUS
10
94.9525759999999934
20
-48.7086539999999957
11
95.3435779999999937
21
-48.6631709999999984
0
LINE
8
BLACK
6
CONTINUOUS
10
95.3435779999999937
20
-48.6631709999999984
11
95.7369229999999902
21
-48.6479809999999944
0
LINE
8
BLACK
6
CONTINUOUS
10
95.7369229999999902
20
-48.6479809999999944
11
95.7369229999999902
21
-48.6479989999999987
0
LINE
8
BLACK
6
CONTINUOUS
10
95.7369229999999902
20
-48.6479989999999987
11
95.7440549999999888
21
-48.6499099999999984
0
LINE
8
BLACK
6
CONTINUOUS
10
95.7440549999999888
20
-48.6499099999999984
11
100.9022530000000017
21
-48.6480019999999982
0
LINE
8
BLACK
6
CONTINUOUS
10
100.9022530000000017
20
-48.6480019999999982
11
100.9022549999999967
21
-48.6480019999999982
0
LINE
8
BLACK
6
CONTINUOUS
10
100.9022549999999967
20
-48.6480019999999982
11
100.9022569999999916
21
-48.6480019999999982
0
LINE
8
BLACK
6
CONTINUOUS
10
100.9022569999999916
20
-48.6480019999999982
11
101.2551149999999893
21
-48.6653499999999966
0
LINE
8
BLACK
6
CONTINUOUS
10
101.2551149999999893
20
-48.6653499999999966
11
101.6045739999999995
21
-48.7171969999999988
0
LINE
8
BLACK
6
CONTINUOUS
10
101.6045739999999995
20
-48.7171969999999988
11
101.947269999999989
21
-48.8030429999999953
0
LINE
8
BLACK
6
CONTINUOUS
10
101.947269999999989
20
-48.8030429999999953
11
102.2799019999999928
21
-48.9220609999999994
0
LINE
8
BLACK
6
CONTINUOUS
10
102.2799019999999928
20
-48.9220609999999994
11
102.599267999999995
21
-49.0731070000000003
0
LINE
8
BLACK
6
CONTINUOUS
10
102.599267999999995
20
-49.0731070000000003
11
102.9022939999999977
21
-49.2547250000000005
0
LINE
8
BLACK
6
CONTINUOUS
10
102.9022939999999977
20
-49.2547250000000005
11
103.1860609999999951
21
-49.465167000000001
0
LINE
8
BLACK
6
CONTINUOUS
10
103.1860609999999951
20
-49.465167000000001
11
103.4478379999999902
21
-49.7024059999999963
0
LINE
8
BLACK
6
CONTINUOUS
10
103.4478379999999902
20
-49.7024059999999963
11
103.4478309999999937
21
-49.702413
0
LINE
8
BLACK
6
CONTINUOUS
10
103.4478309999999937
20
-49.702413
11
103.4515289999999936
21
-49.7088169999999963
0
LINE
8
BLACK
6
CONTINUOUS
10
103.4515289999999936
20
-49.7088169999999963
11
108.2511389999999949
21
-54.5057179999999946
0
LINE
8
BLACK
6
CONTINUOUS
10
108.2511389999999949
20
-54.5057179999999946
11
108.2511619999999937
21
-54.5056949999999958
0
LINE
8
BLACK
6
CONTINUOUS
10
108.2511619999999937
20
-54.5056949999999958
11
108.3715649999999897
21
-54.626100000000001
0
LINE
8
BLACK
6
CONTINUOUS
10
108.3715649999999897
20
-54.626100000000001
11
108.632442999999995
21
-54.8450050000000005
0
LINE
8
BLACK
6
CONTINUOUS
10
108.632442999999995
20
-54.8450050000000005
11
108.9114059999999995
21
-55.040340999999998
0
LINE
8
BLACK
6
CONTINUOUS
10
108.9114059999999995
20
-55.040340999999998
11
109.2063330000000008
21
-55.2106209999999962
0
LINE
8
BLACK
6
CONTINUOUS
10
109.2063330000000008
20
-55.2106209999999962
11
109.5149779999999993
21
-55.3545479999999941
0
LINE
8
BLACK
6
CONTINUOUS
10
109.5149779999999993
20
-55.3545479999999941
11
109.8349929999999972
21
-55.4710269999999994
0
LINE
8
BLACK
6
CONTINUOUS
10
109.8349929999999972
20
-55.4710269999999994
11
110.1639419999999916
21
-55.5591729999999941
0
LINE
8
BLACK
6
CONTINUOUS
10
110.1639419999999916
20
-55.5591729999999941
11
110.4993209999999948
21
-55.6183130000000006
0
LINE
8
BLACK
6
CONTINUOUS
10
110.4993209999999948
20
-55.6183130000000006
11
110.8385779999999983
21
-55.6479979999999941
0
LINE
8
BLACK
6
CONTINUOUS
10
110.8385779999999983
20
-55.6479979999999941
11
111.0088549999999969
21
-55.6479999999999961
0
LINE
8
BLACK
6
CONTINUOUS
10
111.0088549999999969
20
-55.6479999999999961
11
111.015987999999993
21
-55.6499109999999959
0
LINE
8
BLACK
6
CONTINUOUS
10
111.015987999999993
20
-55.6499109999999959
11
116.3242439999999931
21
-55.6479999999999961
0
LINE
8
BLACK
6
CONTINUOUS
10
116.3242439999999931
20
-55.6479999999999961
11
116.3242449999999906
21
-55.6479999999999961
0
LINE
8
BLACK
6
CONTINUOUS
10
116.3242449999999906
20
-55.6479999999999961
11
116.324245999999988
21
-55.6479999999999961
0
LINE
8
BLACK
6
CONTINUOUS
10
116.324245999999988
20
-55.6479999999999961
11
116.324245999999988
21
-55.6479969999999966
0
LINE
8
BLACK
6
CONTINUOUS
10
116.324245999999988
20
-55.6479969999999966
11
116.6153909999999883
21
-55.6479889999999955
0
LINE
8
BLACK
6
CONTINUOUS
10
116.6153909999999883
20
-55.6479889999999955
11
117.196674999999999
21
-55.6137769999999989
0
LINE
8
BLACK
6
CONTINUOUS
10
117.196674999999999
20
-55.6137769999999989
11
117.7749439999999908
21
-55.545462999999998
0
LINE
8
BLACK
6
CONTINUOUS
10
117.7749439999999908
20
-55.545462999999998
11
118.3481979999999965
21
-55.4432819999999964
0
LINE
8
BLACK
6
CONTINUOUS
10
118.3481979999999965
20
-55.4432819999999964
11
118.9144569999999987
21
-55.3075879999999955
0
LINE
8
BLACK
6
CONTINUOUS
10
118.9144569999999987
20
-55.3075879999999955
11
119.4717619999999982
21
-55.1388499999999979
0
LINE
8
BLACK
6
CONTINUOUS
10
119.4717619999999982
20
-55.1388499999999979
11
120.018187999999995
21
-54.9376509999999953
0
LINE
8
BLACK
6
CONTINUOUS
10
120.018187999999995
20
-54.9376509999999953
11
120.5518439999999885
21
-54.7046859999999953
0
LINE
8
BLACK
6
CONTINUOUS
10
120.5518439999999885
20
-54.7046859999999953
11
121.070886999999999
21
-54.4407619999999994
0
LINE
8
BLACK
6
CONTINUOUS
10
121.070886999999999
20
-54.4407619999999994
11
121.5735229999999945
21
-54.1467899999999958
0
LINE
8
BLACK
6
CONTINUOUS
10
121.5735229999999945
20
-54.1467899999999958
11
121.8157739999999905
21
-53.9852980000000002
0
LINE
8
BLACK
6
CONTINUOUS
10
121.8157739999999905
20
-53.9852980000000002
11
121.8157749999999879
21
-53.9852989999999977
0
LINE
8
BLACK
6
CONTINUOUS
10
121.8157749999999879
20
-53.9852989999999977
11
121.8227890000000002
21
-53.9829249999999945
0
LINE
8
BLACK
6
CONTINUOUS
10
121.8227890000000002
20
-53.9829249999999945
11
131.7772839999999803
21
-47.3442919999999958
0
LINE
8
BLACK
6
CONTINUOUS
10
131.7772839999999803
20
-47.3442919999999958
11
131.7772879999999986
21
-47.3442889999999963
0
LINE
8
BLACK
6
CONTINUOUS
10
131.7772879999999986
20
-47.3442889999999963
11
132.2808179999999822
21
-47.0295729999999992
0
LINE
8
BLACK
6
CONTINUOUS
10
132.2808179999999822
20
-47.0295729999999992
11
132.8019779999999912
21
-46.7449879999999993
0
LINE
8
BLACK
6
CONTINUOUS
10
132.8019779999999912
20
-46.7449879999999993
11
133.3389619999999809
21
-46.4915239999999983
0
LINE
8
BLACK
6
CONTINUOUS
10
133.3389619999999809
20
-46.4915239999999983
11
133.889915000000002
21
-46.2700570000000013
0
LINE
8
BLACK
6
CONTINUOUS
10
133.889915000000002
20
-46.2700570000000013
11
134.4529299999999807
21
-46.081350999999998
0
LINE
8
BLACK
6
CONTINUOUS
10
134.4529299999999807
20
-46.081350999999998
11
135.026061999999996
21
-45.9260589999999951
0
LINE
8
BLACK
6
CONTINUOUS
10
135.026061999999996
20
-45.9260589999999951
11
135.6073309999999879
21
-45.8047189999999986
0
LINE
8
BLACK
6
CONTINUOUS
10
135.6073309999999879
20
-45.8047189999999986
11
136.1947250000000054
21
-45.7177489999999977
0
LINE
8
BLACK
6
CONTINUOUS
10
136.1947250000000054
20
-45.7177489999999977
11
136.786215999999996
21
-45.6654499999999999
0
LINE
8
BLACK
6
CONTINUOUS
10
136.786215999999996
20
-45.6654499999999999
11
137.3797579999999812
21
-45.6480029999999957
0
LINE
8
BLACK
6
CONTINUOUS
10
137.3797579999999812
20
-45.6480029999999957
11
137.3797579999999812
21
-45.6479999999999961
0
LINE
8
BLACK
6
CONTINUOUS
10
137.3797579999999812
20
-45.6479999999999961
11
137.3869179999999801
21
-45.6499179999999996
0
LINE
8
BLACK
6
CONTINUOUS
10
137.3869179999999801
20
-45.6499179999999996
11
161.3242439999999931
21
-45.6479999999999961
0
LINE
8
BLACK
6
CONTINUOUS
10
161.3242439999999931
20
-45.6479999999999961
11
161.9177839999999833
21
-45.665458000000001
0
LINE
8
BLACK
6
CONTINUOUS
10
137.3797559999999862
20
-45.847999999999999
11
137.3797539999999913
21
-45.8479989999999944
0
LINE
8
BLACK
6
CONTINUOUS
10
137.3797539999999913
20
-45.8479989999999944
11
137.3797539999999913
21
-45.847999999999999
0
LINE
8
BLACK
6
CONTINUOUS
10
137.3797539999999913
20
-45.847999999999999
11
137.3797539999999913
21
-45.8480029999999985
0
LINE
8
BLACK
6
CONTINUOUS
10
137.3797539999999913
20
-45.8480029999999985
11
137.0886089999999911
21
-45.8480109999999996
0
LINE
8
BLACK
6
CONTINUOUS
10
137.0886089999999911
20
-45.8480109999999996
11
136.5073249999999803
21
-45.8822229999999962
0
LINE
8
BLACK
6
CONTINUOUS
10
136.5073249999999803
20
-45.8822229999999962
11
135.9290560000000028
21
-45.9505369999999971
0
LINE
8
BLACK
6
CONTINUOUS
10
135.9290560000000028
20
-45.9505369999999971
11
135.3558019999999829
21
-46.0527179999999987
0
LINE
8
BLACK
6
CONTINUOUS
10
135.3558019999999829
20
-46.0527179999999987
11
134.7895429999999806
21
-46.1884119999999996
0
LINE
8
BLACK
6
CONTINUOUS
10
134.7895429999999806
20
-46.1884119999999996
11
134.2322379999999953
21
-46.3571499999999972
0
LINE
8
BLACK
6
CONTINUOUS
10
134.2322379999999953
20
-46.3571499999999972
11
133.6858119999999985
21
-46.5583489999999998
0
LINE
8
BLACK
6
CONTINUOUS
10
133.6858119999999985
20
-46.5583489999999998
11
133.1521559999999909
21
-46.7913139999999999
0
LINE
8
BLACK
6
CONTINUOUS
10
133.1521559999999909
20
-46.7913139999999999
11
132.6331129999999803
21
-47.0552379999999957
0
LINE
8
BLACK
6
CONTINUOUS
10
132.6331129999999803
20
-47.0552379999999957
11
132.1304769999999849
21
-47.3492099999999994
0
LINE
8
BLACK
6
CONTINUOUS
10
132.1304769999999849
20
-47.3492099999999994
11
131.8882260000000031
21
-47.5107019999999949
0
LINE
8
BLACK
6
CONTINUOUS
10
131.8882260000000031
20
-47.5107019999999949
11
131.8882250000000056
21
-47.5107009999999974
0
LINE
8
BLACK
6
CONTINUOUS
10
131.8882250000000056
20
-47.5107009999999974
11
131.8812099999999816
21
-47.513073999999996
0
LINE
8
BLACK
6
CONTINUOUS
10
131.8812099999999816
20
-47.513073999999996
11
121.926715999999999
21
-54.1517079999999993
0
LINE
8
BLACK
6
CONTINUOUS
10
121.926715999999999
20
-54.1517079999999993
11
121.9267109999999974
21
-54.1517099999999942
0
LINE
8
BLACK
6
CONTINUOUS
10
121.9267109999999974
20
-54.1517099999999942
11
121.4231819999999971
21
-54.4664269999999959
0
LINE
8
BLACK
6
CONTINUOUS
10
121.4231819999999971
20
-54.4664269999999959
11
120.9020219999999881
21
-54.7510119999999958
0
LINE
8
BLACK
6
CONTINUOUS
10
120.9020219999999881
20
-54.7510119999999958
11
120.3650379999999984
21
-55.0044759999999968
0
LINE
8
BLACK
6
CONTINUOUS
10
120.3650379999999984
20
-55.0044759999999968
11
119.8140849999999915
21
-55.2259430000000009
0
LINE
8
BLACK
6
CONTINUOUS
10
119.8140849999999915
20
-55.2259430000000009
11
119.2510699999999986
21
-55.4146489999999972
0
LINE
8
BLACK
6
CONTINUOUS
10
119.2510699999999986
20
-55.4146489999999972
11
118.6779379999999975
21
-55.569941
0
LINE
8
BLACK
6
CONTINUOUS
10
118.6779379999999975
20
-55.569941
11
118.0966689999999915
21
-55.6912809999999965
0
LINE
8
BLACK
6
CONTINUOUS
10
118.0966689999999915
20
-55.6912809999999965
11
117.5092749999999882
21
-55.7782509999999974
0
LINE
8
BLACK
6
CONTINUOUS
10
117.5092749999999882
20
-55.7782509999999974
11
116.9177839999999975
21
-55.8305499999999952
0
LINE
8
BLACK
6
CONTINUOUS
10
116.9177839999999975
20
-55.8305499999999952
11
116.3242419999999981
21
-55.8479969999999994
0
LINE
8
BLACK
6
CONTINUOUS
10
116.3242419999999981
20
-55.8479969999999994
11
116.3242419999999981
21
-55.847999999999999
0
LINE
8
BLACK
6
CONTINUOUS
10
116.3242419999999981
20
-55.847999999999999
11
116.3171079999999904
21
-55.8460879999999946
0
LINE
8
BLACK
6
CONTINUOUS
10
116.3171079999999904
20
-55.8460879999999946
11
111.0088539999999995
21
-55.847999999999999
0
LINE
8
BLACK
6
CONTINUOUS
10
111.0088539999999995
20
-55.847999999999999
11
111.008853000000002
21
-55.8479989999999944
0
LINE
8
BLACK
6
CONTINUOUS
10
111.008853000000002
20
-55.8479989999999944
11
111.008853000000002
21
-55.847999999999999
0
LINE
8
BLACK
6
CONTINUOUS
10
111.008853000000002
20
-55.847999999999999
11
110.6515160000000009
21
-55.8323940000000007
0
LINE
8
BLACK
6
CONTINUOUS
10
110.6515160000000009
20
-55.8323940000000007
11
110.2968989999999962
21
-55.7857039999999955
0
LINE
8
BLACK
6
CONTINUOUS
10
110.2968989999999962
20
-55.7857039999999955
11
109.947700999999995
21
-55.7082849999999965
0
LINE
8
BLACK
6
CONTINUOUS
10
109.947700999999995
20
-55.7082849999999965
11
109.6065789999999964
21
-55.6007259999999945
0
LINE
8
BLACK
6
CONTINUOUS
10
109.6065789999999964
20
-55.6007259999999945
11
109.2761299999999949
21
-55.4638459999999966
0
LINE
8
BLACK
6
CONTINUOUS
10
109.2761299999999949
20
-55.4638459999999966
11
108.9588679999999954
21
-55.2986859999999965
0
LINE
8
BLACK
6
CONTINUOUS
10
108.9588679999999954
20
-55.2986859999999965
11
108.6572079999999971
21
-55.1065029999999965
0
LINE
8
BLACK
6
CONTINUOUS
10
108.6572079999999971
20
-55.1065029999999965
11
108.3734449999999896
21
-54.8887609999999952
0
LINE
8
BLACK
6
CONTINUOUS
10
108.3734449999999896
20
-54.8887609999999952
11
108.1097400000000022
21
-54.6471149999999994
0
LINE
8
BLACK
6
CONTINUOUS
10
108.1097400000000022
20
-54.6471149999999994
11
108.1097169999999892
21
-54.6471379999999982
0
LINE
8
BLACK
6
CONTINUOUS
10
108.1097169999999892
20
-54.6471379999999982
11
108.1060209999999984
21
-54.6407369999999943
0
LINE
8
BLACK
6
CONTINUOUS
10
108.1060209999999984
20
-54.6407369999999943
11
103.3064129999999921
21
-49.8438379999999981
0
LINE
8
BLACK
6
CONTINUOUS
10
103.3064129999999921
20
-49.8438379999999981
11
103.3063479999999998
21
-49.8437589999999986
0
LINE
8
BLACK
6
CONTINUOUS
10
103.3063479999999998
20
-49.8437589999999986
11
103.1883100000000013
21
-49.7257309999999961
0
LINE
8
BLACK
6
CONTINUOUS
10
103.1883100000000013
20
-49.7257309999999961
11
102.9300679999999915
21
-49.513815000000001
0
LINE
8
BLACK
6
CONTINUOUS
10
102.9300679999999915
20
-49.513815000000001
11
102.6523009999999942
21
-49.3282269999999983
0
LINE
8
BLACK
6
CONTINUOUS
10
102.6523009999999942
20
-49.3282269999999983
11
102.3576829999999944
21
-49.1707559999999972
0
LINE
8
BLACK
6
CONTINUOUS
10
102.3576829999999944
20
-49.1707559999999972
11
102.0490489999999966
21
-49.0429169999999957
0
LINE
8
BLACK
6
CONTINUOUS
10
102.0490489999999966
20
-49.0429169999999957
11
101.7293729999999954
21
-48.9459409999999977
0
LINE
8
BLACK
6
CONTINUOUS
10
101.7293729999999954
20
-48.9459409999999977
11
101.4017319999999955
21
-48.8807629999999946
0
LINE
8
BLACK
6
CONTINUOUS
10
101.4017319999999955
20
-48.8807629999999946
11
101.0692789999999945
21
-48.8480080000000001
0
LINE
8
BLACK
6
CONTINUOUS
10
101.0692789999999945
20
-48.8480080000000001
11
100.9022489999999976
21
-48.848002000000001
0
LINE
8
BLACK
6
CONTINUOUS
10
100.9022489999999976
20
-48.848002000000001
11
100.8951169999999991
21
-48.8460899999999967
0
LINE
8
BLACK
6
CONTINUOUS
10
100.8951169999999991
20
-48.8460899999999967
11
95.7369229999999902
21
-48.8479989999999944
0
LINE
8
BLACK
6
CONTINUOUS
10
95.7369229999999902
20
-48.8479989999999944
11
95.736739
21
-48.8479799999999997
0
LINE
8
BLACK
6
CONTINUOUS
10
95.736739
20
-48.8479799999999997
11
95.5476799999999997
21
-48.8479449999999957
0
LINE
8
BLACK
6
CONTINUOUS
10
95.5476799999999997
20
-48.8479449999999957
11
95.1703210000000013
21
-48.8771360000000001
0
LINE
8
BLACK
6
CONTINUOUS
10
95.1703210000000013
20
-48.8771360000000001
11
94.7963379999999916
21
-48.9353449999999981
0
LINE
8
BLACK
6
CONTINUOUS
10
94.7963379999999916
20
-48.9353449999999981
11
94.4279590000000013
21
-49.0222249999999988
0
LINE
8
BLACK
6
CONTINUOUS
10
94.4279590000000013
20
-49.0222249999999988
11
94.0673779999999908
21
-49.1372599999999977
0
LINE
8
BLACK
6
CONTINUOUS
10
94.0673779999999908
20
-49.1372599999999977
11
93.7167439999999914
21
-49.2797629999999955
0
LINE
8
BLACK
6
CONTINUOUS
10
93.7167439999999914
20
-49.2797629999999955
11
93.378146000000001
21
-49.4488859999999946
0
LINE
8
BLACK
6
CONTINUOUS
10
93.378146000000001
20
-49.4488859999999946
11
93.2158909999999992
21
-49.546284
0
LINE
8
BLACK
6
CONTINUOUS
10
93.2158909999999992
20
-49.546284
11
93.2158909999999992
21
-49.5462829999999954
0
LINE
8
BLACK
6
CONTINUOUS
10
93.2158909999999992
20
-49.5462829999999954
11
93.2087739999999911
21
-49.5483189999999993
0
LINE
8
BLACK
6
CONTINUOUS
10
93.2087739999999911
20
-49.5483189999999993
11
84.1135329999999897
21
-55.0076989999999952
0
LINE
8
BLACK
6
CONTINUOUS
10
84.1135329999999897
20
-55.0076989999999952
11
84.1134739999999965
21
-55.0077259999999981
0
LINE
8
BLACK
6
CONTINUOUS
10
84.1134739999999965
20
-55.0077259999999981
11
83.7471599999999938
21
-55.227489999999996
0
LINE
8
BLACK
6
CONTINUOUS
10
83.7471599999999938
20
-55.227489999999996
11
83.0339879999999937
21
-55.6981619999999964
0
LINE
8
BLACK
6
CONTINUOUS
10
83.0339879999999937
20
-55.6981619999999964
11
82.3416739999999976
21
-56.1990089999999967
0
LINE
8
BLACK
6
CONTINUOUS
10
82.3416739999999976
20
-56.1990089999999967
11
81.6714929999999981
21
-56.729108999999994
0
LINE
8
BLACK
6
CONTINUOUS
10
81.6714929999999981
20
-56.729108999999994
11
81.0246819999999985
21
-57.2874829999999946
0
LINE
8
BLACK
6
CONTINUOUS
10
81.0246819999999985
20
-57.2874829999999946
11
80.4024319999999904
21
-57.8731039999999979
0
LINE
8
BLACK
6
CONTINUOUS
10
80.4024319999999904
20
-57.8731039999999979
11
79.8058889999999934
21
-58.484891999999995
0
LINE
8
BLACK
6
CONTINUOUS
10
79.8058889999999934
20
-58.484891999999995
11
79.2361539999999991
21
-59.1217189999999988
0
LINE
8
BLACK
6
CONTINUOUS
10
79.2361539999999991
20
-59.1217189999999988
11
78.6942749999999904
21
-59.7824109999999962
0
LINE
8
BLACK
6
CONTINUOUS
10
78.6942749999999904
20
-59.7824109999999962
11
78.1812529999999981
21
-60.4657519999999948
0
LINE
8
BLACK
6
CONTINUOUS
10
78.1812529999999981
20
-60.4657519999999948
11
77.6980310000000003
21
-61.1704819999999998
0
LINE
8
BLACK
6
CONTINUOUS
10
77.6980310000000003
20
-61.1704819999999998
11
77.2455009999999902
21
-61.8953019999999938
0
LINE
8
BLACK
6
CONTINUOUS
10
77.2455009999999902
20
-61.8953019999999938
11
76.8244969999999938
21
-62.6388759999999962
0
LINE
8
BLACK
6
CONTINUOUS
10
76.8244969999999938
20
-62.6388759999999962
11
76.4357940000000013
21
-63.3998339999999985
0
LINE
8
BLACK
6
CONTINUOUS
10
76.4357940000000013
20
-63.3998339999999985
11
76.0801099999999906
21
-64.1767739999999947
0
LINE
8
BLACK
6
CONTINUOUS
10
76.0801099999999906
20
-64.1767739999999947
11
75.7580979999999897
21
-64.9682629999999932
0
LINE
8
BLACK
6
CONTINUOUS
10
75.7580979999999897
20
-64.9682629999999932
11
75.4703540000000004
21
-65.7728439999999921
0
LINE
8
BLACK
6
CONTINUOUS
10
75.4703540000000004
20
-65.7728439999999921
11
75.2174059999999969
21
-66.5890330000000006
0
LINE
8
BLACK
6
CONTINUOUS
10
75.2174059999999969
20
-66.5890330000000006
11
74.9997219999999913
21
-67.4153259999999932
0
LINE
8
BLACK
6
CONTINUOUS
10
74.9997219999999913
20
-67.4153259999999932
11
74.817701999999997
21
-68.2502009999999899
0
LINE
8
BLACK
6
CONTINUOUS
10
74.817701999999997
20
-68.2502009999999899
11
74.6716819999999899
21
-69.0921179999999993
0
LINE
8
BLACK
6
CONTINUOUS
10
74.6716819999999899
20
-69.0921179999999993
11
74.5619310000000013
21
-69.9395269999999982
0
LINE
8
BLACK
6
CONTINUOUS
10
74.5619310000000013
20
-69.9395269999999982
11
74.4886509999999902
21
-70.7908659999999941
0
LINE
8
BLACK
6
CONTINUOUS
10
74.4886509999999902
20
-70.7908659999999941
11
74.4519779999999969
21
-71.6445650000000001
0
LINE
8
BLACK
6
CONTINUOUS
10
74.4519779999999969
20
-71.6445650000000001
11
74.4519999999999982
21
-72.0718079999999901
0
LINE
8
BLACK
6
CONTINUOUS
10
74.4519999999999982
20
-72.0718079999999901
11
74.4500790000000023
21
-72.0789740000000023
0
LINE
8
BLACK
6
CONTINUOUS
10
74.4500790000000023
20
-72.0789740000000023
11
74.4519999999999982
21
-135.7479999999999905
0
LINE
8
BLACK
6
CONTINUOUS
10
74.4519999999999982
20
-135.7479999999999905
11
74.4519999999999982
21
-136.1255789999999877
0
LINE
8
BLACK
6
CONTINUOUS
10
74.4519999999999982
20
-136.1255789999999877
11
74.490247999999994
21
-136.8797669999999869
0
LINE
8
BLACK
6
CONTINUOUS
10
74.490247999999994
20
-136.8797669999999869
11
74.5666459999999915
21
-137.6310489999999902
0
LINE
8
BLACK
6
CONTINUOUS
10
74.5666459999999915
20
-137.6310489999999902
11
74.6809980000000024
21
-138.3774980000000028
0
LINE
8
BLACK
6
CONTINUOUS
10
74.6809980000000024
20
-138.3774980000000028
11
74.8330100000000016
21
-139.1171970000000044
0
LINE
8
BLACK
6
CONTINUOUS
10
74.8330100000000016
20
-139.1171970000000044
11
75.0222919999999931
21
-139.8482479999999839
0
LINE
8
BLACK
6
CONTINUOUS
10
75.0222919999999931
20
-139.8482479999999839
11
75.2483579999999961
21
-140.5687729999999931
0
LINE
8
BLACK
6
CONTINUOUS
10
75.2483579999999961
20
-140.5687729999999931
11
75.5106289999999944
21
-141.2769229999999823
0
LINE
8
BLACK
6
CONTINUOUS
10
75.5106289999999944
20
-141.2769229999999823
11
75.8084289999999896
21
-141.9708809999999914
0
LINE
8
BLACK
6
CONTINUOUS
10
75.8084289999999896
20
-141.9708809999999914
11
76.1409960000000012
21
-142.6488650000000007
0
LINE
8
BLACK
6
CONTINUOUS
10
76.1409960000000012
20
-142.6488650000000007
11
76.5074749999999995
21
-143.3091340000000002
0
LINE
8
BLACK
6
CONTINUOUS
10
76.5074749999999995
20
-143.3091340000000002
11
76.9069259999999986
21
-143.9499940000000038
0
LINE
8
BLACK
6
CONTINUOUS
10
76.9069259999999986
20
-143.9499940000000038
11
77.3383240000000001
21
-144.5697989999999891
0
LINE
8
BLACK
6
CONTINUOUS
10
77.3383240000000001
20
-144.5697989999999891
11
77.8005599999999902
21
-145.1669589999999914
0
LINE
8
BLACK
6
CONTINUOUS
10
77.8005599999999902
20
-145.1669589999999914
11
78.2924489999999906
21
-145.7399409999999875
0
LINE
8
BLACK
6
CONTINUOUS
10
78.2924489999999906
20
-145.7399409999999875
11
78.8127269999999953
21
-146.287272999999999
0
LINE
8
BLACK
6
CONTINUOUS
10
78.8127269999999953
20
-146.287272999999999
11
79.3600589999999926
21
-146.8075509999999895
0
LINE
8
BLACK
6
CONTINUOUS
10
79.3600589999999926
20
-146.8075509999999895
11
79.9330410000000029
21
-147.2994400000000041
0
LINE
8
BLACK
6
CONTINUOUS
10
79.9330410000000029
20
-147.2994400000000041
11
80.530200999999991
21
-147.7616759999999942
0
LINE
8
BLACK
6
CONTINUOUS
10
80.530200999999991
20
-147.7616759999999942
11
81.1500059999999905
21
-148.1930739999999957
0
LINE
8
BLACK
6
CONTINUOUS
10
81.1500059999999905
20
-148.1930739999999957
11
81.7908659999999941
21
-148.5925249999999949
0
LINE
8
BLACK
6
CONTINUOUS
10
81.7908659999999941
20
-148.5925249999999949
11
82.4511349999999936
21
-148.9590039999999931
0
LINE
8
BLACK
6
CONTINUOUS
10
82.4511349999999936
20
-148.9590039999999931
11
83.1291190000000029
21
-149.2915710000000047
0
LINE
8
BLACK
6
CONTINUOUS
10
83.1291190000000029
20
-149.2915710000000047
11
83.8230769999999978
21
-149.5893709999999999
0
LINE
8
BLACK
6
CONTINUOUS
10
83.8230769999999978
20
-149.5893709999999999
11
84.5312270000000012
21
-149.8516419999999982
0
LINE
8
BLACK
6
CONTINUOUS
10
84.5312270000000012
20
-149.8516419999999982
11
85.2517519999999962
21
-150.0777080000000012
0
LINE
8
BLACK
6
CONTINUOUS
10
85.2517519999999962
20
-150.0777080000000012
11
85.9828029999999899
21
-150.2669899999999927
0
LINE
8
BLACK
6
CONTINUOUS
10
85.9828029999999899
20
-150.2669899999999927
11
86.7225019999999915
21
-150.4190020000000061
0
LINE
8
BLACK
6
CONTINUOUS
10
86.7225019999999915
20
-150.4190020000000061
11
87.4689509999999899
21
-150.5333540000000028
0
LINE
8
BLACK
6
CONTINUOUS
10
87.4689509999999899
20
-150.5333540000000028
11
88.2202329999999932
21
-150.6097519999999861
0
LINE
8
BLACK
6
CONTINUOUS
10
88.2202329999999932
20
-150.6097519999999861
11
88.9744209999999924
21
-150.6479999999999961
0
LINE
8
BLACK
6
CONTINUOUS
10
88.9744209999999924
20
-150.6479999999999961
11
89.3519999999999897
21
-150.6479999999999961
0
LINE
8
BLACK
6
CONTINUOUS
10
89.3519999999999897
20
-150.6479999999999961
11
89.3591419999999914
21
-150.649912999999998
0
LINE
8
BLACK
6
CONTINUOUS
10
89.3591419999999914
20
-150.649912999999998
11
96.3520499999999913
21
-150.6479999999999961
0
LINE
8
BLACK
6
CONTINUOUS
10
96.3520499999999913
20
-150.6479999999999961
11
96.3520509999999888
21
-150.6479999999999961
0
LINE
8
BLACK
6
CONTINUOUS
10
96.3520509999999888
20
-150.6479999999999961
11
96.3521810000000016
21
-150.6480119999999943
0
LINE
8
BLACK
6
CONTINUOUS
10
96.3521810000000016
20
-150.6480119999999943
11
96.5525299999999902
21
-150.6479960000000062
0
LINE
8
BLACK
6
CONTINUOUS
10
96.5525299999999902
20
-150.6479960000000062
11
96.9521469999999965
21
-150.6152449999999874
0
LINE
8
BLACK
6
CONTINUOUS
10
96.9521469999999965
20
-150.6152449999999874
11
97.3477529999999973
21
-150.5499570000000062
0
LINE
8
BLACK
6
CONTINUOUS
10
97.3477529999999973
20
-150.5499570000000062
11
97.7367039999999889
21
-150.4525689999999827
0
LINE
8
BLACK
6
CONTINUOUS
10
97.7367039999999889
20
-150.4525689999999827
11
98.1163979999999896
21
-150.3237320000000068
0
LINE
8
BLACK
6
CONTINUOUS
10
98.1163979999999896
20
-150.3237320000000068
11
98.4842979999999955
21
-150.1643069999999796
0
LINE
8
BLACK
6
CONTINUOUS
10
98.4842979999999955
20
-150.1643069999999796
11
98.8379449999999906
21
-149.9753609999999924
0
LINE
8
BLACK
6
CONTINUOUS
10
98.8379449999999906
20
-149.9753609999999924
11
99.1749729999999943
21
-149.7581549999999879
0
LINE
8
BLACK
6
CONTINUOUS
10
99.1749729999999943
20
-149.7581549999999879
11
99.4931319999999886
21
-149.51414299999999
0
LINE
8
BLACK
6
CONTINUOUS
10
99.4931319999999886
20
-149.51414299999999
11
99.7902919999999938
21
-149.244954000000007
0
LINE
8
BLACK
6
CONTINUOUS
10
99.7902919999999938
20
-149.244954000000007
11
100.0644690000000026
21
-148.9523899999999799
0
LINE
8
BLACK
6
CONTINUOUS
10
100.0644690000000026
20
-148.9523899999999799
11
100.3138289999999984
21
-148.6384050000000059
0
LINE
8
BLACK
6
CONTINUOUS
10
100.3138289999999984
20
-148.6384050000000059
11
100.5367040000000003
21
-148.3050989999999842
0
LINE
8
BLACK
6
CONTINUOUS
10
100.5367040000000003
20
-148.3050989999999842
11
100.7316069999999968
21
-147.9546990000000051
0
LINE
8
BLACK
6
CONTINUOUS
10
100.7316069999999968
20
-147.9546990000000051
11
100.8144360000000006
21
-147.7721310000000017
0
LINE
8
BLACK
6
CONTINUOUS
10
100.8144360000000006
20
-147.7721310000000017
11
100.8144360000000006
21
-147.7721319999999992
0
LINE
8
BLACK
6
CONTINUOUS
10
100.8144360000000006
20
-147.7721319999999992
11
100.8191399999999902
21
-147.7664029999999968
0
LINE
8
BLACK
6
CONTINUOUS
10
100.8191399999999902
20
-147.7664029999999968
11
110.7958050000000014
21
-125.7672519999999992
0
LINE
8
BLACK
6
CONTINUOUS
10
110.7958050000000014
20
-125.7672519999999992
11
110.7958050000000014
21
-125.7672509999999875
0
LINE
8
BLACK
6
CONTINUOUS
10
110.7958050000000014
20
-125.7672509999999875
11
110.9856359999999995
21
-125.3909259999999932
0
LINE
8
BLACK
6
CONTINUOUS
10
110.9856359999999995
20
-125.3909259999999932
11
111.2058940000000007
21
-125.0315609999999964
0
LINE
8
BLACK
6
CONTINUOUS
10
111.2058940000000007
20
-125.0315609999999964
11
111.4550729999999987
21
-124.6916109999999946
0
LINE
8
BLACK
6
CONTINUOUS
10
111.4550729999999987
20
-124.6916109999999946
11
111.7314719999999966
21
-124.3733969999999971
0
LINE
8
BLACK
6
CONTINUOUS
10
111.7314719999999966
20
-124.3733969999999971
11
112.0332030000000003
21
-124.0790930000000003
0
LINE
8
BLACK
6
CONTINUOUS
10
112.0332030000000003
20
-124.0790930000000003
11
112.3582049999999981
21
-123.8107089999999886
0
LINE
8
BLACK
6
CONTINUOUS
10
112.3582049999999981
20
-123.8107089999999886
11
112.7042589999999933
21
-123.5700779999999952
0
LINE
8
BLACK
6
CONTINUOUS
10
112.7042589999999933
20
-123.5700779999999952
11
113.0690010000000001
21
-123.3588439999999906
0
LINE
8
BLACK
6
CONTINUOUS
10
113.0690010000000001
20
-123.3588439999999906
11
113.4499390000000005
21
-123.1784490000000005
0
LINE
8
BLACK
6
CONTINUOUS
10
113.4499390000000005
20
-123.1784490000000005
11
113.8444729999999936
21
-123.0301259999999957
0
LINE
8
BLACK
6
CONTINUOUS
10
113.8444729999999936
20
-123.0301259999999957
11
114.2499059999999957
21
-122.9148869999999931
0
LINE
8
BLACK
6
CONTINUOUS
10
114.2499059999999957
20
-122.9148869999999931
11
114.6634710000000013
21
-122.8335189999999955
0
LINE
8
BLACK
6
CONTINUOUS
10
114.6634710000000013
20
-122.8335189999999955
11
115.082341999999997
21
-122.786578999999989
0
LINE
8
BLACK
6
CONTINUOUS
10
115.082341999999997
20
-122.786578999999989
11
115.503658999999999
21
-122.7743869999999902
0
LINE
8
BLACK
6
CONTINUOUS
10
115.503658999999999
20
-122.7743869999999902
11
115.9245429999999999
21
-122.7970259999999882
0
LINE
8
BLACK
6
CONTINUOUS
10
115.9245429999999999
20
-122.7970259999999882
11
116.3421209999999917
21
-122.8543419999999884
0
LINE
8
BLACK
6
CONTINUOUS
10
116.3421209999999917
20
-122.8543419999999884
11
116.7535409999999985
21
-122.9459429999999998
0
LINE
8
BLACK
6
CONTINUOUS
10
116.7535409999999985
20
-122.9459429999999998
11
117.1559910000000002
21
-123.071202999999997
0
LINE
8
BLACK
6
CONTINUOUS
10
117.1559910000000002
20
-123.071202999999997
11
117.1559789999999879
21
-123.0712350000000015
0
LINE
8
BLACK
6
CONTINUOUS
10
117.1559789999999879
20
-123.0712350000000015
11
117.1620609999999942
21
-123.0754389999999887
0
LINE
8
BLACK
6
CONTINUOUS
10
117.1620609999999942
20
-123.0754389999999887
11
123.5698790000000002
21
-125.3624189999999885
0
LINE
8
BLACK
6
CONTINUOUS
10
123.5698790000000002
20
-125.3624189999999885
11
123.5698829999999901
21
-125.3624200000000002
0
LINE
8
BLACK
6
CONTINUOUS
10
123.5698829999999901
20
-125.3624200000000002
11
123.5698839999999876
21
-125.3624209999999977
0
LINE
8
BLACK
6
CONTINUOUS
10
123.5698839999999876
20
-125.3624209999999977
11
123.5698879999999917
21
-125.3624079999999879
0
LINE
8
BLACK
6
CONTINUOUS
10
123.5698879999999917
20
-125.3624079999999879
11
123.728273999999999
21
-125.418965
0
LINE
8
BLACK
6
CONTINUOUS
10
123.728273999999999
20
-125.418965
11
124.0520409999999885
21
-125.5101429999999993
0
LINE
8
BLACK
6
CONTINUOUS
10
124.0520409999999885
20
-125.5101429999999993
11
124.3812989999999985
21
-125.5789019999999994
0
LINE
8
BLACK
6
CONTINUOUS
10
124.3812989999999985
20
-125.5789019999999994
11
124.7144969999999944
21
-125.6249179999999939
0
LINE
8
BLACK
6
CONTINUOUS
10
124.7144969999999944
20
-125.6249179999999939
11
125.0500669999999985
21
-125.6479759999999999
0
LINE
8
BLACK
6
CONTINUOUS
10
125.0500669999999985
20
-125.6479759999999999
11
125.218246999999991
21
-125.6479989999999987
0
LINE
8
BLACK
6
CONTINUOUS
10
125.218246999999991
20
-125.6479989999999987
11
125.225412999999989
21
-125.6499179999999996
0
LINE
8
BLACK
6
CONTINUOUS
10
125.225412999999989
20
-125.6499179999999996
11
173.485748000000001
21
-125.6479989999999987
0
LINE
8
BLACK
6
CONTINUOUS
10
173.485748000000001
20
-125.6479989999999987
11
173.4857499999999959
21
-125.6479989999999987
0
LINE
8
BLACK
6
CONTINUOUS
10
173.4857499999999959
20
-125.6479989999999987
11
173.4857509999999934
21
-125.6479989999999987
0
LINE
8
BLACK
6
CONTINUOUS
10
173.4857509999999934
20
-125.6479989999999987
11
173.4857580000000041
21
-125.6479989999999987
0
LINE
8
BLACK
6
CONTINUOUS
10
173.4857580000000041
20
-125.6479989999999987
11
173.6539319999999975
21
-125.6479769999999974
0
LINE
8
BLACK
6
CONTINUOUS
10
173.6539319999999975
20
-125.6479769999999974
11
173.9895039999999824
21
-125.6249199999999888
0
LINE
8
BLACK
6
CONTINUOUS
10
173.9895039999999824
20
-125.6249199999999888
11
174.3227039999999874
21
-125.5789049999999918
0
LINE
8
BLACK
6
CONTINUOUS
10
174.3227039999999874
20
-125.5789049999999918
11
174.6519649999999899
21
-125.5101480000000009
0
LINE
8
BLACK
6
CONTINUOUS
10
174.6519649999999899
20
-125.5101480000000009
11
174.975734999999986
21
-125.418972999999994
0
LINE
8
BLACK
6
CONTINUOUS
10
174.975734999999986
20
-125.418972999999994
11
175.1341209999999933
21
-125.362417999999991
0
LINE
8
BLACK
6
CONTINUOUS
10
175.1341209999999933
20
-125.362417999999991
11
175.1341219999999907
21
-125.362417999999991
0
LINE
8
BLACK
6
CONTINUOUS
10
175.1341219999999907
20
-125.362417999999991
11
175.141491000000002
21
-125.3618169999999878
0
LINE
8
BLACK
6
CONTINUOUS
10
175.141491000000002
20
-125.3618169999999878
11
181.5480149999999924
21
-123.0712269999999933
0
LINE
8
BLACK
6
CONTINUOUS
10
181.5480149999999924
20
-123.0712269999999933
11
181.548025999999993
21
-123.0712240000000008
0
LINE
8
BLACK
6
CONTINUOUS
10
181.548025999999993
20
-123.0712240000000008
11
181.9504619999999875
21
-122.9459549999999979
0
LINE
8
BLACK
6
CONTINUOUS
10
181.9504619999999875
20
-122.9459549999999979
11
182.3618799999999851
21
-122.8543430000000001
0
LINE
8
BLACK
6
CONTINUOUS
10
182.3618799999999851
20
-122.8543430000000001
11
182.7794569999999794
21
-122.7970169999999968
0
LINE
8
BLACK
6
CONTINUOUS
10
182.7794569999999794
20
-122.7970169999999968
11
183.2003430000000037
21
-122.774368999999993
0
LINE
8
BLACK
6
CONTINUOUS
10
183.2003430000000037
20
-122.774368999999993
11
183.6216609999999889
21
-122.7865529999999978
0
LINE
8
BLACK
6
CONTINUOUS
10
183.6216609999999889
20
-122.7865529999999978
11
184.0405350000000055
21
-122.833486999999991
0
LINE
8
BLACK
6
CONTINUOUS
10
184.0405350000000055
20
-122.833486999999991
11
184.4541019999999776
21
-122.9148500000000013
0
LINE
8
BLACK
6
CONTINUOUS
10
184.4541019999999776
20
-122.9148500000000013
11
184.8595369999999889
21
-123.0300859999999972
0
LINE
8
BLACK
6
CONTINUOUS
10
184.8595369999999889
20
-123.0300859999999972
11
185.2540730000000053
21
-123.1784069999999929
0
LINE
8
BLACK
6
CONTINUOUS
10
185.2540730000000053
20
-123.1784069999999929
11
185.6350129999999865
21
-123.3588019999999972
0
LINE
8
BLACK
6
CONTINUOUS
10
185.6350129999999865
20
-123.3588019999999972
11
185.9997559999999908
21
-123.5700369999999992
0
LINE
8
BLACK
6
CONTINUOUS
10
185.9997559999999908
20
-123.5700369999999992
11
186.3458100000000002
21
-123.8106699999999876
0
LINE
8
BLACK
6
CONTINUOUS
10
186.3458100000000002
20
-123.8106699999999876
11
186.6708109999999863
21
-124.0790569999999917
0
LINE
8
BLACK
6
CONTINUOUS
10
186.6708109999999863
20
-124.0790569999999917
11
186.9725399999999809
21
-124.3733649999999926
0
LINE
8
BLACK
6
CONTINUOUS
10
186.9725399999999809
20
-124.3733649999999926
11
187.2489349999999888
21
-124.6915839999999918
0
LINE
8
BLACK
6
CONTINUOUS
10
187.2489349999999888
20
-124.6915839999999918
11
187.4981089999999995
21
-125.0315399999999926
0
LINE
8
BLACK
6
CONTINUOUS
10
187.4981089999999995
20
-125.0315399999999926
11
187.7183599999999899
21
-125.390909999999991
0
LINE
8
BLACK
6
CONTINUOUS
10
187.7183599999999899
20
-125.390909999999991
11
187.9081829999999798
21
-125.7672409999999985
0
LINE
8
BLACK
6
CONTINUOUS
10
187.9081829999999798
20
-125.7672409999999985
11
187.9081960000000038
21
-125.7672349999999994
0
LINE
8
BLACK
6
CONTINUOUS
10
187.9081960000000038
20
-125.7672349999999994
11
187.9094059999999899
21
-125.7745489999999933
0
LINE
8
BLACK
6
CONTINUOUS
10
187.9094059999999899
20
-125.7745489999999933
11
197.8896159999999895
21
-147.7721369999999865
0
LINE
8
BLACK
6
CONTINUOUS
10
197.8896159999999895
20
-147.7721369999999865
11
197.9724479999999858
21
-147.954702999999995
0
LINE
8
BLACK
6
CONTINUOUS
10
197.9724479999999858
20
-147.954702999999995
11
198.1673539999999889
21
-148.3050979999999868
0
LINE
8
BLACK
6
CONTINUOUS
10
198.1673539999999889
20
-148.3050979999999868
11
198.3902329999999949
21
-148.6383999999999901
0
LINE
8
BLACK
6
CONTINUOUS
10
198.3902329999999949
20
-148.6383999999999901
11
198.6395949999999857
21
-148.9523810000000026
0
LINE
8
BLACK
6
CONTINUOUS
10
198.6395949999999857
20
-148.9523810000000026
11
198.9137719999999945
21
-149.2449419999999805
0
LINE
8
BLACK
6
CONTINUOUS
10
198.9137719999999945
20
-149.2449419999999805
11
199.2109329999999829
21
-149.514127000000002
0
LINE
8
BLACK
6
CONTINUOUS
10
199.2109329999999829
20
-149.514127000000002
11
199.529090999999994
21
-149.7581370000000049
0
LINE
8
BLACK
6
CONTINUOUS
10
199.529090999999994
20
-149.7581370000000049
11
199.8661189999999976
21
-149.9753399999999885
0
LINE
8
BLACK
6
CONTINUOUS
10
199.8661189999999976
20
-149.9753399999999885
11
200.2197639999999978
21
-150.1642860000000042
0
LINE
8
BLACK
6
CONTINUOUS
10
200.2197639999999978
20
-150.1642860000000042
11
200.5876629999999921
21
-150.3237100000000055
0
LINE
8
BLACK
6
CONTINUOUS
10
200.5876629999999921
20
-150.3237100000000055
11
200.9673549999999977
21
-150.4525480000000073
0
LINE
8
BLACK
6
CONTINUOUS
10
200.9673549999999977
20
-150.4525480000000073
11
201.3563029999999969
21
-150.5499369999999999
0
LINE
8
BLACK
6
CONTINUOUS
10
201.3563029999999969
20
-150.5499369999999999
11
201.7519069999999886
21
-150.6152270000000044
0
LINE
8
BLACK
6
CONTINUOUS
10
201.7519069999999886
20
-150.6152270000000044
11
202.1515219999999999
21
-150.6479819999999847
0
LINE
8
BLACK
6
CONTINUOUS
10
202.1515219999999999
20
-150.6479819999999847
11
202.3520000000000039
21
-150.6479999999999961
0
LINE
8
BLACK
6
CONTINUOUS
10
202.3520000000000039
20
-150.6479999999999961
11
202.3591419999999914
21
-150.649912999999998
0
LINE
8
BLACK
6
CONTINUOUS
10
202.3591419999999914
20
-150.649912999999998
11
209.3520000000000039
21
-150.6479999999999961
0
LINE
8
BLACK
6
CONTINUOUS
10
209.3520000000000039
20
-150.6479999999999961
11
209.7295790000000011
21
-150.6479999999999961
0
LINE
8
BLACK
6
CONTINUOUS
10
209.7295790000000011
20
-150.6479999999999961
11
210.4837670000000003
21
-150.6097519999999861
0
LINE
8
BLACK
6
CONTINUOUS
10
210.4837670000000003
20
-150.6097519999999861
11
211.2350490000000036
21
-150.5333540000000028
0
LINE
8
BLACK
6
CONTINUOUS
10
211.2350490000000036
20
-150.5333540000000028
11
211.9814979999999878
21
-150.4190020000000061
0
LINE
8
BLACK
6
CONTINUOUS
10
211.9814979999999878
20
-150.4190020000000061
11
212.7211969999999894
21
-150.2669899999999927
0
LINE
8
BLACK
6
CONTINUOUS
10
212.7211969999999894
20
-150.2669899999999927
11
213.4522479999999973
21
-150.0777080000000012
0
LINE
8
BLACK
6
CONTINUOUS
10
213.4522479999999973
20
-150.0777080000000012
11
214.1727729999999781
21
-149.8516419999999982
0
LINE
8
BLACK
6
CONTINUOUS
10
214.1727729999999781
20
-149.8516419999999982
11
214.8809229999999957
21
-149.5893709999999999
0
LINE
8
BLACK
6
CONTINUOUS
10
214.8809229999999957
20
-149.5893709999999999
11
215.5748809999999764
21
-149.2915710000000047
0
LINE
8
BLACK
6
CONTINUOUS
10
215.5748809999999764
20
-149.2915710000000047
11
216.2528649999999857
21
-148.9590039999999931
0
LINE
8
BLACK
6
CONTINUOUS
10
216.2528649999999857
20
-148.9590039999999931
11
216.9131339999999852
21
-148.5925249999999949
0
LINE
8
BLACK
6
CONTINUOUS
10
216.9131339999999852
20
-148.5925249999999949
11
217.5539939999999888
21
-148.1930739999999957
0
LINE
8
BLACK
6
CONTINUOUS
10
217.5539939999999888
20
-148.1930739999999957
11
218.1737990000000025
21
-147.7616759999999942
0
LINE
8
BLACK
6
CONTINUOUS
10
218.1737990000000025
20
-147.7616759999999942
11
218.7709589999999764
21
-147.2994400000000041
0
LINE
8
BLACK
6
CONTINUOUS
10
218.7709589999999764
20
-147.2994400000000041
11
219.3439410000000009
21
-146.8075509999999895
0
LINE
8
BLACK
6
CONTINUOUS
10
219.3439410000000009
20
-146.8075509999999895
11
219.891272999999984
21
-146.287272999999999
0
LINE
8
BLACK
6
CONTINUOUS
10
219.891272999999984
20
-146.287272999999999
11
220.4115510000000029
21
-145.7399409999999875
0
LINE
8
BLACK
6
CONTINUOUS
10
220.4115510000000029
20
-145.7399409999999875
11
220.9034399999999891
21
-145.1669589999999914
0
LINE
8
BLACK
6
CONTINUOUS
10
220.9034399999999891
20
-145.1669589999999914
11
221.3656759999999792
21
-144.5697989999999891
0
LINE
8
BLACK
6
CONTINUOUS
10
221.3656759999999792
20
-144.5697989999999891
11
221.7970739999999807
21
-143.9499940000000038
0
LINE
8
BLACK
6
CONTINUOUS
10
221.7970739999999807
20
-143.9499940000000038
11
222.1965249999999799
21
-143.3091340000000002
0
LINE
8
BLACK
6
CONTINUOUS
10
222.1965249999999799
20
-143.3091340000000002
11
222.5630039999999781
21
-142.6488650000000007
0
LINE
8
BLACK
6
CONTINUOUS
10
222.5630039999999781
20
-142.6488650000000007
11
222.8955709999999897
21
-141.9708809999999914
0
LINE
8
BLACK
6
CONTINUOUS
10
222.8955709999999897
20
-141.9708809999999914
11
223.1933709999999849
21
-141.2769229999999823
0
LINE
8
BLACK
6
CONTINUOUS
10
223.1933709999999849
20
-141.2769229999999823
11
223.4556419999999832
21
-140.5687729999999931
0
LINE
8
BLACK
6
CONTINUOUS
10
223.4556419999999832
20
-140.5687729999999931
11
223.6817079999999862
21
-139.8482479999999839
0
LINE
8
BLACK
6
CONTINUOUS
10
223.6817079999999862
20
-139.8482479999999839
11
223.8709899999999777
21
-139.1171970000000044
0
LINE
8
BLACK
6
CONTINUOUS
10
223.8709899999999777
20
-139.1171970000000044
11
224.0230019999999911
21
-138.3774980000000028
0
LINE
8
BLACK
6
CONTINUOUS
10
224.0230019999999911
20
-138.3774980000000028
11
224.1373539999999878
21
-137.6310489999999902
0
LINE
8
BLACK
6
CONTINUOUS
10
224.1373539999999878
20
-137.6310489999999902
11
224.2137519999999995
21
-136.8797669999999869
0
LINE
8
BLACK
6
CONTINUOUS
10
224.2137519999999995
20
-136.8797669999999869
11
224.2519999999999811
21
-136.1255789999999877
0
LINE
8
BLACK
6
CONTINUOUS
10
224.2519999999999811
20
-136.1255789999999877
11
224.2519999999999811
21
-135.7479999999999905
0
LINE
8
BLACK
6
CONTINUOUS
10
224.2519999999999811
20
-135.7479999999999905
11
224.2539199999999937
21
-135.7408329999999808
0
LINE
8
BLACK
6
CONTINUOUS
10
224.2539199999999937
20
-135.7408329999999808
11
224.2519999999999811
21
-72.0718079999999901
0
LINE
8
BLACK
6
CONTINUOUS
10
224.2519999999999811
20
-72.0718079999999901
11
224.2519920000000013
21
-72.0718079999999901
0
LINE
8
BLACK
6
CONTINUOUS
10
224.2519920000000013
20
-72.0718079999999901
11
224.2520140000000026
21
-71.6445650000000001
0
LINE
8
BLACK
6
CONTINUOUS
10
224.2520140000000026
20
-71.6445650000000001
11
224.2153409999999951
21
-70.7908659999999941
0
LINE
8
BLACK
6
CONTINUOUS
10
224.2153409999999951
20
-70.7908659999999941
11
224.142060999999984
21
-69.9395279999999957
0
LINE
8
BLACK
6
CONTINUOUS
10
224.142060999999984
20
-69.9395279999999957
11
224.0323099999999954
21
-69.0921199999999942
0
LINE
8
BLACK
6
CONTINUOUS
10
224.0323099999999954
20
-69.0921199999999942
11
223.8862900000000025
21
-68.2502029999999991
0
LINE
8
BLACK
6
CONTINUOUS
10
223.8862900000000025
20
-68.2502029999999991
11
223.7042709999999772
21
-67.4153289999999998
0
LINE
8
BLACK
6
CONTINUOUS
10
223.7042709999999772
20
-67.4153289999999998
11
223.4865859999999884
21
-66.589035999999993
0
LINE
8
BLACK
6
CONTINUOUS
10
223.4865859999999884
20
-66.589035999999993
11
223.2336389999999824
21
-65.7728469999999987
0
LINE
8
BLACK
6
CONTINUOUS
10
223.2336389999999824
20
-65.7728469999999987
11
222.9458949999999788
21
-64.9682669999999973
0
LINE
8
BLACK
6
CONTINUOUS
10
222.9458949999999788
20
-64.9682669999999973
11
222.623882999999978
21
-64.1767779999999988
0
LINE
8
BLACK
6
CONTINUOUS
10
222.623882999999978
20
-64.1767779999999988
11
222.2681989999999814
21
-63.3998379999999955
0
LINE
8
BLACK
6
CONTINUOUS
10
222.2681989999999814
20
-63.3998379999999955
11
221.8794969999999864
21
-62.6388809999999978
0
LINE
8
BLACK
6
CONTINUOUS
10
221.8794969999999864
20
-62.6388809999999978
11
221.4584929999999758
21
-61.8953069999999954
0
LINE
8
BLACK
6
CONTINUOUS
10
221.4584929999999758
20
-61.8953069999999954
11
221.00596299999998
21
-61.1704869999999943
0
LINE
8
BLACK
6
CONTINUOUS
10
221.00596299999998
20
-61.1704869999999943
11
220.5227419999999938
21
-60.4657579999999939
0
LINE
8
BLACK
6
CONTINUOUS
10
220.5227419999999938
20
-60.4657579999999939
11
220.0097199999999873
21
-59.7824179999999998
0
LINE
8
BLACK
6
CONTINUOUS
10
220.0097199999999873
20
-59.7824179999999998
11
219.4678409999999928
21
-59.1217249999999979
0
LINE
8
BLACK
6
CONTINUOUS
10
219.4678409999999928
20
-59.1217249999999979
11
218.8981059999999843
21
-58.4848989999999986
0
LINE
8
BLACK
6
CONTINUOUS
10
218.8981059999999843
20
-58.4848989999999986
11
218.3015639999999848
21
-57.8731109999999944
0
LINE
8
BLACK
6
CONTINUOUS
10
218.3015639999999848
20
-57.8731109999999944
11
217.6793139999999767
21
-57.2874909999999957
0
LINE
8
BLACK
6
CONTINUOUS
10
217.6793139999999767
20
-57.2874909999999957
11
217.0325029999999913
21
-56.7291169999999951
0
LINE
8
BLACK
6
CONTINUOUS
10
217.0325029999999913
20
-56.7291169999999951
11
216.362324000000001
21
-56.1990169999999978
0
LINE
8
BLACK
6
CONTINUOUS
10
216.362324000000001
20
-56.1990169999999978
11
215.6700099999999907
21
-55.6981699999999975
0
LINE
8
BLACK
6
CONTINUOUS
10
215.6700099999999907
20
-55.6981699999999975
11
214.9568379999999763
21
-55.2274979999999971
0
LINE
8
BLACK
6
CONTINUOUS
10
214.9568379999999763
20
-55.2274979999999971
11
214.5904689999999846
21
-55.0077019999999948
0
LINE
8
BLACK
6
CONTINUOUS
10
214.5904689999999846
20
-55.0077019999999948
11
214.5904689999999846
21
-55.0077009999999973
0
LINE
8
BLACK
6
CONTINUOUS
10
214.5904689999999846
20
-55.0077009999999973
11
214.5853229999999883
21
-55.0023780000000002
0
LINE
8
BLACK
6
CONTINUOUS
10
214.5853229999999883
20
-55.0023780000000002
11
205.488112000000001
21
-49.5462829999999954
0
LINE
8
BLACK
6
CONTINUOUS
10
205.488112000000001
20
-49.5462829999999954
11
205.4880299999999806
21
-49.5462220000000002
0
LINE
8
BLACK
6
CONTINUOUS
10
205.4880299999999806
20
-49.5462220000000002
11
205.3258610000000033
21
-49.4488810000000001
0
LINE
8
BLACK
6
CONTINUOUS
10
205.3258610000000033
20
-49.4488810000000001
11
204.9872609999999895
21
-49.2797649999999976
0
LINE
8
BLACK
6
CONTINUOUS
10
204.9872609999999895
20
-49.2797649999999976
11
204.6366249999999809
21
-49.1372669999999943
0
LINE
8
BLACK
6
CONTINUOUS
10
204.6366249999999809
20
-49.1372669999999943
11
204.2760439999999846
21
-49.0222359999999995
0
LINE
8
BLACK
6
CONTINUOUS
10
204.2760439999999846
20
-49.0222359999999995
11
203.9076649999999802
21
-48.9353589999999983
0
LINE
8
BLACK
6
CONTINUOUS
10
203.9076649999999802
20
-48.9353589999999983
11
203.5336819999999989
21
-48.8771519999999953
0
LINE
8
BLACK
6
CONTINUOUS
10
203.5336819999999989
20
-48.8771519999999953
11
203.1563249999999812
21
-48.8479619999999954
0
LINE
8
BLACK
6
CONTINUOUS
10
203.1563249999999812
20
-48.8479619999999954
11
202.9670820000000049
21
-48.8479979999999969
0
LINE
8
BLACK
6
CONTINUOUS
10
202.9670820000000049
20
-48.8479979999999969
11
202.9599489999999946
21
-48.8460859999999997
0
LINE
8
BLACK
6
CONTINUOUS
10
202.9599489999999946
20
-48.8460859999999997
11
197.8017499999999984
21
-48.8479979999999969
0
LINE
8
BLACK
6
CONTINUOUS
10
197.8017499999999984
20
-48.8479979999999969
11
197.8017469999999776
21
-48.8479969999999994
0
LINE
8
BLACK
6
CONTINUOUS
10
197.8017469999999776
20
-48.8479969999999994
11
197.8017459999999801
21
-48.8479979999999969
0
LINE
8
BLACK
6
CONTINUOUS
10
197.8017459999999801
20
-48.8479979999999969
11
197.8017459999999801
21
-48.8480169999999987
0
LINE
8
BLACK
6
CONTINUOUS
10
197.8017459999999801
20
-48.8480169999999987
11
197.6347149999999999
21
-48.8480109999999996
0
LINE
8
BLACK
6
CONTINUOUS
10
197.6347149999999999
20
-48.8480109999999996
11
197.3022599999999898
21
-48.8807429999999954
0
LINE
8
BLACK
6
CONTINUOUS
10
197.3022599999999898
20
-48.8807429999999954
11
196.974615
21
-48.9459069999999983
0
LINE
8
BLACK
6
CONTINUOUS
10
196.974615
20
-48.9459069999999983
11
196.6549349999999947
21
-49.0428759999999997
0
LINE
8
BLACK
6
CONTINUOUS
10
196.6549349999999947
20
-49.0428759999999997
11
196.3463009999999827
21
-49.1707139999999967
0
LINE
8
BLACK
6
CONTINUOUS
10
196.3463009999999827
20
-49.1707139999999967
11
196.051684999999992
21
-49.3281899999999993
0
LINE
8
BLACK
6
CONTINUOUS
10
196.051684999999992
20
-49.3281899999999993
11
195.7739239999999938
21
-49.5137889999999956
0
LINE
8
BLACK
6
CONTINUOUS
10
195.7739239999999938
20
-49.5137889999999956
11
195.5156949999999938
21
-49.7257210000000001
0
LINE
8
BLACK
6
CONTINUOUS
10
195.5156949999999938
20
-49.7257210000000001
11
195.3975889999999822
21
-49.8438329999999965
0
LINE
8
BLACK
6
CONTINUOUS
10
195.3975889999999822
20
-49.8438329999999965
11
195.3911849999999788
21
-49.847529999999999
0
LINE
8
BLACK
6
CONTINUOUS
10
195.3911849999999788
20
-49.847529999999999
11
190.5942839999999876
21
-54.6471379999999982
0
LINE
8
BLACK
6
CONTINUOUS
10
190.5942839999999876
20
-54.6471379999999982
11
190.5942619999999863
21
-54.6471549999999979
0
LINE
8
BLACK
6
CONTINUOUS
10
190.5942619999999863
20
-54.6471549999999979
11
190.3305809999999951
21
-54.8887859999999961
0
LINE
8
BLACK
6
CONTINUOUS
10
190.3305809999999951
20
-54.8887859999999961
11
190.0468170000000043
21
-55.1065329999999989
0
LINE
8
BLACK
6
CONTINUOUS
10
190.0468170000000043
20
-55.1065329999999989
11
189.7451549999999827
21
-55.2987159999999989
0
LINE
8
BLACK
6
CONTINUOUS
10
189.7451549999999827
20
-55.2987159999999989
11
189.4278879999999958
21
-55.4638749999999945
0
LINE
8
BLACK
6
CONTINUOUS
10
189.4278879999999958
20
-55.4638749999999945
11
189.0974339999999927
21
-55.6007509999999954
0
LINE
8
BLACK
6
CONTINUOUS
10
189.0974339999999927
20
-55.6007509999999954
11
188.7563069999999925
21
-55.7083030000000008
0
LINE
8
BLACK
6
CONTINUOUS
10
188.7563069999999925
20
-55.7083030000000008
11
188.4071040000000039
21
-55.7857119999999966
0
LINE
8
BLACK
6
CONTINUOUS
10
188.4071040000000039
20
-55.7857119999999966
11
188.0524819999999977
21
-55.8323889999999992
0
LINE
8
BLACK
6
CONTINUOUS
10
188.0524819999999977
20
-55.8323889999999992
11
187.6951420000000041
21
-55.8479779999999977
0
LINE
8
BLACK
6
CONTINUOUS
10
187.6951420000000041
20
-55.8479779999999977
11
187.6951420000000041
21
-55.847999999999999
0
LINE
8
BLACK
6
CONTINUOUS
10
187.6951420000000041
20
-55.847999999999999
11
187.6880089999999939
21
-55.8460879999999946
0
LINE
8
BLACK
6
CONTINUOUS
10
187.6880089999999939
20
-55.8460879999999946
11
182.3797559999999862
21
-55.847999999999999
0
LINE
8
BLACK
6
CONTINUOUS
10
182.3797559999999862
20
-55.847999999999999
11
181.786215999999996
21
-55.8305419999999941
0
LINE
8
BLACK
6
CONTINUOUS
10
181.786215999999996
20
-55.8305419999999941
11
181.1947279999999978
21
-55.7782349999999951
0
LINE
8
BLACK
6
CONTINUOUS
10
181.1947279999999978
20
-55.7782349999999951
11
180.6073360000000037
21
-55.6912579999999977
0
LINE
8
BLACK
6
CONTINUOUS
10
180.6073360000000037
20
-55.6912579999999977
11
180.0260710000000017
21
-55.5699119999999951
0
LINE
8
BLACK
6
CONTINUOUS
10
180.0260710000000017
20
-55.5699119999999951
11
179.4529409999999814
21
-55.4146179999999973
0
LINE
8
BLACK
6
CONTINUOUS
10
179.4529409999999814
20
-55.4146179999999973
11
178.8899279999999976
21
-55.2259109999999964
0
LINE
8
BLACK
6
CONTINUOUS
10
178.8899279999999976
20
-55.2259109999999964
11
178.3389769999999999
21
-55.0044439999999994
0
LINE
8
BLACK
6
CONTINUOUS
10
178.3389769999999999
20
-55.0044439999999994
11
177.8019939999999792
21
-54.7509820000000005
0
LINE
8
BLACK
6
CONTINUOUS
10
177.8019939999999792
20
-54.7509820000000005
11
177.2808330000000012
21
-54.4664019999999951
0
LINE
8
BLACK
6
CONTINUOUS
10
177.2808330000000012
20
-54.4664019999999951
11
176.7772970000000043
21
-54.1516869999999955
0
LINE
8
BLACK
6
CONTINUOUS
10
176.7772970000000043
20
-54.1516869999999955
11
176.7772839999999803
21
-54.1517079999999993
0
LINE
8
BLACK
6
CONTINUOUS
10
176.7772839999999803
20
-54.1517079999999993
11
176.7723939999999914
21
-54.1461439999999996
0
LINE
8
BLACK
6
CONTINUOUS
10
176.7723939999999914
20
-54.1461439999999996
11
166.8157759999999996
21
-47.5107019999999949
0
LINE
8
BLACK
6
CONTINUOUS
10
166.8157759999999996
20
-47.5107019999999949
11
166.8157620000000065
21
-47.5107220000000012
0
LINE
8
BLACK
6
CONTINUOUS
10
166.8157620000000065
20
-47.5107220000000012
11
166.5735099999999989
21
-47.3492329999999981
0
LINE
8
BLACK
6
CONTINUOUS
10
166.5735099999999989
20
-47.3492329999999981
11
166.070873000000006
21
-47.0552649999999986
0
LINE
8
BLACK
6
CONTINUOUS
10
166.070873000000006
20
-47.0552649999999986
11
165.5518299999999954
21
-46.7913439999999952
0
LINE
8
BLACK
6
CONTINUOUS
10
165.5518299999999954
20
-46.7913439999999952
11
165.0181739999999877
21
-46.5583809999999971
0
LINE
8
BLACK
6
CONTINUOUS
10
165.0181739999999877
20
-46.5583809999999971
11
164.4717499999999859
21
-46.3571809999999971
0
LINE
8
BLACK
6
CONTINUOUS
10
164.4717499999999859
20
-46.3571809999999971
11
163.9144459999999981
21
-46.1884409999999974
0
LINE
8
BLACK
6
CONTINUOUS
10
163.9144459999999981
20
-46.1884409999999974
11
163.3481899999999882
21
-46.0527429999999995
0
LINE
8
BLACK
6
CONTINUOUS
10
163.3481899999999882
20
-46.0527429999999995
11
162.7749369999999942
21
-45.9505559999999988
0
LINE
8
BLACK
6
CONTINUOUS
10
162.7749369999999942
20
-45.9505559999999988
11
162.1966709999999807
21
-45.8822339999999969
0
LINE
8
BLACK
6
CONTINUOUS
10
162.1966709999999807
20
-45.8822339999999969
11
161.6153879999999958
21
-45.8480119999999971
0
LINE
8
BLACK
6
CONTINUOUS
10
161.6153879999999958
20
-45.8480119999999971
11
161.3242439999999931
21
-45.847999999999999
0
LINE
8
BLACK
6
CONTINUOUS
10
161.3242439999999931
20
-45.847999999999999
11
161.3170819999999992
21
-45.8460809999999981
0
LINE
8
BLACK
6
CONTINUOUS
10
161.3170819999999992
20
-45.8460809999999981
11
137.3797559999999862
21
-45.847999999999999
  0
ENDSEC
  0
EOF
