M48
; DRILL file {KiCad 8.0.1} date 2024-05-05T13:03:45+0700
; FORMAT={-:-/ absolute / metric / decimal}
; #@! TF.CreationDate,2024-05-05T13:03:45+07:00
; #@! TF.GenerationSoftware,Kicad,Pcbnew,8.0.1
; #@! TF.FileFunction,Plated,1,2,PTH
FMAT,2
METRIC
; #@! TA.AperFunction,Plated,PTH,ViaDrill
T1C0.300
; #@! TA.AperFunction,Plated,PTH,ComponentDrill
T2C0.600
; #@! TA.AperFunction,Plated,PTH,ComponentDrill
T3C0.800
; #@! TA.AperFunction,Plated,PTH,ComponentDrill
T4C0.889
; #@! TA.AperFunction,Plated,PTH,ComponentDrill
T5C0.900
; #@! TA.AperFunction,Plated,PTH,ComponentDrill
T6C0.990
; #@! TA.AperFunction,Plated,PTH,ComponentDrill
T7C1.000
; #@! TA.AperFunction,Plated,PTH,ComponentDrill
T8C1.100
; #@! TA.AperFunction,Plated,PTH,ComponentDrill
T9C1.300
; #@! TA.AperFunction,Plated,PTH,ComponentDrill
T10C1.397
; #@! TA.AperFunction,Plated,PTH,ComponentDrill
T11C1.800
; #@! TA.AperFunction,Plated,PTH,ComponentDrill
T12C3.000
%
G90
G05
T1
X104.05Y-78.65
X109.0Y-109.8
X115.4Y-86.9
X126.0Y-81.8
X130.1Y-60.7
X130.648Y-57.148
X143.4Y-113.9
X143.5Y-57.4
X148.0Y-88.7
X153.8Y-70.1
X154.595Y-73.495
X157.6Y-73.2
X158.1Y-61.7
X163.0Y-116.2
T2
X139.954Y-54.896
X139.954Y-56.896
X158.75Y-54.896
X158.75Y-56.896
T3
X101.7Y-112.5
X101.7Y-125.2
X140.411Y-111.302
X142.951Y-111.302
X143.002Y-85.852
X143.002Y-90.602
X145.491Y-111.302
X145.542Y-53.303
X145.542Y-55.843
X148.031Y-111.302
X148.082Y-53.303
X148.082Y-55.843
X150.571Y-111.302
X150.622Y-53.303
X150.622Y-55.843
X153.111Y-111.302
X153.162Y-53.303
X153.162Y-55.843
X155.651Y-111.302
X155.702Y-85.852
X155.702Y-90.602
X158.191Y-111.302
T4
X86.192Y-78.008
X86.192Y-80.548
X86.192Y-83.088
X93.812Y-90.708
X96.352Y-90.708
X98.892Y-90.708
X164.992Y-106.708
X164.992Y-109.248
X164.992Y-111.788
X172.612Y-119.408
X175.152Y-119.408
X177.692Y-119.408
T5
X93.177Y-67.848
X93.177Y-72.928
X99.527Y-67.848
X99.527Y-72.928
X145.805Y-61.066
X171.977Y-96.548
X171.977Y-101.628
X178.327Y-96.548
X178.327Y-101.628
T6
X95.5Y-102.16
X95.5Y-104.7
X95.5Y-107.24
X96.077Y-51.748
X100.577Y-51.748
X198.127Y-51.748
X202.627Y-51.748
T7
X87.6Y-120.8
X95.2Y-120.8
X113.032Y-79.268
X113.032Y-81.808
X113.032Y-84.348
X113.032Y-86.888
X113.032Y-89.428
X113.032Y-91.968
X113.032Y-94.508
X113.032Y-97.048
X113.032Y-99.588
X113.032Y-102.128
X113.032Y-104.668
X113.032Y-107.208
X113.032Y-109.748
X113.032Y-112.288
X113.032Y-114.828
X116.116Y-70.998
X118.656Y-70.998
X121.196Y-70.998
X128.272Y-79.268
X128.272Y-81.808
X128.272Y-84.348
X128.272Y-86.888
X128.272Y-89.428
X128.272Y-91.968
X128.272Y-94.508
X128.272Y-97.048
X128.272Y-99.588
X128.272Y-102.128
X128.272Y-104.668
X128.272Y-107.208
X128.272Y-109.748
X128.272Y-112.288
X128.272Y-114.828
X145.532Y-120.396
X148.072Y-120.396
X148.345Y-61.066
X150.612Y-120.396
X150.885Y-61.066
X153.152Y-120.396
X153.425Y-61.066
X177.064Y-70.998
X179.604Y-70.998
X182.144Y-70.998
X200.152Y-80.015
X200.152Y-82.555
T8
X205.232Y-76.2
X205.232Y-86.36
T9
X94.822Y-54.238
X101.832Y-54.238
X183.484Y-74.888
X183.484Y-87.388
X188.484Y-74.888
X188.484Y-87.388
X194.212Y-64.048
X194.212Y-69.048
X194.212Y-93.004
X194.212Y-98.004
X196.872Y-54.238
X203.882Y-54.238
X206.712Y-64.048
X206.712Y-69.048
X206.712Y-93.004
X206.712Y-98.004
X212.44Y-74.888
X212.44Y-87.388
X217.44Y-74.888
X217.44Y-87.388
T10
X88.732Y-73.88
X88.732Y-87.215
X103.972Y-73.88
X103.972Y-87.215
X167.532Y-102.581
X167.532Y-115.915
X182.772Y-102.581
X182.772Y-115.915
T12
X83.802Y-65.748
X89.952Y-141.348
X132.927Y-52.648
X165.777Y-52.648
X208.752Y-141.348
X214.902Y-65.748
T11
G00X113.616Y-64.148
M15
G01X113.616Y-63.848
M16
G05
G00X123.616Y-64.148
M15
G01X123.616Y-63.848
M16
G05
G00X174.564Y-64.148
M15
G01X174.564Y-63.848
M16
G05
G00X184.564Y-64.148
M15
G01X184.564Y-63.848
M16
G05
M30
