G04 #@! TF.GenerationSoftware,KiCad,Pcbnew,8.0.1*
G04 #@! TF.CreationDate,2024-05-05T13:03:49+07:00*
G04 #@! TF.ProjectId,Arduino_RC_Transceiver_DIY_2.3.0,41726475-696e-46f5-9f52-435f5472616e,2.1.0*
G04 #@! TF.SameCoordinates,Original*
G04 #@! TF.FileFunction,Legend,Top*
G04 #@! TF.FilePolarity,Positive*
%FSLAX46Y46*%
G04 Gerber Fmt 4.6, Leading zero omitted, Abs format (unit mm)*
G04 Created by KiCad (PCBNEW 8.0.1) date 2024-05-05 13:03:49*
%MOMM*%
%LPD*%
G01*
G04 APERTURE LIST*
G04 Aperture macros list*
%AMRoundRect*
0 Rectangle with rounded corners*
0 $1 Rounding radius*
0 $2 $3 $4 $5 $6 $7 $8 $9 X,Y pos of 4 corners*
0 Add a 4 corners polygon primitive as box body*
4,1,4,$2,$3,$4,$5,$6,$7,$8,$9,$2,$3,0*
0 Add four circle primitives for the rounded corners*
1,1,$1+$1,$2,$3*
1,1,$1+$1,$4,$5*
1,1,$1+$1,$6,$7*
1,1,$1+$1,$8,$9*
0 Add four rect primitives between the rounded corners*
20,1,$1+$1,$2,$3,$4,$5,0*
20,1,$1+$1,$4,$5,$6,$7,0*
20,1,$1+$1,$6,$7,$8,$9,0*
20,1,$1+$1,$8,$9,$2,$3,0*%
G04 Aperture macros list end*
%ADD10C,0.150000*%
%ADD11C,0.100000*%
%ADD12C,0.000000*%
%ADD13C,0.127000*%
%ADD14C,0.200000*%
%ADD15C,1.500000*%
%ADD16C,0.120000*%
%ADD17O,2.504000X2.204000*%
%ADD18RoundRect,0.102000X-1.150000X1.000000X-1.150000X-1.000000X1.150000X-1.000000X1.150000X1.000000X0*%
%ADD19C,1.982000*%
%ADD20C,2.490000*%
%ADD21C,6.000000*%
%ADD22O,1.850000X3.048000*%
%ADD23C,5.000000*%
%ADD24RoundRect,0.102000X-1.000000X-1.000000X1.000000X-1.000000X1.000000X1.000000X-1.000000X1.000000X0*%
%ADD25C,2.204000*%
%ADD26R,2.000000X2.000000*%
%ADD27C,2.000000*%
%ADD28C,1.744000*%
%ADD29C,2.154000*%
%ADD30O,1.800000X2.100000*%
%ADD31R,1.200000X1.200000*%
%ADD32C,1.200000*%
%ADD33C,1.600000*%
%ADD34O,1.600000X1.600000*%
%ADD35O,2.204000X1.804000*%
%ADD36R,1.900000X1.900000*%
%ADD37C,1.900000*%
%ADD38RoundRect,0.750000X0.750000X-1.250000X0.750000X1.250000X-0.750000X1.250000X-0.750000X-1.250000X0*%
%ADD39O,3.048000X1.850000*%
%ADD40O,1.800000X2.000000*%
%ADD41R,2.200000X2.200000*%
%ADD42O,2.200000X2.200000*%
%ADD43R,1.700000X1.700000*%
%ADD44O,1.700000X1.700000*%
G04 APERTURE END LIST*
D10*
X152654000Y-48514000D02*
X152654000Y-46736000D01*
X151384000Y-48514000D02*
X152654000Y-48514000D01*
X145542000Y-46482000D02*
X145542000Y-49530000D01*
X143738600Y-117906800D02*
X154940000Y-117906800D01*
X154940000Y-123164600D01*
X143738600Y-123164600D01*
X143738600Y-117906800D01*
X144018000Y-48260000D02*
X144018000Y-46482000D01*
X146812000Y-47752000D02*
X151384000Y-47752000D01*
X146812000Y-49530000D02*
X146812000Y-47752000D01*
X151384000Y-47752000D02*
X151384000Y-48514000D01*
X152654000Y-46736000D02*
X154940000Y-46736000D01*
X144018000Y-46482000D02*
X145542000Y-46482000D01*
X145542000Y-49530000D02*
X146812000Y-49530000D01*
X152527000Y-121982400D02*
X153492200Y-121982400D01*
X153492200Y-123100000D01*
X152527000Y-123100000D01*
X152527000Y-121982400D01*
G36*
X152527000Y-121982400D02*
G01*
X153492200Y-121982400D01*
X153492200Y-123100000D01*
X152527000Y-123100000D01*
X152527000Y-121982400D01*
G37*
X145617400Y-121982400D02*
X146582600Y-121982400D01*
X146582600Y-123100000D01*
X145617400Y-123100000D01*
X145617400Y-121982400D01*
G36*
X145617400Y-121982400D02*
G01*
X146582600Y-121982400D01*
X146582600Y-123100000D01*
X145617400Y-123100000D01*
X145617400Y-121982400D01*
G37*
X154940000Y-46736000D02*
X154940000Y-52070000D01*
X87209048Y-118333866D02*
X87970953Y-118333866D01*
X87590000Y-118714819D02*
X87590000Y-117952914D01*
D11*
X119405884Y-117339419D02*
X119405884Y-118148942D01*
X119405884Y-118148942D02*
X119453503Y-118244180D01*
X119453503Y-118244180D02*
X119501122Y-118291800D01*
X119501122Y-118291800D02*
X119596360Y-118339419D01*
X119596360Y-118339419D02*
X119786836Y-118339419D01*
X119786836Y-118339419D02*
X119882074Y-118291800D01*
X119882074Y-118291800D02*
X119929693Y-118244180D01*
X119929693Y-118244180D02*
X119977312Y-118148942D01*
X119977312Y-118148942D02*
X119977312Y-117339419D01*
X120405884Y-118291800D02*
X120548741Y-118339419D01*
X120548741Y-118339419D02*
X120786836Y-118339419D01*
X120786836Y-118339419D02*
X120882074Y-118291800D01*
X120882074Y-118291800D02*
X120929693Y-118244180D01*
X120929693Y-118244180D02*
X120977312Y-118148942D01*
X120977312Y-118148942D02*
X120977312Y-118053704D01*
X120977312Y-118053704D02*
X120929693Y-117958466D01*
X120929693Y-117958466D02*
X120882074Y-117910847D01*
X120882074Y-117910847D02*
X120786836Y-117863228D01*
X120786836Y-117863228D02*
X120596360Y-117815609D01*
X120596360Y-117815609D02*
X120501122Y-117767990D01*
X120501122Y-117767990D02*
X120453503Y-117720371D01*
X120453503Y-117720371D02*
X120405884Y-117625133D01*
X120405884Y-117625133D02*
X120405884Y-117529895D01*
X120405884Y-117529895D02*
X120453503Y-117434657D01*
X120453503Y-117434657D02*
X120501122Y-117387038D01*
X120501122Y-117387038D02*
X120596360Y-117339419D01*
X120596360Y-117339419D02*
X120834455Y-117339419D01*
X120834455Y-117339419D02*
X120977312Y-117387038D01*
X121739217Y-117815609D02*
X121882074Y-117863228D01*
X121882074Y-117863228D02*
X121929693Y-117910847D01*
X121929693Y-117910847D02*
X121977312Y-118006085D01*
X121977312Y-118006085D02*
X121977312Y-118148942D01*
X121977312Y-118148942D02*
X121929693Y-118244180D01*
X121929693Y-118244180D02*
X121882074Y-118291800D01*
X121882074Y-118291800D02*
X121786836Y-118339419D01*
X121786836Y-118339419D02*
X121405884Y-118339419D01*
X121405884Y-118339419D02*
X121405884Y-117339419D01*
X121405884Y-117339419D02*
X121739217Y-117339419D01*
X121739217Y-117339419D02*
X121834455Y-117387038D01*
X121834455Y-117387038D02*
X121882074Y-117434657D01*
X121882074Y-117434657D02*
X121929693Y-117529895D01*
X121929693Y-117529895D02*
X121929693Y-117625133D01*
X121929693Y-117625133D02*
X121882074Y-117720371D01*
X121882074Y-117720371D02*
X121834455Y-117767990D01*
X121834455Y-117767990D02*
X121739217Y-117815609D01*
X121739217Y-117815609D02*
X121405884Y-117815609D01*
D10*
X203586819Y-86621904D02*
X202586819Y-86621904D01*
X203586819Y-86050476D02*
X203015390Y-86479047D01*
X202586819Y-86050476D02*
X203158247Y-86621904D01*
D12*
G36*
X101988110Y-101499540D02*
G01*
X102066189Y-101511122D01*
X102142757Y-101530301D01*
X102217077Y-101556893D01*
X102288432Y-101590641D01*
X102356135Y-101631221D01*
X102419535Y-101678242D01*
X102478021Y-101731250D01*
X102531030Y-101789736D01*
X102578050Y-101853136D01*
X102618630Y-101920840D01*
X102652379Y-101992195D01*
X102678971Y-102066514D01*
X102698150Y-102143082D01*
X102709732Y-102221162D01*
X102713605Y-102300000D01*
X102709732Y-102378838D01*
X102698150Y-102456918D01*
X102678971Y-102533486D01*
X102652379Y-102607805D01*
X102618630Y-102679160D01*
X102578050Y-102746864D01*
X102531030Y-102810264D01*
X102478021Y-102868750D01*
X102419535Y-102921758D01*
X102356135Y-102968779D01*
X102288432Y-103009359D01*
X102217077Y-103043107D01*
X102142757Y-103069699D01*
X102066189Y-103088878D01*
X101988110Y-103100460D01*
X101909272Y-103104333D01*
X101644688Y-103104333D01*
X100582651Y-103104333D01*
X99457113Y-103104333D01*
X98887201Y-103104333D01*
X98622617Y-103104333D01*
X98086395Y-102300000D01*
X98446228Y-101760250D01*
X98887201Y-101760250D01*
X99207876Y-102839750D01*
X99457113Y-102839750D01*
X99987338Y-102839750D01*
X100582651Y-102839750D01*
X100582651Y-102663537D01*
X100384213Y-102663537D01*
X100384213Y-101936462D01*
X100571538Y-101936462D01*
X100571538Y-101760250D01*
X100831888Y-101760250D01*
X100831888Y-102839750D01*
X101027151Y-102839750D01*
X101027151Y-102219037D01*
X101004926Y-101993612D01*
X101009688Y-101993612D01*
X101397038Y-102839750D01*
X101644688Y-102839750D01*
X101644688Y-101760250D01*
X101449426Y-101760250D01*
X101449426Y-102380963D01*
X101471651Y-102606388D01*
X101466888Y-102606388D01*
X101079538Y-101760250D01*
X100831888Y-101760250D01*
X100571538Y-101760250D01*
X99998451Y-101760250D01*
X99998451Y-101936462D01*
X100185776Y-101936462D01*
X100185776Y-102663537D01*
X99987338Y-102663537D01*
X99987338Y-102839750D01*
X99457113Y-102839750D01*
X99777788Y-101760250D01*
X99571413Y-101760250D01*
X99336463Y-102601625D01*
X99328526Y-102601625D01*
X99093576Y-101760250D01*
X98887201Y-101760250D01*
X98446228Y-101760250D01*
X98622617Y-101495667D01*
X98887201Y-101495667D01*
X101644688Y-101495667D01*
X101909272Y-101495667D01*
X101988110Y-101499540D01*
G37*
D11*
X93595000Y-99620000D02*
X93595000Y-109780000D01*
X98040000Y-99620000D02*
X92960000Y-99620000D01*
X92960000Y-109780000D01*
X98040000Y-109780000D01*
X98040000Y-99620000D01*
D12*
G36*
X184556044Y-80639206D02*
G01*
X184632045Y-80652303D01*
X184679075Y-80675719D01*
X184711619Y-80775731D01*
X184687013Y-80874950D01*
X184594144Y-80904319D01*
X184371894Y-80904319D01*
X184371894Y-80634444D01*
X184424281Y-80634444D01*
X184556044Y-80639206D01*
G37*
G36*
X184675900Y-81092438D02*
G01*
X184736225Y-81139269D01*
X184754481Y-81234519D01*
X184732256Y-81327388D01*
X184658438Y-81373425D01*
X184595533Y-81383545D01*
X184510006Y-81386919D01*
X184443728Y-81386125D01*
X184371894Y-81383744D01*
X184371894Y-81078944D01*
X184554456Y-81078944D01*
X184675900Y-81092438D01*
G37*
G36*
X188227354Y-80127676D02*
G01*
X188326879Y-80142440D01*
X188424478Y-80166887D01*
X188519211Y-80200783D01*
X188610165Y-80243801D01*
X188696465Y-80295527D01*
X188777279Y-80355463D01*
X188851829Y-80423031D01*
X188919397Y-80497582D01*
X188979333Y-80578396D01*
X189031059Y-80664696D01*
X189074078Y-80755650D01*
X189107973Y-80850383D01*
X189132421Y-80947982D01*
X189147184Y-81047507D01*
X189152121Y-81148000D01*
X189147184Y-81248493D01*
X189132421Y-81348018D01*
X189107973Y-81445617D01*
X189074078Y-81540350D01*
X189031059Y-81631304D01*
X188979333Y-81717604D01*
X188919397Y-81798418D01*
X188851829Y-81872969D01*
X188777279Y-81940537D01*
X188696465Y-82000473D01*
X188610165Y-82052199D01*
X188519211Y-82095217D01*
X188424478Y-82129113D01*
X188326879Y-82153560D01*
X188227354Y-82168324D01*
X188126860Y-82173260D01*
X187796131Y-82173260D01*
X187648494Y-82173260D01*
X186857919Y-82173260D01*
X185595856Y-82173260D01*
X184483019Y-82173260D01*
X184171869Y-82173260D01*
X183841140Y-82173260D01*
X183740647Y-82168324D01*
X183641121Y-82153560D01*
X183543522Y-82129113D01*
X183448789Y-82095217D01*
X183357835Y-82052199D01*
X183271535Y-82000473D01*
X183190721Y-81940537D01*
X183116171Y-81872969D01*
X183048603Y-81798418D01*
X182988667Y-81717604D01*
X182956976Y-81664731D01*
X186035594Y-81664731D01*
X186035594Y-81842531D01*
X186857919Y-81842531D01*
X186857919Y-81664731D01*
X186035594Y-81664731D01*
X182956976Y-81664731D01*
X182936941Y-81631304D01*
X182896439Y-81545669D01*
X184171869Y-81545669D01*
X184282641Y-81554488D01*
X184386358Y-81559780D01*
X184483019Y-81561544D01*
X184598289Y-81558457D01*
X184694333Y-81549197D01*
X184771150Y-81533763D01*
X184857470Y-81496258D01*
X184914819Y-81439306D01*
X184946966Y-81358344D01*
X184957681Y-81248806D01*
X184953514Y-81170622D01*
X184941013Y-81110694D01*
X184883863Y-81031319D01*
X184768769Y-80990044D01*
X184768769Y-80980519D01*
X184837230Y-80955516D01*
X184880688Y-80915431D01*
X184903905Y-80853122D01*
X184911644Y-80761444D01*
X184900730Y-80657264D01*
X184867988Y-80579675D01*
X184809448Y-80524708D01*
X184721144Y-80488394D01*
X184642651Y-80473401D01*
X184598502Y-80469344D01*
X185103731Y-80469344D01*
X185103731Y-80650319D01*
X185392656Y-80650319D01*
X185392656Y-81548844D01*
X185595856Y-81548844D01*
X185595856Y-81351994D01*
X187018256Y-81351994D01*
X187457994Y-81351994D01*
X187457994Y-81548844D01*
X187648494Y-81548844D01*
X187648494Y-81351994D01*
X187796131Y-81351994D01*
X187796131Y-81180544D01*
X187648494Y-81180544D01*
X187648494Y-80928131D01*
X187457994Y-80928131D01*
X187457994Y-81180544D01*
X187218281Y-81180544D01*
X187578644Y-80453469D01*
X187365919Y-80453469D01*
X187018256Y-81171019D01*
X187018256Y-81351994D01*
X185595856Y-81351994D01*
X185595856Y-80650319D01*
X185884781Y-80650319D01*
X185884781Y-80469344D01*
X185103731Y-80469344D01*
X184598502Y-80469344D01*
X184544755Y-80464405D01*
X184433291Y-80461555D01*
X184171869Y-80466169D01*
X184171869Y-81545669D01*
X182896439Y-81545669D01*
X182893923Y-81540350D01*
X182860027Y-81445617D01*
X182835579Y-81348018D01*
X182820816Y-81248493D01*
X182815879Y-81148000D01*
X182820816Y-81047507D01*
X182835579Y-80947982D01*
X182860027Y-80850383D01*
X182893923Y-80755650D01*
X182936941Y-80664696D01*
X182988667Y-80578396D01*
X183048603Y-80497582D01*
X183116171Y-80423031D01*
X183190721Y-80355463D01*
X183271535Y-80295527D01*
X183357835Y-80243801D01*
X183448789Y-80200783D01*
X183543522Y-80166887D01*
X183641121Y-80142440D01*
X183740647Y-80127676D01*
X183841140Y-80122740D01*
X184171869Y-80122740D01*
X187796131Y-80122740D01*
X188126860Y-80122740D01*
X188227354Y-80127676D01*
G37*
D13*
X85252000Y-75648000D02*
X88402000Y-75648000D01*
X85252000Y-85448000D02*
X85252000Y-75648000D01*
X88402000Y-85448000D02*
X85252000Y-85448000D01*
X88402000Y-85718000D02*
X88402000Y-85448000D01*
X90282000Y-72548000D02*
X90902000Y-72548000D01*
X90902000Y-66248000D02*
X101802000Y-66248000D01*
X90902000Y-72548000D02*
X90902000Y-66248000D01*
X91502000Y-88448000D02*
X90282000Y-88448000D01*
X91502000Y-91648000D02*
X91502000Y-88448000D01*
X101202000Y-88448000D02*
X101202000Y-91648000D01*
X101802000Y-66248000D02*
X101802000Y-72548000D01*
X101802000Y-72548000D02*
X102432000Y-72548000D01*
X102432000Y-88448000D02*
X101202000Y-88448000D01*
X104302000Y-76448000D02*
X105852000Y-76448000D01*
X104302000Y-84548000D02*
X104302000Y-85668000D01*
X105852000Y-76448000D02*
X105852000Y-84548000D01*
X105852000Y-84548000D02*
X104302000Y-84548000D01*
D14*
X90402000Y-67198000D02*
G75*
G02*
X90202000Y-67198000I-100000J0D01*
G01*
X90202000Y-67198000D02*
G75*
G02*
X90402000Y-67198000I100000J0D01*
G01*
D15*
X135127000Y-52648000D02*
G75*
G02*
X130727000Y-52648000I-2200000J0D01*
G01*
X130727000Y-52648000D02*
G75*
G02*
X135127000Y-52648000I2200000J0D01*
G01*
D16*
X179834000Y-74988000D02*
X182554000Y-74988000D01*
X179834000Y-87288000D02*
X179834000Y-74988000D01*
X182554000Y-87288000D02*
X179834000Y-87288000D01*
X184414000Y-74988000D02*
X187554000Y-74988000D01*
X187554000Y-87288000D02*
X184414000Y-87288000D01*
X189414000Y-74988000D02*
X192134000Y-74988000D01*
X192134000Y-74988000D02*
X192134000Y-87288000D01*
X192134000Y-87288000D02*
X189414000Y-87288000D01*
X190603050Y-81038000D02*
G75*
G02*
X181444950Y-81038000I-4579050J0D01*
G01*
X181444950Y-81038000D02*
G75*
G02*
X190603050Y-81038000I4579050J0D01*
G01*
D13*
X132089000Y-94316250D02*
X132115000Y-89066250D01*
D11*
X132115000Y-59566250D02*
X132115000Y-62566250D01*
X136615000Y-59566250D02*
X132115000Y-59566250D01*
D13*
X136615000Y-59566250D02*
X162615000Y-59566250D01*
X138089000Y-94316250D02*
X132089000Y-94316250D01*
D11*
X162615000Y-59566250D02*
X166615000Y-59566250D01*
X166615000Y-59566250D02*
X166615000Y-62566250D01*
D13*
X166615000Y-89566250D02*
X166615000Y-94566250D01*
X166615000Y-94566250D02*
X160615000Y-94566250D01*
D14*
X145715000Y-59066250D02*
G75*
G02*
X145515000Y-59066250I-100000J0D01*
G01*
X145515000Y-59066250D02*
G75*
G02*
X145715000Y-59066250I100000J0D01*
G01*
D16*
X144202000Y-119066000D02*
X144202000Y-121726000D01*
X151882000Y-119066000D02*
X144202000Y-119066000D01*
X151882000Y-119066000D02*
X151882000Y-121726000D01*
X151882000Y-121726000D02*
X144202000Y-121726000D01*
X153152000Y-119066000D02*
X154482000Y-119066000D01*
X154482000Y-119066000D02*
X154482000Y-120396000D01*
X97500000Y-120800000D02*
G75*
G02*
X85300000Y-120800000I-6100000J0D01*
G01*
X85300000Y-120800000D02*
G75*
G02*
X97500000Y-120800000I6100000J0D01*
G01*
D12*
G36*
X116507261Y-67060564D02*
G01*
X116579294Y-67071875D01*
X116664225Y-67121881D01*
X116689625Y-67221894D01*
X116667400Y-67326669D01*
X116591200Y-67379056D01*
X116526112Y-67390963D01*
X116438800Y-67394931D01*
X116338787Y-67394931D01*
X116338787Y-67056794D01*
X116410225Y-67056794D01*
X116507261Y-67060564D01*
G37*
G36*
X117519491Y-67052627D02*
G01*
X117575450Y-67078225D01*
X117614939Y-67124263D01*
X117641331Y-67194113D01*
X117656214Y-67293530D01*
X117661175Y-67428269D01*
X117656214Y-67559039D01*
X117641331Y-67656075D01*
X117614939Y-67724734D01*
X117575450Y-67770375D01*
X117519491Y-67795973D01*
X117443687Y-67804506D01*
X117367686Y-67795973D01*
X117311131Y-67770375D01*
X117271047Y-67724734D01*
X117244456Y-67656075D01*
X117229573Y-67559039D01*
X117224612Y-67428269D01*
X117229573Y-67294522D01*
X117244456Y-67194906D01*
X117271047Y-67124461D01*
X117311131Y-67078225D01*
X117367686Y-67052627D01*
X117443687Y-67044094D01*
X117519491Y-67052627D01*
G37*
G36*
X121135635Y-66543676D02*
G01*
X121235160Y-66558440D01*
X121332759Y-66582887D01*
X121427492Y-66616783D01*
X121518446Y-66659801D01*
X121604746Y-66711527D01*
X121685560Y-66771463D01*
X121760110Y-66839031D01*
X121827679Y-66913582D01*
X121887615Y-66994396D01*
X121939341Y-67080696D01*
X121982359Y-67171650D01*
X122016255Y-67266383D01*
X122040702Y-67363982D01*
X122055465Y-67463507D01*
X122060402Y-67564000D01*
X122055465Y-67664493D01*
X122040702Y-67764018D01*
X122016255Y-67861617D01*
X121982359Y-67956350D01*
X121939341Y-68047304D01*
X121887615Y-68133604D01*
X121827679Y-68214418D01*
X121760110Y-68288969D01*
X121685560Y-68356537D01*
X121604746Y-68416473D01*
X121518446Y-68468199D01*
X121427492Y-68511217D01*
X121332759Y-68545113D01*
X121235160Y-68569560D01*
X121135635Y-68584324D01*
X121035142Y-68589260D01*
X120704412Y-68589260D01*
X119759850Y-68589260D01*
X118497787Y-68589260D01*
X117443687Y-68589260D01*
X116338787Y-68589260D01*
X116135587Y-68589260D01*
X115804858Y-68589260D01*
X115704365Y-68584324D01*
X115604840Y-68569560D01*
X115507241Y-68545113D01*
X115412508Y-68511217D01*
X115321554Y-68468199D01*
X115235254Y-68416473D01*
X115154440Y-68356537D01*
X115079890Y-68288969D01*
X115012321Y-68214418D01*
X114952385Y-68133604D01*
X114920694Y-68080731D01*
X118937525Y-68080731D01*
X118937525Y-68258531D01*
X119759850Y-68258531D01*
X119759850Y-68080731D01*
X118937525Y-68080731D01*
X114920694Y-68080731D01*
X114900659Y-68047304D01*
X114861658Y-67964844D01*
X116135587Y-67964844D01*
X116338787Y-67964844D01*
X116338787Y-67571144D01*
X116454675Y-67571144D01*
X116560332Y-67567704D01*
X116648703Y-67557385D01*
X116719787Y-67540188D01*
X116799758Y-67498714D01*
X116852344Y-67436206D01*
X116854960Y-67428269D01*
X117024587Y-67428269D01*
X117028733Y-67562148D01*
X117041168Y-67673802D01*
X117061894Y-67763231D01*
X117112297Y-67863641D01*
X117188894Y-67929919D01*
X117257068Y-67957259D01*
X117341999Y-67973663D01*
X117443687Y-67979131D01*
X117545376Y-67973663D01*
X117630307Y-67957259D01*
X117698481Y-67929919D01*
X117775078Y-67863641D01*
X117825481Y-67763231D01*
X117846207Y-67673802D01*
X117858642Y-67562148D01*
X117862787Y-67428269D01*
X117858642Y-67292449D01*
X117846207Y-67179208D01*
X117825481Y-67088544D01*
X117775078Y-66986745D01*
X117698481Y-66919475D01*
X117630307Y-66891694D01*
X117597953Y-66885344D01*
X118005662Y-66885344D01*
X118005662Y-67066319D01*
X118294587Y-67066319D01*
X118294587Y-67964844D01*
X118497787Y-67964844D01*
X118497787Y-67066319D01*
X118786712Y-67066319D01*
X118786712Y-66885344D01*
X119955112Y-66885344D01*
X119955112Y-67963256D01*
X120704412Y-67963256D01*
X120704412Y-67785456D01*
X120158312Y-67785456D01*
X120158312Y-66885344D01*
X119955112Y-66885344D01*
X118786712Y-66885344D01*
X118005662Y-66885344D01*
X117597953Y-66885344D01*
X117545376Y-66875025D01*
X117443687Y-66869469D01*
X117341999Y-66875025D01*
X117257068Y-66891694D01*
X117188894Y-66919475D01*
X117112297Y-66986745D01*
X117061894Y-67088544D01*
X117041168Y-67179208D01*
X117028733Y-67292449D01*
X117024587Y-67428269D01*
X116854960Y-67428269D01*
X116881514Y-67347703D01*
X116891237Y-67228244D01*
X116879927Y-67107197D01*
X116845994Y-67017106D01*
X116784875Y-66953408D01*
X116692006Y-66911538D01*
X116609368Y-66894340D01*
X116506445Y-66884021D01*
X116383237Y-66880581D01*
X116135587Y-66885344D01*
X116135587Y-67964844D01*
X114861658Y-67964844D01*
X114857641Y-67956350D01*
X114823745Y-67861617D01*
X114799298Y-67764018D01*
X114784535Y-67664493D01*
X114779598Y-67564000D01*
X114784535Y-67463507D01*
X114799298Y-67363982D01*
X114823745Y-67266383D01*
X114857641Y-67171650D01*
X114900659Y-67080696D01*
X114952385Y-66994396D01*
X115012321Y-66913582D01*
X115079890Y-66839031D01*
X115154440Y-66771463D01*
X115235254Y-66711527D01*
X115321554Y-66659801D01*
X115412508Y-66616783D01*
X115507241Y-66582887D01*
X115604840Y-66558440D01*
X115704365Y-66543676D01*
X115804858Y-66538740D01*
X116135587Y-66538740D01*
X120704412Y-66538740D01*
X121035142Y-66538740D01*
X121135635Y-66543676D01*
G37*
G36*
X102638112Y-116357000D02*
G01*
X102752412Y-116373669D01*
X102838138Y-116399069D01*
X102875444Y-116445106D01*
X102887350Y-116549881D01*
X102875444Y-116656244D01*
X102831788Y-116703869D01*
X102390462Y-116354619D01*
X102495237Y-116351444D01*
X102638112Y-116357000D01*
G37*
G36*
X102642875Y-116740381D02*
G01*
X102569056Y-116745144D01*
X102500000Y-116746731D01*
X102418045Y-116745144D01*
X102353156Y-116740381D01*
X102244412Y-116724506D01*
X102159481Y-116697519D01*
X102122969Y-116651481D01*
X102112650Y-116551469D01*
X102129319Y-116434787D01*
X102193612Y-116384781D01*
X102642875Y-116740381D01*
G37*
G36*
X103386354Y-117127731D02*
G01*
X103386354Y-118080231D01*
X103386354Y-118846994D01*
X103386354Y-119177723D01*
X103382086Y-119264601D01*
X103369323Y-119350642D01*
X103348188Y-119435018D01*
X103318884Y-119516916D01*
X103281695Y-119595547D01*
X103236977Y-119670155D01*
X103185161Y-119740020D01*
X103126747Y-119804470D01*
X103062297Y-119862884D01*
X102992432Y-119914699D01*
X102917824Y-119959418D01*
X102839193Y-119996607D01*
X102757295Y-120025911D01*
X102672919Y-120047046D01*
X102586878Y-120059809D01*
X102500000Y-120064077D01*
X102413122Y-120059809D01*
X102327081Y-120047046D01*
X102242705Y-120025911D01*
X102160807Y-119996607D01*
X102082176Y-119959418D01*
X102007568Y-119914699D01*
X101937703Y-119862884D01*
X101873253Y-119804470D01*
X101814839Y-119740020D01*
X101763023Y-119670155D01*
X101718305Y-119595547D01*
X101681116Y-119516916D01*
X101651812Y-119435018D01*
X101630677Y-119350642D01*
X101617914Y-119264601D01*
X101613646Y-119177723D01*
X101613646Y-118846994D01*
X101613646Y-118464406D01*
X101945962Y-118464406D01*
X101953106Y-118592795D01*
X101974537Y-118689037D01*
X102012836Y-118758094D01*
X102070581Y-118804925D01*
X102152536Y-118833302D01*
X102263462Y-118846994D01*
X102263462Y-118643794D01*
X102175356Y-118621569D01*
X102130906Y-118566800D01*
X102117412Y-118462819D01*
X102130112Y-118359631D01*
X102172181Y-118308037D01*
X102257112Y-118292956D01*
X102330137Y-118304069D01*
X102390462Y-118345344D01*
X102457534Y-118417178D01*
X102534925Y-118508856D01*
X102581161Y-118566602D01*
X102637319Y-118638237D01*
X102703398Y-118723764D01*
X102779400Y-118823181D01*
X103041337Y-118823181D01*
X103041337Y-118080231D01*
X102863538Y-118080231D01*
X102863538Y-118618394D01*
X102849250Y-118618394D01*
X102782399Y-118524114D01*
X102723661Y-118444474D01*
X102673037Y-118379475D01*
X102599616Y-118293552D01*
X102519050Y-118208819D01*
X102455550Y-118152859D01*
X102398400Y-118118331D01*
X102336884Y-118100472D01*
X102260287Y-118094519D01*
X102150552Y-118102853D01*
X102068994Y-118127856D01*
X102011447Y-118172505D01*
X101973744Y-118239775D01*
X101952908Y-118335223D01*
X101945962Y-118464406D01*
X101613646Y-118464406D01*
X101613646Y-117511906D01*
X101945962Y-117511906D01*
X101953106Y-117640295D01*
X101974537Y-117736537D01*
X102012836Y-117805594D01*
X102070581Y-117852425D01*
X102152536Y-117880802D01*
X102263462Y-117894494D01*
X102263462Y-117691294D01*
X102175356Y-117669069D01*
X102130906Y-117614300D01*
X102117412Y-117510319D01*
X102130112Y-117407131D01*
X102172181Y-117355537D01*
X102257112Y-117340456D01*
X102330137Y-117351569D01*
X102390462Y-117392844D01*
X102457534Y-117464678D01*
X102534925Y-117556356D01*
X102581161Y-117614102D01*
X102637319Y-117685737D01*
X102703398Y-117771264D01*
X102779400Y-117870681D01*
X103041337Y-117870681D01*
X103041337Y-117127731D01*
X102863538Y-117127731D01*
X102863538Y-117665894D01*
X102849250Y-117665894D01*
X102782399Y-117571614D01*
X102723661Y-117491974D01*
X102673037Y-117426975D01*
X102599616Y-117341052D01*
X102519050Y-117256319D01*
X102455550Y-117200359D01*
X102398400Y-117165831D01*
X102336884Y-117147972D01*
X102260287Y-117142019D01*
X102150552Y-117150353D01*
X102068994Y-117175356D01*
X102011447Y-117220005D01*
X101973744Y-117287275D01*
X101952908Y-117382723D01*
X101945962Y-117511906D01*
X101613646Y-117511906D01*
X101613646Y-116548294D01*
X101944375Y-116548294D01*
X101949336Y-116660411D01*
X101964219Y-116742762D01*
X101992000Y-116802691D01*
X102035656Y-116847537D01*
X102100545Y-116882264D01*
X102192025Y-116911831D01*
X102281101Y-116930352D01*
X102383231Y-116941465D01*
X102498412Y-116945169D01*
X102610596Y-116941817D01*
X102712196Y-116931763D01*
X102803212Y-116915006D01*
X102898661Y-116885042D01*
X102965931Y-116849125D01*
X103010381Y-116803286D01*
X103037369Y-116743556D01*
X103051061Y-116662197D01*
X103055625Y-116551469D01*
X103051061Y-116439550D01*
X103037369Y-116357794D01*
X103010580Y-116297866D01*
X102966725Y-116251431D01*
X102900447Y-116214919D01*
X102806388Y-116184756D01*
X102736934Y-116169873D01*
X102668275Y-116160150D01*
X102594456Y-116154792D01*
X102509525Y-116153006D01*
X102388699Y-116156710D01*
X102282336Y-116167823D01*
X102190437Y-116186344D01*
X102099156Y-116215911D01*
X102034862Y-116250637D01*
X101991802Y-116295286D01*
X101964219Y-116354619D01*
X101949336Y-116436375D01*
X101944375Y-116548294D01*
X101613646Y-116548294D01*
X101613646Y-116153006D01*
X101613646Y-115822277D01*
X101617914Y-115735399D01*
X101630677Y-115649358D01*
X101651812Y-115564982D01*
X101681116Y-115483084D01*
X101718305Y-115404453D01*
X101763023Y-115329845D01*
X101814839Y-115259980D01*
X101873253Y-115195530D01*
X101937703Y-115137116D01*
X102007568Y-115085301D01*
X102082176Y-115040582D01*
X102160807Y-115003393D01*
X102242705Y-114974089D01*
X102327081Y-114952954D01*
X102413122Y-114940191D01*
X102500000Y-114935923D01*
X102586878Y-114940191D01*
X102672919Y-114952954D01*
X102757295Y-114974089D01*
X102839193Y-115003393D01*
X102917824Y-115040582D01*
X102992432Y-115085301D01*
X103062297Y-115137116D01*
X103126747Y-115195530D01*
X103185161Y-115259980D01*
X103236977Y-115329845D01*
X103281695Y-115404453D01*
X103318884Y-115483084D01*
X103348188Y-115564982D01*
X103369323Y-115649358D01*
X103382086Y-115735399D01*
X103386354Y-115822277D01*
X103386354Y-116153006D01*
X103386354Y-116551469D01*
X103386354Y-117127731D01*
G37*
D11*
X195627000Y-48748000D02*
X199127000Y-48748000D01*
X195627000Y-50748000D02*
X195627000Y-48748000D01*
X195627000Y-55748000D02*
X195627000Y-53748000D01*
X197627000Y-55748000D02*
X195627000Y-55748000D01*
X203127000Y-55748000D02*
X205127000Y-55748000D01*
D14*
X204727000Y-51748000D02*
X204727000Y-51748000D01*
X204727000Y-51948000D02*
X204727000Y-51948000D01*
D11*
X205127000Y-48748000D02*
X201627000Y-48748000D01*
X205127000Y-50748000D02*
X205127000Y-48748000D01*
X205127000Y-55748000D02*
X205127000Y-53748000D01*
X201447800Y-51114400D02*
X199306200Y-51114400D01*
X199306200Y-48202800D01*
X201447800Y-48202800D01*
X201447800Y-51114400D01*
D14*
X204727000Y-51748000D02*
G75*
G02*
X204727000Y-51948000I0J-100000D01*
G01*
X204727000Y-51948000D02*
G75*
G02*
X204727000Y-51748000I0J100000D01*
G01*
D12*
G36*
X145929350Y-63399194D02*
G01*
X145985706Y-63451581D01*
X146008725Y-63557150D01*
X145635662Y-63557150D01*
X145662650Y-63451581D01*
X145718212Y-63399194D01*
X145821400Y-63384112D01*
X145929350Y-63399194D01*
G37*
G36*
X146877087Y-63409512D02*
G01*
X146933444Y-63489681D01*
X146945945Y-63558142D01*
X146950112Y-63650813D01*
X146945945Y-63743681D01*
X146933444Y-63812738D01*
X146877087Y-63894494D01*
X146764375Y-63919100D01*
X146639756Y-63895287D01*
X146577844Y-63813531D01*
X146564152Y-63743880D01*
X146559587Y-63650813D01*
X146564152Y-63558142D01*
X146577844Y-63489681D01*
X146639756Y-63409512D01*
X146764375Y-63385700D01*
X146877087Y-63409512D01*
G37*
G36*
X143990616Y-63157695D02*
G01*
X144046575Y-63183294D01*
X144086064Y-63229331D01*
X144112456Y-63299181D01*
X144127339Y-63398598D01*
X144132300Y-63533337D01*
X144127339Y-63664108D01*
X144112456Y-63761144D01*
X144086064Y-63829803D01*
X144046575Y-63875444D01*
X143990616Y-63901042D01*
X143914812Y-63909575D01*
X143838811Y-63901042D01*
X143782256Y-63875444D01*
X143742172Y-63829803D01*
X143715581Y-63761144D01*
X143700698Y-63664108D01*
X143695737Y-63533337D01*
X143700698Y-63399591D01*
X143715581Y-63299975D01*
X143742172Y-63229530D01*
X143782256Y-63183294D01*
X143838811Y-63157695D01*
X143914812Y-63149162D01*
X143990616Y-63157695D01*
G37*
G36*
X156136851Y-62587897D02*
G01*
X156225820Y-62601094D01*
X156313067Y-62622948D01*
X156397752Y-62653249D01*
X156479060Y-62691704D01*
X156556206Y-62737944D01*
X156628449Y-62791523D01*
X156695092Y-62851925D01*
X156755494Y-62918568D01*
X156809072Y-62990811D01*
X156855312Y-63067957D01*
X156893768Y-63149264D01*
X156924068Y-63233949D01*
X156945923Y-63321196D01*
X156959120Y-63410166D01*
X156963533Y-63500000D01*
X156959120Y-63589834D01*
X156945923Y-63678804D01*
X156924068Y-63766051D01*
X156893768Y-63850736D01*
X156855312Y-63932043D01*
X156809072Y-64009189D01*
X156755494Y-64081432D01*
X156695092Y-64148075D01*
X156628449Y-64208477D01*
X156556206Y-64262056D01*
X156479060Y-64308296D01*
X156397752Y-64346751D01*
X156313067Y-64377052D01*
X156225820Y-64398906D01*
X156136851Y-64412103D01*
X156047017Y-64416517D01*
X155716287Y-64416517D01*
X154420887Y-64416517D01*
X153811287Y-64416517D01*
X152885775Y-64416517D01*
X150499762Y-64416517D01*
X149675850Y-64416517D01*
X148875750Y-64416517D01*
X146708812Y-64416517D01*
X145834100Y-64416517D01*
X145249900Y-64416517D01*
X143914812Y-64416517D01*
X143495712Y-64416517D01*
X143164983Y-64416517D01*
X143075149Y-64412103D01*
X142986180Y-64398906D01*
X142898933Y-64377052D01*
X142814248Y-64346751D01*
X142732940Y-64308296D01*
X142655794Y-64262056D01*
X142583551Y-64208477D01*
X142516908Y-64148075D01*
X142456506Y-64081432D01*
X142402928Y-64009189D01*
X142356688Y-63932043D01*
X142318232Y-63850736D01*
X142287932Y-63766051D01*
X142266077Y-63678804D01*
X142252880Y-63589834D01*
X142250105Y-63533337D01*
X143495712Y-63533337D01*
X143499858Y-63667217D01*
X143512293Y-63778871D01*
X143533019Y-63868300D01*
X143583422Y-63968709D01*
X143660019Y-64034988D01*
X143728193Y-64062328D01*
X143813124Y-64078732D01*
X143914812Y-64084200D01*
X144016501Y-64078732D01*
X144062166Y-64069912D01*
X144497425Y-64069912D01*
X145249900Y-64069912D01*
X145249900Y-63904813D01*
X144978437Y-63904813D01*
X144978437Y-63647637D01*
X145438812Y-63647637D01*
X145442781Y-63753294D01*
X145454687Y-63841665D01*
X145474531Y-63912750D01*
X145522355Y-63992720D01*
X145594387Y-64045306D01*
X145696384Y-64074477D01*
X145834100Y-64084200D01*
X145943241Y-64078048D01*
X146026187Y-64059594D01*
X146087703Y-64026852D01*
X146132550Y-63977838D01*
X146163903Y-63908781D01*
X146184937Y-63815913D01*
X145988087Y-63815913D01*
X145936494Y-63898463D01*
X145832512Y-63920688D01*
X145719006Y-63902431D01*
X145659475Y-63841313D01*
X145634075Y-63719075D01*
X146197637Y-63719075D01*
X146199225Y-63657162D01*
X146198990Y-63650813D01*
X146364325Y-63650813D01*
X146367765Y-63756381D01*
X146378083Y-63844487D01*
X146395281Y-63915131D01*
X146436953Y-63994506D01*
X146500056Y-64046894D01*
X146589155Y-64076064D01*
X146708812Y-64085787D01*
X146791958Y-64080430D01*
X146850894Y-64064356D01*
X146934237Y-63984188D01*
X146946937Y-63984188D01*
X146946937Y-64069912D01*
X147139025Y-64069912D01*
X147139025Y-63439675D01*
X148337587Y-63439675D01*
X148623337Y-63263462D01*
X148685250Y-63212662D01*
X148678900Y-63311088D01*
X148678900Y-64069912D01*
X148875750Y-64069912D01*
X148875750Y-63779400D01*
X149374225Y-63779400D01*
X149374225Y-64069912D01*
X149675850Y-64069912D01*
X149675850Y-64019113D01*
X150193375Y-64019113D01*
X150267392Y-64050069D01*
X150337044Y-64069912D01*
X150411458Y-64080628D01*
X150499762Y-64084200D01*
X150641447Y-64075469D01*
X150664264Y-64069912D01*
X152153937Y-64069912D01*
X152885775Y-64069912D01*
X153071512Y-64069912D01*
X153265187Y-64069912D01*
X153265187Y-63639700D01*
X153269752Y-63553777D01*
X153283444Y-63489681D01*
X153343769Y-63414275D01*
X153463625Y-63392050D01*
X153538436Y-63399987D01*
X153585069Y-63423800D01*
X153609477Y-63469441D01*
X153617612Y-63542862D01*
X153617612Y-64069912D01*
X153811287Y-64069912D01*
X153811287Y-63657162D01*
X154020837Y-63657162D01*
X154024806Y-63760791D01*
X154036712Y-63847310D01*
X154056556Y-63916719D01*
X154104777Y-63994705D01*
X154178000Y-64046100D01*
X154281584Y-64074675D01*
X154420887Y-64084200D01*
X154540545Y-64077850D01*
X154629644Y-64058800D01*
X154693144Y-64024669D01*
X154736006Y-63973075D01*
X154761208Y-63900050D01*
X154771725Y-63801625D01*
X154581225Y-63801625D01*
X154534394Y-63892906D01*
X154428825Y-63917512D01*
X154354212Y-63911758D01*
X154298650Y-63894494D01*
X154233562Y-63815913D01*
X154219275Y-63748841D01*
X154214512Y-63658750D01*
X154219275Y-63564492D01*
X154233562Y-63494444D01*
X154297856Y-63411894D01*
X154352823Y-63393439D01*
X154427237Y-63387287D01*
X154535981Y-63415069D01*
X154579637Y-63520637D01*
X154771725Y-63520637D01*
X154761208Y-63416458D01*
X154736006Y-63338869D01*
X154692945Y-63283902D01*
X154628850Y-63247587D01*
X154538759Y-63227347D01*
X154417712Y-63220600D01*
X154279798Y-63230323D01*
X154177206Y-63259494D01*
X154104578Y-63312080D01*
X154056556Y-63392050D01*
X154036712Y-63463135D01*
X154024806Y-63551506D01*
X154020837Y-63657162D01*
X153811287Y-63657162D01*
X153811287Y-63546037D01*
X153804342Y-63432333D01*
X153783506Y-63348394D01*
X153746398Y-63289259D01*
X153690637Y-63249969D01*
X153611659Y-63227942D01*
X153504900Y-63220600D01*
X153427509Y-63227744D01*
X153369962Y-63249175D01*
X153323131Y-63290053D01*
X153277887Y-63355537D01*
X153265187Y-63355537D01*
X153265187Y-63241237D01*
X153071512Y-63241237D01*
X153071512Y-64069912D01*
X152885775Y-64069912D01*
X152885775Y-63906400D01*
X152627012Y-63906400D01*
X152620662Y-63906400D01*
X152620662Y-63241237D01*
X152169812Y-63241237D01*
X152169812Y-63404750D01*
X152430162Y-63404750D01*
X152430162Y-63906400D01*
X152153937Y-63906400D01*
X152153937Y-64069912D01*
X150664264Y-64069912D01*
X150749000Y-64049275D01*
X150826986Y-64003634D01*
X150879969Y-63936563D01*
X150910330Y-63844091D01*
X150920450Y-63722250D01*
X150914497Y-63618070D01*
X150896637Y-63537306D01*
X150865483Y-63477577D01*
X150819644Y-63436500D01*
X150757136Y-63412687D01*
X150675975Y-63404750D01*
X150612475Y-63407925D01*
X150612475Y-63399987D01*
X150879175Y-63174562D01*
X150879175Y-62990412D01*
X150215600Y-62990412D01*
X150215600Y-63158687D01*
X150637875Y-63158687D01*
X150371175Y-63395225D01*
X150371175Y-63582550D01*
X150467219Y-63568263D01*
X150545800Y-63563500D01*
X150627556Y-63573025D01*
X150682325Y-63601600D01*
X150713281Y-63650812D01*
X150723600Y-63722250D01*
X150711098Y-63812539D01*
X150673594Y-63870681D01*
X150604736Y-63902233D01*
X150498175Y-63912750D01*
X150426539Y-63907591D01*
X150357681Y-63892113D01*
X150282870Y-63863934D01*
X150193375Y-63820675D01*
X150193375Y-64019113D01*
X149675850Y-64019113D01*
X149675850Y-63779400D01*
X149374225Y-63779400D01*
X148875750Y-63779400D01*
X148875750Y-62990412D01*
X148678900Y-62990412D01*
X148337587Y-63230125D01*
X148337587Y-63439675D01*
X147139025Y-63439675D01*
X147139025Y-62914212D01*
X152384125Y-62914212D01*
X152384125Y-63138050D01*
X152627012Y-63138050D01*
X152627012Y-62914212D01*
X154976512Y-62914212D01*
X154976512Y-64069912D01*
X155170187Y-64069912D01*
X155170187Y-63638113D01*
X155174553Y-63549609D01*
X155187650Y-63484125D01*
X155247181Y-63407925D01*
X155367037Y-63385700D01*
X155443039Y-63393836D01*
X155490069Y-63418244D01*
X155514477Y-63464877D01*
X155522612Y-63539687D01*
X155522612Y-64069912D01*
X155716287Y-64069912D01*
X155716287Y-63542862D01*
X155709342Y-63430348D01*
X155688506Y-63346806D01*
X155651398Y-63287870D01*
X155595637Y-63249175D01*
X155516262Y-63227744D01*
X155408312Y-63220600D01*
X155330525Y-63227744D01*
X155271787Y-63249175D01*
X155224956Y-63289259D01*
X155182887Y-63352362D01*
X155170187Y-63352362D01*
X155170187Y-62914212D01*
X154976512Y-62914212D01*
X152627012Y-62914212D01*
X152384125Y-62914212D01*
X147139025Y-62914212D01*
X146946937Y-62914212D01*
X146946937Y-63319025D01*
X146934237Y-63319025D01*
X146861212Y-63241237D01*
X146799300Y-63225759D01*
X146708812Y-63220600D01*
X146589155Y-63230323D01*
X146500056Y-63259494D01*
X146436953Y-63311484D01*
X146395281Y-63389669D01*
X146378083Y-63459254D01*
X146367765Y-63546302D01*
X146364325Y-63650813D01*
X146198990Y-63650813D01*
X146195344Y-63552388D01*
X146183703Y-63464546D01*
X146164300Y-63393637D01*
X146117866Y-63313469D01*
X146048412Y-63260287D01*
X145951178Y-63230522D01*
X145821400Y-63220600D01*
X145687852Y-63230125D01*
X145588831Y-63258700D01*
X145518981Y-63310095D01*
X145472944Y-63388081D01*
X145453982Y-63457490D01*
X145442605Y-63544009D01*
X145438812Y-63647637D01*
X144978437Y-63647637D01*
X144978437Y-62914212D01*
X144513300Y-62914212D01*
X144513300Y-63079312D01*
X144787937Y-63079312D01*
X144787937Y-63904813D01*
X144497425Y-63904813D01*
X144497425Y-64069912D01*
X144062166Y-64069912D01*
X144101432Y-64062328D01*
X144169606Y-64034988D01*
X144246203Y-63968709D01*
X144296606Y-63868300D01*
X144317332Y-63778871D01*
X144329767Y-63667217D01*
X144333912Y-63533337D01*
X144329767Y-63397518D01*
X144317332Y-63284276D01*
X144296606Y-63193612D01*
X144246203Y-63091814D01*
X144169606Y-63024544D01*
X144101432Y-62996762D01*
X144016501Y-62980094D01*
X143914812Y-62974537D01*
X143813124Y-62980094D01*
X143728193Y-62996762D01*
X143660019Y-63024544D01*
X143583422Y-63091814D01*
X143533019Y-63193612D01*
X143512293Y-63284276D01*
X143499858Y-63397518D01*
X143495712Y-63533337D01*
X142250105Y-63533337D01*
X142248467Y-63500000D01*
X142252880Y-63410166D01*
X142266077Y-63321196D01*
X142287932Y-63233949D01*
X142318232Y-63149264D01*
X142356688Y-63067957D01*
X142402928Y-62990811D01*
X142456506Y-62918568D01*
X142516908Y-62851925D01*
X142583551Y-62791523D01*
X142655794Y-62737944D01*
X142732940Y-62691704D01*
X142814248Y-62653249D01*
X142898933Y-62622948D01*
X142986180Y-62601094D01*
X143075149Y-62587897D01*
X143164983Y-62583483D01*
X143495712Y-62583483D01*
X155716287Y-62583483D01*
X156047017Y-62583483D01*
X156136851Y-62587897D01*
G37*
D11*
X138852000Y-95757000D02*
X138852000Y-99139000D01*
X138852000Y-95757000D02*
X141392000Y-95757000D01*
X138852000Y-113139000D02*
X138852000Y-109639000D01*
X138852000Y-113139000D02*
X141392000Y-113139000D01*
X159852000Y-95757000D02*
X156632000Y-95757000D01*
X159852000Y-95757000D02*
X159852000Y-99139000D01*
X159852000Y-113139000D02*
X156632000Y-113139000D01*
X159852000Y-113139000D02*
X159852000Y-109639000D01*
D13*
X164052000Y-104348000D02*
X167202000Y-104348000D01*
X164052000Y-114148000D02*
X164052000Y-104348000D01*
X167202000Y-114148000D02*
X164052000Y-114148000D01*
X167202000Y-114418000D02*
X167202000Y-114148000D01*
X169082000Y-101248000D02*
X169702000Y-101248000D01*
X169702000Y-94948000D02*
X180602000Y-94948000D01*
X169702000Y-101248000D02*
X169702000Y-94948000D01*
X170302000Y-117148000D02*
X169082000Y-117148000D01*
X170302000Y-120348000D02*
X170302000Y-117148000D01*
X180002000Y-117148000D02*
X180002000Y-120348000D01*
X180602000Y-94948000D02*
X180602000Y-101248000D01*
X180602000Y-101248000D02*
X181232000Y-101248000D01*
X181232000Y-117148000D02*
X180002000Y-117148000D01*
X183102000Y-105148000D02*
X184652000Y-105148000D01*
X183102000Y-113248000D02*
X183102000Y-114368000D01*
X184652000Y-105148000D02*
X184652000Y-113248000D01*
X184652000Y-113248000D02*
X183102000Y-113248000D01*
D14*
X169202000Y-95898000D02*
G75*
G02*
X169002000Y-95898000I-100000J0D01*
G01*
X169002000Y-95898000D02*
G75*
G02*
X169202000Y-95898000I100000J0D01*
G01*
D16*
X137874000Y-55856000D02*
X142034000Y-55856000D01*
X137874000Y-55896000D02*
X142034000Y-55896000D01*
X137875000Y-55816000D02*
X142033000Y-55816000D01*
X137877000Y-55776000D02*
X142031000Y-55776000D01*
X137880000Y-55736000D02*
X142028000Y-55736000D01*
X137883000Y-55696000D02*
X139114000Y-55696000D01*
X137887000Y-55656000D02*
X139114000Y-55656000D01*
X137892000Y-55616000D02*
X139114000Y-55616000D01*
X137898000Y-55576000D02*
X139114000Y-55576000D01*
X137904000Y-55536000D02*
X139114000Y-55536000D01*
X137912000Y-55496000D02*
X139114000Y-55496000D01*
X137920000Y-55456000D02*
X139114000Y-55456000D01*
X137929000Y-55416000D02*
X139114000Y-55416000D01*
X137938000Y-55376000D02*
X139114000Y-55376000D01*
X137949000Y-55336000D02*
X139114000Y-55336000D01*
X137960000Y-55296000D02*
X139114000Y-55296000D01*
X137972000Y-55256000D02*
X139114000Y-55256000D01*
X137986000Y-55216000D02*
X139114000Y-55216000D01*
X138000000Y-55175000D02*
X139114000Y-55175000D01*
X138014000Y-55135000D02*
X139114000Y-55135000D01*
X138030000Y-55095000D02*
X139114000Y-55095000D01*
X138047000Y-55055000D02*
X139114000Y-55055000D01*
X138065000Y-55015000D02*
X139114000Y-55015000D01*
X138084000Y-54975000D02*
X139114000Y-54975000D01*
X138103000Y-54935000D02*
X139114000Y-54935000D01*
X138124000Y-54895000D02*
X139114000Y-54895000D01*
X138146000Y-54855000D02*
X139114000Y-54855000D01*
X138169000Y-54815000D02*
X139114000Y-54815000D01*
X138194000Y-54775000D02*
X139114000Y-54775000D01*
X138219000Y-54735000D02*
X139114000Y-54735000D01*
X138246000Y-54695000D02*
X139114000Y-54695000D01*
X138274000Y-54655000D02*
X139114000Y-54655000D01*
X138304000Y-54615000D02*
X139114000Y-54615000D01*
X138335000Y-54575000D02*
X139114000Y-54575000D01*
X138367000Y-54535000D02*
X139114000Y-54535000D01*
X138402000Y-54495000D02*
X139114000Y-54495000D01*
X138438000Y-54455000D02*
X139114000Y-54455000D01*
X138476000Y-54415000D02*
X139114000Y-54415000D01*
X138516000Y-54375000D02*
X139114000Y-54375000D01*
X138558000Y-54335000D02*
X139114000Y-54335000D01*
X138559000Y-57965801D02*
X138959000Y-57965801D01*
X138603000Y-54295000D02*
X139114000Y-54295000D01*
X138650000Y-54255000D02*
X139114000Y-54255000D01*
X138700000Y-54215000D02*
X139114000Y-54215000D01*
X138754000Y-54175000D02*
X139114000Y-54175000D01*
X138759000Y-58165801D02*
X138759000Y-57765801D01*
X138812000Y-54135000D02*
X139114000Y-54135000D01*
X138874000Y-54095000D02*
X139114000Y-54095000D01*
X138941000Y-54055000D02*
X140967000Y-54055000D01*
X139014000Y-54015000D02*
X140894000Y-54015000D01*
X139095000Y-53975000D02*
X140813000Y-53975000D01*
X139186000Y-53935000D02*
X140722000Y-53935000D01*
X139290000Y-53895000D02*
X140618000Y-53895000D01*
X139417000Y-53855000D02*
X140491000Y-53855000D01*
X139584000Y-53815000D02*
X140324000Y-53815000D01*
X140794000Y-54095000D02*
X141034000Y-54095000D01*
X140794000Y-54135000D02*
X141096000Y-54135000D01*
X140794000Y-54175000D02*
X141154000Y-54175000D01*
X140794000Y-54215000D02*
X141208000Y-54215000D01*
X140794000Y-54255000D02*
X141258000Y-54255000D01*
X140794000Y-54295000D02*
X141305000Y-54295000D01*
X140794000Y-54335000D02*
X141350000Y-54335000D01*
X140794000Y-54375000D02*
X141392000Y-54375000D01*
X140794000Y-54415000D02*
X141432000Y-54415000D01*
X140794000Y-54455000D02*
X141470000Y-54455000D01*
X140794000Y-54495000D02*
X141506000Y-54495000D01*
X140794000Y-54535000D02*
X141541000Y-54535000D01*
X140794000Y-54575000D02*
X141573000Y-54575000D01*
X140794000Y-54615000D02*
X141604000Y-54615000D01*
X140794000Y-54655000D02*
X141634000Y-54655000D01*
X140794000Y-54695000D02*
X141662000Y-54695000D01*
X140794000Y-54735000D02*
X141689000Y-54735000D01*
X140794000Y-54775000D02*
X141714000Y-54775000D01*
X140794000Y-54815000D02*
X141739000Y-54815000D01*
X140794000Y-54855000D02*
X141762000Y-54855000D01*
X140794000Y-54895000D02*
X141784000Y-54895000D01*
X140794000Y-54935000D02*
X141805000Y-54935000D01*
X140794000Y-54975000D02*
X141824000Y-54975000D01*
X140794000Y-55015000D02*
X141843000Y-55015000D01*
X140794000Y-55055000D02*
X141861000Y-55055000D01*
X140794000Y-55095000D02*
X141878000Y-55095000D01*
X140794000Y-55135000D02*
X141894000Y-55135000D01*
X140794000Y-55175000D02*
X141908000Y-55175000D01*
X140794000Y-55216000D02*
X141922000Y-55216000D01*
X140794000Y-55256000D02*
X141936000Y-55256000D01*
X140794000Y-55296000D02*
X141948000Y-55296000D01*
X140794000Y-55336000D02*
X141959000Y-55336000D01*
X140794000Y-55376000D02*
X141970000Y-55376000D01*
X140794000Y-55416000D02*
X141979000Y-55416000D01*
X140794000Y-55456000D02*
X141988000Y-55456000D01*
X140794000Y-55496000D02*
X141996000Y-55496000D01*
X140794000Y-55536000D02*
X142004000Y-55536000D01*
X140794000Y-55576000D02*
X142010000Y-55576000D01*
X140794000Y-55616000D02*
X142016000Y-55616000D01*
X140794000Y-55656000D02*
X142021000Y-55656000D01*
X140794000Y-55696000D02*
X142025000Y-55696000D01*
X142074000Y-55896000D02*
G75*
G02*
X137834000Y-55896000I-2120000J0D01*
G01*
X137834000Y-55896000D02*
G75*
G02*
X142074000Y-55896000I2120000J0D01*
G01*
D12*
G36*
X149493288Y-90626606D02*
G01*
X149487731Y-90769481D01*
X149471063Y-90883781D01*
X149445663Y-90969506D01*
X149399625Y-91006813D01*
X149294850Y-91018719D01*
X149188488Y-91006813D01*
X149140863Y-90963156D01*
X149490113Y-90521831D01*
X149493288Y-90626606D01*
G37*
G36*
X149409944Y-90260687D02*
G01*
X149459950Y-90324981D01*
X149104350Y-90774244D01*
X149099588Y-90700425D01*
X149098000Y-90631369D01*
X149099588Y-90549414D01*
X149104350Y-90484525D01*
X149120225Y-90375781D01*
X149147213Y-90290850D01*
X149193250Y-90254337D01*
X149293263Y-90244019D01*
X149409944Y-90260687D01*
G37*
G36*
X151120273Y-89690687D02*
G01*
X151209165Y-89703872D01*
X151296337Y-89725708D01*
X151380949Y-89755982D01*
X151462185Y-89794404D01*
X151539265Y-89840604D01*
X151611445Y-89894137D01*
X151678031Y-89954486D01*
X151738380Y-90021072D01*
X151791912Y-90093252D01*
X151838112Y-90170331D01*
X151876534Y-90251568D01*
X151906809Y-90336180D01*
X151928644Y-90423351D01*
X151941830Y-90512243D01*
X151946240Y-90602000D01*
X151941830Y-90691757D01*
X151928644Y-90780649D01*
X151906809Y-90867820D01*
X151876534Y-90952432D01*
X151838112Y-91033669D01*
X151791912Y-91110748D01*
X151738380Y-91182928D01*
X151678031Y-91249514D01*
X151611445Y-91309863D01*
X151539265Y-91363396D01*
X151462185Y-91409596D01*
X151380949Y-91448018D01*
X151296337Y-91478292D01*
X151209165Y-91500128D01*
X151120273Y-91513313D01*
X151030517Y-91517723D01*
X150699788Y-91517723D01*
X150083838Y-91517723D01*
X149293263Y-91517723D01*
X148542375Y-91517723D01*
X148004212Y-91517723D01*
X147673483Y-91517723D01*
X147583727Y-91513313D01*
X147494835Y-91500128D01*
X147407663Y-91478292D01*
X147323051Y-91448018D01*
X147241815Y-91409596D01*
X147164735Y-91363396D01*
X147092555Y-91309863D01*
X147025969Y-91249514D01*
X146965620Y-91182928D01*
X146912088Y-91110748D01*
X146865888Y-91033669D01*
X146827466Y-90952432D01*
X146797191Y-90867820D01*
X146775356Y-90780649D01*
X146762170Y-90691757D01*
X146757760Y-90602000D01*
X146760685Y-90542469D01*
X148004212Y-90542469D01*
X148289963Y-90366256D01*
X148351875Y-90315456D01*
X148345525Y-90413881D01*
X148345525Y-91172706D01*
X148542375Y-91172706D01*
X148542375Y-90629781D01*
X148899563Y-90629781D01*
X148902914Y-90741965D01*
X148912968Y-90843565D01*
X148929725Y-90934581D01*
X148959689Y-91030030D01*
X148995606Y-91097300D01*
X149041445Y-91141750D01*
X149101175Y-91168738D01*
X149182534Y-91182430D01*
X149293263Y-91186994D01*
X149405181Y-91182430D01*
X149486938Y-91168738D01*
X149546866Y-91141948D01*
X149593300Y-91098094D01*
X149629813Y-91031816D01*
X149659975Y-90937756D01*
X149674858Y-90868303D01*
X149684581Y-90799644D01*
X149689939Y-90725825D01*
X149691725Y-90640894D01*
X149688021Y-90520067D01*
X149676908Y-90413705D01*
X149658388Y-90321806D01*
X149628820Y-90230525D01*
X149594094Y-90166231D01*
X149549445Y-90123170D01*
X149490113Y-90095588D01*
X149408356Y-90080705D01*
X149296438Y-90075744D01*
X149184320Y-90080705D01*
X149101969Y-90095588D01*
X149042041Y-90123369D01*
X148997194Y-90167025D01*
X148962467Y-90231914D01*
X148932900Y-90323394D01*
X148914379Y-90412470D01*
X148903267Y-90514599D01*
X148899563Y-90629781D01*
X148542375Y-90629781D01*
X148542375Y-90093206D01*
X148345525Y-90093206D01*
X148004212Y-90332919D01*
X148004212Y-90542469D01*
X146760685Y-90542469D01*
X146762170Y-90512243D01*
X146775356Y-90423351D01*
X146797191Y-90336180D01*
X146827466Y-90251568D01*
X146865888Y-90170331D01*
X146912088Y-90093252D01*
X146965620Y-90021072D01*
X146969305Y-90017006D01*
X149893338Y-90017006D01*
X149893338Y-91172706D01*
X150083838Y-91172706D01*
X150083838Y-90721856D01*
X150456900Y-91172706D01*
X150699788Y-91172706D01*
X150299738Y-90713919D01*
X150663275Y-90344031D01*
X150434675Y-90344031D01*
X150083838Y-90707569D01*
X150083838Y-90017006D01*
X149893338Y-90017006D01*
X146969305Y-90017006D01*
X147025969Y-89954486D01*
X147092555Y-89894137D01*
X147164735Y-89840604D01*
X147241815Y-89794404D01*
X147323051Y-89755982D01*
X147407663Y-89725708D01*
X147494835Y-89703872D01*
X147583727Y-89690687D01*
X147673483Y-89686277D01*
X148004212Y-89686277D01*
X150699788Y-89686277D01*
X151030517Y-89686277D01*
X151120273Y-89690687D01*
G37*
D15*
X210952000Y-141348000D02*
G75*
G02*
X206552000Y-141348000I-2200000J0D01*
G01*
X206552000Y-141348000D02*
G75*
G02*
X210952000Y-141348000I2200000J0D01*
G01*
D11*
X93577000Y-48748000D02*
X97077000Y-48748000D01*
X93577000Y-50748000D02*
X93577000Y-48748000D01*
X93577000Y-55748000D02*
X93577000Y-53748000D01*
X95577000Y-55748000D02*
X93577000Y-55748000D01*
X101077000Y-55748000D02*
X103077000Y-55748000D01*
D14*
X102677000Y-51748000D02*
X102677000Y-51748000D01*
X102677000Y-51948000D02*
X102677000Y-51948000D01*
D11*
X103077000Y-48748000D02*
X99577000Y-48748000D01*
X103077000Y-50748000D02*
X103077000Y-48748000D01*
X103077000Y-55748000D02*
X103077000Y-53748000D01*
X99397800Y-51114400D02*
X97256200Y-51114400D01*
X97256200Y-48202800D01*
X99397800Y-48202800D01*
X99397800Y-51114400D01*
D14*
X102677000Y-51748000D02*
G75*
G02*
X102677000Y-51948000I0J-100000D01*
G01*
X102677000Y-51948000D02*
G75*
G02*
X102677000Y-51748000I0J100000D01*
G01*
D12*
G36*
X149574250Y-50180478D02*
G01*
X149651244Y-50184050D01*
X149751256Y-50216594D01*
X149778244Y-50314225D01*
X149752050Y-50437256D01*
X149654419Y-50471387D01*
X149449631Y-50471387D01*
X149449631Y-50180875D01*
X149517894Y-50179287D01*
X149574250Y-50180478D01*
G37*
G36*
X151374118Y-49676553D02*
G01*
X151458927Y-49689133D01*
X151542094Y-49709965D01*
X151622818Y-49738849D01*
X151700323Y-49775506D01*
X151773862Y-49819583D01*
X151842726Y-49870656D01*
X151906252Y-49928233D01*
X151963829Y-49991760D01*
X152014902Y-50060624D01*
X152058980Y-50134162D01*
X152095637Y-50211667D01*
X152124520Y-50292392D01*
X152145353Y-50375559D01*
X152157933Y-50460367D01*
X152162140Y-50546000D01*
X152157933Y-50631633D01*
X152145353Y-50716441D01*
X152124520Y-50799608D01*
X152095637Y-50880333D01*
X152058980Y-50957838D01*
X152014902Y-51031376D01*
X151963829Y-51100240D01*
X151906252Y-51163767D01*
X151842726Y-51221344D01*
X151773862Y-51272417D01*
X151700323Y-51316494D01*
X151622818Y-51353151D01*
X151542094Y-51382035D01*
X151458927Y-51402867D01*
X151374118Y-51415447D01*
X151288485Y-51419654D01*
X150957756Y-51419654D01*
X150427531Y-51419654D01*
X150040181Y-51419654D01*
X149067044Y-51419654D01*
X148254244Y-51419654D01*
X147923515Y-51419654D01*
X147837882Y-51415447D01*
X147753073Y-51402867D01*
X147669906Y-51382035D01*
X147589182Y-51353151D01*
X147511677Y-51316494D01*
X147438138Y-51272417D01*
X147369274Y-51221344D01*
X147305748Y-51163767D01*
X147248171Y-51100240D01*
X147197098Y-51031376D01*
X147153020Y-50957838D01*
X147116363Y-50880333D01*
X147087480Y-50799608D01*
X147066647Y-50716441D01*
X147054067Y-50631633D01*
X147049860Y-50546000D01*
X147054067Y-50460367D01*
X147066647Y-50375559D01*
X147087480Y-50292392D01*
X147116363Y-50211667D01*
X147153020Y-50134162D01*
X147197098Y-50060624D01*
X147235070Y-50009425D01*
X148254244Y-50009425D01*
X148254244Y-51088925D01*
X148449506Y-51088925D01*
X148449506Y-50468212D01*
X148427281Y-50242787D01*
X148432044Y-50242787D01*
X148819394Y-51088925D01*
X149067044Y-51088925D01*
X149248019Y-51088925D01*
X149449631Y-51088925D01*
X149449631Y-50647600D01*
X149551231Y-50647600D01*
X149635369Y-50653752D01*
X149690931Y-50672206D01*
X149748081Y-50766663D01*
X149822694Y-51088925D01*
X150040181Y-51088925D01*
X149949694Y-50752375D01*
X149922508Y-50672603D01*
X149891750Y-50620613D01*
X149792531Y-50571400D01*
X149792531Y-50557112D01*
X149905244Y-50521394D01*
X149961600Y-50449956D01*
X149978269Y-50322162D01*
X149968148Y-50213419D01*
X149937788Y-50131663D01*
X149883416Y-50072925D01*
X149801263Y-50033237D01*
X149728502Y-50016481D01*
X149665189Y-50009425D01*
X150224331Y-50009425D01*
X150224331Y-51088925D01*
X150427531Y-51088925D01*
X150427531Y-50638075D01*
X150894256Y-50638075D01*
X150894256Y-50460275D01*
X150427531Y-50460275D01*
X150427531Y-50188812D01*
X150957756Y-50188812D01*
X150957756Y-50009425D01*
X150224331Y-50009425D01*
X149665189Y-50009425D01*
X149638279Y-50006426D01*
X149530594Y-50003075D01*
X149436931Y-50004663D01*
X149248019Y-50011012D01*
X149248019Y-51088925D01*
X149067044Y-51088925D01*
X149067044Y-50009425D01*
X148871781Y-50009425D01*
X148871781Y-50630138D01*
X148894006Y-50855563D01*
X148889244Y-50855563D01*
X148501894Y-50009425D01*
X148254244Y-50009425D01*
X147235070Y-50009425D01*
X147248171Y-49991760D01*
X147305748Y-49928233D01*
X147369274Y-49870656D01*
X147438138Y-49819583D01*
X147511677Y-49775506D01*
X147589182Y-49738849D01*
X147669906Y-49709965D01*
X147753073Y-49689133D01*
X147837882Y-49676553D01*
X147923515Y-49672346D01*
X148254244Y-49672346D01*
X150957756Y-49672346D01*
X151288485Y-49672346D01*
X151374118Y-49676553D01*
G37*
D16*
X144042000Y-85852000D02*
X144732000Y-85852000D01*
X144732000Y-84132000D02*
X144732000Y-87572000D01*
X144732000Y-87572000D02*
X153972000Y-87572000D01*
X153972000Y-84132000D02*
X144732000Y-84132000D01*
X153972000Y-87572000D02*
X153972000Y-84132000D01*
X154662000Y-85852000D02*
X153972000Y-85852000D01*
D15*
X92152000Y-141348000D02*
G75*
G02*
X87752000Y-141348000I-2200000J0D01*
G01*
X87752000Y-141348000D02*
G75*
G02*
X92152000Y-141348000I2200000J0D01*
G01*
D12*
G36*
X181210387Y-67056397D02*
G01*
X181287381Y-67059969D01*
X181387394Y-67092513D01*
X181414381Y-67190144D01*
X181388187Y-67313175D01*
X181290556Y-67347306D01*
X181085769Y-67347306D01*
X181085769Y-67056794D01*
X181154031Y-67055206D01*
X181210387Y-67056397D01*
G37*
G36*
X177455355Y-67060564D02*
G01*
X177527387Y-67071875D01*
X177612319Y-67121881D01*
X177637719Y-67221894D01*
X177615494Y-67326669D01*
X177539294Y-67379056D01*
X177474206Y-67390963D01*
X177386894Y-67394931D01*
X177286881Y-67394931D01*
X177286881Y-67056794D01*
X177358319Y-67056794D01*
X177455355Y-67060564D01*
G37*
G36*
X178467584Y-67052627D02*
G01*
X178523544Y-67078225D01*
X178563033Y-67124263D01*
X178589425Y-67194113D01*
X178604308Y-67293530D01*
X178609269Y-67428269D01*
X178604308Y-67559039D01*
X178589425Y-67656075D01*
X178563033Y-67724734D01*
X178523544Y-67770375D01*
X178467584Y-67795973D01*
X178391781Y-67804506D01*
X178315780Y-67795973D01*
X178259225Y-67770375D01*
X178219141Y-67724734D01*
X178192550Y-67656075D01*
X178177667Y-67559039D01*
X178172706Y-67428269D01*
X178177667Y-67294522D01*
X178192550Y-67194906D01*
X178219141Y-67124461D01*
X178259225Y-67078225D01*
X178315780Y-67052627D01*
X178391781Y-67044094D01*
X178467584Y-67052627D01*
G37*
G36*
X182107541Y-66543676D02*
G01*
X182207066Y-66558440D01*
X182304665Y-66582887D01*
X182399398Y-66616783D01*
X182490352Y-66659801D01*
X182576652Y-66711527D01*
X182657466Y-66771463D01*
X182732017Y-66839031D01*
X182799585Y-66913582D01*
X182859521Y-66994396D01*
X182911247Y-67080696D01*
X182954265Y-67171650D01*
X182988161Y-67266383D01*
X183012608Y-67363982D01*
X183027371Y-67463507D01*
X183032308Y-67564000D01*
X183027371Y-67664493D01*
X183012608Y-67764018D01*
X182988161Y-67861617D01*
X182954265Y-67956350D01*
X182911247Y-68047304D01*
X182859521Y-68133604D01*
X182799585Y-68214418D01*
X182732017Y-68288969D01*
X182657466Y-68356537D01*
X182576652Y-68416473D01*
X182490352Y-68468199D01*
X182399398Y-68511217D01*
X182304665Y-68545113D01*
X182207066Y-68569560D01*
X182107541Y-68584324D01*
X182007048Y-68589260D01*
X181676319Y-68589260D01*
X180707944Y-68589260D01*
X179445881Y-68589260D01*
X178391781Y-68589260D01*
X177286881Y-68589260D01*
X177083681Y-68589260D01*
X176752952Y-68589260D01*
X176652459Y-68584324D01*
X176552934Y-68569560D01*
X176455335Y-68545113D01*
X176360602Y-68511217D01*
X176269648Y-68468199D01*
X176183348Y-68416473D01*
X176102534Y-68356537D01*
X176027983Y-68288969D01*
X175960415Y-68214418D01*
X175900479Y-68133604D01*
X175868788Y-68080731D01*
X179885619Y-68080731D01*
X179885619Y-68258531D01*
X180707944Y-68258531D01*
X180707944Y-68080731D01*
X179885619Y-68080731D01*
X175868788Y-68080731D01*
X175848753Y-68047304D01*
X175809752Y-67964844D01*
X177083681Y-67964844D01*
X177286881Y-67964844D01*
X177286881Y-67571144D01*
X177402769Y-67571144D01*
X177508426Y-67567704D01*
X177596797Y-67557385D01*
X177667881Y-67540188D01*
X177747852Y-67498714D01*
X177800437Y-67436206D01*
X177803053Y-67428269D01*
X177972681Y-67428269D01*
X177976826Y-67562148D01*
X177989262Y-67673802D01*
X178009987Y-67763231D01*
X178060391Y-67863641D01*
X178136987Y-67929919D01*
X178205162Y-67957259D01*
X178290093Y-67973663D01*
X178391781Y-67979131D01*
X178493469Y-67973663D01*
X178578401Y-67957259D01*
X178646575Y-67929919D01*
X178723172Y-67863641D01*
X178773575Y-67763231D01*
X178794301Y-67673802D01*
X178806736Y-67562148D01*
X178810881Y-67428269D01*
X178806736Y-67292449D01*
X178794301Y-67179208D01*
X178773575Y-67088544D01*
X178723172Y-66986745D01*
X178646575Y-66919475D01*
X178578401Y-66891694D01*
X178546046Y-66885344D01*
X178953756Y-66885344D01*
X178953756Y-67066319D01*
X179242681Y-67066319D01*
X179242681Y-67964844D01*
X179445881Y-67964844D01*
X180884156Y-67964844D01*
X181085769Y-67964844D01*
X181085769Y-67523519D01*
X181187369Y-67523519D01*
X181271506Y-67529670D01*
X181327069Y-67548125D01*
X181384219Y-67642581D01*
X181458831Y-67964844D01*
X181676319Y-67964844D01*
X181585831Y-67628294D01*
X181558645Y-67548522D01*
X181527887Y-67496531D01*
X181428669Y-67447319D01*
X181428669Y-67433031D01*
X181541381Y-67397313D01*
X181597737Y-67325875D01*
X181614406Y-67198081D01*
X181604286Y-67089338D01*
X181573925Y-67007581D01*
X181519553Y-66948844D01*
X181437400Y-66909156D01*
X181364640Y-66892399D01*
X181274417Y-66882345D01*
X181166731Y-66878994D01*
X181073069Y-66880581D01*
X180884156Y-66886931D01*
X180884156Y-67964844D01*
X179445881Y-67964844D01*
X179445881Y-67066319D01*
X179734806Y-67066319D01*
X179734806Y-66885344D01*
X178953756Y-66885344D01*
X178546046Y-66885344D01*
X178493469Y-66875025D01*
X178391781Y-66869469D01*
X178290093Y-66875025D01*
X178205162Y-66891694D01*
X178136987Y-66919475D01*
X178060391Y-66986745D01*
X178009987Y-67088544D01*
X177989262Y-67179208D01*
X177976826Y-67292449D01*
X177972681Y-67428269D01*
X177803053Y-67428269D01*
X177829608Y-67347703D01*
X177839331Y-67228244D01*
X177828020Y-67107197D01*
X177794087Y-67017106D01*
X177732969Y-66953408D01*
X177640100Y-66911538D01*
X177557462Y-66894340D01*
X177454539Y-66884021D01*
X177331331Y-66880581D01*
X177083681Y-66885344D01*
X177083681Y-67964844D01*
X175809752Y-67964844D01*
X175805735Y-67956350D01*
X175771839Y-67861617D01*
X175747392Y-67764018D01*
X175732629Y-67664493D01*
X175727692Y-67564000D01*
X175732629Y-67463507D01*
X175747392Y-67363982D01*
X175771839Y-67266383D01*
X175805735Y-67171650D01*
X175848753Y-67080696D01*
X175900479Y-66994396D01*
X175960415Y-66913582D01*
X176027983Y-66839031D01*
X176102534Y-66771463D01*
X176183348Y-66711527D01*
X176269648Y-66659801D01*
X176360602Y-66616783D01*
X176455335Y-66582887D01*
X176552934Y-66558440D01*
X176652459Y-66543676D01*
X176752952Y-66538740D01*
X177083681Y-66538740D01*
X181676319Y-66538740D01*
X182007048Y-66538740D01*
X182107541Y-66543676D01*
G37*
G36*
X213523950Y-80639206D02*
G01*
X213599952Y-80652303D01*
X213646981Y-80675719D01*
X213679525Y-80775731D01*
X213654919Y-80874950D01*
X213562050Y-80904319D01*
X213339800Y-80904319D01*
X213339800Y-80634444D01*
X213392187Y-80634444D01*
X213523950Y-80639206D01*
G37*
G36*
X213643806Y-81092438D02*
G01*
X213704131Y-81139269D01*
X213722387Y-81234519D01*
X213700162Y-81327388D01*
X213626344Y-81373425D01*
X213563439Y-81383545D01*
X213477912Y-81386919D01*
X213411634Y-81386125D01*
X213339800Y-81383744D01*
X213339800Y-81078944D01*
X213522362Y-81078944D01*
X213643806Y-81092438D01*
G37*
G36*
X217171447Y-80127676D02*
G01*
X217270973Y-80142440D01*
X217368572Y-80166887D01*
X217463304Y-80200783D01*
X217554259Y-80243801D01*
X217640558Y-80295527D01*
X217721372Y-80355463D01*
X217795923Y-80423031D01*
X217863491Y-80497582D01*
X217923427Y-80578396D01*
X217975153Y-80664696D01*
X218018171Y-80755650D01*
X218052067Y-80850383D01*
X218076514Y-80947982D01*
X218091278Y-81047507D01*
X218096215Y-81148000D01*
X218091278Y-81248493D01*
X218076514Y-81348018D01*
X218052067Y-81445617D01*
X218018171Y-81540350D01*
X217975153Y-81631304D01*
X217923427Y-81717604D01*
X217863491Y-81798418D01*
X217795923Y-81872969D01*
X217721372Y-81940537D01*
X217640558Y-82000473D01*
X217554259Y-82052199D01*
X217463304Y-82095217D01*
X217368572Y-82129113D01*
X217270973Y-82153560D01*
X217171447Y-82168324D01*
X217070954Y-82173260D01*
X216740225Y-82173260D01*
X215825825Y-82173260D01*
X214563762Y-82173260D01*
X213450925Y-82173260D01*
X213139775Y-82173260D01*
X212809046Y-82173260D01*
X212708553Y-82168324D01*
X212609027Y-82153560D01*
X212511428Y-82129113D01*
X212416696Y-82095217D01*
X212325741Y-82052199D01*
X212239442Y-82000473D01*
X212158628Y-81940537D01*
X212084077Y-81872969D01*
X212016509Y-81798418D01*
X211956573Y-81717604D01*
X211924882Y-81664731D01*
X215003500Y-81664731D01*
X215003500Y-81842531D01*
X215825825Y-81842531D01*
X215825825Y-81664731D01*
X215003500Y-81664731D01*
X211924882Y-81664731D01*
X211904847Y-81631304D01*
X211864345Y-81545669D01*
X213139775Y-81545669D01*
X213250547Y-81554488D01*
X213354264Y-81559780D01*
X213450925Y-81561544D01*
X213566195Y-81558457D01*
X213662239Y-81549197D01*
X213739056Y-81533763D01*
X213825377Y-81496258D01*
X213882725Y-81439306D01*
X213914872Y-81358344D01*
X213925587Y-81248806D01*
X213921420Y-81170622D01*
X213908919Y-81110694D01*
X213851769Y-81031319D01*
X213736675Y-80990044D01*
X213736675Y-80980519D01*
X213805136Y-80955516D01*
X213848594Y-80915431D01*
X213871811Y-80853122D01*
X213879550Y-80761444D01*
X213868636Y-80657264D01*
X213835894Y-80579675D01*
X213777355Y-80524708D01*
X213689050Y-80488394D01*
X213610557Y-80473401D01*
X213566408Y-80469344D01*
X214071637Y-80469344D01*
X214071637Y-80650319D01*
X214360562Y-80650319D01*
X214360562Y-81548844D01*
X214563762Y-81548844D01*
X214563762Y-80770969D01*
X215973462Y-80770969D01*
X216176662Y-80770969D01*
X216198887Y-80682863D01*
X216253656Y-80638412D01*
X216357637Y-80624919D01*
X216460825Y-80637619D01*
X216512419Y-80679688D01*
X216527500Y-80764619D01*
X216516387Y-80837644D01*
X216475112Y-80897969D01*
X216403278Y-80965041D01*
X216311600Y-81042431D01*
X216253855Y-81088667D01*
X216182219Y-81144825D01*
X216096692Y-81210905D01*
X215997275Y-81286906D01*
X215997275Y-81548844D01*
X216740225Y-81548844D01*
X216740225Y-81371044D01*
X216202062Y-81371044D01*
X216202062Y-81356756D01*
X216296342Y-81289905D01*
X216375982Y-81231167D01*
X216440981Y-81180544D01*
X216526905Y-81107122D01*
X216611637Y-81026556D01*
X216667597Y-80963056D01*
X216702125Y-80905906D01*
X216719984Y-80844391D01*
X216725937Y-80767794D01*
X216717603Y-80658058D01*
X216692600Y-80576500D01*
X216647952Y-80518953D01*
X216580681Y-80481250D01*
X216485233Y-80460414D01*
X216356050Y-80453469D01*
X216227661Y-80460613D01*
X216131419Y-80482044D01*
X216062362Y-80520342D01*
X216015531Y-80578088D01*
X215987155Y-80660042D01*
X215973462Y-80770969D01*
X214563762Y-80770969D01*
X214563762Y-80650319D01*
X214852687Y-80650319D01*
X214852687Y-80469344D01*
X214071637Y-80469344D01*
X213566408Y-80469344D01*
X213512661Y-80464405D01*
X213401197Y-80461555D01*
X213139775Y-80466169D01*
X213139775Y-81545669D01*
X211864345Y-81545669D01*
X211861829Y-81540350D01*
X211827933Y-81445617D01*
X211803486Y-81348018D01*
X211788722Y-81248493D01*
X211783785Y-81148000D01*
X211788722Y-81047507D01*
X211803486Y-80947982D01*
X211827933Y-80850383D01*
X211861829Y-80755650D01*
X211904847Y-80664696D01*
X211956573Y-80578396D01*
X212016509Y-80497582D01*
X212084077Y-80423031D01*
X212158628Y-80355463D01*
X212239442Y-80295527D01*
X212325741Y-80243801D01*
X212416696Y-80200783D01*
X212511428Y-80166887D01*
X212609027Y-80142440D01*
X212708553Y-80127676D01*
X212809046Y-80122740D01*
X213139775Y-80122740D01*
X216740225Y-80122740D01*
X217070954Y-80122740D01*
X217171447Y-80127676D01*
G37*
D16*
X208790000Y-74988000D02*
X211510000Y-74988000D01*
X208790000Y-87288000D02*
X208790000Y-74988000D01*
X211510000Y-87288000D02*
X208790000Y-87288000D01*
X213370000Y-74988000D02*
X216510000Y-74988000D01*
X216510000Y-87288000D02*
X213370000Y-87288000D01*
X218370000Y-74988000D02*
X221090000Y-74988000D01*
X221090000Y-74988000D02*
X221090000Y-87288000D01*
X221090000Y-87288000D02*
X218370000Y-87288000D01*
X219559050Y-81038000D02*
G75*
G02*
X210400950Y-81038000I-4579050J0D01*
G01*
X210400950Y-81038000D02*
G75*
G02*
X219559050Y-81038000I4579050J0D01*
G01*
D12*
G36*
X100285031Y-80301938D02*
G01*
X100341387Y-80354325D01*
X100364406Y-80459894D01*
X99991344Y-80459894D01*
X100018331Y-80354325D01*
X100073894Y-80301938D01*
X100177081Y-80286856D01*
X100285031Y-80301938D01*
G37*
G36*
X91724437Y-80311463D02*
G01*
X91784762Y-80393219D01*
X91798455Y-80462672D01*
X91803019Y-80556731D01*
X91798455Y-80649402D01*
X91784762Y-80717863D01*
X91724437Y-80798031D01*
X91602994Y-80821844D01*
X91481550Y-80798031D01*
X91421225Y-80717863D01*
X91407533Y-80649402D01*
X91402969Y-80556731D01*
X91407533Y-80462672D01*
X91421225Y-80393219D01*
X91481550Y-80311463D01*
X91602994Y-80286856D01*
X91724437Y-80311463D01*
G37*
G36*
X102874318Y-79456583D02*
G01*
X102980778Y-79472375D01*
X103085178Y-79498526D01*
X103186511Y-79534783D01*
X103283803Y-79580799D01*
X103376116Y-79636129D01*
X103462561Y-79700241D01*
X103542305Y-79772517D01*
X103614582Y-79852262D01*
X103678694Y-79938707D01*
X103734024Y-80031020D01*
X103780040Y-80128312D01*
X103816297Y-80229645D01*
X103842448Y-80334045D01*
X103858240Y-80440505D01*
X103863521Y-80548000D01*
X103858240Y-80655495D01*
X103842448Y-80761955D01*
X103816297Y-80866355D01*
X103780040Y-80967688D01*
X103734024Y-81064980D01*
X103678694Y-81157293D01*
X103614582Y-81243738D01*
X103542305Y-81323483D01*
X103462561Y-81395759D01*
X103376116Y-81459871D01*
X103283803Y-81515201D01*
X103186511Y-81561217D01*
X103085178Y-81597474D01*
X102980778Y-81623625D01*
X102874318Y-81639417D01*
X102766823Y-81644698D01*
X102436094Y-81644698D01*
X102183681Y-81644698D01*
X101180381Y-81644698D01*
X100189781Y-81644698D01*
X99626219Y-81644698D01*
X98681656Y-81644698D01*
X97152894Y-81644698D01*
X96394069Y-81644698D01*
X95811456Y-81644698D01*
X94563681Y-81644698D01*
X93511169Y-81644698D01*
X92526919Y-81644698D01*
X91602994Y-81644698D01*
X90628269Y-81644698D01*
X90267906Y-81644698D01*
X89937177Y-81644698D01*
X89829682Y-81639417D01*
X89723222Y-81623625D01*
X89618822Y-81597474D01*
X89517489Y-81561217D01*
X89420197Y-81515201D01*
X89327884Y-81459871D01*
X89241439Y-81395759D01*
X89161695Y-81323483D01*
X89089418Y-81243738D01*
X89025306Y-81157293D01*
X88969976Y-81064980D01*
X88923960Y-80967688D01*
X88887703Y-80866355D01*
X88861552Y-80761955D01*
X88846416Y-80659919D01*
X90272669Y-80659919D01*
X90276836Y-80772631D01*
X90298862Y-80856769D01*
X90341328Y-80916697D01*
X90406812Y-80956781D01*
X90500673Y-80979403D01*
X90628269Y-80986944D01*
X90754872Y-80979403D01*
X90848931Y-80956781D01*
X90915408Y-80916300D01*
X90959262Y-80855181D01*
X90983670Y-80768662D01*
X90991806Y-80651981D01*
X90991806Y-80556731D01*
X91209294Y-80556731D01*
X91213262Y-80661242D01*
X91225169Y-80748290D01*
X91245012Y-80817875D01*
X91292836Y-80896059D01*
X91364869Y-80948050D01*
X91466469Y-80977220D01*
X91602994Y-80986944D01*
X91739519Y-80977220D01*
X91841119Y-80948050D01*
X91913152Y-80896059D01*
X91960975Y-80817875D01*
X91980819Y-80748290D01*
X91992725Y-80661242D01*
X91996694Y-80556731D01*
X91992725Y-80451251D01*
X91980819Y-80363409D01*
X91960975Y-80293206D01*
X91913350Y-80214427D01*
X91841912Y-80162238D01*
X91778449Y-80143981D01*
X92141156Y-80143981D01*
X92453894Y-80967894D01*
X92326894Y-81313969D01*
X92526919Y-81313969D01*
X92612562Y-81088544D01*
X97859331Y-81088544D01*
X97859331Y-81266344D01*
X98681656Y-81266344D01*
X98681656Y-81088544D01*
X97859331Y-81088544D01*
X92612562Y-81088544D01*
X92760327Y-80699606D01*
X93131756Y-80699606D01*
X93137709Y-80799619D01*
X93161919Y-80874231D01*
X93207361Y-80927016D01*
X93277012Y-80961544D01*
X93376430Y-80980594D01*
X93511169Y-80986944D01*
X93640748Y-80981388D01*
X93737387Y-80964719D01*
X93805848Y-80934556D01*
X93850894Y-80888519D01*
X93875897Y-80823431D01*
X93884231Y-80736119D01*
X93877286Y-80665475D01*
X93856450Y-80609119D01*
X93763581Y-80527363D01*
X93685000Y-80496208D01*
X93579431Y-80467831D01*
X93458583Y-80437867D01*
X93384962Y-80414650D01*
X93334956Y-80369406D01*
X93371469Y-80304319D01*
X93423459Y-80291222D01*
X93506406Y-80286856D01*
X93585583Y-80291817D01*
X93635787Y-80306700D01*
X93674681Y-80380519D01*
X93865181Y-80380519D01*
X93857766Y-80307494D01*
X94085844Y-80307494D01*
X94290631Y-80307494D01*
X94290631Y-80707544D01*
X94295791Y-80799817D01*
X94311269Y-80870263D01*
X94390644Y-80959956D01*
X94463272Y-80982578D01*
X94563681Y-80990119D01*
X94670441Y-80984959D01*
X94786216Y-80972656D01*
X95079619Y-80972656D01*
X95811456Y-80972656D01*
X95811456Y-80809144D01*
X95552694Y-80809144D01*
X95546344Y-80809144D01*
X95546344Y-80559906D01*
X95994019Y-80559906D01*
X95997987Y-80663535D01*
X96009894Y-80750053D01*
X96029737Y-80819463D01*
X96077958Y-80897448D01*
X96151181Y-80948844D01*
X96254766Y-80977419D01*
X96394069Y-80986944D01*
X96513727Y-80980594D01*
X96602825Y-80961544D01*
X96666325Y-80927413D01*
X96709187Y-80875819D01*
X96734389Y-80802794D01*
X96744906Y-80704369D01*
X96554406Y-80704369D01*
X96507575Y-80795650D01*
X96402006Y-80820256D01*
X96327394Y-80814502D01*
X96271831Y-80797238D01*
X96206744Y-80718656D01*
X96192456Y-80651584D01*
X96187694Y-80561494D01*
X96192456Y-80467236D01*
X96206744Y-80397188D01*
X96271037Y-80314638D01*
X96326005Y-80296183D01*
X96400419Y-80290031D01*
X96509162Y-80317813D01*
X96552819Y-80423381D01*
X96744906Y-80423381D01*
X96734389Y-80319202D01*
X96709187Y-80241613D01*
X96666127Y-80186645D01*
X96602031Y-80150331D01*
X96511941Y-80130091D01*
X96390894Y-80123344D01*
X96252980Y-80133067D01*
X96150387Y-80162238D01*
X96077759Y-80214823D01*
X96029737Y-80294794D01*
X96009894Y-80365878D01*
X95997987Y-80454249D01*
X95994019Y-80559906D01*
X95546344Y-80559906D01*
X95546344Y-80143981D01*
X95095494Y-80143981D01*
X95095494Y-80307494D01*
X95355844Y-80307494D01*
X95355844Y-80809144D01*
X95079619Y-80809144D01*
X95079619Y-80972656D01*
X94786216Y-80972656D01*
X94816094Y-80969481D01*
X94816094Y-80802794D01*
X94701397Y-80817081D01*
X94617656Y-80821844D01*
X94527962Y-80810731D01*
X94489862Y-80775806D01*
X94481131Y-80701194D01*
X94481131Y-80307494D01*
X94790694Y-80307494D01*
X94790694Y-80143981D01*
X94481131Y-80143981D01*
X94481131Y-79897919D01*
X94296981Y-79975706D01*
X94296981Y-80143981D01*
X94123944Y-80143981D01*
X94085844Y-80307494D01*
X93857766Y-80307494D01*
X93856053Y-80290627D01*
X93831844Y-80224150D01*
X93788981Y-80177319D01*
X93723894Y-80146363D01*
X93631819Y-80129098D01*
X93507994Y-80123344D01*
X93381192Y-80128900D01*
X93286537Y-80145569D01*
X93219466Y-80175136D01*
X93175412Y-80219388D01*
X93151005Y-80282292D01*
X93142869Y-80367819D01*
X93172237Y-80487675D01*
X93270662Y-80562288D01*
X93354205Y-80590267D01*
X93466719Y-80615469D01*
X93544109Y-80631344D01*
X93601656Y-80647219D01*
X93669125Y-80684525D01*
X93688969Y-80737706D01*
X93654044Y-80805175D01*
X93604434Y-80818867D01*
X93525456Y-80823431D01*
X93405600Y-80812319D01*
X93346069Y-80775013D01*
X93327019Y-80699606D01*
X93131756Y-80699606D01*
X92760327Y-80699606D01*
X92971419Y-80143981D01*
X92771394Y-80143981D01*
X92560256Y-80753581D01*
X92552319Y-80753581D01*
X92338006Y-80143981D01*
X92141156Y-80143981D01*
X91778449Y-80143981D01*
X91740511Y-80133067D01*
X91602994Y-80123344D01*
X91465477Y-80133067D01*
X91364075Y-80162238D01*
X91292637Y-80214427D01*
X91245012Y-80293206D01*
X91225169Y-80363409D01*
X91213262Y-80451251D01*
X91209294Y-80556731D01*
X90991806Y-80556731D01*
X90991806Y-79893156D01*
X90790194Y-79893156D01*
X90790194Y-80645631D01*
X90775112Y-80745644D01*
X90724312Y-80795650D01*
X90623506Y-80810731D01*
X90506031Y-80778188D01*
X90475869Y-80659919D01*
X90272669Y-80659919D01*
X88846416Y-80659919D01*
X88845760Y-80655495D01*
X88840479Y-80548000D01*
X88845760Y-80440505D01*
X88861552Y-80334045D01*
X88887703Y-80229645D01*
X88923960Y-80128312D01*
X88969976Y-80031020D01*
X89025306Y-79938707D01*
X89089418Y-79852262D01*
X89121418Y-79816956D01*
X95309806Y-79816956D01*
X95309806Y-80040794D01*
X95552694Y-80040794D01*
X95552694Y-79816956D01*
X96962394Y-79816956D01*
X96962394Y-80972656D01*
X97152894Y-80972656D01*
X97152894Y-80521806D01*
X97525956Y-80972656D01*
X97768844Y-80972656D01*
X97368794Y-80513869D01*
X97732331Y-80143981D01*
X97503731Y-80143981D01*
X97152894Y-80507519D01*
X97152894Y-79893156D01*
X98876919Y-79893156D01*
X98876919Y-80971069D01*
X99626219Y-80971069D01*
X99626219Y-80793269D01*
X99080119Y-80793269D01*
X99080119Y-80550381D01*
X99794494Y-80550381D01*
X99798462Y-80656038D01*
X99810369Y-80744409D01*
X99830212Y-80815494D01*
X99878036Y-80895464D01*
X99950069Y-80948050D01*
X100052066Y-80977220D01*
X100189781Y-80986944D01*
X100298922Y-80980792D01*
X100381869Y-80962338D01*
X100443384Y-80929595D01*
X100488231Y-80880581D01*
X100519584Y-80811525D01*
X100540619Y-80718656D01*
X100343769Y-80718656D01*
X100292175Y-80801206D01*
X100188194Y-80823431D01*
X100074687Y-80805175D01*
X100015156Y-80744056D01*
X99989756Y-80621819D01*
X100553319Y-80621819D01*
X100554906Y-80559906D01*
X100551026Y-80455131D01*
X100539384Y-80367290D01*
X100519981Y-80296381D01*
X100473547Y-80216213D01*
X100404094Y-80163031D01*
X100341862Y-80143981D01*
X100731119Y-80143981D01*
X100783506Y-80315431D01*
X100989881Y-80315431D01*
X100989881Y-80972656D01*
X101180381Y-80972656D01*
X101180381Y-80315431D01*
X101475656Y-80315431D01*
X101475656Y-80307494D01*
X101705844Y-80307494D01*
X101910631Y-80307494D01*
X101910631Y-80707544D01*
X101915791Y-80799817D01*
X101931269Y-80870263D01*
X102010644Y-80959956D01*
X102083272Y-80982578D01*
X102183681Y-80990119D01*
X102290441Y-80984959D01*
X102436094Y-80969481D01*
X102436094Y-80802794D01*
X102321397Y-80817081D01*
X102237656Y-80821844D01*
X102147962Y-80810731D01*
X102109862Y-80775806D01*
X102101131Y-80701194D01*
X102101131Y-80307494D01*
X102410694Y-80307494D01*
X102410694Y-80143981D01*
X102101131Y-80143981D01*
X102101131Y-79897919D01*
X101916981Y-79975706D01*
X101916981Y-80143981D01*
X101743944Y-80143981D01*
X101705844Y-80307494D01*
X101475656Y-80307494D01*
X101475656Y-80143981D01*
X101180381Y-80143981D01*
X101180381Y-80053494D01*
X101224037Y-79971738D01*
X101285355Y-79954473D01*
X101381994Y-79948719D01*
X101493119Y-79951894D01*
X101493119Y-79786794D01*
X101418903Y-79783222D01*
X101351831Y-79782031D01*
X101227808Y-79788183D01*
X101135137Y-79806638D01*
X101068859Y-79839181D01*
X101024012Y-79887600D01*
X100998414Y-79955664D01*
X100989881Y-80047144D01*
X100989881Y-80143981D01*
X100731119Y-80143981D01*
X100341862Y-80143981D01*
X100306859Y-80133266D01*
X100177081Y-80123344D01*
X100043533Y-80132869D01*
X99944512Y-80161444D01*
X99874662Y-80212839D01*
X99828625Y-80290825D01*
X99809663Y-80360234D01*
X99798286Y-80446753D01*
X99794494Y-80550381D01*
X99080119Y-80550381D01*
X99080119Y-79893156D01*
X98876919Y-79893156D01*
X97152894Y-79893156D01*
X97152894Y-79816956D01*
X96962394Y-79816956D01*
X95552694Y-79816956D01*
X95309806Y-79816956D01*
X89121418Y-79816956D01*
X89161695Y-79772517D01*
X89241439Y-79700241D01*
X89327884Y-79636129D01*
X89420197Y-79580799D01*
X89517489Y-79534783D01*
X89618822Y-79498526D01*
X89723222Y-79472375D01*
X89829682Y-79456583D01*
X89937177Y-79451302D01*
X90267906Y-79451302D01*
X102436094Y-79451302D01*
X102766823Y-79451302D01*
X102874318Y-79456583D01*
G37*
D13*
X111762000Y-75458000D02*
X129542000Y-75458000D01*
X111762000Y-118638000D02*
X111762000Y-75458000D01*
X129542000Y-75458000D02*
X129542000Y-118638000D01*
X129542000Y-118638000D02*
X111762000Y-118638000D01*
D11*
X116842000Y-116098000D02*
X124462000Y-116098000D01*
X124462000Y-118638000D01*
X116842000Y-118638000D01*
X116842000Y-116098000D01*
D14*
X111002000Y-79048000D02*
G75*
G02*
X110802000Y-79048000I-100000J0D01*
G01*
X110802000Y-79048000D02*
G75*
G02*
X111002000Y-79048000I100000J0D01*
G01*
D16*
X174543096Y-57878000D02*
X184584096Y-57878000D01*
X174543096Y-61814000D02*
X174543096Y-57878000D01*
X174543096Y-70118000D02*
X174543096Y-66181000D01*
X174543096Y-70118000D02*
X175864096Y-70118000D01*
X178314096Y-70118000D02*
X178694096Y-70118000D01*
X180435096Y-70118000D02*
X181194096Y-70118000D01*
X182934096Y-70118000D02*
X184584096Y-70118000D01*
X184584096Y-61814000D02*
X184584096Y-57878000D01*
X184584096Y-70118000D02*
X184584096Y-66181000D01*
D12*
G36*
X89719837Y-107626556D02*
G01*
X89265812Y-107504319D01*
X89265812Y-107501144D01*
X89719837Y-107378906D01*
X89719837Y-107626556D01*
G37*
G36*
X92411497Y-102541794D02*
G01*
X92411497Y-103837405D01*
X92411497Y-104572504D01*
X92411497Y-105175456D01*
X92411497Y-105714252D01*
X92411497Y-106547056D01*
X92411497Y-107051881D01*
X92411497Y-107953581D01*
X92411497Y-108218165D01*
X92409314Y-108307051D01*
X92402774Y-108395722D01*
X92391890Y-108483966D01*
X92376689Y-108571570D01*
X92357208Y-108658322D01*
X92333494Y-108744014D01*
X92305604Y-108828439D01*
X92273604Y-108911394D01*
X92237573Y-108992679D01*
X92197597Y-109072098D01*
X92153772Y-109149460D01*
X92106204Y-109224578D01*
X92055008Y-109297272D01*
X92000306Y-109367366D01*
X91942230Y-109434691D01*
X91880921Y-109499086D01*
X91816527Y-109560395D01*
X91749201Y-109618470D01*
X91679107Y-109673172D01*
X91606413Y-109724369D01*
X91531295Y-109771937D01*
X91453933Y-109815762D01*
X91374515Y-109855738D01*
X91293230Y-109891769D01*
X91210275Y-109923768D01*
X91125850Y-109951659D01*
X91040158Y-109975373D01*
X90953405Y-109994854D01*
X90865802Y-110010054D01*
X90777558Y-110020938D01*
X90688886Y-110027479D01*
X90600000Y-110029661D01*
X90511114Y-110027479D01*
X90422442Y-110020938D01*
X90334198Y-110010054D01*
X90246595Y-109994854D01*
X90159842Y-109975373D01*
X90074150Y-109951659D01*
X89989725Y-109923768D01*
X89906770Y-109891769D01*
X89825485Y-109855738D01*
X89746067Y-109815762D01*
X89668705Y-109771937D01*
X89593587Y-109724369D01*
X89520893Y-109673172D01*
X89450799Y-109618470D01*
X89383473Y-109560395D01*
X89319079Y-109499086D01*
X89257770Y-109434691D01*
X89199694Y-109367366D01*
X89144992Y-109297272D01*
X89093796Y-109224578D01*
X89046228Y-109149460D01*
X89002403Y-109072098D01*
X88962427Y-108992679D01*
X88926396Y-108911394D01*
X88894396Y-108828439D01*
X88866506Y-108744014D01*
X88842792Y-108658322D01*
X88823311Y-108571570D01*
X88808110Y-108483966D01*
X88797226Y-108395722D01*
X88790686Y-108307051D01*
X88788503Y-108218165D01*
X88788503Y-107953581D01*
X88788503Y-107631319D01*
X89068962Y-107631319D01*
X90148462Y-107953581D01*
X90148462Y-107751969D01*
X89889699Y-107674181D01*
X89889699Y-107331281D01*
X90148462Y-107253494D01*
X90148462Y-107051881D01*
X89068962Y-107374144D01*
X89068962Y-107631319D01*
X88788503Y-107631319D01*
X88788503Y-106553406D01*
X89053087Y-106553406D01*
X89059635Y-106691320D01*
X89079281Y-106793913D01*
X89114404Y-106866541D01*
X89167387Y-106914563D01*
X89241999Y-106941352D01*
X89342012Y-106950281D01*
X89420196Y-106942741D01*
X89483299Y-106920119D01*
X89535092Y-106879439D01*
X89579343Y-106817725D01*
X89619626Y-106730214D01*
X89659512Y-106612144D01*
X89690270Y-106517886D01*
X89719043Y-106447838D01*
X89780162Y-106364494D01*
X89861124Y-106339094D01*
X89939706Y-106356556D01*
X89978599Y-106416088D01*
X89989712Y-106534356D01*
X89986140Y-106611549D01*
X89975424Y-106668500D01*
X89925418Y-106735969D01*
X89823024Y-106761369D01*
X89823024Y-106959806D01*
X89941293Y-106954250D01*
X90029399Y-106928056D01*
X90091709Y-106878249D01*
X90132587Y-106801850D01*
X90155209Y-106693305D01*
X90162749Y-106547056D01*
X90156002Y-106405174D01*
X90135762Y-106300200D01*
X90099249Y-106226183D01*
X90043687Y-106177169D01*
X89965106Y-106149784D01*
X89859537Y-106140656D01*
X89772820Y-106148197D01*
X89703168Y-106170819D01*
X89646613Y-106211102D01*
X89599187Y-106271625D01*
X89556721Y-106357152D01*
X89515049Y-106472444D01*
X89469210Y-106605595D01*
X89430118Y-106690725D01*
X89348362Y-106751844D01*
X89273749Y-106734381D01*
X89237237Y-106676438D01*
X89226124Y-106559756D01*
X89238031Y-106446250D01*
X89277718Y-106387513D01*
X89357887Y-106364494D01*
X89357887Y-106162881D01*
X89251127Y-106170819D01*
X89172149Y-106197806D01*
X89116587Y-106246027D01*
X89080074Y-106317663D01*
X89059834Y-106418270D01*
X89053087Y-106553406D01*
X88788503Y-106553406D01*
X88788503Y-106018419D01*
X89068962Y-106018419D01*
X90148462Y-106018419D01*
X90148462Y-105994215D01*
X91069290Y-105994215D01*
X91235078Y-105994215D01*
X91235078Y-105578181D01*
X91468120Y-105840939D01*
X91652677Y-105840939D01*
X91638600Y-105746315D01*
X91633908Y-105668895D01*
X91643292Y-105588347D01*
X91671445Y-105534388D01*
X91719930Y-105503889D01*
X91790312Y-105493723D01*
X91879267Y-105506040D01*
X91936550Y-105542990D01*
X91967635Y-105610830D01*
X91977997Y-105715816D01*
X91972914Y-105786394D01*
X91957664Y-105854234D01*
X91929903Y-105927939D01*
X91887283Y-106016112D01*
X92082788Y-106016112D01*
X92113286Y-105943189D01*
X92132837Y-105874566D01*
X92143394Y-105801252D01*
X92146913Y-105714252D01*
X92138311Y-105574662D01*
X92112504Y-105468698D01*
X92067538Y-105391865D01*
X92001458Y-105339665D01*
X91910352Y-105309753D01*
X91790312Y-105299782D01*
X91687672Y-105305647D01*
X91608102Y-105323242D01*
X91549255Y-105353937D01*
X91508785Y-105399098D01*
X91485325Y-105460682D01*
X91477504Y-105540644D01*
X91480632Y-105603205D01*
X91472812Y-105603205D01*
X91250719Y-105340447D01*
X91069290Y-105340447D01*
X91069290Y-105994215D01*
X90148462Y-105994215D01*
X90148462Y-105831094D01*
X89602362Y-105831094D01*
X89321374Y-105850144D01*
X89321374Y-105843794D01*
X89788099Y-105677106D01*
X89788099Y-105516769D01*
X89321374Y-105350081D01*
X89321374Y-105343731D01*
X89602362Y-105362781D01*
X90148462Y-105362781D01*
X90148462Y-105175456D01*
X89068962Y-105175456D01*
X89068962Y-105411994D01*
X89586487Y-105588206D01*
X89586487Y-105605669D01*
X89068962Y-105778706D01*
X89068962Y-106018419D01*
X88788503Y-106018419D01*
X88788503Y-104643644D01*
X89068962Y-104643644D01*
X89308674Y-104984956D01*
X89518224Y-104984956D01*
X89342012Y-104699206D01*
X89291212Y-104637294D01*
X89389637Y-104643644D01*
X90148462Y-104643644D01*
X90148462Y-104446794D01*
X91069290Y-104446794D01*
X91069290Y-104459893D01*
X91898231Y-104691370D01*
X91898231Y-104699191D01*
X91069290Y-104930669D01*
X91069290Y-105133994D01*
X92132837Y-104818058D01*
X92132837Y-104572504D01*
X91069290Y-104256568D01*
X91069290Y-104446794D01*
X90148462Y-104446794D01*
X89068962Y-104446794D01*
X89068962Y-104643644D01*
X88788503Y-104643644D01*
X88788503Y-103691144D01*
X89068962Y-103691144D01*
X89308674Y-104032456D01*
X89518224Y-104032456D01*
X89342012Y-103746706D01*
X89291212Y-103684794D01*
X89389637Y-103691144D01*
X90148462Y-103691144D01*
X90148462Y-103494294D01*
X91069290Y-103494294D01*
X91069290Y-104117368D01*
X91235078Y-104117368D01*
X91235078Y-103701334D01*
X91468120Y-103964092D01*
X91652677Y-103964092D01*
X91638600Y-103869468D01*
X91633908Y-103792048D01*
X91643292Y-103711500D01*
X91671445Y-103657540D01*
X91719930Y-103627042D01*
X91790312Y-103616875D01*
X91879267Y-103629192D01*
X91936550Y-103666143D01*
X91967635Y-103733983D01*
X91977997Y-103838969D01*
X91972914Y-103909546D01*
X91957664Y-103977387D01*
X91929903Y-104051092D01*
X91887283Y-104139265D01*
X92082788Y-104139265D01*
X92113286Y-104066341D01*
X92132837Y-103997719D01*
X92143394Y-103924405D01*
X92146913Y-103837405D01*
X92138311Y-103697814D01*
X92112504Y-103591851D01*
X92067538Y-103515017D01*
X92001458Y-103462818D01*
X91910352Y-103432905D01*
X91790312Y-103422935D01*
X91687672Y-103428800D01*
X91608102Y-103446395D01*
X91549255Y-103477089D01*
X91508785Y-103522251D01*
X91485325Y-103583835D01*
X91477504Y-103663797D01*
X91480632Y-103726358D01*
X91472812Y-103726358D01*
X91250719Y-103463600D01*
X91069290Y-103463600D01*
X91069290Y-103494294D01*
X90148462Y-103494294D01*
X89068962Y-103494294D01*
X89068962Y-103691144D01*
X88788503Y-103691144D01*
X88788503Y-102738644D01*
X89068962Y-102738644D01*
X89308674Y-103079956D01*
X89518224Y-103079956D01*
X89342012Y-102794206D01*
X89291212Y-102732294D01*
X89389637Y-102738644D01*
X90148462Y-102738644D01*
X90148462Y-102541794D01*
X89068962Y-102541794D01*
X89068962Y-102738644D01*
X88788503Y-102738644D01*
X88788503Y-102186194D01*
X89068962Y-102186194D01*
X89249937Y-102186194D01*
X89249937Y-101660731D01*
X90164337Y-102130631D01*
X90164337Y-101908381D01*
X89259462Y-101446419D01*
X89068962Y-101446419D01*
X89068962Y-102186194D01*
X88788503Y-102186194D01*
X88788503Y-101446419D01*
X88788503Y-101181836D01*
X88790686Y-101092950D01*
X88797226Y-101004278D01*
X88808110Y-100916034D01*
X88823311Y-100828430D01*
X88842792Y-100741678D01*
X88866506Y-100655986D01*
X88894396Y-100571561D01*
X88926395Y-100488606D01*
X88962427Y-100407321D01*
X89002403Y-100327902D01*
X89046228Y-100250540D01*
X89093796Y-100175422D01*
X89144992Y-100102728D01*
X89199694Y-100032634D01*
X89257770Y-99965309D01*
X89319079Y-99900914D01*
X89383473Y-99839605D01*
X89450799Y-99781530D01*
X89520893Y-99726828D01*
X89593586Y-99675631D01*
X89668705Y-99628063D01*
X89746066Y-99584238D01*
X89825485Y-99544262D01*
X89906770Y-99508231D01*
X89989725Y-99476232D01*
X90074150Y-99448341D01*
X90159842Y-99424627D01*
X90246595Y-99405146D01*
X90334198Y-99389946D01*
X90422442Y-99379062D01*
X90511114Y-99372521D01*
X90600000Y-99370339D01*
X90688886Y-99372521D01*
X90777558Y-99379062D01*
X90865802Y-99389946D01*
X90953405Y-99405146D01*
X91040158Y-99424627D01*
X91125850Y-99448341D01*
X91210275Y-99476232D01*
X91293230Y-99508231D01*
X91374515Y-99544262D01*
X91453934Y-99584238D01*
X91531295Y-99628063D01*
X91606414Y-99675631D01*
X91679107Y-99726828D01*
X91749201Y-99781530D01*
X91816527Y-99839605D01*
X91880921Y-99900914D01*
X91942230Y-99965309D01*
X92000306Y-100032634D01*
X92055008Y-100102728D01*
X92106204Y-100175422D01*
X92153772Y-100250540D01*
X92197597Y-100327902D01*
X92237573Y-100407321D01*
X92273605Y-100488606D01*
X92305604Y-100571561D01*
X92333494Y-100655986D01*
X92357208Y-100741678D01*
X92376689Y-100828430D01*
X92391890Y-100916034D01*
X92402774Y-101004278D01*
X92409314Y-101092950D01*
X92411497Y-101181836D01*
X92411497Y-101446419D01*
X92411497Y-101908381D01*
X92411497Y-102541794D01*
G37*
G36*
X92957338Y-120665856D02*
G01*
X93013694Y-120718244D01*
X93036713Y-120823813D01*
X92663650Y-120823813D01*
X92690638Y-120718244D01*
X92746200Y-120665856D01*
X92849388Y-120650775D01*
X92957338Y-120665856D01*
G37*
G36*
X89052088Y-120426937D02*
G01*
X89128089Y-120440034D01*
X89175119Y-120463450D01*
X89207663Y-120563462D01*
X89183056Y-120662681D01*
X89090188Y-120692050D01*
X88867938Y-120692050D01*
X88867938Y-120422175D01*
X88920325Y-120422175D01*
X89052088Y-120426937D01*
G37*
G36*
X89171944Y-120880169D02*
G01*
X89232269Y-120927000D01*
X89250525Y-121022250D01*
X89228300Y-121115119D01*
X89154481Y-121161156D01*
X89091577Y-121171277D01*
X89006050Y-121174650D01*
X88939772Y-121173856D01*
X88867938Y-121171475D01*
X88867938Y-120866675D01*
X89050500Y-120866675D01*
X89171944Y-120880169D01*
G37*
G36*
X94549228Y-119922653D02*
G01*
X94634807Y-119935348D01*
X94718729Y-119956369D01*
X94800187Y-119985516D01*
X94878396Y-120022506D01*
X94952603Y-120066983D01*
X95022092Y-120118520D01*
X95086196Y-120176621D01*
X95144296Y-120240724D01*
X95195833Y-120310214D01*
X95240311Y-120384421D01*
X95277301Y-120462629D01*
X95306447Y-120544087D01*
X95327469Y-120628010D01*
X95340163Y-120713589D01*
X95344408Y-120800000D01*
X95340163Y-120886411D01*
X95327469Y-120971990D01*
X95306447Y-121055913D01*
X95277301Y-121137371D01*
X95240311Y-121215579D01*
X95195833Y-121289786D01*
X95144296Y-121359276D01*
X95086196Y-121423379D01*
X95022092Y-121481480D01*
X94952603Y-121533017D01*
X94878396Y-121577494D01*
X94800187Y-121614484D01*
X94718729Y-121643631D01*
X94634807Y-121664652D01*
X94549228Y-121677347D01*
X94462817Y-121681592D01*
X94132088Y-121681592D01*
X93692350Y-121681592D01*
X92862088Y-121681592D01*
X92250900Y-121681592D01*
X91298400Y-121681592D01*
X89898225Y-121681592D01*
X88979063Y-121681592D01*
X88667913Y-121681592D01*
X88337183Y-121681592D01*
X88250772Y-121677347D01*
X88165193Y-121664652D01*
X88081271Y-121643631D01*
X87999813Y-121614484D01*
X87921604Y-121577494D01*
X87847397Y-121533017D01*
X87777908Y-121481480D01*
X87713804Y-121423379D01*
X87655704Y-121359276D01*
X87636513Y-121333400D01*
X88667913Y-121333400D01*
X88778685Y-121342219D01*
X88882401Y-121347511D01*
X88979063Y-121349275D01*
X89094333Y-121346188D01*
X89190376Y-121336928D01*
X89267194Y-121321494D01*
X89353514Y-121283989D01*
X89410863Y-121227038D01*
X89443009Y-121146075D01*
X89453725Y-121036537D01*
X89449558Y-120958353D01*
X89437056Y-120898425D01*
X89379906Y-120819050D01*
X89264812Y-120777775D01*
X89264812Y-120768250D01*
X89333273Y-120743247D01*
X89376731Y-120703162D01*
X89399948Y-120640853D01*
X89407688Y-120549175D01*
X89403364Y-120507900D01*
X89618825Y-120507900D01*
X89618825Y-121031775D01*
X89625175Y-121142900D01*
X89644225Y-121225450D01*
X89678158Y-121283791D01*
X89729156Y-121322287D01*
X89801189Y-121343719D01*
X89898225Y-121350863D01*
X89991292Y-121343917D01*
X90057769Y-121323081D01*
X90107973Y-121283592D01*
X90152225Y-121220688D01*
X90164925Y-121220688D01*
X90164925Y-121336575D01*
X90358600Y-121336575D01*
X90585613Y-121336575D01*
X91298400Y-121336575D01*
X91538113Y-121336575D01*
X92250900Y-121336575D01*
X92250900Y-121165125D01*
X91792113Y-121165125D01*
X92013790Y-120914300D01*
X92466800Y-120914300D01*
X92470769Y-121019957D01*
X92482675Y-121108328D01*
X92502519Y-121179412D01*
X92550342Y-121259383D01*
X92622375Y-121311969D01*
X92724372Y-121341139D01*
X92862088Y-121350863D01*
X92971228Y-121344711D01*
X93007796Y-121336575D01*
X93501850Y-121336575D01*
X93692350Y-121336575D01*
X93692350Y-120928588D01*
X93716163Y-120829369D01*
X93776488Y-120741263D01*
X93844750Y-120699987D01*
X93925713Y-120694034D01*
X94035250Y-120692050D01*
X94132088Y-120693637D01*
X94132088Y-120503137D01*
X94033663Y-120500756D01*
X93928888Y-120499963D01*
X93824113Y-120507900D01*
X93770138Y-120547587D01*
X93736403Y-120596006D01*
X93686000Y-120677762D01*
X93668538Y-120677762D01*
X93676475Y-120507900D01*
X93501850Y-120507900D01*
X93501850Y-121336575D01*
X93007796Y-121336575D01*
X93054175Y-121326256D01*
X93115691Y-121293514D01*
X93160538Y-121244500D01*
X93191891Y-121175444D01*
X93212925Y-121082575D01*
X93016075Y-121082575D01*
X92964481Y-121165125D01*
X92860500Y-121187350D01*
X92746994Y-121169094D01*
X92687463Y-121107975D01*
X92662063Y-120985737D01*
X93225625Y-120985737D01*
X93227213Y-120923825D01*
X93223332Y-120819050D01*
X93211690Y-120731208D01*
X93192288Y-120660300D01*
X93145853Y-120580131D01*
X93076400Y-120526950D01*
X92979166Y-120497184D01*
X92849388Y-120487262D01*
X92715839Y-120496787D01*
X92616819Y-120525362D01*
X92546969Y-120576758D01*
X92500931Y-120654744D01*
X92481969Y-120724153D01*
X92470592Y-120810672D01*
X92466800Y-120914300D01*
X92013790Y-120914300D01*
X92250900Y-120646013D01*
X92250900Y-120511075D01*
X91566688Y-120511075D01*
X91566688Y-120679350D01*
X91990550Y-120679350D01*
X91538113Y-121195288D01*
X91538113Y-121336575D01*
X91298400Y-121336575D01*
X91298400Y-121165125D01*
X90839613Y-121165125D01*
X91298400Y-120646013D01*
X91298400Y-120511075D01*
X90614188Y-120511075D01*
X90614188Y-120679350D01*
X91038050Y-120679350D01*
X90585613Y-121195288D01*
X90585613Y-121336575D01*
X90358600Y-121336575D01*
X90358600Y-120507900D01*
X90164925Y-120507900D01*
X90164925Y-120936525D01*
X90160163Y-121023639D01*
X90145875Y-121088131D01*
X90082375Y-121163538D01*
X90028003Y-121180206D01*
X89953788Y-121185762D01*
X89841869Y-121154012D01*
X89812500Y-121034950D01*
X89812500Y-120507900D01*
X89618825Y-120507900D01*
X89403364Y-120507900D01*
X89396773Y-120444995D01*
X89364031Y-120367406D01*
X89305492Y-120312439D01*
X89217188Y-120276125D01*
X89138694Y-120261132D01*
X89040799Y-120252136D01*
X88929335Y-120249286D01*
X88667913Y-120253900D01*
X88667913Y-121333400D01*
X87636513Y-121333400D01*
X87604167Y-121289786D01*
X87559689Y-121215579D01*
X87522699Y-121137371D01*
X87493553Y-121055913D01*
X87472531Y-120971990D01*
X87459837Y-120886411D01*
X87455592Y-120800000D01*
X87459837Y-120713589D01*
X87472531Y-120628010D01*
X87493553Y-120544087D01*
X87522699Y-120462629D01*
X87559689Y-120384421D01*
X87604167Y-120310214D01*
X87655704Y-120240724D01*
X87713804Y-120176621D01*
X87777908Y-120118520D01*
X87847397Y-120066983D01*
X87921604Y-120022506D01*
X87999813Y-119985516D01*
X88081271Y-119956369D01*
X88165193Y-119935348D01*
X88250772Y-119922653D01*
X88337183Y-119918408D01*
X88667913Y-119918408D01*
X94132088Y-119918408D01*
X94462817Y-119918408D01*
X94549228Y-119922653D01*
G37*
D15*
X86002000Y-65748000D02*
G75*
G02*
X81602000Y-65748000I-2200000J0D01*
G01*
X81602000Y-65748000D02*
G75*
G02*
X86002000Y-65748000I2200000J0D01*
G01*
D12*
G36*
X117946900Y-96197999D02*
G01*
X117699250Y-96197999D01*
X117821488Y-95743974D01*
X117824663Y-95743974D01*
X117946900Y-96197999D01*
G37*
G36*
X120782433Y-98314223D02*
G01*
X120768161Y-98373265D01*
X120707946Y-98442083D01*
X120587515Y-98462416D01*
X120483506Y-98440519D01*
X120456135Y-98359189D01*
X120471776Y-98284897D01*
X120525735Y-98248142D01*
X120634436Y-98235630D01*
X120789276Y-98234066D01*
X120782433Y-98314223D01*
G37*
G36*
X119832850Y-95966224D02*
G01*
X119889206Y-96046393D01*
X119901708Y-96114854D01*
X119905875Y-96207524D01*
X119901708Y-96300393D01*
X119889206Y-96369449D01*
X119832850Y-96451206D01*
X119720138Y-96475812D01*
X119595519Y-96451999D01*
X119533606Y-96370243D01*
X119519914Y-96300592D01*
X119515350Y-96207524D01*
X119519914Y-96114854D01*
X119533606Y-96046393D01*
X119595519Y-95966224D01*
X119720138Y-95942412D01*
X119832850Y-95966224D01*
G37*
G36*
X122627804Y-97959577D02*
G01*
X122687238Y-98040125D01*
X122700727Y-98108552D01*
X122705224Y-98201221D01*
X122700727Y-98292522D01*
X122687238Y-98359971D01*
X122627804Y-98438955D01*
X122508155Y-98462416D01*
X122388506Y-98438955D01*
X122329073Y-98359971D01*
X122315583Y-98292522D01*
X122311086Y-98201221D01*
X122315583Y-98108552D01*
X122329073Y-98040125D01*
X122388506Y-97959577D01*
X122508155Y-97935334D01*
X122627804Y-97959577D01*
G37*
G36*
X123659519Y-95965431D02*
G01*
X123719844Y-96047187D01*
X123733536Y-96116640D01*
X123738100Y-96210699D01*
X123733536Y-96303370D01*
X123719844Y-96371831D01*
X123659519Y-96451999D01*
X123538075Y-96475812D01*
X123416631Y-96451999D01*
X123356306Y-96371831D01*
X123342614Y-96303370D01*
X123338050Y-96210699D01*
X123342614Y-96116640D01*
X123356306Y-96047187D01*
X123416631Y-95965431D01*
X123538075Y-95940824D01*
X123659519Y-95965431D01*
G37*
G36*
X124356116Y-95142493D02*
G01*
X124449502Y-95149382D01*
X124542437Y-95160844D01*
X124634698Y-95176853D01*
X124726063Y-95197370D01*
X124816311Y-95222345D01*
X124905224Y-95251718D01*
X124992589Y-95285418D01*
X125078196Y-95323365D01*
X125161837Y-95365466D01*
X125243312Y-95411621D01*
X125322424Y-95461718D01*
X125398982Y-95515637D01*
X125472803Y-95573247D01*
X125543708Y-95634410D01*
X125611526Y-95698978D01*
X125676094Y-95766797D01*
X125737257Y-95837701D01*
X125794867Y-95911522D01*
X125848786Y-95988080D01*
X125898883Y-96067192D01*
X125945038Y-96148667D01*
X125987139Y-96232308D01*
X126025086Y-96317915D01*
X126058786Y-96405280D01*
X126088160Y-96494194D01*
X126113134Y-96584441D01*
X126133651Y-96675806D01*
X126149660Y-96768067D01*
X126161122Y-96861002D01*
X126168011Y-96954388D01*
X126170309Y-97048000D01*
X126168011Y-97141612D01*
X126161122Y-97234998D01*
X126149660Y-97327933D01*
X126133651Y-97420194D01*
X126113134Y-97511559D01*
X126088160Y-97601806D01*
X126058786Y-97690720D01*
X126025086Y-97778085D01*
X125987139Y-97863692D01*
X125945038Y-97947333D01*
X125898883Y-98028808D01*
X125848786Y-98107920D01*
X125794867Y-98184478D01*
X125737257Y-98258299D01*
X125676094Y-98329203D01*
X125611526Y-98397022D01*
X125543708Y-98461590D01*
X125472803Y-98522753D01*
X125398982Y-98580363D01*
X125322424Y-98634282D01*
X125243312Y-98684379D01*
X125161837Y-98730534D01*
X125078196Y-98772635D01*
X124992589Y-98810582D01*
X124905224Y-98844282D01*
X124816311Y-98873655D01*
X124726063Y-98898630D01*
X124634698Y-98919147D01*
X124542437Y-98935156D01*
X124449502Y-98946618D01*
X124356116Y-98953507D01*
X124262504Y-98955805D01*
X123931775Y-98955805D01*
X123538075Y-98955805D01*
X122957050Y-98955805D01*
X122508155Y-98955805D01*
X122031538Y-98955805D01*
X121935717Y-98955805D01*
X120554670Y-98955805D01*
X120093278Y-98955805D01*
X118667625Y-98955805D01*
X118273925Y-98955805D01*
X117372225Y-98955805D01*
X117041496Y-98955805D01*
X116947884Y-98953507D01*
X116854498Y-98946618D01*
X116761563Y-98935156D01*
X116669302Y-98919147D01*
X116577937Y-98898630D01*
X116487689Y-98873655D01*
X116398776Y-98844282D01*
X116311411Y-98810582D01*
X116225804Y-98772635D01*
X116142163Y-98730534D01*
X116060688Y-98684379D01*
X115981576Y-98634282D01*
X115905018Y-98580363D01*
X115831197Y-98522753D01*
X115760292Y-98461590D01*
X115692474Y-98397022D01*
X115627906Y-98329203D01*
X115566743Y-98258299D01*
X115509133Y-98184478D01*
X115455214Y-98107920D01*
X115405117Y-98028808D01*
X115358962Y-97947333D01*
X115316861Y-97863692D01*
X115278914Y-97778085D01*
X115245214Y-97690720D01*
X115215840Y-97601807D01*
X115200799Y-97547453D01*
X119292490Y-97547453D01*
X119292490Y-98610999D01*
X119484867Y-98610999D01*
X119484867Y-97999460D01*
X119462970Y-97777366D01*
X119467662Y-97777366D01*
X119849288Y-98610999D01*
X120093278Y-98610999D01*
X120093278Y-98373265D01*
X120265323Y-98373265D01*
X120271774Y-98460656D01*
X120291129Y-98525759D01*
X120378715Y-98602397D01*
X120453594Y-98619406D01*
X120554670Y-98625076D01*
X120632481Y-98619211D01*
X120690741Y-98601615D01*
X120783020Y-98514029D01*
X120795532Y-98514029D01*
X120795532Y-98610999D01*
X120973832Y-98610999D01*
X121206874Y-98610999D01*
X121397687Y-98610999D01*
X121397687Y-98187145D01*
X121402184Y-98102491D01*
X121415674Y-98039343D01*
X121475107Y-97965051D01*
X121593192Y-97943154D01*
X121666897Y-97950975D01*
X121712841Y-97974435D01*
X121744904Y-98091738D01*
X121744904Y-98610999D01*
X121935717Y-98610999D01*
X121935717Y-98201221D01*
X122120273Y-98201221D01*
X122129071Y-98349218D01*
X122155464Y-98458505D01*
X122202581Y-98535534D01*
X122273549Y-98586757D01*
X122373648Y-98615496D01*
X122508155Y-98625076D01*
X122642662Y-98615496D01*
X122742761Y-98586757D01*
X122813729Y-98535534D01*
X122860846Y-98458505D01*
X122887239Y-98349218D01*
X122896037Y-98201221D01*
X122892127Y-98097299D01*
X122880396Y-98010756D01*
X122860846Y-97941590D01*
X122813925Y-97863975D01*
X122743543Y-97812557D01*
X122643640Y-97783818D01*
X122508155Y-97774238D01*
X122372670Y-97783818D01*
X122272767Y-97812557D01*
X122202385Y-97863975D01*
X122155464Y-97941590D01*
X122135914Y-98010756D01*
X122124183Y-98097299D01*
X122120273Y-98201221D01*
X121935717Y-98201221D01*
X121935717Y-98094866D01*
X121928874Y-97982842D01*
X121908346Y-97900143D01*
X121871787Y-97841883D01*
X121816850Y-97803173D01*
X121739039Y-97781472D01*
X121633857Y-97774238D01*
X121557610Y-97781276D01*
X121500914Y-97802391D01*
X121454775Y-97842665D01*
X121410199Y-97907182D01*
X121397687Y-97907182D01*
X121397687Y-97794571D01*
X121206874Y-97794571D01*
X121206874Y-98610999D01*
X120973832Y-98610999D01*
X120973832Y-98068278D01*
X120966012Y-97965833D01*
X120942552Y-97889977D01*
X120900518Y-97836409D01*
X120836979Y-97800827D01*
X120747242Y-97780885D01*
X120626616Y-97774238D01*
X120588500Y-97776160D01*
X120506380Y-97780299D01*
X120417816Y-97798481D01*
X120356037Y-97830935D01*
X120316154Y-97879811D01*
X120295626Y-97949215D01*
X120291911Y-98043253D01*
X120482724Y-98043253D01*
X120510095Y-97956449D01*
X120626616Y-97933770D01*
X120706773Y-97940808D01*
X120756431Y-97961923D01*
X120790840Y-98068278D01*
X120790840Y-98077662D01*
X120667281Y-98077662D01*
X120527299Y-98084309D01*
X120423291Y-98104251D01*
X120349781Y-98140028D01*
X120301295Y-98194183D01*
X120274316Y-98270625D01*
X120265323Y-98373265D01*
X120093278Y-98373265D01*
X120093278Y-97547453D01*
X119900901Y-97547453D01*
X119900901Y-98158992D01*
X119922798Y-98381086D01*
X119918106Y-98381086D01*
X119664575Y-97827266D01*
X119536480Y-97547453D01*
X119292490Y-97547453D01*
X115200799Y-97547453D01*
X115190866Y-97511559D01*
X115170349Y-97420194D01*
X115154340Y-97327933D01*
X115142878Y-97234998D01*
X115135989Y-97141612D01*
X115133691Y-97048000D01*
X115135989Y-96954388D01*
X115142878Y-96861002D01*
X115154340Y-96768067D01*
X115170349Y-96675806D01*
X115181393Y-96626624D01*
X117372225Y-96626624D01*
X117573838Y-96626624D01*
X117651625Y-96367862D01*
X117994525Y-96367862D01*
X118072313Y-96626624D01*
X118273925Y-96626624D01*
X118477125Y-96626624D01*
X118667625Y-96626624D01*
X118667625Y-96218637D01*
X118670292Y-96207524D01*
X119320088Y-96207524D01*
X119323527Y-96313093D01*
X119333846Y-96401199D01*
X119351044Y-96471843D01*
X119392716Y-96551218D01*
X119455819Y-96603606D01*
X119544917Y-96632776D01*
X119664575Y-96642499D01*
X119747720Y-96637142D01*
X119806656Y-96621068D01*
X119890000Y-96540899D01*
X119902700Y-96540899D01*
X119902700Y-96626624D01*
X120094788Y-96626624D01*
X120094788Y-95797949D01*
X120309100Y-95797949D01*
X120309100Y-96321824D01*
X120315450Y-96432949D01*
X120334500Y-96515499D01*
X120368433Y-96573840D01*
X120419431Y-96612337D01*
X120491464Y-96633768D01*
X120588500Y-96640912D01*
X120681567Y-96633967D01*
X120748044Y-96613131D01*
X120798248Y-96573642D01*
X120842500Y-96510737D01*
X120855200Y-96510737D01*
X120855200Y-96626624D01*
X121048875Y-96626624D01*
X121299700Y-96626624D01*
X122031538Y-96626624D01*
X122217275Y-96626624D01*
X122410950Y-96626624D01*
X122410950Y-96196412D01*
X122415514Y-96110488D01*
X122429206Y-96046393D01*
X122489531Y-95970987D01*
X122609388Y-95948762D01*
X122684198Y-95956699D01*
X122730831Y-95980512D01*
X122755239Y-96026152D01*
X122763375Y-96099574D01*
X122763375Y-96626624D01*
X122957050Y-96626624D01*
X122957050Y-96210699D01*
X123144375Y-96210699D01*
X123148344Y-96315210D01*
X123160250Y-96402258D01*
X123180094Y-96471843D01*
X123227917Y-96550027D01*
X123299950Y-96602018D01*
X123401550Y-96631188D01*
X123538075Y-96640912D01*
X123674600Y-96631188D01*
X123776200Y-96602018D01*
X123848233Y-96550027D01*
X123896056Y-96471843D01*
X123915900Y-96402258D01*
X123927806Y-96315210D01*
X123931775Y-96210699D01*
X123927806Y-96105219D01*
X123915900Y-96017377D01*
X123896056Y-95947174D01*
X123848431Y-95868395D01*
X123776994Y-95816206D01*
X123675592Y-95787035D01*
X123538075Y-95777312D01*
X123400558Y-95787035D01*
X123299156Y-95816206D01*
X123227719Y-95868395D01*
X123180094Y-95947174D01*
X123160250Y-96017377D01*
X123148344Y-96105219D01*
X123144375Y-96210699D01*
X122957050Y-96210699D01*
X122957050Y-96102749D01*
X122950105Y-95989045D01*
X122929269Y-95905106D01*
X122892161Y-95845971D01*
X122836400Y-95806681D01*
X122757422Y-95784654D01*
X122650663Y-95777312D01*
X122573272Y-95784456D01*
X122515725Y-95805887D01*
X122468894Y-95846765D01*
X122423650Y-95912249D01*
X122410950Y-95912249D01*
X122410950Y-95797949D01*
X122217275Y-95797949D01*
X122217275Y-96626624D01*
X122031538Y-96626624D01*
X122031538Y-96463112D01*
X121772775Y-96463112D01*
X121766425Y-96463112D01*
X121766425Y-95797949D01*
X121315575Y-95797949D01*
X121315575Y-95961462D01*
X121575925Y-95961462D01*
X121575925Y-96463112D01*
X121299700Y-96463112D01*
X121299700Y-96626624D01*
X121048875Y-96626624D01*
X121048875Y-95797949D01*
X120855200Y-95797949D01*
X120855200Y-96226574D01*
X120850438Y-96313688D01*
X120836150Y-96378181D01*
X120772650Y-96453587D01*
X120718278Y-96470256D01*
X120644063Y-96475812D01*
X120532144Y-96444062D01*
X120502775Y-96324999D01*
X120502775Y-95797949D01*
X120309100Y-95797949D01*
X120094788Y-95797949D01*
X120094788Y-95470924D01*
X121529888Y-95470924D01*
X121529888Y-95694762D01*
X121772775Y-95694762D01*
X121772775Y-95470924D01*
X121529888Y-95470924D01*
X120094788Y-95470924D01*
X119902700Y-95470924D01*
X119902700Y-95875737D01*
X119890000Y-95875737D01*
X119816975Y-95797949D01*
X119755063Y-95782471D01*
X119664575Y-95777312D01*
X119544917Y-95787035D01*
X119455819Y-95816206D01*
X119392716Y-95868196D01*
X119351044Y-95946381D01*
X119333846Y-96015966D01*
X119323527Y-96103014D01*
X119320088Y-96207524D01*
X118670292Y-96207524D01*
X118691438Y-96119418D01*
X118751763Y-96031312D01*
X118820025Y-95990037D01*
X118900988Y-95984084D01*
X119010525Y-95982099D01*
X119107363Y-95983687D01*
X119107363Y-95793187D01*
X119008938Y-95790806D01*
X118904163Y-95790012D01*
X118799388Y-95797949D01*
X118745413Y-95837637D01*
X118711678Y-95886056D01*
X118661275Y-95967812D01*
X118643813Y-95967812D01*
X118651750Y-95797949D01*
X118477125Y-95797949D01*
X118477125Y-96626624D01*
X118273925Y-96626624D01*
X117951663Y-95547124D01*
X117694488Y-95547124D01*
X117372225Y-96626624D01*
X115181393Y-96626624D01*
X115190866Y-96584441D01*
X115215840Y-96494193D01*
X115245214Y-96405280D01*
X115278914Y-96317915D01*
X115316861Y-96232308D01*
X115358962Y-96148667D01*
X115405117Y-96067192D01*
X115455214Y-95988080D01*
X115509133Y-95911522D01*
X115566743Y-95837701D01*
X115627906Y-95766797D01*
X115692474Y-95698978D01*
X115760292Y-95634410D01*
X115831197Y-95573247D01*
X115905018Y-95515637D01*
X115981576Y-95461718D01*
X116060688Y-95411621D01*
X116142163Y-95365466D01*
X116225804Y-95323365D01*
X116311411Y-95285418D01*
X116398776Y-95251718D01*
X116487689Y-95222345D01*
X116577937Y-95197370D01*
X116669302Y-95176853D01*
X116761563Y-95160844D01*
X116854498Y-95149382D01*
X116947884Y-95142493D01*
X117041496Y-95140195D01*
X117372225Y-95140195D01*
X123931775Y-95140195D01*
X124262504Y-95140195D01*
X124356116Y-95142493D01*
G37*
D16*
X194312000Y-60398000D02*
X206612000Y-60398000D01*
X194312000Y-63118000D02*
X194312000Y-60398000D01*
X194312000Y-68118000D02*
X194312000Y-64978000D01*
X194312000Y-72698000D02*
X194312000Y-69978000D01*
X206612000Y-60398000D02*
X206612000Y-63118000D01*
X206612000Y-64978000D02*
X206612000Y-68118000D01*
X206612000Y-69978000D02*
X206612000Y-72698000D01*
X206612000Y-72698000D02*
X194312000Y-72698000D01*
X205141050Y-66588000D02*
G75*
G02*
X195982950Y-66588000I-4579050J0D01*
G01*
X195982950Y-66588000D02*
G75*
G02*
X205141050Y-66588000I4579050J0D01*
G01*
D15*
X217102000Y-65748000D02*
G75*
G02*
X212702000Y-65748000I-2200000J0D01*
G01*
X212702000Y-65748000D02*
G75*
G02*
X217102000Y-65748000I2200000J0D01*
G01*
D12*
G36*
X199123263Y-66035238D02*
G01*
X199199264Y-66048334D01*
X199246294Y-66071750D01*
X199278838Y-66171763D01*
X199254231Y-66270981D01*
X199161363Y-66300350D01*
X198939113Y-66300350D01*
X198939113Y-66030475D01*
X198991500Y-66030475D01*
X199123263Y-66035238D01*
G37*
G36*
X199243119Y-66488469D02*
G01*
X199303444Y-66535300D01*
X199321700Y-66630550D01*
X199299475Y-66723419D01*
X199225656Y-66769456D01*
X199162752Y-66779577D01*
X199077225Y-66782950D01*
X199010947Y-66782156D01*
X198939113Y-66779775D01*
X198939113Y-66474975D01*
X199121675Y-66474975D01*
X199243119Y-66488469D01*
G37*
G36*
X202595746Y-65531626D02*
G01*
X202694886Y-65546332D01*
X202792107Y-65570685D01*
X202886473Y-65604450D01*
X202977075Y-65647301D01*
X203063041Y-65698827D01*
X203143542Y-65758531D01*
X203217804Y-65825838D01*
X203285111Y-65900099D01*
X203344815Y-65980601D01*
X203396340Y-66066566D01*
X203439192Y-66157169D01*
X203472957Y-66251535D01*
X203497309Y-66348756D01*
X203512015Y-66447896D01*
X203516933Y-66548000D01*
X203512015Y-66648104D01*
X203497309Y-66747244D01*
X203472957Y-66844465D01*
X203439192Y-66938831D01*
X203396340Y-67029434D01*
X203344815Y-67115399D01*
X203285111Y-67195901D01*
X203217804Y-67270162D01*
X203143542Y-67337469D01*
X203063041Y-67397173D01*
X202977075Y-67448699D01*
X202886473Y-67491550D01*
X202792107Y-67525315D01*
X202694886Y-67549668D01*
X202595746Y-67564374D01*
X202495642Y-67569292D01*
X202164913Y-67569292D01*
X201425138Y-67569292D01*
X200163075Y-67569292D01*
X199050238Y-67569292D01*
X198739088Y-67569292D01*
X198408358Y-67569292D01*
X198308254Y-67564374D01*
X198209114Y-67549668D01*
X198111893Y-67525315D01*
X198017527Y-67491550D01*
X197926925Y-67448699D01*
X197840959Y-67397173D01*
X197760458Y-67337469D01*
X197686196Y-67270162D01*
X197618889Y-67195901D01*
X197559185Y-67115399D01*
X197526438Y-67060763D01*
X200602813Y-67060763D01*
X200602813Y-67238563D01*
X201425138Y-67238563D01*
X201425138Y-67060763D01*
X200602813Y-67060763D01*
X197526438Y-67060763D01*
X197507660Y-67029434D01*
X197466165Y-66941700D01*
X198739088Y-66941700D01*
X198849860Y-66950519D01*
X198953576Y-66955811D01*
X199050238Y-66957575D01*
X199165508Y-66954488D01*
X199261551Y-66945228D01*
X199338369Y-66929794D01*
X199424689Y-66892289D01*
X199482038Y-66835338D01*
X199514184Y-66754375D01*
X199524900Y-66644838D01*
X199520733Y-66566653D01*
X199508231Y-66506725D01*
X199451081Y-66427350D01*
X199335988Y-66386075D01*
X199335988Y-66376550D01*
X199404448Y-66351547D01*
X199447906Y-66311463D01*
X199471123Y-66249153D01*
X199478863Y-66157475D01*
X199467948Y-66053295D01*
X199435206Y-65975706D01*
X199376667Y-65920739D01*
X199288363Y-65884425D01*
X199209869Y-65869432D01*
X199165720Y-65865375D01*
X199670950Y-65865375D01*
X199670950Y-66046350D01*
X199959875Y-66046350D01*
X199959875Y-66944875D01*
X200163075Y-66944875D01*
X200163075Y-66314638D01*
X201626750Y-66314638D01*
X201912500Y-66138425D01*
X201974413Y-66087625D01*
X201968063Y-66186050D01*
X201968063Y-66944875D01*
X202164913Y-66944875D01*
X202164913Y-65865375D01*
X201968063Y-65865375D01*
X201626750Y-66105088D01*
X201626750Y-66314638D01*
X200163075Y-66314638D01*
X200163075Y-66046350D01*
X200452000Y-66046350D01*
X200452000Y-65865375D01*
X199670950Y-65865375D01*
X199165720Y-65865375D01*
X199111974Y-65860436D01*
X199000510Y-65857587D01*
X198739088Y-65862200D01*
X198739088Y-66941700D01*
X197466165Y-66941700D01*
X197464808Y-66938831D01*
X197431043Y-66844465D01*
X197406691Y-66747244D01*
X197391985Y-66648104D01*
X197387067Y-66548000D01*
X197391985Y-66447896D01*
X197406691Y-66348756D01*
X197431043Y-66251535D01*
X197464808Y-66157169D01*
X197507660Y-66066566D01*
X197559185Y-65980601D01*
X197618889Y-65900099D01*
X197686196Y-65825838D01*
X197760458Y-65758531D01*
X197840959Y-65698827D01*
X197926925Y-65647301D01*
X198017527Y-65604450D01*
X198111893Y-65570685D01*
X198209114Y-65546332D01*
X198308254Y-65531626D01*
X198408358Y-65526708D01*
X198739088Y-65526708D01*
X202164913Y-65526708D01*
X202495642Y-65526708D01*
X202595746Y-65531626D01*
G37*
G36*
X177507850Y-108742778D02*
G01*
X177584844Y-108746350D01*
X177684856Y-108778894D01*
X177711844Y-108876525D01*
X177685650Y-108999556D01*
X177588019Y-109033687D01*
X177383231Y-109033687D01*
X177383231Y-108743175D01*
X177451494Y-108741587D01*
X177507850Y-108742778D01*
G37*
G36*
X170048188Y-108990031D02*
G01*
X170108513Y-109071787D01*
X170122205Y-109141241D01*
X170126769Y-109235300D01*
X170122205Y-109327970D01*
X170108513Y-109396431D01*
X170048188Y-109476600D01*
X169926744Y-109500412D01*
X169805300Y-109476600D01*
X169744975Y-109396431D01*
X169731283Y-109327970D01*
X169726719Y-109235300D01*
X169731283Y-109141241D01*
X169744975Y-109071787D01*
X169805300Y-108990031D01*
X169926744Y-108965425D01*
X170048188Y-108990031D01*
G37*
G36*
X179562869Y-108993206D02*
G01*
X179621606Y-109074963D01*
X179634703Y-109144019D01*
X179639069Y-109236888D01*
X179634703Y-109325589D01*
X179621606Y-109391669D01*
X179562869Y-109469456D01*
X179445394Y-109492475D01*
X179327125Y-109469456D01*
X179267594Y-109391669D01*
X179254497Y-109325589D01*
X179250131Y-109236888D01*
X179254497Y-109144019D01*
X179267594Y-109074963D01*
X179327125Y-108993206D01*
X179445394Y-108968600D01*
X179562869Y-108993206D01*
G37*
G36*
X182149246Y-108170012D02*
G01*
X182254396Y-108185609D01*
X182357511Y-108211438D01*
X182457597Y-108247250D01*
X182553692Y-108292699D01*
X182644869Y-108347349D01*
X182730250Y-108410672D01*
X182809014Y-108482059D01*
X182880401Y-108560823D01*
X182943724Y-108646204D01*
X182998374Y-108737381D01*
X183043823Y-108833476D01*
X183079635Y-108933562D01*
X183105464Y-109036677D01*
X183121061Y-109141827D01*
X183126277Y-109248000D01*
X183121061Y-109354173D01*
X183105464Y-109459323D01*
X183079635Y-109562438D01*
X183043823Y-109662524D01*
X182998374Y-109758619D01*
X182943724Y-109849796D01*
X182880401Y-109935177D01*
X182809014Y-110013941D01*
X182730250Y-110085328D01*
X182644869Y-110148651D01*
X182553692Y-110203301D01*
X182457597Y-110248750D01*
X182357511Y-110284562D01*
X182254396Y-110310391D01*
X182149246Y-110325988D01*
X182043073Y-110331204D01*
X181712344Y-110331204D01*
X181459931Y-110331204D01*
X180775719Y-110331204D01*
X179454919Y-110331204D01*
X178897706Y-110331204D01*
X177973781Y-110331204D01*
X177005406Y-110331204D01*
X175476644Y-110331204D01*
X174717819Y-110331204D01*
X174135206Y-110331204D01*
X172887431Y-110331204D01*
X171834919Y-110331204D01*
X170850669Y-110331204D01*
X169926744Y-110331204D01*
X168952019Y-110331204D01*
X168591656Y-110331204D01*
X168260927Y-110331204D01*
X168154755Y-110325988D01*
X168049605Y-110310391D01*
X167946490Y-110284562D01*
X167846403Y-110248750D01*
X167750308Y-110203301D01*
X167659131Y-110148651D01*
X167573750Y-110085328D01*
X167494986Y-110013941D01*
X167423599Y-109935177D01*
X167360276Y-109849796D01*
X167305626Y-109758619D01*
X167260177Y-109662524D01*
X167224365Y-109562438D01*
X167198536Y-109459323D01*
X167182939Y-109354173D01*
X167182168Y-109338487D01*
X168596419Y-109338487D01*
X168600586Y-109451200D01*
X168622613Y-109535338D01*
X168665078Y-109595266D01*
X168730563Y-109635350D01*
X168824424Y-109657972D01*
X168952019Y-109665513D01*
X169078622Y-109657972D01*
X169172681Y-109635350D01*
X169239158Y-109594869D01*
X169283013Y-109533750D01*
X169307420Y-109447231D01*
X169315556Y-109330550D01*
X169315556Y-109235300D01*
X169533044Y-109235300D01*
X169537013Y-109339810D01*
X169548919Y-109426858D01*
X169568763Y-109496444D01*
X169616586Y-109574628D01*
X169688619Y-109626619D01*
X169790219Y-109655789D01*
X169926744Y-109665513D01*
X170063269Y-109655789D01*
X170164869Y-109626619D01*
X170236902Y-109574628D01*
X170284725Y-109496444D01*
X170304569Y-109426858D01*
X170316475Y-109339810D01*
X170320444Y-109235300D01*
X170316475Y-109129819D01*
X170304569Y-109041978D01*
X170284725Y-108971775D01*
X170237100Y-108892995D01*
X170165663Y-108840806D01*
X170102201Y-108822550D01*
X170464906Y-108822550D01*
X170777644Y-109646463D01*
X170650644Y-109992538D01*
X170850669Y-109992538D01*
X170936312Y-109767113D01*
X176183081Y-109767113D01*
X176183081Y-109944913D01*
X177005406Y-109944913D01*
X177005406Y-109767113D01*
X176183081Y-109767113D01*
X170936312Y-109767113D01*
X171084077Y-109378175D01*
X171455506Y-109378175D01*
X171461459Y-109478188D01*
X171485669Y-109552800D01*
X171531111Y-109605584D01*
X171600763Y-109640113D01*
X171700180Y-109659163D01*
X171834919Y-109665513D01*
X171964499Y-109659956D01*
X172061138Y-109643287D01*
X172129599Y-109613125D01*
X172174644Y-109567088D01*
X172199647Y-109502000D01*
X172207981Y-109414687D01*
X172201036Y-109344044D01*
X172180200Y-109287687D01*
X172087331Y-109205931D01*
X172008750Y-109174777D01*
X171903181Y-109146400D01*
X171782333Y-109116436D01*
X171708713Y-109093219D01*
X171658706Y-109047975D01*
X171695219Y-108982887D01*
X171747209Y-108969791D01*
X171830156Y-108965425D01*
X171909333Y-108970386D01*
X171959538Y-108985269D01*
X171998431Y-109059088D01*
X172188931Y-109059088D01*
X172181516Y-108986062D01*
X172409594Y-108986062D01*
X172614381Y-108986062D01*
X172614381Y-109386113D01*
X172619541Y-109478386D01*
X172635019Y-109548831D01*
X172714394Y-109638525D01*
X172787022Y-109661147D01*
X172887431Y-109668688D01*
X172994191Y-109663528D01*
X173109966Y-109651225D01*
X173403369Y-109651225D01*
X174135206Y-109651225D01*
X174135206Y-109487712D01*
X173876444Y-109487712D01*
X173870094Y-109487712D01*
X173870094Y-109238475D01*
X174317769Y-109238475D01*
X174321738Y-109342103D01*
X174333644Y-109428622D01*
X174353488Y-109498031D01*
X174401708Y-109576017D01*
X174474931Y-109627413D01*
X174578516Y-109655988D01*
X174717819Y-109665513D01*
X174837477Y-109659163D01*
X174926575Y-109640113D01*
X174990075Y-109605981D01*
X175032938Y-109554388D01*
X175058139Y-109481362D01*
X175068656Y-109382937D01*
X174878156Y-109382937D01*
X174831325Y-109474219D01*
X174725756Y-109498825D01*
X174651144Y-109493070D01*
X174595581Y-109475806D01*
X174530494Y-109397225D01*
X174516206Y-109330153D01*
X174511444Y-109240062D01*
X174516206Y-109145805D01*
X174530494Y-109075756D01*
X174594788Y-108993206D01*
X174649755Y-108974752D01*
X174724169Y-108968600D01*
X174832913Y-108996381D01*
X174876569Y-109101950D01*
X175068656Y-109101950D01*
X175058139Y-108997770D01*
X175032938Y-108920181D01*
X174989877Y-108865214D01*
X174925781Y-108828900D01*
X174835691Y-108808659D01*
X174714644Y-108801913D01*
X174576730Y-108811636D01*
X174474138Y-108840806D01*
X174401509Y-108893392D01*
X174353488Y-108973362D01*
X174333644Y-109044447D01*
X174321738Y-109132818D01*
X174317769Y-109238475D01*
X173870094Y-109238475D01*
X173870094Y-108822550D01*
X173419244Y-108822550D01*
X173419244Y-108986062D01*
X173679594Y-108986062D01*
X173679594Y-109487712D01*
X173403369Y-109487712D01*
X173403369Y-109651225D01*
X173109966Y-109651225D01*
X173139844Y-109648050D01*
X173139844Y-109481362D01*
X173025147Y-109495650D01*
X172941406Y-109500412D01*
X172851713Y-109489300D01*
X172813613Y-109454375D01*
X172804881Y-109379763D01*
X172804881Y-108986062D01*
X173114444Y-108986062D01*
X173114444Y-108822550D01*
X172804881Y-108822550D01*
X172804881Y-108576487D01*
X172620731Y-108654275D01*
X172620731Y-108822550D01*
X172447694Y-108822550D01*
X172409594Y-108986062D01*
X172181516Y-108986062D01*
X172179803Y-108969195D01*
X172155594Y-108902719D01*
X172112731Y-108855887D01*
X172047644Y-108824931D01*
X171955569Y-108807667D01*
X171831744Y-108801913D01*
X171704942Y-108807469D01*
X171610288Y-108824137D01*
X171543216Y-108853705D01*
X171499163Y-108897956D01*
X171474755Y-108960861D01*
X171466619Y-109046387D01*
X171495988Y-109166244D01*
X171594413Y-109240856D01*
X171677955Y-109268836D01*
X171790469Y-109294038D01*
X171867859Y-109309912D01*
X171925406Y-109325787D01*
X171992875Y-109363094D01*
X172012719Y-109416275D01*
X171977794Y-109483744D01*
X171928184Y-109497436D01*
X171849206Y-109502000D01*
X171729350Y-109490888D01*
X171669819Y-109453581D01*
X171650769Y-109378175D01*
X171455506Y-109378175D01*
X171084077Y-109378175D01*
X171295169Y-108822550D01*
X171095144Y-108822550D01*
X170884006Y-109432150D01*
X170876069Y-109432150D01*
X170661756Y-108822550D01*
X170464906Y-108822550D01*
X170102201Y-108822550D01*
X170064261Y-108811636D01*
X169926744Y-108801913D01*
X169789227Y-108811636D01*
X169687825Y-108840806D01*
X169616388Y-108892995D01*
X169568763Y-108971775D01*
X169548919Y-109041978D01*
X169537013Y-109129819D01*
X169533044Y-109235300D01*
X169315556Y-109235300D01*
X169315556Y-108571725D01*
X169113944Y-108571725D01*
X169113944Y-109324200D01*
X169098863Y-109424213D01*
X169048063Y-109474219D01*
X168947256Y-109489300D01*
X168829781Y-109456756D01*
X168799619Y-109338487D01*
X168596419Y-109338487D01*
X167182168Y-109338487D01*
X167177723Y-109248000D01*
X167182939Y-109141827D01*
X167198536Y-109036677D01*
X167224365Y-108933562D01*
X167260177Y-108833476D01*
X167305626Y-108737381D01*
X167360276Y-108646204D01*
X167423599Y-108560823D01*
X167482781Y-108495525D01*
X173633556Y-108495525D01*
X173633556Y-108719362D01*
X173876444Y-108719362D01*
X173876444Y-108495525D01*
X175286144Y-108495525D01*
X175286144Y-109651225D01*
X175476644Y-109651225D01*
X175476644Y-109200375D01*
X175849706Y-109651225D01*
X176092594Y-109651225D01*
X177181619Y-109651225D01*
X177383231Y-109651225D01*
X177383231Y-109209900D01*
X177484831Y-109209900D01*
X177568969Y-109216052D01*
X177624531Y-109234506D01*
X177681681Y-109328963D01*
X177756294Y-109651225D01*
X177973781Y-109651225D01*
X178165869Y-109651225D01*
X178897706Y-109651225D01*
X178897706Y-109487712D01*
X178638944Y-109487712D01*
X178632594Y-109487712D01*
X178632594Y-109236888D01*
X179056456Y-109236888D01*
X179064592Y-109381945D01*
X179089000Y-109490094D01*
X179131664Y-109566889D01*
X179194569Y-109617887D01*
X179281881Y-109646462D01*
X179397769Y-109655987D01*
X179512863Y-109645669D01*
X179580331Y-109610744D01*
X179627956Y-109538512D01*
X179640656Y-109538512D01*
X179639069Y-109659163D01*
X179621606Y-109769494D01*
X179566838Y-109825056D01*
X179456506Y-109841725D01*
X179349350Y-109831406D01*
X179299344Y-109795688D01*
X179281881Y-109721075D01*
X179086619Y-109721075D01*
X179097334Y-109818111D01*
X179123131Y-109890144D01*
X179167581Y-109941142D01*
X179234256Y-109975075D01*
X179328316Y-109994125D01*
X179454919Y-110000475D01*
X179585689Y-109993133D01*
X179682725Y-109971106D01*
X179751186Y-109931816D01*
X179796231Y-109872681D01*
X179821234Y-109788742D01*
X179829569Y-109675037D01*
X179829569Y-108822550D01*
X179643831Y-108822550D01*
X179643831Y-108920975D01*
X179631131Y-108920975D01*
X179555725Y-108829694D01*
X179500361Y-108811239D01*
X179421581Y-108805087D01*
X179294780Y-108814811D01*
X179200125Y-108843981D01*
X179133053Y-108896170D01*
X179089000Y-108974950D01*
X179070920Y-109044976D01*
X179060072Y-109132289D01*
X179056456Y-109236888D01*
X178632594Y-109236888D01*
X178632594Y-108822550D01*
X178181744Y-108822550D01*
X178181744Y-108986062D01*
X178442094Y-108986062D01*
X178442094Y-109487712D01*
X178165869Y-109487712D01*
X178165869Y-109651225D01*
X177973781Y-109651225D01*
X177883294Y-109314675D01*
X177856108Y-109234903D01*
X177825350Y-109182913D01*
X177726131Y-109133700D01*
X177726131Y-109119412D01*
X177838844Y-109083694D01*
X177895200Y-109012256D01*
X177911869Y-108884462D01*
X177901749Y-108775719D01*
X177871388Y-108693962D01*
X177817016Y-108635225D01*
X177734863Y-108595537D01*
X177662102Y-108578781D01*
X177571879Y-108568726D01*
X177464194Y-108565375D01*
X177370531Y-108566962D01*
X177181619Y-108573312D01*
X177181619Y-109651225D01*
X176092594Y-109651225D01*
X175692544Y-109192438D01*
X176056081Y-108822550D01*
X175827481Y-108822550D01*
X175476644Y-109186088D01*
X175476644Y-108495525D01*
X178396056Y-108495525D01*
X178396056Y-108719362D01*
X178638944Y-108719362D01*
X178638944Y-108495525D01*
X180035944Y-108495525D01*
X180035944Y-109651225D01*
X180229619Y-109651225D01*
X180229619Y-109219425D01*
X180233984Y-109130922D01*
X180247081Y-109065437D01*
X180306613Y-108989237D01*
X180426469Y-108967013D01*
X180502470Y-108975148D01*
X180549500Y-108999556D01*
X180573908Y-109046189D01*
X180582044Y-109121000D01*
X180582044Y-109651225D01*
X180775719Y-109651225D01*
X180775719Y-109124175D01*
X180768774Y-109011661D01*
X180762389Y-108986062D01*
X180982094Y-108986062D01*
X181186881Y-108986062D01*
X181186881Y-109386113D01*
X181192041Y-109478386D01*
X181207519Y-109548831D01*
X181286894Y-109638525D01*
X181359522Y-109661147D01*
X181459931Y-109668688D01*
X181566691Y-109663528D01*
X181712344Y-109648050D01*
X181712344Y-109481362D01*
X181597647Y-109495650D01*
X181513906Y-109500412D01*
X181424213Y-109489300D01*
X181386113Y-109454375D01*
X181377381Y-109379763D01*
X181377381Y-108986062D01*
X181686944Y-108986062D01*
X181686944Y-108822550D01*
X181377381Y-108822550D01*
X181377381Y-108576487D01*
X181193231Y-108654275D01*
X181193231Y-108822550D01*
X181020194Y-108822550D01*
X180982094Y-108986062D01*
X180762389Y-108986062D01*
X180747938Y-108928119D01*
X180710830Y-108869183D01*
X180655069Y-108830488D01*
X180575694Y-108809056D01*
X180467744Y-108801913D01*
X180389956Y-108809056D01*
X180331219Y-108830488D01*
X180284388Y-108870572D01*
X180242319Y-108933675D01*
X180229619Y-108933675D01*
X180229619Y-108495525D01*
X180035944Y-108495525D01*
X178638944Y-108495525D01*
X178396056Y-108495525D01*
X175476644Y-108495525D01*
X175286144Y-108495525D01*
X173876444Y-108495525D01*
X173633556Y-108495525D01*
X167482781Y-108495525D01*
X167494986Y-108482059D01*
X167573750Y-108410672D01*
X167659131Y-108347349D01*
X167750308Y-108292699D01*
X167846403Y-108247250D01*
X167946490Y-108211438D01*
X168049605Y-108185609D01*
X168154755Y-108170012D01*
X168260927Y-108164796D01*
X168591656Y-108164796D01*
X181712344Y-108164796D01*
X182043073Y-108164796D01*
X182149246Y-108170012D01*
G37*
D11*
X144272000Y-32983000D02*
X145542000Y-32983000D01*
X144272000Y-38063000D02*
X144272000Y-32983000D01*
X145542000Y-32983000D02*
X145542000Y-35523000D01*
X145542000Y-35523000D02*
X148082000Y-35523000D01*
X148082000Y-34253000D02*
X149352000Y-34253000D01*
X148082000Y-35523000D02*
X148082000Y-34253000D01*
X149352000Y-34253000D02*
X149352000Y-36793000D01*
X149352000Y-36793000D02*
X151892000Y-36793000D01*
X151892000Y-32983000D02*
X154432000Y-32983000D01*
X151892000Y-36793000D02*
X151892000Y-32983000D01*
X154432000Y-32983000D02*
X154432000Y-40603000D01*
X143002000Y-58383000D02*
X155702000Y-58383000D01*
X155702000Y-31713000D01*
X143002000Y-31713000D01*
X143002000Y-58383000D01*
D15*
X167977000Y-52648000D02*
G75*
G02*
X163577000Y-52648000I-2200000J0D01*
G01*
X163577000Y-52648000D02*
G75*
G02*
X167977000Y-52648000I2200000J0D01*
G01*
D16*
X156670000Y-55856000D02*
X160830000Y-55856000D01*
X156670000Y-55896000D02*
X160830000Y-55896000D01*
X156671000Y-55816000D02*
X160829000Y-55816000D01*
X156673000Y-55776000D02*
X160827000Y-55776000D01*
X156676000Y-55736000D02*
X160824000Y-55736000D01*
X156679000Y-55696000D02*
X157910000Y-55696000D01*
X156683000Y-55656000D02*
X157910000Y-55656000D01*
X156688000Y-55616000D02*
X157910000Y-55616000D01*
X156694000Y-55576000D02*
X157910000Y-55576000D01*
X156700000Y-55536000D02*
X157910000Y-55536000D01*
X156708000Y-55496000D02*
X157910000Y-55496000D01*
X156716000Y-55456000D02*
X157910000Y-55456000D01*
X156725000Y-55416000D02*
X157910000Y-55416000D01*
X156734000Y-55376000D02*
X157910000Y-55376000D01*
X156745000Y-55336000D02*
X157910000Y-55336000D01*
X156756000Y-55296000D02*
X157910000Y-55296000D01*
X156768000Y-55256000D02*
X157910000Y-55256000D01*
X156782000Y-55216000D02*
X157910000Y-55216000D01*
X156796000Y-55175000D02*
X157910000Y-55175000D01*
X156810000Y-55135000D02*
X157910000Y-55135000D01*
X156826000Y-55095000D02*
X157910000Y-55095000D01*
X156843000Y-55055000D02*
X157910000Y-55055000D01*
X156861000Y-55015000D02*
X157910000Y-55015000D01*
X156880000Y-54975000D02*
X157910000Y-54975000D01*
X156899000Y-54935000D02*
X157910000Y-54935000D01*
X156920000Y-54895000D02*
X157910000Y-54895000D01*
X156942000Y-54855000D02*
X157910000Y-54855000D01*
X156965000Y-54815000D02*
X157910000Y-54815000D01*
X156990000Y-54775000D02*
X157910000Y-54775000D01*
X157015000Y-54735000D02*
X157910000Y-54735000D01*
X157042000Y-54695000D02*
X157910000Y-54695000D01*
X157070000Y-54655000D02*
X157910000Y-54655000D01*
X157100000Y-54615000D02*
X157910000Y-54615000D01*
X157131000Y-54575000D02*
X157910000Y-54575000D01*
X157163000Y-54535000D02*
X157910000Y-54535000D01*
X157198000Y-54495000D02*
X157910000Y-54495000D01*
X157234000Y-54455000D02*
X157910000Y-54455000D01*
X157272000Y-54415000D02*
X157910000Y-54415000D01*
X157312000Y-54375000D02*
X157910000Y-54375000D01*
X157354000Y-54335000D02*
X157910000Y-54335000D01*
X157355000Y-57965801D02*
X157755000Y-57965801D01*
X157399000Y-54295000D02*
X157910000Y-54295000D01*
X157446000Y-54255000D02*
X157910000Y-54255000D01*
X157496000Y-54215000D02*
X157910000Y-54215000D01*
X157550000Y-54175000D02*
X157910000Y-54175000D01*
X157555000Y-58165801D02*
X157555000Y-57765801D01*
X157608000Y-54135000D02*
X157910000Y-54135000D01*
X157670000Y-54095000D02*
X157910000Y-54095000D01*
X157737000Y-54055000D02*
X159763000Y-54055000D01*
X157810000Y-54015000D02*
X159690000Y-54015000D01*
X157891000Y-53975000D02*
X159609000Y-53975000D01*
X157982000Y-53935000D02*
X159518000Y-53935000D01*
X158086000Y-53895000D02*
X159414000Y-53895000D01*
X158213000Y-53855000D02*
X159287000Y-53855000D01*
X158380000Y-53815000D02*
X159120000Y-53815000D01*
X159590000Y-54095000D02*
X159830000Y-54095000D01*
X159590000Y-54135000D02*
X159892000Y-54135000D01*
X159590000Y-54175000D02*
X159950000Y-54175000D01*
X159590000Y-54215000D02*
X160004000Y-54215000D01*
X159590000Y-54255000D02*
X160054000Y-54255000D01*
X159590000Y-54295000D02*
X160101000Y-54295000D01*
X159590000Y-54335000D02*
X160146000Y-54335000D01*
X159590000Y-54375000D02*
X160188000Y-54375000D01*
X159590000Y-54415000D02*
X160228000Y-54415000D01*
X159590000Y-54455000D02*
X160266000Y-54455000D01*
X159590000Y-54495000D02*
X160302000Y-54495000D01*
X159590000Y-54535000D02*
X160337000Y-54535000D01*
X159590000Y-54575000D02*
X160369000Y-54575000D01*
X159590000Y-54615000D02*
X160400000Y-54615000D01*
X159590000Y-54655000D02*
X160430000Y-54655000D01*
X159590000Y-54695000D02*
X160458000Y-54695000D01*
X159590000Y-54735000D02*
X160485000Y-54735000D01*
X159590000Y-54775000D02*
X160510000Y-54775000D01*
X159590000Y-54815000D02*
X160535000Y-54815000D01*
X159590000Y-54855000D02*
X160558000Y-54855000D01*
X159590000Y-54895000D02*
X160580000Y-54895000D01*
X159590000Y-54935000D02*
X160601000Y-54935000D01*
X159590000Y-54975000D02*
X160620000Y-54975000D01*
X159590000Y-55015000D02*
X160639000Y-55015000D01*
X159590000Y-55055000D02*
X160657000Y-55055000D01*
X159590000Y-55095000D02*
X160674000Y-55095000D01*
X159590000Y-55135000D02*
X160690000Y-55135000D01*
X159590000Y-55175000D02*
X160704000Y-55175000D01*
X159590000Y-55216000D02*
X160718000Y-55216000D01*
X159590000Y-55256000D02*
X160732000Y-55256000D01*
X159590000Y-55296000D02*
X160744000Y-55296000D01*
X159590000Y-55336000D02*
X160755000Y-55336000D01*
X159590000Y-55376000D02*
X160766000Y-55376000D01*
X159590000Y-55416000D02*
X160775000Y-55416000D01*
X159590000Y-55456000D02*
X160784000Y-55456000D01*
X159590000Y-55496000D02*
X160792000Y-55496000D01*
X159590000Y-55536000D02*
X160800000Y-55536000D01*
X159590000Y-55576000D02*
X160806000Y-55576000D01*
X159590000Y-55616000D02*
X160812000Y-55616000D01*
X159590000Y-55656000D02*
X160817000Y-55656000D01*
X159590000Y-55696000D02*
X160821000Y-55696000D01*
X160870000Y-55896000D02*
G75*
G02*
X156630000Y-55896000I-2120000J0D01*
G01*
X156630000Y-55896000D02*
G75*
G02*
X160870000Y-55896000I2120000J0D01*
G01*
X103420000Y-123470000D02*
X103420000Y-114230000D01*
X103420000Y-114230000D02*
X99980000Y-114230000D01*
X101700000Y-124160000D02*
X101700000Y-123470000D01*
X101700000Y-113540000D02*
X101700000Y-114230000D01*
X99980000Y-123470000D02*
X103420000Y-123470000D01*
X99980000Y-114230000D02*
X99980000Y-123470000D01*
X203762000Y-78560000D02*
X203762000Y-84000000D01*
X203762000Y-82980000D02*
X206702000Y-82980000D01*
X203762000Y-83100000D02*
X206702000Y-83100000D01*
X203762000Y-83220000D02*
X206702000Y-83220000D01*
X203762000Y-84000000D02*
X206702000Y-84000000D01*
X205232000Y-77540000D02*
X205232000Y-78560000D01*
X205232000Y-85020000D02*
X205232000Y-84000000D01*
X206702000Y-78560000D02*
X203762000Y-78560000D01*
X206702000Y-84000000D02*
X206702000Y-78560000D01*
D12*
G36*
X199053413Y-94991238D02*
G01*
X199129414Y-95004334D01*
X199176444Y-95027750D01*
X199208988Y-95127763D01*
X199184381Y-95226981D01*
X199091513Y-95256350D01*
X198869263Y-95256350D01*
X198869263Y-94986475D01*
X198921650Y-94986475D01*
X199053413Y-94991238D01*
G37*
G36*
X199173269Y-95444469D02*
G01*
X199233594Y-95491300D01*
X199251850Y-95586550D01*
X199229625Y-95679419D01*
X199155806Y-95725456D01*
X199092902Y-95735577D01*
X199007375Y-95738950D01*
X198941097Y-95738156D01*
X198869263Y-95735775D01*
X198869263Y-95430975D01*
X199051825Y-95430975D01*
X199173269Y-95444469D01*
G37*
G36*
X202665596Y-94487626D02*
G01*
X202764736Y-94502332D01*
X202861957Y-94526685D01*
X202956323Y-94560450D01*
X203046925Y-94603301D01*
X203132891Y-94654827D01*
X203213392Y-94714531D01*
X203287654Y-94781838D01*
X203354961Y-94856099D01*
X203414665Y-94936601D01*
X203466190Y-95022566D01*
X203509042Y-95113169D01*
X203542807Y-95207535D01*
X203567159Y-95304756D01*
X203581865Y-95403896D01*
X203586783Y-95504000D01*
X203581865Y-95604104D01*
X203567159Y-95703244D01*
X203542807Y-95800465D01*
X203509042Y-95894831D01*
X203466190Y-95985434D01*
X203414665Y-96071399D01*
X203354961Y-96151901D01*
X203287654Y-96226162D01*
X203213392Y-96293469D01*
X203132891Y-96353173D01*
X203046925Y-96404699D01*
X202956323Y-96447550D01*
X202861957Y-96481315D01*
X202764736Y-96505668D01*
X202665596Y-96520374D01*
X202565492Y-96525292D01*
X202234763Y-96525292D01*
X201814075Y-96525292D01*
X201355288Y-96525292D01*
X200093225Y-96525292D01*
X198980388Y-96525292D01*
X198669238Y-96525292D01*
X198338508Y-96525292D01*
X198238404Y-96520374D01*
X198139264Y-96505668D01*
X198042043Y-96481315D01*
X197947677Y-96447550D01*
X197857075Y-96404699D01*
X197771109Y-96353173D01*
X197690608Y-96293469D01*
X197616346Y-96226162D01*
X197549039Y-96151901D01*
X197489335Y-96071399D01*
X197456588Y-96016763D01*
X200532963Y-96016763D01*
X200532963Y-96194563D01*
X201355288Y-96194563D01*
X201355288Y-96016763D01*
X200532963Y-96016763D01*
X197456588Y-96016763D01*
X197437810Y-95985434D01*
X197396315Y-95897700D01*
X198669238Y-95897700D01*
X198780010Y-95906519D01*
X198883726Y-95911811D01*
X198980388Y-95913575D01*
X199095658Y-95910488D01*
X199191701Y-95901228D01*
X199268519Y-95885794D01*
X199354839Y-95848289D01*
X199412188Y-95791338D01*
X199444334Y-95710375D01*
X199455050Y-95600838D01*
X199450883Y-95522653D01*
X199438381Y-95462725D01*
X199381231Y-95383350D01*
X199266138Y-95342075D01*
X199266138Y-95332550D01*
X199334598Y-95307547D01*
X199378056Y-95267463D01*
X199401273Y-95205153D01*
X199409013Y-95113475D01*
X199398098Y-95009295D01*
X199365356Y-94931706D01*
X199306817Y-94876739D01*
X199218513Y-94840425D01*
X199140019Y-94825432D01*
X199095870Y-94821375D01*
X199601100Y-94821375D01*
X199601100Y-95002350D01*
X199890025Y-95002350D01*
X199890025Y-95900875D01*
X200093225Y-95900875D01*
X200093225Y-95850075D01*
X201507688Y-95850075D01*
X201581705Y-95881031D01*
X201651356Y-95900875D01*
X201725770Y-95911591D01*
X201814075Y-95915163D01*
X201955759Y-95906431D01*
X202063313Y-95880238D01*
X202141298Y-95834597D01*
X202194281Y-95767525D01*
X202224642Y-95675053D01*
X202234763Y-95553213D01*
X202228809Y-95449033D01*
X202210950Y-95368269D01*
X202179795Y-95308539D01*
X202133956Y-95267463D01*
X202071448Y-95243650D01*
X201990288Y-95235713D01*
X201926788Y-95238888D01*
X201926788Y-95230950D01*
X202193488Y-95005525D01*
X202193488Y-94821375D01*
X201529913Y-94821375D01*
X201529913Y-94989650D01*
X201952188Y-94989650D01*
X201685488Y-95226188D01*
X201685488Y-95413513D01*
X201781531Y-95399225D01*
X201860113Y-95394463D01*
X201941869Y-95403988D01*
X201996638Y-95432563D01*
X202027594Y-95481775D01*
X202037913Y-95553213D01*
X202025411Y-95643502D01*
X201987906Y-95701644D01*
X201919048Y-95733195D01*
X201812488Y-95743713D01*
X201740852Y-95738553D01*
X201671994Y-95723075D01*
X201597183Y-95694897D01*
X201507688Y-95651638D01*
X201507688Y-95850075D01*
X200093225Y-95850075D01*
X200093225Y-95002350D01*
X200382150Y-95002350D01*
X200382150Y-94821375D01*
X199601100Y-94821375D01*
X199095870Y-94821375D01*
X199042124Y-94816436D01*
X198930660Y-94813587D01*
X198669238Y-94818200D01*
X198669238Y-95897700D01*
X197396315Y-95897700D01*
X197394958Y-95894831D01*
X197361193Y-95800465D01*
X197336841Y-95703244D01*
X197322135Y-95604104D01*
X197317217Y-95504000D01*
X197322135Y-95403896D01*
X197336841Y-95304756D01*
X197361193Y-95207535D01*
X197394958Y-95113169D01*
X197437810Y-95022566D01*
X197489335Y-94936601D01*
X197549039Y-94856099D01*
X197616346Y-94781838D01*
X197690608Y-94714531D01*
X197771109Y-94654827D01*
X197857075Y-94603301D01*
X197947677Y-94560450D01*
X198042043Y-94526685D01*
X198139264Y-94502332D01*
X198238404Y-94487626D01*
X198338508Y-94482708D01*
X198669238Y-94482708D01*
X202234763Y-94482708D01*
X202565492Y-94482708D01*
X202665596Y-94487626D01*
G37*
D16*
X194312000Y-89354000D02*
X206612000Y-89354000D01*
X194312000Y-92074000D02*
X194312000Y-89354000D01*
X194312000Y-97074000D02*
X194312000Y-93934000D01*
X194312000Y-101654000D02*
X194312000Y-98934000D01*
X206612000Y-89354000D02*
X206612000Y-92074000D01*
X206612000Y-93934000D02*
X206612000Y-97074000D01*
X206612000Y-98934000D02*
X206612000Y-101654000D01*
X206612000Y-101654000D02*
X194312000Y-101654000D01*
X205141050Y-95544000D02*
G75*
G02*
X195982950Y-95544000I-4579050J0D01*
G01*
X195982950Y-95544000D02*
G75*
G02*
X205141050Y-95544000I4579050J0D01*
G01*
D12*
G36*
X211798000Y-129464660D02*
G01*
X211798000Y-129809587D01*
X211480500Y-129783222D01*
X211270884Y-129752250D01*
X211175794Y-129670059D01*
X211140467Y-129481701D01*
X211136723Y-129438294D01*
X211110445Y-129119732D01*
X211454223Y-129119732D01*
X211798000Y-129119732D01*
X211798000Y-129464660D01*
G37*
G36*
X208172343Y-105178399D02*
G01*
X208280767Y-105209622D01*
X208343446Y-105291591D01*
X208376401Y-105465024D01*
X208394346Y-105742669D01*
X208419692Y-106278983D01*
X208098013Y-106252368D01*
X207776334Y-106225752D01*
X207750911Y-105736263D01*
X207747444Y-105435268D01*
X207780669Y-105266823D01*
X207850587Y-105198609D01*
X208032803Y-105171225D01*
X208172343Y-105178399D01*
G37*
G36*
X209427334Y-105801003D02*
G01*
X209427334Y-107032776D01*
X209140059Y-107032776D01*
X208900499Y-106992077D01*
X208801392Y-106898403D01*
X208779315Y-106758846D01*
X208763642Y-106499023D01*
X208754285Y-106158689D01*
X208751154Y-105777597D01*
X208754162Y-105395503D01*
X208763220Y-105052159D01*
X208778240Y-104787322D01*
X208799134Y-104640745D01*
X208806445Y-104625864D01*
X208922637Y-104586991D01*
X209128348Y-104569329D01*
X209145112Y-104569231D01*
X209427334Y-104569231D01*
X209427334Y-105801003D01*
G37*
G36*
X214846000Y-113780167D02*
G01*
X214846000Y-114156321D01*
X213568327Y-114183679D01*
X213051802Y-114193597D01*
X212659963Y-114212235D01*
X212375650Y-114260474D01*
X212181706Y-114359193D01*
X212060970Y-114529270D01*
X211996286Y-114791585D01*
X211970493Y-115167018D01*
X211966433Y-115676449D01*
X211967334Y-116131819D01*
X211967334Y-117651505D01*
X211544000Y-117651505D01*
X211120667Y-117651505D01*
X211129334Y-116186120D01*
X211135924Y-115683235D01*
X211148664Y-115221241D01*
X211166089Y-114834775D01*
X211186735Y-114558476D01*
X211202873Y-114446777D01*
X211389090Y-113996488D01*
X211705779Y-113650883D01*
X211823767Y-113570175D01*
X211943984Y-113507320D01*
X212086043Y-113462499D01*
X212279344Y-113432752D01*
X212553289Y-113415116D01*
X212937277Y-113406630D01*
X213460708Y-113404333D01*
X213470167Y-113404331D01*
X214846000Y-113404013D01*
X214846000Y-113780167D01*
G37*
G36*
X213930201Y-129534045D02*
G01*
X213935539Y-129719198D01*
X213930899Y-129781228D01*
X213914518Y-129909817D01*
X213877623Y-130012421D01*
X213796428Y-130107818D01*
X213647148Y-130214786D01*
X213405997Y-130352105D01*
X213049190Y-130538552D01*
X212827995Y-130651964D01*
X212335188Y-130908545D01*
X211991411Y-131110583D01*
X211797034Y-131277753D01*
X211752424Y-131429727D01*
X211857950Y-131586180D01*
X212113980Y-131766786D01*
X212520884Y-131991217D01*
X212856334Y-132164722D01*
X213957000Y-132730100D01*
X213927752Y-133027425D01*
X213901828Y-133232145D01*
X213876443Y-133345938D01*
X213873276Y-133351090D01*
X213783000Y-133333886D01*
X213576442Y-133246461D01*
X213283217Y-133104837D01*
X212932936Y-132925040D01*
X212555212Y-132723094D01*
X212179657Y-132515024D01*
X211835884Y-132316854D01*
X211553505Y-132144609D01*
X211362132Y-132014314D01*
X211299408Y-131958257D01*
X211163957Y-131674221D01*
X211123570Y-131335481D01*
X211180115Y-131014257D01*
X211270716Y-130847827D01*
X211381714Y-130762507D01*
X211611235Y-130620843D01*
X211927485Y-130439658D01*
X212298669Y-130235774D01*
X212692990Y-130026014D01*
X213078654Y-129827201D01*
X213423865Y-129656157D01*
X213696828Y-129529707D01*
X213865747Y-129464672D01*
X213894609Y-129459532D01*
X213930201Y-129534045D01*
G37*
G36*
X212535059Y-133641257D02*
G01*
X213949450Y-133664548D01*
X213927842Y-134131772D01*
X213879873Y-134491964D01*
X213782503Y-134766884D01*
X213754671Y-134811371D01*
X213631203Y-134943048D01*
X213403433Y-135149357D01*
X213102650Y-135403160D01*
X212760146Y-135677317D01*
X212722214Y-135706818D01*
X212294842Y-136042895D01*
X212005164Y-136291199D01*
X211854728Y-136464983D01*
X211845084Y-136577501D01*
X211977782Y-136642009D01*
X212254372Y-136671759D01*
X212676401Y-136680005D01*
X212836015Y-136680267D01*
X213240166Y-136683465D01*
X213579249Y-136692188D01*
X213819353Y-136705133D01*
X213926567Y-136720997D01*
X213928296Y-136722259D01*
X213946889Y-136827335D01*
X213932798Y-137019583D01*
X213895448Y-137274916D01*
X212497573Y-137274916D01*
X211099699Y-137274916D01*
X211137669Y-136815517D01*
X211186382Y-136508592D01*
X211268199Y-136238449D01*
X211319399Y-136135978D01*
X211441168Y-135998261D01*
X211665721Y-135787055D01*
X211960795Y-135531371D01*
X212286747Y-135266045D01*
X212698432Y-134936978D01*
X212990571Y-134691911D01*
X213180325Y-134514585D01*
X213284859Y-134388744D01*
X213321333Y-134298131D01*
X213322000Y-134285436D01*
X213242581Y-134259875D01*
X213025278Y-134238625D01*
X212701526Y-134223650D01*
X212302757Y-134216910D01*
X212221334Y-134216722D01*
X211120667Y-134216722D01*
X211120667Y-133917344D01*
X211120667Y-133617965D01*
X212535059Y-133641257D01*
G37*
G36*
X219486139Y-125955351D02*
G01*
X219460334Y-126358863D01*
X218719500Y-126383408D01*
X217978667Y-126407952D01*
X217978667Y-126993764D01*
X217990195Y-127325742D01*
X218020296Y-127616639D01*
X218058923Y-127791370D01*
X218156443Y-127933433D01*
X218354999Y-128146671D01*
X218622034Y-128397855D01*
X218820923Y-128569071D01*
X219502667Y-129134978D01*
X219502667Y-129637054D01*
X219494635Y-129903629D01*
X219473785Y-130085695D01*
X219450383Y-130139130D01*
X219366535Y-130085591D01*
X219188718Y-129942610D01*
X218946785Y-129736645D01*
X218670583Y-129494154D01*
X218389964Y-129241594D01*
X218134777Y-129005423D01*
X217934872Y-128812098D01*
X217838803Y-128710704D01*
X217656605Y-128500712D01*
X217542469Y-128686870D01*
X217446640Y-128794933D01*
X217255678Y-128977037D01*
X216999159Y-129207965D01*
X216706659Y-129462502D01*
X216407754Y-129715433D01*
X216132019Y-129941541D01*
X215909030Y-130115612D01*
X215768364Y-130212429D01*
X215739450Y-130224080D01*
X215714642Y-130146932D01*
X215697679Y-129946619D01*
X215692667Y-129720548D01*
X215692667Y-129217016D01*
X216390058Y-128677113D01*
X216694772Y-128429166D01*
X216954717Y-128195477D01*
X217135130Y-128008490D01*
X217193143Y-127927634D01*
X217244856Y-127741640D01*
X217282905Y-127446174D01*
X217299833Y-127101549D01*
X217300086Y-127062887D01*
X217301334Y-126407713D01*
X216518167Y-126383288D01*
X215735000Y-126358863D01*
X215709195Y-125955351D01*
X215683389Y-125551839D01*
X217597667Y-125551839D01*
X219511945Y-125551839D01*
X219486139Y-125955351D01*
G37*
G36*
X217981943Y-130334920D02*
G01*
X218517839Y-130457854D01*
X218938755Y-130696001D01*
X219238615Y-131045942D01*
X219409840Y-131497153D01*
X219440040Y-131724101D01*
X219466132Y-132083743D01*
X219486393Y-132538888D01*
X219499097Y-133052345D01*
X219502667Y-133498830D01*
X219502667Y-135066221D01*
X219079334Y-135066221D01*
X218656000Y-135066221D01*
X218656000Y-133320888D01*
X218655539Y-132734736D01*
X218652434Y-132294244D01*
X218644108Y-131975173D01*
X218627983Y-131753281D01*
X218601481Y-131604331D01*
X218562023Y-131504082D01*
X218507031Y-131428294D01*
X218448182Y-131367042D01*
X218307714Y-131232586D01*
X218198584Y-131155388D01*
X218116535Y-131150450D01*
X218057313Y-131232776D01*
X218016659Y-131417370D01*
X217990319Y-131719234D01*
X217974036Y-132153373D01*
X217963553Y-132734790D01*
X217959090Y-133091137D01*
X217936334Y-135023746D01*
X217597667Y-135023746D01*
X217259000Y-135023746D01*
X217236244Y-133091137D01*
X217227078Y-132429206D01*
X217214272Y-131922170D01*
X217193569Y-131555026D01*
X217160714Y-131312770D01*
X217111451Y-131180398D01*
X217041523Y-131142908D01*
X216946674Y-131185295D01*
X216822647Y-131292557D01*
X216747152Y-131367042D01*
X216677414Y-131440893D01*
X216625335Y-131519220D01*
X216588337Y-131626264D01*
X216563843Y-131786263D01*
X216549274Y-132023458D01*
X216542051Y-132362087D01*
X216539597Y-132826391D01*
X216539334Y-133320888D01*
X216539334Y-135066221D01*
X216116000Y-135066221D01*
X215692667Y-135066221D01*
X215702404Y-133473411D01*
X215708656Y-132947817D01*
X215720075Y-132461048D01*
X215735442Y-132046517D01*
X215753539Y-131737637D01*
X215771608Y-131575215D01*
X215932875Y-131097677D01*
X216210834Y-130737563D01*
X216610815Y-130490634D01*
X217138149Y-130352654D01*
X217337141Y-130330618D01*
X217981943Y-130334920D01*
G37*
G36*
X211253748Y-117942930D02*
G01*
X211468029Y-118045135D01*
X211787396Y-118201691D01*
X212188898Y-118401315D01*
X212649582Y-118632729D01*
X212797338Y-118707395D01*
X212814000Y-118715948D01*
X213418358Y-119026173D01*
X213902769Y-119288692D01*
X214267912Y-119509452D01*
X214531125Y-119702955D01*
X214709748Y-119883702D01*
X214821121Y-120066196D01*
X214882583Y-120264937D01*
X214909921Y-120474207D01*
X214919594Y-120721486D01*
X214894578Y-120931663D01*
X214818835Y-121119919D01*
X214676325Y-121301431D01*
X214451009Y-121491378D01*
X214126849Y-121704938D01*
X213687806Y-121957290D01*
X213117840Y-122263613D01*
X212895410Y-122380638D01*
X212411933Y-122633064D01*
X211978718Y-122857031D01*
X211618267Y-123041089D01*
X211353081Y-123173785D01*
X211205662Y-123243669D01*
X211184167Y-123251546D01*
X211148024Y-123179137D01*
X211125025Y-122986636D01*
X211120667Y-122832522D01*
X211120667Y-122406850D01*
X211586334Y-122177701D01*
X212052000Y-121948553D01*
X212051704Y-120585815D01*
X212051489Y-119596750D01*
X212814000Y-119596750D01*
X212814000Y-120535499D01*
X212819357Y-120911589D01*
X212833886Y-121215390D01*
X212855276Y-121412825D01*
X212877500Y-121471562D01*
X212977487Y-121432928D01*
X213185764Y-121332873D01*
X213461820Y-121191066D01*
X213533667Y-121153000D01*
X213836900Y-120983856D01*
X214018894Y-120855497D01*
X214112130Y-120737446D01*
X214149091Y-120599226D01*
X214151987Y-120572845D01*
X214155311Y-120443046D01*
X214117075Y-120341345D01*
X214009409Y-120241404D01*
X213804445Y-120116881D01*
X213495820Y-119952658D01*
X212814000Y-119596750D01*
X212051489Y-119596750D01*
X212051408Y-119223077D01*
X211586038Y-118971207D01*
X211332188Y-118828639D01*
X211193027Y-118717711D01*
X211134079Y-118589648D01*
X211120867Y-118395676D01*
X211120667Y-118312846D01*
X211129454Y-118076531D01*
X211151824Y-117929926D01*
X211167505Y-117906354D01*
X211253748Y-117942930D01*
G37*
G36*
X219502667Y-113852335D02*
G01*
X219475222Y-114181847D01*
X219402384Y-114434724D01*
X219372930Y-114486503D01*
X219262008Y-114606095D01*
X219046575Y-114806793D01*
X218754469Y-115063725D01*
X218413527Y-115352013D01*
X218293430Y-115451114D01*
X217958448Y-115729021D01*
X217677825Y-115968022D01*
X217474227Y-116148321D01*
X217370321Y-116250123D01*
X217361856Y-116264701D01*
X217429993Y-116328108D01*
X217605989Y-116480128D01*
X217867007Y-116701345D01*
X218190210Y-116972346D01*
X218386204Y-117135582D01*
X218738944Y-117434837D01*
X219045078Y-117706164D01*
X219280340Y-117927150D01*
X219420464Y-118075382D01*
X219447515Y-118115845D01*
X219480291Y-118283877D01*
X219500048Y-118544026D01*
X219502667Y-118677851D01*
X219502667Y-119095652D01*
X217597667Y-119095652D01*
X215692667Y-119095652D01*
X215692667Y-118715384D01*
X215692667Y-118335116D01*
X217138169Y-118311872D01*
X218583672Y-118288629D01*
X217519169Y-117411679D01*
X217119839Y-117079994D01*
X216834400Y-116833420D01*
X216644040Y-116651531D01*
X216529950Y-116513900D01*
X216473320Y-116400101D01*
X216455338Y-116289706D01*
X216454667Y-116255706D01*
X216465867Y-116156743D01*
X216508620Y-116050942D01*
X216596653Y-115924936D01*
X216743696Y-115765360D01*
X216963475Y-115558849D01*
X217269720Y-115292037D01*
X217676159Y-114951560D01*
X218196519Y-114524051D01*
X218423960Y-114338461D01*
X218466734Y-114291785D01*
X218449465Y-114258020D01*
X218351837Y-114235123D01*
X218153537Y-114221049D01*
X217834251Y-114213753D01*
X217373667Y-114211193D01*
X217157652Y-114211037D01*
X215735000Y-114211037D01*
X215709850Y-113868155D01*
X215707663Y-113637387D01*
X215733171Y-113484617D01*
X215745128Y-113464644D01*
X215844003Y-113446906D01*
X216086881Y-113431215D01*
X216448435Y-113418377D01*
X216903339Y-113409194D01*
X217426266Y-113404473D01*
X217654112Y-113404013D01*
X219502667Y-113404013D01*
X219502667Y-113852335D01*
G37*
G36*
X217527456Y-135848356D02*
G01*
X217684522Y-135850225D01*
X218740667Y-135863915D01*
X219460334Y-135873244D01*
X219460334Y-137784615D01*
X219458826Y-138419691D01*
X219453253Y-138908278D01*
X219442045Y-139273769D01*
X219423629Y-139539555D01*
X219396434Y-139729030D01*
X219358887Y-139865585D01*
X219313859Y-139964573D01*
X219053838Y-140317498D01*
X218729748Y-140520251D01*
X218317094Y-140587854D01*
X218297449Y-140587960D01*
X218016204Y-140570542D01*
X217817815Y-140495166D01*
X217617400Y-140327148D01*
X217588224Y-140298150D01*
X217299380Y-140008340D01*
X217052870Y-140255675D01*
X216900500Y-140391091D01*
X216747162Y-140465624D01*
X216534933Y-140497006D01*
X216244874Y-140503010D01*
X215683389Y-140503010D01*
X215709195Y-140099498D01*
X215735000Y-139695986D01*
X216219953Y-139670566D01*
X216475368Y-139649865D01*
X216664379Y-139603218D01*
X216796960Y-139507901D01*
X216883083Y-139341189D01*
X216932720Y-139080357D01*
X216955843Y-138702681D01*
X216962425Y-138185435D01*
X216962667Y-137978088D01*
X216962667Y-136680267D01*
X217625431Y-136680267D01*
X217653883Y-138069091D01*
X217670129Y-138645283D01*
X217693056Y-139069895D01*
X217724391Y-139361175D01*
X217765860Y-139537370D01*
X217798534Y-139598188D01*
X217987017Y-139709262D01*
X218243524Y-139730432D01*
X218492413Y-139661730D01*
X218585834Y-139597870D01*
X218643981Y-139529055D01*
X218685604Y-139427133D01*
X218713392Y-139265546D01*
X218730033Y-139017732D01*
X218738218Y-138657133D01*
X218740636Y-138157188D01*
X218740667Y-138068773D01*
X218740667Y-136680267D01*
X218183049Y-136680267D01*
X217625431Y-136680267D01*
X216962667Y-136680267D01*
X216327667Y-136680267D01*
X215692667Y-136680267D01*
X215692667Y-136295327D01*
X215715992Y-136030182D01*
X215779257Y-135882802D01*
X215800688Y-135868796D01*
X215914597Y-135857416D01*
X216171019Y-135849418D01*
X216543163Y-135845066D01*
X217004240Y-135844624D01*
X217527456Y-135848356D01*
G37*
G36*
X215899132Y-119730263D02*
G01*
X216130773Y-119835360D01*
X216465031Y-119996071D01*
X216878153Y-120200904D01*
X217346384Y-120438367D01*
X217477090Y-120505559D01*
X217511428Y-120523211D01*
X218117382Y-120840144D01*
X218587228Y-121100024D01*
X218938011Y-121318264D01*
X219186781Y-121510280D01*
X219350584Y-121691487D01*
X219446467Y-121877299D01*
X219491479Y-122083132D01*
X219502667Y-122323746D01*
X219491346Y-122566446D01*
X219446010Y-122773424D01*
X219349599Y-122960116D01*
X219185053Y-123141957D01*
X218935312Y-123334385D01*
X218583315Y-123552836D01*
X218112003Y-123812746D01*
X217510323Y-124126463D01*
X217028947Y-124371530D01*
X216594766Y-124587920D01*
X216231571Y-124764154D01*
X215963148Y-124888753D01*
X215813286Y-124950239D01*
X215793862Y-124954724D01*
X215725004Y-124898975D01*
X215703273Y-124712516D01*
X215709195Y-124553679D01*
X215731992Y-124323963D01*
X215788860Y-124176978D01*
X215917852Y-124060740D01*
X216157016Y-123923266D01*
X216179500Y-123911163D01*
X216624000Y-123672160D01*
X216624000Y-122323746D01*
X216624000Y-122167784D01*
X217385653Y-122167784D01*
X217386000Y-122314657D01*
X217390294Y-122692127D01*
X217401944Y-122997722D01*
X217419100Y-123197320D01*
X217437119Y-123258194D01*
X217531230Y-123221293D01*
X217734740Y-123123479D01*
X218007793Y-122984083D01*
X218075784Y-122948415D01*
X218476029Y-122715832D01*
X218715383Y-122515124D01*
X218795531Y-122330645D01*
X218718155Y-122146745D01*
X218484939Y-121947778D01*
X218201992Y-121775449D01*
X217849329Y-121576690D01*
X217615823Y-121462104D01*
X217477090Y-121447805D01*
X217408741Y-121549910D01*
X217386391Y-121784531D01*
X217385653Y-122167784D01*
X216624000Y-122167784D01*
X216624000Y-120975332D01*
X216179500Y-120736328D01*
X215930936Y-120595318D01*
X215795284Y-120479288D01*
X215734494Y-120336253D01*
X215710515Y-120114230D01*
X215709195Y-120093813D01*
X215708006Y-119829006D01*
X215751542Y-119706854D01*
X215793862Y-119692270D01*
X215899132Y-119730263D01*
G37*
G36*
X212729334Y-123767893D02*
G01*
X212983334Y-123767893D01*
X214168667Y-123767893D01*
X214846000Y-123767893D01*
X214846000Y-125687663D01*
X214844176Y-126334229D01*
X214837735Y-126834086D01*
X214825229Y-127210394D01*
X214805209Y-127486312D01*
X214776226Y-127685002D01*
X214736831Y-127829624D01*
X214707584Y-127900101D01*
X214478896Y-128212237D01*
X214173368Y-128390915D01*
X213827801Y-128428637D01*
X213478996Y-128317901D01*
X213295540Y-128187872D01*
X213009187Y-127935610D01*
X212902292Y-128136014D01*
X212688878Y-128372672D01*
X212389248Y-128502893D01*
X212053380Y-128521197D01*
X211731255Y-128422105D01*
X211545470Y-128284777D01*
X211415410Y-128134663D01*
X211314419Y-127961822D01*
X211238974Y-127743744D01*
X211185552Y-127457918D01*
X211150630Y-127081834D01*
X211130686Y-126592981D01*
X211123279Y-126048372D01*
X211882667Y-126048372D01*
X211884165Y-126577885D01*
X211890478Y-126963899D01*
X211904334Y-127232803D01*
X211928461Y-127410985D01*
X211965588Y-127524833D01*
X212018441Y-127600737D01*
X212045933Y-127627601D01*
X212254945Y-127730742D01*
X212452689Y-127676701D01*
X212608416Y-127477068D01*
X212637591Y-127404588D01*
X212670387Y-127226395D01*
X212698000Y-126916651D01*
X212718124Y-126513681D01*
X212728455Y-126055809D01*
X212728943Y-125957687D01*
X213406667Y-125957687D01*
X213409900Y-126494321D01*
X213421101Y-126887312D01*
X213442526Y-127162821D01*
X213476430Y-127347006D01*
X213525067Y-127466027D01*
X213538468Y-127486784D01*
X213681104Y-127642790D01*
X213817597Y-127649996D01*
X213994702Y-127510319D01*
X213999334Y-127505685D01*
X214063219Y-127428879D01*
X214108740Y-127328660D01*
X214138966Y-127177313D01*
X214156967Y-126947126D01*
X214165811Y-126610383D01*
X214168568Y-126139370D01*
X214168667Y-125976588D01*
X214168667Y-124617391D01*
X213787667Y-124617391D01*
X213406667Y-124617391D01*
X213406667Y-125957687D01*
X212728943Y-125957687D01*
X212729334Y-125878962D01*
X212729334Y-124617391D01*
X212306000Y-124617391D01*
X211882667Y-124617391D01*
X211882667Y-126048372D01*
X211123279Y-126048372D01*
X211122198Y-125968848D01*
X211121139Y-125573077D01*
X211120667Y-123767893D01*
X212729334Y-123767893D01*
G37*
G36*
X216163808Y-99928098D02*
G01*
X216903765Y-100080569D01*
X217642914Y-100356634D01*
X217877559Y-100467288D01*
X218397934Y-100779069D01*
X218935417Y-101197114D01*
X219438858Y-101675273D01*
X219857111Y-102167398D01*
X220010667Y-102391926D01*
X220177953Y-102635360D01*
X220313702Y-102792792D01*
X220326278Y-102807377D01*
X220419347Y-102869154D01*
X220597094Y-102942194D01*
X220785633Y-103122151D01*
X220941979Y-103354834D01*
X221023148Y-103586056D01*
X221026667Y-103634782D01*
X220950408Y-103925296D01*
X220754064Y-104181275D01*
X220486283Y-104353906D01*
X220264667Y-104399331D01*
X219957881Y-104324110D01*
X219713686Y-104127354D01*
X219558222Y-103852421D01*
X219532437Y-103655640D01*
X220025896Y-103655640D01*
X220098985Y-103807473D01*
X220264667Y-103847157D01*
X220439082Y-103800468D01*
X220503439Y-103655640D01*
X220464083Y-103474174D01*
X220313702Y-103388497D01*
X220131729Y-103412939D01*
X220032416Y-103532017D01*
X220025896Y-103655640D01*
X219532437Y-103655640D01*
X219517634Y-103542672D01*
X219592731Y-103284865D01*
X219610556Y-103075132D01*
X219489693Y-102786520D01*
X219236047Y-102428572D01*
X218855522Y-102010832D01*
X218724995Y-101882477D01*
X218024278Y-101315012D01*
X217262346Y-100904866D01*
X216433591Y-100649815D01*
X215532406Y-100547634D01*
X215354000Y-100545315D01*
X214446392Y-100619129D01*
X213620012Y-100839912D01*
X212863699Y-101212251D01*
X212166290Y-101740731D01*
X211955578Y-101941722D01*
X211685026Y-102218812D01*
X211514516Y-102416474D01*
X211421192Y-102572165D01*
X211382200Y-102723339D01*
X211374667Y-102893761D01*
X211307897Y-103265900D01*
X211115963Y-103536647D01*
X210820347Y-103685852D01*
X210509349Y-103684184D01*
X210216489Y-103548374D01*
X210000697Y-103309178D01*
X209967253Y-103240602D01*
X209888516Y-103050952D01*
X209865216Y-102937155D01*
X209868018Y-102926999D01*
X210365351Y-102926999D01*
X210385098Y-103006048D01*
X210410059Y-103075661D01*
X210527615Y-103190447D01*
X210703597Y-103192086D01*
X210866667Y-103082609D01*
X210929386Y-102946643D01*
X210866667Y-102827759D01*
X210707756Y-102721724D01*
X210533228Y-102711822D01*
X210416859Y-102801522D01*
X210414740Y-102806522D01*
X210371213Y-102913319D01*
X210365351Y-102926999D01*
X209868018Y-102926999D01*
X209898289Y-102817292D01*
X209974091Y-102643311D01*
X210174838Y-102354920D01*
X210456727Y-102207303D01*
X210533228Y-102198823D01*
X210607101Y-102190635D01*
X210748638Y-102129244D01*
X210978933Y-101956689D01*
X211276073Y-101690401D01*
X211451205Y-101519193D01*
X212196587Y-100879965D01*
X213001612Y-100399559D01*
X213869798Y-100076499D01*
X214804661Y-99909312D01*
X215354000Y-99883240D01*
X216163808Y-99928098D01*
G37*
G36*
X216457528Y-102333320D02*
G01*
X216932518Y-102437618D01*
X217174153Y-102530347D01*
X217735153Y-102888327D01*
X218239704Y-103374451D01*
X218652136Y-103948245D01*
X218914852Y-104505518D01*
X219028684Y-104824080D01*
X219980703Y-104824080D01*
X220932723Y-104824080D01*
X220958528Y-105225009D01*
X220984334Y-105625938D01*
X221661667Y-105909569D01*
X221975871Y-106045261D01*
X222229447Y-106162437D01*
X222381857Y-106242065D01*
X222404699Y-106258404D01*
X222419661Y-106367799D01*
X222397161Y-106594206D01*
X222342101Y-106890140D01*
X222337251Y-106911805D01*
X222250382Y-107304723D01*
X222180942Y-107562649D01*
X222096798Y-107713051D01*
X221965819Y-107783395D01*
X221755872Y-107801151D01*
X221434825Y-107793784D01*
X221309075Y-107790722D01*
X220505284Y-107774455D01*
X220342642Y-108042792D01*
X220235456Y-108238125D01*
X220181523Y-108372612D01*
X220180001Y-108385247D01*
X220228712Y-108481362D01*
X220359064Y-108676025D01*
X220547386Y-108934740D01*
X220647023Y-109065836D01*
X220871624Y-109362481D01*
X221001249Y-109577196D01*
X221031119Y-109750935D01*
X220956453Y-109924657D01*
X220772473Y-110139318D01*
X220488791Y-110421711D01*
X220023094Y-110879876D01*
X219341264Y-110441038D01*
X218659434Y-110002199D01*
X218357954Y-110195247D01*
X218056473Y-110388294D01*
X218120055Y-110897993D01*
X218156318Y-111240634D01*
X218180878Y-111570797D01*
X218186985Y-111733903D01*
X218190334Y-112060114D01*
X217526286Y-112270894D01*
X217205645Y-112364126D01*
X216941070Y-112425400D01*
X216778134Y-112444643D01*
X216756635Y-112441014D01*
X216673036Y-112351634D01*
X216537725Y-112146356D01*
X216373833Y-111861688D01*
X216291348Y-111706686D01*
X216097769Y-111353994D01*
X215954193Y-111143760D01*
X215848782Y-111060274D01*
X215805241Y-111061692D01*
X215627093Y-111098586D01*
X215443245Y-111110368D01*
X215292406Y-111132673D01*
X215186599Y-111226709D01*
X215086737Y-111433158D01*
X215055561Y-111513879D01*
X214929067Y-111840214D01*
X214795536Y-112171346D01*
X214756147Y-112265759D01*
X214608843Y-112614126D01*
X213833191Y-112438602D01*
X213057538Y-112263077D01*
X213083936Y-111442524D01*
X213110334Y-110621972D01*
X212790136Y-110437326D01*
X212469938Y-110252680D01*
X211822053Y-110757864D01*
X211174168Y-111263048D01*
X210597084Y-110744644D01*
X210343434Y-110510324D01*
X210146585Y-110316180D01*
X210034967Y-110190856D01*
X210020000Y-110163151D01*
X210062933Y-110068176D01*
X210177954Y-109866524D01*
X210344404Y-109593665D01*
X210438772Y-109444256D01*
X210640080Y-109117718D01*
X210754820Y-108896136D01*
X210796012Y-108747059D01*
X210776674Y-108638033D01*
X210768697Y-108621882D01*
X210723226Y-108507229D01*
X210754895Y-108417805D01*
X210891173Y-108314237D01*
X211048418Y-108220938D01*
X211163142Y-108200231D01*
X211292103Y-108291521D01*
X211414833Y-108439148D01*
X211641831Y-108737753D01*
X211218900Y-109406136D01*
X210795968Y-110074520D01*
X210996347Y-110263395D01*
X211196725Y-110452271D01*
X211730196Y-110030989D01*
X212046957Y-109782646D01*
X212262489Y-109626764D01*
X212409036Y-109551249D01*
X212518840Y-109544008D01*
X212624147Y-109592948D01*
X212720186Y-109659685D01*
X212949808Y-109800491D01*
X213242250Y-109950867D01*
X213359722Y-110004036D01*
X213755562Y-110174281D01*
X213738742Y-110942062D01*
X213734715Y-111283629D01*
X213738051Y-111553749D01*
X213747951Y-111712753D01*
X213754795Y-111737954D01*
X213852935Y-111776573D01*
X214007914Y-111818940D01*
X214115542Y-111834587D01*
X214199485Y-111802175D01*
X214280980Y-111693812D01*
X214381269Y-111481610D01*
X214515914Y-111151886D01*
X214803667Y-110431957D01*
X215396334Y-110430203D01*
X215721018Y-110422882D01*
X215996773Y-110405414D01*
X216160195Y-110382292D01*
X216253435Y-110381643D01*
X216345437Y-110451245D01*
X216456573Y-110617011D01*
X216607215Y-110904852D01*
X216667176Y-111027151D01*
X216828846Y-111353608D01*
X216942947Y-111553751D01*
X217034339Y-111654841D01*
X217127883Y-111684140D01*
X217248440Y-111668907D01*
X217251808Y-111668233D01*
X217436443Y-111624902D01*
X217526903Y-111591960D01*
X217528431Y-111501832D01*
X217510398Y-111282804D01*
X217476377Y-110974283D01*
X217456121Y-110811437D01*
X217412441Y-110449214D01*
X217396207Y-110218652D01*
X217409735Y-110083395D01*
X217455342Y-110007085D01*
X217509864Y-109967923D01*
X217656427Y-109878021D01*
X217893501Y-109729534D01*
X218159322Y-109561235D01*
X218658007Y-109243876D01*
X219250536Y-109624948D01*
X219531325Y-109800394D01*
X219759046Y-109933177D01*
X219895587Y-110001400D01*
X219913744Y-110006020D01*
X220043167Y-109941104D01*
X220163665Y-109793800D01*
X220226346Y-109635278D01*
X220216457Y-109565386D01*
X220134998Y-109447198D01*
X219979796Y-109238193D01*
X219782339Y-108980661D01*
X219753900Y-108944147D01*
X219356141Y-108434448D01*
X219597275Y-108052174D01*
X219758690Y-107770464D01*
X219892072Y-107493593D01*
X219932956Y-107388182D01*
X220027504Y-107106464D01*
X220821541Y-107133332D01*
X221615578Y-107160201D01*
X221667846Y-106920514D01*
X221693179Y-106735420D01*
X221680127Y-106640707D01*
X221588844Y-106591382D01*
X221379986Y-106494530D01*
X221092312Y-106367905D01*
X220973570Y-106317026D01*
X220651015Y-106176438D01*
X220455326Y-106074602D01*
X220356583Y-105986079D01*
X220324868Y-105885434D01*
X220328489Y-105768572D01*
X220349978Y-105503679D01*
X219470402Y-105503679D01*
X218590825Y-105503679D01*
X218445679Y-105058438D01*
X218203817Y-104488871D01*
X217876033Y-103966445D01*
X217489512Y-103523532D01*
X217071434Y-103192503D01*
X216746285Y-103034624D01*
X216415101Y-102962054D01*
X215986601Y-102923793D01*
X215529738Y-102921980D01*
X215113466Y-102958754D01*
X214994167Y-102980271D01*
X214676667Y-103047832D01*
X214676667Y-103681107D01*
X214683750Y-104017997D01*
X214708871Y-104215187D01*
X214757844Y-104302429D01*
X214800347Y-104314381D01*
X214952321Y-104323281D01*
X215228120Y-104346957D01*
X215583331Y-104380874D01*
X215973541Y-104420497D01*
X216354340Y-104461290D01*
X216681315Y-104498719D01*
X216910054Y-104528248D01*
X216941500Y-104533028D01*
X217122383Y-104578030D01*
X217199637Y-104672505D01*
X217216614Y-104873950D01*
X217216667Y-104897988D01*
X217216667Y-105219046D01*
X216142877Y-105549225D01*
X215069087Y-105879404D01*
X216121710Y-106141778D01*
X217174334Y-106404153D01*
X217200369Y-106760939D01*
X217198509Y-107010094D01*
X217142381Y-107114634D01*
X217115702Y-107120417D01*
X216989630Y-107132547D01*
X216736297Y-107163192D01*
X216396137Y-107207308D01*
X216116000Y-107245150D01*
X215743791Y-107295664D01*
X215434643Y-107336525D01*
X215226606Y-107362773D01*
X215159791Y-107369884D01*
X215130333Y-107449015D01*
X215114742Y-107655338D01*
X215115919Y-107946500D01*
X215117458Y-107988461D01*
X215142334Y-108604348D01*
X215745942Y-108593345D01*
X216435648Y-108522387D01*
X217020445Y-108331653D01*
X217522765Y-108013364D01*
X217594945Y-107951880D01*
X217839518Y-107695955D01*
X218071417Y-107385624D01*
X218260939Y-107068495D01*
X218378382Y-106792177D01*
X218402000Y-106658339D01*
X218450856Y-106513664D01*
X218611026Y-106467047D01*
X218820856Y-106492446D01*
X219001637Y-106544944D01*
X219055535Y-106640662D01*
X219030786Y-106810629D01*
X218915867Y-107159624D01*
X218724831Y-107560697D01*
X218495476Y-107940221D01*
X218354611Y-108127660D01*
X217865848Y-108583354D01*
X217272916Y-108928138D01*
X216604312Y-109156691D01*
X215888528Y-109263690D01*
X215154061Y-109243813D01*
X214429405Y-109091737D01*
X214017722Y-108937728D01*
X213728633Y-108797305D01*
X213356658Y-108599185D01*
X212962266Y-108376106D01*
X212771667Y-108263086D01*
X211886189Y-107804910D01*
X211011818Y-107505213D01*
X210316334Y-107381288D01*
X209808334Y-107330100D01*
X209799726Y-106756212D01*
X210443334Y-106756212D01*
X210803167Y-106811899D01*
X211544685Y-106995600D01*
X212352600Y-107325593D01*
X213109291Y-107733307D01*
X213475232Y-107946951D01*
X213815362Y-108138082D01*
X214087572Y-108283459D01*
X214231124Y-108352460D01*
X214507334Y-108468254D01*
X214507334Y-107634944D01*
X214507334Y-106801635D01*
X215036500Y-106726068D01*
X215565667Y-106650502D01*
X214189834Y-106325958D01*
X213733982Y-106214946D01*
X213341936Y-106112827D01*
X213040789Y-106027200D01*
X212857637Y-105965665D01*
X212814000Y-105940065D01*
X212888148Y-105884930D01*
X213077250Y-105812400D01*
X213216167Y-105771607D01*
X213460703Y-105702178D01*
X213815731Y-105595960D01*
X214230585Y-105468313D01*
X214592000Y-105354563D01*
X215565667Y-105044628D01*
X214803667Y-104955592D01*
X214041667Y-104866555D01*
X214017204Y-104123244D01*
X214000714Y-103791704D01*
X213977392Y-103536353D01*
X213951237Y-103395632D01*
X213939931Y-103379933D01*
X213849736Y-103417590D01*
X213639100Y-103520850D01*
X213336876Y-103675147D01*
X212971920Y-103865914D01*
X212862165Y-103924016D01*
X212269965Y-104224958D01*
X211762283Y-104449122D01*
X211285168Y-104617530D01*
X210784672Y-104751204D01*
X210676167Y-104775809D01*
X210443334Y-104827317D01*
X210443334Y-105791764D01*
X210443334Y-106756212D01*
X209799726Y-106756212D01*
X209785319Y-105795778D01*
X209781033Y-105301430D01*
X209783203Y-104866745D01*
X209791206Y-104519849D01*
X209804420Y-104288869D01*
X209820597Y-104202969D01*
X209935395Y-104165782D01*
X210150068Y-104144821D01*
X210224612Y-104143226D01*
X210832318Y-104074961D01*
X211488363Y-103884539D01*
X212141679Y-103587347D01*
X212226668Y-103540008D01*
X212828869Y-103211951D01*
X213426180Y-102914528D01*
X213939931Y-102683145D01*
X213984529Y-102663059D01*
X214469846Y-102472865D01*
X214848059Y-102359267D01*
X214856831Y-102357325D01*
X215361737Y-102288847D01*
X215914619Y-102282288D01*
X216457528Y-102333320D01*
G37*
D16*
X113595096Y-57878000D02*
X123636096Y-57878000D01*
X113595096Y-61814000D02*
X113595096Y-57878000D01*
X113595096Y-70118000D02*
X113595096Y-66181000D01*
X113595096Y-70118000D02*
X114916096Y-70118000D01*
X117366096Y-70118000D02*
X117746096Y-70118000D01*
X119487096Y-70118000D02*
X120246096Y-70118000D01*
X121986096Y-70118000D02*
X123636096Y-70118000D01*
X123636096Y-61814000D02*
X123636096Y-57878000D01*
X123636096Y-70118000D02*
X123636096Y-66181000D01*
D12*
G36*
X149493288Y-85876606D02*
G01*
X149487731Y-86019481D01*
X149471063Y-86133781D01*
X149445663Y-86219506D01*
X149399625Y-86256813D01*
X149294850Y-86268719D01*
X149188488Y-86256813D01*
X149140863Y-86213156D01*
X149490113Y-85771831D01*
X149493288Y-85876606D01*
G37*
G36*
X149409944Y-85510687D02*
G01*
X149459950Y-85574981D01*
X149104350Y-86024244D01*
X149099588Y-85950425D01*
X149098000Y-85881369D01*
X149099588Y-85799414D01*
X149104350Y-85734525D01*
X149120225Y-85625781D01*
X149147213Y-85540850D01*
X149193250Y-85504337D01*
X149293263Y-85494019D01*
X149409944Y-85510687D01*
G37*
G36*
X151120273Y-84940687D02*
G01*
X151209165Y-84953872D01*
X151296337Y-84975708D01*
X151380949Y-85005982D01*
X151462185Y-85044404D01*
X151539265Y-85090604D01*
X151611445Y-85144137D01*
X151678031Y-85204486D01*
X151738380Y-85271072D01*
X151791912Y-85343252D01*
X151838112Y-85420331D01*
X151876534Y-85501568D01*
X151906809Y-85586180D01*
X151928644Y-85673351D01*
X151941830Y-85762243D01*
X151946240Y-85852000D01*
X151941830Y-85941757D01*
X151928644Y-86030649D01*
X151906809Y-86117820D01*
X151876534Y-86202432D01*
X151838112Y-86283669D01*
X151791912Y-86360748D01*
X151738380Y-86432928D01*
X151678031Y-86499514D01*
X151611445Y-86559863D01*
X151539265Y-86613396D01*
X151462185Y-86659596D01*
X151380949Y-86698018D01*
X151296337Y-86728292D01*
X151209165Y-86750128D01*
X151120273Y-86763313D01*
X151030517Y-86767723D01*
X150699788Y-86767723D01*
X150083838Y-86767723D01*
X149293263Y-86767723D01*
X148542375Y-86767723D01*
X148004212Y-86767723D01*
X147673483Y-86767723D01*
X147583727Y-86763313D01*
X147494835Y-86750128D01*
X147407663Y-86728292D01*
X147323051Y-86698018D01*
X147241815Y-86659596D01*
X147164735Y-86613396D01*
X147092555Y-86559863D01*
X147025969Y-86499514D01*
X146965620Y-86432928D01*
X146912088Y-86360748D01*
X146865888Y-86283669D01*
X146827466Y-86202432D01*
X146797191Y-86117820D01*
X146775356Y-86030649D01*
X146762170Y-85941757D01*
X146757760Y-85852000D01*
X146760685Y-85792469D01*
X148004212Y-85792469D01*
X148289963Y-85616256D01*
X148351875Y-85565456D01*
X148345525Y-85663881D01*
X148345525Y-86422706D01*
X148542375Y-86422706D01*
X148542375Y-85879781D01*
X148899563Y-85879781D01*
X148902914Y-85991965D01*
X148912968Y-86093565D01*
X148929725Y-86184581D01*
X148959689Y-86280030D01*
X148995606Y-86347300D01*
X149041445Y-86391750D01*
X149101175Y-86418738D01*
X149182534Y-86432430D01*
X149293263Y-86436994D01*
X149405181Y-86432430D01*
X149486938Y-86418738D01*
X149546866Y-86391948D01*
X149593300Y-86348094D01*
X149629813Y-86281816D01*
X149659975Y-86187756D01*
X149674858Y-86118303D01*
X149684581Y-86049644D01*
X149689939Y-85975825D01*
X149691725Y-85890894D01*
X149688021Y-85770067D01*
X149676908Y-85663705D01*
X149658388Y-85571806D01*
X149628820Y-85480525D01*
X149594094Y-85416231D01*
X149549445Y-85373170D01*
X149490113Y-85345588D01*
X149408356Y-85330705D01*
X149296438Y-85325744D01*
X149184320Y-85330705D01*
X149101969Y-85345588D01*
X149042041Y-85373369D01*
X148997194Y-85417025D01*
X148962467Y-85481914D01*
X148932900Y-85573394D01*
X148914379Y-85662470D01*
X148903267Y-85764599D01*
X148899563Y-85879781D01*
X148542375Y-85879781D01*
X148542375Y-85343206D01*
X148345525Y-85343206D01*
X148004212Y-85582919D01*
X148004212Y-85792469D01*
X146760685Y-85792469D01*
X146762170Y-85762243D01*
X146775356Y-85673351D01*
X146797191Y-85586180D01*
X146827466Y-85501568D01*
X146865888Y-85420331D01*
X146912088Y-85343252D01*
X146965620Y-85271072D01*
X146969305Y-85267006D01*
X149893338Y-85267006D01*
X149893338Y-86422706D01*
X150083838Y-86422706D01*
X150083838Y-85971856D01*
X150456900Y-86422706D01*
X150699788Y-86422706D01*
X150299738Y-85963919D01*
X150663275Y-85594031D01*
X150434675Y-85594031D01*
X150083838Y-85957569D01*
X150083838Y-85267006D01*
X149893338Y-85267006D01*
X146969305Y-85267006D01*
X147025969Y-85204486D01*
X147092555Y-85144137D01*
X147164735Y-85090604D01*
X147241815Y-85044404D01*
X147323051Y-85005982D01*
X147407663Y-84975708D01*
X147494835Y-84953872D01*
X147583727Y-84940687D01*
X147673483Y-84936277D01*
X148004212Y-84936277D01*
X150699788Y-84936277D01*
X151030517Y-84936277D01*
X151120273Y-84940687D01*
G37*
D16*
X144042000Y-90602000D02*
X144732000Y-90602000D01*
X144732000Y-88882000D02*
X144732000Y-92322000D01*
X144732000Y-92322000D02*
X153972000Y-92322000D01*
X153972000Y-88882000D02*
X144732000Y-88882000D01*
X153972000Y-92322000D02*
X153972000Y-88882000D01*
X154662000Y-90602000D02*
X153972000Y-90602000D01*
D12*
G36*
X101924913Y-103892430D02*
G01*
X102003686Y-103904115D01*
X102080934Y-103923465D01*
X102155913Y-103950293D01*
X102227902Y-103984341D01*
X102296207Y-104025281D01*
X102360170Y-104072720D01*
X102419176Y-104126199D01*
X102472655Y-104185204D01*
X102520093Y-104249167D01*
X102561034Y-104317472D01*
X102595082Y-104389461D01*
X102621910Y-104464441D01*
X102641259Y-104541689D01*
X102652944Y-104620461D01*
X102656852Y-104700000D01*
X102652944Y-104779539D01*
X102641259Y-104858311D01*
X102621910Y-104935559D01*
X102595082Y-105010539D01*
X102561034Y-105082528D01*
X102520093Y-105150833D01*
X102472655Y-105214796D01*
X102419176Y-105273801D01*
X102360170Y-105327280D01*
X102296207Y-105374719D01*
X102227902Y-105415659D01*
X102155913Y-105449707D01*
X102080934Y-105476535D01*
X102003686Y-105495885D01*
X101924913Y-105507570D01*
X101845375Y-105511477D01*
X101580791Y-105511477D01*
X101160104Y-105511477D01*
X100413979Y-105511477D01*
X99255104Y-105511477D01*
X98948716Y-105511477D01*
X98684133Y-105511477D01*
X98464352Y-105181806D01*
X98948716Y-105181806D01*
X99022734Y-105212762D01*
X99092385Y-105232606D01*
X99166799Y-105243322D01*
X99255104Y-105246894D01*
X99396788Y-105238163D01*
X99504341Y-105211969D01*
X99582327Y-105166328D01*
X99635310Y-105099256D01*
X99665671Y-105006784D01*
X99675791Y-104884944D01*
X99669838Y-104780764D01*
X99651979Y-104700000D01*
X99620824Y-104640270D01*
X99574985Y-104599194D01*
X99512477Y-104575381D01*
X99431316Y-104567444D01*
X99367816Y-104570619D01*
X99367816Y-104562681D01*
X99634516Y-104337256D01*
X99634516Y-104153106D01*
X99844066Y-104153106D01*
X100164741Y-105232606D01*
X100413979Y-105232606D01*
X100429070Y-105181806D01*
X100853716Y-105181806D01*
X100927734Y-105212762D01*
X100997385Y-105232606D01*
X101071799Y-105243322D01*
X101160104Y-105246894D01*
X101301788Y-105238163D01*
X101409341Y-105211969D01*
X101487327Y-105166328D01*
X101540310Y-105099256D01*
X101570671Y-105006784D01*
X101580791Y-104884944D01*
X101574838Y-104780764D01*
X101556979Y-104700000D01*
X101525824Y-104640270D01*
X101479985Y-104599194D01*
X101417477Y-104575381D01*
X101336316Y-104567444D01*
X101272816Y-104570619D01*
X101272816Y-104562681D01*
X101539516Y-104337256D01*
X101539516Y-104153106D01*
X100875941Y-104153106D01*
X100875941Y-104321381D01*
X101298216Y-104321381D01*
X101031516Y-104557919D01*
X101031516Y-104745244D01*
X101127560Y-104730956D01*
X101206141Y-104726194D01*
X101287898Y-104735719D01*
X101342666Y-104764294D01*
X101373623Y-104813506D01*
X101383941Y-104884944D01*
X101371440Y-104975233D01*
X101333935Y-105033375D01*
X101265077Y-105064927D01*
X101158516Y-105075444D01*
X101086880Y-105070284D01*
X101018023Y-105054806D01*
X100943212Y-105026628D01*
X100853716Y-104983369D01*
X100853716Y-105181806D01*
X100429070Y-105181806D01*
X100734654Y-104153106D01*
X100528279Y-104153106D01*
X100293329Y-104994481D01*
X100285391Y-104994481D01*
X100050441Y-104153106D01*
X99844066Y-104153106D01*
X99634516Y-104153106D01*
X98970941Y-104153106D01*
X98970941Y-104321381D01*
X99393216Y-104321381D01*
X99126516Y-104557919D01*
X99126516Y-104745244D01*
X99222560Y-104730956D01*
X99301141Y-104726194D01*
X99382898Y-104735719D01*
X99437666Y-104764294D01*
X99468623Y-104813506D01*
X99478941Y-104884944D01*
X99466440Y-104975233D01*
X99428935Y-105033375D01*
X99360077Y-105064927D01*
X99253516Y-105075444D01*
X99181880Y-105070284D01*
X99113023Y-105054806D01*
X99038212Y-105026628D01*
X98948716Y-104983369D01*
X98948716Y-105181806D01*
X98464352Y-105181806D01*
X98143148Y-104700000D01*
X98684133Y-103888523D01*
X98948716Y-103888523D01*
X101580791Y-103888523D01*
X101845375Y-103888523D01*
X101924913Y-103892430D01*
G37*
G36*
X101185756Y-107031303D02*
G01*
X101260368Y-107037256D01*
X101351848Y-107054520D01*
X101419912Y-107084087D01*
X101468132Y-107129728D01*
X101500081Y-107195212D01*
X101517940Y-107285105D01*
X101523893Y-107403969D01*
X101517742Y-107529580D01*
X101499287Y-107623837D01*
X101466148Y-107691505D01*
X101415943Y-107737344D01*
X101344903Y-107765125D01*
X101249256Y-107778619D01*
X101123843Y-107773856D01*
X101123843Y-107029319D01*
X101185756Y-107031303D01*
G37*
G36*
X102073581Y-106584531D02*
G01*
X102153124Y-106596330D01*
X102231128Y-106615869D01*
X102306841Y-106642960D01*
X102379534Y-106677341D01*
X102448507Y-106718682D01*
X102513095Y-106766584D01*
X102572678Y-106820586D01*
X102626680Y-106880169D01*
X102674583Y-106944758D01*
X102715923Y-107013731D01*
X102750305Y-107086424D01*
X102777395Y-107162137D01*
X102796934Y-107240140D01*
X102808733Y-107319683D01*
X102812679Y-107400000D01*
X102808733Y-107480317D01*
X102796934Y-107559860D01*
X102777395Y-107637863D01*
X102750305Y-107713576D01*
X102715923Y-107786269D01*
X102674583Y-107855242D01*
X102626680Y-107919831D01*
X102572678Y-107979414D01*
X102513095Y-108033416D01*
X102448507Y-108081318D01*
X102379534Y-108122659D01*
X102306841Y-108157040D01*
X102231128Y-108184131D01*
X102153124Y-108203670D01*
X102073581Y-108215469D01*
X101993264Y-108219415D01*
X101728681Y-108219415D01*
X101201631Y-108219415D01*
X100765068Y-108219415D01*
X99445856Y-108219415D01*
X98998181Y-108219415D01*
X98733598Y-108219415D01*
X98187850Y-107400794D01*
X98998181Y-107400794D01*
X99002679Y-107534761D01*
X99016173Y-107646680D01*
X99038662Y-107736550D01*
X99092836Y-107837753D01*
X99174393Y-107904825D01*
X99246889Y-107932606D01*
X99337377Y-107949275D01*
X99445856Y-107954831D01*
X99543487Y-107950466D01*
X99626831Y-107937369D01*
X99710572Y-107911969D01*
X99809393Y-107870694D01*
X99809393Y-107332531D01*
X99393468Y-107332531D01*
X99393468Y-107505569D01*
X99617306Y-107505569D01*
X99617306Y-107748456D01*
X99538725Y-107773062D01*
X99441093Y-107780206D01*
X99356757Y-107771872D01*
X99294250Y-107746869D01*
X99249998Y-107701823D01*
X99220431Y-107633363D01*
X99203762Y-107536327D01*
X99198206Y-107405556D01*
X99203167Y-107271809D01*
X99218050Y-107172194D01*
X99244839Y-107101550D01*
X99285518Y-107054719D01*
X99343065Y-107028525D01*
X99420456Y-107019794D01*
X99532375Y-107032494D01*
X99591906Y-107074562D01*
X99615718Y-107159494D01*
X99812568Y-107159494D01*
X99798479Y-107049956D01*
X99768912Y-106968994D01*
X99720295Y-106911844D01*
X99649056Y-106873744D01*
X99590497Y-106861044D01*
X99952268Y-106861044D01*
X99952268Y-107940544D01*
X100147531Y-107940544D01*
X100147531Y-107319831D01*
X100125306Y-107094406D01*
X100130068Y-107094406D01*
X100517418Y-107940544D01*
X100765068Y-107940544D01*
X100920643Y-107940544D01*
X101024536Y-107947599D01*
X101118199Y-107951833D01*
X101201631Y-107953244D01*
X101328807Y-107947776D01*
X101435170Y-107931372D01*
X101520718Y-107904031D01*
X101617159Y-107838348D01*
X101681056Y-107739725D01*
X101707514Y-107652501D01*
X101723389Y-107544286D01*
X101728681Y-107415081D01*
X101724095Y-107291521D01*
X101710336Y-107187540D01*
X101687406Y-107103137D01*
X101631645Y-107005308D01*
X101546912Y-106935656D01*
X101471682Y-106902848D01*
X101378284Y-106878506D01*
X101266718Y-106862631D01*
X101190518Y-106856678D01*
X101104793Y-106854694D01*
X101017481Y-106856281D01*
X100920643Y-106861044D01*
X100920643Y-107940544D01*
X100765068Y-107940544D01*
X100765068Y-106861044D01*
X100569806Y-106861044D01*
X100569806Y-107481756D01*
X100592031Y-107707181D01*
X100587268Y-107707181D01*
X100199918Y-106861044D01*
X99952268Y-106861044D01*
X99590497Y-106861044D01*
X99550234Y-106852312D01*
X99418868Y-106845169D01*
X99317180Y-106850725D01*
X99232249Y-106867394D01*
X99164075Y-106895175D01*
X99087279Y-106962247D01*
X99036281Y-107063450D01*
X99015114Y-107153497D01*
X99002414Y-107265944D01*
X98998181Y-107400794D01*
X98187850Y-107400794D01*
X98187321Y-107400000D01*
X98733598Y-106580585D01*
X98998181Y-106580585D01*
X101728681Y-106580585D01*
X101993264Y-106580585D01*
X102073581Y-106584531D01*
G37*
%LPC*%
D17*
X95500000Y-102160000D03*
X95500000Y-104700000D03*
D18*
X95500000Y-107240000D03*
D19*
X93177000Y-67848000D03*
X99527000Y-67848000D03*
X93177000Y-72928000D03*
X99527000Y-72928000D03*
X93812000Y-90708000D03*
X96352000Y-90708000D03*
X98892000Y-90708000D03*
D20*
X88732000Y-73880500D03*
X88732000Y-87215500D03*
X103972000Y-87215500D03*
X103972000Y-73880500D03*
D19*
X86192000Y-78008000D03*
X86192000Y-80548000D03*
X86192000Y-83088000D03*
D21*
X132927000Y-52648000D03*
D22*
X183484000Y-87388000D03*
X183484000Y-74888000D03*
X188484000Y-87388000D03*
X188484000Y-74888000D03*
D23*
X134615000Y-63066250D03*
X134615000Y-91566250D03*
X164115000Y-63066250D03*
X164115000Y-91566250D03*
D24*
X145805000Y-61066250D03*
D25*
X148345000Y-61066250D03*
X150885000Y-61066250D03*
X153425000Y-61066250D03*
D26*
X153152000Y-120396000D03*
D27*
X150612000Y-120396000D03*
X148072000Y-120396000D03*
X145532000Y-120396000D03*
D26*
X87600000Y-120800000D03*
D27*
X95200000Y-120800000D03*
D28*
X202627000Y-51748000D03*
X198127000Y-51748000D03*
D29*
X196872000Y-54238000D03*
X203882000Y-54238000D03*
D23*
X141456000Y-99339000D03*
X157226000Y-99339000D03*
D30*
X140411200Y-111301800D03*
X142951200Y-111301800D03*
X145491200Y-111301800D03*
X148031200Y-111301800D03*
X150571200Y-111301800D03*
X153111200Y-111301800D03*
X155651200Y-111301800D03*
X158191200Y-111301800D03*
D19*
X171977000Y-96548000D03*
X178327000Y-96548000D03*
X171977000Y-101628000D03*
X178327000Y-101628000D03*
X172612000Y-119408000D03*
X175152000Y-119408000D03*
X177692000Y-119408000D03*
D20*
X167532000Y-102580500D03*
X167532000Y-115915500D03*
X182772000Y-115915500D03*
X182772000Y-102580500D03*
D19*
X164992000Y-106708000D03*
X164992000Y-109248000D03*
X164992000Y-111788000D03*
D31*
X139954000Y-56896000D03*
D32*
X139954000Y-54896000D03*
D21*
X208752000Y-141348000D03*
D28*
X100577000Y-51748000D03*
X96077000Y-51748000D03*
D29*
X94822000Y-54238000D03*
X101832000Y-54238000D03*
D33*
X143002000Y-85852000D03*
D34*
X155702000Y-85852000D03*
D21*
X89952000Y-141348000D03*
D22*
X212440000Y-87388000D03*
X212440000Y-74888000D03*
X217440000Y-87388000D03*
X217440000Y-74888000D03*
D24*
X113032000Y-79268000D03*
D35*
X113032000Y-81808000D03*
X113032000Y-84348000D03*
X113032000Y-86888000D03*
X113032000Y-89428000D03*
X113032000Y-91968000D03*
X113032000Y-94508000D03*
X113032000Y-97048000D03*
X113032000Y-99588000D03*
X113032000Y-102128000D03*
X113032000Y-104668000D03*
X113032000Y-107208000D03*
X113032000Y-109748000D03*
X113032000Y-112288000D03*
X113032000Y-114828000D03*
X128272000Y-114828000D03*
X128272000Y-112288000D03*
X128272000Y-109748000D03*
X128272000Y-107208000D03*
X128272000Y-104668000D03*
X128272000Y-102128000D03*
X128272000Y-99588000D03*
X128272000Y-97048000D03*
X128272000Y-94508000D03*
X128272000Y-91968000D03*
X128272000Y-89428000D03*
X128272000Y-86888000D03*
X128272000Y-84348000D03*
X128272000Y-81808000D03*
X128272000Y-79268000D03*
D36*
X177064096Y-70998000D03*
D37*
X179604096Y-70998000D03*
X182144096Y-70998000D03*
D38*
X174564096Y-63998000D03*
X184564096Y-63998000D03*
D21*
X83802000Y-65748000D03*
D39*
X194212000Y-64048000D03*
X206712000Y-64048000D03*
X194212000Y-69048000D03*
X206712000Y-69048000D03*
D21*
X214902000Y-65748000D03*
D40*
X145542000Y-55843000D03*
X148082000Y-55843000D03*
X150622000Y-55843000D03*
X153162000Y-55843000D03*
X153162000Y-53303000D03*
X150622000Y-53303000D03*
X148082000Y-53303000D03*
X145542000Y-53303000D03*
D21*
X165777000Y-52648000D03*
D31*
X158750000Y-56896000D03*
D32*
X158750000Y-54896000D03*
D34*
X101700000Y-125200000D03*
D33*
X101700000Y-112500000D03*
D41*
X205232000Y-86360000D03*
D42*
X205232000Y-76200000D03*
D39*
X194212000Y-93004000D03*
X206712000Y-93004000D03*
X194212000Y-98004000D03*
X206712000Y-98004000D03*
D36*
X116116096Y-70998000D03*
D37*
X118656096Y-70998000D03*
X121196096Y-70998000D03*
D38*
X113616096Y-63998000D03*
X123616096Y-63998000D03*
D33*
X143002000Y-90602000D03*
D34*
X155702000Y-90602000D03*
D43*
X200152000Y-82555000D03*
D44*
X200152000Y-80015000D03*
%LPD*%
M02*
