%TF.GenerationSoftware,KiCad,Pcbnew,8.0.1*%
%TF.CreationDate,2024-05-05T13:03:46+07:00*%
%TF.ProjectId,Arduino_RC_Transceiver_DIY_2.3.0,41726475-696e-46f5-9f52-435f5472616e,2.1.0*%
%TF.SameCoordinates,Original*%
%TF.FileFunction,Drillmap*%
%TF.FilePolarity,Positive*%
%FSLAX45Y45*%
G04 Gerber Fmt 4.5, Leading zero omitted, Abs format (unit mm)*
G04 Created by KiCad (PCBNEW 8.0.1) date 2024-05-05 13:03:46*
%MOMM*%
%LPD*%
G01*
G04 APERTURE LIST*
%ADD10C,0.200000*%
%ADD11C,0.100000*%
%ADD12C,0.110000*%
%ADD13C,0.130000*%
%ADD14C,0.139700*%
%ADD15C,0.180000*%
%ADD16C,0.300000*%
G04 APERTURE END LIST*
D10*
X19052357Y-5457643D02*
X19532688Y-4977312D01*
X18158166Y-12316540D02*
G75*
G02*
X18781711Y-12580855I168205J-470850D01*
G01*
X20235200Y-15074800D02*
G75*
G02*
X19779855Y-14781345I0J500000D01*
G01*
X9635205Y-15074800D02*
X8935200Y-15074800D01*
X16687125Y-4742750D02*
X17683275Y-5406850D01*
X20553956Y-4946053D02*
X21464192Y-5492195D01*
X20296708Y-4874800D02*
G75*
G02*
X20553957Y-4946053I2J-500000D01*
G01*
X21464192Y-5492195D02*
G75*
G02*
X22435199Y-7207181I-1028992J-1714985D01*
G01*
X7435200Y-7207181D02*
G75*
G02*
X8406208Y-5492195I2000000J1D01*
G01*
X12521825Y-12574800D02*
G75*
G02*
X12353624Y-12545658I-15J499890D01*
G01*
X12187125Y-5406850D02*
X13183275Y-4742750D01*
X19532688Y-4977312D02*
G75*
G02*
X19780175Y-4874802I247472J-247458D01*
G01*
X11100885Y-5574800D02*
G75*
G02*
X10818045Y-5457641I5J400000D01*
G01*
X12187125Y-5406850D02*
G75*
G02*
X11632424Y-5574800I-554685J832000D01*
G01*
X20935200Y-15074800D02*
X20235200Y-15074800D01*
X8935200Y-15074800D02*
G75*
G02*
X7435200Y-13574800I0J1500000D01*
G01*
X10090551Y-14781344D02*
G75*
G02*
X9635205Y-15074801I-455341J206534D01*
G01*
X13737976Y-4574800D02*
X16132424Y-4574800D01*
X19052357Y-5457643D02*
G75*
G02*
X18769515Y-5574798I-282827J282813D01*
G01*
X13183275Y-4742750D02*
G75*
G02*
X13737976Y-4574800I554685J-832000D01*
G01*
X10337712Y-4977313D02*
X10818043Y-5457643D01*
X9316444Y-4946054D02*
G75*
G02*
X9573692Y-4874798I257246J-428727D01*
G01*
X17348575Y-12574800D02*
X12521825Y-12574800D01*
X18237976Y-5574800D02*
X18769515Y-5574800D01*
X12353624Y-12545659D02*
X11712234Y-12316541D01*
X19780175Y-4874800D02*
X20296708Y-4874800D01*
X11100885Y-5574800D02*
X11632424Y-5574800D01*
X18158166Y-12316540D02*
X17516777Y-12545659D01*
X9573692Y-4874800D02*
X10090225Y-4874800D01*
X16132424Y-4574800D02*
G75*
G02*
X16687123Y-4742752I-4J-1000000D01*
G01*
X11088687Y-12580856D02*
G75*
G02*
X11712235Y-12316538I455353J-206554D01*
G01*
X19779855Y-14781345D02*
X18781713Y-12580854D01*
X17516777Y-12545659D02*
G75*
G02*
X17348575Y-12574800I-168187J470769D01*
G01*
X22435200Y-13574800D02*
G75*
G02*
X20935200Y-15074800I-1500000J0D01*
G01*
X10090225Y-4874800D02*
G75*
G02*
X10337713Y-4977312I-15J-350040D01*
G01*
X11088687Y-12580856D02*
X10090551Y-14781344D01*
X7435200Y-13574800D02*
X7435200Y-7207181D01*
X22435200Y-7207181D02*
X22435200Y-13574800D01*
X18237976Y-5574800D02*
G75*
G02*
X17683277Y-5406848I4J1000000D01*
G01*
X8406208Y-5492195D02*
X9316444Y-4946054D01*
D11*
X10390000Y-7850000D02*
X10420000Y-7880000D01*
X10420000Y-7850000D02*
X10390000Y-7880000D01*
X10885000Y-10965000D02*
X10915000Y-10995000D01*
X10915000Y-10965000D02*
X10885000Y-10995000D01*
X11525000Y-8675000D02*
X11555000Y-8705000D01*
X11555000Y-8675000D02*
X11525000Y-8705000D01*
X12585001Y-8165000D02*
X12615001Y-8195000D01*
X12615001Y-8165000D02*
X12585001Y-8195000D01*
X12995000Y-6055000D02*
X13025000Y-6085000D01*
X13025000Y-6055000D02*
X12995000Y-6085000D01*
X13049799Y-5699799D02*
X13079799Y-5729799D01*
X13079799Y-5699799D02*
X13049799Y-5729799D01*
X14325000Y-11375000D02*
X14355000Y-11405000D01*
X14355000Y-11375000D02*
X14325000Y-11405000D01*
X14335000Y-5725000D02*
X14365000Y-5755000D01*
X14365000Y-5725000D02*
X14335000Y-5755000D01*
X14785000Y-8855000D02*
X14815000Y-8885000D01*
X14815000Y-8855000D02*
X14785000Y-8885000D01*
X15365000Y-6995000D02*
X15395000Y-7025000D01*
X15395000Y-6995000D02*
X15365000Y-7025000D01*
X15444540Y-7334540D02*
X15474540Y-7364540D01*
X15474540Y-7334540D02*
X15444540Y-7364540D01*
X15745000Y-7305000D02*
X15775000Y-7335000D01*
X15775000Y-7305000D02*
X15745000Y-7335000D01*
X15795000Y-6155000D02*
X15825000Y-6185000D01*
X15825000Y-6155000D02*
X15795000Y-6185000D01*
X16285000Y-11605000D02*
X16315000Y-11635000D01*
X16315000Y-11605000D02*
X16285000Y-11635000D01*
X14025400Y-5489600D02*
G75*
G02*
X13965400Y-5489600I-30000J0D01*
G01*
X13965400Y-5489600D02*
G75*
G02*
X14025400Y-5489600I30000J0D01*
G01*
X14025400Y-5689600D02*
G75*
G02*
X13965400Y-5689600I-30000J0D01*
G01*
X13965400Y-5689600D02*
G75*
G02*
X14025400Y-5689600I30000J0D01*
G01*
X15905000Y-5489600D02*
G75*
G02*
X15845000Y-5489600I-30000J0D01*
G01*
X15845000Y-5489600D02*
G75*
G02*
X15905000Y-5489600I30000J0D01*
G01*
X15905000Y-5689600D02*
G75*
G02*
X15845000Y-5689600I-30000J0D01*
G01*
X15845000Y-5689600D02*
G75*
G02*
X15905000Y-5689600I30000J0D01*
G01*
X10170000Y-11210000D02*
X10170000Y-11290000D01*
X10130000Y-11250000D02*
X10210000Y-11250000D01*
X10170000Y-12480000D02*
X10170000Y-12560000D01*
X10130000Y-12520000D02*
X10210000Y-12520000D01*
X14041120Y-11090180D02*
X14041120Y-11170180D01*
X14001120Y-11130180D02*
X14081120Y-11130180D01*
X14295120Y-11090180D02*
X14295120Y-11170180D01*
X14255120Y-11130180D02*
X14335120Y-11130180D01*
X14300200Y-8545200D02*
X14300200Y-8625200D01*
X14260200Y-8585200D02*
X14340200Y-8585200D01*
X14300200Y-9020200D02*
X14300200Y-9100200D01*
X14260200Y-9060200D02*
X14340200Y-9060200D01*
X14549120Y-11090180D02*
X14549120Y-11170180D01*
X14509120Y-11130180D02*
X14589120Y-11130180D01*
X14554200Y-5290300D02*
X14554200Y-5370300D01*
X14514200Y-5330300D02*
X14594200Y-5330300D01*
X14554200Y-5544300D02*
X14554200Y-5624300D01*
X14514200Y-5584300D02*
X14594200Y-5584300D01*
X14803120Y-11090180D02*
X14803120Y-11170180D01*
X14763120Y-11130180D02*
X14843120Y-11130180D01*
X14808200Y-5290300D02*
X14808200Y-5370300D01*
X14768200Y-5330300D02*
X14848200Y-5330300D01*
X14808200Y-5544300D02*
X14808200Y-5624300D01*
X14768200Y-5584300D02*
X14848200Y-5584300D01*
X15057120Y-11090180D02*
X15057120Y-11170180D01*
X15017120Y-11130180D02*
X15097120Y-11130180D01*
X15062200Y-5290300D02*
X15062200Y-5370300D01*
X15022200Y-5330300D02*
X15102200Y-5330300D01*
X15062200Y-5544300D02*
X15062200Y-5624300D01*
X15022200Y-5584300D02*
X15102200Y-5584300D01*
X15311120Y-11090180D02*
X15311120Y-11170180D01*
X15271120Y-11130180D02*
X15351120Y-11130180D01*
X15316200Y-5290300D02*
X15316200Y-5370300D01*
X15276200Y-5330300D02*
X15356200Y-5330300D01*
X15316200Y-5544300D02*
X15316200Y-5624300D01*
X15276200Y-5584300D02*
X15356200Y-5584300D01*
X15565120Y-11090180D02*
X15565120Y-11170180D01*
X15525120Y-11130180D02*
X15605120Y-11130180D01*
X15570200Y-8545200D02*
X15570200Y-8625200D01*
X15530200Y-8585200D02*
X15610200Y-8585200D01*
X15570200Y-9020200D02*
X15570200Y-9100200D01*
X15530200Y-9060200D02*
X15610200Y-9060200D01*
X15819120Y-11090180D02*
X15819120Y-11170180D01*
X15779120Y-11130180D02*
X15859120Y-11130180D01*
X8650631Y-7832231D02*
X8650631Y-7769369D01*
X8587769Y-7769369D01*
X8587769Y-7832231D01*
X8650631Y-7832231D01*
X8650631Y-8086231D02*
X8650631Y-8023369D01*
X8587769Y-8023369D01*
X8587769Y-8086231D01*
X8650631Y-8086231D01*
X8650631Y-8340231D02*
X8650631Y-8277369D01*
X8587769Y-8277369D01*
X8587769Y-8340231D01*
X8650631Y-8340231D01*
X9412631Y-9102231D02*
X9412631Y-9039369D01*
X9349769Y-9039369D01*
X9349769Y-9102231D01*
X9412631Y-9102231D01*
X9666631Y-9102231D02*
X9666631Y-9039369D01*
X9603769Y-9039369D01*
X9603769Y-9102231D01*
X9666631Y-9102231D01*
X9920631Y-9102231D02*
X9920631Y-9039369D01*
X9857769Y-9039369D01*
X9857769Y-9102231D01*
X9920631Y-9102231D01*
X16530631Y-10702231D02*
X16530631Y-10639369D01*
X16467769Y-10639369D01*
X16467769Y-10702231D01*
X16530631Y-10702231D01*
X16530631Y-10956231D02*
X16530631Y-10893369D01*
X16467769Y-10893369D01*
X16467769Y-10956231D01*
X16530631Y-10956231D01*
X16530631Y-11210231D02*
X16530631Y-11147369D01*
X16467769Y-11147369D01*
X16467769Y-11210231D01*
X16530631Y-11210231D01*
X17292631Y-11972231D02*
X17292631Y-11909369D01*
X17229769Y-11909369D01*
X17229769Y-11972231D01*
X17292631Y-11972231D01*
X17546631Y-11972231D02*
X17546631Y-11909369D01*
X17483769Y-11909369D01*
X17483769Y-11972231D01*
X17546631Y-11972231D01*
X17800631Y-11972231D02*
X17800631Y-11909369D01*
X17737769Y-11909369D01*
X17737769Y-11972231D01*
X17800631Y-11972231D01*
X9317700Y-6829800D02*
X9362700Y-6784800D01*
X9317700Y-6739800D01*
X9272700Y-6784800D01*
X9317700Y-6829800D01*
X9317700Y-7337800D02*
X9362700Y-7292800D01*
X9317700Y-7247800D01*
X9272700Y-7292800D01*
X9317700Y-7337800D01*
X9952700Y-6829800D02*
X9997700Y-6784800D01*
X9952700Y-6739800D01*
X9907700Y-6784800D01*
X9952700Y-6829800D01*
X9952700Y-7337800D02*
X9997700Y-7292800D01*
X9952700Y-7247800D01*
X9907700Y-7292800D01*
X9952700Y-7337800D01*
X14580500Y-6151625D02*
X14625500Y-6106625D01*
X14580500Y-6061625D01*
X14535500Y-6106625D01*
X14580500Y-6151625D01*
X17197700Y-9699800D02*
X17242700Y-9654800D01*
X17197700Y-9609800D01*
X17152700Y-9654800D01*
X17197700Y-9699800D01*
X17197700Y-10207800D02*
X17242700Y-10162800D01*
X17197700Y-10117800D01*
X17152700Y-10162800D01*
X17197700Y-10207800D01*
X17832700Y-9699800D02*
X17877700Y-9654800D01*
X17832700Y-9609800D01*
X17787700Y-9654800D01*
X17832700Y-9699800D01*
X17832700Y-10207800D02*
X17877700Y-10162800D01*
X17832700Y-10117800D01*
X17787700Y-10162800D01*
X17832700Y-10207800D01*
X9500500Y-10166500D02*
X9599500Y-10265500D01*
X9599500Y-10166500D02*
X9500500Y-10265500D01*
X9599500Y-10216000D02*
G75*
G02*
X9500500Y-10216000I-49500J0D01*
G01*
X9500500Y-10216000D02*
G75*
G02*
X9599500Y-10216000I49500J0D01*
G01*
X9500500Y-10420500D02*
X9599500Y-10519500D01*
X9599500Y-10420500D02*
X9500500Y-10519500D01*
X9599500Y-10470000D02*
G75*
G02*
X9500500Y-10470000I-49500J0D01*
G01*
X9500500Y-10470000D02*
G75*
G02*
X9599500Y-10470000I49500J0D01*
G01*
X9500500Y-10674500D02*
X9599500Y-10773500D01*
X9599500Y-10674500D02*
X9500500Y-10773500D01*
X9599500Y-10724000D02*
G75*
G02*
X9500500Y-10724000I-49500J0D01*
G01*
X9500500Y-10724000D02*
G75*
G02*
X9599500Y-10724000I49500J0D01*
G01*
X9558200Y-5125300D02*
X9657200Y-5224300D01*
X9657200Y-5125300D02*
X9558200Y-5224300D01*
X9657200Y-5174800D02*
G75*
G02*
X9558200Y-5174800I-49500J0D01*
G01*
X9558200Y-5174800D02*
G75*
G02*
X9657200Y-5174800I49500J0D01*
G01*
X10008200Y-5125300D02*
X10107200Y-5224300D01*
X10107200Y-5125300D02*
X10008200Y-5224300D01*
X10107200Y-5174800D02*
G75*
G02*
X10008200Y-5174800I-49500J0D01*
G01*
X10008200Y-5174800D02*
G75*
G02*
X10107200Y-5174800I49500J0D01*
G01*
X19763200Y-5125300D02*
X19862200Y-5224300D01*
X19862200Y-5125300D02*
X19763200Y-5224300D01*
X19862200Y-5174800D02*
G75*
G02*
X19763200Y-5174800I-49500J0D01*
G01*
X19763200Y-5174800D02*
G75*
G02*
X19862200Y-5174800I49500J0D01*
G01*
X20213200Y-5125300D02*
X20312200Y-5224300D01*
X20312200Y-5125300D02*
X20213200Y-5224300D01*
X20312200Y-5174800D02*
G75*
G02*
X20213200Y-5174800I-49500J0D01*
G01*
X20213200Y-5174800D02*
G75*
G02*
X20312200Y-5174800I49500J0D01*
G01*
X8710000Y-12030000D02*
X8810000Y-12130000D01*
X8810000Y-12030000D02*
X8710000Y-12130000D01*
X8760000Y-12030000D02*
X8760000Y-12130000D01*
X8710000Y-12080000D02*
X8810000Y-12080000D01*
X9470000Y-12030000D02*
X9570000Y-12130000D01*
X9570000Y-12030000D02*
X9470000Y-12130000D01*
X9520000Y-12030000D02*
X9520000Y-12130000D01*
X9470000Y-12080000D02*
X9570000Y-12080000D01*
X11253200Y-7876800D02*
X11353200Y-7976800D01*
X11353200Y-7876800D02*
X11253200Y-7976800D01*
X11303200Y-7876800D02*
X11303200Y-7976800D01*
X11253200Y-7926800D02*
X11353200Y-7926800D01*
X11253200Y-8130800D02*
X11353200Y-8230800D01*
X11353200Y-8130800D02*
X11253200Y-8230800D01*
X11303200Y-8130800D02*
X11303200Y-8230800D01*
X11253200Y-8180800D02*
X11353200Y-8180800D01*
X11253200Y-8384800D02*
X11353200Y-8484800D01*
X11353200Y-8384800D02*
X11253200Y-8484800D01*
X11303200Y-8384800D02*
X11303200Y-8484800D01*
X11253200Y-8434800D02*
X11353200Y-8434800D01*
X11253200Y-8638800D02*
X11353200Y-8738800D01*
X11353200Y-8638800D02*
X11253200Y-8738800D01*
X11303200Y-8638800D02*
X11303200Y-8738800D01*
X11253200Y-8688800D02*
X11353200Y-8688800D01*
X11253200Y-8892800D02*
X11353200Y-8992800D01*
X11353200Y-8892800D02*
X11253200Y-8992800D01*
X11303200Y-8892800D02*
X11303200Y-8992800D01*
X11253200Y-8942800D02*
X11353200Y-8942800D01*
X11253200Y-9146800D02*
X11353200Y-9246800D01*
X11353200Y-9146800D02*
X11253200Y-9246800D01*
X11303200Y-9146800D02*
X11303200Y-9246800D01*
X11253200Y-9196800D02*
X11353200Y-9196800D01*
X11253200Y-9400800D02*
X11353200Y-9500800D01*
X11353200Y-9400800D02*
X11253200Y-9500800D01*
X11303200Y-9400800D02*
X11303200Y-9500800D01*
X11253200Y-9450800D02*
X11353200Y-9450800D01*
X11253200Y-9654800D02*
X11353200Y-9754800D01*
X11353200Y-9654800D02*
X11253200Y-9754800D01*
X11303200Y-9654800D02*
X11303200Y-9754800D01*
X11253200Y-9704800D02*
X11353200Y-9704800D01*
X11253200Y-9908800D02*
X11353200Y-10008800D01*
X11353200Y-9908800D02*
X11253200Y-10008800D01*
X11303200Y-9908800D02*
X11303200Y-10008800D01*
X11253200Y-9958800D02*
X11353200Y-9958800D01*
X11253200Y-10162800D02*
X11353200Y-10262800D01*
X11353200Y-10162800D02*
X11253200Y-10262800D01*
X11303200Y-10162800D02*
X11303200Y-10262800D01*
X11253200Y-10212800D02*
X11353200Y-10212800D01*
X11253200Y-10416800D02*
X11353200Y-10516800D01*
X11353200Y-10416800D02*
X11253200Y-10516800D01*
X11303200Y-10416800D02*
X11303200Y-10516800D01*
X11253200Y-10466800D02*
X11353200Y-10466800D01*
X11253200Y-10670800D02*
X11353200Y-10770800D01*
X11353200Y-10670800D02*
X11253200Y-10770800D01*
X11303200Y-10670800D02*
X11303200Y-10770800D01*
X11253200Y-10720800D02*
X11353200Y-10720800D01*
X11253200Y-10924800D02*
X11353200Y-11024800D01*
X11353200Y-10924800D02*
X11253200Y-11024800D01*
X11303200Y-10924800D02*
X11303200Y-11024800D01*
X11253200Y-10974800D02*
X11353200Y-10974800D01*
X11253200Y-11178800D02*
X11353200Y-11278800D01*
X11353200Y-11178800D02*
X11253200Y-11278800D01*
X11303200Y-11178800D02*
X11303200Y-11278800D01*
X11253200Y-11228800D02*
X11353200Y-11228800D01*
X11253200Y-11432800D02*
X11353200Y-11532800D01*
X11353200Y-11432800D02*
X11253200Y-11532800D01*
X11303200Y-11432800D02*
X11303200Y-11532800D01*
X11253200Y-11482800D02*
X11353200Y-11482800D01*
X11561610Y-7049800D02*
X11661610Y-7149800D01*
X11661610Y-7049800D02*
X11561610Y-7149800D01*
X11611610Y-7049800D02*
X11611610Y-7149800D01*
X11561610Y-7099800D02*
X11661610Y-7099800D01*
X11815610Y-7049800D02*
X11915610Y-7149800D01*
X11915610Y-7049800D02*
X11815610Y-7149800D01*
X11865610Y-7049800D02*
X11865610Y-7149800D01*
X11815610Y-7099800D02*
X11915610Y-7099800D01*
X12069610Y-7049800D02*
X12169610Y-7149800D01*
X12169610Y-7049800D02*
X12069610Y-7149800D01*
X12119610Y-7049800D02*
X12119610Y-7149800D01*
X12069610Y-7099800D02*
X12169610Y-7099800D01*
X12777200Y-7876800D02*
X12877200Y-7976800D01*
X12877200Y-7876800D02*
X12777200Y-7976800D01*
X12827200Y-7876800D02*
X12827200Y-7976800D01*
X12777200Y-7926800D02*
X12877200Y-7926800D01*
X12777200Y-8130800D02*
X12877200Y-8230800D01*
X12877200Y-8130800D02*
X12777200Y-8230800D01*
X12827200Y-8130800D02*
X12827200Y-8230800D01*
X12777200Y-8180800D02*
X12877200Y-8180800D01*
X12777200Y-8384800D02*
X12877200Y-8484800D01*
X12877200Y-8384800D02*
X12777200Y-8484800D01*
X12827200Y-8384800D02*
X12827200Y-8484800D01*
X12777200Y-8434800D02*
X12877200Y-8434800D01*
X12777200Y-8638800D02*
X12877200Y-8738800D01*
X12877200Y-8638800D02*
X12777200Y-8738800D01*
X12827200Y-8638800D02*
X12827200Y-8738800D01*
X12777200Y-8688800D02*
X12877200Y-8688800D01*
X12777200Y-8892800D02*
X12877200Y-8992800D01*
X12877200Y-8892800D02*
X12777200Y-8992800D01*
X12827200Y-8892800D02*
X12827200Y-8992800D01*
X12777200Y-8942800D02*
X12877200Y-8942800D01*
X12777200Y-9146800D02*
X12877200Y-9246800D01*
X12877200Y-9146800D02*
X12777200Y-9246800D01*
X12827200Y-9146800D02*
X12827200Y-9246800D01*
X12777200Y-9196800D02*
X12877200Y-9196800D01*
X12777200Y-9400800D02*
X12877200Y-9500800D01*
X12877200Y-9400800D02*
X12777200Y-9500800D01*
X12827200Y-9400800D02*
X12827200Y-9500800D01*
X12777200Y-9450800D02*
X12877200Y-9450800D01*
X12777200Y-9654800D02*
X12877200Y-9754800D01*
X12877200Y-9654800D02*
X12777200Y-9754800D01*
X12827200Y-9654800D02*
X12827200Y-9754800D01*
X12777200Y-9704800D02*
X12877200Y-9704800D01*
X12777200Y-9908800D02*
X12877200Y-10008800D01*
X12877200Y-9908800D02*
X12777200Y-10008800D01*
X12827200Y-9908800D02*
X12827200Y-10008800D01*
X12777200Y-9958800D02*
X12877200Y-9958800D01*
X12777200Y-10162800D02*
X12877200Y-10262800D01*
X12877200Y-10162800D02*
X12777200Y-10262800D01*
X12827200Y-10162800D02*
X12827200Y-10262800D01*
X12777200Y-10212800D02*
X12877200Y-10212800D01*
X12777200Y-10416800D02*
X12877200Y-10516800D01*
X12877200Y-10416800D02*
X12777200Y-10516800D01*
X12827200Y-10416800D02*
X12827200Y-10516800D01*
X12777200Y-10466800D02*
X12877200Y-10466800D01*
X12777200Y-10670800D02*
X12877200Y-10770800D01*
X12877200Y-10670800D02*
X12777200Y-10770800D01*
X12827200Y-10670800D02*
X12827200Y-10770800D01*
X12777200Y-10720800D02*
X12877200Y-10720800D01*
X12777200Y-10924800D02*
X12877200Y-11024800D01*
X12877200Y-10924800D02*
X12777200Y-11024800D01*
X12827200Y-10924800D02*
X12827200Y-11024800D01*
X12777200Y-10974800D02*
X12877200Y-10974800D01*
X12777200Y-11178800D02*
X12877200Y-11278800D01*
X12877200Y-11178800D02*
X12777200Y-11278800D01*
X12827200Y-11178800D02*
X12827200Y-11278800D01*
X12777200Y-11228800D02*
X12877200Y-11228800D01*
X12777200Y-11432800D02*
X12877200Y-11532800D01*
X12877200Y-11432800D02*
X12777200Y-11532800D01*
X12827200Y-11432800D02*
X12827200Y-11532800D01*
X12777200Y-11482800D02*
X12877200Y-11482800D01*
X14503200Y-11989600D02*
X14603200Y-12089600D01*
X14603200Y-11989600D02*
X14503200Y-12089600D01*
X14553200Y-11989600D02*
X14553200Y-12089600D01*
X14503200Y-12039600D02*
X14603200Y-12039600D01*
X14757200Y-11989600D02*
X14857200Y-12089600D01*
X14857200Y-11989600D02*
X14757200Y-12089600D01*
X14807200Y-11989600D02*
X14807200Y-12089600D01*
X14757200Y-12039600D02*
X14857200Y-12039600D01*
X14784500Y-6056625D02*
X14884500Y-6156625D01*
X14884500Y-6056625D02*
X14784500Y-6156625D01*
X14834500Y-6056625D02*
X14834500Y-6156625D01*
X14784500Y-6106625D02*
X14884500Y-6106625D01*
X15011200Y-11989600D02*
X15111200Y-12089600D01*
X15111200Y-11989600D02*
X15011200Y-12089600D01*
X15061200Y-11989600D02*
X15061200Y-12089600D01*
X15011200Y-12039600D02*
X15111200Y-12039600D01*
X15038500Y-6056625D02*
X15138500Y-6156625D01*
X15138500Y-6056625D02*
X15038500Y-6156625D01*
X15088500Y-6056625D02*
X15088500Y-6156625D01*
X15038500Y-6106625D02*
X15138500Y-6106625D01*
X15265200Y-11989600D02*
X15365200Y-12089600D01*
X15365200Y-11989600D02*
X15265200Y-12089600D01*
X15315200Y-11989600D02*
X15315200Y-12089600D01*
X15265200Y-12039600D02*
X15365200Y-12039600D01*
X15292500Y-6056625D02*
X15392500Y-6156625D01*
X15392500Y-6056625D02*
X15292500Y-6156625D01*
X15342500Y-6056625D02*
X15342500Y-6156625D01*
X15292500Y-6106625D02*
X15392500Y-6106625D01*
X17656410Y-7049800D02*
X17756410Y-7149800D01*
X17756410Y-7049800D02*
X17656410Y-7149800D01*
X17706410Y-7049800D02*
X17706410Y-7149800D01*
X17656410Y-7099800D02*
X17756410Y-7099800D01*
X17910410Y-7049800D02*
X18010410Y-7149800D01*
X18010410Y-7049800D02*
X17910410Y-7149800D01*
X17960410Y-7049800D02*
X17960410Y-7149800D01*
X17910410Y-7099800D02*
X18010410Y-7099800D01*
X18164410Y-7049800D02*
X18264410Y-7149800D01*
X18264410Y-7049800D02*
X18164410Y-7149800D01*
X18214410Y-7049800D02*
X18214410Y-7149800D01*
X18164410Y-7099800D02*
X18264410Y-7099800D01*
X19965200Y-7951500D02*
X20065200Y-8051500D01*
X20065200Y-7951500D02*
X19965200Y-8051500D01*
X20015200Y-7951500D02*
X20015200Y-8051500D01*
X19965200Y-8001500D02*
X20065200Y-8001500D01*
X19965200Y-8205500D02*
X20065200Y-8305500D01*
X20065200Y-8205500D02*
X19965200Y-8305500D01*
X20015200Y-8205500D02*
X20015200Y-8305500D01*
X19965200Y-8255500D02*
X20065200Y-8255500D01*
D12*
X20468200Y-7565000D02*
X20578200Y-7675000D01*
X20578200Y-7565000D02*
X20468200Y-7675000D01*
X20562091Y-7658891D02*
X20562091Y-7581109D01*
X20484309Y-7581109D01*
X20484309Y-7658891D01*
X20562091Y-7658891D01*
X20468200Y-8581000D02*
X20578200Y-8691000D01*
X20578200Y-8581000D02*
X20468200Y-8691000D01*
X20562091Y-8674891D02*
X20562091Y-8597109D01*
X20484309Y-8597109D01*
X20484309Y-8674891D01*
X20562091Y-8674891D01*
D13*
X9417200Y-5358800D02*
X9547200Y-5488800D01*
X9547200Y-5358800D02*
X9417200Y-5488800D01*
X9482200Y-5488800D02*
X9547200Y-5423800D01*
X9482200Y-5358800D01*
X9417200Y-5423800D01*
X9482200Y-5488800D01*
X10118200Y-5358800D02*
X10248200Y-5488800D01*
X10248200Y-5358800D02*
X10118200Y-5488800D01*
X10183200Y-5488800D02*
X10248200Y-5423800D01*
X10183200Y-5358800D01*
X10118200Y-5423800D01*
X10183200Y-5488800D01*
X18283400Y-7423800D02*
X18413400Y-7553800D01*
X18413400Y-7423800D02*
X18283400Y-7553800D01*
X18348400Y-7553800D02*
X18413400Y-7488800D01*
X18348400Y-7423800D01*
X18283400Y-7488800D01*
X18348400Y-7553800D01*
X18283400Y-8673800D02*
X18413400Y-8803800D01*
X18413400Y-8673800D02*
X18283400Y-8803800D01*
X18348400Y-8803800D02*
X18413400Y-8738800D01*
X18348400Y-8673800D01*
X18283400Y-8738800D01*
X18348400Y-8803800D01*
X18783400Y-7423800D02*
X18913400Y-7553800D01*
X18913400Y-7423800D02*
X18783400Y-7553800D01*
X18848400Y-7553800D02*
X18913400Y-7488800D01*
X18848400Y-7423800D01*
X18783400Y-7488800D01*
X18848400Y-7553800D01*
X18783400Y-8673800D02*
X18913400Y-8803800D01*
X18913400Y-8673800D02*
X18783400Y-8803800D01*
X18848400Y-8803800D02*
X18913400Y-8738800D01*
X18848400Y-8673800D01*
X18783400Y-8738800D01*
X18848400Y-8803800D01*
X19356200Y-6339800D02*
X19486200Y-6469800D01*
X19486200Y-6339800D02*
X19356200Y-6469800D01*
X19421200Y-6469800D02*
X19486200Y-6404800D01*
X19421200Y-6339800D01*
X19356200Y-6404800D01*
X19421200Y-6469800D01*
X19356200Y-6839800D02*
X19486200Y-6969800D01*
X19486200Y-6839800D02*
X19356200Y-6969800D01*
X19421200Y-6969800D02*
X19486200Y-6904800D01*
X19421200Y-6839800D01*
X19356200Y-6904800D01*
X19421200Y-6969800D01*
X19356200Y-9235400D02*
X19486200Y-9365400D01*
X19486200Y-9235400D02*
X19356200Y-9365400D01*
X19421200Y-9365400D02*
X19486200Y-9300400D01*
X19421200Y-9235400D01*
X19356200Y-9300400D01*
X19421200Y-9365400D01*
X19356200Y-9735400D02*
X19486200Y-9865400D01*
X19486200Y-9735400D02*
X19356200Y-9865400D01*
X19421200Y-9865400D02*
X19486200Y-9800400D01*
X19421200Y-9735400D01*
X19356200Y-9800400D01*
X19421200Y-9865400D01*
X19622200Y-5358800D02*
X19752200Y-5488800D01*
X19752200Y-5358800D02*
X19622200Y-5488800D01*
X19687200Y-5488800D02*
X19752200Y-5423800D01*
X19687200Y-5358800D01*
X19622200Y-5423800D01*
X19687200Y-5488800D01*
X20323200Y-5358800D02*
X20453200Y-5488800D01*
X20453200Y-5358800D02*
X20323200Y-5488800D01*
X20388200Y-5488800D02*
X20453200Y-5423800D01*
X20388200Y-5358800D01*
X20323200Y-5423800D01*
X20388200Y-5488800D01*
X20606200Y-6339800D02*
X20736200Y-6469800D01*
X20736200Y-6339800D02*
X20606200Y-6469800D01*
X20671200Y-6469800D02*
X20736200Y-6404800D01*
X20671200Y-6339800D01*
X20606200Y-6404800D01*
X20671200Y-6469800D01*
X20606200Y-6839800D02*
X20736200Y-6969800D01*
X20736200Y-6839800D02*
X20606200Y-6969800D01*
X20671200Y-6969800D02*
X20736200Y-6904800D01*
X20671200Y-6839800D01*
X20606200Y-6904800D01*
X20671200Y-6969800D01*
X20606200Y-9235400D02*
X20736200Y-9365400D01*
X20736200Y-9235400D02*
X20606200Y-9365400D01*
X20671200Y-9365400D02*
X20736200Y-9300400D01*
X20671200Y-9235400D01*
X20606200Y-9300400D01*
X20671200Y-9365400D01*
X20606200Y-9735400D02*
X20736200Y-9865400D01*
X20736200Y-9735400D02*
X20606200Y-9865400D01*
X20671200Y-9865400D02*
X20736200Y-9800400D01*
X20671200Y-9735400D01*
X20606200Y-9800400D01*
X20671200Y-9865400D01*
X21179000Y-7423800D02*
X21309000Y-7553800D01*
X21309000Y-7423800D02*
X21179000Y-7553800D01*
X21244000Y-7553800D02*
X21309000Y-7488800D01*
X21244000Y-7423800D01*
X21179000Y-7488800D01*
X21244000Y-7553800D01*
X21179000Y-8673800D02*
X21309000Y-8803800D01*
X21309000Y-8673800D02*
X21179000Y-8803800D01*
X21244000Y-8803800D02*
X21309000Y-8738800D01*
X21244000Y-8673800D01*
X21179000Y-8738800D01*
X21244000Y-8803800D01*
X21679000Y-7423800D02*
X21809000Y-7553800D01*
X21809000Y-7423800D02*
X21679000Y-7553800D01*
X21744000Y-7553800D02*
X21809000Y-7488800D01*
X21744000Y-7423800D01*
X21679000Y-7488800D01*
X21744000Y-7553800D01*
X21679000Y-8673800D02*
X21809000Y-8803800D01*
X21809000Y-8673800D02*
X21679000Y-8803800D01*
X21744000Y-8803800D02*
X21809000Y-8738800D01*
X21744000Y-8673800D01*
X21679000Y-8738800D01*
X21744000Y-8803800D01*
D14*
X8873200Y-7318200D02*
X8873200Y-7457900D01*
X8803350Y-7388050D02*
X8943050Y-7388050D01*
X8943050Y-7388050D02*
G75*
G02*
X8803350Y-7388050I-69850J0D01*
G01*
X8803350Y-7388050D02*
G75*
G02*
X8943050Y-7388050I69850J0D01*
G01*
X8873200Y-8651700D02*
X8873200Y-8791400D01*
X8803350Y-8721550D02*
X8943050Y-8721550D01*
X8943050Y-8721550D02*
G75*
G02*
X8803350Y-8721550I-69850J0D01*
G01*
X8803350Y-8721550D02*
G75*
G02*
X8943050Y-8721550I69850J0D01*
G01*
X10397200Y-7318200D02*
X10397200Y-7457900D01*
X10327350Y-7388050D02*
X10467050Y-7388050D01*
X10467050Y-7388050D02*
G75*
G02*
X10327350Y-7388050I-69850J0D01*
G01*
X10327350Y-7388050D02*
G75*
G02*
X10467050Y-7388050I69850J0D01*
G01*
X10397200Y-8651700D02*
X10397200Y-8791400D01*
X10327350Y-8721550D02*
X10467050Y-8721550D01*
X10467050Y-8721550D02*
G75*
G02*
X10327350Y-8721550I-69850J0D01*
G01*
X10327350Y-8721550D02*
G75*
G02*
X10467050Y-8721550I69850J0D01*
G01*
X16753200Y-10188200D02*
X16753200Y-10327900D01*
X16683350Y-10258050D02*
X16823050Y-10258050D01*
X16823050Y-10258050D02*
G75*
G02*
X16683350Y-10258050I-69850J0D01*
G01*
X16683350Y-10258050D02*
G75*
G02*
X16823050Y-10258050I69850J0D01*
G01*
X16753200Y-11521700D02*
X16753200Y-11661400D01*
X16683350Y-11591550D02*
X16823050Y-11591550D01*
X16823050Y-11591550D02*
G75*
G02*
X16683350Y-11591550I-69850J0D01*
G01*
X16683350Y-11591550D02*
G75*
G02*
X16823050Y-11591550I69850J0D01*
G01*
X18277200Y-10188200D02*
X18277200Y-10327900D01*
X18207350Y-10258050D02*
X18347050Y-10258050D01*
X18347050Y-10258050D02*
G75*
G02*
X18207350Y-10258050I-69850J0D01*
G01*
X18207350Y-10258050D02*
G75*
G02*
X18347050Y-10258050I69850J0D01*
G01*
X18277200Y-11521700D02*
X18277200Y-11661400D01*
X18207350Y-11591550D02*
X18347050Y-11591550D01*
X18347050Y-11591550D02*
G75*
G02*
X18207350Y-11591550I-69850J0D01*
G01*
X18207350Y-11591550D02*
G75*
G02*
X18347050Y-11591550I69850J0D01*
G01*
D15*
X11425250Y-6463440D02*
X11425250Y-6336160D01*
X11297969Y-6336160D01*
X11297969Y-6463440D01*
X11425250Y-6463440D01*
X11451610Y-6399800D02*
G75*
G02*
X11271610Y-6399800I-90000J0D01*
G01*
X11271610Y-6399800D02*
G75*
G02*
X11451610Y-6399800I90000J0D01*
G01*
D11*
X11451610Y-6414800D02*
X11451610Y-6384800D01*
X11271610Y-6384800D02*
G75*
G02*
X11451610Y-6384800I90000J0D01*
G01*
X11271610Y-6384800D02*
X11271610Y-6414800D01*
X11271610Y-6414800D02*
G75*
G03*
X11451610Y-6414800I90000J0D01*
G01*
D15*
X12425250Y-6463440D02*
X12425250Y-6336160D01*
X12297969Y-6336160D01*
X12297969Y-6463440D01*
X12425250Y-6463440D01*
X12451610Y-6399800D02*
G75*
G02*
X12271610Y-6399800I-90000J0D01*
G01*
X12271610Y-6399800D02*
G75*
G02*
X12451610Y-6399800I90000J0D01*
G01*
D11*
X12451610Y-6414800D02*
X12451610Y-6384800D01*
X12271610Y-6384800D02*
G75*
G02*
X12451610Y-6384800I90000J0D01*
G01*
X12271610Y-6384800D02*
X12271610Y-6414800D01*
X12271610Y-6414800D02*
G75*
G03*
X12451610Y-6414800I90000J0D01*
G01*
D15*
X17520050Y-6463440D02*
X17520050Y-6336160D01*
X17392769Y-6336160D01*
X17392769Y-6463440D01*
X17520050Y-6463440D01*
X17546410Y-6399800D02*
G75*
G02*
X17366410Y-6399800I-90000J0D01*
G01*
X17366410Y-6399800D02*
G75*
G02*
X17546410Y-6399800I90000J0D01*
G01*
D11*
X17546410Y-6414800D02*
X17546410Y-6384800D01*
X17366410Y-6384800D02*
G75*
G02*
X17546410Y-6384800I90000J0D01*
G01*
X17366410Y-6384800D02*
X17366410Y-6414800D01*
X17366410Y-6414800D02*
G75*
G03*
X17546410Y-6414800I90000J0D01*
G01*
D15*
X18520050Y-6463440D02*
X18520050Y-6336160D01*
X18392769Y-6336160D01*
X18392769Y-6463440D01*
X18520050Y-6463440D01*
X18546410Y-6399800D02*
G75*
G02*
X18366410Y-6399800I-90000J0D01*
G01*
X18366410Y-6399800D02*
G75*
G02*
X18546410Y-6399800I90000J0D01*
G01*
D11*
X18546410Y-6414800D02*
X18546410Y-6384800D01*
X18366410Y-6384800D02*
G75*
G02*
X18546410Y-6384800I90000J0D01*
G01*
X18366410Y-6384800D02*
X18366410Y-6414800D01*
X18366410Y-6414800D02*
G75*
G03*
X18546410Y-6414800I90000J0D01*
G01*
D16*
X8380200Y-6724800D02*
X8530200Y-6574800D01*
X8380200Y-6424800D01*
X8230200Y-6574800D01*
X8380200Y-6724800D01*
X8530200Y-6574800D02*
G75*
G02*
X8230200Y-6574800I-150000J0D01*
G01*
X8230200Y-6574800D02*
G75*
G02*
X8530200Y-6574800I150000J0D01*
G01*
X8995200Y-14284800D02*
X9145200Y-14134800D01*
X8995200Y-13984800D01*
X8845200Y-14134800D01*
X8995200Y-14284800D01*
X9145200Y-14134800D02*
G75*
G02*
X8845200Y-14134800I-150000J0D01*
G01*
X8845200Y-14134800D02*
G75*
G02*
X9145200Y-14134800I150000J0D01*
G01*
X13292700Y-5414800D02*
X13442700Y-5264800D01*
X13292700Y-5114800D01*
X13142700Y-5264800D01*
X13292700Y-5414800D01*
X13442700Y-5264800D02*
G75*
G02*
X13142700Y-5264800I-150000J0D01*
G01*
X13142700Y-5264800D02*
G75*
G02*
X13442700Y-5264800I150000J0D01*
G01*
X16577700Y-5414800D02*
X16727700Y-5264800D01*
X16577700Y-5114800D01*
X16427700Y-5264800D01*
X16577700Y-5414800D01*
X16727700Y-5264800D02*
G75*
G02*
X16427700Y-5264800I-150000J0D01*
G01*
X16427700Y-5264800D02*
G75*
G02*
X16727700Y-5264800I150000J0D01*
G01*
X20875200Y-14284800D02*
X21025200Y-14134800D01*
X20875200Y-13984800D01*
X20725200Y-14134800D01*
X20875200Y-14284800D01*
X21025200Y-14134800D02*
G75*
G02*
X20725200Y-14134800I-150000J0D01*
G01*
X20725200Y-14134800D02*
G75*
G02*
X21025200Y-14134800I150000J0D01*
G01*
X21490200Y-6724800D02*
X21640200Y-6574800D01*
X21490200Y-6424800D01*
X21340200Y-6574800D01*
X21490200Y-6724800D01*
X21640200Y-6574800D02*
G75*
G02*
X21340200Y-6574800I-150000J0D01*
G01*
X21340200Y-6574800D02*
G75*
G02*
X21640200Y-6574800I150000J0D01*
G01*
D10*
X7685977Y-15396285D02*
X7685977Y-15196285D01*
X7685977Y-15196285D02*
X7733596Y-15196285D01*
X7733596Y-15196285D02*
X7762167Y-15205809D01*
X7762167Y-15205809D02*
X7781215Y-15224856D01*
X7781215Y-15224856D02*
X7790739Y-15243904D01*
X7790739Y-15243904D02*
X7800262Y-15281999D01*
X7800262Y-15281999D02*
X7800262Y-15310571D01*
X7800262Y-15310571D02*
X7790739Y-15348666D01*
X7790739Y-15348666D02*
X7781215Y-15367714D01*
X7781215Y-15367714D02*
X7762167Y-15386761D01*
X7762167Y-15386761D02*
X7733596Y-15396285D01*
X7733596Y-15396285D02*
X7685977Y-15396285D01*
X7885977Y-15396285D02*
X7885977Y-15262952D01*
X7885977Y-15301047D02*
X7895501Y-15281999D01*
X7895501Y-15281999D02*
X7905024Y-15272475D01*
X7905024Y-15272475D02*
X7924072Y-15262952D01*
X7924072Y-15262952D02*
X7943120Y-15262952D01*
X8009786Y-15396285D02*
X8009786Y-15262952D01*
X8009786Y-15196285D02*
X8000262Y-15205809D01*
X8000262Y-15205809D02*
X8009786Y-15215333D01*
X8009786Y-15215333D02*
X8019310Y-15205809D01*
X8019310Y-15205809D02*
X8009786Y-15196285D01*
X8009786Y-15196285D02*
X8009786Y-15215333D01*
X8133596Y-15396285D02*
X8114548Y-15386761D01*
X8114548Y-15386761D02*
X8105024Y-15367714D01*
X8105024Y-15367714D02*
X8105024Y-15196285D01*
X8238358Y-15396285D02*
X8219310Y-15386761D01*
X8219310Y-15386761D02*
X8209786Y-15367714D01*
X8209786Y-15367714D02*
X8209786Y-15196285D01*
X8466929Y-15396285D02*
X8466929Y-15196285D01*
X8466929Y-15196285D02*
X8533596Y-15339142D01*
X8533596Y-15339142D02*
X8600263Y-15196285D01*
X8600263Y-15196285D02*
X8600263Y-15396285D01*
X8781215Y-15396285D02*
X8781215Y-15291523D01*
X8781215Y-15291523D02*
X8771691Y-15272475D01*
X8771691Y-15272475D02*
X8752644Y-15262952D01*
X8752644Y-15262952D02*
X8714548Y-15262952D01*
X8714548Y-15262952D02*
X8695501Y-15272475D01*
X8781215Y-15386761D02*
X8762167Y-15396285D01*
X8762167Y-15396285D02*
X8714548Y-15396285D01*
X8714548Y-15396285D02*
X8695501Y-15386761D01*
X8695501Y-15386761D02*
X8685977Y-15367714D01*
X8685977Y-15367714D02*
X8685977Y-15348666D01*
X8685977Y-15348666D02*
X8695501Y-15329618D01*
X8695501Y-15329618D02*
X8714548Y-15320095D01*
X8714548Y-15320095D02*
X8762167Y-15320095D01*
X8762167Y-15320095D02*
X8781215Y-15310571D01*
X8876453Y-15262952D02*
X8876453Y-15462952D01*
X8876453Y-15272475D02*
X8895501Y-15262952D01*
X8895501Y-15262952D02*
X8933596Y-15262952D01*
X8933596Y-15262952D02*
X8952644Y-15272475D01*
X8952644Y-15272475D02*
X8962167Y-15281999D01*
X8962167Y-15281999D02*
X8971691Y-15301047D01*
X8971691Y-15301047D02*
X8971691Y-15358190D01*
X8971691Y-15358190D02*
X8962167Y-15377237D01*
X8962167Y-15377237D02*
X8952644Y-15386761D01*
X8952644Y-15386761D02*
X8933596Y-15396285D01*
X8933596Y-15396285D02*
X8895501Y-15396285D01*
X8895501Y-15396285D02*
X8876453Y-15386761D01*
X9057405Y-15377237D02*
X9066929Y-15386761D01*
X9066929Y-15386761D02*
X9057405Y-15396285D01*
X9057405Y-15396285D02*
X9047882Y-15386761D01*
X9047882Y-15386761D02*
X9057405Y-15377237D01*
X9057405Y-15377237D02*
X9057405Y-15396285D01*
X9057405Y-15272475D02*
X9066929Y-15281999D01*
X9066929Y-15281999D02*
X9057405Y-15291523D01*
X9057405Y-15291523D02*
X9047882Y-15281999D01*
X9047882Y-15281999D02*
X9057405Y-15272475D01*
X9057405Y-15272475D02*
X9057405Y-15291523D01*
D11*
X7395200Y-15709801D02*
X7425200Y-15739801D01*
X7425200Y-15709801D02*
X7395200Y-15739801D01*
D10*
X7724072Y-15616285D02*
X7743120Y-15616285D01*
X7743120Y-15616285D02*
X7762167Y-15625809D01*
X7762167Y-15625809D02*
X7771691Y-15635333D01*
X7771691Y-15635333D02*
X7781215Y-15654380D01*
X7781215Y-15654380D02*
X7790739Y-15692475D01*
X7790739Y-15692475D02*
X7790739Y-15740095D01*
X7790739Y-15740095D02*
X7781215Y-15778190D01*
X7781215Y-15778190D02*
X7771691Y-15797237D01*
X7771691Y-15797237D02*
X7762167Y-15806761D01*
X7762167Y-15806761D02*
X7743120Y-15816285D01*
X7743120Y-15816285D02*
X7724072Y-15816285D01*
X7724072Y-15816285D02*
X7705024Y-15806761D01*
X7705024Y-15806761D02*
X7695501Y-15797237D01*
X7695501Y-15797237D02*
X7685977Y-15778190D01*
X7685977Y-15778190D02*
X7676453Y-15740095D01*
X7676453Y-15740095D02*
X7676453Y-15692475D01*
X7676453Y-15692475D02*
X7685977Y-15654380D01*
X7685977Y-15654380D02*
X7695501Y-15635333D01*
X7695501Y-15635333D02*
X7705024Y-15625809D01*
X7705024Y-15625809D02*
X7724072Y-15616285D01*
X7876453Y-15797237D02*
X7885977Y-15806761D01*
X7885977Y-15806761D02*
X7876453Y-15816285D01*
X7876453Y-15816285D02*
X7866929Y-15806761D01*
X7866929Y-15806761D02*
X7876453Y-15797237D01*
X7876453Y-15797237D02*
X7876453Y-15816285D01*
X7952643Y-15616285D02*
X8076453Y-15616285D01*
X8076453Y-15616285D02*
X8009786Y-15692475D01*
X8009786Y-15692475D02*
X8038358Y-15692475D01*
X8038358Y-15692475D02*
X8057405Y-15701999D01*
X8057405Y-15701999D02*
X8066929Y-15711523D01*
X8066929Y-15711523D02*
X8076453Y-15730571D01*
X8076453Y-15730571D02*
X8076453Y-15778190D01*
X8076453Y-15778190D02*
X8066929Y-15797237D01*
X8066929Y-15797237D02*
X8057405Y-15806761D01*
X8057405Y-15806761D02*
X8038358Y-15816285D01*
X8038358Y-15816285D02*
X7981215Y-15816285D01*
X7981215Y-15816285D02*
X7962167Y-15806761D01*
X7962167Y-15806761D02*
X7952643Y-15797237D01*
X8200262Y-15616285D02*
X8219310Y-15616285D01*
X8219310Y-15616285D02*
X8238358Y-15625809D01*
X8238358Y-15625809D02*
X8247882Y-15635333D01*
X8247882Y-15635333D02*
X8257405Y-15654380D01*
X8257405Y-15654380D02*
X8266929Y-15692475D01*
X8266929Y-15692475D02*
X8266929Y-15740095D01*
X8266929Y-15740095D02*
X8257405Y-15778190D01*
X8257405Y-15778190D02*
X8247882Y-15797237D01*
X8247882Y-15797237D02*
X8238358Y-15806761D01*
X8238358Y-15806761D02*
X8219310Y-15816285D01*
X8219310Y-15816285D02*
X8200262Y-15816285D01*
X8200262Y-15816285D02*
X8181215Y-15806761D01*
X8181215Y-15806761D02*
X8171691Y-15797237D01*
X8171691Y-15797237D02*
X8162167Y-15778190D01*
X8162167Y-15778190D02*
X8152643Y-15740095D01*
X8152643Y-15740095D02*
X8152643Y-15692475D01*
X8152643Y-15692475D02*
X8162167Y-15654380D01*
X8162167Y-15654380D02*
X8171691Y-15635333D01*
X8171691Y-15635333D02*
X8181215Y-15625809D01*
X8181215Y-15625809D02*
X8200262Y-15616285D01*
X8390739Y-15616285D02*
X8409786Y-15616285D01*
X8409786Y-15616285D02*
X8428834Y-15625809D01*
X8428834Y-15625809D02*
X8438358Y-15635333D01*
X8438358Y-15635333D02*
X8447882Y-15654380D01*
X8447882Y-15654380D02*
X8457405Y-15692475D01*
X8457405Y-15692475D02*
X8457405Y-15740095D01*
X8457405Y-15740095D02*
X8447882Y-15778190D01*
X8447882Y-15778190D02*
X8438358Y-15797237D01*
X8438358Y-15797237D02*
X8428834Y-15806761D01*
X8428834Y-15806761D02*
X8409786Y-15816285D01*
X8409786Y-15816285D02*
X8390739Y-15816285D01*
X8390739Y-15816285D02*
X8371691Y-15806761D01*
X8371691Y-15806761D02*
X8362167Y-15797237D01*
X8362167Y-15797237D02*
X8352643Y-15778190D01*
X8352643Y-15778190D02*
X8343120Y-15740095D01*
X8343120Y-15740095D02*
X8343120Y-15692475D01*
X8343120Y-15692475D02*
X8352643Y-15654380D01*
X8352643Y-15654380D02*
X8362167Y-15635333D01*
X8362167Y-15635333D02*
X8371691Y-15625809D01*
X8371691Y-15625809D02*
X8390739Y-15616285D01*
X8543120Y-15816285D02*
X8543120Y-15682952D01*
X8543120Y-15701999D02*
X8552644Y-15692475D01*
X8552644Y-15692475D02*
X8571691Y-15682952D01*
X8571691Y-15682952D02*
X8600263Y-15682952D01*
X8600263Y-15682952D02*
X8619310Y-15692475D01*
X8619310Y-15692475D02*
X8628834Y-15711523D01*
X8628834Y-15711523D02*
X8628834Y-15816285D01*
X8628834Y-15711523D02*
X8638358Y-15692475D01*
X8638358Y-15692475D02*
X8657405Y-15682952D01*
X8657405Y-15682952D02*
X8685977Y-15682952D01*
X8685977Y-15682952D02*
X8705025Y-15692475D01*
X8705025Y-15692475D02*
X8714548Y-15711523D01*
X8714548Y-15711523D02*
X8714548Y-15816285D01*
X8809786Y-15816285D02*
X8809786Y-15682952D01*
X8809786Y-15701999D02*
X8819310Y-15692475D01*
X8819310Y-15692475D02*
X8838358Y-15682952D01*
X8838358Y-15682952D02*
X8866929Y-15682952D01*
X8866929Y-15682952D02*
X8885977Y-15692475D01*
X8885977Y-15692475D02*
X8895501Y-15711523D01*
X8895501Y-15711523D02*
X8895501Y-15816285D01*
X8895501Y-15711523D02*
X8905025Y-15692475D01*
X8905025Y-15692475D02*
X8924072Y-15682952D01*
X8924072Y-15682952D02*
X8952644Y-15682952D01*
X8952644Y-15682952D02*
X8971691Y-15692475D01*
X8971691Y-15692475D02*
X8981215Y-15711523D01*
X8981215Y-15711523D02*
X8981215Y-15816285D01*
X9371691Y-15606761D02*
X9200263Y-15863904D01*
X9628834Y-15616285D02*
X9647882Y-15616285D01*
X9647882Y-15616285D02*
X9666929Y-15625809D01*
X9666929Y-15625809D02*
X9676453Y-15635333D01*
X9676453Y-15635333D02*
X9685977Y-15654380D01*
X9685977Y-15654380D02*
X9695501Y-15692475D01*
X9695501Y-15692475D02*
X9695501Y-15740095D01*
X9695501Y-15740095D02*
X9685977Y-15778190D01*
X9685977Y-15778190D02*
X9676453Y-15797237D01*
X9676453Y-15797237D02*
X9666929Y-15806761D01*
X9666929Y-15806761D02*
X9647882Y-15816285D01*
X9647882Y-15816285D02*
X9628834Y-15816285D01*
X9628834Y-15816285D02*
X9609787Y-15806761D01*
X9609787Y-15806761D02*
X9600263Y-15797237D01*
X9600263Y-15797237D02*
X9590739Y-15778190D01*
X9590739Y-15778190D02*
X9581215Y-15740095D01*
X9581215Y-15740095D02*
X9581215Y-15692475D01*
X9581215Y-15692475D02*
X9590739Y-15654380D01*
X9590739Y-15654380D02*
X9600263Y-15635333D01*
X9600263Y-15635333D02*
X9609787Y-15625809D01*
X9609787Y-15625809D02*
X9628834Y-15616285D01*
X9781215Y-15797237D02*
X9790739Y-15806761D01*
X9790739Y-15806761D02*
X9781215Y-15816285D01*
X9781215Y-15816285D02*
X9771691Y-15806761D01*
X9771691Y-15806761D02*
X9781215Y-15797237D01*
X9781215Y-15797237D02*
X9781215Y-15816285D01*
X9914548Y-15616285D02*
X9933596Y-15616285D01*
X9933596Y-15616285D02*
X9952644Y-15625809D01*
X9952644Y-15625809D02*
X9962168Y-15635333D01*
X9962168Y-15635333D02*
X9971691Y-15654380D01*
X9971691Y-15654380D02*
X9981215Y-15692475D01*
X9981215Y-15692475D02*
X9981215Y-15740095D01*
X9981215Y-15740095D02*
X9971691Y-15778190D01*
X9971691Y-15778190D02*
X9962168Y-15797237D01*
X9962168Y-15797237D02*
X9952644Y-15806761D01*
X9952644Y-15806761D02*
X9933596Y-15816285D01*
X9933596Y-15816285D02*
X9914548Y-15816285D01*
X9914548Y-15816285D02*
X9895501Y-15806761D01*
X9895501Y-15806761D02*
X9885977Y-15797237D01*
X9885977Y-15797237D02*
X9876453Y-15778190D01*
X9876453Y-15778190D02*
X9866929Y-15740095D01*
X9866929Y-15740095D02*
X9866929Y-15692475D01*
X9866929Y-15692475D02*
X9876453Y-15654380D01*
X9876453Y-15654380D02*
X9885977Y-15635333D01*
X9885977Y-15635333D02*
X9895501Y-15625809D01*
X9895501Y-15625809D02*
X9914548Y-15616285D01*
X10171691Y-15816285D02*
X10057406Y-15816285D01*
X10114548Y-15816285D02*
X10114548Y-15616285D01*
X10114548Y-15616285D02*
X10095501Y-15644856D01*
X10095501Y-15644856D02*
X10076453Y-15663904D01*
X10076453Y-15663904D02*
X10057406Y-15673428D01*
X10362168Y-15816285D02*
X10247882Y-15816285D01*
X10305025Y-15816285D02*
X10305025Y-15616285D01*
X10305025Y-15616285D02*
X10285977Y-15644856D01*
X10285977Y-15644856D02*
X10266929Y-15663904D01*
X10266929Y-15663904D02*
X10247882Y-15673428D01*
X10476453Y-15701999D02*
X10457406Y-15692475D01*
X10457406Y-15692475D02*
X10447882Y-15682952D01*
X10447882Y-15682952D02*
X10438358Y-15663904D01*
X10438358Y-15663904D02*
X10438358Y-15654380D01*
X10438358Y-15654380D02*
X10447882Y-15635333D01*
X10447882Y-15635333D02*
X10457406Y-15625809D01*
X10457406Y-15625809D02*
X10476453Y-15616285D01*
X10476453Y-15616285D02*
X10514549Y-15616285D01*
X10514549Y-15616285D02*
X10533596Y-15625809D01*
X10533596Y-15625809D02*
X10543120Y-15635333D01*
X10543120Y-15635333D02*
X10552644Y-15654380D01*
X10552644Y-15654380D02*
X10552644Y-15663904D01*
X10552644Y-15663904D02*
X10543120Y-15682952D01*
X10543120Y-15682952D02*
X10533596Y-15692475D01*
X10533596Y-15692475D02*
X10514549Y-15701999D01*
X10514549Y-15701999D02*
X10476453Y-15701999D01*
X10476453Y-15701999D02*
X10457406Y-15711523D01*
X10457406Y-15711523D02*
X10447882Y-15721047D01*
X10447882Y-15721047D02*
X10438358Y-15740095D01*
X10438358Y-15740095D02*
X10438358Y-15778190D01*
X10438358Y-15778190D02*
X10447882Y-15797237D01*
X10447882Y-15797237D02*
X10457406Y-15806761D01*
X10457406Y-15806761D02*
X10476453Y-15816285D01*
X10476453Y-15816285D02*
X10514549Y-15816285D01*
X10514549Y-15816285D02*
X10533596Y-15806761D01*
X10533596Y-15806761D02*
X10543120Y-15797237D01*
X10543120Y-15797237D02*
X10552644Y-15778190D01*
X10552644Y-15778190D02*
X10552644Y-15740095D01*
X10552644Y-15740095D02*
X10543120Y-15721047D01*
X10543120Y-15721047D02*
X10533596Y-15711523D01*
X10533596Y-15711523D02*
X10514549Y-15701999D01*
X10628834Y-15616285D02*
X10628834Y-15654380D01*
X10705025Y-15616285D02*
X10705025Y-15654380D01*
X11000263Y-15892475D02*
X10990739Y-15882952D01*
X10990739Y-15882952D02*
X10971691Y-15854380D01*
X10971691Y-15854380D02*
X10962168Y-15835333D01*
X10962168Y-15835333D02*
X10952644Y-15806761D01*
X10952644Y-15806761D02*
X10943120Y-15759142D01*
X10943120Y-15759142D02*
X10943120Y-15721047D01*
X10943120Y-15721047D02*
X10952644Y-15673428D01*
X10952644Y-15673428D02*
X10962168Y-15644856D01*
X10962168Y-15644856D02*
X10971691Y-15625809D01*
X10971691Y-15625809D02*
X10990739Y-15597237D01*
X10990739Y-15597237D02*
X11000263Y-15587714D01*
X11181215Y-15816285D02*
X11066930Y-15816285D01*
X11124072Y-15816285D02*
X11124072Y-15616285D01*
X11124072Y-15616285D02*
X11105025Y-15644856D01*
X11105025Y-15644856D02*
X11085977Y-15663904D01*
X11085977Y-15663904D02*
X11066930Y-15673428D01*
X11352644Y-15682952D02*
X11352644Y-15816285D01*
X11305025Y-15606761D02*
X11257406Y-15749618D01*
X11257406Y-15749618D02*
X11381215Y-15749618D01*
X11609787Y-15816285D02*
X11609787Y-15616285D01*
X11695501Y-15816285D02*
X11695501Y-15711523D01*
X11695501Y-15711523D02*
X11685977Y-15692475D01*
X11685977Y-15692475D02*
X11666930Y-15682952D01*
X11666930Y-15682952D02*
X11638358Y-15682952D01*
X11638358Y-15682952D02*
X11619310Y-15692475D01*
X11619310Y-15692475D02*
X11609787Y-15701999D01*
X11819310Y-15816285D02*
X11800263Y-15806761D01*
X11800263Y-15806761D02*
X11790739Y-15797237D01*
X11790739Y-15797237D02*
X11781215Y-15778190D01*
X11781215Y-15778190D02*
X11781215Y-15721047D01*
X11781215Y-15721047D02*
X11790739Y-15701999D01*
X11790739Y-15701999D02*
X11800263Y-15692475D01*
X11800263Y-15692475D02*
X11819310Y-15682952D01*
X11819310Y-15682952D02*
X11847882Y-15682952D01*
X11847882Y-15682952D02*
X11866930Y-15692475D01*
X11866930Y-15692475D02*
X11876453Y-15701999D01*
X11876453Y-15701999D02*
X11885977Y-15721047D01*
X11885977Y-15721047D02*
X11885977Y-15778190D01*
X11885977Y-15778190D02*
X11876453Y-15797237D01*
X11876453Y-15797237D02*
X11866930Y-15806761D01*
X11866930Y-15806761D02*
X11847882Y-15816285D01*
X11847882Y-15816285D02*
X11819310Y-15816285D01*
X12000263Y-15816285D02*
X11981215Y-15806761D01*
X11981215Y-15806761D02*
X11971691Y-15787714D01*
X11971691Y-15787714D02*
X11971691Y-15616285D01*
X12152644Y-15806761D02*
X12133596Y-15816285D01*
X12133596Y-15816285D02*
X12095501Y-15816285D01*
X12095501Y-15816285D02*
X12076453Y-15806761D01*
X12076453Y-15806761D02*
X12066930Y-15787714D01*
X12066930Y-15787714D02*
X12066930Y-15711523D01*
X12066930Y-15711523D02*
X12076453Y-15692475D01*
X12076453Y-15692475D02*
X12095501Y-15682952D01*
X12095501Y-15682952D02*
X12133596Y-15682952D01*
X12133596Y-15682952D02*
X12152644Y-15692475D01*
X12152644Y-15692475D02*
X12162168Y-15711523D01*
X12162168Y-15711523D02*
X12162168Y-15730571D01*
X12162168Y-15730571D02*
X12066930Y-15749618D01*
X12238358Y-15806761D02*
X12257406Y-15816285D01*
X12257406Y-15816285D02*
X12295501Y-15816285D01*
X12295501Y-15816285D02*
X12314549Y-15806761D01*
X12314549Y-15806761D02*
X12324072Y-15787714D01*
X12324072Y-15787714D02*
X12324072Y-15778190D01*
X12324072Y-15778190D02*
X12314549Y-15759142D01*
X12314549Y-15759142D02*
X12295501Y-15749618D01*
X12295501Y-15749618D02*
X12266930Y-15749618D01*
X12266930Y-15749618D02*
X12247882Y-15740095D01*
X12247882Y-15740095D02*
X12238358Y-15721047D01*
X12238358Y-15721047D02*
X12238358Y-15711523D01*
X12238358Y-15711523D02*
X12247882Y-15692475D01*
X12247882Y-15692475D02*
X12266930Y-15682952D01*
X12266930Y-15682952D02*
X12295501Y-15682952D01*
X12295501Y-15682952D02*
X12314549Y-15692475D01*
X12390739Y-15892475D02*
X12400263Y-15882952D01*
X12400263Y-15882952D02*
X12419311Y-15854380D01*
X12419311Y-15854380D02*
X12428834Y-15835333D01*
X12428834Y-15835333D02*
X12438358Y-15806761D01*
X12438358Y-15806761D02*
X12447882Y-15759142D01*
X12447882Y-15759142D02*
X12447882Y-15721047D01*
X12447882Y-15721047D02*
X12438358Y-15673428D01*
X12438358Y-15673428D02*
X12428834Y-15644856D01*
X12428834Y-15644856D02*
X12419311Y-15625809D01*
X12419311Y-15625809D02*
X12400263Y-15597237D01*
X12400263Y-15597237D02*
X12390739Y-15587714D01*
D11*
X7425200Y-15988801D02*
G75*
G02*
X7365200Y-15988801I-30000J0D01*
G01*
X7365200Y-15988801D02*
G75*
G02*
X7425200Y-15988801I30000J0D01*
G01*
D10*
X7724072Y-15880285D02*
X7743120Y-15880285D01*
X7743120Y-15880285D02*
X7762167Y-15889809D01*
X7762167Y-15889809D02*
X7771691Y-15899333D01*
X7771691Y-15899333D02*
X7781215Y-15918380D01*
X7781215Y-15918380D02*
X7790739Y-15956475D01*
X7790739Y-15956475D02*
X7790739Y-16004095D01*
X7790739Y-16004095D02*
X7781215Y-16042190D01*
X7781215Y-16042190D02*
X7771691Y-16061237D01*
X7771691Y-16061237D02*
X7762167Y-16070761D01*
X7762167Y-16070761D02*
X7743120Y-16080285D01*
X7743120Y-16080285D02*
X7724072Y-16080285D01*
X7724072Y-16080285D02*
X7705024Y-16070761D01*
X7705024Y-16070761D02*
X7695501Y-16061237D01*
X7695501Y-16061237D02*
X7685977Y-16042190D01*
X7685977Y-16042190D02*
X7676453Y-16004095D01*
X7676453Y-16004095D02*
X7676453Y-15956475D01*
X7676453Y-15956475D02*
X7685977Y-15918380D01*
X7685977Y-15918380D02*
X7695501Y-15899333D01*
X7695501Y-15899333D02*
X7705024Y-15889809D01*
X7705024Y-15889809D02*
X7724072Y-15880285D01*
X7876453Y-16061237D02*
X7885977Y-16070761D01*
X7885977Y-16070761D02*
X7876453Y-16080285D01*
X7876453Y-16080285D02*
X7866929Y-16070761D01*
X7866929Y-16070761D02*
X7876453Y-16061237D01*
X7876453Y-16061237D02*
X7876453Y-16080285D01*
X8057405Y-15880285D02*
X8019310Y-15880285D01*
X8019310Y-15880285D02*
X8000262Y-15889809D01*
X8000262Y-15889809D02*
X7990739Y-15899333D01*
X7990739Y-15899333D02*
X7971691Y-15927904D01*
X7971691Y-15927904D02*
X7962167Y-15965999D01*
X7962167Y-15965999D02*
X7962167Y-16042190D01*
X7962167Y-16042190D02*
X7971691Y-16061237D01*
X7971691Y-16061237D02*
X7981215Y-16070761D01*
X7981215Y-16070761D02*
X8000262Y-16080285D01*
X8000262Y-16080285D02*
X8038358Y-16080285D01*
X8038358Y-16080285D02*
X8057405Y-16070761D01*
X8057405Y-16070761D02*
X8066929Y-16061237D01*
X8066929Y-16061237D02*
X8076453Y-16042190D01*
X8076453Y-16042190D02*
X8076453Y-15994571D01*
X8076453Y-15994571D02*
X8066929Y-15975523D01*
X8066929Y-15975523D02*
X8057405Y-15965999D01*
X8057405Y-15965999D02*
X8038358Y-15956475D01*
X8038358Y-15956475D02*
X8000262Y-15956475D01*
X8000262Y-15956475D02*
X7981215Y-15965999D01*
X7981215Y-15965999D02*
X7971691Y-15975523D01*
X7971691Y-15975523D02*
X7962167Y-15994571D01*
X8200262Y-15880285D02*
X8219310Y-15880285D01*
X8219310Y-15880285D02*
X8238358Y-15889809D01*
X8238358Y-15889809D02*
X8247882Y-15899333D01*
X8247882Y-15899333D02*
X8257405Y-15918380D01*
X8257405Y-15918380D02*
X8266929Y-15956475D01*
X8266929Y-15956475D02*
X8266929Y-16004095D01*
X8266929Y-16004095D02*
X8257405Y-16042190D01*
X8257405Y-16042190D02*
X8247882Y-16061237D01*
X8247882Y-16061237D02*
X8238358Y-16070761D01*
X8238358Y-16070761D02*
X8219310Y-16080285D01*
X8219310Y-16080285D02*
X8200262Y-16080285D01*
X8200262Y-16080285D02*
X8181215Y-16070761D01*
X8181215Y-16070761D02*
X8171691Y-16061237D01*
X8171691Y-16061237D02*
X8162167Y-16042190D01*
X8162167Y-16042190D02*
X8152643Y-16004095D01*
X8152643Y-16004095D02*
X8152643Y-15956475D01*
X8152643Y-15956475D02*
X8162167Y-15918380D01*
X8162167Y-15918380D02*
X8171691Y-15899333D01*
X8171691Y-15899333D02*
X8181215Y-15889809D01*
X8181215Y-15889809D02*
X8200262Y-15880285D01*
X8390739Y-15880285D02*
X8409786Y-15880285D01*
X8409786Y-15880285D02*
X8428834Y-15889809D01*
X8428834Y-15889809D02*
X8438358Y-15899333D01*
X8438358Y-15899333D02*
X8447882Y-15918380D01*
X8447882Y-15918380D02*
X8457405Y-15956475D01*
X8457405Y-15956475D02*
X8457405Y-16004095D01*
X8457405Y-16004095D02*
X8447882Y-16042190D01*
X8447882Y-16042190D02*
X8438358Y-16061237D01*
X8438358Y-16061237D02*
X8428834Y-16070761D01*
X8428834Y-16070761D02*
X8409786Y-16080285D01*
X8409786Y-16080285D02*
X8390739Y-16080285D01*
X8390739Y-16080285D02*
X8371691Y-16070761D01*
X8371691Y-16070761D02*
X8362167Y-16061237D01*
X8362167Y-16061237D02*
X8352643Y-16042190D01*
X8352643Y-16042190D02*
X8343120Y-16004095D01*
X8343120Y-16004095D02*
X8343120Y-15956475D01*
X8343120Y-15956475D02*
X8352643Y-15918380D01*
X8352643Y-15918380D02*
X8362167Y-15899333D01*
X8362167Y-15899333D02*
X8371691Y-15889809D01*
X8371691Y-15889809D02*
X8390739Y-15880285D01*
X8543120Y-16080285D02*
X8543120Y-15946952D01*
X8543120Y-15965999D02*
X8552644Y-15956475D01*
X8552644Y-15956475D02*
X8571691Y-15946952D01*
X8571691Y-15946952D02*
X8600263Y-15946952D01*
X8600263Y-15946952D02*
X8619310Y-15956475D01*
X8619310Y-15956475D02*
X8628834Y-15975523D01*
X8628834Y-15975523D02*
X8628834Y-16080285D01*
X8628834Y-15975523D02*
X8638358Y-15956475D01*
X8638358Y-15956475D02*
X8657405Y-15946952D01*
X8657405Y-15946952D02*
X8685977Y-15946952D01*
X8685977Y-15946952D02*
X8705025Y-15956475D01*
X8705025Y-15956475D02*
X8714548Y-15975523D01*
X8714548Y-15975523D02*
X8714548Y-16080285D01*
X8809786Y-16080285D02*
X8809786Y-15946952D01*
X8809786Y-15965999D02*
X8819310Y-15956475D01*
X8819310Y-15956475D02*
X8838358Y-15946952D01*
X8838358Y-15946952D02*
X8866929Y-15946952D01*
X8866929Y-15946952D02*
X8885977Y-15956475D01*
X8885977Y-15956475D02*
X8895501Y-15975523D01*
X8895501Y-15975523D02*
X8895501Y-16080285D01*
X8895501Y-15975523D02*
X8905025Y-15956475D01*
X8905025Y-15956475D02*
X8924072Y-15946952D01*
X8924072Y-15946952D02*
X8952644Y-15946952D01*
X8952644Y-15946952D02*
X8971691Y-15956475D01*
X8971691Y-15956475D02*
X8981215Y-15975523D01*
X8981215Y-15975523D02*
X8981215Y-16080285D01*
X9371691Y-15870761D02*
X9200263Y-16127904D01*
X9628834Y-15880285D02*
X9647882Y-15880285D01*
X9647882Y-15880285D02*
X9666929Y-15889809D01*
X9666929Y-15889809D02*
X9676453Y-15899333D01*
X9676453Y-15899333D02*
X9685977Y-15918380D01*
X9685977Y-15918380D02*
X9695501Y-15956475D01*
X9695501Y-15956475D02*
X9695501Y-16004095D01*
X9695501Y-16004095D02*
X9685977Y-16042190D01*
X9685977Y-16042190D02*
X9676453Y-16061237D01*
X9676453Y-16061237D02*
X9666929Y-16070761D01*
X9666929Y-16070761D02*
X9647882Y-16080285D01*
X9647882Y-16080285D02*
X9628834Y-16080285D01*
X9628834Y-16080285D02*
X9609787Y-16070761D01*
X9609787Y-16070761D02*
X9600263Y-16061237D01*
X9600263Y-16061237D02*
X9590739Y-16042190D01*
X9590739Y-16042190D02*
X9581215Y-16004095D01*
X9581215Y-16004095D02*
X9581215Y-15956475D01*
X9581215Y-15956475D02*
X9590739Y-15918380D01*
X9590739Y-15918380D02*
X9600263Y-15899333D01*
X9600263Y-15899333D02*
X9609787Y-15889809D01*
X9609787Y-15889809D02*
X9628834Y-15880285D01*
X9781215Y-16061237D02*
X9790739Y-16070761D01*
X9790739Y-16070761D02*
X9781215Y-16080285D01*
X9781215Y-16080285D02*
X9771691Y-16070761D01*
X9771691Y-16070761D02*
X9781215Y-16061237D01*
X9781215Y-16061237D02*
X9781215Y-16080285D01*
X9914548Y-15880285D02*
X9933596Y-15880285D01*
X9933596Y-15880285D02*
X9952644Y-15889809D01*
X9952644Y-15889809D02*
X9962168Y-15899333D01*
X9962168Y-15899333D02*
X9971691Y-15918380D01*
X9971691Y-15918380D02*
X9981215Y-15956475D01*
X9981215Y-15956475D02*
X9981215Y-16004095D01*
X9981215Y-16004095D02*
X9971691Y-16042190D01*
X9971691Y-16042190D02*
X9962168Y-16061237D01*
X9962168Y-16061237D02*
X9952644Y-16070761D01*
X9952644Y-16070761D02*
X9933596Y-16080285D01*
X9933596Y-16080285D02*
X9914548Y-16080285D01*
X9914548Y-16080285D02*
X9895501Y-16070761D01*
X9895501Y-16070761D02*
X9885977Y-16061237D01*
X9885977Y-16061237D02*
X9876453Y-16042190D01*
X9876453Y-16042190D02*
X9866929Y-16004095D01*
X9866929Y-16004095D02*
X9866929Y-15956475D01*
X9866929Y-15956475D02*
X9876453Y-15918380D01*
X9876453Y-15918380D02*
X9885977Y-15899333D01*
X9885977Y-15899333D02*
X9895501Y-15889809D01*
X9895501Y-15889809D02*
X9914548Y-15880285D01*
X10057406Y-15899333D02*
X10066929Y-15889809D01*
X10066929Y-15889809D02*
X10085977Y-15880285D01*
X10085977Y-15880285D02*
X10133596Y-15880285D01*
X10133596Y-15880285D02*
X10152644Y-15889809D01*
X10152644Y-15889809D02*
X10162168Y-15899333D01*
X10162168Y-15899333D02*
X10171691Y-15918380D01*
X10171691Y-15918380D02*
X10171691Y-15937428D01*
X10171691Y-15937428D02*
X10162168Y-15965999D01*
X10162168Y-15965999D02*
X10047882Y-16080285D01*
X10047882Y-16080285D02*
X10171691Y-16080285D01*
X10238358Y-15880285D02*
X10362168Y-15880285D01*
X10362168Y-15880285D02*
X10295501Y-15956475D01*
X10295501Y-15956475D02*
X10324072Y-15956475D01*
X10324072Y-15956475D02*
X10343120Y-15965999D01*
X10343120Y-15965999D02*
X10352644Y-15975523D01*
X10352644Y-15975523D02*
X10362168Y-15994571D01*
X10362168Y-15994571D02*
X10362168Y-16042190D01*
X10362168Y-16042190D02*
X10352644Y-16061237D01*
X10352644Y-16061237D02*
X10343120Y-16070761D01*
X10343120Y-16070761D02*
X10324072Y-16080285D01*
X10324072Y-16080285D02*
X10266929Y-16080285D01*
X10266929Y-16080285D02*
X10247882Y-16070761D01*
X10247882Y-16070761D02*
X10238358Y-16061237D01*
X10533596Y-15880285D02*
X10495501Y-15880285D01*
X10495501Y-15880285D02*
X10476453Y-15889809D01*
X10476453Y-15889809D02*
X10466929Y-15899333D01*
X10466929Y-15899333D02*
X10447882Y-15927904D01*
X10447882Y-15927904D02*
X10438358Y-15965999D01*
X10438358Y-15965999D02*
X10438358Y-16042190D01*
X10438358Y-16042190D02*
X10447882Y-16061237D01*
X10447882Y-16061237D02*
X10457406Y-16070761D01*
X10457406Y-16070761D02*
X10476453Y-16080285D01*
X10476453Y-16080285D02*
X10514549Y-16080285D01*
X10514549Y-16080285D02*
X10533596Y-16070761D01*
X10533596Y-16070761D02*
X10543120Y-16061237D01*
X10543120Y-16061237D02*
X10552644Y-16042190D01*
X10552644Y-16042190D02*
X10552644Y-15994571D01*
X10552644Y-15994571D02*
X10543120Y-15975523D01*
X10543120Y-15975523D02*
X10533596Y-15965999D01*
X10533596Y-15965999D02*
X10514549Y-15956475D01*
X10514549Y-15956475D02*
X10476453Y-15956475D01*
X10476453Y-15956475D02*
X10457406Y-15965999D01*
X10457406Y-15965999D02*
X10447882Y-15975523D01*
X10447882Y-15975523D02*
X10438358Y-15994571D01*
X10628834Y-15880285D02*
X10628834Y-15918380D01*
X10705025Y-15880285D02*
X10705025Y-15918380D01*
X11000263Y-16156475D02*
X10990739Y-16146952D01*
X10990739Y-16146952D02*
X10971691Y-16118380D01*
X10971691Y-16118380D02*
X10962168Y-16099333D01*
X10962168Y-16099333D02*
X10952644Y-16070761D01*
X10952644Y-16070761D02*
X10943120Y-16023142D01*
X10943120Y-16023142D02*
X10943120Y-15985047D01*
X10943120Y-15985047D02*
X10952644Y-15937428D01*
X10952644Y-15937428D02*
X10962168Y-15908856D01*
X10962168Y-15908856D02*
X10971691Y-15889809D01*
X10971691Y-15889809D02*
X10990739Y-15861237D01*
X10990739Y-15861237D02*
X11000263Y-15851714D01*
X11162168Y-15946952D02*
X11162168Y-16080285D01*
X11114549Y-15870761D02*
X11066930Y-16013618D01*
X11066930Y-16013618D02*
X11190739Y-16013618D01*
X11419310Y-16080285D02*
X11419310Y-15880285D01*
X11505025Y-16080285D02*
X11505025Y-15975523D01*
X11505025Y-15975523D02*
X11495501Y-15956475D01*
X11495501Y-15956475D02*
X11476453Y-15946952D01*
X11476453Y-15946952D02*
X11447882Y-15946952D01*
X11447882Y-15946952D02*
X11428834Y-15956475D01*
X11428834Y-15956475D02*
X11419310Y-15965999D01*
X11628834Y-16080285D02*
X11609787Y-16070761D01*
X11609787Y-16070761D02*
X11600263Y-16061237D01*
X11600263Y-16061237D02*
X11590739Y-16042190D01*
X11590739Y-16042190D02*
X11590739Y-15985047D01*
X11590739Y-15985047D02*
X11600263Y-15965999D01*
X11600263Y-15965999D02*
X11609787Y-15956475D01*
X11609787Y-15956475D02*
X11628834Y-15946952D01*
X11628834Y-15946952D02*
X11657406Y-15946952D01*
X11657406Y-15946952D02*
X11676453Y-15956475D01*
X11676453Y-15956475D02*
X11685977Y-15965999D01*
X11685977Y-15965999D02*
X11695501Y-15985047D01*
X11695501Y-15985047D02*
X11695501Y-16042190D01*
X11695501Y-16042190D02*
X11685977Y-16061237D01*
X11685977Y-16061237D02*
X11676453Y-16070761D01*
X11676453Y-16070761D02*
X11657406Y-16080285D01*
X11657406Y-16080285D02*
X11628834Y-16080285D01*
X11809787Y-16080285D02*
X11790739Y-16070761D01*
X11790739Y-16070761D02*
X11781215Y-16051714D01*
X11781215Y-16051714D02*
X11781215Y-15880285D01*
X11962168Y-16070761D02*
X11943120Y-16080285D01*
X11943120Y-16080285D02*
X11905025Y-16080285D01*
X11905025Y-16080285D02*
X11885977Y-16070761D01*
X11885977Y-16070761D02*
X11876453Y-16051714D01*
X11876453Y-16051714D02*
X11876453Y-15975523D01*
X11876453Y-15975523D02*
X11885977Y-15956475D01*
X11885977Y-15956475D02*
X11905025Y-15946952D01*
X11905025Y-15946952D02*
X11943120Y-15946952D01*
X11943120Y-15946952D02*
X11962168Y-15956475D01*
X11962168Y-15956475D02*
X11971691Y-15975523D01*
X11971691Y-15975523D02*
X11971691Y-15994571D01*
X11971691Y-15994571D02*
X11876453Y-16013618D01*
X12047882Y-16070761D02*
X12066930Y-16080285D01*
X12066930Y-16080285D02*
X12105025Y-16080285D01*
X12105025Y-16080285D02*
X12124072Y-16070761D01*
X12124072Y-16070761D02*
X12133596Y-16051714D01*
X12133596Y-16051714D02*
X12133596Y-16042190D01*
X12133596Y-16042190D02*
X12124072Y-16023142D01*
X12124072Y-16023142D02*
X12105025Y-16013618D01*
X12105025Y-16013618D02*
X12076453Y-16013618D01*
X12076453Y-16013618D02*
X12057406Y-16004095D01*
X12057406Y-16004095D02*
X12047882Y-15985047D01*
X12047882Y-15985047D02*
X12047882Y-15975523D01*
X12047882Y-15975523D02*
X12057406Y-15956475D01*
X12057406Y-15956475D02*
X12076453Y-15946952D01*
X12076453Y-15946952D02*
X12105025Y-15946952D01*
X12105025Y-15946952D02*
X12124072Y-15956475D01*
X12200263Y-16156475D02*
X12209787Y-16146952D01*
X12209787Y-16146952D02*
X12228834Y-16118380D01*
X12228834Y-16118380D02*
X12238358Y-16099333D01*
X12238358Y-16099333D02*
X12247882Y-16070761D01*
X12247882Y-16070761D02*
X12257406Y-16023142D01*
X12257406Y-16023142D02*
X12257406Y-15985047D01*
X12257406Y-15985047D02*
X12247882Y-15937428D01*
X12247882Y-15937428D02*
X12238358Y-15908856D01*
X12238358Y-15908856D02*
X12228834Y-15889809D01*
X12228834Y-15889809D02*
X12209787Y-15861237D01*
X12209787Y-15861237D02*
X12200263Y-15851714D01*
D11*
X7385200Y-16212801D02*
X7385200Y-16292801D01*
X7345200Y-16252801D02*
X7425200Y-16252801D01*
D10*
X7724072Y-16144285D02*
X7743120Y-16144285D01*
X7743120Y-16144285D02*
X7762167Y-16153809D01*
X7762167Y-16153809D02*
X7771691Y-16163333D01*
X7771691Y-16163333D02*
X7781215Y-16182380D01*
X7781215Y-16182380D02*
X7790739Y-16220475D01*
X7790739Y-16220475D02*
X7790739Y-16268095D01*
X7790739Y-16268095D02*
X7781215Y-16306190D01*
X7781215Y-16306190D02*
X7771691Y-16325237D01*
X7771691Y-16325237D02*
X7762167Y-16334761D01*
X7762167Y-16334761D02*
X7743120Y-16344285D01*
X7743120Y-16344285D02*
X7724072Y-16344285D01*
X7724072Y-16344285D02*
X7705024Y-16334761D01*
X7705024Y-16334761D02*
X7695501Y-16325237D01*
X7695501Y-16325237D02*
X7685977Y-16306190D01*
X7685977Y-16306190D02*
X7676453Y-16268095D01*
X7676453Y-16268095D02*
X7676453Y-16220475D01*
X7676453Y-16220475D02*
X7685977Y-16182380D01*
X7685977Y-16182380D02*
X7695501Y-16163333D01*
X7695501Y-16163333D02*
X7705024Y-16153809D01*
X7705024Y-16153809D02*
X7724072Y-16144285D01*
X7876453Y-16325237D02*
X7885977Y-16334761D01*
X7885977Y-16334761D02*
X7876453Y-16344285D01*
X7876453Y-16344285D02*
X7866929Y-16334761D01*
X7866929Y-16334761D02*
X7876453Y-16325237D01*
X7876453Y-16325237D02*
X7876453Y-16344285D01*
X8000262Y-16229999D02*
X7981215Y-16220475D01*
X7981215Y-16220475D02*
X7971691Y-16210952D01*
X7971691Y-16210952D02*
X7962167Y-16191904D01*
X7962167Y-16191904D02*
X7962167Y-16182380D01*
X7962167Y-16182380D02*
X7971691Y-16163333D01*
X7971691Y-16163333D02*
X7981215Y-16153809D01*
X7981215Y-16153809D02*
X8000262Y-16144285D01*
X8000262Y-16144285D02*
X8038358Y-16144285D01*
X8038358Y-16144285D02*
X8057405Y-16153809D01*
X8057405Y-16153809D02*
X8066929Y-16163333D01*
X8066929Y-16163333D02*
X8076453Y-16182380D01*
X8076453Y-16182380D02*
X8076453Y-16191904D01*
X8076453Y-16191904D02*
X8066929Y-16210952D01*
X8066929Y-16210952D02*
X8057405Y-16220475D01*
X8057405Y-16220475D02*
X8038358Y-16229999D01*
X8038358Y-16229999D02*
X8000262Y-16229999D01*
X8000262Y-16229999D02*
X7981215Y-16239523D01*
X7981215Y-16239523D02*
X7971691Y-16249047D01*
X7971691Y-16249047D02*
X7962167Y-16268095D01*
X7962167Y-16268095D02*
X7962167Y-16306190D01*
X7962167Y-16306190D02*
X7971691Y-16325237D01*
X7971691Y-16325237D02*
X7981215Y-16334761D01*
X7981215Y-16334761D02*
X8000262Y-16344285D01*
X8000262Y-16344285D02*
X8038358Y-16344285D01*
X8038358Y-16344285D02*
X8057405Y-16334761D01*
X8057405Y-16334761D02*
X8066929Y-16325237D01*
X8066929Y-16325237D02*
X8076453Y-16306190D01*
X8076453Y-16306190D02*
X8076453Y-16268095D01*
X8076453Y-16268095D02*
X8066929Y-16249047D01*
X8066929Y-16249047D02*
X8057405Y-16239523D01*
X8057405Y-16239523D02*
X8038358Y-16229999D01*
X8200262Y-16144285D02*
X8219310Y-16144285D01*
X8219310Y-16144285D02*
X8238358Y-16153809D01*
X8238358Y-16153809D02*
X8247882Y-16163333D01*
X8247882Y-16163333D02*
X8257405Y-16182380D01*
X8257405Y-16182380D02*
X8266929Y-16220475D01*
X8266929Y-16220475D02*
X8266929Y-16268095D01*
X8266929Y-16268095D02*
X8257405Y-16306190D01*
X8257405Y-16306190D02*
X8247882Y-16325237D01*
X8247882Y-16325237D02*
X8238358Y-16334761D01*
X8238358Y-16334761D02*
X8219310Y-16344285D01*
X8219310Y-16344285D02*
X8200262Y-16344285D01*
X8200262Y-16344285D02*
X8181215Y-16334761D01*
X8181215Y-16334761D02*
X8171691Y-16325237D01*
X8171691Y-16325237D02*
X8162167Y-16306190D01*
X8162167Y-16306190D02*
X8152643Y-16268095D01*
X8152643Y-16268095D02*
X8152643Y-16220475D01*
X8152643Y-16220475D02*
X8162167Y-16182380D01*
X8162167Y-16182380D02*
X8171691Y-16163333D01*
X8171691Y-16163333D02*
X8181215Y-16153809D01*
X8181215Y-16153809D02*
X8200262Y-16144285D01*
X8390739Y-16144285D02*
X8409786Y-16144285D01*
X8409786Y-16144285D02*
X8428834Y-16153809D01*
X8428834Y-16153809D02*
X8438358Y-16163333D01*
X8438358Y-16163333D02*
X8447882Y-16182380D01*
X8447882Y-16182380D02*
X8457405Y-16220475D01*
X8457405Y-16220475D02*
X8457405Y-16268095D01*
X8457405Y-16268095D02*
X8447882Y-16306190D01*
X8447882Y-16306190D02*
X8438358Y-16325237D01*
X8438358Y-16325237D02*
X8428834Y-16334761D01*
X8428834Y-16334761D02*
X8409786Y-16344285D01*
X8409786Y-16344285D02*
X8390739Y-16344285D01*
X8390739Y-16344285D02*
X8371691Y-16334761D01*
X8371691Y-16334761D02*
X8362167Y-16325237D01*
X8362167Y-16325237D02*
X8352643Y-16306190D01*
X8352643Y-16306190D02*
X8343120Y-16268095D01*
X8343120Y-16268095D02*
X8343120Y-16220475D01*
X8343120Y-16220475D02*
X8352643Y-16182380D01*
X8352643Y-16182380D02*
X8362167Y-16163333D01*
X8362167Y-16163333D02*
X8371691Y-16153809D01*
X8371691Y-16153809D02*
X8390739Y-16144285D01*
X8543120Y-16344285D02*
X8543120Y-16210952D01*
X8543120Y-16229999D02*
X8552644Y-16220475D01*
X8552644Y-16220475D02*
X8571691Y-16210952D01*
X8571691Y-16210952D02*
X8600263Y-16210952D01*
X8600263Y-16210952D02*
X8619310Y-16220475D01*
X8619310Y-16220475D02*
X8628834Y-16239523D01*
X8628834Y-16239523D02*
X8628834Y-16344285D01*
X8628834Y-16239523D02*
X8638358Y-16220475D01*
X8638358Y-16220475D02*
X8657405Y-16210952D01*
X8657405Y-16210952D02*
X8685977Y-16210952D01*
X8685977Y-16210952D02*
X8705025Y-16220475D01*
X8705025Y-16220475D02*
X8714548Y-16239523D01*
X8714548Y-16239523D02*
X8714548Y-16344285D01*
X8809786Y-16344285D02*
X8809786Y-16210952D01*
X8809786Y-16229999D02*
X8819310Y-16220475D01*
X8819310Y-16220475D02*
X8838358Y-16210952D01*
X8838358Y-16210952D02*
X8866929Y-16210952D01*
X8866929Y-16210952D02*
X8885977Y-16220475D01*
X8885977Y-16220475D02*
X8895501Y-16239523D01*
X8895501Y-16239523D02*
X8895501Y-16344285D01*
X8895501Y-16239523D02*
X8905025Y-16220475D01*
X8905025Y-16220475D02*
X8924072Y-16210952D01*
X8924072Y-16210952D02*
X8952644Y-16210952D01*
X8952644Y-16210952D02*
X8971691Y-16220475D01*
X8971691Y-16220475D02*
X8981215Y-16239523D01*
X8981215Y-16239523D02*
X8981215Y-16344285D01*
X9371691Y-16134761D02*
X9200263Y-16391904D01*
X9628834Y-16144285D02*
X9647882Y-16144285D01*
X9647882Y-16144285D02*
X9666929Y-16153809D01*
X9666929Y-16153809D02*
X9676453Y-16163333D01*
X9676453Y-16163333D02*
X9685977Y-16182380D01*
X9685977Y-16182380D02*
X9695501Y-16220475D01*
X9695501Y-16220475D02*
X9695501Y-16268095D01*
X9695501Y-16268095D02*
X9685977Y-16306190D01*
X9685977Y-16306190D02*
X9676453Y-16325237D01*
X9676453Y-16325237D02*
X9666929Y-16334761D01*
X9666929Y-16334761D02*
X9647882Y-16344285D01*
X9647882Y-16344285D02*
X9628834Y-16344285D01*
X9628834Y-16344285D02*
X9609787Y-16334761D01*
X9609787Y-16334761D02*
X9600263Y-16325237D01*
X9600263Y-16325237D02*
X9590739Y-16306190D01*
X9590739Y-16306190D02*
X9581215Y-16268095D01*
X9581215Y-16268095D02*
X9581215Y-16220475D01*
X9581215Y-16220475D02*
X9590739Y-16182380D01*
X9590739Y-16182380D02*
X9600263Y-16163333D01*
X9600263Y-16163333D02*
X9609787Y-16153809D01*
X9609787Y-16153809D02*
X9628834Y-16144285D01*
X9781215Y-16325237D02*
X9790739Y-16334761D01*
X9790739Y-16334761D02*
X9781215Y-16344285D01*
X9781215Y-16344285D02*
X9771691Y-16334761D01*
X9771691Y-16334761D02*
X9781215Y-16325237D01*
X9781215Y-16325237D02*
X9781215Y-16344285D01*
X9914548Y-16144285D02*
X9933596Y-16144285D01*
X9933596Y-16144285D02*
X9952644Y-16153809D01*
X9952644Y-16153809D02*
X9962168Y-16163333D01*
X9962168Y-16163333D02*
X9971691Y-16182380D01*
X9971691Y-16182380D02*
X9981215Y-16220475D01*
X9981215Y-16220475D02*
X9981215Y-16268095D01*
X9981215Y-16268095D02*
X9971691Y-16306190D01*
X9971691Y-16306190D02*
X9962168Y-16325237D01*
X9962168Y-16325237D02*
X9952644Y-16334761D01*
X9952644Y-16334761D02*
X9933596Y-16344285D01*
X9933596Y-16344285D02*
X9914548Y-16344285D01*
X9914548Y-16344285D02*
X9895501Y-16334761D01*
X9895501Y-16334761D02*
X9885977Y-16325237D01*
X9885977Y-16325237D02*
X9876453Y-16306190D01*
X9876453Y-16306190D02*
X9866929Y-16268095D01*
X9866929Y-16268095D02*
X9866929Y-16220475D01*
X9866929Y-16220475D02*
X9876453Y-16182380D01*
X9876453Y-16182380D02*
X9885977Y-16163333D01*
X9885977Y-16163333D02*
X9895501Y-16153809D01*
X9895501Y-16153809D02*
X9914548Y-16144285D01*
X10047882Y-16144285D02*
X10171691Y-16144285D01*
X10171691Y-16144285D02*
X10105025Y-16220475D01*
X10105025Y-16220475D02*
X10133596Y-16220475D01*
X10133596Y-16220475D02*
X10152644Y-16229999D01*
X10152644Y-16229999D02*
X10162168Y-16239523D01*
X10162168Y-16239523D02*
X10171691Y-16258571D01*
X10171691Y-16258571D02*
X10171691Y-16306190D01*
X10171691Y-16306190D02*
X10162168Y-16325237D01*
X10162168Y-16325237D02*
X10152644Y-16334761D01*
X10152644Y-16334761D02*
X10133596Y-16344285D01*
X10133596Y-16344285D02*
X10076453Y-16344285D01*
X10076453Y-16344285D02*
X10057406Y-16334761D01*
X10057406Y-16334761D02*
X10047882Y-16325237D01*
X10362168Y-16344285D02*
X10247882Y-16344285D01*
X10305025Y-16344285D02*
X10305025Y-16144285D01*
X10305025Y-16144285D02*
X10285977Y-16172856D01*
X10285977Y-16172856D02*
X10266929Y-16191904D01*
X10266929Y-16191904D02*
X10247882Y-16201428D01*
X10543120Y-16144285D02*
X10447882Y-16144285D01*
X10447882Y-16144285D02*
X10438358Y-16239523D01*
X10438358Y-16239523D02*
X10447882Y-16229999D01*
X10447882Y-16229999D02*
X10466929Y-16220475D01*
X10466929Y-16220475D02*
X10514549Y-16220475D01*
X10514549Y-16220475D02*
X10533596Y-16229999D01*
X10533596Y-16229999D02*
X10543120Y-16239523D01*
X10543120Y-16239523D02*
X10552644Y-16258571D01*
X10552644Y-16258571D02*
X10552644Y-16306190D01*
X10552644Y-16306190D02*
X10543120Y-16325237D01*
X10543120Y-16325237D02*
X10533596Y-16334761D01*
X10533596Y-16334761D02*
X10514549Y-16344285D01*
X10514549Y-16344285D02*
X10466929Y-16344285D01*
X10466929Y-16344285D02*
X10447882Y-16334761D01*
X10447882Y-16334761D02*
X10438358Y-16325237D01*
X10628834Y-16144285D02*
X10628834Y-16182380D01*
X10705025Y-16144285D02*
X10705025Y-16182380D01*
X11000263Y-16420475D02*
X10990739Y-16410952D01*
X10990739Y-16410952D02*
X10971691Y-16382380D01*
X10971691Y-16382380D02*
X10962168Y-16363333D01*
X10962168Y-16363333D02*
X10952644Y-16334761D01*
X10952644Y-16334761D02*
X10943120Y-16287142D01*
X10943120Y-16287142D02*
X10943120Y-16249047D01*
X10943120Y-16249047D02*
X10952644Y-16201428D01*
X10952644Y-16201428D02*
X10962168Y-16172856D01*
X10962168Y-16172856D02*
X10971691Y-16153809D01*
X10971691Y-16153809D02*
X10990739Y-16125237D01*
X10990739Y-16125237D02*
X11000263Y-16115714D01*
X11066930Y-16163333D02*
X11076453Y-16153809D01*
X11076453Y-16153809D02*
X11095501Y-16144285D01*
X11095501Y-16144285D02*
X11143120Y-16144285D01*
X11143120Y-16144285D02*
X11162168Y-16153809D01*
X11162168Y-16153809D02*
X11171691Y-16163333D01*
X11171691Y-16163333D02*
X11181215Y-16182380D01*
X11181215Y-16182380D02*
X11181215Y-16201428D01*
X11181215Y-16201428D02*
X11171691Y-16229999D01*
X11171691Y-16229999D02*
X11057406Y-16344285D01*
X11057406Y-16344285D02*
X11181215Y-16344285D01*
X11257406Y-16163333D02*
X11266929Y-16153809D01*
X11266929Y-16153809D02*
X11285977Y-16144285D01*
X11285977Y-16144285D02*
X11333596Y-16144285D01*
X11333596Y-16144285D02*
X11352644Y-16153809D01*
X11352644Y-16153809D02*
X11362168Y-16163333D01*
X11362168Y-16163333D02*
X11371691Y-16182380D01*
X11371691Y-16182380D02*
X11371691Y-16201428D01*
X11371691Y-16201428D02*
X11362168Y-16229999D01*
X11362168Y-16229999D02*
X11247882Y-16344285D01*
X11247882Y-16344285D02*
X11371691Y-16344285D01*
X11609787Y-16344285D02*
X11609787Y-16144285D01*
X11695501Y-16344285D02*
X11695501Y-16239523D01*
X11695501Y-16239523D02*
X11685977Y-16220475D01*
X11685977Y-16220475D02*
X11666930Y-16210952D01*
X11666930Y-16210952D02*
X11638358Y-16210952D01*
X11638358Y-16210952D02*
X11619310Y-16220475D01*
X11619310Y-16220475D02*
X11609787Y-16229999D01*
X11819310Y-16344285D02*
X11800263Y-16334761D01*
X11800263Y-16334761D02*
X11790739Y-16325237D01*
X11790739Y-16325237D02*
X11781215Y-16306190D01*
X11781215Y-16306190D02*
X11781215Y-16249047D01*
X11781215Y-16249047D02*
X11790739Y-16229999D01*
X11790739Y-16229999D02*
X11800263Y-16220475D01*
X11800263Y-16220475D02*
X11819310Y-16210952D01*
X11819310Y-16210952D02*
X11847882Y-16210952D01*
X11847882Y-16210952D02*
X11866930Y-16220475D01*
X11866930Y-16220475D02*
X11876453Y-16229999D01*
X11876453Y-16229999D02*
X11885977Y-16249047D01*
X11885977Y-16249047D02*
X11885977Y-16306190D01*
X11885977Y-16306190D02*
X11876453Y-16325237D01*
X11876453Y-16325237D02*
X11866930Y-16334761D01*
X11866930Y-16334761D02*
X11847882Y-16344285D01*
X11847882Y-16344285D02*
X11819310Y-16344285D01*
X12000263Y-16344285D02*
X11981215Y-16334761D01*
X11981215Y-16334761D02*
X11971691Y-16315714D01*
X11971691Y-16315714D02*
X11971691Y-16144285D01*
X12152644Y-16334761D02*
X12133596Y-16344285D01*
X12133596Y-16344285D02*
X12095501Y-16344285D01*
X12095501Y-16344285D02*
X12076453Y-16334761D01*
X12076453Y-16334761D02*
X12066930Y-16315714D01*
X12066930Y-16315714D02*
X12066930Y-16239523D01*
X12066930Y-16239523D02*
X12076453Y-16220475D01*
X12076453Y-16220475D02*
X12095501Y-16210952D01*
X12095501Y-16210952D02*
X12133596Y-16210952D01*
X12133596Y-16210952D02*
X12152644Y-16220475D01*
X12152644Y-16220475D02*
X12162168Y-16239523D01*
X12162168Y-16239523D02*
X12162168Y-16258571D01*
X12162168Y-16258571D02*
X12066930Y-16277618D01*
X12238358Y-16334761D02*
X12257406Y-16344285D01*
X12257406Y-16344285D02*
X12295501Y-16344285D01*
X12295501Y-16344285D02*
X12314549Y-16334761D01*
X12314549Y-16334761D02*
X12324072Y-16315714D01*
X12324072Y-16315714D02*
X12324072Y-16306190D01*
X12324072Y-16306190D02*
X12314549Y-16287142D01*
X12314549Y-16287142D02*
X12295501Y-16277618D01*
X12295501Y-16277618D02*
X12266930Y-16277618D01*
X12266930Y-16277618D02*
X12247882Y-16268095D01*
X12247882Y-16268095D02*
X12238358Y-16249047D01*
X12238358Y-16249047D02*
X12238358Y-16239523D01*
X12238358Y-16239523D02*
X12247882Y-16220475D01*
X12247882Y-16220475D02*
X12266930Y-16210952D01*
X12266930Y-16210952D02*
X12295501Y-16210952D01*
X12295501Y-16210952D02*
X12314549Y-16220475D01*
X12390739Y-16420475D02*
X12400263Y-16410952D01*
X12400263Y-16410952D02*
X12419311Y-16382380D01*
X12419311Y-16382380D02*
X12428834Y-16363333D01*
X12428834Y-16363333D02*
X12438358Y-16334761D01*
X12438358Y-16334761D02*
X12447882Y-16287142D01*
X12447882Y-16287142D02*
X12447882Y-16249047D01*
X12447882Y-16249047D02*
X12438358Y-16201428D01*
X12438358Y-16201428D02*
X12428834Y-16172856D01*
X12428834Y-16172856D02*
X12419311Y-16153809D01*
X12419311Y-16153809D02*
X12400263Y-16125237D01*
X12400263Y-16125237D02*
X12390739Y-16115714D01*
D11*
X7412181Y-16548232D02*
X7412181Y-16485370D01*
X7349319Y-16485370D01*
X7349319Y-16548232D01*
X7412181Y-16548232D01*
D10*
X7724072Y-16408285D02*
X7743120Y-16408285D01*
X7743120Y-16408285D02*
X7762167Y-16417809D01*
X7762167Y-16417809D02*
X7771691Y-16427333D01*
X7771691Y-16427333D02*
X7781215Y-16446380D01*
X7781215Y-16446380D02*
X7790739Y-16484475D01*
X7790739Y-16484475D02*
X7790739Y-16532095D01*
X7790739Y-16532095D02*
X7781215Y-16570190D01*
X7781215Y-16570190D02*
X7771691Y-16589237D01*
X7771691Y-16589237D02*
X7762167Y-16598761D01*
X7762167Y-16598761D02*
X7743120Y-16608285D01*
X7743120Y-16608285D02*
X7724072Y-16608285D01*
X7724072Y-16608285D02*
X7705024Y-16598761D01*
X7705024Y-16598761D02*
X7695501Y-16589237D01*
X7695501Y-16589237D02*
X7685977Y-16570190D01*
X7685977Y-16570190D02*
X7676453Y-16532095D01*
X7676453Y-16532095D02*
X7676453Y-16484475D01*
X7676453Y-16484475D02*
X7685977Y-16446380D01*
X7685977Y-16446380D02*
X7695501Y-16427333D01*
X7695501Y-16427333D02*
X7705024Y-16417809D01*
X7705024Y-16417809D02*
X7724072Y-16408285D01*
X7876453Y-16589237D02*
X7885977Y-16598761D01*
X7885977Y-16598761D02*
X7876453Y-16608285D01*
X7876453Y-16608285D02*
X7866929Y-16598761D01*
X7866929Y-16598761D02*
X7876453Y-16589237D01*
X7876453Y-16589237D02*
X7876453Y-16608285D01*
X8000262Y-16493999D02*
X7981215Y-16484475D01*
X7981215Y-16484475D02*
X7971691Y-16474952D01*
X7971691Y-16474952D02*
X7962167Y-16455904D01*
X7962167Y-16455904D02*
X7962167Y-16446380D01*
X7962167Y-16446380D02*
X7971691Y-16427333D01*
X7971691Y-16427333D02*
X7981215Y-16417809D01*
X7981215Y-16417809D02*
X8000262Y-16408285D01*
X8000262Y-16408285D02*
X8038358Y-16408285D01*
X8038358Y-16408285D02*
X8057405Y-16417809D01*
X8057405Y-16417809D02*
X8066929Y-16427333D01*
X8066929Y-16427333D02*
X8076453Y-16446380D01*
X8076453Y-16446380D02*
X8076453Y-16455904D01*
X8076453Y-16455904D02*
X8066929Y-16474952D01*
X8066929Y-16474952D02*
X8057405Y-16484475D01*
X8057405Y-16484475D02*
X8038358Y-16493999D01*
X8038358Y-16493999D02*
X8000262Y-16493999D01*
X8000262Y-16493999D02*
X7981215Y-16503523D01*
X7981215Y-16503523D02*
X7971691Y-16513047D01*
X7971691Y-16513047D02*
X7962167Y-16532095D01*
X7962167Y-16532095D02*
X7962167Y-16570190D01*
X7962167Y-16570190D02*
X7971691Y-16589237D01*
X7971691Y-16589237D02*
X7981215Y-16598761D01*
X7981215Y-16598761D02*
X8000262Y-16608285D01*
X8000262Y-16608285D02*
X8038358Y-16608285D01*
X8038358Y-16608285D02*
X8057405Y-16598761D01*
X8057405Y-16598761D02*
X8066929Y-16589237D01*
X8066929Y-16589237D02*
X8076453Y-16570190D01*
X8076453Y-16570190D02*
X8076453Y-16532095D01*
X8076453Y-16532095D02*
X8066929Y-16513047D01*
X8066929Y-16513047D02*
X8057405Y-16503523D01*
X8057405Y-16503523D02*
X8038358Y-16493999D01*
X8190739Y-16493999D02*
X8171691Y-16484475D01*
X8171691Y-16484475D02*
X8162167Y-16474952D01*
X8162167Y-16474952D02*
X8152643Y-16455904D01*
X8152643Y-16455904D02*
X8152643Y-16446380D01*
X8152643Y-16446380D02*
X8162167Y-16427333D01*
X8162167Y-16427333D02*
X8171691Y-16417809D01*
X8171691Y-16417809D02*
X8190739Y-16408285D01*
X8190739Y-16408285D02*
X8228834Y-16408285D01*
X8228834Y-16408285D02*
X8247882Y-16417809D01*
X8247882Y-16417809D02*
X8257405Y-16427333D01*
X8257405Y-16427333D02*
X8266929Y-16446380D01*
X8266929Y-16446380D02*
X8266929Y-16455904D01*
X8266929Y-16455904D02*
X8257405Y-16474952D01*
X8257405Y-16474952D02*
X8247882Y-16484475D01*
X8247882Y-16484475D02*
X8228834Y-16493999D01*
X8228834Y-16493999D02*
X8190739Y-16493999D01*
X8190739Y-16493999D02*
X8171691Y-16503523D01*
X8171691Y-16503523D02*
X8162167Y-16513047D01*
X8162167Y-16513047D02*
X8152643Y-16532095D01*
X8152643Y-16532095D02*
X8152643Y-16570190D01*
X8152643Y-16570190D02*
X8162167Y-16589237D01*
X8162167Y-16589237D02*
X8171691Y-16598761D01*
X8171691Y-16598761D02*
X8190739Y-16608285D01*
X8190739Y-16608285D02*
X8228834Y-16608285D01*
X8228834Y-16608285D02*
X8247882Y-16598761D01*
X8247882Y-16598761D02*
X8257405Y-16589237D01*
X8257405Y-16589237D02*
X8266929Y-16570190D01*
X8266929Y-16570190D02*
X8266929Y-16532095D01*
X8266929Y-16532095D02*
X8257405Y-16513047D01*
X8257405Y-16513047D02*
X8247882Y-16503523D01*
X8247882Y-16503523D02*
X8228834Y-16493999D01*
X8362167Y-16608285D02*
X8400263Y-16608285D01*
X8400263Y-16608285D02*
X8419310Y-16598761D01*
X8419310Y-16598761D02*
X8428834Y-16589237D01*
X8428834Y-16589237D02*
X8447882Y-16560666D01*
X8447882Y-16560666D02*
X8457405Y-16522571D01*
X8457405Y-16522571D02*
X8457405Y-16446380D01*
X8457405Y-16446380D02*
X8447882Y-16427333D01*
X8447882Y-16427333D02*
X8438358Y-16417809D01*
X8438358Y-16417809D02*
X8419310Y-16408285D01*
X8419310Y-16408285D02*
X8381215Y-16408285D01*
X8381215Y-16408285D02*
X8362167Y-16417809D01*
X8362167Y-16417809D02*
X8352643Y-16427333D01*
X8352643Y-16427333D02*
X8343120Y-16446380D01*
X8343120Y-16446380D02*
X8343120Y-16493999D01*
X8343120Y-16493999D02*
X8352643Y-16513047D01*
X8352643Y-16513047D02*
X8362167Y-16522571D01*
X8362167Y-16522571D02*
X8381215Y-16532095D01*
X8381215Y-16532095D02*
X8419310Y-16532095D01*
X8419310Y-16532095D02*
X8438358Y-16522571D01*
X8438358Y-16522571D02*
X8447882Y-16513047D01*
X8447882Y-16513047D02*
X8457405Y-16493999D01*
X8543120Y-16608285D02*
X8543120Y-16474952D01*
X8543120Y-16493999D02*
X8552644Y-16484475D01*
X8552644Y-16484475D02*
X8571691Y-16474952D01*
X8571691Y-16474952D02*
X8600263Y-16474952D01*
X8600263Y-16474952D02*
X8619310Y-16484475D01*
X8619310Y-16484475D02*
X8628834Y-16503523D01*
X8628834Y-16503523D02*
X8628834Y-16608285D01*
X8628834Y-16503523D02*
X8638358Y-16484475D01*
X8638358Y-16484475D02*
X8657405Y-16474952D01*
X8657405Y-16474952D02*
X8685977Y-16474952D01*
X8685977Y-16474952D02*
X8705025Y-16484475D01*
X8705025Y-16484475D02*
X8714548Y-16503523D01*
X8714548Y-16503523D02*
X8714548Y-16608285D01*
X8809786Y-16608285D02*
X8809786Y-16474952D01*
X8809786Y-16493999D02*
X8819310Y-16484475D01*
X8819310Y-16484475D02*
X8838358Y-16474952D01*
X8838358Y-16474952D02*
X8866929Y-16474952D01*
X8866929Y-16474952D02*
X8885977Y-16484475D01*
X8885977Y-16484475D02*
X8895501Y-16503523D01*
X8895501Y-16503523D02*
X8895501Y-16608285D01*
X8895501Y-16503523D02*
X8905025Y-16484475D01*
X8905025Y-16484475D02*
X8924072Y-16474952D01*
X8924072Y-16474952D02*
X8952644Y-16474952D01*
X8952644Y-16474952D02*
X8971691Y-16484475D01*
X8971691Y-16484475D02*
X8981215Y-16503523D01*
X8981215Y-16503523D02*
X8981215Y-16608285D01*
X9371691Y-16398761D02*
X9200263Y-16655904D01*
X9628834Y-16408285D02*
X9647882Y-16408285D01*
X9647882Y-16408285D02*
X9666929Y-16417809D01*
X9666929Y-16417809D02*
X9676453Y-16427333D01*
X9676453Y-16427333D02*
X9685977Y-16446380D01*
X9685977Y-16446380D02*
X9695501Y-16484475D01*
X9695501Y-16484475D02*
X9695501Y-16532095D01*
X9695501Y-16532095D02*
X9685977Y-16570190D01*
X9685977Y-16570190D02*
X9676453Y-16589237D01*
X9676453Y-16589237D02*
X9666929Y-16598761D01*
X9666929Y-16598761D02*
X9647882Y-16608285D01*
X9647882Y-16608285D02*
X9628834Y-16608285D01*
X9628834Y-16608285D02*
X9609787Y-16598761D01*
X9609787Y-16598761D02*
X9600263Y-16589237D01*
X9600263Y-16589237D02*
X9590739Y-16570190D01*
X9590739Y-16570190D02*
X9581215Y-16532095D01*
X9581215Y-16532095D02*
X9581215Y-16484475D01*
X9581215Y-16484475D02*
X9590739Y-16446380D01*
X9590739Y-16446380D02*
X9600263Y-16427333D01*
X9600263Y-16427333D02*
X9609787Y-16417809D01*
X9609787Y-16417809D02*
X9628834Y-16408285D01*
X9781215Y-16589237D02*
X9790739Y-16598761D01*
X9790739Y-16598761D02*
X9781215Y-16608285D01*
X9781215Y-16608285D02*
X9771691Y-16598761D01*
X9771691Y-16598761D02*
X9781215Y-16589237D01*
X9781215Y-16589237D02*
X9781215Y-16608285D01*
X9914548Y-16408285D02*
X9933596Y-16408285D01*
X9933596Y-16408285D02*
X9952644Y-16417809D01*
X9952644Y-16417809D02*
X9962168Y-16427333D01*
X9962168Y-16427333D02*
X9971691Y-16446380D01*
X9971691Y-16446380D02*
X9981215Y-16484475D01*
X9981215Y-16484475D02*
X9981215Y-16532095D01*
X9981215Y-16532095D02*
X9971691Y-16570190D01*
X9971691Y-16570190D02*
X9962168Y-16589237D01*
X9962168Y-16589237D02*
X9952644Y-16598761D01*
X9952644Y-16598761D02*
X9933596Y-16608285D01*
X9933596Y-16608285D02*
X9914548Y-16608285D01*
X9914548Y-16608285D02*
X9895501Y-16598761D01*
X9895501Y-16598761D02*
X9885977Y-16589237D01*
X9885977Y-16589237D02*
X9876453Y-16570190D01*
X9876453Y-16570190D02*
X9866929Y-16532095D01*
X9866929Y-16532095D02*
X9866929Y-16484475D01*
X9866929Y-16484475D02*
X9876453Y-16446380D01*
X9876453Y-16446380D02*
X9885977Y-16427333D01*
X9885977Y-16427333D02*
X9895501Y-16417809D01*
X9895501Y-16417809D02*
X9914548Y-16408285D01*
X10047882Y-16408285D02*
X10171691Y-16408285D01*
X10171691Y-16408285D02*
X10105025Y-16484475D01*
X10105025Y-16484475D02*
X10133596Y-16484475D01*
X10133596Y-16484475D02*
X10152644Y-16493999D01*
X10152644Y-16493999D02*
X10162168Y-16503523D01*
X10162168Y-16503523D02*
X10171691Y-16522571D01*
X10171691Y-16522571D02*
X10171691Y-16570190D01*
X10171691Y-16570190D02*
X10162168Y-16589237D01*
X10162168Y-16589237D02*
X10152644Y-16598761D01*
X10152644Y-16598761D02*
X10133596Y-16608285D01*
X10133596Y-16608285D02*
X10076453Y-16608285D01*
X10076453Y-16608285D02*
X10057406Y-16598761D01*
X10057406Y-16598761D02*
X10047882Y-16589237D01*
X10352644Y-16408285D02*
X10257406Y-16408285D01*
X10257406Y-16408285D02*
X10247882Y-16503523D01*
X10247882Y-16503523D02*
X10257406Y-16493999D01*
X10257406Y-16493999D02*
X10276453Y-16484475D01*
X10276453Y-16484475D02*
X10324072Y-16484475D01*
X10324072Y-16484475D02*
X10343120Y-16493999D01*
X10343120Y-16493999D02*
X10352644Y-16503523D01*
X10352644Y-16503523D02*
X10362168Y-16522571D01*
X10362168Y-16522571D02*
X10362168Y-16570190D01*
X10362168Y-16570190D02*
X10352644Y-16589237D01*
X10352644Y-16589237D02*
X10343120Y-16598761D01*
X10343120Y-16598761D02*
X10324072Y-16608285D01*
X10324072Y-16608285D02*
X10276453Y-16608285D01*
X10276453Y-16608285D02*
X10257406Y-16598761D01*
X10257406Y-16598761D02*
X10247882Y-16589237D01*
X10485977Y-16408285D02*
X10505025Y-16408285D01*
X10505025Y-16408285D02*
X10524072Y-16417809D01*
X10524072Y-16417809D02*
X10533596Y-16427333D01*
X10533596Y-16427333D02*
X10543120Y-16446380D01*
X10543120Y-16446380D02*
X10552644Y-16484475D01*
X10552644Y-16484475D02*
X10552644Y-16532095D01*
X10552644Y-16532095D02*
X10543120Y-16570190D01*
X10543120Y-16570190D02*
X10533596Y-16589237D01*
X10533596Y-16589237D02*
X10524072Y-16598761D01*
X10524072Y-16598761D02*
X10505025Y-16608285D01*
X10505025Y-16608285D02*
X10485977Y-16608285D01*
X10485977Y-16608285D02*
X10466929Y-16598761D01*
X10466929Y-16598761D02*
X10457406Y-16589237D01*
X10457406Y-16589237D02*
X10447882Y-16570190D01*
X10447882Y-16570190D02*
X10438358Y-16532095D01*
X10438358Y-16532095D02*
X10438358Y-16484475D01*
X10438358Y-16484475D02*
X10447882Y-16446380D01*
X10447882Y-16446380D02*
X10457406Y-16427333D01*
X10457406Y-16427333D02*
X10466929Y-16417809D01*
X10466929Y-16417809D02*
X10485977Y-16408285D01*
X10628834Y-16408285D02*
X10628834Y-16446380D01*
X10705025Y-16408285D02*
X10705025Y-16446380D01*
X11000263Y-16684475D02*
X10990739Y-16674952D01*
X10990739Y-16674952D02*
X10971691Y-16646380D01*
X10971691Y-16646380D02*
X10962168Y-16627333D01*
X10962168Y-16627333D02*
X10952644Y-16598761D01*
X10952644Y-16598761D02*
X10943120Y-16551142D01*
X10943120Y-16551142D02*
X10943120Y-16513047D01*
X10943120Y-16513047D02*
X10952644Y-16465428D01*
X10952644Y-16465428D02*
X10962168Y-16436856D01*
X10962168Y-16436856D02*
X10971691Y-16417809D01*
X10971691Y-16417809D02*
X10990739Y-16389237D01*
X10990739Y-16389237D02*
X11000263Y-16379714D01*
X11181215Y-16608285D02*
X11066930Y-16608285D01*
X11124072Y-16608285D02*
X11124072Y-16408285D01*
X11124072Y-16408285D02*
X11105025Y-16436856D01*
X11105025Y-16436856D02*
X11085977Y-16455904D01*
X11085977Y-16455904D02*
X11066930Y-16465428D01*
X11257406Y-16427333D02*
X11266929Y-16417809D01*
X11266929Y-16417809D02*
X11285977Y-16408285D01*
X11285977Y-16408285D02*
X11333596Y-16408285D01*
X11333596Y-16408285D02*
X11352644Y-16417809D01*
X11352644Y-16417809D02*
X11362168Y-16427333D01*
X11362168Y-16427333D02*
X11371691Y-16446380D01*
X11371691Y-16446380D02*
X11371691Y-16465428D01*
X11371691Y-16465428D02*
X11362168Y-16493999D01*
X11362168Y-16493999D02*
X11247882Y-16608285D01*
X11247882Y-16608285D02*
X11371691Y-16608285D01*
X11609787Y-16608285D02*
X11609787Y-16408285D01*
X11695501Y-16608285D02*
X11695501Y-16503523D01*
X11695501Y-16503523D02*
X11685977Y-16484475D01*
X11685977Y-16484475D02*
X11666930Y-16474952D01*
X11666930Y-16474952D02*
X11638358Y-16474952D01*
X11638358Y-16474952D02*
X11619310Y-16484475D01*
X11619310Y-16484475D02*
X11609787Y-16493999D01*
X11819310Y-16608285D02*
X11800263Y-16598761D01*
X11800263Y-16598761D02*
X11790739Y-16589237D01*
X11790739Y-16589237D02*
X11781215Y-16570190D01*
X11781215Y-16570190D02*
X11781215Y-16513047D01*
X11781215Y-16513047D02*
X11790739Y-16493999D01*
X11790739Y-16493999D02*
X11800263Y-16484475D01*
X11800263Y-16484475D02*
X11819310Y-16474952D01*
X11819310Y-16474952D02*
X11847882Y-16474952D01*
X11847882Y-16474952D02*
X11866930Y-16484475D01*
X11866930Y-16484475D02*
X11876453Y-16493999D01*
X11876453Y-16493999D02*
X11885977Y-16513047D01*
X11885977Y-16513047D02*
X11885977Y-16570190D01*
X11885977Y-16570190D02*
X11876453Y-16589237D01*
X11876453Y-16589237D02*
X11866930Y-16598761D01*
X11866930Y-16598761D02*
X11847882Y-16608285D01*
X11847882Y-16608285D02*
X11819310Y-16608285D01*
X12000263Y-16608285D02*
X11981215Y-16598761D01*
X11981215Y-16598761D02*
X11971691Y-16579714D01*
X11971691Y-16579714D02*
X11971691Y-16408285D01*
X12152644Y-16598761D02*
X12133596Y-16608285D01*
X12133596Y-16608285D02*
X12095501Y-16608285D01*
X12095501Y-16608285D02*
X12076453Y-16598761D01*
X12076453Y-16598761D02*
X12066930Y-16579714D01*
X12066930Y-16579714D02*
X12066930Y-16503523D01*
X12066930Y-16503523D02*
X12076453Y-16484475D01*
X12076453Y-16484475D02*
X12095501Y-16474952D01*
X12095501Y-16474952D02*
X12133596Y-16474952D01*
X12133596Y-16474952D02*
X12152644Y-16484475D01*
X12152644Y-16484475D02*
X12162168Y-16503523D01*
X12162168Y-16503523D02*
X12162168Y-16522571D01*
X12162168Y-16522571D02*
X12066930Y-16541618D01*
X12238358Y-16598761D02*
X12257406Y-16608285D01*
X12257406Y-16608285D02*
X12295501Y-16608285D01*
X12295501Y-16608285D02*
X12314549Y-16598761D01*
X12314549Y-16598761D02*
X12324072Y-16579714D01*
X12324072Y-16579714D02*
X12324072Y-16570190D01*
X12324072Y-16570190D02*
X12314549Y-16551142D01*
X12314549Y-16551142D02*
X12295501Y-16541618D01*
X12295501Y-16541618D02*
X12266930Y-16541618D01*
X12266930Y-16541618D02*
X12247882Y-16532095D01*
X12247882Y-16532095D02*
X12238358Y-16513047D01*
X12238358Y-16513047D02*
X12238358Y-16503523D01*
X12238358Y-16503523D02*
X12247882Y-16484475D01*
X12247882Y-16484475D02*
X12266930Y-16474952D01*
X12266930Y-16474952D02*
X12295501Y-16474952D01*
X12295501Y-16474952D02*
X12314549Y-16484475D01*
X12390739Y-16684475D02*
X12400263Y-16674952D01*
X12400263Y-16674952D02*
X12419311Y-16646380D01*
X12419311Y-16646380D02*
X12428834Y-16627333D01*
X12428834Y-16627333D02*
X12438358Y-16598761D01*
X12438358Y-16598761D02*
X12447882Y-16551142D01*
X12447882Y-16551142D02*
X12447882Y-16513047D01*
X12447882Y-16513047D02*
X12438358Y-16465428D01*
X12438358Y-16465428D02*
X12428834Y-16436856D01*
X12428834Y-16436856D02*
X12419311Y-16417809D01*
X12419311Y-16417809D02*
X12400263Y-16389237D01*
X12400263Y-16389237D02*
X12390739Y-16379714D01*
D11*
X7380200Y-16825801D02*
X7425200Y-16780801D01*
X7380200Y-16735801D01*
X7335200Y-16780801D01*
X7380200Y-16825801D01*
D10*
X7724072Y-16672285D02*
X7743120Y-16672285D01*
X7743120Y-16672285D02*
X7762167Y-16681809D01*
X7762167Y-16681809D02*
X7771691Y-16691333D01*
X7771691Y-16691333D02*
X7781215Y-16710380D01*
X7781215Y-16710380D02*
X7790739Y-16748475D01*
X7790739Y-16748475D02*
X7790739Y-16796095D01*
X7790739Y-16796095D02*
X7781215Y-16834190D01*
X7781215Y-16834190D02*
X7771691Y-16853237D01*
X7771691Y-16853237D02*
X7762167Y-16862761D01*
X7762167Y-16862761D02*
X7743120Y-16872285D01*
X7743120Y-16872285D02*
X7724072Y-16872285D01*
X7724072Y-16872285D02*
X7705024Y-16862761D01*
X7705024Y-16862761D02*
X7695501Y-16853237D01*
X7695501Y-16853237D02*
X7685977Y-16834190D01*
X7685977Y-16834190D02*
X7676453Y-16796095D01*
X7676453Y-16796095D02*
X7676453Y-16748475D01*
X7676453Y-16748475D02*
X7685977Y-16710380D01*
X7685977Y-16710380D02*
X7695501Y-16691333D01*
X7695501Y-16691333D02*
X7705024Y-16681809D01*
X7705024Y-16681809D02*
X7724072Y-16672285D01*
X7876453Y-16853237D02*
X7885977Y-16862761D01*
X7885977Y-16862761D02*
X7876453Y-16872285D01*
X7876453Y-16872285D02*
X7866929Y-16862761D01*
X7866929Y-16862761D02*
X7876453Y-16853237D01*
X7876453Y-16853237D02*
X7876453Y-16872285D01*
X7981215Y-16872285D02*
X8019310Y-16872285D01*
X8019310Y-16872285D02*
X8038358Y-16862761D01*
X8038358Y-16862761D02*
X8047882Y-16853237D01*
X8047882Y-16853237D02*
X8066929Y-16824666D01*
X8066929Y-16824666D02*
X8076453Y-16786571D01*
X8076453Y-16786571D02*
X8076453Y-16710380D01*
X8076453Y-16710380D02*
X8066929Y-16691333D01*
X8066929Y-16691333D02*
X8057405Y-16681809D01*
X8057405Y-16681809D02*
X8038358Y-16672285D01*
X8038358Y-16672285D02*
X8000262Y-16672285D01*
X8000262Y-16672285D02*
X7981215Y-16681809D01*
X7981215Y-16681809D02*
X7971691Y-16691333D01*
X7971691Y-16691333D02*
X7962167Y-16710380D01*
X7962167Y-16710380D02*
X7962167Y-16757999D01*
X7962167Y-16757999D02*
X7971691Y-16777047D01*
X7971691Y-16777047D02*
X7981215Y-16786571D01*
X7981215Y-16786571D02*
X8000262Y-16796095D01*
X8000262Y-16796095D02*
X8038358Y-16796095D01*
X8038358Y-16796095D02*
X8057405Y-16786571D01*
X8057405Y-16786571D02*
X8066929Y-16777047D01*
X8066929Y-16777047D02*
X8076453Y-16757999D01*
X8200262Y-16672285D02*
X8219310Y-16672285D01*
X8219310Y-16672285D02*
X8238358Y-16681809D01*
X8238358Y-16681809D02*
X8247882Y-16691333D01*
X8247882Y-16691333D02*
X8257405Y-16710380D01*
X8257405Y-16710380D02*
X8266929Y-16748475D01*
X8266929Y-16748475D02*
X8266929Y-16796095D01*
X8266929Y-16796095D02*
X8257405Y-16834190D01*
X8257405Y-16834190D02*
X8247882Y-16853237D01*
X8247882Y-16853237D02*
X8238358Y-16862761D01*
X8238358Y-16862761D02*
X8219310Y-16872285D01*
X8219310Y-16872285D02*
X8200262Y-16872285D01*
X8200262Y-16872285D02*
X8181215Y-16862761D01*
X8181215Y-16862761D02*
X8171691Y-16853237D01*
X8171691Y-16853237D02*
X8162167Y-16834190D01*
X8162167Y-16834190D02*
X8152643Y-16796095D01*
X8152643Y-16796095D02*
X8152643Y-16748475D01*
X8152643Y-16748475D02*
X8162167Y-16710380D01*
X8162167Y-16710380D02*
X8171691Y-16691333D01*
X8171691Y-16691333D02*
X8181215Y-16681809D01*
X8181215Y-16681809D02*
X8200262Y-16672285D01*
X8390739Y-16672285D02*
X8409786Y-16672285D01*
X8409786Y-16672285D02*
X8428834Y-16681809D01*
X8428834Y-16681809D02*
X8438358Y-16691333D01*
X8438358Y-16691333D02*
X8447882Y-16710380D01*
X8447882Y-16710380D02*
X8457405Y-16748475D01*
X8457405Y-16748475D02*
X8457405Y-16796095D01*
X8457405Y-16796095D02*
X8447882Y-16834190D01*
X8447882Y-16834190D02*
X8438358Y-16853237D01*
X8438358Y-16853237D02*
X8428834Y-16862761D01*
X8428834Y-16862761D02*
X8409786Y-16872285D01*
X8409786Y-16872285D02*
X8390739Y-16872285D01*
X8390739Y-16872285D02*
X8371691Y-16862761D01*
X8371691Y-16862761D02*
X8362167Y-16853237D01*
X8362167Y-16853237D02*
X8352643Y-16834190D01*
X8352643Y-16834190D02*
X8343120Y-16796095D01*
X8343120Y-16796095D02*
X8343120Y-16748475D01*
X8343120Y-16748475D02*
X8352643Y-16710380D01*
X8352643Y-16710380D02*
X8362167Y-16691333D01*
X8362167Y-16691333D02*
X8371691Y-16681809D01*
X8371691Y-16681809D02*
X8390739Y-16672285D01*
X8543120Y-16872285D02*
X8543120Y-16738952D01*
X8543120Y-16757999D02*
X8552644Y-16748475D01*
X8552644Y-16748475D02*
X8571691Y-16738952D01*
X8571691Y-16738952D02*
X8600263Y-16738952D01*
X8600263Y-16738952D02*
X8619310Y-16748475D01*
X8619310Y-16748475D02*
X8628834Y-16767523D01*
X8628834Y-16767523D02*
X8628834Y-16872285D01*
X8628834Y-16767523D02*
X8638358Y-16748475D01*
X8638358Y-16748475D02*
X8657405Y-16738952D01*
X8657405Y-16738952D02*
X8685977Y-16738952D01*
X8685977Y-16738952D02*
X8705025Y-16748475D01*
X8705025Y-16748475D02*
X8714548Y-16767523D01*
X8714548Y-16767523D02*
X8714548Y-16872285D01*
X8809786Y-16872285D02*
X8809786Y-16738952D01*
X8809786Y-16757999D02*
X8819310Y-16748475D01*
X8819310Y-16748475D02*
X8838358Y-16738952D01*
X8838358Y-16738952D02*
X8866929Y-16738952D01*
X8866929Y-16738952D02*
X8885977Y-16748475D01*
X8885977Y-16748475D02*
X8895501Y-16767523D01*
X8895501Y-16767523D02*
X8895501Y-16872285D01*
X8895501Y-16767523D02*
X8905025Y-16748475D01*
X8905025Y-16748475D02*
X8924072Y-16738952D01*
X8924072Y-16738952D02*
X8952644Y-16738952D01*
X8952644Y-16738952D02*
X8971691Y-16748475D01*
X8971691Y-16748475D02*
X8981215Y-16767523D01*
X8981215Y-16767523D02*
X8981215Y-16872285D01*
X9371691Y-16662761D02*
X9200263Y-16919904D01*
X9628834Y-16672285D02*
X9647882Y-16672285D01*
X9647882Y-16672285D02*
X9666929Y-16681809D01*
X9666929Y-16681809D02*
X9676453Y-16691333D01*
X9676453Y-16691333D02*
X9685977Y-16710380D01*
X9685977Y-16710380D02*
X9695501Y-16748475D01*
X9695501Y-16748475D02*
X9695501Y-16796095D01*
X9695501Y-16796095D02*
X9685977Y-16834190D01*
X9685977Y-16834190D02*
X9676453Y-16853237D01*
X9676453Y-16853237D02*
X9666929Y-16862761D01*
X9666929Y-16862761D02*
X9647882Y-16872285D01*
X9647882Y-16872285D02*
X9628834Y-16872285D01*
X9628834Y-16872285D02*
X9609787Y-16862761D01*
X9609787Y-16862761D02*
X9600263Y-16853237D01*
X9600263Y-16853237D02*
X9590739Y-16834190D01*
X9590739Y-16834190D02*
X9581215Y-16796095D01*
X9581215Y-16796095D02*
X9581215Y-16748475D01*
X9581215Y-16748475D02*
X9590739Y-16710380D01*
X9590739Y-16710380D02*
X9600263Y-16691333D01*
X9600263Y-16691333D02*
X9609787Y-16681809D01*
X9609787Y-16681809D02*
X9628834Y-16672285D01*
X9781215Y-16853237D02*
X9790739Y-16862761D01*
X9790739Y-16862761D02*
X9781215Y-16872285D01*
X9781215Y-16872285D02*
X9771691Y-16862761D01*
X9771691Y-16862761D02*
X9781215Y-16853237D01*
X9781215Y-16853237D02*
X9781215Y-16872285D01*
X9914548Y-16672285D02*
X9933596Y-16672285D01*
X9933596Y-16672285D02*
X9952644Y-16681809D01*
X9952644Y-16681809D02*
X9962168Y-16691333D01*
X9962168Y-16691333D02*
X9971691Y-16710380D01*
X9971691Y-16710380D02*
X9981215Y-16748475D01*
X9981215Y-16748475D02*
X9981215Y-16796095D01*
X9981215Y-16796095D02*
X9971691Y-16834190D01*
X9971691Y-16834190D02*
X9962168Y-16853237D01*
X9962168Y-16853237D02*
X9952644Y-16862761D01*
X9952644Y-16862761D02*
X9933596Y-16872285D01*
X9933596Y-16872285D02*
X9914548Y-16872285D01*
X9914548Y-16872285D02*
X9895501Y-16862761D01*
X9895501Y-16862761D02*
X9885977Y-16853237D01*
X9885977Y-16853237D02*
X9876453Y-16834190D01*
X9876453Y-16834190D02*
X9866929Y-16796095D01*
X9866929Y-16796095D02*
X9866929Y-16748475D01*
X9866929Y-16748475D02*
X9876453Y-16710380D01*
X9876453Y-16710380D02*
X9885977Y-16691333D01*
X9885977Y-16691333D02*
X9895501Y-16681809D01*
X9895501Y-16681809D02*
X9914548Y-16672285D01*
X10047882Y-16672285D02*
X10171691Y-16672285D01*
X10171691Y-16672285D02*
X10105025Y-16748475D01*
X10105025Y-16748475D02*
X10133596Y-16748475D01*
X10133596Y-16748475D02*
X10152644Y-16757999D01*
X10152644Y-16757999D02*
X10162168Y-16767523D01*
X10162168Y-16767523D02*
X10171691Y-16786571D01*
X10171691Y-16786571D02*
X10171691Y-16834190D01*
X10171691Y-16834190D02*
X10162168Y-16853237D01*
X10162168Y-16853237D02*
X10152644Y-16862761D01*
X10152644Y-16862761D02*
X10133596Y-16872285D01*
X10133596Y-16872285D02*
X10076453Y-16872285D01*
X10076453Y-16872285D02*
X10057406Y-16862761D01*
X10057406Y-16862761D02*
X10047882Y-16853237D01*
X10352644Y-16672285D02*
X10257406Y-16672285D01*
X10257406Y-16672285D02*
X10247882Y-16767523D01*
X10247882Y-16767523D02*
X10257406Y-16757999D01*
X10257406Y-16757999D02*
X10276453Y-16748475D01*
X10276453Y-16748475D02*
X10324072Y-16748475D01*
X10324072Y-16748475D02*
X10343120Y-16757999D01*
X10343120Y-16757999D02*
X10352644Y-16767523D01*
X10352644Y-16767523D02*
X10362168Y-16786571D01*
X10362168Y-16786571D02*
X10362168Y-16834190D01*
X10362168Y-16834190D02*
X10352644Y-16853237D01*
X10352644Y-16853237D02*
X10343120Y-16862761D01*
X10343120Y-16862761D02*
X10324072Y-16872285D01*
X10324072Y-16872285D02*
X10276453Y-16872285D01*
X10276453Y-16872285D02*
X10257406Y-16862761D01*
X10257406Y-16862761D02*
X10247882Y-16853237D01*
X10533596Y-16738952D02*
X10533596Y-16872285D01*
X10485977Y-16662761D02*
X10438358Y-16805618D01*
X10438358Y-16805618D02*
X10562168Y-16805618D01*
X10628834Y-16672285D02*
X10628834Y-16710380D01*
X10705025Y-16672285D02*
X10705025Y-16710380D01*
X11000263Y-16948476D02*
X10990739Y-16938952D01*
X10990739Y-16938952D02*
X10971691Y-16910380D01*
X10971691Y-16910380D02*
X10962168Y-16891333D01*
X10962168Y-16891333D02*
X10952644Y-16862761D01*
X10952644Y-16862761D02*
X10943120Y-16815142D01*
X10943120Y-16815142D02*
X10943120Y-16777047D01*
X10943120Y-16777047D02*
X10952644Y-16729428D01*
X10952644Y-16729428D02*
X10962168Y-16700856D01*
X10962168Y-16700856D02*
X10971691Y-16681809D01*
X10971691Y-16681809D02*
X10990739Y-16653237D01*
X10990739Y-16653237D02*
X11000263Y-16643714D01*
X11085977Y-16872285D02*
X11124072Y-16872285D01*
X11124072Y-16872285D02*
X11143120Y-16862761D01*
X11143120Y-16862761D02*
X11152644Y-16853237D01*
X11152644Y-16853237D02*
X11171691Y-16824666D01*
X11171691Y-16824666D02*
X11181215Y-16786571D01*
X11181215Y-16786571D02*
X11181215Y-16710380D01*
X11181215Y-16710380D02*
X11171691Y-16691333D01*
X11171691Y-16691333D02*
X11162168Y-16681809D01*
X11162168Y-16681809D02*
X11143120Y-16672285D01*
X11143120Y-16672285D02*
X11105025Y-16672285D01*
X11105025Y-16672285D02*
X11085977Y-16681809D01*
X11085977Y-16681809D02*
X11076453Y-16691333D01*
X11076453Y-16691333D02*
X11066930Y-16710380D01*
X11066930Y-16710380D02*
X11066930Y-16757999D01*
X11066930Y-16757999D02*
X11076453Y-16777047D01*
X11076453Y-16777047D02*
X11085977Y-16786571D01*
X11085977Y-16786571D02*
X11105025Y-16796095D01*
X11105025Y-16796095D02*
X11143120Y-16796095D01*
X11143120Y-16796095D02*
X11162168Y-16786571D01*
X11162168Y-16786571D02*
X11171691Y-16777047D01*
X11171691Y-16777047D02*
X11181215Y-16757999D01*
X11419310Y-16872285D02*
X11419310Y-16672285D01*
X11505025Y-16872285D02*
X11505025Y-16767523D01*
X11505025Y-16767523D02*
X11495501Y-16748475D01*
X11495501Y-16748475D02*
X11476453Y-16738952D01*
X11476453Y-16738952D02*
X11447882Y-16738952D01*
X11447882Y-16738952D02*
X11428834Y-16748475D01*
X11428834Y-16748475D02*
X11419310Y-16757999D01*
X11628834Y-16872285D02*
X11609787Y-16862761D01*
X11609787Y-16862761D02*
X11600263Y-16853237D01*
X11600263Y-16853237D02*
X11590739Y-16834190D01*
X11590739Y-16834190D02*
X11590739Y-16777047D01*
X11590739Y-16777047D02*
X11600263Y-16757999D01*
X11600263Y-16757999D02*
X11609787Y-16748475D01*
X11609787Y-16748475D02*
X11628834Y-16738952D01*
X11628834Y-16738952D02*
X11657406Y-16738952D01*
X11657406Y-16738952D02*
X11676453Y-16748475D01*
X11676453Y-16748475D02*
X11685977Y-16757999D01*
X11685977Y-16757999D02*
X11695501Y-16777047D01*
X11695501Y-16777047D02*
X11695501Y-16834190D01*
X11695501Y-16834190D02*
X11685977Y-16853237D01*
X11685977Y-16853237D02*
X11676453Y-16862761D01*
X11676453Y-16862761D02*
X11657406Y-16872285D01*
X11657406Y-16872285D02*
X11628834Y-16872285D01*
X11809787Y-16872285D02*
X11790739Y-16862761D01*
X11790739Y-16862761D02*
X11781215Y-16843714D01*
X11781215Y-16843714D02*
X11781215Y-16672285D01*
X11962168Y-16862761D02*
X11943120Y-16872285D01*
X11943120Y-16872285D02*
X11905025Y-16872285D01*
X11905025Y-16872285D02*
X11885977Y-16862761D01*
X11885977Y-16862761D02*
X11876453Y-16843714D01*
X11876453Y-16843714D02*
X11876453Y-16767523D01*
X11876453Y-16767523D02*
X11885977Y-16748475D01*
X11885977Y-16748475D02*
X11905025Y-16738952D01*
X11905025Y-16738952D02*
X11943120Y-16738952D01*
X11943120Y-16738952D02*
X11962168Y-16748475D01*
X11962168Y-16748475D02*
X11971691Y-16767523D01*
X11971691Y-16767523D02*
X11971691Y-16786571D01*
X11971691Y-16786571D02*
X11876453Y-16805618D01*
X12047882Y-16862761D02*
X12066930Y-16872285D01*
X12066930Y-16872285D02*
X12105025Y-16872285D01*
X12105025Y-16872285D02*
X12124072Y-16862761D01*
X12124072Y-16862761D02*
X12133596Y-16843714D01*
X12133596Y-16843714D02*
X12133596Y-16834190D01*
X12133596Y-16834190D02*
X12124072Y-16815142D01*
X12124072Y-16815142D02*
X12105025Y-16805618D01*
X12105025Y-16805618D02*
X12076453Y-16805618D01*
X12076453Y-16805618D02*
X12057406Y-16796095D01*
X12057406Y-16796095D02*
X12047882Y-16777047D01*
X12047882Y-16777047D02*
X12047882Y-16767523D01*
X12047882Y-16767523D02*
X12057406Y-16748475D01*
X12057406Y-16748475D02*
X12076453Y-16738952D01*
X12076453Y-16738952D02*
X12105025Y-16738952D01*
X12105025Y-16738952D02*
X12124072Y-16748475D01*
X12200263Y-16948476D02*
X12209787Y-16938952D01*
X12209787Y-16938952D02*
X12228834Y-16910380D01*
X12228834Y-16910380D02*
X12238358Y-16891333D01*
X12238358Y-16891333D02*
X12247882Y-16862761D01*
X12247882Y-16862761D02*
X12257406Y-16815142D01*
X12257406Y-16815142D02*
X12257406Y-16777047D01*
X12257406Y-16777047D02*
X12247882Y-16729428D01*
X12247882Y-16729428D02*
X12238358Y-16700856D01*
X12238358Y-16700856D02*
X12228834Y-16681809D01*
X12228834Y-16681809D02*
X12209787Y-16653237D01*
X12209787Y-16653237D02*
X12200263Y-16643714D01*
D11*
X7326200Y-16995301D02*
X7425200Y-17094301D01*
X7425200Y-16995301D02*
X7326200Y-17094301D01*
X7425200Y-17044801D02*
G75*
G02*
X7326200Y-17044801I-49500J0D01*
G01*
X7326200Y-17044801D02*
G75*
G02*
X7425200Y-17044801I49500J0D01*
G01*
D10*
X7724072Y-16936285D02*
X7743120Y-16936285D01*
X7743120Y-16936285D02*
X7762167Y-16945809D01*
X7762167Y-16945809D02*
X7771691Y-16955333D01*
X7771691Y-16955333D02*
X7781215Y-16974380D01*
X7781215Y-16974380D02*
X7790739Y-17012476D01*
X7790739Y-17012476D02*
X7790739Y-17060095D01*
X7790739Y-17060095D02*
X7781215Y-17098190D01*
X7781215Y-17098190D02*
X7771691Y-17117237D01*
X7771691Y-17117237D02*
X7762167Y-17126761D01*
X7762167Y-17126761D02*
X7743120Y-17136285D01*
X7743120Y-17136285D02*
X7724072Y-17136285D01*
X7724072Y-17136285D02*
X7705024Y-17126761D01*
X7705024Y-17126761D02*
X7695501Y-17117237D01*
X7695501Y-17117237D02*
X7685977Y-17098190D01*
X7685977Y-17098190D02*
X7676453Y-17060095D01*
X7676453Y-17060095D02*
X7676453Y-17012476D01*
X7676453Y-17012476D02*
X7685977Y-16974380D01*
X7685977Y-16974380D02*
X7695501Y-16955333D01*
X7695501Y-16955333D02*
X7705024Y-16945809D01*
X7705024Y-16945809D02*
X7724072Y-16936285D01*
X7876453Y-17117237D02*
X7885977Y-17126761D01*
X7885977Y-17126761D02*
X7876453Y-17136285D01*
X7876453Y-17136285D02*
X7866929Y-17126761D01*
X7866929Y-17126761D02*
X7876453Y-17117237D01*
X7876453Y-17117237D02*
X7876453Y-17136285D01*
X7981215Y-17136285D02*
X8019310Y-17136285D01*
X8019310Y-17136285D02*
X8038358Y-17126761D01*
X8038358Y-17126761D02*
X8047882Y-17117237D01*
X8047882Y-17117237D02*
X8066929Y-17088666D01*
X8066929Y-17088666D02*
X8076453Y-17050571D01*
X8076453Y-17050571D02*
X8076453Y-16974380D01*
X8076453Y-16974380D02*
X8066929Y-16955333D01*
X8066929Y-16955333D02*
X8057405Y-16945809D01*
X8057405Y-16945809D02*
X8038358Y-16936285D01*
X8038358Y-16936285D02*
X8000262Y-16936285D01*
X8000262Y-16936285D02*
X7981215Y-16945809D01*
X7981215Y-16945809D02*
X7971691Y-16955333D01*
X7971691Y-16955333D02*
X7962167Y-16974380D01*
X7962167Y-16974380D02*
X7962167Y-17021999D01*
X7962167Y-17021999D02*
X7971691Y-17041047D01*
X7971691Y-17041047D02*
X7981215Y-17050571D01*
X7981215Y-17050571D02*
X8000262Y-17060095D01*
X8000262Y-17060095D02*
X8038358Y-17060095D01*
X8038358Y-17060095D02*
X8057405Y-17050571D01*
X8057405Y-17050571D02*
X8066929Y-17041047D01*
X8066929Y-17041047D02*
X8076453Y-17021999D01*
X8171691Y-17136285D02*
X8209786Y-17136285D01*
X8209786Y-17136285D02*
X8228834Y-17126761D01*
X8228834Y-17126761D02*
X8238358Y-17117237D01*
X8238358Y-17117237D02*
X8257405Y-17088666D01*
X8257405Y-17088666D02*
X8266929Y-17050571D01*
X8266929Y-17050571D02*
X8266929Y-16974380D01*
X8266929Y-16974380D02*
X8257405Y-16955333D01*
X8257405Y-16955333D02*
X8247882Y-16945809D01*
X8247882Y-16945809D02*
X8228834Y-16936285D01*
X8228834Y-16936285D02*
X8190739Y-16936285D01*
X8190739Y-16936285D02*
X8171691Y-16945809D01*
X8171691Y-16945809D02*
X8162167Y-16955333D01*
X8162167Y-16955333D02*
X8152643Y-16974380D01*
X8152643Y-16974380D02*
X8152643Y-17021999D01*
X8152643Y-17021999D02*
X8162167Y-17041047D01*
X8162167Y-17041047D02*
X8171691Y-17050571D01*
X8171691Y-17050571D02*
X8190739Y-17060095D01*
X8190739Y-17060095D02*
X8228834Y-17060095D01*
X8228834Y-17060095D02*
X8247882Y-17050571D01*
X8247882Y-17050571D02*
X8257405Y-17041047D01*
X8257405Y-17041047D02*
X8266929Y-17021999D01*
X8390739Y-16936285D02*
X8409786Y-16936285D01*
X8409786Y-16936285D02*
X8428834Y-16945809D01*
X8428834Y-16945809D02*
X8438358Y-16955333D01*
X8438358Y-16955333D02*
X8447882Y-16974380D01*
X8447882Y-16974380D02*
X8457405Y-17012476D01*
X8457405Y-17012476D02*
X8457405Y-17060095D01*
X8457405Y-17060095D02*
X8447882Y-17098190D01*
X8447882Y-17098190D02*
X8438358Y-17117237D01*
X8438358Y-17117237D02*
X8428834Y-17126761D01*
X8428834Y-17126761D02*
X8409786Y-17136285D01*
X8409786Y-17136285D02*
X8390739Y-17136285D01*
X8390739Y-17136285D02*
X8371691Y-17126761D01*
X8371691Y-17126761D02*
X8362167Y-17117237D01*
X8362167Y-17117237D02*
X8352643Y-17098190D01*
X8352643Y-17098190D02*
X8343120Y-17060095D01*
X8343120Y-17060095D02*
X8343120Y-17012476D01*
X8343120Y-17012476D02*
X8352643Y-16974380D01*
X8352643Y-16974380D02*
X8362167Y-16955333D01*
X8362167Y-16955333D02*
X8371691Y-16945809D01*
X8371691Y-16945809D02*
X8390739Y-16936285D01*
X8543120Y-17136285D02*
X8543120Y-17002952D01*
X8543120Y-17021999D02*
X8552644Y-17012476D01*
X8552644Y-17012476D02*
X8571691Y-17002952D01*
X8571691Y-17002952D02*
X8600263Y-17002952D01*
X8600263Y-17002952D02*
X8619310Y-17012476D01*
X8619310Y-17012476D02*
X8628834Y-17031523D01*
X8628834Y-17031523D02*
X8628834Y-17136285D01*
X8628834Y-17031523D02*
X8638358Y-17012476D01*
X8638358Y-17012476D02*
X8657405Y-17002952D01*
X8657405Y-17002952D02*
X8685977Y-17002952D01*
X8685977Y-17002952D02*
X8705025Y-17012476D01*
X8705025Y-17012476D02*
X8714548Y-17031523D01*
X8714548Y-17031523D02*
X8714548Y-17136285D01*
X8809786Y-17136285D02*
X8809786Y-17002952D01*
X8809786Y-17021999D02*
X8819310Y-17012476D01*
X8819310Y-17012476D02*
X8838358Y-17002952D01*
X8838358Y-17002952D02*
X8866929Y-17002952D01*
X8866929Y-17002952D02*
X8885977Y-17012476D01*
X8885977Y-17012476D02*
X8895501Y-17031523D01*
X8895501Y-17031523D02*
X8895501Y-17136285D01*
X8895501Y-17031523D02*
X8905025Y-17012476D01*
X8905025Y-17012476D02*
X8924072Y-17002952D01*
X8924072Y-17002952D02*
X8952644Y-17002952D01*
X8952644Y-17002952D02*
X8971691Y-17012476D01*
X8971691Y-17012476D02*
X8981215Y-17031523D01*
X8981215Y-17031523D02*
X8981215Y-17136285D01*
X9371691Y-16926761D02*
X9200263Y-17183904D01*
X9628834Y-16936285D02*
X9647882Y-16936285D01*
X9647882Y-16936285D02*
X9666929Y-16945809D01*
X9666929Y-16945809D02*
X9676453Y-16955333D01*
X9676453Y-16955333D02*
X9685977Y-16974380D01*
X9685977Y-16974380D02*
X9695501Y-17012476D01*
X9695501Y-17012476D02*
X9695501Y-17060095D01*
X9695501Y-17060095D02*
X9685977Y-17098190D01*
X9685977Y-17098190D02*
X9676453Y-17117237D01*
X9676453Y-17117237D02*
X9666929Y-17126761D01*
X9666929Y-17126761D02*
X9647882Y-17136285D01*
X9647882Y-17136285D02*
X9628834Y-17136285D01*
X9628834Y-17136285D02*
X9609787Y-17126761D01*
X9609787Y-17126761D02*
X9600263Y-17117237D01*
X9600263Y-17117237D02*
X9590739Y-17098190D01*
X9590739Y-17098190D02*
X9581215Y-17060095D01*
X9581215Y-17060095D02*
X9581215Y-17012476D01*
X9581215Y-17012476D02*
X9590739Y-16974380D01*
X9590739Y-16974380D02*
X9600263Y-16955333D01*
X9600263Y-16955333D02*
X9609787Y-16945809D01*
X9609787Y-16945809D02*
X9628834Y-16936285D01*
X9781215Y-17117237D02*
X9790739Y-17126761D01*
X9790739Y-17126761D02*
X9781215Y-17136285D01*
X9781215Y-17136285D02*
X9771691Y-17126761D01*
X9771691Y-17126761D02*
X9781215Y-17117237D01*
X9781215Y-17117237D02*
X9781215Y-17136285D01*
X9914548Y-16936285D02*
X9933596Y-16936285D01*
X9933596Y-16936285D02*
X9952644Y-16945809D01*
X9952644Y-16945809D02*
X9962168Y-16955333D01*
X9962168Y-16955333D02*
X9971691Y-16974380D01*
X9971691Y-16974380D02*
X9981215Y-17012476D01*
X9981215Y-17012476D02*
X9981215Y-17060095D01*
X9981215Y-17060095D02*
X9971691Y-17098190D01*
X9971691Y-17098190D02*
X9962168Y-17117237D01*
X9962168Y-17117237D02*
X9952644Y-17126761D01*
X9952644Y-17126761D02*
X9933596Y-17136285D01*
X9933596Y-17136285D02*
X9914548Y-17136285D01*
X9914548Y-17136285D02*
X9895501Y-17126761D01*
X9895501Y-17126761D02*
X9885977Y-17117237D01*
X9885977Y-17117237D02*
X9876453Y-17098190D01*
X9876453Y-17098190D02*
X9866929Y-17060095D01*
X9866929Y-17060095D02*
X9866929Y-17012476D01*
X9866929Y-17012476D02*
X9876453Y-16974380D01*
X9876453Y-16974380D02*
X9885977Y-16955333D01*
X9885977Y-16955333D02*
X9895501Y-16945809D01*
X9895501Y-16945809D02*
X9914548Y-16936285D01*
X10047882Y-16936285D02*
X10171691Y-16936285D01*
X10171691Y-16936285D02*
X10105025Y-17012476D01*
X10105025Y-17012476D02*
X10133596Y-17012476D01*
X10133596Y-17012476D02*
X10152644Y-17021999D01*
X10152644Y-17021999D02*
X10162168Y-17031523D01*
X10162168Y-17031523D02*
X10171691Y-17050571D01*
X10171691Y-17050571D02*
X10171691Y-17098190D01*
X10171691Y-17098190D02*
X10162168Y-17117237D01*
X10162168Y-17117237D02*
X10152644Y-17126761D01*
X10152644Y-17126761D02*
X10133596Y-17136285D01*
X10133596Y-17136285D02*
X10076453Y-17136285D01*
X10076453Y-17136285D02*
X10057406Y-17126761D01*
X10057406Y-17126761D02*
X10047882Y-17117237D01*
X10266929Y-17136285D02*
X10305025Y-17136285D01*
X10305025Y-17136285D02*
X10324072Y-17126761D01*
X10324072Y-17126761D02*
X10333596Y-17117237D01*
X10333596Y-17117237D02*
X10352644Y-17088666D01*
X10352644Y-17088666D02*
X10362168Y-17050571D01*
X10362168Y-17050571D02*
X10362168Y-16974380D01*
X10362168Y-16974380D02*
X10352644Y-16955333D01*
X10352644Y-16955333D02*
X10343120Y-16945809D01*
X10343120Y-16945809D02*
X10324072Y-16936285D01*
X10324072Y-16936285D02*
X10285977Y-16936285D01*
X10285977Y-16936285D02*
X10266929Y-16945809D01*
X10266929Y-16945809D02*
X10257406Y-16955333D01*
X10257406Y-16955333D02*
X10247882Y-16974380D01*
X10247882Y-16974380D02*
X10247882Y-17021999D01*
X10247882Y-17021999D02*
X10257406Y-17041047D01*
X10257406Y-17041047D02*
X10266929Y-17050571D01*
X10266929Y-17050571D02*
X10285977Y-17060095D01*
X10285977Y-17060095D02*
X10324072Y-17060095D01*
X10324072Y-17060095D02*
X10343120Y-17050571D01*
X10343120Y-17050571D02*
X10352644Y-17041047D01*
X10352644Y-17041047D02*
X10362168Y-17021999D01*
X10485977Y-16936285D02*
X10505025Y-16936285D01*
X10505025Y-16936285D02*
X10524072Y-16945809D01*
X10524072Y-16945809D02*
X10533596Y-16955333D01*
X10533596Y-16955333D02*
X10543120Y-16974380D01*
X10543120Y-16974380D02*
X10552644Y-17012476D01*
X10552644Y-17012476D02*
X10552644Y-17060095D01*
X10552644Y-17060095D02*
X10543120Y-17098190D01*
X10543120Y-17098190D02*
X10533596Y-17117237D01*
X10533596Y-17117237D02*
X10524072Y-17126761D01*
X10524072Y-17126761D02*
X10505025Y-17136285D01*
X10505025Y-17136285D02*
X10485977Y-17136285D01*
X10485977Y-17136285D02*
X10466929Y-17126761D01*
X10466929Y-17126761D02*
X10457406Y-17117237D01*
X10457406Y-17117237D02*
X10447882Y-17098190D01*
X10447882Y-17098190D02*
X10438358Y-17060095D01*
X10438358Y-17060095D02*
X10438358Y-17012476D01*
X10438358Y-17012476D02*
X10447882Y-16974380D01*
X10447882Y-16974380D02*
X10457406Y-16955333D01*
X10457406Y-16955333D02*
X10466929Y-16945809D01*
X10466929Y-16945809D02*
X10485977Y-16936285D01*
X10628834Y-16936285D02*
X10628834Y-16974380D01*
X10705025Y-16936285D02*
X10705025Y-16974380D01*
X11000263Y-17212476D02*
X10990739Y-17202952D01*
X10990739Y-17202952D02*
X10971691Y-17174380D01*
X10971691Y-17174380D02*
X10962168Y-17155333D01*
X10962168Y-17155333D02*
X10952644Y-17126761D01*
X10952644Y-17126761D02*
X10943120Y-17079142D01*
X10943120Y-17079142D02*
X10943120Y-17041047D01*
X10943120Y-17041047D02*
X10952644Y-16993428D01*
X10952644Y-16993428D02*
X10962168Y-16964857D01*
X10962168Y-16964857D02*
X10971691Y-16945809D01*
X10971691Y-16945809D02*
X10990739Y-16917237D01*
X10990739Y-16917237D02*
X11000263Y-16907714D01*
X11057406Y-16936285D02*
X11190739Y-16936285D01*
X11190739Y-16936285D02*
X11105025Y-17136285D01*
X11419310Y-17136285D02*
X11419310Y-16936285D01*
X11505025Y-17136285D02*
X11505025Y-17031523D01*
X11505025Y-17031523D02*
X11495501Y-17012476D01*
X11495501Y-17012476D02*
X11476453Y-17002952D01*
X11476453Y-17002952D02*
X11447882Y-17002952D01*
X11447882Y-17002952D02*
X11428834Y-17012476D01*
X11428834Y-17012476D02*
X11419310Y-17021999D01*
X11628834Y-17136285D02*
X11609787Y-17126761D01*
X11609787Y-17126761D02*
X11600263Y-17117237D01*
X11600263Y-17117237D02*
X11590739Y-17098190D01*
X11590739Y-17098190D02*
X11590739Y-17041047D01*
X11590739Y-17041047D02*
X11600263Y-17021999D01*
X11600263Y-17021999D02*
X11609787Y-17012476D01*
X11609787Y-17012476D02*
X11628834Y-17002952D01*
X11628834Y-17002952D02*
X11657406Y-17002952D01*
X11657406Y-17002952D02*
X11676453Y-17012476D01*
X11676453Y-17012476D02*
X11685977Y-17021999D01*
X11685977Y-17021999D02*
X11695501Y-17041047D01*
X11695501Y-17041047D02*
X11695501Y-17098190D01*
X11695501Y-17098190D02*
X11685977Y-17117237D01*
X11685977Y-17117237D02*
X11676453Y-17126761D01*
X11676453Y-17126761D02*
X11657406Y-17136285D01*
X11657406Y-17136285D02*
X11628834Y-17136285D01*
X11809787Y-17136285D02*
X11790739Y-17126761D01*
X11790739Y-17126761D02*
X11781215Y-17107714D01*
X11781215Y-17107714D02*
X11781215Y-16936285D01*
X11962168Y-17126761D02*
X11943120Y-17136285D01*
X11943120Y-17136285D02*
X11905025Y-17136285D01*
X11905025Y-17136285D02*
X11885977Y-17126761D01*
X11885977Y-17126761D02*
X11876453Y-17107714D01*
X11876453Y-17107714D02*
X11876453Y-17031523D01*
X11876453Y-17031523D02*
X11885977Y-17012476D01*
X11885977Y-17012476D02*
X11905025Y-17002952D01*
X11905025Y-17002952D02*
X11943120Y-17002952D01*
X11943120Y-17002952D02*
X11962168Y-17012476D01*
X11962168Y-17012476D02*
X11971691Y-17031523D01*
X11971691Y-17031523D02*
X11971691Y-17050571D01*
X11971691Y-17050571D02*
X11876453Y-17069618D01*
X12047882Y-17126761D02*
X12066930Y-17136285D01*
X12066930Y-17136285D02*
X12105025Y-17136285D01*
X12105025Y-17136285D02*
X12124072Y-17126761D01*
X12124072Y-17126761D02*
X12133596Y-17107714D01*
X12133596Y-17107714D02*
X12133596Y-17098190D01*
X12133596Y-17098190D02*
X12124072Y-17079142D01*
X12124072Y-17079142D02*
X12105025Y-17069618D01*
X12105025Y-17069618D02*
X12076453Y-17069618D01*
X12076453Y-17069618D02*
X12057406Y-17060095D01*
X12057406Y-17060095D02*
X12047882Y-17041047D01*
X12047882Y-17041047D02*
X12047882Y-17031523D01*
X12047882Y-17031523D02*
X12057406Y-17012476D01*
X12057406Y-17012476D02*
X12076453Y-17002952D01*
X12076453Y-17002952D02*
X12105025Y-17002952D01*
X12105025Y-17002952D02*
X12124072Y-17012476D01*
X12200263Y-17212476D02*
X12209787Y-17202952D01*
X12209787Y-17202952D02*
X12228834Y-17174380D01*
X12228834Y-17174380D02*
X12238358Y-17155333D01*
X12238358Y-17155333D02*
X12247882Y-17126761D01*
X12247882Y-17126761D02*
X12257406Y-17079142D01*
X12257406Y-17079142D02*
X12257406Y-17041047D01*
X12257406Y-17041047D02*
X12247882Y-16993428D01*
X12247882Y-16993428D02*
X12238358Y-16964857D01*
X12238358Y-16964857D02*
X12228834Y-16945809D01*
X12228834Y-16945809D02*
X12209787Y-16917237D01*
X12209787Y-16917237D02*
X12200263Y-16907714D01*
D11*
X7325200Y-17258801D02*
X7425200Y-17358801D01*
X7425200Y-17258801D02*
X7325200Y-17358801D01*
X7375200Y-17258801D02*
X7375200Y-17358801D01*
X7325200Y-17308801D02*
X7425200Y-17308801D01*
D10*
X7790739Y-17400285D02*
X7676453Y-17400285D01*
X7733596Y-17400285D02*
X7733596Y-17200285D01*
X7733596Y-17200285D02*
X7714548Y-17228857D01*
X7714548Y-17228857D02*
X7695501Y-17247904D01*
X7695501Y-17247904D02*
X7676453Y-17257428D01*
X7876453Y-17381237D02*
X7885977Y-17390761D01*
X7885977Y-17390761D02*
X7876453Y-17400285D01*
X7876453Y-17400285D02*
X7866929Y-17390761D01*
X7866929Y-17390761D02*
X7876453Y-17381237D01*
X7876453Y-17381237D02*
X7876453Y-17400285D01*
X8009786Y-17200285D02*
X8028834Y-17200285D01*
X8028834Y-17200285D02*
X8047882Y-17209809D01*
X8047882Y-17209809D02*
X8057405Y-17219333D01*
X8057405Y-17219333D02*
X8066929Y-17238380D01*
X8066929Y-17238380D02*
X8076453Y-17276476D01*
X8076453Y-17276476D02*
X8076453Y-17324095D01*
X8076453Y-17324095D02*
X8066929Y-17362190D01*
X8066929Y-17362190D02*
X8057405Y-17381237D01*
X8057405Y-17381237D02*
X8047882Y-17390761D01*
X8047882Y-17390761D02*
X8028834Y-17400285D01*
X8028834Y-17400285D02*
X8009786Y-17400285D01*
X8009786Y-17400285D02*
X7990739Y-17390761D01*
X7990739Y-17390761D02*
X7981215Y-17381237D01*
X7981215Y-17381237D02*
X7971691Y-17362190D01*
X7971691Y-17362190D02*
X7962167Y-17324095D01*
X7962167Y-17324095D02*
X7962167Y-17276476D01*
X7962167Y-17276476D02*
X7971691Y-17238380D01*
X7971691Y-17238380D02*
X7981215Y-17219333D01*
X7981215Y-17219333D02*
X7990739Y-17209809D01*
X7990739Y-17209809D02*
X8009786Y-17200285D01*
X8200262Y-17200285D02*
X8219310Y-17200285D01*
X8219310Y-17200285D02*
X8238358Y-17209809D01*
X8238358Y-17209809D02*
X8247882Y-17219333D01*
X8247882Y-17219333D02*
X8257405Y-17238380D01*
X8257405Y-17238380D02*
X8266929Y-17276476D01*
X8266929Y-17276476D02*
X8266929Y-17324095D01*
X8266929Y-17324095D02*
X8257405Y-17362190D01*
X8257405Y-17362190D02*
X8247882Y-17381237D01*
X8247882Y-17381237D02*
X8238358Y-17390761D01*
X8238358Y-17390761D02*
X8219310Y-17400285D01*
X8219310Y-17400285D02*
X8200262Y-17400285D01*
X8200262Y-17400285D02*
X8181215Y-17390761D01*
X8181215Y-17390761D02*
X8171691Y-17381237D01*
X8171691Y-17381237D02*
X8162167Y-17362190D01*
X8162167Y-17362190D02*
X8152643Y-17324095D01*
X8152643Y-17324095D02*
X8152643Y-17276476D01*
X8152643Y-17276476D02*
X8162167Y-17238380D01*
X8162167Y-17238380D02*
X8171691Y-17219333D01*
X8171691Y-17219333D02*
X8181215Y-17209809D01*
X8181215Y-17209809D02*
X8200262Y-17200285D01*
X8390739Y-17200285D02*
X8409786Y-17200285D01*
X8409786Y-17200285D02*
X8428834Y-17209809D01*
X8428834Y-17209809D02*
X8438358Y-17219333D01*
X8438358Y-17219333D02*
X8447882Y-17238380D01*
X8447882Y-17238380D02*
X8457405Y-17276476D01*
X8457405Y-17276476D02*
X8457405Y-17324095D01*
X8457405Y-17324095D02*
X8447882Y-17362190D01*
X8447882Y-17362190D02*
X8438358Y-17381237D01*
X8438358Y-17381237D02*
X8428834Y-17390761D01*
X8428834Y-17390761D02*
X8409786Y-17400285D01*
X8409786Y-17400285D02*
X8390739Y-17400285D01*
X8390739Y-17400285D02*
X8371691Y-17390761D01*
X8371691Y-17390761D02*
X8362167Y-17381237D01*
X8362167Y-17381237D02*
X8352643Y-17362190D01*
X8352643Y-17362190D02*
X8343120Y-17324095D01*
X8343120Y-17324095D02*
X8343120Y-17276476D01*
X8343120Y-17276476D02*
X8352643Y-17238380D01*
X8352643Y-17238380D02*
X8362167Y-17219333D01*
X8362167Y-17219333D02*
X8371691Y-17209809D01*
X8371691Y-17209809D02*
X8390739Y-17200285D01*
X8543120Y-17400285D02*
X8543120Y-17266952D01*
X8543120Y-17285999D02*
X8552644Y-17276476D01*
X8552644Y-17276476D02*
X8571691Y-17266952D01*
X8571691Y-17266952D02*
X8600263Y-17266952D01*
X8600263Y-17266952D02*
X8619310Y-17276476D01*
X8619310Y-17276476D02*
X8628834Y-17295523D01*
X8628834Y-17295523D02*
X8628834Y-17400285D01*
X8628834Y-17295523D02*
X8638358Y-17276476D01*
X8638358Y-17276476D02*
X8657405Y-17266952D01*
X8657405Y-17266952D02*
X8685977Y-17266952D01*
X8685977Y-17266952D02*
X8705025Y-17276476D01*
X8705025Y-17276476D02*
X8714548Y-17295523D01*
X8714548Y-17295523D02*
X8714548Y-17400285D01*
X8809786Y-17400285D02*
X8809786Y-17266952D01*
X8809786Y-17285999D02*
X8819310Y-17276476D01*
X8819310Y-17276476D02*
X8838358Y-17266952D01*
X8838358Y-17266952D02*
X8866929Y-17266952D01*
X8866929Y-17266952D02*
X8885977Y-17276476D01*
X8885977Y-17276476D02*
X8895501Y-17295523D01*
X8895501Y-17295523D02*
X8895501Y-17400285D01*
X8895501Y-17295523D02*
X8905025Y-17276476D01*
X8905025Y-17276476D02*
X8924072Y-17266952D01*
X8924072Y-17266952D02*
X8952644Y-17266952D01*
X8952644Y-17266952D02*
X8971691Y-17276476D01*
X8971691Y-17276476D02*
X8981215Y-17295523D01*
X8981215Y-17295523D02*
X8981215Y-17400285D01*
X9371691Y-17190761D02*
X9200263Y-17447904D01*
X9628834Y-17200285D02*
X9647882Y-17200285D01*
X9647882Y-17200285D02*
X9666929Y-17209809D01*
X9666929Y-17209809D02*
X9676453Y-17219333D01*
X9676453Y-17219333D02*
X9685977Y-17238380D01*
X9685977Y-17238380D02*
X9695501Y-17276476D01*
X9695501Y-17276476D02*
X9695501Y-17324095D01*
X9695501Y-17324095D02*
X9685977Y-17362190D01*
X9685977Y-17362190D02*
X9676453Y-17381237D01*
X9676453Y-17381237D02*
X9666929Y-17390761D01*
X9666929Y-17390761D02*
X9647882Y-17400285D01*
X9647882Y-17400285D02*
X9628834Y-17400285D01*
X9628834Y-17400285D02*
X9609787Y-17390761D01*
X9609787Y-17390761D02*
X9600263Y-17381237D01*
X9600263Y-17381237D02*
X9590739Y-17362190D01*
X9590739Y-17362190D02*
X9581215Y-17324095D01*
X9581215Y-17324095D02*
X9581215Y-17276476D01*
X9581215Y-17276476D02*
X9590739Y-17238380D01*
X9590739Y-17238380D02*
X9600263Y-17219333D01*
X9600263Y-17219333D02*
X9609787Y-17209809D01*
X9609787Y-17209809D02*
X9628834Y-17200285D01*
X9781215Y-17381237D02*
X9790739Y-17390761D01*
X9790739Y-17390761D02*
X9781215Y-17400285D01*
X9781215Y-17400285D02*
X9771691Y-17390761D01*
X9771691Y-17390761D02*
X9781215Y-17381237D01*
X9781215Y-17381237D02*
X9781215Y-17400285D01*
X9914548Y-17200285D02*
X9933596Y-17200285D01*
X9933596Y-17200285D02*
X9952644Y-17209809D01*
X9952644Y-17209809D02*
X9962168Y-17219333D01*
X9962168Y-17219333D02*
X9971691Y-17238380D01*
X9971691Y-17238380D02*
X9981215Y-17276476D01*
X9981215Y-17276476D02*
X9981215Y-17324095D01*
X9981215Y-17324095D02*
X9971691Y-17362190D01*
X9971691Y-17362190D02*
X9962168Y-17381237D01*
X9962168Y-17381237D02*
X9952644Y-17390761D01*
X9952644Y-17390761D02*
X9933596Y-17400285D01*
X9933596Y-17400285D02*
X9914548Y-17400285D01*
X9914548Y-17400285D02*
X9895501Y-17390761D01*
X9895501Y-17390761D02*
X9885977Y-17381237D01*
X9885977Y-17381237D02*
X9876453Y-17362190D01*
X9876453Y-17362190D02*
X9866929Y-17324095D01*
X9866929Y-17324095D02*
X9866929Y-17276476D01*
X9866929Y-17276476D02*
X9876453Y-17238380D01*
X9876453Y-17238380D02*
X9885977Y-17219333D01*
X9885977Y-17219333D02*
X9895501Y-17209809D01*
X9895501Y-17209809D02*
X9914548Y-17200285D01*
X10047882Y-17200285D02*
X10171691Y-17200285D01*
X10171691Y-17200285D02*
X10105025Y-17276476D01*
X10105025Y-17276476D02*
X10133596Y-17276476D01*
X10133596Y-17276476D02*
X10152644Y-17285999D01*
X10152644Y-17285999D02*
X10162168Y-17295523D01*
X10162168Y-17295523D02*
X10171691Y-17314571D01*
X10171691Y-17314571D02*
X10171691Y-17362190D01*
X10171691Y-17362190D02*
X10162168Y-17381237D01*
X10162168Y-17381237D02*
X10152644Y-17390761D01*
X10152644Y-17390761D02*
X10133596Y-17400285D01*
X10133596Y-17400285D02*
X10076453Y-17400285D01*
X10076453Y-17400285D02*
X10057406Y-17390761D01*
X10057406Y-17390761D02*
X10047882Y-17381237D01*
X10266929Y-17400285D02*
X10305025Y-17400285D01*
X10305025Y-17400285D02*
X10324072Y-17390761D01*
X10324072Y-17390761D02*
X10333596Y-17381237D01*
X10333596Y-17381237D02*
X10352644Y-17352666D01*
X10352644Y-17352666D02*
X10362168Y-17314571D01*
X10362168Y-17314571D02*
X10362168Y-17238380D01*
X10362168Y-17238380D02*
X10352644Y-17219333D01*
X10352644Y-17219333D02*
X10343120Y-17209809D01*
X10343120Y-17209809D02*
X10324072Y-17200285D01*
X10324072Y-17200285D02*
X10285977Y-17200285D01*
X10285977Y-17200285D02*
X10266929Y-17209809D01*
X10266929Y-17209809D02*
X10257406Y-17219333D01*
X10257406Y-17219333D02*
X10247882Y-17238380D01*
X10247882Y-17238380D02*
X10247882Y-17285999D01*
X10247882Y-17285999D02*
X10257406Y-17305047D01*
X10257406Y-17305047D02*
X10266929Y-17314571D01*
X10266929Y-17314571D02*
X10285977Y-17324095D01*
X10285977Y-17324095D02*
X10324072Y-17324095D01*
X10324072Y-17324095D02*
X10343120Y-17314571D01*
X10343120Y-17314571D02*
X10352644Y-17305047D01*
X10352644Y-17305047D02*
X10362168Y-17285999D01*
X10533596Y-17266952D02*
X10533596Y-17400285D01*
X10485977Y-17190761D02*
X10438358Y-17333618D01*
X10438358Y-17333618D02*
X10562168Y-17333618D01*
X10628834Y-17200285D02*
X10628834Y-17238380D01*
X10705025Y-17200285D02*
X10705025Y-17238380D01*
X11000263Y-17476476D02*
X10990739Y-17466952D01*
X10990739Y-17466952D02*
X10971691Y-17438380D01*
X10971691Y-17438380D02*
X10962168Y-17419333D01*
X10962168Y-17419333D02*
X10952644Y-17390761D01*
X10952644Y-17390761D02*
X10943120Y-17343142D01*
X10943120Y-17343142D02*
X10943120Y-17305047D01*
X10943120Y-17305047D02*
X10952644Y-17257428D01*
X10952644Y-17257428D02*
X10962168Y-17228857D01*
X10962168Y-17228857D02*
X10971691Y-17209809D01*
X10971691Y-17209809D02*
X10990739Y-17181237D01*
X10990739Y-17181237D02*
X11000263Y-17171714D01*
X11162168Y-17266952D02*
X11162168Y-17400285D01*
X11114549Y-17190761D02*
X11066930Y-17333618D01*
X11066930Y-17333618D02*
X11190739Y-17333618D01*
X11247882Y-17200285D02*
X11381215Y-17200285D01*
X11381215Y-17200285D02*
X11295501Y-17400285D01*
X11609787Y-17400285D02*
X11609787Y-17200285D01*
X11695501Y-17400285D02*
X11695501Y-17295523D01*
X11695501Y-17295523D02*
X11685977Y-17276476D01*
X11685977Y-17276476D02*
X11666930Y-17266952D01*
X11666930Y-17266952D02*
X11638358Y-17266952D01*
X11638358Y-17266952D02*
X11619310Y-17276476D01*
X11619310Y-17276476D02*
X11609787Y-17285999D01*
X11819310Y-17400285D02*
X11800263Y-17390761D01*
X11800263Y-17390761D02*
X11790739Y-17381237D01*
X11790739Y-17381237D02*
X11781215Y-17362190D01*
X11781215Y-17362190D02*
X11781215Y-17305047D01*
X11781215Y-17305047D02*
X11790739Y-17285999D01*
X11790739Y-17285999D02*
X11800263Y-17276476D01*
X11800263Y-17276476D02*
X11819310Y-17266952D01*
X11819310Y-17266952D02*
X11847882Y-17266952D01*
X11847882Y-17266952D02*
X11866930Y-17276476D01*
X11866930Y-17276476D02*
X11876453Y-17285999D01*
X11876453Y-17285999D02*
X11885977Y-17305047D01*
X11885977Y-17305047D02*
X11885977Y-17362190D01*
X11885977Y-17362190D02*
X11876453Y-17381237D01*
X11876453Y-17381237D02*
X11866930Y-17390761D01*
X11866930Y-17390761D02*
X11847882Y-17400285D01*
X11847882Y-17400285D02*
X11819310Y-17400285D01*
X12000263Y-17400285D02*
X11981215Y-17390761D01*
X11981215Y-17390761D02*
X11971691Y-17371714D01*
X11971691Y-17371714D02*
X11971691Y-17200285D01*
X12152644Y-17390761D02*
X12133596Y-17400285D01*
X12133596Y-17400285D02*
X12095501Y-17400285D01*
X12095501Y-17400285D02*
X12076453Y-17390761D01*
X12076453Y-17390761D02*
X12066930Y-17371714D01*
X12066930Y-17371714D02*
X12066930Y-17295523D01*
X12066930Y-17295523D02*
X12076453Y-17276476D01*
X12076453Y-17276476D02*
X12095501Y-17266952D01*
X12095501Y-17266952D02*
X12133596Y-17266952D01*
X12133596Y-17266952D02*
X12152644Y-17276476D01*
X12152644Y-17276476D02*
X12162168Y-17295523D01*
X12162168Y-17295523D02*
X12162168Y-17314571D01*
X12162168Y-17314571D02*
X12066930Y-17333618D01*
X12238358Y-17390761D02*
X12257406Y-17400285D01*
X12257406Y-17400285D02*
X12295501Y-17400285D01*
X12295501Y-17400285D02*
X12314549Y-17390761D01*
X12314549Y-17390761D02*
X12324072Y-17371714D01*
X12324072Y-17371714D02*
X12324072Y-17362190D01*
X12324072Y-17362190D02*
X12314549Y-17343142D01*
X12314549Y-17343142D02*
X12295501Y-17333618D01*
X12295501Y-17333618D02*
X12266930Y-17333618D01*
X12266930Y-17333618D02*
X12247882Y-17324095D01*
X12247882Y-17324095D02*
X12238358Y-17305047D01*
X12238358Y-17305047D02*
X12238358Y-17295523D01*
X12238358Y-17295523D02*
X12247882Y-17276476D01*
X12247882Y-17276476D02*
X12266930Y-17266952D01*
X12266930Y-17266952D02*
X12295501Y-17266952D01*
X12295501Y-17266952D02*
X12314549Y-17276476D01*
X12390739Y-17476476D02*
X12400263Y-17466952D01*
X12400263Y-17466952D02*
X12419311Y-17438380D01*
X12419311Y-17438380D02*
X12428834Y-17419333D01*
X12428834Y-17419333D02*
X12438358Y-17390761D01*
X12438358Y-17390761D02*
X12447882Y-17343142D01*
X12447882Y-17343142D02*
X12447882Y-17305047D01*
X12447882Y-17305047D02*
X12438358Y-17257428D01*
X12438358Y-17257428D02*
X12428834Y-17228857D01*
X12428834Y-17228857D02*
X12419311Y-17209809D01*
X12419311Y-17209809D02*
X12400263Y-17181237D01*
X12400263Y-17181237D02*
X12390739Y-17171714D01*
D12*
X7315200Y-17517801D02*
X7425200Y-17627801D01*
X7425200Y-17517801D02*
X7315200Y-17627801D01*
X7409091Y-17611693D02*
X7409091Y-17533910D01*
X7331309Y-17533910D01*
X7331309Y-17611693D01*
X7409091Y-17611693D01*
D10*
X7790739Y-17664285D02*
X7676453Y-17664285D01*
X7733596Y-17664285D02*
X7733596Y-17464285D01*
X7733596Y-17464285D02*
X7714548Y-17492857D01*
X7714548Y-17492857D02*
X7695501Y-17511904D01*
X7695501Y-17511904D02*
X7676453Y-17521428D01*
X7876453Y-17645237D02*
X7885977Y-17654761D01*
X7885977Y-17654761D02*
X7876453Y-17664285D01*
X7876453Y-17664285D02*
X7866929Y-17654761D01*
X7866929Y-17654761D02*
X7876453Y-17645237D01*
X7876453Y-17645237D02*
X7876453Y-17664285D01*
X8076453Y-17664285D02*
X7962167Y-17664285D01*
X8019310Y-17664285D02*
X8019310Y-17464285D01*
X8019310Y-17464285D02*
X8000262Y-17492857D01*
X8000262Y-17492857D02*
X7981215Y-17511904D01*
X7981215Y-17511904D02*
X7962167Y-17521428D01*
X8200262Y-17464285D02*
X8219310Y-17464285D01*
X8219310Y-17464285D02*
X8238358Y-17473809D01*
X8238358Y-17473809D02*
X8247882Y-17483333D01*
X8247882Y-17483333D02*
X8257405Y-17502380D01*
X8257405Y-17502380D02*
X8266929Y-17540476D01*
X8266929Y-17540476D02*
X8266929Y-17588095D01*
X8266929Y-17588095D02*
X8257405Y-17626190D01*
X8257405Y-17626190D02*
X8247882Y-17645237D01*
X8247882Y-17645237D02*
X8238358Y-17654761D01*
X8238358Y-17654761D02*
X8219310Y-17664285D01*
X8219310Y-17664285D02*
X8200262Y-17664285D01*
X8200262Y-17664285D02*
X8181215Y-17654761D01*
X8181215Y-17654761D02*
X8171691Y-17645237D01*
X8171691Y-17645237D02*
X8162167Y-17626190D01*
X8162167Y-17626190D02*
X8152643Y-17588095D01*
X8152643Y-17588095D02*
X8152643Y-17540476D01*
X8152643Y-17540476D02*
X8162167Y-17502380D01*
X8162167Y-17502380D02*
X8171691Y-17483333D01*
X8171691Y-17483333D02*
X8181215Y-17473809D01*
X8181215Y-17473809D02*
X8200262Y-17464285D01*
X8390739Y-17464285D02*
X8409786Y-17464285D01*
X8409786Y-17464285D02*
X8428834Y-17473809D01*
X8428834Y-17473809D02*
X8438358Y-17483333D01*
X8438358Y-17483333D02*
X8447882Y-17502380D01*
X8447882Y-17502380D02*
X8457405Y-17540476D01*
X8457405Y-17540476D02*
X8457405Y-17588095D01*
X8457405Y-17588095D02*
X8447882Y-17626190D01*
X8447882Y-17626190D02*
X8438358Y-17645237D01*
X8438358Y-17645237D02*
X8428834Y-17654761D01*
X8428834Y-17654761D02*
X8409786Y-17664285D01*
X8409786Y-17664285D02*
X8390739Y-17664285D01*
X8390739Y-17664285D02*
X8371691Y-17654761D01*
X8371691Y-17654761D02*
X8362167Y-17645237D01*
X8362167Y-17645237D02*
X8352643Y-17626190D01*
X8352643Y-17626190D02*
X8343120Y-17588095D01*
X8343120Y-17588095D02*
X8343120Y-17540476D01*
X8343120Y-17540476D02*
X8352643Y-17502380D01*
X8352643Y-17502380D02*
X8362167Y-17483333D01*
X8362167Y-17483333D02*
X8371691Y-17473809D01*
X8371691Y-17473809D02*
X8390739Y-17464285D01*
X8543120Y-17664285D02*
X8543120Y-17530952D01*
X8543120Y-17549999D02*
X8552644Y-17540476D01*
X8552644Y-17540476D02*
X8571691Y-17530952D01*
X8571691Y-17530952D02*
X8600263Y-17530952D01*
X8600263Y-17530952D02*
X8619310Y-17540476D01*
X8619310Y-17540476D02*
X8628834Y-17559523D01*
X8628834Y-17559523D02*
X8628834Y-17664285D01*
X8628834Y-17559523D02*
X8638358Y-17540476D01*
X8638358Y-17540476D02*
X8657405Y-17530952D01*
X8657405Y-17530952D02*
X8685977Y-17530952D01*
X8685977Y-17530952D02*
X8705025Y-17540476D01*
X8705025Y-17540476D02*
X8714548Y-17559523D01*
X8714548Y-17559523D02*
X8714548Y-17664285D01*
X8809786Y-17664285D02*
X8809786Y-17530952D01*
X8809786Y-17549999D02*
X8819310Y-17540476D01*
X8819310Y-17540476D02*
X8838358Y-17530952D01*
X8838358Y-17530952D02*
X8866929Y-17530952D01*
X8866929Y-17530952D02*
X8885977Y-17540476D01*
X8885977Y-17540476D02*
X8895501Y-17559523D01*
X8895501Y-17559523D02*
X8895501Y-17664285D01*
X8895501Y-17559523D02*
X8905025Y-17540476D01*
X8905025Y-17540476D02*
X8924072Y-17530952D01*
X8924072Y-17530952D02*
X8952644Y-17530952D01*
X8952644Y-17530952D02*
X8971691Y-17540476D01*
X8971691Y-17540476D02*
X8981215Y-17559523D01*
X8981215Y-17559523D02*
X8981215Y-17664285D01*
X9371691Y-17454761D02*
X9200263Y-17711904D01*
X9628834Y-17464285D02*
X9647882Y-17464285D01*
X9647882Y-17464285D02*
X9666929Y-17473809D01*
X9666929Y-17473809D02*
X9676453Y-17483333D01*
X9676453Y-17483333D02*
X9685977Y-17502380D01*
X9685977Y-17502380D02*
X9695501Y-17540476D01*
X9695501Y-17540476D02*
X9695501Y-17588095D01*
X9695501Y-17588095D02*
X9685977Y-17626190D01*
X9685977Y-17626190D02*
X9676453Y-17645237D01*
X9676453Y-17645237D02*
X9666929Y-17654761D01*
X9666929Y-17654761D02*
X9647882Y-17664285D01*
X9647882Y-17664285D02*
X9628834Y-17664285D01*
X9628834Y-17664285D02*
X9609787Y-17654761D01*
X9609787Y-17654761D02*
X9600263Y-17645237D01*
X9600263Y-17645237D02*
X9590739Y-17626190D01*
X9590739Y-17626190D02*
X9581215Y-17588095D01*
X9581215Y-17588095D02*
X9581215Y-17540476D01*
X9581215Y-17540476D02*
X9590739Y-17502380D01*
X9590739Y-17502380D02*
X9600263Y-17483333D01*
X9600263Y-17483333D02*
X9609787Y-17473809D01*
X9609787Y-17473809D02*
X9628834Y-17464285D01*
X9781215Y-17645237D02*
X9790739Y-17654761D01*
X9790739Y-17654761D02*
X9781215Y-17664285D01*
X9781215Y-17664285D02*
X9771691Y-17654761D01*
X9771691Y-17654761D02*
X9781215Y-17645237D01*
X9781215Y-17645237D02*
X9781215Y-17664285D01*
X9914548Y-17464285D02*
X9933596Y-17464285D01*
X9933596Y-17464285D02*
X9952644Y-17473809D01*
X9952644Y-17473809D02*
X9962168Y-17483333D01*
X9962168Y-17483333D02*
X9971691Y-17502380D01*
X9971691Y-17502380D02*
X9981215Y-17540476D01*
X9981215Y-17540476D02*
X9981215Y-17588095D01*
X9981215Y-17588095D02*
X9971691Y-17626190D01*
X9971691Y-17626190D02*
X9962168Y-17645237D01*
X9962168Y-17645237D02*
X9952644Y-17654761D01*
X9952644Y-17654761D02*
X9933596Y-17664285D01*
X9933596Y-17664285D02*
X9914548Y-17664285D01*
X9914548Y-17664285D02*
X9895501Y-17654761D01*
X9895501Y-17654761D02*
X9885977Y-17645237D01*
X9885977Y-17645237D02*
X9876453Y-17626190D01*
X9876453Y-17626190D02*
X9866929Y-17588095D01*
X9866929Y-17588095D02*
X9866929Y-17540476D01*
X9866929Y-17540476D02*
X9876453Y-17502380D01*
X9876453Y-17502380D02*
X9885977Y-17483333D01*
X9885977Y-17483333D02*
X9895501Y-17473809D01*
X9895501Y-17473809D02*
X9914548Y-17464285D01*
X10152644Y-17530952D02*
X10152644Y-17664285D01*
X10105025Y-17454761D02*
X10057406Y-17597618D01*
X10057406Y-17597618D02*
X10181215Y-17597618D01*
X10238358Y-17464285D02*
X10362168Y-17464285D01*
X10362168Y-17464285D02*
X10295501Y-17540476D01*
X10295501Y-17540476D02*
X10324072Y-17540476D01*
X10324072Y-17540476D02*
X10343120Y-17549999D01*
X10343120Y-17549999D02*
X10352644Y-17559523D01*
X10352644Y-17559523D02*
X10362168Y-17578571D01*
X10362168Y-17578571D02*
X10362168Y-17626190D01*
X10362168Y-17626190D02*
X10352644Y-17645237D01*
X10352644Y-17645237D02*
X10343120Y-17654761D01*
X10343120Y-17654761D02*
X10324072Y-17664285D01*
X10324072Y-17664285D02*
X10266929Y-17664285D01*
X10266929Y-17664285D02*
X10247882Y-17654761D01*
X10247882Y-17654761D02*
X10238358Y-17645237D01*
X10428834Y-17464285D02*
X10552644Y-17464285D01*
X10552644Y-17464285D02*
X10485977Y-17540476D01*
X10485977Y-17540476D02*
X10514549Y-17540476D01*
X10514549Y-17540476D02*
X10533596Y-17549999D01*
X10533596Y-17549999D02*
X10543120Y-17559523D01*
X10543120Y-17559523D02*
X10552644Y-17578571D01*
X10552644Y-17578571D02*
X10552644Y-17626190D01*
X10552644Y-17626190D02*
X10543120Y-17645237D01*
X10543120Y-17645237D02*
X10533596Y-17654761D01*
X10533596Y-17654761D02*
X10514549Y-17664285D01*
X10514549Y-17664285D02*
X10457406Y-17664285D01*
X10457406Y-17664285D02*
X10438358Y-17654761D01*
X10438358Y-17654761D02*
X10428834Y-17645237D01*
X10628834Y-17464285D02*
X10628834Y-17502380D01*
X10705025Y-17464285D02*
X10705025Y-17502380D01*
X11000263Y-17740476D02*
X10990739Y-17730952D01*
X10990739Y-17730952D02*
X10971691Y-17702380D01*
X10971691Y-17702380D02*
X10962168Y-17683333D01*
X10962168Y-17683333D02*
X10952644Y-17654761D01*
X10952644Y-17654761D02*
X10943120Y-17607142D01*
X10943120Y-17607142D02*
X10943120Y-17569047D01*
X10943120Y-17569047D02*
X10952644Y-17521428D01*
X10952644Y-17521428D02*
X10962168Y-17492857D01*
X10962168Y-17492857D02*
X10971691Y-17473809D01*
X10971691Y-17473809D02*
X10990739Y-17445237D01*
X10990739Y-17445237D02*
X11000263Y-17435714D01*
X11066930Y-17483333D02*
X11076453Y-17473809D01*
X11076453Y-17473809D02*
X11095501Y-17464285D01*
X11095501Y-17464285D02*
X11143120Y-17464285D01*
X11143120Y-17464285D02*
X11162168Y-17473809D01*
X11162168Y-17473809D02*
X11171691Y-17483333D01*
X11171691Y-17483333D02*
X11181215Y-17502380D01*
X11181215Y-17502380D02*
X11181215Y-17521428D01*
X11181215Y-17521428D02*
X11171691Y-17549999D01*
X11171691Y-17549999D02*
X11057406Y-17664285D01*
X11057406Y-17664285D02*
X11181215Y-17664285D01*
X11419310Y-17664285D02*
X11419310Y-17464285D01*
X11505025Y-17664285D02*
X11505025Y-17559523D01*
X11505025Y-17559523D02*
X11495501Y-17540476D01*
X11495501Y-17540476D02*
X11476453Y-17530952D01*
X11476453Y-17530952D02*
X11447882Y-17530952D01*
X11447882Y-17530952D02*
X11428834Y-17540476D01*
X11428834Y-17540476D02*
X11419310Y-17549999D01*
X11628834Y-17664285D02*
X11609787Y-17654761D01*
X11609787Y-17654761D02*
X11600263Y-17645237D01*
X11600263Y-17645237D02*
X11590739Y-17626190D01*
X11590739Y-17626190D02*
X11590739Y-17569047D01*
X11590739Y-17569047D02*
X11600263Y-17549999D01*
X11600263Y-17549999D02*
X11609787Y-17540476D01*
X11609787Y-17540476D02*
X11628834Y-17530952D01*
X11628834Y-17530952D02*
X11657406Y-17530952D01*
X11657406Y-17530952D02*
X11676453Y-17540476D01*
X11676453Y-17540476D02*
X11685977Y-17549999D01*
X11685977Y-17549999D02*
X11695501Y-17569047D01*
X11695501Y-17569047D02*
X11695501Y-17626190D01*
X11695501Y-17626190D02*
X11685977Y-17645237D01*
X11685977Y-17645237D02*
X11676453Y-17654761D01*
X11676453Y-17654761D02*
X11657406Y-17664285D01*
X11657406Y-17664285D02*
X11628834Y-17664285D01*
X11809787Y-17664285D02*
X11790739Y-17654761D01*
X11790739Y-17654761D02*
X11781215Y-17635714D01*
X11781215Y-17635714D02*
X11781215Y-17464285D01*
X11962168Y-17654761D02*
X11943120Y-17664285D01*
X11943120Y-17664285D02*
X11905025Y-17664285D01*
X11905025Y-17664285D02*
X11885977Y-17654761D01*
X11885977Y-17654761D02*
X11876453Y-17635714D01*
X11876453Y-17635714D02*
X11876453Y-17559523D01*
X11876453Y-17559523D02*
X11885977Y-17540476D01*
X11885977Y-17540476D02*
X11905025Y-17530952D01*
X11905025Y-17530952D02*
X11943120Y-17530952D01*
X11943120Y-17530952D02*
X11962168Y-17540476D01*
X11962168Y-17540476D02*
X11971691Y-17559523D01*
X11971691Y-17559523D02*
X11971691Y-17578571D01*
X11971691Y-17578571D02*
X11876453Y-17597618D01*
X12047882Y-17654761D02*
X12066930Y-17664285D01*
X12066930Y-17664285D02*
X12105025Y-17664285D01*
X12105025Y-17664285D02*
X12124072Y-17654761D01*
X12124072Y-17654761D02*
X12133596Y-17635714D01*
X12133596Y-17635714D02*
X12133596Y-17626190D01*
X12133596Y-17626190D02*
X12124072Y-17607142D01*
X12124072Y-17607142D02*
X12105025Y-17597618D01*
X12105025Y-17597618D02*
X12076453Y-17597618D01*
X12076453Y-17597618D02*
X12057406Y-17588095D01*
X12057406Y-17588095D02*
X12047882Y-17569047D01*
X12047882Y-17569047D02*
X12047882Y-17559523D01*
X12047882Y-17559523D02*
X12057406Y-17540476D01*
X12057406Y-17540476D02*
X12076453Y-17530952D01*
X12076453Y-17530952D02*
X12105025Y-17530952D01*
X12105025Y-17530952D02*
X12124072Y-17540476D01*
X12200263Y-17740476D02*
X12209787Y-17730952D01*
X12209787Y-17730952D02*
X12228834Y-17702380D01*
X12228834Y-17702380D02*
X12238358Y-17683333D01*
X12238358Y-17683333D02*
X12247882Y-17654761D01*
X12247882Y-17654761D02*
X12257406Y-17607142D01*
X12257406Y-17607142D02*
X12257406Y-17569047D01*
X12257406Y-17569047D02*
X12247882Y-17521428D01*
X12247882Y-17521428D02*
X12238358Y-17492857D01*
X12238358Y-17492857D02*
X12228834Y-17473809D01*
X12228834Y-17473809D02*
X12209787Y-17445237D01*
X12209787Y-17445237D02*
X12200263Y-17435714D01*
D13*
X7295200Y-17771801D02*
X7425200Y-17901801D01*
X7425200Y-17771801D02*
X7295200Y-17901801D01*
X7360200Y-17901801D02*
X7425200Y-17836801D01*
X7360200Y-17771801D01*
X7295200Y-17836801D01*
X7360200Y-17901801D01*
D10*
X7790739Y-17928285D02*
X7676453Y-17928285D01*
X7733596Y-17928285D02*
X7733596Y-17728285D01*
X7733596Y-17728285D02*
X7714548Y-17756857D01*
X7714548Y-17756857D02*
X7695501Y-17775904D01*
X7695501Y-17775904D02*
X7676453Y-17785428D01*
X7876453Y-17909237D02*
X7885977Y-17918761D01*
X7885977Y-17918761D02*
X7876453Y-17928285D01*
X7876453Y-17928285D02*
X7866929Y-17918761D01*
X7866929Y-17918761D02*
X7876453Y-17909237D01*
X7876453Y-17909237D02*
X7876453Y-17928285D01*
X7952643Y-17728285D02*
X8076453Y-17728285D01*
X8076453Y-17728285D02*
X8009786Y-17804476D01*
X8009786Y-17804476D02*
X8038358Y-17804476D01*
X8038358Y-17804476D02*
X8057405Y-17813999D01*
X8057405Y-17813999D02*
X8066929Y-17823523D01*
X8066929Y-17823523D02*
X8076453Y-17842571D01*
X8076453Y-17842571D02*
X8076453Y-17890190D01*
X8076453Y-17890190D02*
X8066929Y-17909237D01*
X8066929Y-17909237D02*
X8057405Y-17918761D01*
X8057405Y-17918761D02*
X8038358Y-17928285D01*
X8038358Y-17928285D02*
X7981215Y-17928285D01*
X7981215Y-17928285D02*
X7962167Y-17918761D01*
X7962167Y-17918761D02*
X7952643Y-17909237D01*
X8200262Y-17728285D02*
X8219310Y-17728285D01*
X8219310Y-17728285D02*
X8238358Y-17737809D01*
X8238358Y-17737809D02*
X8247882Y-17747333D01*
X8247882Y-17747333D02*
X8257405Y-17766380D01*
X8257405Y-17766380D02*
X8266929Y-17804476D01*
X8266929Y-17804476D02*
X8266929Y-17852095D01*
X8266929Y-17852095D02*
X8257405Y-17890190D01*
X8257405Y-17890190D02*
X8247882Y-17909237D01*
X8247882Y-17909237D02*
X8238358Y-17918761D01*
X8238358Y-17918761D02*
X8219310Y-17928285D01*
X8219310Y-17928285D02*
X8200262Y-17928285D01*
X8200262Y-17928285D02*
X8181215Y-17918761D01*
X8181215Y-17918761D02*
X8171691Y-17909237D01*
X8171691Y-17909237D02*
X8162167Y-17890190D01*
X8162167Y-17890190D02*
X8152643Y-17852095D01*
X8152643Y-17852095D02*
X8152643Y-17804476D01*
X8152643Y-17804476D02*
X8162167Y-17766380D01*
X8162167Y-17766380D02*
X8171691Y-17747333D01*
X8171691Y-17747333D02*
X8181215Y-17737809D01*
X8181215Y-17737809D02*
X8200262Y-17728285D01*
X8390739Y-17728285D02*
X8409786Y-17728285D01*
X8409786Y-17728285D02*
X8428834Y-17737809D01*
X8428834Y-17737809D02*
X8438358Y-17747333D01*
X8438358Y-17747333D02*
X8447882Y-17766380D01*
X8447882Y-17766380D02*
X8457405Y-17804476D01*
X8457405Y-17804476D02*
X8457405Y-17852095D01*
X8457405Y-17852095D02*
X8447882Y-17890190D01*
X8447882Y-17890190D02*
X8438358Y-17909237D01*
X8438358Y-17909237D02*
X8428834Y-17918761D01*
X8428834Y-17918761D02*
X8409786Y-17928285D01*
X8409786Y-17928285D02*
X8390739Y-17928285D01*
X8390739Y-17928285D02*
X8371691Y-17918761D01*
X8371691Y-17918761D02*
X8362167Y-17909237D01*
X8362167Y-17909237D02*
X8352643Y-17890190D01*
X8352643Y-17890190D02*
X8343120Y-17852095D01*
X8343120Y-17852095D02*
X8343120Y-17804476D01*
X8343120Y-17804476D02*
X8352643Y-17766380D01*
X8352643Y-17766380D02*
X8362167Y-17747333D01*
X8362167Y-17747333D02*
X8371691Y-17737809D01*
X8371691Y-17737809D02*
X8390739Y-17728285D01*
X8543120Y-17928285D02*
X8543120Y-17794952D01*
X8543120Y-17813999D02*
X8552644Y-17804476D01*
X8552644Y-17804476D02*
X8571691Y-17794952D01*
X8571691Y-17794952D02*
X8600263Y-17794952D01*
X8600263Y-17794952D02*
X8619310Y-17804476D01*
X8619310Y-17804476D02*
X8628834Y-17823523D01*
X8628834Y-17823523D02*
X8628834Y-17928285D01*
X8628834Y-17823523D02*
X8638358Y-17804476D01*
X8638358Y-17804476D02*
X8657405Y-17794952D01*
X8657405Y-17794952D02*
X8685977Y-17794952D01*
X8685977Y-17794952D02*
X8705025Y-17804476D01*
X8705025Y-17804476D02*
X8714548Y-17823523D01*
X8714548Y-17823523D02*
X8714548Y-17928285D01*
X8809786Y-17928285D02*
X8809786Y-17794952D01*
X8809786Y-17813999D02*
X8819310Y-17804476D01*
X8819310Y-17804476D02*
X8838358Y-17794952D01*
X8838358Y-17794952D02*
X8866929Y-17794952D01*
X8866929Y-17794952D02*
X8885977Y-17804476D01*
X8885977Y-17804476D02*
X8895501Y-17823523D01*
X8895501Y-17823523D02*
X8895501Y-17928285D01*
X8895501Y-17823523D02*
X8905025Y-17804476D01*
X8905025Y-17804476D02*
X8924072Y-17794952D01*
X8924072Y-17794952D02*
X8952644Y-17794952D01*
X8952644Y-17794952D02*
X8971691Y-17804476D01*
X8971691Y-17804476D02*
X8981215Y-17823523D01*
X8981215Y-17823523D02*
X8981215Y-17928285D01*
X9371691Y-17718761D02*
X9200263Y-17975904D01*
X9628834Y-17728285D02*
X9647882Y-17728285D01*
X9647882Y-17728285D02*
X9666929Y-17737809D01*
X9666929Y-17737809D02*
X9676453Y-17747333D01*
X9676453Y-17747333D02*
X9685977Y-17766380D01*
X9685977Y-17766380D02*
X9695501Y-17804476D01*
X9695501Y-17804476D02*
X9695501Y-17852095D01*
X9695501Y-17852095D02*
X9685977Y-17890190D01*
X9685977Y-17890190D02*
X9676453Y-17909237D01*
X9676453Y-17909237D02*
X9666929Y-17918761D01*
X9666929Y-17918761D02*
X9647882Y-17928285D01*
X9647882Y-17928285D02*
X9628834Y-17928285D01*
X9628834Y-17928285D02*
X9609787Y-17918761D01*
X9609787Y-17918761D02*
X9600263Y-17909237D01*
X9600263Y-17909237D02*
X9590739Y-17890190D01*
X9590739Y-17890190D02*
X9581215Y-17852095D01*
X9581215Y-17852095D02*
X9581215Y-17804476D01*
X9581215Y-17804476D02*
X9590739Y-17766380D01*
X9590739Y-17766380D02*
X9600263Y-17747333D01*
X9600263Y-17747333D02*
X9609787Y-17737809D01*
X9609787Y-17737809D02*
X9628834Y-17728285D01*
X9781215Y-17909237D02*
X9790739Y-17918761D01*
X9790739Y-17918761D02*
X9781215Y-17928285D01*
X9781215Y-17928285D02*
X9771691Y-17918761D01*
X9771691Y-17918761D02*
X9781215Y-17909237D01*
X9781215Y-17909237D02*
X9781215Y-17928285D01*
X9914548Y-17728285D02*
X9933596Y-17728285D01*
X9933596Y-17728285D02*
X9952644Y-17737809D01*
X9952644Y-17737809D02*
X9962168Y-17747333D01*
X9962168Y-17747333D02*
X9971691Y-17766380D01*
X9971691Y-17766380D02*
X9981215Y-17804476D01*
X9981215Y-17804476D02*
X9981215Y-17852095D01*
X9981215Y-17852095D02*
X9971691Y-17890190D01*
X9971691Y-17890190D02*
X9962168Y-17909237D01*
X9962168Y-17909237D02*
X9952644Y-17918761D01*
X9952644Y-17918761D02*
X9933596Y-17928285D01*
X9933596Y-17928285D02*
X9914548Y-17928285D01*
X9914548Y-17928285D02*
X9895501Y-17918761D01*
X9895501Y-17918761D02*
X9885977Y-17909237D01*
X9885977Y-17909237D02*
X9876453Y-17890190D01*
X9876453Y-17890190D02*
X9866929Y-17852095D01*
X9866929Y-17852095D02*
X9866929Y-17804476D01*
X9866929Y-17804476D02*
X9876453Y-17766380D01*
X9876453Y-17766380D02*
X9885977Y-17747333D01*
X9885977Y-17747333D02*
X9895501Y-17737809D01*
X9895501Y-17737809D02*
X9914548Y-17728285D01*
X10162168Y-17728285D02*
X10066929Y-17728285D01*
X10066929Y-17728285D02*
X10057406Y-17823523D01*
X10057406Y-17823523D02*
X10066929Y-17813999D01*
X10066929Y-17813999D02*
X10085977Y-17804476D01*
X10085977Y-17804476D02*
X10133596Y-17804476D01*
X10133596Y-17804476D02*
X10152644Y-17813999D01*
X10152644Y-17813999D02*
X10162168Y-17823523D01*
X10162168Y-17823523D02*
X10171691Y-17842571D01*
X10171691Y-17842571D02*
X10171691Y-17890190D01*
X10171691Y-17890190D02*
X10162168Y-17909237D01*
X10162168Y-17909237D02*
X10152644Y-17918761D01*
X10152644Y-17918761D02*
X10133596Y-17928285D01*
X10133596Y-17928285D02*
X10085977Y-17928285D01*
X10085977Y-17928285D02*
X10066929Y-17918761D01*
X10066929Y-17918761D02*
X10057406Y-17909237D01*
X10362168Y-17928285D02*
X10247882Y-17928285D01*
X10305025Y-17928285D02*
X10305025Y-17728285D01*
X10305025Y-17728285D02*
X10285977Y-17756857D01*
X10285977Y-17756857D02*
X10266929Y-17775904D01*
X10266929Y-17775904D02*
X10247882Y-17785428D01*
X10438358Y-17747333D02*
X10447882Y-17737809D01*
X10447882Y-17737809D02*
X10466929Y-17728285D01*
X10466929Y-17728285D02*
X10514549Y-17728285D01*
X10514549Y-17728285D02*
X10533596Y-17737809D01*
X10533596Y-17737809D02*
X10543120Y-17747333D01*
X10543120Y-17747333D02*
X10552644Y-17766380D01*
X10552644Y-17766380D02*
X10552644Y-17785428D01*
X10552644Y-17785428D02*
X10543120Y-17813999D01*
X10543120Y-17813999D02*
X10428834Y-17928285D01*
X10428834Y-17928285D02*
X10552644Y-17928285D01*
X10628834Y-17728285D02*
X10628834Y-17766380D01*
X10705025Y-17728285D02*
X10705025Y-17766380D01*
X11000263Y-18004476D02*
X10990739Y-17994952D01*
X10990739Y-17994952D02*
X10971691Y-17966380D01*
X10971691Y-17966380D02*
X10962168Y-17947333D01*
X10962168Y-17947333D02*
X10952644Y-17918761D01*
X10952644Y-17918761D02*
X10943120Y-17871142D01*
X10943120Y-17871142D02*
X10943120Y-17833047D01*
X10943120Y-17833047D02*
X10952644Y-17785428D01*
X10952644Y-17785428D02*
X10962168Y-17756857D01*
X10962168Y-17756857D02*
X10971691Y-17737809D01*
X10971691Y-17737809D02*
X10990739Y-17709237D01*
X10990739Y-17709237D02*
X11000263Y-17699714D01*
X11066930Y-17747333D02*
X11076453Y-17737809D01*
X11076453Y-17737809D02*
X11095501Y-17728285D01*
X11095501Y-17728285D02*
X11143120Y-17728285D01*
X11143120Y-17728285D02*
X11162168Y-17737809D01*
X11162168Y-17737809D02*
X11171691Y-17747333D01*
X11171691Y-17747333D02*
X11181215Y-17766380D01*
X11181215Y-17766380D02*
X11181215Y-17785428D01*
X11181215Y-17785428D02*
X11171691Y-17813999D01*
X11171691Y-17813999D02*
X11057406Y-17928285D01*
X11057406Y-17928285D02*
X11181215Y-17928285D01*
X11305025Y-17728285D02*
X11324072Y-17728285D01*
X11324072Y-17728285D02*
X11343120Y-17737809D01*
X11343120Y-17737809D02*
X11352644Y-17747333D01*
X11352644Y-17747333D02*
X11362168Y-17766380D01*
X11362168Y-17766380D02*
X11371691Y-17804476D01*
X11371691Y-17804476D02*
X11371691Y-17852095D01*
X11371691Y-17852095D02*
X11362168Y-17890190D01*
X11362168Y-17890190D02*
X11352644Y-17909237D01*
X11352644Y-17909237D02*
X11343120Y-17918761D01*
X11343120Y-17918761D02*
X11324072Y-17928285D01*
X11324072Y-17928285D02*
X11305025Y-17928285D01*
X11305025Y-17928285D02*
X11285977Y-17918761D01*
X11285977Y-17918761D02*
X11276453Y-17909237D01*
X11276453Y-17909237D02*
X11266929Y-17890190D01*
X11266929Y-17890190D02*
X11257406Y-17852095D01*
X11257406Y-17852095D02*
X11257406Y-17804476D01*
X11257406Y-17804476D02*
X11266929Y-17766380D01*
X11266929Y-17766380D02*
X11276453Y-17747333D01*
X11276453Y-17747333D02*
X11285977Y-17737809D01*
X11285977Y-17737809D02*
X11305025Y-17728285D01*
X11609787Y-17928285D02*
X11609787Y-17728285D01*
X11695501Y-17928285D02*
X11695501Y-17823523D01*
X11695501Y-17823523D02*
X11685977Y-17804476D01*
X11685977Y-17804476D02*
X11666930Y-17794952D01*
X11666930Y-17794952D02*
X11638358Y-17794952D01*
X11638358Y-17794952D02*
X11619310Y-17804476D01*
X11619310Y-17804476D02*
X11609787Y-17813999D01*
X11819310Y-17928285D02*
X11800263Y-17918761D01*
X11800263Y-17918761D02*
X11790739Y-17909237D01*
X11790739Y-17909237D02*
X11781215Y-17890190D01*
X11781215Y-17890190D02*
X11781215Y-17833047D01*
X11781215Y-17833047D02*
X11790739Y-17813999D01*
X11790739Y-17813999D02*
X11800263Y-17804476D01*
X11800263Y-17804476D02*
X11819310Y-17794952D01*
X11819310Y-17794952D02*
X11847882Y-17794952D01*
X11847882Y-17794952D02*
X11866930Y-17804476D01*
X11866930Y-17804476D02*
X11876453Y-17813999D01*
X11876453Y-17813999D02*
X11885977Y-17833047D01*
X11885977Y-17833047D02*
X11885977Y-17890190D01*
X11885977Y-17890190D02*
X11876453Y-17909237D01*
X11876453Y-17909237D02*
X11866930Y-17918761D01*
X11866930Y-17918761D02*
X11847882Y-17928285D01*
X11847882Y-17928285D02*
X11819310Y-17928285D01*
X12000263Y-17928285D02*
X11981215Y-17918761D01*
X11981215Y-17918761D02*
X11971691Y-17899714D01*
X11971691Y-17899714D02*
X11971691Y-17728285D01*
X12152644Y-17918761D02*
X12133596Y-17928285D01*
X12133596Y-17928285D02*
X12095501Y-17928285D01*
X12095501Y-17928285D02*
X12076453Y-17918761D01*
X12076453Y-17918761D02*
X12066930Y-17899714D01*
X12066930Y-17899714D02*
X12066930Y-17823523D01*
X12066930Y-17823523D02*
X12076453Y-17804476D01*
X12076453Y-17804476D02*
X12095501Y-17794952D01*
X12095501Y-17794952D02*
X12133596Y-17794952D01*
X12133596Y-17794952D02*
X12152644Y-17804476D01*
X12152644Y-17804476D02*
X12162168Y-17823523D01*
X12162168Y-17823523D02*
X12162168Y-17842571D01*
X12162168Y-17842571D02*
X12066930Y-17861618D01*
X12238358Y-17918761D02*
X12257406Y-17928285D01*
X12257406Y-17928285D02*
X12295501Y-17928285D01*
X12295501Y-17928285D02*
X12314549Y-17918761D01*
X12314549Y-17918761D02*
X12324072Y-17899714D01*
X12324072Y-17899714D02*
X12324072Y-17890190D01*
X12324072Y-17890190D02*
X12314549Y-17871142D01*
X12314549Y-17871142D02*
X12295501Y-17861618D01*
X12295501Y-17861618D02*
X12266930Y-17861618D01*
X12266930Y-17861618D02*
X12247882Y-17852095D01*
X12247882Y-17852095D02*
X12238358Y-17833047D01*
X12238358Y-17833047D02*
X12238358Y-17823523D01*
X12238358Y-17823523D02*
X12247882Y-17804476D01*
X12247882Y-17804476D02*
X12266930Y-17794952D01*
X12266930Y-17794952D02*
X12295501Y-17794952D01*
X12295501Y-17794952D02*
X12314549Y-17804476D01*
X12390739Y-18004476D02*
X12400263Y-17994952D01*
X12400263Y-17994952D02*
X12419311Y-17966380D01*
X12419311Y-17966380D02*
X12428834Y-17947333D01*
X12428834Y-17947333D02*
X12438358Y-17918761D01*
X12438358Y-17918761D02*
X12447882Y-17871142D01*
X12447882Y-17871142D02*
X12447882Y-17833047D01*
X12447882Y-17833047D02*
X12438358Y-17785428D01*
X12438358Y-17785428D02*
X12428834Y-17756857D01*
X12428834Y-17756857D02*
X12419311Y-17737809D01*
X12419311Y-17737809D02*
X12400263Y-17709237D01*
X12400263Y-17709237D02*
X12390739Y-17699714D01*
D14*
X7355350Y-18030951D02*
X7355350Y-18170651D01*
X7285500Y-18100801D02*
X7425200Y-18100801D01*
X7425200Y-18100801D02*
G75*
G02*
X7285500Y-18100801I-69850J0D01*
G01*
X7285500Y-18100801D02*
G75*
G02*
X7425200Y-18100801I69850J0D01*
G01*
D10*
X7790739Y-18192285D02*
X7676453Y-18192285D01*
X7733596Y-18192285D02*
X7733596Y-17992285D01*
X7733596Y-17992285D02*
X7714548Y-18020857D01*
X7714548Y-18020857D02*
X7695501Y-18039904D01*
X7695501Y-18039904D02*
X7676453Y-18049428D01*
X7876453Y-18173237D02*
X7885977Y-18182761D01*
X7885977Y-18182761D02*
X7876453Y-18192285D01*
X7876453Y-18192285D02*
X7866929Y-18182761D01*
X7866929Y-18182761D02*
X7876453Y-18173237D01*
X7876453Y-18173237D02*
X7876453Y-18192285D01*
X7952643Y-17992285D02*
X8076453Y-17992285D01*
X8076453Y-17992285D02*
X8009786Y-18068476D01*
X8009786Y-18068476D02*
X8038358Y-18068476D01*
X8038358Y-18068476D02*
X8057405Y-18077999D01*
X8057405Y-18077999D02*
X8066929Y-18087523D01*
X8066929Y-18087523D02*
X8076453Y-18106571D01*
X8076453Y-18106571D02*
X8076453Y-18154190D01*
X8076453Y-18154190D02*
X8066929Y-18173237D01*
X8066929Y-18173237D02*
X8057405Y-18182761D01*
X8057405Y-18182761D02*
X8038358Y-18192285D01*
X8038358Y-18192285D02*
X7981215Y-18192285D01*
X7981215Y-18192285D02*
X7962167Y-18182761D01*
X7962167Y-18182761D02*
X7952643Y-18173237D01*
X8171691Y-18192285D02*
X8209786Y-18192285D01*
X8209786Y-18192285D02*
X8228834Y-18182761D01*
X8228834Y-18182761D02*
X8238358Y-18173237D01*
X8238358Y-18173237D02*
X8257405Y-18144666D01*
X8257405Y-18144666D02*
X8266929Y-18106571D01*
X8266929Y-18106571D02*
X8266929Y-18030380D01*
X8266929Y-18030380D02*
X8257405Y-18011333D01*
X8257405Y-18011333D02*
X8247882Y-18001809D01*
X8247882Y-18001809D02*
X8228834Y-17992285D01*
X8228834Y-17992285D02*
X8190739Y-17992285D01*
X8190739Y-17992285D02*
X8171691Y-18001809D01*
X8171691Y-18001809D02*
X8162167Y-18011333D01*
X8162167Y-18011333D02*
X8152643Y-18030380D01*
X8152643Y-18030380D02*
X8152643Y-18077999D01*
X8152643Y-18077999D02*
X8162167Y-18097047D01*
X8162167Y-18097047D02*
X8171691Y-18106571D01*
X8171691Y-18106571D02*
X8190739Y-18116095D01*
X8190739Y-18116095D02*
X8228834Y-18116095D01*
X8228834Y-18116095D02*
X8247882Y-18106571D01*
X8247882Y-18106571D02*
X8257405Y-18097047D01*
X8257405Y-18097047D02*
X8266929Y-18077999D01*
X8333596Y-17992285D02*
X8466929Y-17992285D01*
X8466929Y-17992285D02*
X8381215Y-18192285D01*
X8543120Y-18192285D02*
X8543120Y-18058952D01*
X8543120Y-18077999D02*
X8552644Y-18068476D01*
X8552644Y-18068476D02*
X8571691Y-18058952D01*
X8571691Y-18058952D02*
X8600263Y-18058952D01*
X8600263Y-18058952D02*
X8619310Y-18068476D01*
X8619310Y-18068476D02*
X8628834Y-18087523D01*
X8628834Y-18087523D02*
X8628834Y-18192285D01*
X8628834Y-18087523D02*
X8638358Y-18068476D01*
X8638358Y-18068476D02*
X8657405Y-18058952D01*
X8657405Y-18058952D02*
X8685977Y-18058952D01*
X8685977Y-18058952D02*
X8705025Y-18068476D01*
X8705025Y-18068476D02*
X8714548Y-18087523D01*
X8714548Y-18087523D02*
X8714548Y-18192285D01*
X8809786Y-18192285D02*
X8809786Y-18058952D01*
X8809786Y-18077999D02*
X8819310Y-18068476D01*
X8819310Y-18068476D02*
X8838358Y-18058952D01*
X8838358Y-18058952D02*
X8866929Y-18058952D01*
X8866929Y-18058952D02*
X8885977Y-18068476D01*
X8885977Y-18068476D02*
X8895501Y-18087523D01*
X8895501Y-18087523D02*
X8895501Y-18192285D01*
X8895501Y-18087523D02*
X8905025Y-18068476D01*
X8905025Y-18068476D02*
X8924072Y-18058952D01*
X8924072Y-18058952D02*
X8952644Y-18058952D01*
X8952644Y-18058952D02*
X8971691Y-18068476D01*
X8971691Y-18068476D02*
X8981215Y-18087523D01*
X8981215Y-18087523D02*
X8981215Y-18192285D01*
X9371691Y-17982761D02*
X9200263Y-18239904D01*
X9628834Y-17992285D02*
X9647882Y-17992285D01*
X9647882Y-17992285D02*
X9666929Y-18001809D01*
X9666929Y-18001809D02*
X9676453Y-18011333D01*
X9676453Y-18011333D02*
X9685977Y-18030380D01*
X9685977Y-18030380D02*
X9695501Y-18068476D01*
X9695501Y-18068476D02*
X9695501Y-18116095D01*
X9695501Y-18116095D02*
X9685977Y-18154190D01*
X9685977Y-18154190D02*
X9676453Y-18173237D01*
X9676453Y-18173237D02*
X9666929Y-18182761D01*
X9666929Y-18182761D02*
X9647882Y-18192285D01*
X9647882Y-18192285D02*
X9628834Y-18192285D01*
X9628834Y-18192285D02*
X9609787Y-18182761D01*
X9609787Y-18182761D02*
X9600263Y-18173237D01*
X9600263Y-18173237D02*
X9590739Y-18154190D01*
X9590739Y-18154190D02*
X9581215Y-18116095D01*
X9581215Y-18116095D02*
X9581215Y-18068476D01*
X9581215Y-18068476D02*
X9590739Y-18030380D01*
X9590739Y-18030380D02*
X9600263Y-18011333D01*
X9600263Y-18011333D02*
X9609787Y-18001809D01*
X9609787Y-18001809D02*
X9628834Y-17992285D01*
X9781215Y-18173237D02*
X9790739Y-18182761D01*
X9790739Y-18182761D02*
X9781215Y-18192285D01*
X9781215Y-18192285D02*
X9771691Y-18182761D01*
X9771691Y-18182761D02*
X9781215Y-18173237D01*
X9781215Y-18173237D02*
X9781215Y-18192285D01*
X9914548Y-17992285D02*
X9933596Y-17992285D01*
X9933596Y-17992285D02*
X9952644Y-18001809D01*
X9952644Y-18001809D02*
X9962168Y-18011333D01*
X9962168Y-18011333D02*
X9971691Y-18030380D01*
X9971691Y-18030380D02*
X9981215Y-18068476D01*
X9981215Y-18068476D02*
X9981215Y-18116095D01*
X9981215Y-18116095D02*
X9971691Y-18154190D01*
X9971691Y-18154190D02*
X9962168Y-18173237D01*
X9962168Y-18173237D02*
X9952644Y-18182761D01*
X9952644Y-18182761D02*
X9933596Y-18192285D01*
X9933596Y-18192285D02*
X9914548Y-18192285D01*
X9914548Y-18192285D02*
X9895501Y-18182761D01*
X9895501Y-18182761D02*
X9885977Y-18173237D01*
X9885977Y-18173237D02*
X9876453Y-18154190D01*
X9876453Y-18154190D02*
X9866929Y-18116095D01*
X9866929Y-18116095D02*
X9866929Y-18068476D01*
X9866929Y-18068476D02*
X9876453Y-18030380D01*
X9876453Y-18030380D02*
X9885977Y-18011333D01*
X9885977Y-18011333D02*
X9895501Y-18001809D01*
X9895501Y-18001809D02*
X9914548Y-17992285D01*
X10162168Y-17992285D02*
X10066929Y-17992285D01*
X10066929Y-17992285D02*
X10057406Y-18087523D01*
X10057406Y-18087523D02*
X10066929Y-18077999D01*
X10066929Y-18077999D02*
X10085977Y-18068476D01*
X10085977Y-18068476D02*
X10133596Y-18068476D01*
X10133596Y-18068476D02*
X10152644Y-18077999D01*
X10152644Y-18077999D02*
X10162168Y-18087523D01*
X10162168Y-18087523D02*
X10171691Y-18106571D01*
X10171691Y-18106571D02*
X10171691Y-18154190D01*
X10171691Y-18154190D02*
X10162168Y-18173237D01*
X10162168Y-18173237D02*
X10152644Y-18182761D01*
X10152644Y-18182761D02*
X10133596Y-18192285D01*
X10133596Y-18192285D02*
X10085977Y-18192285D01*
X10085977Y-18192285D02*
X10066929Y-18182761D01*
X10066929Y-18182761D02*
X10057406Y-18173237D01*
X10352644Y-17992285D02*
X10257406Y-17992285D01*
X10257406Y-17992285D02*
X10247882Y-18087523D01*
X10247882Y-18087523D02*
X10257406Y-18077999D01*
X10257406Y-18077999D02*
X10276453Y-18068476D01*
X10276453Y-18068476D02*
X10324072Y-18068476D01*
X10324072Y-18068476D02*
X10343120Y-18077999D01*
X10343120Y-18077999D02*
X10352644Y-18087523D01*
X10352644Y-18087523D02*
X10362168Y-18106571D01*
X10362168Y-18106571D02*
X10362168Y-18154190D01*
X10362168Y-18154190D02*
X10352644Y-18173237D01*
X10352644Y-18173237D02*
X10343120Y-18182761D01*
X10343120Y-18182761D02*
X10324072Y-18192285D01*
X10324072Y-18192285D02*
X10276453Y-18192285D01*
X10276453Y-18192285D02*
X10257406Y-18182761D01*
X10257406Y-18182761D02*
X10247882Y-18173237D01*
X10485977Y-17992285D02*
X10505025Y-17992285D01*
X10505025Y-17992285D02*
X10524072Y-18001809D01*
X10524072Y-18001809D02*
X10533596Y-18011333D01*
X10533596Y-18011333D02*
X10543120Y-18030380D01*
X10543120Y-18030380D02*
X10552644Y-18068476D01*
X10552644Y-18068476D02*
X10552644Y-18116095D01*
X10552644Y-18116095D02*
X10543120Y-18154190D01*
X10543120Y-18154190D02*
X10533596Y-18173237D01*
X10533596Y-18173237D02*
X10524072Y-18182761D01*
X10524072Y-18182761D02*
X10505025Y-18192285D01*
X10505025Y-18192285D02*
X10485977Y-18192285D01*
X10485977Y-18192285D02*
X10466929Y-18182761D01*
X10466929Y-18182761D02*
X10457406Y-18173237D01*
X10457406Y-18173237D02*
X10447882Y-18154190D01*
X10447882Y-18154190D02*
X10438358Y-18116095D01*
X10438358Y-18116095D02*
X10438358Y-18068476D01*
X10438358Y-18068476D02*
X10447882Y-18030380D01*
X10447882Y-18030380D02*
X10457406Y-18011333D01*
X10457406Y-18011333D02*
X10466929Y-18001809D01*
X10466929Y-18001809D02*
X10485977Y-17992285D01*
X10628834Y-17992285D02*
X10628834Y-18030380D01*
X10705025Y-17992285D02*
X10705025Y-18030380D01*
X11000263Y-18268476D02*
X10990739Y-18258952D01*
X10990739Y-18258952D02*
X10971691Y-18230380D01*
X10971691Y-18230380D02*
X10962168Y-18211333D01*
X10962168Y-18211333D02*
X10952644Y-18182761D01*
X10952644Y-18182761D02*
X10943120Y-18135142D01*
X10943120Y-18135142D02*
X10943120Y-18097047D01*
X10943120Y-18097047D02*
X10952644Y-18049428D01*
X10952644Y-18049428D02*
X10962168Y-18020857D01*
X10962168Y-18020857D02*
X10971691Y-18001809D01*
X10971691Y-18001809D02*
X10990739Y-17973237D01*
X10990739Y-17973237D02*
X11000263Y-17963714D01*
X11105025Y-18077999D02*
X11085977Y-18068476D01*
X11085977Y-18068476D02*
X11076453Y-18058952D01*
X11076453Y-18058952D02*
X11066930Y-18039904D01*
X11066930Y-18039904D02*
X11066930Y-18030380D01*
X11066930Y-18030380D02*
X11076453Y-18011333D01*
X11076453Y-18011333D02*
X11085977Y-18001809D01*
X11085977Y-18001809D02*
X11105025Y-17992285D01*
X11105025Y-17992285D02*
X11143120Y-17992285D01*
X11143120Y-17992285D02*
X11162168Y-18001809D01*
X11162168Y-18001809D02*
X11171691Y-18011333D01*
X11171691Y-18011333D02*
X11181215Y-18030380D01*
X11181215Y-18030380D02*
X11181215Y-18039904D01*
X11181215Y-18039904D02*
X11171691Y-18058952D01*
X11171691Y-18058952D02*
X11162168Y-18068476D01*
X11162168Y-18068476D02*
X11143120Y-18077999D01*
X11143120Y-18077999D02*
X11105025Y-18077999D01*
X11105025Y-18077999D02*
X11085977Y-18087523D01*
X11085977Y-18087523D02*
X11076453Y-18097047D01*
X11076453Y-18097047D02*
X11066930Y-18116095D01*
X11066930Y-18116095D02*
X11066930Y-18154190D01*
X11066930Y-18154190D02*
X11076453Y-18173237D01*
X11076453Y-18173237D02*
X11085977Y-18182761D01*
X11085977Y-18182761D02*
X11105025Y-18192285D01*
X11105025Y-18192285D02*
X11143120Y-18192285D01*
X11143120Y-18192285D02*
X11162168Y-18182761D01*
X11162168Y-18182761D02*
X11171691Y-18173237D01*
X11171691Y-18173237D02*
X11181215Y-18154190D01*
X11181215Y-18154190D02*
X11181215Y-18116095D01*
X11181215Y-18116095D02*
X11171691Y-18097047D01*
X11171691Y-18097047D02*
X11162168Y-18087523D01*
X11162168Y-18087523D02*
X11143120Y-18077999D01*
X11419310Y-18192285D02*
X11419310Y-17992285D01*
X11505025Y-18192285D02*
X11505025Y-18087523D01*
X11505025Y-18087523D02*
X11495501Y-18068476D01*
X11495501Y-18068476D02*
X11476453Y-18058952D01*
X11476453Y-18058952D02*
X11447882Y-18058952D01*
X11447882Y-18058952D02*
X11428834Y-18068476D01*
X11428834Y-18068476D02*
X11419310Y-18077999D01*
X11628834Y-18192285D02*
X11609787Y-18182761D01*
X11609787Y-18182761D02*
X11600263Y-18173237D01*
X11600263Y-18173237D02*
X11590739Y-18154190D01*
X11590739Y-18154190D02*
X11590739Y-18097047D01*
X11590739Y-18097047D02*
X11600263Y-18077999D01*
X11600263Y-18077999D02*
X11609787Y-18068476D01*
X11609787Y-18068476D02*
X11628834Y-18058952D01*
X11628834Y-18058952D02*
X11657406Y-18058952D01*
X11657406Y-18058952D02*
X11676453Y-18068476D01*
X11676453Y-18068476D02*
X11685977Y-18077999D01*
X11685977Y-18077999D02*
X11695501Y-18097047D01*
X11695501Y-18097047D02*
X11695501Y-18154190D01*
X11695501Y-18154190D02*
X11685977Y-18173237D01*
X11685977Y-18173237D02*
X11676453Y-18182761D01*
X11676453Y-18182761D02*
X11657406Y-18192285D01*
X11657406Y-18192285D02*
X11628834Y-18192285D01*
X11809787Y-18192285D02*
X11790739Y-18182761D01*
X11790739Y-18182761D02*
X11781215Y-18163714D01*
X11781215Y-18163714D02*
X11781215Y-17992285D01*
X11962168Y-18182761D02*
X11943120Y-18192285D01*
X11943120Y-18192285D02*
X11905025Y-18192285D01*
X11905025Y-18192285D02*
X11885977Y-18182761D01*
X11885977Y-18182761D02*
X11876453Y-18163714D01*
X11876453Y-18163714D02*
X11876453Y-18087523D01*
X11876453Y-18087523D02*
X11885977Y-18068476D01*
X11885977Y-18068476D02*
X11905025Y-18058952D01*
X11905025Y-18058952D02*
X11943120Y-18058952D01*
X11943120Y-18058952D02*
X11962168Y-18068476D01*
X11962168Y-18068476D02*
X11971691Y-18087523D01*
X11971691Y-18087523D02*
X11971691Y-18106571D01*
X11971691Y-18106571D02*
X11876453Y-18125618D01*
X12047882Y-18182761D02*
X12066930Y-18192285D01*
X12066930Y-18192285D02*
X12105025Y-18192285D01*
X12105025Y-18192285D02*
X12124072Y-18182761D01*
X12124072Y-18182761D02*
X12133596Y-18163714D01*
X12133596Y-18163714D02*
X12133596Y-18154190D01*
X12133596Y-18154190D02*
X12124072Y-18135142D01*
X12124072Y-18135142D02*
X12105025Y-18125618D01*
X12105025Y-18125618D02*
X12076453Y-18125618D01*
X12076453Y-18125618D02*
X12057406Y-18116095D01*
X12057406Y-18116095D02*
X12047882Y-18097047D01*
X12047882Y-18097047D02*
X12047882Y-18087523D01*
X12047882Y-18087523D02*
X12057406Y-18068476D01*
X12057406Y-18068476D02*
X12076453Y-18058952D01*
X12076453Y-18058952D02*
X12105025Y-18058952D01*
X12105025Y-18058952D02*
X12124072Y-18068476D01*
X12200263Y-18268476D02*
X12209787Y-18258952D01*
X12209787Y-18258952D02*
X12228834Y-18230380D01*
X12228834Y-18230380D02*
X12238358Y-18211333D01*
X12238358Y-18211333D02*
X12247882Y-18182761D01*
X12247882Y-18182761D02*
X12257406Y-18135142D01*
X12257406Y-18135142D02*
X12257406Y-18097047D01*
X12257406Y-18097047D02*
X12247882Y-18049428D01*
X12247882Y-18049428D02*
X12238358Y-18020857D01*
X12238358Y-18020857D02*
X12228834Y-18001809D01*
X12228834Y-18001809D02*
X12209787Y-17973237D01*
X12209787Y-17973237D02*
X12200263Y-17963714D01*
D15*
X7398840Y-18428442D02*
X7398840Y-18301161D01*
X7271560Y-18301161D01*
X7271560Y-18428442D01*
X7398840Y-18428442D01*
X7425200Y-18364801D02*
G75*
G02*
X7245200Y-18364801I-90000J0D01*
G01*
X7245200Y-18364801D02*
G75*
G02*
X7425200Y-18364801I90000J0D01*
G01*
D10*
X7790739Y-18456285D02*
X7676453Y-18456285D01*
X7733596Y-18456285D02*
X7733596Y-18256285D01*
X7733596Y-18256285D02*
X7714548Y-18284857D01*
X7714548Y-18284857D02*
X7695501Y-18303904D01*
X7695501Y-18303904D02*
X7676453Y-18313428D01*
X7876453Y-18437237D02*
X7885977Y-18446761D01*
X7885977Y-18446761D02*
X7876453Y-18456285D01*
X7876453Y-18456285D02*
X7866929Y-18446761D01*
X7866929Y-18446761D02*
X7876453Y-18437237D01*
X7876453Y-18437237D02*
X7876453Y-18456285D01*
X8000262Y-18341999D02*
X7981215Y-18332476D01*
X7981215Y-18332476D02*
X7971691Y-18322952D01*
X7971691Y-18322952D02*
X7962167Y-18303904D01*
X7962167Y-18303904D02*
X7962167Y-18294380D01*
X7962167Y-18294380D02*
X7971691Y-18275333D01*
X7971691Y-18275333D02*
X7981215Y-18265809D01*
X7981215Y-18265809D02*
X8000262Y-18256285D01*
X8000262Y-18256285D02*
X8038358Y-18256285D01*
X8038358Y-18256285D02*
X8057405Y-18265809D01*
X8057405Y-18265809D02*
X8066929Y-18275333D01*
X8066929Y-18275333D02*
X8076453Y-18294380D01*
X8076453Y-18294380D02*
X8076453Y-18303904D01*
X8076453Y-18303904D02*
X8066929Y-18322952D01*
X8066929Y-18322952D02*
X8057405Y-18332476D01*
X8057405Y-18332476D02*
X8038358Y-18341999D01*
X8038358Y-18341999D02*
X8000262Y-18341999D01*
X8000262Y-18341999D02*
X7981215Y-18351523D01*
X7981215Y-18351523D02*
X7971691Y-18361047D01*
X7971691Y-18361047D02*
X7962167Y-18380095D01*
X7962167Y-18380095D02*
X7962167Y-18418190D01*
X7962167Y-18418190D02*
X7971691Y-18437237D01*
X7971691Y-18437237D02*
X7981215Y-18446761D01*
X7981215Y-18446761D02*
X8000262Y-18456285D01*
X8000262Y-18456285D02*
X8038358Y-18456285D01*
X8038358Y-18456285D02*
X8057405Y-18446761D01*
X8057405Y-18446761D02*
X8066929Y-18437237D01*
X8066929Y-18437237D02*
X8076453Y-18418190D01*
X8076453Y-18418190D02*
X8076453Y-18380095D01*
X8076453Y-18380095D02*
X8066929Y-18361047D01*
X8066929Y-18361047D02*
X8057405Y-18351523D01*
X8057405Y-18351523D02*
X8038358Y-18341999D01*
X8200262Y-18256285D02*
X8219310Y-18256285D01*
X8219310Y-18256285D02*
X8238358Y-18265809D01*
X8238358Y-18265809D02*
X8247882Y-18275333D01*
X8247882Y-18275333D02*
X8257405Y-18294380D01*
X8257405Y-18294380D02*
X8266929Y-18332476D01*
X8266929Y-18332476D02*
X8266929Y-18380095D01*
X8266929Y-18380095D02*
X8257405Y-18418190D01*
X8257405Y-18418190D02*
X8247882Y-18437237D01*
X8247882Y-18437237D02*
X8238358Y-18446761D01*
X8238358Y-18446761D02*
X8219310Y-18456285D01*
X8219310Y-18456285D02*
X8200262Y-18456285D01*
X8200262Y-18456285D02*
X8181215Y-18446761D01*
X8181215Y-18446761D02*
X8171691Y-18437237D01*
X8171691Y-18437237D02*
X8162167Y-18418190D01*
X8162167Y-18418190D02*
X8152643Y-18380095D01*
X8152643Y-18380095D02*
X8152643Y-18332476D01*
X8152643Y-18332476D02*
X8162167Y-18294380D01*
X8162167Y-18294380D02*
X8171691Y-18275333D01*
X8171691Y-18275333D02*
X8181215Y-18265809D01*
X8181215Y-18265809D02*
X8200262Y-18256285D01*
X8390739Y-18256285D02*
X8409786Y-18256285D01*
X8409786Y-18256285D02*
X8428834Y-18265809D01*
X8428834Y-18265809D02*
X8438358Y-18275333D01*
X8438358Y-18275333D02*
X8447882Y-18294380D01*
X8447882Y-18294380D02*
X8457405Y-18332476D01*
X8457405Y-18332476D02*
X8457405Y-18380095D01*
X8457405Y-18380095D02*
X8447882Y-18418190D01*
X8447882Y-18418190D02*
X8438358Y-18437237D01*
X8438358Y-18437237D02*
X8428834Y-18446761D01*
X8428834Y-18446761D02*
X8409786Y-18456285D01*
X8409786Y-18456285D02*
X8390739Y-18456285D01*
X8390739Y-18456285D02*
X8371691Y-18446761D01*
X8371691Y-18446761D02*
X8362167Y-18437237D01*
X8362167Y-18437237D02*
X8352643Y-18418190D01*
X8352643Y-18418190D02*
X8343120Y-18380095D01*
X8343120Y-18380095D02*
X8343120Y-18332476D01*
X8343120Y-18332476D02*
X8352643Y-18294380D01*
X8352643Y-18294380D02*
X8362167Y-18275333D01*
X8362167Y-18275333D02*
X8371691Y-18265809D01*
X8371691Y-18265809D02*
X8390739Y-18256285D01*
X8543120Y-18456285D02*
X8543120Y-18322952D01*
X8543120Y-18341999D02*
X8552644Y-18332476D01*
X8552644Y-18332476D02*
X8571691Y-18322952D01*
X8571691Y-18322952D02*
X8600263Y-18322952D01*
X8600263Y-18322952D02*
X8619310Y-18332476D01*
X8619310Y-18332476D02*
X8628834Y-18351523D01*
X8628834Y-18351523D02*
X8628834Y-18456285D01*
X8628834Y-18351523D02*
X8638358Y-18332476D01*
X8638358Y-18332476D02*
X8657405Y-18322952D01*
X8657405Y-18322952D02*
X8685977Y-18322952D01*
X8685977Y-18322952D02*
X8705025Y-18332476D01*
X8705025Y-18332476D02*
X8714548Y-18351523D01*
X8714548Y-18351523D02*
X8714548Y-18456285D01*
X8809786Y-18456285D02*
X8809786Y-18322952D01*
X8809786Y-18341999D02*
X8819310Y-18332476D01*
X8819310Y-18332476D02*
X8838358Y-18322952D01*
X8838358Y-18322952D02*
X8866929Y-18322952D01*
X8866929Y-18322952D02*
X8885977Y-18332476D01*
X8885977Y-18332476D02*
X8895501Y-18351523D01*
X8895501Y-18351523D02*
X8895501Y-18456285D01*
X8895501Y-18351523D02*
X8905025Y-18332476D01*
X8905025Y-18332476D02*
X8924072Y-18322952D01*
X8924072Y-18322952D02*
X8952644Y-18322952D01*
X8952644Y-18322952D02*
X8971691Y-18332476D01*
X8971691Y-18332476D02*
X8981215Y-18351523D01*
X8981215Y-18351523D02*
X8981215Y-18456285D01*
X9371691Y-18246761D02*
X9200263Y-18503904D01*
X9628834Y-18256285D02*
X9647882Y-18256285D01*
X9647882Y-18256285D02*
X9666929Y-18265809D01*
X9666929Y-18265809D02*
X9676453Y-18275333D01*
X9676453Y-18275333D02*
X9685977Y-18294380D01*
X9685977Y-18294380D02*
X9695501Y-18332476D01*
X9695501Y-18332476D02*
X9695501Y-18380095D01*
X9695501Y-18380095D02*
X9685977Y-18418190D01*
X9685977Y-18418190D02*
X9676453Y-18437237D01*
X9676453Y-18437237D02*
X9666929Y-18446761D01*
X9666929Y-18446761D02*
X9647882Y-18456285D01*
X9647882Y-18456285D02*
X9628834Y-18456285D01*
X9628834Y-18456285D02*
X9609787Y-18446761D01*
X9609787Y-18446761D02*
X9600263Y-18437237D01*
X9600263Y-18437237D02*
X9590739Y-18418190D01*
X9590739Y-18418190D02*
X9581215Y-18380095D01*
X9581215Y-18380095D02*
X9581215Y-18332476D01*
X9581215Y-18332476D02*
X9590739Y-18294380D01*
X9590739Y-18294380D02*
X9600263Y-18275333D01*
X9600263Y-18275333D02*
X9609787Y-18265809D01*
X9609787Y-18265809D02*
X9628834Y-18256285D01*
X9781215Y-18437237D02*
X9790739Y-18446761D01*
X9790739Y-18446761D02*
X9781215Y-18456285D01*
X9781215Y-18456285D02*
X9771691Y-18446761D01*
X9771691Y-18446761D02*
X9781215Y-18437237D01*
X9781215Y-18437237D02*
X9781215Y-18456285D01*
X9914548Y-18256285D02*
X9933596Y-18256285D01*
X9933596Y-18256285D02*
X9952644Y-18265809D01*
X9952644Y-18265809D02*
X9962168Y-18275333D01*
X9962168Y-18275333D02*
X9971691Y-18294380D01*
X9971691Y-18294380D02*
X9981215Y-18332476D01*
X9981215Y-18332476D02*
X9981215Y-18380095D01*
X9981215Y-18380095D02*
X9971691Y-18418190D01*
X9971691Y-18418190D02*
X9962168Y-18437237D01*
X9962168Y-18437237D02*
X9952644Y-18446761D01*
X9952644Y-18446761D02*
X9933596Y-18456285D01*
X9933596Y-18456285D02*
X9914548Y-18456285D01*
X9914548Y-18456285D02*
X9895501Y-18446761D01*
X9895501Y-18446761D02*
X9885977Y-18437237D01*
X9885977Y-18437237D02*
X9876453Y-18418190D01*
X9876453Y-18418190D02*
X9866929Y-18380095D01*
X9866929Y-18380095D02*
X9866929Y-18332476D01*
X9866929Y-18332476D02*
X9876453Y-18294380D01*
X9876453Y-18294380D02*
X9885977Y-18275333D01*
X9885977Y-18275333D02*
X9895501Y-18265809D01*
X9895501Y-18265809D02*
X9914548Y-18256285D01*
X10047882Y-18256285D02*
X10181215Y-18256285D01*
X10181215Y-18256285D02*
X10095501Y-18456285D01*
X10295501Y-18256285D02*
X10314549Y-18256285D01*
X10314549Y-18256285D02*
X10333596Y-18265809D01*
X10333596Y-18265809D02*
X10343120Y-18275333D01*
X10343120Y-18275333D02*
X10352644Y-18294380D01*
X10352644Y-18294380D02*
X10362168Y-18332476D01*
X10362168Y-18332476D02*
X10362168Y-18380095D01*
X10362168Y-18380095D02*
X10352644Y-18418190D01*
X10352644Y-18418190D02*
X10343120Y-18437237D01*
X10343120Y-18437237D02*
X10333596Y-18446761D01*
X10333596Y-18446761D02*
X10314549Y-18456285D01*
X10314549Y-18456285D02*
X10295501Y-18456285D01*
X10295501Y-18456285D02*
X10276453Y-18446761D01*
X10276453Y-18446761D02*
X10266929Y-18437237D01*
X10266929Y-18437237D02*
X10257406Y-18418190D01*
X10257406Y-18418190D02*
X10247882Y-18380095D01*
X10247882Y-18380095D02*
X10247882Y-18332476D01*
X10247882Y-18332476D02*
X10257406Y-18294380D01*
X10257406Y-18294380D02*
X10266929Y-18275333D01*
X10266929Y-18275333D02*
X10276453Y-18265809D01*
X10276453Y-18265809D02*
X10295501Y-18256285D01*
X10457406Y-18456285D02*
X10495501Y-18456285D01*
X10495501Y-18456285D02*
X10514549Y-18446761D01*
X10514549Y-18446761D02*
X10524072Y-18437237D01*
X10524072Y-18437237D02*
X10543120Y-18408666D01*
X10543120Y-18408666D02*
X10552644Y-18370571D01*
X10552644Y-18370571D02*
X10552644Y-18294380D01*
X10552644Y-18294380D02*
X10543120Y-18275333D01*
X10543120Y-18275333D02*
X10533596Y-18265809D01*
X10533596Y-18265809D02*
X10514549Y-18256285D01*
X10514549Y-18256285D02*
X10476453Y-18256285D01*
X10476453Y-18256285D02*
X10457406Y-18265809D01*
X10457406Y-18265809D02*
X10447882Y-18275333D01*
X10447882Y-18275333D02*
X10438358Y-18294380D01*
X10438358Y-18294380D02*
X10438358Y-18341999D01*
X10438358Y-18341999D02*
X10447882Y-18361047D01*
X10447882Y-18361047D02*
X10457406Y-18370571D01*
X10457406Y-18370571D02*
X10476453Y-18380095D01*
X10476453Y-18380095D02*
X10514549Y-18380095D01*
X10514549Y-18380095D02*
X10533596Y-18370571D01*
X10533596Y-18370571D02*
X10543120Y-18361047D01*
X10543120Y-18361047D02*
X10552644Y-18341999D01*
X10628834Y-18256285D02*
X10628834Y-18294380D01*
X10705025Y-18256285D02*
X10705025Y-18294380D01*
X11000263Y-18532476D02*
X10990739Y-18522952D01*
X10990739Y-18522952D02*
X10971691Y-18494380D01*
X10971691Y-18494380D02*
X10962168Y-18475333D01*
X10962168Y-18475333D02*
X10952644Y-18446761D01*
X10952644Y-18446761D02*
X10943120Y-18399142D01*
X10943120Y-18399142D02*
X10943120Y-18361047D01*
X10943120Y-18361047D02*
X10952644Y-18313428D01*
X10952644Y-18313428D02*
X10962168Y-18284857D01*
X10962168Y-18284857D02*
X10971691Y-18265809D01*
X10971691Y-18265809D02*
X10990739Y-18237237D01*
X10990739Y-18237237D02*
X11000263Y-18227714D01*
X11114549Y-18256285D02*
X11133596Y-18256285D01*
X11133596Y-18256285D02*
X11152644Y-18265809D01*
X11152644Y-18265809D02*
X11162168Y-18275333D01*
X11162168Y-18275333D02*
X11171691Y-18294380D01*
X11171691Y-18294380D02*
X11181215Y-18332476D01*
X11181215Y-18332476D02*
X11181215Y-18380095D01*
X11181215Y-18380095D02*
X11171691Y-18418190D01*
X11171691Y-18418190D02*
X11162168Y-18437237D01*
X11162168Y-18437237D02*
X11152644Y-18446761D01*
X11152644Y-18446761D02*
X11133596Y-18456285D01*
X11133596Y-18456285D02*
X11114549Y-18456285D01*
X11114549Y-18456285D02*
X11095501Y-18446761D01*
X11095501Y-18446761D02*
X11085977Y-18437237D01*
X11085977Y-18437237D02*
X11076453Y-18418190D01*
X11076453Y-18418190D02*
X11066930Y-18380095D01*
X11066930Y-18380095D02*
X11066930Y-18332476D01*
X11066930Y-18332476D02*
X11076453Y-18294380D01*
X11076453Y-18294380D02*
X11085977Y-18275333D01*
X11085977Y-18275333D02*
X11095501Y-18265809D01*
X11095501Y-18265809D02*
X11114549Y-18256285D01*
X11419310Y-18456285D02*
X11419310Y-18256285D01*
X11505025Y-18456285D02*
X11505025Y-18351523D01*
X11505025Y-18351523D02*
X11495501Y-18332476D01*
X11495501Y-18332476D02*
X11476453Y-18322952D01*
X11476453Y-18322952D02*
X11447882Y-18322952D01*
X11447882Y-18322952D02*
X11428834Y-18332476D01*
X11428834Y-18332476D02*
X11419310Y-18341999D01*
X11628834Y-18456285D02*
X11609787Y-18446761D01*
X11609787Y-18446761D02*
X11600263Y-18437237D01*
X11600263Y-18437237D02*
X11590739Y-18418190D01*
X11590739Y-18418190D02*
X11590739Y-18361047D01*
X11590739Y-18361047D02*
X11600263Y-18341999D01*
X11600263Y-18341999D02*
X11609787Y-18332476D01*
X11609787Y-18332476D02*
X11628834Y-18322952D01*
X11628834Y-18322952D02*
X11657406Y-18322952D01*
X11657406Y-18322952D02*
X11676453Y-18332476D01*
X11676453Y-18332476D02*
X11685977Y-18341999D01*
X11685977Y-18341999D02*
X11695501Y-18361047D01*
X11695501Y-18361047D02*
X11695501Y-18418190D01*
X11695501Y-18418190D02*
X11685977Y-18437237D01*
X11685977Y-18437237D02*
X11676453Y-18446761D01*
X11676453Y-18446761D02*
X11657406Y-18456285D01*
X11657406Y-18456285D02*
X11628834Y-18456285D01*
X11809787Y-18456285D02*
X11790739Y-18446761D01*
X11790739Y-18446761D02*
X11781215Y-18427714D01*
X11781215Y-18427714D02*
X11781215Y-18256285D01*
X11962168Y-18446761D02*
X11943120Y-18456285D01*
X11943120Y-18456285D02*
X11905025Y-18456285D01*
X11905025Y-18456285D02*
X11885977Y-18446761D01*
X11885977Y-18446761D02*
X11876453Y-18427714D01*
X11876453Y-18427714D02*
X11876453Y-18351523D01*
X11876453Y-18351523D02*
X11885977Y-18332476D01*
X11885977Y-18332476D02*
X11905025Y-18322952D01*
X11905025Y-18322952D02*
X11943120Y-18322952D01*
X11943120Y-18322952D02*
X11962168Y-18332476D01*
X11962168Y-18332476D02*
X11971691Y-18351523D01*
X11971691Y-18351523D02*
X11971691Y-18370571D01*
X11971691Y-18370571D02*
X11876453Y-18389618D01*
X12047882Y-18446761D02*
X12066930Y-18456285D01*
X12066930Y-18456285D02*
X12105025Y-18456285D01*
X12105025Y-18456285D02*
X12124072Y-18446761D01*
X12124072Y-18446761D02*
X12133596Y-18427714D01*
X12133596Y-18427714D02*
X12133596Y-18418190D01*
X12133596Y-18418190D02*
X12124072Y-18399142D01*
X12124072Y-18399142D02*
X12105025Y-18389618D01*
X12105025Y-18389618D02*
X12076453Y-18389618D01*
X12076453Y-18389618D02*
X12057406Y-18380095D01*
X12057406Y-18380095D02*
X12047882Y-18361047D01*
X12047882Y-18361047D02*
X12047882Y-18351523D01*
X12047882Y-18351523D02*
X12057406Y-18332476D01*
X12057406Y-18332476D02*
X12076453Y-18322952D01*
X12076453Y-18322952D02*
X12105025Y-18322952D01*
X12105025Y-18322952D02*
X12124072Y-18332476D01*
X12371692Y-18380095D02*
X12524073Y-18380095D01*
X12447882Y-18456285D02*
X12447882Y-18303904D01*
X12857406Y-18322952D02*
X12857406Y-18456285D01*
X12809787Y-18246761D02*
X12762168Y-18389618D01*
X12762168Y-18389618D02*
X12885977Y-18389618D01*
X13105025Y-18446761D02*
X13124073Y-18456285D01*
X13124073Y-18456285D02*
X13162168Y-18456285D01*
X13162168Y-18456285D02*
X13181215Y-18446761D01*
X13181215Y-18446761D02*
X13190739Y-18427714D01*
X13190739Y-18427714D02*
X13190739Y-18418190D01*
X13190739Y-18418190D02*
X13181215Y-18399142D01*
X13181215Y-18399142D02*
X13162168Y-18389618D01*
X13162168Y-18389618D02*
X13133596Y-18389618D01*
X13133596Y-18389618D02*
X13114549Y-18380095D01*
X13114549Y-18380095D02*
X13105025Y-18361047D01*
X13105025Y-18361047D02*
X13105025Y-18351523D01*
X13105025Y-18351523D02*
X13114549Y-18332476D01*
X13114549Y-18332476D02*
X13133596Y-18322952D01*
X13133596Y-18322952D02*
X13162168Y-18322952D01*
X13162168Y-18322952D02*
X13181215Y-18332476D01*
X13305025Y-18456285D02*
X13285977Y-18446761D01*
X13285977Y-18446761D02*
X13276454Y-18427714D01*
X13276454Y-18427714D02*
X13276454Y-18256285D01*
X13409787Y-18456285D02*
X13390739Y-18446761D01*
X13390739Y-18446761D02*
X13381215Y-18437237D01*
X13381215Y-18437237D02*
X13371692Y-18418190D01*
X13371692Y-18418190D02*
X13371692Y-18361047D01*
X13371692Y-18361047D02*
X13381215Y-18341999D01*
X13381215Y-18341999D02*
X13390739Y-18332476D01*
X13390739Y-18332476D02*
X13409787Y-18322952D01*
X13409787Y-18322952D02*
X13438358Y-18322952D01*
X13438358Y-18322952D02*
X13457406Y-18332476D01*
X13457406Y-18332476D02*
X13466930Y-18341999D01*
X13466930Y-18341999D02*
X13476454Y-18361047D01*
X13476454Y-18361047D02*
X13476454Y-18418190D01*
X13476454Y-18418190D02*
X13466930Y-18437237D01*
X13466930Y-18437237D02*
X13457406Y-18446761D01*
X13457406Y-18446761D02*
X13438358Y-18456285D01*
X13438358Y-18456285D02*
X13409787Y-18456285D01*
X13533596Y-18322952D02*
X13609787Y-18322952D01*
X13562168Y-18256285D02*
X13562168Y-18427714D01*
X13562168Y-18427714D02*
X13571692Y-18446761D01*
X13571692Y-18446761D02*
X13590739Y-18456285D01*
X13590739Y-18456285D02*
X13609787Y-18456285D01*
X13666930Y-18446761D02*
X13685977Y-18456285D01*
X13685977Y-18456285D02*
X13724073Y-18456285D01*
X13724073Y-18456285D02*
X13743120Y-18446761D01*
X13743120Y-18446761D02*
X13752644Y-18427714D01*
X13752644Y-18427714D02*
X13752644Y-18418190D01*
X13752644Y-18418190D02*
X13743120Y-18399142D01*
X13743120Y-18399142D02*
X13724073Y-18389618D01*
X13724073Y-18389618D02*
X13695501Y-18389618D01*
X13695501Y-18389618D02*
X13676454Y-18380095D01*
X13676454Y-18380095D02*
X13666930Y-18361047D01*
X13666930Y-18361047D02*
X13666930Y-18351523D01*
X13666930Y-18351523D02*
X13676454Y-18332476D01*
X13676454Y-18332476D02*
X13695501Y-18322952D01*
X13695501Y-18322952D02*
X13724073Y-18322952D01*
X13724073Y-18322952D02*
X13743120Y-18332476D01*
X13819311Y-18532476D02*
X13828835Y-18522952D01*
X13828835Y-18522952D02*
X13847882Y-18494380D01*
X13847882Y-18494380D02*
X13857406Y-18475333D01*
X13857406Y-18475333D02*
X13866930Y-18446761D01*
X13866930Y-18446761D02*
X13876454Y-18399142D01*
X13876454Y-18399142D02*
X13876454Y-18361047D01*
X13876454Y-18361047D02*
X13866930Y-18313428D01*
X13866930Y-18313428D02*
X13857406Y-18284857D01*
X13857406Y-18284857D02*
X13847882Y-18265809D01*
X13847882Y-18265809D02*
X13828835Y-18237237D01*
X13828835Y-18237237D02*
X13819311Y-18227714D01*
X7325200Y-18764801D02*
X7425200Y-18664801D01*
X7325200Y-18564801D01*
X7225200Y-18664801D01*
X7325200Y-18764801D01*
X7425200Y-18664801D02*
G75*
G02*
X7225200Y-18664801I-100000J0D01*
G01*
X7225200Y-18664801D02*
G75*
G02*
X7425200Y-18664801I100000J0D01*
G01*
X7666929Y-18556285D02*
X7790739Y-18556285D01*
X7790739Y-18556285D02*
X7724072Y-18632476D01*
X7724072Y-18632476D02*
X7752643Y-18632476D01*
X7752643Y-18632476D02*
X7771691Y-18641999D01*
X7771691Y-18641999D02*
X7781215Y-18651523D01*
X7781215Y-18651523D02*
X7790739Y-18670571D01*
X7790739Y-18670571D02*
X7790739Y-18718190D01*
X7790739Y-18718190D02*
X7781215Y-18737237D01*
X7781215Y-18737237D02*
X7771691Y-18746761D01*
X7771691Y-18746761D02*
X7752643Y-18756285D01*
X7752643Y-18756285D02*
X7695501Y-18756285D01*
X7695501Y-18756285D02*
X7676453Y-18746761D01*
X7676453Y-18746761D02*
X7666929Y-18737237D01*
X7876453Y-18737237D02*
X7885977Y-18746761D01*
X7885977Y-18746761D02*
X7876453Y-18756285D01*
X7876453Y-18756285D02*
X7866929Y-18746761D01*
X7866929Y-18746761D02*
X7876453Y-18737237D01*
X7876453Y-18737237D02*
X7876453Y-18756285D01*
X8009786Y-18556285D02*
X8028834Y-18556285D01*
X8028834Y-18556285D02*
X8047882Y-18565809D01*
X8047882Y-18565809D02*
X8057405Y-18575333D01*
X8057405Y-18575333D02*
X8066929Y-18594380D01*
X8066929Y-18594380D02*
X8076453Y-18632476D01*
X8076453Y-18632476D02*
X8076453Y-18680095D01*
X8076453Y-18680095D02*
X8066929Y-18718190D01*
X8066929Y-18718190D02*
X8057405Y-18737237D01*
X8057405Y-18737237D02*
X8047882Y-18746761D01*
X8047882Y-18746761D02*
X8028834Y-18756285D01*
X8028834Y-18756285D02*
X8009786Y-18756285D01*
X8009786Y-18756285D02*
X7990739Y-18746761D01*
X7990739Y-18746761D02*
X7981215Y-18737237D01*
X7981215Y-18737237D02*
X7971691Y-18718190D01*
X7971691Y-18718190D02*
X7962167Y-18680095D01*
X7962167Y-18680095D02*
X7962167Y-18632476D01*
X7962167Y-18632476D02*
X7971691Y-18594380D01*
X7971691Y-18594380D02*
X7981215Y-18575333D01*
X7981215Y-18575333D02*
X7990739Y-18565809D01*
X7990739Y-18565809D02*
X8009786Y-18556285D01*
X8200262Y-18556285D02*
X8219310Y-18556285D01*
X8219310Y-18556285D02*
X8238358Y-18565809D01*
X8238358Y-18565809D02*
X8247882Y-18575333D01*
X8247882Y-18575333D02*
X8257405Y-18594380D01*
X8257405Y-18594380D02*
X8266929Y-18632476D01*
X8266929Y-18632476D02*
X8266929Y-18680095D01*
X8266929Y-18680095D02*
X8257405Y-18718190D01*
X8257405Y-18718190D02*
X8247882Y-18737237D01*
X8247882Y-18737237D02*
X8238358Y-18746761D01*
X8238358Y-18746761D02*
X8219310Y-18756285D01*
X8219310Y-18756285D02*
X8200262Y-18756285D01*
X8200262Y-18756285D02*
X8181215Y-18746761D01*
X8181215Y-18746761D02*
X8171691Y-18737237D01*
X8171691Y-18737237D02*
X8162167Y-18718190D01*
X8162167Y-18718190D02*
X8152643Y-18680095D01*
X8152643Y-18680095D02*
X8152643Y-18632476D01*
X8152643Y-18632476D02*
X8162167Y-18594380D01*
X8162167Y-18594380D02*
X8171691Y-18575333D01*
X8171691Y-18575333D02*
X8181215Y-18565809D01*
X8181215Y-18565809D02*
X8200262Y-18556285D01*
X8390739Y-18556285D02*
X8409786Y-18556285D01*
X8409786Y-18556285D02*
X8428834Y-18565809D01*
X8428834Y-18565809D02*
X8438358Y-18575333D01*
X8438358Y-18575333D02*
X8447882Y-18594380D01*
X8447882Y-18594380D02*
X8457405Y-18632476D01*
X8457405Y-18632476D02*
X8457405Y-18680095D01*
X8457405Y-18680095D02*
X8447882Y-18718190D01*
X8447882Y-18718190D02*
X8438358Y-18737237D01*
X8438358Y-18737237D02*
X8428834Y-18746761D01*
X8428834Y-18746761D02*
X8409786Y-18756285D01*
X8409786Y-18756285D02*
X8390739Y-18756285D01*
X8390739Y-18756285D02*
X8371691Y-18746761D01*
X8371691Y-18746761D02*
X8362167Y-18737237D01*
X8362167Y-18737237D02*
X8352643Y-18718190D01*
X8352643Y-18718190D02*
X8343120Y-18680095D01*
X8343120Y-18680095D02*
X8343120Y-18632476D01*
X8343120Y-18632476D02*
X8352643Y-18594380D01*
X8352643Y-18594380D02*
X8362167Y-18575333D01*
X8362167Y-18575333D02*
X8371691Y-18565809D01*
X8371691Y-18565809D02*
X8390739Y-18556285D01*
X8543120Y-18756285D02*
X8543120Y-18622952D01*
X8543120Y-18641999D02*
X8552644Y-18632476D01*
X8552644Y-18632476D02*
X8571691Y-18622952D01*
X8571691Y-18622952D02*
X8600263Y-18622952D01*
X8600263Y-18622952D02*
X8619310Y-18632476D01*
X8619310Y-18632476D02*
X8628834Y-18651523D01*
X8628834Y-18651523D02*
X8628834Y-18756285D01*
X8628834Y-18651523D02*
X8638358Y-18632476D01*
X8638358Y-18632476D02*
X8657405Y-18622952D01*
X8657405Y-18622952D02*
X8685977Y-18622952D01*
X8685977Y-18622952D02*
X8705025Y-18632476D01*
X8705025Y-18632476D02*
X8714548Y-18651523D01*
X8714548Y-18651523D02*
X8714548Y-18756285D01*
X8809786Y-18756285D02*
X8809786Y-18622952D01*
X8809786Y-18641999D02*
X8819310Y-18632476D01*
X8819310Y-18632476D02*
X8838358Y-18622952D01*
X8838358Y-18622952D02*
X8866929Y-18622952D01*
X8866929Y-18622952D02*
X8885977Y-18632476D01*
X8885977Y-18632476D02*
X8895501Y-18651523D01*
X8895501Y-18651523D02*
X8895501Y-18756285D01*
X8895501Y-18651523D02*
X8905025Y-18632476D01*
X8905025Y-18632476D02*
X8924072Y-18622952D01*
X8924072Y-18622952D02*
X8952644Y-18622952D01*
X8952644Y-18622952D02*
X8971691Y-18632476D01*
X8971691Y-18632476D02*
X8981215Y-18651523D01*
X8981215Y-18651523D02*
X8981215Y-18756285D01*
X9371691Y-18546761D02*
X9200263Y-18803904D01*
X9628834Y-18556285D02*
X9647882Y-18556285D01*
X9647882Y-18556285D02*
X9666929Y-18565809D01*
X9666929Y-18565809D02*
X9676453Y-18575333D01*
X9676453Y-18575333D02*
X9685977Y-18594380D01*
X9685977Y-18594380D02*
X9695501Y-18632476D01*
X9695501Y-18632476D02*
X9695501Y-18680095D01*
X9695501Y-18680095D02*
X9685977Y-18718190D01*
X9685977Y-18718190D02*
X9676453Y-18737237D01*
X9676453Y-18737237D02*
X9666929Y-18746761D01*
X9666929Y-18746761D02*
X9647882Y-18756285D01*
X9647882Y-18756285D02*
X9628834Y-18756285D01*
X9628834Y-18756285D02*
X9609787Y-18746761D01*
X9609787Y-18746761D02*
X9600263Y-18737237D01*
X9600263Y-18737237D02*
X9590739Y-18718190D01*
X9590739Y-18718190D02*
X9581215Y-18680095D01*
X9581215Y-18680095D02*
X9581215Y-18632476D01*
X9581215Y-18632476D02*
X9590739Y-18594380D01*
X9590739Y-18594380D02*
X9600263Y-18575333D01*
X9600263Y-18575333D02*
X9609787Y-18565809D01*
X9609787Y-18565809D02*
X9628834Y-18556285D01*
X9781215Y-18737237D02*
X9790739Y-18746761D01*
X9790739Y-18746761D02*
X9781215Y-18756285D01*
X9781215Y-18756285D02*
X9771691Y-18746761D01*
X9771691Y-18746761D02*
X9781215Y-18737237D01*
X9781215Y-18737237D02*
X9781215Y-18756285D01*
X9981215Y-18756285D02*
X9866929Y-18756285D01*
X9924072Y-18756285D02*
X9924072Y-18556285D01*
X9924072Y-18556285D02*
X9905025Y-18584857D01*
X9905025Y-18584857D02*
X9885977Y-18603904D01*
X9885977Y-18603904D02*
X9866929Y-18613428D01*
X10171691Y-18756285D02*
X10057406Y-18756285D01*
X10114548Y-18756285D02*
X10114548Y-18556285D01*
X10114548Y-18556285D02*
X10095501Y-18584857D01*
X10095501Y-18584857D02*
X10076453Y-18603904D01*
X10076453Y-18603904D02*
X10057406Y-18613428D01*
X10285977Y-18641999D02*
X10266929Y-18632476D01*
X10266929Y-18632476D02*
X10257406Y-18622952D01*
X10257406Y-18622952D02*
X10247882Y-18603904D01*
X10247882Y-18603904D02*
X10247882Y-18594380D01*
X10247882Y-18594380D02*
X10257406Y-18575333D01*
X10257406Y-18575333D02*
X10266929Y-18565809D01*
X10266929Y-18565809D02*
X10285977Y-18556285D01*
X10285977Y-18556285D02*
X10324072Y-18556285D01*
X10324072Y-18556285D02*
X10343120Y-18565809D01*
X10343120Y-18565809D02*
X10352644Y-18575333D01*
X10352644Y-18575333D02*
X10362168Y-18594380D01*
X10362168Y-18594380D02*
X10362168Y-18603904D01*
X10362168Y-18603904D02*
X10352644Y-18622952D01*
X10352644Y-18622952D02*
X10343120Y-18632476D01*
X10343120Y-18632476D02*
X10324072Y-18641999D01*
X10324072Y-18641999D02*
X10285977Y-18641999D01*
X10285977Y-18641999D02*
X10266929Y-18651523D01*
X10266929Y-18651523D02*
X10257406Y-18661047D01*
X10257406Y-18661047D02*
X10247882Y-18680095D01*
X10247882Y-18680095D02*
X10247882Y-18718190D01*
X10247882Y-18718190D02*
X10257406Y-18737237D01*
X10257406Y-18737237D02*
X10266929Y-18746761D01*
X10266929Y-18746761D02*
X10285977Y-18756285D01*
X10285977Y-18756285D02*
X10324072Y-18756285D01*
X10324072Y-18756285D02*
X10343120Y-18746761D01*
X10343120Y-18746761D02*
X10352644Y-18737237D01*
X10352644Y-18737237D02*
X10362168Y-18718190D01*
X10362168Y-18718190D02*
X10362168Y-18680095D01*
X10362168Y-18680095D02*
X10352644Y-18661047D01*
X10352644Y-18661047D02*
X10343120Y-18651523D01*
X10343120Y-18651523D02*
X10324072Y-18641999D01*
X10552644Y-18756285D02*
X10438358Y-18756285D01*
X10495501Y-18756285D02*
X10495501Y-18556285D01*
X10495501Y-18556285D02*
X10476453Y-18584857D01*
X10476453Y-18584857D02*
X10457406Y-18603904D01*
X10457406Y-18603904D02*
X10438358Y-18613428D01*
X10628834Y-18556285D02*
X10628834Y-18594380D01*
X10705025Y-18556285D02*
X10705025Y-18594380D01*
X11000263Y-18832476D02*
X10990739Y-18822952D01*
X10990739Y-18822952D02*
X10971691Y-18794380D01*
X10971691Y-18794380D02*
X10962168Y-18775333D01*
X10962168Y-18775333D02*
X10952644Y-18746761D01*
X10952644Y-18746761D02*
X10943120Y-18699142D01*
X10943120Y-18699142D02*
X10943120Y-18661047D01*
X10943120Y-18661047D02*
X10952644Y-18613428D01*
X10952644Y-18613428D02*
X10962168Y-18584857D01*
X10962168Y-18584857D02*
X10971691Y-18565809D01*
X10971691Y-18565809D02*
X10990739Y-18537237D01*
X10990739Y-18537237D02*
X11000263Y-18527714D01*
X11162168Y-18556285D02*
X11124072Y-18556285D01*
X11124072Y-18556285D02*
X11105025Y-18565809D01*
X11105025Y-18565809D02*
X11095501Y-18575333D01*
X11095501Y-18575333D02*
X11076453Y-18603904D01*
X11076453Y-18603904D02*
X11066930Y-18641999D01*
X11066930Y-18641999D02*
X11066930Y-18718190D01*
X11066930Y-18718190D02*
X11076453Y-18737237D01*
X11076453Y-18737237D02*
X11085977Y-18746761D01*
X11085977Y-18746761D02*
X11105025Y-18756285D01*
X11105025Y-18756285D02*
X11143120Y-18756285D01*
X11143120Y-18756285D02*
X11162168Y-18746761D01*
X11162168Y-18746761D02*
X11171691Y-18737237D01*
X11171691Y-18737237D02*
X11181215Y-18718190D01*
X11181215Y-18718190D02*
X11181215Y-18670571D01*
X11181215Y-18670571D02*
X11171691Y-18651523D01*
X11171691Y-18651523D02*
X11162168Y-18641999D01*
X11162168Y-18641999D02*
X11143120Y-18632476D01*
X11143120Y-18632476D02*
X11105025Y-18632476D01*
X11105025Y-18632476D02*
X11085977Y-18641999D01*
X11085977Y-18641999D02*
X11076453Y-18651523D01*
X11076453Y-18651523D02*
X11066930Y-18670571D01*
X11419310Y-18756285D02*
X11419310Y-18556285D01*
X11505025Y-18756285D02*
X11505025Y-18651523D01*
X11505025Y-18651523D02*
X11495501Y-18632476D01*
X11495501Y-18632476D02*
X11476453Y-18622952D01*
X11476453Y-18622952D02*
X11447882Y-18622952D01*
X11447882Y-18622952D02*
X11428834Y-18632476D01*
X11428834Y-18632476D02*
X11419310Y-18641999D01*
X11628834Y-18756285D02*
X11609787Y-18746761D01*
X11609787Y-18746761D02*
X11600263Y-18737237D01*
X11600263Y-18737237D02*
X11590739Y-18718190D01*
X11590739Y-18718190D02*
X11590739Y-18661047D01*
X11590739Y-18661047D02*
X11600263Y-18641999D01*
X11600263Y-18641999D02*
X11609787Y-18632476D01*
X11609787Y-18632476D02*
X11628834Y-18622952D01*
X11628834Y-18622952D02*
X11657406Y-18622952D01*
X11657406Y-18622952D02*
X11676453Y-18632476D01*
X11676453Y-18632476D02*
X11685977Y-18641999D01*
X11685977Y-18641999D02*
X11695501Y-18661047D01*
X11695501Y-18661047D02*
X11695501Y-18718190D01*
X11695501Y-18718190D02*
X11685977Y-18737237D01*
X11685977Y-18737237D02*
X11676453Y-18746761D01*
X11676453Y-18746761D02*
X11657406Y-18756285D01*
X11657406Y-18756285D02*
X11628834Y-18756285D01*
X11809787Y-18756285D02*
X11790739Y-18746761D01*
X11790739Y-18746761D02*
X11781215Y-18727714D01*
X11781215Y-18727714D02*
X11781215Y-18556285D01*
X11962168Y-18746761D02*
X11943120Y-18756285D01*
X11943120Y-18756285D02*
X11905025Y-18756285D01*
X11905025Y-18756285D02*
X11885977Y-18746761D01*
X11885977Y-18746761D02*
X11876453Y-18727714D01*
X11876453Y-18727714D02*
X11876453Y-18651523D01*
X11876453Y-18651523D02*
X11885977Y-18632476D01*
X11885977Y-18632476D02*
X11905025Y-18622952D01*
X11905025Y-18622952D02*
X11943120Y-18622952D01*
X11943120Y-18622952D02*
X11962168Y-18632476D01*
X11962168Y-18632476D02*
X11971691Y-18651523D01*
X11971691Y-18651523D02*
X11971691Y-18670571D01*
X11971691Y-18670571D02*
X11876453Y-18689618D01*
X12047882Y-18746761D02*
X12066930Y-18756285D01*
X12066930Y-18756285D02*
X12105025Y-18756285D01*
X12105025Y-18756285D02*
X12124072Y-18746761D01*
X12124072Y-18746761D02*
X12133596Y-18727714D01*
X12133596Y-18727714D02*
X12133596Y-18718190D01*
X12133596Y-18718190D02*
X12124072Y-18699142D01*
X12124072Y-18699142D02*
X12105025Y-18689618D01*
X12105025Y-18689618D02*
X12076453Y-18689618D01*
X12076453Y-18689618D02*
X12057406Y-18680095D01*
X12057406Y-18680095D02*
X12047882Y-18661047D01*
X12047882Y-18661047D02*
X12047882Y-18651523D01*
X12047882Y-18651523D02*
X12057406Y-18632476D01*
X12057406Y-18632476D02*
X12076453Y-18622952D01*
X12076453Y-18622952D02*
X12105025Y-18622952D01*
X12105025Y-18622952D02*
X12124072Y-18632476D01*
X12200263Y-18832476D02*
X12209787Y-18822952D01*
X12209787Y-18822952D02*
X12228834Y-18794380D01*
X12228834Y-18794380D02*
X12238358Y-18775333D01*
X12238358Y-18775333D02*
X12247882Y-18746761D01*
X12247882Y-18746761D02*
X12257406Y-18699142D01*
X12257406Y-18699142D02*
X12257406Y-18661047D01*
X12257406Y-18661047D02*
X12247882Y-18613428D01*
X12247882Y-18613428D02*
X12238358Y-18584857D01*
X12238358Y-18584857D02*
X12228834Y-18565809D01*
X12228834Y-18565809D02*
X12209787Y-18537237D01*
X12209787Y-18537237D02*
X12200263Y-18527714D01*
M02*
