G04 #@! TF.GenerationSoftware,KiCad,Pcbnew,8.0.1*
G04 #@! TF.CreationDate,2024-05-04T17:12:01+07:00*
G04 #@! TF.ProjectId,Arduino_RC_Transceiver_DIY_2.3.0,41726475-696e-46f5-9f52-435f5472616e,2.1.0*
G04 #@! TF.SameCoordinates,Original*
G04 #@! TF.FileFunction,Profile,NP*
%FSLAX46Y46*%
G04 Gerber Fmt 4.6, Leading zero omitted, Abs format (unit mm)*
G04 Created by KiCad (PCBNEW 8.0.1) date 2024-05-04 17:12:01*
%MOMM*%
%LPD*%
G01*
G04 APERTURE LIST*
G04 #@! TA.AperFunction,Profile*
%ADD10C,0.200000*%
G04 #@! TD*
G04 APERTURE END LIST*
D10*
X190523573Y-54576427D02*
X195326876Y-49773124D01*
X181581655Y-123165400D02*
G75*
G02*
X187817113Y-125808549I1682045J-4708500D01*
G01*
X202352000Y-150748000D02*
G75*
G02*
X197798547Y-147813446I0J5000000D01*
G01*
X96352050Y-150748000D02*
X89352000Y-150748000D01*
X166871246Y-47427497D02*
X176832754Y-54068503D01*
X205539562Y-49460534D02*
X214641919Y-54921952D01*
X202967082Y-48747998D02*
G75*
G02*
X205539567Y-49460526I18J-5000002D01*
G01*
X214641918Y-54921953D02*
G75*
G02*
X224351992Y-72071808I-10289918J-17149847D01*
G01*
X74352000Y-72071808D02*
G75*
G02*
X84062080Y-54921945I20000000J8D01*
G01*
X125218250Y-125747999D02*
G75*
G02*
X123536244Y-125456578I-150J4998899D01*
G01*
X121871246Y-54068503D02*
X131832754Y-47427497D01*
X195326876Y-49773124D02*
G75*
G02*
X197801750Y-48748017I2474724J-2474576D01*
G01*
X111008854Y-55748000D02*
G75*
G02*
X108180451Y-54576405I46J4000000D01*
G01*
X121871246Y-54068503D02*
G75*
G02*
X116324244Y-55747997I-5546846J8320003D01*
G01*
X209352000Y-150748000D02*
X202352000Y-150748000D01*
X89352000Y-150748000D02*
G75*
G02*
X74352000Y-135748000I0J15000000D01*
G01*
X100905506Y-147813439D02*
G75*
G02*
X96352050Y-150748013I-4553406J2065339D01*
G01*
X137379756Y-45748000D02*
X161324244Y-45748000D01*
X190523572Y-54576426D02*
G75*
G02*
X187695146Y-55747978I-2828272J2828126D01*
G01*
X131832754Y-47427497D02*
G75*
G02*
X137379756Y-45748003I5546846J-8320003D01*
G01*
X103377124Y-49773127D02*
X108180428Y-54576428D01*
X93164440Y-49460535D02*
G75*
G02*
X95736923Y-48747981I2572460J-4287265D01*
G01*
X173485748Y-125747999D02*
X125218250Y-125747999D01*
X182379756Y-55748000D02*
X187695146Y-55748000D01*
X123536239Y-125456591D02*
X117122341Y-123165408D01*
X197801750Y-48747998D02*
X202967082Y-48747998D01*
X111008854Y-55748000D02*
X116324244Y-55748000D01*
X181581655Y-123165399D02*
X175167765Y-125456589D01*
X95736923Y-48747999D02*
X100902253Y-48748002D01*
X161324244Y-45748000D02*
G75*
G02*
X166871232Y-47427517I-44J-10000000D01*
G01*
X110886874Y-125808561D02*
G75*
G02*
X117122353Y-123165376I4553526J-2065539D01*
G01*
X197798547Y-147813446D02*
X187817126Y-125808543D01*
X175167765Y-125456589D02*
G75*
G02*
X173485748Y-125748000I-1681865J4707689D01*
G01*
X224352000Y-135748000D02*
G75*
G02*
X209352000Y-150748000I-15000000J0D01*
G01*
X100902253Y-48748002D02*
G75*
G02*
X103377131Y-49773120I-153J-3500398D01*
G01*
X110886874Y-125808561D02*
X100905506Y-147813439D01*
X74352000Y-135748000D02*
X74352000Y-72071808D01*
X224352000Y-72071808D02*
X224352000Y-135748000D01*
X182379756Y-55748000D02*
G75*
G02*
X176832768Y-54068483I44J10000000D01*
G01*
X84062083Y-54921950D02*
X93164440Y-49460535D01*
M02*
