%TF.GenerationSoftware,KiCad,Pcbnew,8.0.1*%
%TF.CreationDate,2024-05-04T17:11:58+07:00*%
%TF.ProjectId,Arduino_RC_Transceiver_DIY_2.3.0,41726475-696e-46f5-9f52-435f5472616e,2.1.0*%
%TF.SameCoordinates,Original*%
%TF.FileFunction,Drillmap*%
%TF.FilePolarity,Positive*%
%FSLAX45Y45*%
G04 Gerber Fmt 4.5, Leading zero omitted, Abs format (unit mm)*
G04 Created by KiCad (PCBNEW 8.0.1) date 2024-05-04 17:11:58*
%MOMM*%
%LPD*%
G01*
G04 APERTURE LIST*
%ADD10C,0.200000*%
%ADD11C,0.300000*%
G04 APERTURE END LIST*
D10*
X19052357Y-5457643D02*
X19532688Y-4977312D01*
X18158166Y-12316540D02*
G75*
G02*
X18781711Y-12580855I168205J-470850D01*
G01*
X20235200Y-15074800D02*
G75*
G02*
X19779855Y-14781345I0J500000D01*
G01*
X9635205Y-15074800D02*
X8935200Y-15074800D01*
X16687125Y-4742750D02*
X17683275Y-5406850D01*
X20553956Y-4946053D02*
X21464192Y-5492195D01*
X20296708Y-4874800D02*
G75*
G02*
X20553957Y-4946053I2J-500000D01*
G01*
X21464192Y-5492195D02*
G75*
G02*
X22435199Y-7207181I-1028992J-1714985D01*
G01*
X7435200Y-7207181D02*
G75*
G02*
X8406208Y-5492195I2000000J1D01*
G01*
X12521825Y-12574800D02*
G75*
G02*
X12353624Y-12545658I-15J499890D01*
G01*
X12187125Y-5406850D02*
X13183275Y-4742750D01*
X19532688Y-4977312D02*
G75*
G02*
X19780175Y-4874802I247472J-247458D01*
G01*
X11100885Y-5574800D02*
G75*
G02*
X10818045Y-5457641I5J400000D01*
G01*
X12187125Y-5406850D02*
G75*
G02*
X11632424Y-5574800I-554685J832000D01*
G01*
X20935200Y-15074800D02*
X20235200Y-15074800D01*
X8935200Y-15074800D02*
G75*
G02*
X7435200Y-13574800I0J1500000D01*
G01*
X10090551Y-14781344D02*
G75*
G02*
X9635205Y-15074801I-455341J206534D01*
G01*
X13737976Y-4574800D02*
X16132424Y-4574800D01*
X19052357Y-5457643D02*
G75*
G02*
X18769515Y-5574798I-282827J282813D01*
G01*
X13183275Y-4742750D02*
G75*
G02*
X13737976Y-4574800I554685J-832000D01*
G01*
X10337712Y-4977313D02*
X10818043Y-5457643D01*
X9316444Y-4946054D02*
G75*
G02*
X9573692Y-4874798I257246J-428727D01*
G01*
X17348575Y-12574800D02*
X12521825Y-12574800D01*
X18237976Y-5574800D02*
X18769515Y-5574800D01*
X12353624Y-12545659D02*
X11712234Y-12316541D01*
X19780175Y-4874800D02*
X20296708Y-4874800D01*
X11100885Y-5574800D02*
X11632424Y-5574800D01*
X18158166Y-12316540D02*
X17516777Y-12545659D01*
X9573692Y-4874800D02*
X10090225Y-4874800D01*
X16132424Y-4574800D02*
G75*
G02*
X16687123Y-4742752I-4J-1000000D01*
G01*
X11088687Y-12580856D02*
G75*
G02*
X11712235Y-12316538I455353J-206554D01*
G01*
X19779855Y-14781345D02*
X18781713Y-12580854D01*
X17516777Y-12545659D02*
G75*
G02*
X17348575Y-12574800I-168187J470769D01*
G01*
X22435200Y-13574800D02*
G75*
G02*
X20935200Y-15074800I-1500000J0D01*
G01*
X10090225Y-4874800D02*
G75*
G02*
X10337713Y-4977312I-15J-350040D01*
G01*
X11088687Y-12580856D02*
X10090551Y-14781344D01*
X7435200Y-13574800D02*
X7435200Y-7207181D01*
X22435200Y-7207181D02*
X22435200Y-13574800D01*
X18237976Y-5574800D02*
G75*
G02*
X17683277Y-5406848I4J1000000D01*
G01*
X8406208Y-5492195D02*
X9316444Y-4946054D01*
D11*
X13311500Y-6156625D02*
X13611500Y-6456625D01*
X13611500Y-6156625D02*
X13311500Y-6456625D01*
X13311500Y-9006625D02*
X13611500Y-9306625D01*
X13611500Y-9006625D02*
X13311500Y-9306625D01*
X13995600Y-9783900D02*
X14295600Y-10083900D01*
X14295600Y-9783900D02*
X13995600Y-10083900D01*
X15572600Y-9783900D02*
X15872600Y-10083900D01*
X15872600Y-9783900D02*
X15572600Y-10083900D01*
X16261500Y-6156625D02*
X16561500Y-6456625D01*
X16561500Y-6156625D02*
X16261500Y-6456625D01*
X16261500Y-9006625D02*
X16561500Y-9306625D01*
X16561500Y-9006625D02*
X16261500Y-9306625D01*
D10*
X7685977Y-15396285D02*
X7685977Y-15196285D01*
X7685977Y-15196285D02*
X7733596Y-15196285D01*
X7733596Y-15196285D02*
X7762167Y-15205809D01*
X7762167Y-15205809D02*
X7781215Y-15224856D01*
X7781215Y-15224856D02*
X7790739Y-15243904D01*
X7790739Y-15243904D02*
X7800262Y-15281999D01*
X7800262Y-15281999D02*
X7800262Y-15310571D01*
X7800262Y-15310571D02*
X7790739Y-15348666D01*
X7790739Y-15348666D02*
X7781215Y-15367714D01*
X7781215Y-15367714D02*
X7762167Y-15386761D01*
X7762167Y-15386761D02*
X7733596Y-15396285D01*
X7733596Y-15396285D02*
X7685977Y-15396285D01*
X7885977Y-15396285D02*
X7885977Y-15262952D01*
X7885977Y-15301047D02*
X7895501Y-15281999D01*
X7895501Y-15281999D02*
X7905024Y-15272475D01*
X7905024Y-15272475D02*
X7924072Y-15262952D01*
X7924072Y-15262952D02*
X7943120Y-15262952D01*
X8009786Y-15396285D02*
X8009786Y-15262952D01*
X8009786Y-15196285D02*
X8000262Y-15205809D01*
X8000262Y-15205809D02*
X8009786Y-15215333D01*
X8009786Y-15215333D02*
X8019310Y-15205809D01*
X8019310Y-15205809D02*
X8009786Y-15196285D01*
X8009786Y-15196285D02*
X8009786Y-15215333D01*
X8133596Y-15396285D02*
X8114548Y-15386761D01*
X8114548Y-15386761D02*
X8105024Y-15367714D01*
X8105024Y-15367714D02*
X8105024Y-15196285D01*
X8238358Y-15396285D02*
X8219310Y-15386761D01*
X8219310Y-15386761D02*
X8209786Y-15367714D01*
X8209786Y-15367714D02*
X8209786Y-15196285D01*
X8466929Y-15396285D02*
X8466929Y-15196285D01*
X8466929Y-15196285D02*
X8533596Y-15339142D01*
X8533596Y-15339142D02*
X8600263Y-15196285D01*
X8600263Y-15196285D02*
X8600263Y-15396285D01*
X8781215Y-15396285D02*
X8781215Y-15291523D01*
X8781215Y-15291523D02*
X8771691Y-15272475D01*
X8771691Y-15272475D02*
X8752644Y-15262952D01*
X8752644Y-15262952D02*
X8714548Y-15262952D01*
X8714548Y-15262952D02*
X8695501Y-15272475D01*
X8781215Y-15386761D02*
X8762167Y-15396285D01*
X8762167Y-15396285D02*
X8714548Y-15396285D01*
X8714548Y-15396285D02*
X8695501Y-15386761D01*
X8695501Y-15386761D02*
X8685977Y-15367714D01*
X8685977Y-15367714D02*
X8685977Y-15348666D01*
X8685977Y-15348666D02*
X8695501Y-15329618D01*
X8695501Y-15329618D02*
X8714548Y-15320095D01*
X8714548Y-15320095D02*
X8762167Y-15320095D01*
X8762167Y-15320095D02*
X8781215Y-15310571D01*
X8876453Y-15262952D02*
X8876453Y-15462952D01*
X8876453Y-15272475D02*
X8895501Y-15262952D01*
X8895501Y-15262952D02*
X8933596Y-15262952D01*
X8933596Y-15262952D02*
X8952644Y-15272475D01*
X8952644Y-15272475D02*
X8962167Y-15281999D01*
X8962167Y-15281999D02*
X8971691Y-15301047D01*
X8971691Y-15301047D02*
X8971691Y-15358190D01*
X8971691Y-15358190D02*
X8962167Y-15377237D01*
X8962167Y-15377237D02*
X8952644Y-15386761D01*
X8952644Y-15386761D02*
X8933596Y-15396285D01*
X8933596Y-15396285D02*
X8895501Y-15396285D01*
X8895501Y-15396285D02*
X8876453Y-15386761D01*
X9057405Y-15377237D02*
X9066929Y-15386761D01*
X9066929Y-15386761D02*
X9057405Y-15396285D01*
X9057405Y-15396285D02*
X9047882Y-15386761D01*
X9047882Y-15386761D02*
X9057405Y-15377237D01*
X9057405Y-15377237D02*
X9057405Y-15396285D01*
X9057405Y-15272475D02*
X9066929Y-15281999D01*
X9066929Y-15281999D02*
X9057405Y-15291523D01*
X9057405Y-15291523D02*
X9047882Y-15281999D01*
X9047882Y-15281999D02*
X9057405Y-15272475D01*
X9057405Y-15272475D02*
X9057405Y-15291523D01*
X7225200Y-15624801D02*
X7425200Y-15824801D01*
X7425200Y-15624801D02*
X7225200Y-15824801D01*
X7666929Y-15616285D02*
X7790739Y-15616285D01*
X7790739Y-15616285D02*
X7724072Y-15692475D01*
X7724072Y-15692475D02*
X7752643Y-15692475D01*
X7752643Y-15692475D02*
X7771691Y-15701999D01*
X7771691Y-15701999D02*
X7781215Y-15711523D01*
X7781215Y-15711523D02*
X7790739Y-15730571D01*
X7790739Y-15730571D02*
X7790739Y-15778190D01*
X7790739Y-15778190D02*
X7781215Y-15797237D01*
X7781215Y-15797237D02*
X7771691Y-15806761D01*
X7771691Y-15806761D02*
X7752643Y-15816285D01*
X7752643Y-15816285D02*
X7695501Y-15816285D01*
X7695501Y-15816285D02*
X7676453Y-15806761D01*
X7676453Y-15806761D02*
X7666929Y-15797237D01*
X7876453Y-15797237D02*
X7885977Y-15806761D01*
X7885977Y-15806761D02*
X7876453Y-15816285D01*
X7876453Y-15816285D02*
X7866929Y-15806761D01*
X7866929Y-15806761D02*
X7876453Y-15797237D01*
X7876453Y-15797237D02*
X7876453Y-15816285D01*
X8009786Y-15616285D02*
X8028834Y-15616285D01*
X8028834Y-15616285D02*
X8047882Y-15625809D01*
X8047882Y-15625809D02*
X8057405Y-15635333D01*
X8057405Y-15635333D02*
X8066929Y-15654380D01*
X8066929Y-15654380D02*
X8076453Y-15692475D01*
X8076453Y-15692475D02*
X8076453Y-15740095D01*
X8076453Y-15740095D02*
X8066929Y-15778190D01*
X8066929Y-15778190D02*
X8057405Y-15797237D01*
X8057405Y-15797237D02*
X8047882Y-15806761D01*
X8047882Y-15806761D02*
X8028834Y-15816285D01*
X8028834Y-15816285D02*
X8009786Y-15816285D01*
X8009786Y-15816285D02*
X7990739Y-15806761D01*
X7990739Y-15806761D02*
X7981215Y-15797237D01*
X7981215Y-15797237D02*
X7971691Y-15778190D01*
X7971691Y-15778190D02*
X7962167Y-15740095D01*
X7962167Y-15740095D02*
X7962167Y-15692475D01*
X7962167Y-15692475D02*
X7971691Y-15654380D01*
X7971691Y-15654380D02*
X7981215Y-15635333D01*
X7981215Y-15635333D02*
X7990739Y-15625809D01*
X7990739Y-15625809D02*
X8009786Y-15616285D01*
X8200262Y-15616285D02*
X8219310Y-15616285D01*
X8219310Y-15616285D02*
X8238358Y-15625809D01*
X8238358Y-15625809D02*
X8247882Y-15635333D01*
X8247882Y-15635333D02*
X8257405Y-15654380D01*
X8257405Y-15654380D02*
X8266929Y-15692475D01*
X8266929Y-15692475D02*
X8266929Y-15740095D01*
X8266929Y-15740095D02*
X8257405Y-15778190D01*
X8257405Y-15778190D02*
X8247882Y-15797237D01*
X8247882Y-15797237D02*
X8238358Y-15806761D01*
X8238358Y-15806761D02*
X8219310Y-15816285D01*
X8219310Y-15816285D02*
X8200262Y-15816285D01*
X8200262Y-15816285D02*
X8181215Y-15806761D01*
X8181215Y-15806761D02*
X8171691Y-15797237D01*
X8171691Y-15797237D02*
X8162167Y-15778190D01*
X8162167Y-15778190D02*
X8152643Y-15740095D01*
X8152643Y-15740095D02*
X8152643Y-15692475D01*
X8152643Y-15692475D02*
X8162167Y-15654380D01*
X8162167Y-15654380D02*
X8171691Y-15635333D01*
X8171691Y-15635333D02*
X8181215Y-15625809D01*
X8181215Y-15625809D02*
X8200262Y-15616285D01*
X8390739Y-15616285D02*
X8409786Y-15616285D01*
X8409786Y-15616285D02*
X8428834Y-15625809D01*
X8428834Y-15625809D02*
X8438358Y-15635333D01*
X8438358Y-15635333D02*
X8447882Y-15654380D01*
X8447882Y-15654380D02*
X8457405Y-15692475D01*
X8457405Y-15692475D02*
X8457405Y-15740095D01*
X8457405Y-15740095D02*
X8447882Y-15778190D01*
X8447882Y-15778190D02*
X8438358Y-15797237D01*
X8438358Y-15797237D02*
X8428834Y-15806761D01*
X8428834Y-15806761D02*
X8409786Y-15816285D01*
X8409786Y-15816285D02*
X8390739Y-15816285D01*
X8390739Y-15816285D02*
X8371691Y-15806761D01*
X8371691Y-15806761D02*
X8362167Y-15797237D01*
X8362167Y-15797237D02*
X8352643Y-15778190D01*
X8352643Y-15778190D02*
X8343120Y-15740095D01*
X8343120Y-15740095D02*
X8343120Y-15692475D01*
X8343120Y-15692475D02*
X8352643Y-15654380D01*
X8352643Y-15654380D02*
X8362167Y-15635333D01*
X8362167Y-15635333D02*
X8371691Y-15625809D01*
X8371691Y-15625809D02*
X8390739Y-15616285D01*
X8543120Y-15816285D02*
X8543120Y-15682952D01*
X8543120Y-15701999D02*
X8552644Y-15692475D01*
X8552644Y-15692475D02*
X8571691Y-15682952D01*
X8571691Y-15682952D02*
X8600263Y-15682952D01*
X8600263Y-15682952D02*
X8619310Y-15692475D01*
X8619310Y-15692475D02*
X8628834Y-15711523D01*
X8628834Y-15711523D02*
X8628834Y-15816285D01*
X8628834Y-15711523D02*
X8638358Y-15692475D01*
X8638358Y-15692475D02*
X8657405Y-15682952D01*
X8657405Y-15682952D02*
X8685977Y-15682952D01*
X8685977Y-15682952D02*
X8705025Y-15692475D01*
X8705025Y-15692475D02*
X8714548Y-15711523D01*
X8714548Y-15711523D02*
X8714548Y-15816285D01*
X8809786Y-15816285D02*
X8809786Y-15682952D01*
X8809786Y-15701999D02*
X8819310Y-15692475D01*
X8819310Y-15692475D02*
X8838358Y-15682952D01*
X8838358Y-15682952D02*
X8866929Y-15682952D01*
X8866929Y-15682952D02*
X8885977Y-15692475D01*
X8885977Y-15692475D02*
X8895501Y-15711523D01*
X8895501Y-15711523D02*
X8895501Y-15816285D01*
X8895501Y-15711523D02*
X8905025Y-15692475D01*
X8905025Y-15692475D02*
X8924072Y-15682952D01*
X8924072Y-15682952D02*
X8952644Y-15682952D01*
X8952644Y-15682952D02*
X8971691Y-15692475D01*
X8971691Y-15692475D02*
X8981215Y-15711523D01*
X8981215Y-15711523D02*
X8981215Y-15816285D01*
X9371691Y-15606761D02*
X9200263Y-15863904D01*
X9628834Y-15616285D02*
X9647882Y-15616285D01*
X9647882Y-15616285D02*
X9666929Y-15625809D01*
X9666929Y-15625809D02*
X9676453Y-15635333D01*
X9676453Y-15635333D02*
X9685977Y-15654380D01*
X9685977Y-15654380D02*
X9695501Y-15692475D01*
X9695501Y-15692475D02*
X9695501Y-15740095D01*
X9695501Y-15740095D02*
X9685977Y-15778190D01*
X9685977Y-15778190D02*
X9676453Y-15797237D01*
X9676453Y-15797237D02*
X9666929Y-15806761D01*
X9666929Y-15806761D02*
X9647882Y-15816285D01*
X9647882Y-15816285D02*
X9628834Y-15816285D01*
X9628834Y-15816285D02*
X9609787Y-15806761D01*
X9609787Y-15806761D02*
X9600263Y-15797237D01*
X9600263Y-15797237D02*
X9590739Y-15778190D01*
X9590739Y-15778190D02*
X9581215Y-15740095D01*
X9581215Y-15740095D02*
X9581215Y-15692475D01*
X9581215Y-15692475D02*
X9590739Y-15654380D01*
X9590739Y-15654380D02*
X9600263Y-15635333D01*
X9600263Y-15635333D02*
X9609787Y-15625809D01*
X9609787Y-15625809D02*
X9628834Y-15616285D01*
X9781215Y-15797237D02*
X9790739Y-15806761D01*
X9790739Y-15806761D02*
X9781215Y-15816285D01*
X9781215Y-15816285D02*
X9771691Y-15806761D01*
X9771691Y-15806761D02*
X9781215Y-15797237D01*
X9781215Y-15797237D02*
X9781215Y-15816285D01*
X9981215Y-15816285D02*
X9866929Y-15816285D01*
X9924072Y-15816285D02*
X9924072Y-15616285D01*
X9924072Y-15616285D02*
X9905025Y-15644856D01*
X9905025Y-15644856D02*
X9885977Y-15663904D01*
X9885977Y-15663904D02*
X9866929Y-15673428D01*
X10171691Y-15816285D02*
X10057406Y-15816285D01*
X10114548Y-15816285D02*
X10114548Y-15616285D01*
X10114548Y-15616285D02*
X10095501Y-15644856D01*
X10095501Y-15644856D02*
X10076453Y-15663904D01*
X10076453Y-15663904D02*
X10057406Y-15673428D01*
X10285977Y-15701999D02*
X10266929Y-15692475D01*
X10266929Y-15692475D02*
X10257406Y-15682952D01*
X10257406Y-15682952D02*
X10247882Y-15663904D01*
X10247882Y-15663904D02*
X10247882Y-15654380D01*
X10247882Y-15654380D02*
X10257406Y-15635333D01*
X10257406Y-15635333D02*
X10266929Y-15625809D01*
X10266929Y-15625809D02*
X10285977Y-15616285D01*
X10285977Y-15616285D02*
X10324072Y-15616285D01*
X10324072Y-15616285D02*
X10343120Y-15625809D01*
X10343120Y-15625809D02*
X10352644Y-15635333D01*
X10352644Y-15635333D02*
X10362168Y-15654380D01*
X10362168Y-15654380D02*
X10362168Y-15663904D01*
X10362168Y-15663904D02*
X10352644Y-15682952D01*
X10352644Y-15682952D02*
X10343120Y-15692475D01*
X10343120Y-15692475D02*
X10324072Y-15701999D01*
X10324072Y-15701999D02*
X10285977Y-15701999D01*
X10285977Y-15701999D02*
X10266929Y-15711523D01*
X10266929Y-15711523D02*
X10257406Y-15721047D01*
X10257406Y-15721047D02*
X10247882Y-15740095D01*
X10247882Y-15740095D02*
X10247882Y-15778190D01*
X10247882Y-15778190D02*
X10257406Y-15797237D01*
X10257406Y-15797237D02*
X10266929Y-15806761D01*
X10266929Y-15806761D02*
X10285977Y-15816285D01*
X10285977Y-15816285D02*
X10324072Y-15816285D01*
X10324072Y-15816285D02*
X10343120Y-15806761D01*
X10343120Y-15806761D02*
X10352644Y-15797237D01*
X10352644Y-15797237D02*
X10362168Y-15778190D01*
X10362168Y-15778190D02*
X10362168Y-15740095D01*
X10362168Y-15740095D02*
X10352644Y-15721047D01*
X10352644Y-15721047D02*
X10343120Y-15711523D01*
X10343120Y-15711523D02*
X10324072Y-15701999D01*
X10552644Y-15816285D02*
X10438358Y-15816285D01*
X10495501Y-15816285D02*
X10495501Y-15616285D01*
X10495501Y-15616285D02*
X10476453Y-15644856D01*
X10476453Y-15644856D02*
X10457406Y-15663904D01*
X10457406Y-15663904D02*
X10438358Y-15673428D01*
X10628834Y-15616285D02*
X10628834Y-15654380D01*
X10705025Y-15616285D02*
X10705025Y-15654380D01*
X11000263Y-15892475D02*
X10990739Y-15882952D01*
X10990739Y-15882952D02*
X10971691Y-15854380D01*
X10971691Y-15854380D02*
X10962168Y-15835333D01*
X10962168Y-15835333D02*
X10952644Y-15806761D01*
X10952644Y-15806761D02*
X10943120Y-15759142D01*
X10943120Y-15759142D02*
X10943120Y-15721047D01*
X10943120Y-15721047D02*
X10952644Y-15673428D01*
X10952644Y-15673428D02*
X10962168Y-15644856D01*
X10962168Y-15644856D02*
X10971691Y-15625809D01*
X10971691Y-15625809D02*
X10990739Y-15597237D01*
X10990739Y-15597237D02*
X11000263Y-15587714D01*
X11162168Y-15616285D02*
X11124072Y-15616285D01*
X11124072Y-15616285D02*
X11105025Y-15625809D01*
X11105025Y-15625809D02*
X11095501Y-15635333D01*
X11095501Y-15635333D02*
X11076453Y-15663904D01*
X11076453Y-15663904D02*
X11066930Y-15701999D01*
X11066930Y-15701999D02*
X11066930Y-15778190D01*
X11066930Y-15778190D02*
X11076453Y-15797237D01*
X11076453Y-15797237D02*
X11085977Y-15806761D01*
X11085977Y-15806761D02*
X11105025Y-15816285D01*
X11105025Y-15816285D02*
X11143120Y-15816285D01*
X11143120Y-15816285D02*
X11162168Y-15806761D01*
X11162168Y-15806761D02*
X11171691Y-15797237D01*
X11171691Y-15797237D02*
X11181215Y-15778190D01*
X11181215Y-15778190D02*
X11181215Y-15730571D01*
X11181215Y-15730571D02*
X11171691Y-15711523D01*
X11171691Y-15711523D02*
X11162168Y-15701999D01*
X11162168Y-15701999D02*
X11143120Y-15692475D01*
X11143120Y-15692475D02*
X11105025Y-15692475D01*
X11105025Y-15692475D02*
X11085977Y-15701999D01*
X11085977Y-15701999D02*
X11076453Y-15711523D01*
X11076453Y-15711523D02*
X11066930Y-15730571D01*
X11419310Y-15816285D02*
X11419310Y-15616285D01*
X11505025Y-15816285D02*
X11505025Y-15711523D01*
X11505025Y-15711523D02*
X11495501Y-15692475D01*
X11495501Y-15692475D02*
X11476453Y-15682952D01*
X11476453Y-15682952D02*
X11447882Y-15682952D01*
X11447882Y-15682952D02*
X11428834Y-15692475D01*
X11428834Y-15692475D02*
X11419310Y-15701999D01*
X11628834Y-15816285D02*
X11609787Y-15806761D01*
X11609787Y-15806761D02*
X11600263Y-15797237D01*
X11600263Y-15797237D02*
X11590739Y-15778190D01*
X11590739Y-15778190D02*
X11590739Y-15721047D01*
X11590739Y-15721047D02*
X11600263Y-15701999D01*
X11600263Y-15701999D02*
X11609787Y-15692475D01*
X11609787Y-15692475D02*
X11628834Y-15682952D01*
X11628834Y-15682952D02*
X11657406Y-15682952D01*
X11657406Y-15682952D02*
X11676453Y-15692475D01*
X11676453Y-15692475D02*
X11685977Y-15701999D01*
X11685977Y-15701999D02*
X11695501Y-15721047D01*
X11695501Y-15721047D02*
X11695501Y-15778190D01*
X11695501Y-15778190D02*
X11685977Y-15797237D01*
X11685977Y-15797237D02*
X11676453Y-15806761D01*
X11676453Y-15806761D02*
X11657406Y-15816285D01*
X11657406Y-15816285D02*
X11628834Y-15816285D01*
X11809787Y-15816285D02*
X11790739Y-15806761D01*
X11790739Y-15806761D02*
X11781215Y-15787714D01*
X11781215Y-15787714D02*
X11781215Y-15616285D01*
X11962168Y-15806761D02*
X11943120Y-15816285D01*
X11943120Y-15816285D02*
X11905025Y-15816285D01*
X11905025Y-15816285D02*
X11885977Y-15806761D01*
X11885977Y-15806761D02*
X11876453Y-15787714D01*
X11876453Y-15787714D02*
X11876453Y-15711523D01*
X11876453Y-15711523D02*
X11885977Y-15692475D01*
X11885977Y-15692475D02*
X11905025Y-15682952D01*
X11905025Y-15682952D02*
X11943120Y-15682952D01*
X11943120Y-15682952D02*
X11962168Y-15692475D01*
X11962168Y-15692475D02*
X11971691Y-15711523D01*
X11971691Y-15711523D02*
X11971691Y-15730571D01*
X11971691Y-15730571D02*
X11876453Y-15749618D01*
X12047882Y-15806761D02*
X12066930Y-15816285D01*
X12066930Y-15816285D02*
X12105025Y-15816285D01*
X12105025Y-15816285D02*
X12124072Y-15806761D01*
X12124072Y-15806761D02*
X12133596Y-15787714D01*
X12133596Y-15787714D02*
X12133596Y-15778190D01*
X12133596Y-15778190D02*
X12124072Y-15759142D01*
X12124072Y-15759142D02*
X12105025Y-15749618D01*
X12105025Y-15749618D02*
X12076453Y-15749618D01*
X12076453Y-15749618D02*
X12057406Y-15740095D01*
X12057406Y-15740095D02*
X12047882Y-15721047D01*
X12047882Y-15721047D02*
X12047882Y-15711523D01*
X12047882Y-15711523D02*
X12057406Y-15692475D01*
X12057406Y-15692475D02*
X12076453Y-15682952D01*
X12076453Y-15682952D02*
X12105025Y-15682952D01*
X12105025Y-15682952D02*
X12124072Y-15692475D01*
X12200263Y-15892475D02*
X12209787Y-15882952D01*
X12209787Y-15882952D02*
X12228834Y-15854380D01*
X12228834Y-15854380D02*
X12238358Y-15835333D01*
X12238358Y-15835333D02*
X12247882Y-15806761D01*
X12247882Y-15806761D02*
X12257406Y-15759142D01*
X12257406Y-15759142D02*
X12257406Y-15721047D01*
X12257406Y-15721047D02*
X12247882Y-15673428D01*
X12247882Y-15673428D02*
X12238358Y-15644856D01*
X12238358Y-15644856D02*
X12228834Y-15625809D01*
X12228834Y-15625809D02*
X12209787Y-15597237D01*
X12209787Y-15597237D02*
X12200263Y-15587714D01*
X12562168Y-15892475D02*
X12552644Y-15882952D01*
X12552644Y-15882952D02*
X12533596Y-15854380D01*
X12533596Y-15854380D02*
X12524072Y-15835333D01*
X12524072Y-15835333D02*
X12514549Y-15806761D01*
X12514549Y-15806761D02*
X12505025Y-15759142D01*
X12505025Y-15759142D02*
X12505025Y-15721047D01*
X12505025Y-15721047D02*
X12514549Y-15673428D01*
X12514549Y-15673428D02*
X12524072Y-15644856D01*
X12524072Y-15644856D02*
X12533596Y-15625809D01*
X12533596Y-15625809D02*
X12552644Y-15597237D01*
X12552644Y-15597237D02*
X12562168Y-15587714D01*
X12638358Y-15682952D02*
X12638358Y-15816285D01*
X12638358Y-15701999D02*
X12647882Y-15692475D01*
X12647882Y-15692475D02*
X12666930Y-15682952D01*
X12666930Y-15682952D02*
X12695501Y-15682952D01*
X12695501Y-15682952D02*
X12714549Y-15692475D01*
X12714549Y-15692475D02*
X12724072Y-15711523D01*
X12724072Y-15711523D02*
X12724072Y-15816285D01*
X12847882Y-15816285D02*
X12828834Y-15806761D01*
X12828834Y-15806761D02*
X12819311Y-15797237D01*
X12819311Y-15797237D02*
X12809787Y-15778190D01*
X12809787Y-15778190D02*
X12809787Y-15721047D01*
X12809787Y-15721047D02*
X12819311Y-15701999D01*
X12819311Y-15701999D02*
X12828834Y-15692475D01*
X12828834Y-15692475D02*
X12847882Y-15682952D01*
X12847882Y-15682952D02*
X12876453Y-15682952D01*
X12876453Y-15682952D02*
X12895501Y-15692475D01*
X12895501Y-15692475D02*
X12905025Y-15701999D01*
X12905025Y-15701999D02*
X12914549Y-15721047D01*
X12914549Y-15721047D02*
X12914549Y-15778190D01*
X12914549Y-15778190D02*
X12905025Y-15797237D01*
X12905025Y-15797237D02*
X12895501Y-15806761D01*
X12895501Y-15806761D02*
X12876453Y-15816285D01*
X12876453Y-15816285D02*
X12847882Y-15816285D01*
X12971692Y-15682952D02*
X13047882Y-15682952D01*
X13000263Y-15616285D02*
X13000263Y-15787714D01*
X13000263Y-15787714D02*
X13009787Y-15806761D01*
X13009787Y-15806761D02*
X13028834Y-15816285D01*
X13028834Y-15816285D02*
X13047882Y-15816285D01*
X13266930Y-15682952D02*
X13266930Y-15882952D01*
X13266930Y-15692475D02*
X13285977Y-15682952D01*
X13285977Y-15682952D02*
X13324073Y-15682952D01*
X13324073Y-15682952D02*
X13343120Y-15692475D01*
X13343120Y-15692475D02*
X13352644Y-15701999D01*
X13352644Y-15701999D02*
X13362168Y-15721047D01*
X13362168Y-15721047D02*
X13362168Y-15778190D01*
X13362168Y-15778190D02*
X13352644Y-15797237D01*
X13352644Y-15797237D02*
X13343120Y-15806761D01*
X13343120Y-15806761D02*
X13324073Y-15816285D01*
X13324073Y-15816285D02*
X13285977Y-15816285D01*
X13285977Y-15816285D02*
X13266930Y-15806761D01*
X13476453Y-15816285D02*
X13457406Y-15806761D01*
X13457406Y-15806761D02*
X13447882Y-15787714D01*
X13447882Y-15787714D02*
X13447882Y-15616285D01*
X13638358Y-15816285D02*
X13638358Y-15711523D01*
X13638358Y-15711523D02*
X13628834Y-15692475D01*
X13628834Y-15692475D02*
X13609787Y-15682952D01*
X13609787Y-15682952D02*
X13571692Y-15682952D01*
X13571692Y-15682952D02*
X13552644Y-15692475D01*
X13638358Y-15806761D02*
X13619311Y-15816285D01*
X13619311Y-15816285D02*
X13571692Y-15816285D01*
X13571692Y-15816285D02*
X13552644Y-15806761D01*
X13552644Y-15806761D02*
X13543120Y-15787714D01*
X13543120Y-15787714D02*
X13543120Y-15768666D01*
X13543120Y-15768666D02*
X13552644Y-15749618D01*
X13552644Y-15749618D02*
X13571692Y-15740095D01*
X13571692Y-15740095D02*
X13619311Y-15740095D01*
X13619311Y-15740095D02*
X13638358Y-15730571D01*
X13705025Y-15682952D02*
X13781215Y-15682952D01*
X13733596Y-15616285D02*
X13733596Y-15787714D01*
X13733596Y-15787714D02*
X13743120Y-15806761D01*
X13743120Y-15806761D02*
X13762168Y-15816285D01*
X13762168Y-15816285D02*
X13781215Y-15816285D01*
X13924073Y-15806761D02*
X13905025Y-15816285D01*
X13905025Y-15816285D02*
X13866930Y-15816285D01*
X13866930Y-15816285D02*
X13847882Y-15806761D01*
X13847882Y-15806761D02*
X13838358Y-15787714D01*
X13838358Y-15787714D02*
X13838358Y-15711523D01*
X13838358Y-15711523D02*
X13847882Y-15692475D01*
X13847882Y-15692475D02*
X13866930Y-15682952D01*
X13866930Y-15682952D02*
X13905025Y-15682952D01*
X13905025Y-15682952D02*
X13924073Y-15692475D01*
X13924073Y-15692475D02*
X13933596Y-15711523D01*
X13933596Y-15711523D02*
X13933596Y-15730571D01*
X13933596Y-15730571D02*
X13838358Y-15749618D01*
X14105025Y-15816285D02*
X14105025Y-15616285D01*
X14105025Y-15806761D02*
X14085977Y-15816285D01*
X14085977Y-15816285D02*
X14047882Y-15816285D01*
X14047882Y-15816285D02*
X14028834Y-15806761D01*
X14028834Y-15806761D02*
X14019311Y-15797237D01*
X14019311Y-15797237D02*
X14009787Y-15778190D01*
X14009787Y-15778190D02*
X14009787Y-15721047D01*
X14009787Y-15721047D02*
X14019311Y-15701999D01*
X14019311Y-15701999D02*
X14028834Y-15692475D01*
X14028834Y-15692475D02*
X14047882Y-15682952D01*
X14047882Y-15682952D02*
X14085977Y-15682952D01*
X14085977Y-15682952D02*
X14105025Y-15692475D01*
X14181215Y-15892475D02*
X14190739Y-15882952D01*
X14190739Y-15882952D02*
X14209787Y-15854380D01*
X14209787Y-15854380D02*
X14219311Y-15835333D01*
X14219311Y-15835333D02*
X14228834Y-15806761D01*
X14228834Y-15806761D02*
X14238358Y-15759142D01*
X14238358Y-15759142D02*
X14238358Y-15721047D01*
X14238358Y-15721047D02*
X14228834Y-15673428D01*
X14228834Y-15673428D02*
X14219311Y-15644856D01*
X14219311Y-15644856D02*
X14209787Y-15625809D01*
X14209787Y-15625809D02*
X14190739Y-15597237D01*
X14190739Y-15597237D02*
X14181215Y-15587714D01*
M02*
